<svg xmlns="http://www.w3.org/2000/svg" width="76.611" height="76.548" viewBox="0 0 76.611 76.548"><defs><style>.a{opacity:0.08;}.b{fill:#fff;}</style></defs><g class="a" transform="translate(-157 -6780)"><path class="b" d="M50.92,1860.534l-.009,0a33.429,33.429,0,0,1,3.105-38.265l-8.152,8.378-5.676,5.834h0l-9.2,9.453v0a12.772,12.772,0,0,0,8.6-1.383c0,.006,0,.012,0,.018.048.391.11.778.18,1.161.019.107.042.213.063.319q.087.438.192.872c.027.11.054.22.082.329q.126.481.274.953c.019.06.036.122.055.182q.187.577.407,1.139c.017.043.035.085.053.128q.195.487.413.963c.038.083.078.167.117.25q.208.437.435.864c.036.066.07.134.107.2a20.741,20.741,0,0,0,1.287,2.056l.053.072q.328.456.679.893l.1.121c.249.305.505.6.771.9l0,.005a20.6,20.6,0,0,0,1.813,1.754l.01.009q.472.4.97.781l.021.015a20.644,20.644,0,0,0,3.235,2l0,.009h.005v0s0,0,0,0" transform="translate(141.289 4996.009)"/><path class="b" d="M17.339,1822.453h0l-13.188.181h0a12.773,12.773,0,0,0,7.056,5.1l-.01.015c-.242.31-.472.628-.694.949-.062.09-.12.18-.181.27q-.248.372-.48.753c-.059.1-.118.193-.175.291q-.25.43-.48.868c-.029.056-.06.111-.089.167q-.276.54-.518,1.093c-.019.043-.035.085-.053.128q-.207.482-.389.973c-.032.086-.063.174-.094.26q-.163.456-.3.918c-.022.072-.045.144-.066.217A20.821,20.821,0,0,0,7.131,1837c0,.029-.009.059-.013.088q-.091.554-.151,1.112c-.006.052-.011.1-.016.154-.04.392-.07.785-.088,1.179,0,0,0,0,0,.007a20.72,20.72,0,0,0,.042,2.522v.013q.049.62.134,1.238c0,.009,0,.017,0,.025a20.6,20.6,0,0,0,.872,3.7l0,.01,0,0,0,0v0l0-.01a33.431,33.431,0,0,1,29.252-24.861l-11.688.16Z" transform="translate(158.125 4996.062)"/><path class="b" d="M-.422,1815.471l.009,0a33.3,33.3,0,0,1,4.486,19.637,33.3,33.3,0,0,1-7.592,18.628l8.152-8.378,5.676-5.834h0l9.2-9.453h0a12.775,12.775,0,0,0-8.6,1.383l0-.018c-.048-.39-.11-.777-.18-1.161-.02-.107-.042-.213-.063-.319-.058-.292-.122-.584-.193-.872-.027-.11-.054-.22-.082-.329q-.126-.482-.274-.954c-.019-.06-.035-.121-.055-.181q-.187-.577-.407-1.139c-.017-.043-.035-.085-.053-.128q-.195-.487-.413-.963c-.038-.084-.078-.167-.118-.25q-.208-.437-.435-.863c-.036-.066-.07-.134-.107-.2a20.874,20.874,0,0,0-1.287-2.056l-.053-.072q-.328-.456-.68-.894l-.1-.121c-.249-.306-.505-.6-.772-.9l0-.005a20.7,20.7,0,0,0-1.813-1.753l-.011-.009q-.472-.4-.97-.78l-.021-.015a20.606,20.606,0,0,0-3.235-2l-.005-.009h0v0h0" transform="translate(162.935 5000.274)"/><path class="b" d="M16.346,1876.1h0l13.188-.181v0a12.773,12.773,0,0,0-7.056-5.1l.01-.015c.242-.31.472-.628.694-.949.062-.089.12-.18.18-.27q.249-.372.48-.753c.059-.1.118-.193.175-.291q.25-.429.48-.868c.029-.056.061-.111.089-.167q.275-.54.518-1.093c.019-.042.035-.085.053-.128q.207-.482.388-.973c.032-.087.063-.174.094-.26q.163-.456.3-.918c.022-.072.045-.144.066-.217a20.724,20.724,0,0,0,.543-2.364c0-.029.009-.059.014-.088q.091-.554.151-1.112c.006-.052.011-.1.016-.155.04-.392.07-.785.088-1.179,0,0,0,0,0-.007a20.719,20.719,0,0,0-.042-2.522s0-.009,0-.014q-.049-.62-.134-1.238l0-.025a20.634,20.634,0,0,0-.873-3.7l0-.01,0,0,0,0v0l0,.009a33.3,33.3,0,0,1-10.713,17.058,33.3,33.3,0,0,1-18.54,7.8l11.688-.16Z" transform="translate(162.912 4977.674)"/><path class="b" d="M131.116,1825.33l0,.009a33.43,33.43,0,0,1-38.264-3.105l8.378,8.152,5.834,5.677h0l9.453,9.2h0a12.768,12.768,0,0,0-1.383-8.6l.018,0c.391-.048.778-.11,1.162-.18.107-.019.213-.042.319-.063q.439-.087.872-.193c.11-.027.22-.054.329-.082q.481-.126.953-.274c.06-.019.121-.035.181-.055q.577-.187,1.14-.407l.127-.053q.488-.194.963-.413l.25-.118q.437-.207.863-.435c.067-.036.134-.07.2-.107a20.81,20.81,0,0,0,2.056-1.287l.072-.053q.457-.328.894-.679l.121-.1c.305-.249.6-.505.9-.772l.005,0a20.7,20.7,0,0,0,1.754-1.813l.009-.01q.4-.472.78-.97l.016-.02a20.658,20.658,0,0,0,2-3.235l.009-.005v0h0s0,0,0,0" transform="translate(102.49 4996.029)"/><path class="b" d="M93.035,1842.094h0l.181,13.188h0a12.771,12.771,0,0,0,5.1-7.056l.015.01c.31.242.628.472.949.694.089.062.18.12.27.181q.372.248.753.48c.1.059.193.117.291.174q.429.251.868.48c.056.029.111.06.167.089q.54.275,1.093.518l.128.053c.321.138.646.268.973.389l.261.094q.456.162.918.3c.072.022.144.045.217.066a20.676,20.676,0,0,0,2.364.543l.088.014q.554.09,1.112.151l.155.016c.392.039.785.07,1.179.088h.007a20.781,20.781,0,0,0,2.522-.042h.014q.62-.049,1.238-.135l.025,0a20.637,20.637,0,0,0,3.7-.872l.01,0,0,0,0,0h0l-.009,0a33.429,33.429,0,0,1-24.861-29.253l.16,11.689Z" transform="translate(102.542 4996.009)"/><path class="b" d="M86.049,1876.674l0-.009a33.43,33.43,0,0,1,38.264,3.1l-8.378-8.152-5.834-5.677h0l-9.453-9.2h0a12.771,12.771,0,0,0,1.383,8.6l-.018,0c-.391.048-.778.11-1.162.18-.107.019-.213.042-.319.063q-.439.087-.872.193c-.11.027-.22.054-.329.082q-.481.126-.953.274c-.06.019-.121.035-.181.055q-.578.187-1.14.407l-.128.053q-.487.194-.963.413l-.25.118q-.437.207-.863.435c-.067.036-.134.07-.2.107a20.785,20.785,0,0,0-2.056,1.287l-.072.053q-.457.328-.894.679l-.121.1c-.305.249-.6.505-.9.772l-.005,0a20.688,20.688,0,0,0-1.754,1.813l-.009.01q-.4.473-.78.97l-.016.021a20.631,20.631,0,0,0-2,3.235l-.009.005v0h0s0,0,0,0" transform="translate(106.757 4974.382)"/><path class="b" d="M146.676,1843.087h0l-.181-13.188h0a12.77,12.77,0,0,0-5.1,7.056l-.015-.01c-.31-.242-.628-.472-.949-.694-.089-.062-.18-.12-.27-.181q-.373-.248-.753-.48c-.1-.058-.193-.117-.291-.174q-.429-.251-.868-.48c-.056-.029-.111-.06-.167-.089q-.54-.275-1.093-.518l-.128-.053c-.321-.138-.646-.268-.973-.389l-.261-.094q-.456-.162-.918-.3l-.217-.066a20.728,20.728,0,0,0-2.364-.544l-.088-.014q-.554-.091-1.112-.151l-.155-.016c-.392-.04-.785-.07-1.179-.088h-.007a20.781,20.781,0,0,0-2.522.042h-.014q-.62.049-1.238.135l-.025,0a20.63,20.63,0,0,0-3.7.872l-.01,0,0,0,0,0h0l.009,0a33.429,33.429,0,0,1,24.861,29.253l-.16-11.689Z" transform="translate(84.158 4991.222)"/><path class="b" d="M95.858,1719.591l.009,0a33.429,33.429,0,0,1-3.105,38.265l8.152-8.378,5.676-5.834h0l9.2-9.453h0a12.773,12.773,0,0,0-8.6,1.383c0-.006,0-.012,0-.017-.048-.391-.11-.778-.18-1.161-.019-.107-.042-.213-.063-.319q-.087-.439-.192-.872c-.027-.11-.054-.22-.082-.329q-.126-.481-.274-.953c-.019-.061-.036-.122-.055-.182q-.187-.576-.407-1.14c-.017-.043-.035-.085-.053-.128q-.195-.487-.413-.963c-.038-.083-.078-.167-.117-.25q-.208-.437-.435-.863c-.036-.066-.07-.134-.107-.2a20.769,20.769,0,0,0-1.287-2.056l-.053-.072q-.328-.456-.679-.893l-.1-.121c-.249-.305-.505-.6-.771-.9l0-.005a20.666,20.666,0,0,0-1.813-1.754l-.011-.009q-.472-.4-.97-.78l-.021-.015a20.626,20.626,0,0,0-3.235-2l0-.009h-.005v0h0" transform="translate(102.543 5060.414)"/><path class="b" d="M112.627,1780.219h0l13.188-.181h0a12.773,12.773,0,0,0-7.056-5.1l.01-.014c.242-.31.472-.628.694-.949.062-.089.12-.18.181-.27q.248-.372.48-.753c.059-.1.118-.193.175-.291q.25-.429.48-.868c.029-.056.06-.111.089-.167q.276-.54.518-1.093c.019-.042.035-.085.053-.128q.207-.482.389-.973c.032-.086.063-.174.094-.26q.163-.456.3-.918c.022-.072.045-.144.066-.217a20.806,20.806,0,0,0,.544-2.364c0-.029.009-.059.013-.088q.091-.554.151-1.112c.006-.051.011-.1.016-.154.04-.392.07-.785.088-1.179,0,0,0,0,0-.007a20.719,20.719,0,0,0-.042-2.522v-.013q-.049-.62-.134-1.238c0-.009,0-.017,0-.025a20.6,20.6,0,0,0-.872-3.7l0-.01,0,0,0,0v0l0,.01A33.43,33.43,0,0,1,92.8,1780.49l11.688-.16Z" transform="translate(102.52 5037.815)"/><path class="b" d="M147.2,1764.664l-.009,0A33.429,33.429,0,0,1,150.3,1726.4l-8.152,8.378-5.676,5.834h0l-9.2,9.453h0a12.775,12.775,0,0,0,8.6-1.383l0,.018c.048.39.11.777.18,1.161.02.107.042.213.063.319q.087.439.193.872c.027.11.054.22.082.329q.126.481.274.954c.019.06.035.121.055.181q.187.577.407,1.139c.017.043.035.085.053.128q.195.487.413.963c.038.084.078.167.118.25q.208.437.435.863c.036.066.07.134.107.2a20.874,20.874,0,0,0,1.287,2.056l.053.072q.327.456.679.894l.1.121c.249.306.505.605.772.9l0,0a20.734,20.734,0,0,0,1.813,1.754l.011.009q.472.4.97.78l.021.015a20.605,20.605,0,0,0,3.235,2l.005.009h0v0h0" transform="translate(80.896 5056.143)"/><path class="b" d="M113.62,1726.583h0l-13.188.181v0a12.772,12.772,0,0,0,7.056,5.1l-.01.015c-.242.31-.472.628-.694.949-.062.089-.121.18-.181.27q-.249.372-.48.753c-.059.1-.118.193-.175.291q-.25.429-.48.868c-.029.056-.061.111-.089.167q-.276.54-.518,1.093c-.019.042-.035.085-.053.128q-.207.482-.388.973c-.032.087-.063.174-.094.26q-.163.456-.3.918c-.022.072-.045.144-.066.217a20.723,20.723,0,0,0-.543,2.364c0,.029-.009.059-.014.088q-.091.554-.151,1.112c-.006.052-.011.1-.016.155-.04.392-.07.785-.088,1.179,0,0,0,0,0,.007a20.718,20.718,0,0,0,.042,2.522s0,.009,0,.014q.049.62.134,1.238l0,.025a20.643,20.643,0,0,0,.873,3.7l0,.01,0,0,0,0v0l0-.009a33.429,33.429,0,0,1,29.253-24.861l-11.688.16Z" transform="translate(97.732 5056.196)"/><path class="b" d="M-9.995,1780.464l0-.009a33.3,33.3,0,0,1,19.637-4.486,33.3,33.3,0,0,1,18.627,7.591l-8.378-8.152-5.834-5.677h0l-9.453-9.2h0a12.773,12.773,0,0,0,1.383,8.6l-.018,0c-.39.048-.777.11-1.162.18-.107.019-.212.042-.319.063-.292.058-.584.122-.872.193-.11.027-.22.054-.33.083q-.48.126-.953.274c-.06.019-.122.035-.182.055q-.576.187-1.14.407l-.127.053q-.488.194-.963.413c-.084.038-.167.078-.25.118q-.437.207-.864.435c-.066.035-.134.07-.2.107a20.8,20.8,0,0,0-2.056,1.287l-.072.053q-.456.328-.893.679l-.121.1c-.306.249-.6.505-.9.772l0,0a20.651,20.651,0,0,0-1.754,1.813l-.009.01q-.4.472-.78.97l-.016.02a20.656,20.656,0,0,0-2,3.235l-.009.005v0h0s0,0,0,0" transform="translate(167 5034.729)"/><path class="b" d="M50.632,1746.877h0l-.181-13.188h0a12.771,12.771,0,0,0-5.1,7.056l-.015-.01c-.31-.242-.628-.472-.949-.694-.089-.062-.18-.12-.27-.181q-.372-.248-.753-.48c-.1-.059-.193-.117-.291-.174q-.429-.251-.868-.48c-.056-.029-.111-.06-.167-.089q-.54-.276-1.093-.518l-.128-.053c-.321-.138-.646-.268-.973-.389l-.261-.094q-.456-.162-.918-.3c-.072-.022-.144-.045-.217-.066a20.808,20.808,0,0,0-2.364-.544l-.088-.013q-.554-.09-1.112-.151l-.155-.016c-.392-.039-.785-.07-1.179-.088h-.007a20.806,20.806,0,0,0-2.522.042h-.014q-.62.049-1.238.135l-.025,0a20.627,20.627,0,0,0-3.7.872l-.01,0,0,0,0,0h0l.009,0A33.429,33.429,0,0,1,50.9,1766.7l-.16-11.688Z" transform="translate(144.401 5051.569)"/><path class="b" d="M35.072,1729.119l0,.009a33.429,33.429,0,0,1-38.264-3.1l8.378,8.152,5.834,5.677h0l9.453,9.2h0a12.771,12.771,0,0,0-1.383-8.6l.018,0c.391-.048.778-.11,1.162-.18.107-.019.213-.042.319-.063q.439-.087.872-.193c.11-.027.22-.054.329-.082q.481-.126.954-.274c.06-.019.121-.035.181-.055q.578-.187,1.14-.407l.128-.053q.487-.194.963-.413l.25-.118q.437-.208.863-.435c.067-.036.134-.07.2-.107a20.81,20.81,0,0,0,2.056-1.287l.072-.053q.457-.328.894-.68l.121-.1c.305-.249.6-.505.9-.771l.005,0a20.721,20.721,0,0,0,1.754-1.813l.009-.01q.4-.472.78-.97l.016-.021a20.628,20.628,0,0,0,2-3.235l.009-.005v0h0s0,0,0,0" transform="translate(162.732 5056.376)"/><path class="b" d="M-3.009,1745.885h0l.181,13.188h0a12.724,12.724,0,0,0,3.65-3.794,12.791,12.791,0,0,0,1.45-3.261l.015.01c.31.242.628.472.949.694.089.062.18.121.27.181q.373.249.753.48c.1.059.193.118.291.174q.429.251.868.48c.056.029.111.061.167.089q.54.275,1.093.518l.128.053c.321.138.646.268.973.389l.261.094q.456.163.918.3c.072.022.144.045.217.066a20.626,20.626,0,0,0,2.364.544l.088.013q.554.091,1.112.151l.155.016c.392.04.785.071,1.179.088h.007a20.781,20.781,0,0,0,2.522-.042h.014q.62-.048,1.238-.134l.025,0a20.652,20.652,0,0,0,3.7-.873l.01,0,0,0,0,0h0l-.009,0a33.43,33.43,0,0,1-24.861-29.253l.16,11.688Z" transform="translate(162.785 5056.355)"/></g></svg>