<svg xmlns="http://www.w3.org/2000/svg" width="20" height="20" viewBox="0 0 20 20"><g transform="translate(-2.5 -2.5)"><path d="M12.5,22.5h0a10.031,10.031,0,0,1-10-10h0a10.031,10.031,0,0,1,10-10h0a10.031,10.031,0,0,1,10,10h0A10.031,10.031,0,0,1,12.5,22.5Z" fill="#006c35"/><g transform="translate(7.137 8.824)"><path d="M123.791,167.017h-.019a.281.281,0,0,1-.252-.19.577.577,0,0,1-.093-.241.021.021,0,0,1-.012.019l-.012.019a.367.367,0,0,1-.027.136.852.852,0,0,1-.066.151.319.319,0,0,1-.1.12.384.384,0,0,1-.532-.062.559.559,0,0,1-.12-.249,1.162,1.162,0,0,1-.016-.155v-.012a.384.384,0,0,1,.012-.074.941.941,0,0,0,.016-.117c0-.043,0-.082,0-.116a.238.238,0,0,1,.012-.062.6.6,0,0,0,.019-.089.423.423,0,0,0,.012-.1.021.021,0,0,1,.012-.019v-.019h-.016s-.008,0-.016.012l-.031.031v.019a.077.077,0,0,1-.012.031.342.342,0,0,0-.047.093.347.347,0,0,0-.027.1.035.035,0,0,0-.012.019c-.008.05-.016.1-.031.163a1.486,1.486,0,0,0-.031.163.847.847,0,0,1-.027.194c-.016.082-.035.144-.047.194a.281.281,0,0,1-.074.082.142.142,0,0,1-.117.031.215.215,0,0,1-.124-.1.97.97,0,0,1-.093-.315,1.744,1.744,0,0,1-.019-.26V166.4c0-.043,0-.082,0-.124s0-.082,0-.117c0-.016,0-.019.012-.019v-.019l.019-.05v.1c0,.043,0,.089,0,.148a1.021,1.021,0,0,0,.016.136,1.14,1.14,0,0,0,.035.186.27.27,0,0,0,.058.117.1.1,0,0,0,.093.062.1.1,0,0,0,.093-.05.422.422,0,0,0,.066-.171,1.729,1.729,0,0,1,.058-.225l.019-.082c.008-.043.023-.109.05-.2a1.073,1.073,0,0,1,.117-.264c.05-.082.1-.128.148-.136h.023a.035.035,0,0,1,.012.019l-.031.272a1.817,1.817,0,0,1-.016.256,1.333,1.333,0,0,0-.016.151.332.332,0,0,0,0,.124c.008.035.016.082.031.136a.41.41,0,0,0,.093.117.163.163,0,0,0,.082.043.34.34,0,0,0,.249-.012.523.523,0,0,0,.148-.136.452.452,0,0,0,.066-.109.282.282,0,0,0,.027-.1.841.841,0,0,0-.016-.117c-.012-.062-.019-.132-.031-.214s-.023-.151-.035-.214c-.016-.089-.023-.151-.031-.186V165.7c.019-.078.043-.148.062-.21a.035.035,0,0,1,.019-.012.021.021,0,0,1,.019.012.245.245,0,0,1,.043.074.654.654,0,0,1,.031.093.984.984,0,0,0,.016.136c.012.07.019.148.027.229s.016.171.027.241a1.055,1.055,0,0,1,.016.124.606.606,0,0,0,.058.155.684.684,0,0,0,.132.179.061.061,0,0,0,.031.019v-.031c-.035-.214-.062-.392-.078-.532s-.031-.221-.035-.249l-.062-.217a.042.042,0,0,1,0-.043l.074-.229h.012l.229.513v.082h-.012l-.074-.05q0-.012-.012,0,.012.122.082.606a1.013,1.013,0,0,0,.019.186.287.287,0,0,0,.074-.012.4.4,0,0,0,.229-.136v-.012h.012a.063.063,0,0,0,.016-.027.076.076,0,0,0,0-.027.01.01,0,0,0-.012-.012v-.012a.061.061,0,0,1-.019-.031c-.016-.035-.035-.082-.058-.136s-.047-.117-.066-.179c-.035-.1-.066-.214-.093-.322a2.252,2.252,0,0,1-.05-.229l-.019-.019.043-.217v-.016s0,0,.012,0a.021.021,0,0,1,.019.012l.2.334v.082l-.082-.062-.019.019h.012v.012a.218.218,0,0,1,.019.074c.019.05.047.113.074.186s.054.148.078.214a1.428,1.428,0,0,1,.047.151v.019l.012.019v.089a.277.277,0,0,1-.012.089.3.3,0,0,1-.047.136,1.062,1.062,0,0,1-.117.163.26.26,0,0,1-.151.089.269.269,0,0,1-.062.012c.019.183.047.353.074.52a.088.088,0,0,0,.012.043,1.8,1.8,0,0,0,.167-.093,1.3,1.3,0,0,0,.186-.093h.062a.035.035,0,0,1,.031.019.078.078,0,0,1,.012.031,1.931,1.931,0,0,0,.019.241q.082.134.186.1c-.027-.2-.062-.423-.1-.668-.05-.353-.089-.672-.124-.948-.035-.249-.05-.384-.05-.408l-.05-.093.062-.229a.029.029,0,0,1,0-.019c0-.008.008-.012.016-.012a.035.035,0,0,1,.031.019l.21.513v.082l-.093-.1h-.012a.035.035,0,0,0-.012.019c.008.078.027.237.062.485s.074.52.116.819c.035.175.058.334.074.482a.314.314,0,0,0,.1-.117.813.813,0,0,0,.136-.272.021.021,0,0,0,.019-.012.021.021,0,0,1,.019.012.431.431,0,0,0,.089.3.158.158,0,0,0,.155.047.206.206,0,0,0,.12-.093.407.407,0,0,0-.027-.089.12.12,0,0,0-.035-.047l-.012-.012v-.012l.1-.249.012.012a.078.078,0,0,0,.012.031.262.262,0,0,1,.043.093.614.614,0,0,1,.019.179.643.643,0,0,1-.229.439.4.4,0,0,0-.062,0,.391.391,0,0,1-.093,0,.247.247,0,0,1-.1-.051.227.227,0,0,1-.058-.148.149.149,0,0,0-.031.043.626.626,0,0,1-.1.179.067.067,0,0,1-.043.043.176.176,0,0,0,.012.062c.027.237.047.381.05.439v.019a.021.021,0,0,0,.012.019.983.983,0,0,0,0,.1c0,.039,0,.078,0,.12v.093a1.157,1.157,0,0,1-.031.14c-.016.05-.023.1-.031.132a.029.029,0,0,1-.031.019c-.008,0-.012,0-.016-.012a.042.042,0,0,1,0-.019v-.233a1.565,1.565,0,0,0-.019-.264c-.008-.05-.031-.221-.074-.52v-.019h-.062a.2.2,0,0,1-.179-.062.448.448,0,0,1-.089-.163,1.206,1.206,0,0,1-.035-.14.035.035,0,0,0-.019-.012c-.008-.008-.016-.008-.019,0q-.093.052-.2.1c-.027.016-.054.027-.082.043.027.151.047.26.05.322a2.321,2.321,0,0,1-.019.575,1.632,1.632,0,0,1-.21.369,2.714,2.714,0,0,1-.229.245,1.621,1.621,0,0,1-.551.322.776.776,0,0,1-.427.035.646.646,0,0,1-.4-.214,1.027,1.027,0,0,1-.186-.513,2.5,2.5,0,0,1,.136-.94l.05-.043v.012h-.012a.917.917,0,0,1-.019.136c-.019.1-.039.217-.058.353a1.589,1.589,0,0,0,0,.408.563.563,0,0,0,.12.28.51.51,0,0,0,.2.148,1.346,1.346,0,0,0,.2.058.7.7,0,0,0,.12.016,2.691,2.691,0,0,0,.264-.062,1.575,1.575,0,0,0,.439-.217,2.109,2.109,0,0,0,.5-.544q-.041-.291-.093-.687a.141.141,0,0,1-.043.012l-.012.012h-.012v.384a1.218,1.218,0,0,1-.73.812.708.708,0,0,1-.33.089.449.449,0,0,1-.318-.109.6.6,0,0,1-.217-.416c0-.124.008-.268.019-.427a2.091,2.091,0,0,1,.05-.21.337.337,0,0,0,.012-.05v-.031l.074-.05v.012h-.012a.294.294,0,0,1-.019.074v.012a1.77,1.77,0,0,0-.047.241.968.968,0,0,0,0,.26.522.522,0,0,0,.155.276.353.353,0,0,0,.318.132.723.723,0,0,0,.163-.019,1.213,1.213,0,0,0,.33-.167,1.657,1.657,0,0,0,.431-.439.167.167,0,0,0,.031-.124.2.2,0,0,0-.016-.089c-.012-.023-.031-.058-.058-.1v-.012a1.065,1.065,0,0,1-.148.012,1.026,1.026,0,0,1-.229,0,.173.173,0,0,1-.117-.1.3.3,0,0,1-.019-.155.824.824,0,0,1,.027-.2.727.727,0,0,1,.074-.2.16.16,0,0,1,.151-.089.266.266,0,0,1,.2.082.621.621,0,0,1,.12.183.464.464,0,0,1,.043.14.035.035,0,0,0,.019.031.074.074,0,0,0,.05-.019c-.027-.214-.043-.322-.043-.322S123.811,167.218,123.791,167.017Zm-1.779-1.612a.219.219,0,0,1,.016-.047c.008-.016.023-.016.05-.012a.5.5,0,0,1,.179.1.169.169,0,0,1,.05.186.083.083,0,0,1-.05.019h-.05a.076.076,0,0,0-.058,0,.123.123,0,0,0-.047.031.371.371,0,0,1-.082.093l-.074.074c.016.016.027.023.035.031a.063.063,0,0,0,.035.012.531.531,0,0,0,.447-.21.443.443,0,0,1-.2.233.538.538,0,0,1-.3.066.047.047,0,0,1-.05-.043.136.136,0,0,1,.012-.093.238.238,0,0,1,.1-.136.619.619,0,0,0,.062-.074c-.035.016-.058.012-.074,0a.089.089,0,0,1-.016-.074.612.612,0,0,1,.016-.089v-.012l-.012-.012C122.009,165.44,122.009,165.42,122.013,165.4Zm.466,1.7a.156.156,0,0,1,.124-.109.207.207,0,0,1,.074.14.629.629,0,0,1,0,.171.2.2,0,0,1,.078.082.15.15,0,0,1,0,.117.526.526,0,0,1-.093-.05.078.078,0,0,1-.031-.012.905.905,0,0,1-.186.276,1.717,1.717,0,0,1-.26.2.6.6,0,0,1-.093.074.148.148,0,0,0-.043.031.168.168,0,0,1-.1.05q.146-.146.3-.28a2.612,2.612,0,0,0,.353-.365.149.149,0,0,1-.043-.031c-.027-.016-.05-.031-.074-.047a.083.083,0,0,1-.031-.066A.372.372,0,0,1,122.479,167.1Zm-.439.249a.14.14,0,0,1,.035-.035.163.163,0,0,1,.058,0h.012a.451.451,0,0,1,.1.016.316.316,0,0,1,.12.058.038.038,0,0,1,0,.054.585.585,0,0,1-.179.194.339.339,0,0,1-.124.058h-.019l-.093-.012v-.012l.012-.012c.043-.016.085-.031.132-.05a.384.384,0,0,0,.1-.058c.019-.016.016-.031-.012-.035a.2.2,0,0,0-.082-.019.208.208,0,0,0-.074.019c-.008.008-.016.008-.019,0s-.012-.012-.012-.027A.148.148,0,0,1,122.04,167.35Zm.031-1.868c-.008.016-.016.027-.019.035s0,.019.012.027a.211.211,0,0,0,.074.012h.012c-.008-.05-.027-.082-.062-.093A.02.02,0,0,0,122.071,165.483Zm.2.074a.967.967,0,0,0-.093-.062.1.1,0,0,1-.012.05A.483.483,0,0,0,122.269,165.556Zm.788,2.392a.116.116,0,0,1,.047.066.4.4,0,0,1-.043.136h-.012a.162.162,0,0,0-.031-.047.109.109,0,0,0-.047-.031.045.045,0,0,0-.047.016.727.727,0,0,0-.082.315c-.016.089-.031.175-.05.249a.871.871,0,0,1-.074-.148.456.456,0,0,0-.1-.217.021.021,0,0,0-.019.012h-.019a.247.247,0,0,0-.074-.062l-.05-.019v-.089a.106.106,0,0,1,.016-.062.05.05,0,0,1,.058-.016.242.242,0,0,1,.14.1.493.493,0,0,1,.066.155c.019.043.043.082.062.117.008-.043.016-.082.019-.124.016-.082.031-.163.05-.241l.047-.082a.1.1,0,0,1,.066-.05A.091.091,0,0,1,123.057,167.949Zm-.517-.711.062.035c.016.008.023.016.031.019v-.031a.226.226,0,0,0-.012-.074.089.089,0,0,0-.043-.05.075.075,0,0,0-.047.016.177.177,0,0,0-.047.047A.109.109,0,0,0,122.541,167.238Zm8.283,5.421a.151.151,0,0,1-.058-.089h-.384a.512.512,0,0,1-.117.031.148.148,0,0,1-.155-.167.448.448,0,0,1,.1-.28h-6.808c-.485,0-.773-.128-.854-.384h.043v-.012h7.557c.07-.016.117-.07.148-.167-.078,0-.117-.043-.124-.124.008-.082.066-.132.179-.148a.133.133,0,0,1,.1.047.207.207,0,0,1,.043.14.5.5,0,0,1-.074.249h1.138a.427.427,0,0,1,.318.12.362.362,0,0,1,.12.264.522.522,0,0,1-.093.28.444.444,0,0,1-.365.186.067.067,0,0,1-.062-.043H131.1a.159.159,0,0,1-.05.089.174.174,0,0,1-.117.035A.109.109,0,0,1,130.824,172.659Zm-7.9-6.959v-.2a.01.01,0,0,1,.012-.012.662.662,0,0,1,.2.4.634.634,0,0,1-.1.423h-.008a1.1,1.1,0,0,0,.016-.369.288.288,0,0,0-.109-.214C122.929,165.727,122.925,165.716,122.925,165.7Zm.517,1.814a.081.081,0,0,0-.093,0,.258.258,0,0,0-.058.082c-.016.035-.023.062-.031.082l.334.012A.608.608,0,0,0,123.442,167.514Zm.474,2.14c.016,0,.019,0,.019.012a.592.592,0,0,1-.058.155.1.1,0,0,1-.109.05c-.07-.019-.089-.1-.062-.225a.82.82,0,0,1,.26-.4c0-.008,0-.012,0-.012a.014.014,0,0,1,.012,0s0,.008,0,.016a1.254,1.254,0,0,0-.163.3c-.016.066-.016.1.012.117A.1.1,0,0,0,123.916,169.653Zm1.565-.439a.252.252,0,0,0,.05.167c.035.035.109.043.217.019a.891.891,0,0,0,.3-.183,4.41,4.41,0,0,0,.338-.3c.1-.1.148-.175.14-.225a.4.4,0,0,1-.043-.124c-.027-.124-.066-.268-.109-.431a1.885,1.885,0,0,0-.151-.392v-.365a.447.447,0,0,1,.132.179,2.766,2.766,0,0,1,.12.272,1.751,1.751,0,0,0,.043.2c.019.085.043.179.066.276a2.3,2.3,0,0,1,.047.241.279.279,0,0,1,.019.093v.012l.019.031.012-.031.019-.148a.93.93,0,0,1,.082-.148c.035-.051.066-.093.093-.136a1.325,1.325,0,0,1,.163-.155,2.832,2.832,0,0,1,.276-.21l-.05-.1V167.6a.128.128,0,0,1,.031-.093.234.234,0,0,1,.179-.082.419.419,0,0,1,.21.05.977.977,0,0,1,.136.117.093.093,0,0,1,.019.1.388.388,0,0,1-.043.082.083.083,0,0,0-.019.05.01.01,0,0,1-.012.012h-.012v.012l-.066.031c-.031.016-.062.027-.093.043a.464.464,0,0,0-.078.043c-.016.008-.023.016-.031.019h-.012a.11.11,0,0,0,0,.031.081.081,0,0,1,0,.043.29.29,0,0,1-.027.047.147.147,0,0,1-.058.047.113.113,0,0,0,0-.062.155.155,0,0,0-.016-.051.035.035,0,0,1-.012-.019,2.529,2.529,0,0,0-.249.171,1.175,1.175,0,0,0-.229.245v.012c0,.008,0,.012.012.016a.042.042,0,0,0,.019,0c.439,0,.75,0,.94-.016s.3-.019.334-.027c.016,0,.019,0,.019,0v.016a.241.241,0,0,0-.047.066.441.441,0,0,1-.058.089.147.147,0,0,0-.031.062,1.27,1.27,0,0,0-.365.089,2.155,2.155,0,0,0-.381.183,1.346,1.346,0,0,0-.225.155.307.307,0,0,0,.117.151.82.82,0,0,0,.2.12v.249a.8.8,0,0,1-.423-.12,1.3,1.3,0,0,1-.245-.2.413.413,0,0,1-.089-.14c-.023-.058-.047-.117-.062-.167s-.035-.1-.047-.14a.038.038,0,0,0-.012-.031v-.023a.7.7,0,0,1-.016.12.556.556,0,0,1-.089.2,2.412,2.412,0,0,1-.214.249,1.429,1.429,0,0,1-.3.241c-.217.113-.357.117-.427.019a.479.479,0,0,1-.1-.365,1.958,1.958,0,0,1-.489.315,5.454,5.454,0,0,1-.792.074h-.031l.019-.043h.023c.019-.008.054-.016.1-.031v-.012c.07-.027.159-.062.264-.1s.21-.082.307-.124a2.3,2.3,0,0,0,.229-.12,3.688,3.688,0,0,0,.447-.315c.019-.043.039-.082.05-.117s.016-.074.019-.093h.012v-.012l.019.043c-.008.016-.016.047-.031.093a.056.056,0,0,0-.012.043.249.249,0,0,1,.074-.05,3.172,3.172,0,0,0,.47-.408.408.408,0,0,1-.109-.155c-.031-.07-.066-.144-.1-.225s-.062-.148-.082-.2a.275.275,0,0,1-.019-.074v-.023l-.031-.019.031-.28h.012l.322.353.012.082-.136-.082v.085l.012.019c.008.019.019.05.035.082l.047.1c.016.035.023.062.031.082a.507.507,0,0,1,.031.167.655.655,0,0,1-.012.136v.031a.765.765,0,0,1-.183.3,2.716,2.716,0,0,1-.307.272q-.052.052-.117.1Zm-1.021-.2a.036.036,0,0,1,.012.019.41.41,0,0,1-.078.186c-.039.05-.074.07-.109.062q-.117-.041-.082-.28a.808.808,0,0,1,.3-.482h.016a.014.014,0,0,1,.012,0s0,0,0,0a1.449,1.449,0,0,0-.179.338c-.019.082-.016.132.012.155a.067.067,0,0,0,.093,0C124.448,169.013,124.451,169.009,124.459,169.017Zm.885-3.639a.061.061,0,0,1,.031.031c.008.016.016.023.019.031a.229.229,0,0,1,.066.124.148.148,0,0,1-.035.136.177.177,0,0,1-.1-.031.723.723,0,0,1-.334.249.537.537,0,0,0-.1.031.371.371,0,0,1-.148.05c.05-.027.1-.054.155-.082a1.789,1.789,0,0,0,.28-.179.278.278,0,0,0,.1-.093l-.012-.012a.1.1,0,0,1-.05-.019.091.091,0,0,1,.012-.078c.016-.023.027-.05.043-.078a.451.451,0,0,0,.012-.062l.012-.019A.066.066,0,0,1,125.345,165.378Zm1.794.346v.082l-.093-.074-.012.031v.012c.008.016.016.035.031.062.019.054.043.12.066.194s.05.144.074.21a1.428,1.428,0,0,1,.047.151v.05a.261.261,0,0,1,.012.089.276.276,0,0,1-.012.089.407.407,0,0,1-.043.132.771.771,0,0,1-.109.167.265.265,0,0,1-.163.089.459.459,0,0,1-.2.012.494.494,0,0,1-.132-.05.415.415,0,0,1-.124-.14.546.546,0,0,1-.093-.233v.039a1.172,1.172,0,0,1-.035.136.854.854,0,0,1-.066.151.29.29,0,0,1-.117.12.384.384,0,0,1-.532-.062.706.706,0,0,1-.117-.249.551.551,0,0,1-.012-.167v-.012a.53.53,0,0,1,0-.062q.006-.052.012-.117a.475.475,0,0,1,.027-.124v-.05a.435.435,0,0,1,.012-.093.435.435,0,0,0,.012-.093l.012-.031c0-.008,0-.012,0-.012h-.012s-.008,0-.012.012a.038.038,0,0,1-.027.019v.023a.038.038,0,0,0-.012.031.351.351,0,0,0-.05.1.721.721,0,0,0-.031.1v.031a.727.727,0,0,0-.035.151c-.012.058-.019.113-.027.163s-.016.124-.031.2a1.148,1.148,0,0,1-.05.194.23.23,0,0,1-.074.078.155.155,0,0,1-.117.027.186.186,0,0,1-.117-.093,1.235,1.235,0,0,1-.1-.315,1.91,1.91,0,0,1-.027-.26v-.019c0-.043,0-.082,0-.124a.942.942,0,0,1,.016-.117v-.039l.031-.043h.012v.388a.6.6,0,0,0,.047.183.892.892,0,0,1,.047.12.119.119,0,0,0,.1.058.11.11,0,0,0,.109-.058,1.29,1.29,0,0,0,.058-.163,1.374,1.374,0,0,0,.047-.233.145.145,0,0,1,.031-.074,1.688,1.688,0,0,1,.058-.2,2.334,2.334,0,0,1,.109-.272c.043-.085.089-.132.148-.132h.031v.012c0,.008,0,.035,0,.089a1.631,1.631,0,0,1-.027.194c-.008.089-.016.175-.027.256a1.333,1.333,0,0,0-.016.151,1.169,1.169,0,0,0,0,.124.636.636,0,0,0,.035.136.21.21,0,0,0,.089.109.5.5,0,0,0,.089.047.456.456,0,0,0,.249-.012.481.481,0,0,0,.148-.148.231.231,0,0,0,.058-.1c.012-.043.019-.074.027-.093a.3.3,0,0,0,0-.12q-.012-.087-.035-.21a1.779,1.779,0,0,1-.035-.225c-.016-.082-.023-.144-.031-.179a.089.089,0,0,1,.012-.043.616.616,0,0,1,.062-.21c0-.008.008-.012.019-.012v.012a.52.52,0,0,1,.043.082c.016.035.023.062.031.082a.75.75,0,0,1,.019.148c.008.07.016.148.031.229s.016.171.019.241a.9.9,0,0,0,.019.124.625.625,0,0,0,.05.151.616.616,0,0,0,.124.171.333.333,0,0,0,.264.043.357.357,0,0,0,.233-.124v-.012a.076.076,0,0,1,0-.027.107.107,0,0,0,0-.035.01.01,0,0,0-.012-.012.088.088,0,0,0-.012-.043.959.959,0,0,1-.058-.132c-.023-.058-.05-.12-.078-.183a3.027,3.027,0,0,1-.093-.315,1.232,1.232,0,0,1-.043-.229l-.031-.019.043-.217c0-.016,0-.019,0-.019h.035Zm-1.732,2.75c.016.008.019.016.019.019a.66.66,0,0,1-.066.186c-.031.054-.066.082-.109.074-.082-.035-.117-.132-.093-.291a.8.8,0,0,1,.315-.482c.008-.008.012-.008.012,0a.014.014,0,0,0,0,.012s0,0,0,0a1.123,1.123,0,0,0-.171.338c-.016.082-.012.132.016.163S125.38,168.516,125.407,168.473Zm-.14-2.924a.108.108,0,0,0,.035,0c.016.008.019.016.019.019,0-.016,0-.019.012-.019v-.05a.083.083,0,0,0-.082.031A.014.014,0,0,0,125.267,165.549Zm.1,0a.062.062,0,0,1-.012.043.021.021,0,0,1,.019.012c.008.008.016.012.019.016a.067.067,0,0,0,.031,0,.188.188,0,0,0-.062-.093A.029.029,0,0,1,125.364,165.545Zm.625.73h-.008a1.514,1.514,0,0,0,.012-.369.259.259,0,0,0-.117-.214.038.038,0,0,1-.012-.031v-.2q.012-.012.012,0a.527.527,0,0,1,.2.384A.773.773,0,0,1,125.989,166.275Zm.555,3.359c.008,0,.012,0,.012,0v.016a.439.439,0,0,1-.047.148.1.1,0,0,1-.109.05c-.07-.019-.089-.1-.062-.225a.82.82,0,0,1,.26-.4c.016,0,.019,0,.019.012a1,1,0,0,0-.171.3c-.016.066-.016.1.012.12A.091.091,0,0,0,126.545,169.634Zm.249-3.953c.008.043.016.082.019.12a.162.162,0,0,1-.031.12.064.064,0,0,1-.05.019.068.068,0,0,1-.035-.031.209.209,0,0,1-.027-.05.109.109,0,0,1-.027.082.074.074,0,0,1-.058.031.087.087,0,0,1-.062-.043.035.035,0,0,1-.012-.019v-.062a.126.126,0,0,0-.012-.093c0-.008,0-.012,0-.016s0-.008,0-.016v-.012l.019-.019a.021.021,0,0,1,.012-.019.073.073,0,0,1,.012.05v.074a.338.338,0,0,0-.012.05c.008.019.019.035.035.035a.054.054,0,0,0,.047-.012.041.041,0,0,0,.019-.035.093.093,0,0,0-.012-.082V165.7a.081.081,0,0,1,.019-.047.093.093,0,0,1,.027.05.363.363,0,0,0,.016.062v.019a.119.119,0,0,0,.035.062.029.029,0,0,0,.047,0,.227.227,0,0,0-.019-.1.089.089,0,0,1-.012-.043.129.129,0,0,1,.031-.062A.513.513,0,0,1,126.793,165.681Zm.155,1.93a.506.506,0,0,1,.043.136.132.132,0,0,1-.05.124.076.076,0,0,1-.062.031l-.043-.043a.137.137,0,0,1-.031-.05.119.119,0,0,1-.027.078.1.1,0,0,1-.066.043.08.08,0,0,1-.074-.035.038.038,0,0,0-.012-.031v-.074a.189.189,0,0,0,0-.093v-.043l.012-.012v-.031c.008,0,.016-.008.019-.019a.08.08,0,0,1,.019.062v.082c-.016.027-.016.047-.012.05q.012.041.035.047a.062.062,0,0,0,.05-.012.083.083,0,0,0,.035-.047.227.227,0,0,0-.012-.082.413.413,0,0,1-.012-.078.067.067,0,0,1,.031-.047.1.1,0,0,1,.027.058.4.4,0,0,1,0,.066.077.077,0,0,0,.012.031.11.11,0,0,0,.043.066.044.044,0,0,0,.062,0,.259.259,0,0,0-.031-.1.134.134,0,0,1-.019-.062c0-.016.016-.035.043-.062A.181.181,0,0,1,126.949,167.611Zm.45,1.1-.711.031a.5.5,0,0,0,.062.229,1.094,1.094,0,0,0,.14.21c.05.054.093.078.12.062a.658.658,0,0,1,.058-.233.57.57,0,0,1,.109-.14.864.864,0,0,1,.148-.1c.05-.027.082-.047.093-.05H127.4Zm0-1.969a.139.139,0,0,1,.1-.089.155.155,0,0,1,.058.117c0,.05,0,.093,0,.136a.1.1,0,0,1,.062.062.236.236,0,0,1,0,.1.622.622,0,0,0-.074-.043.021.021,0,0,0-.012-.019.944.944,0,0,1-.167.225,1.5,1.5,0,0,1-.21.163l-.074.062a.061.061,0,0,1-.031.019.157.157,0,0,1-.082.05,2.673,2.673,0,0,1,.241-.229,1.726,1.726,0,0,0,.28-.3.078.078,0,0,1-.031-.012c-.019-.016-.039-.027-.058-.043a.084.084,0,0,1-.027-.062A.349.349,0,0,1,127.4,166.737Zm.151.94a1.043,1.043,0,0,0-.1-.027.112.112,0,0,0-.093.019.232.232,0,0,1,.031.062.512.512,0,0,0,.031.074h.012a.061.061,0,0,1,.031-.019l.066-.031a.437.437,0,0,1,.1-.031A.152.152,0,0,0,127.554,167.677Zm-.093-2.245a.148.148,0,0,1,.043-.043.108.108,0,0,1,.05-.012.434.434,0,0,1,.1.019.619.619,0,0,1,.124.062v.05a.584.584,0,0,1-.179.194.318.318,0,0,1-.136.058h-.012l-.082-.012c-.008,0-.012,0-.012,0s0,0,.012,0v-.012c.043-.016.082-.031.124-.05a.853.853,0,0,0,.093-.05c.019-.016.019-.027,0-.043a.434.434,0,0,0-.089-.012.291.291,0,0,0-.078.012c-.008.008-.016.008-.019,0s-.012-.008-.012-.016A.207.207,0,0,1,127.461,165.432Zm.742,1.907-.148-.186c-.078-.1-.128-.163-.155-.2a1.473,1.473,0,0,1-.1-.136c-.05-.07-.1-.144-.155-.225s-.1-.148-.14-.21-.062-.093-.066-.1-.016-.027-.019-.035a.052.052,0,0,1-.012-.027c0-.008-.008-.012-.019-.012h-.012l.019-.3a.021.021,0,0,1,.012-.019h.019l.408.4a.01.01,0,0,1,.012.012v.043l-.148-.019a.021.021,0,0,0-.019.012v.031a.908.908,0,0,1,.124.148c.062.082.132.171.21.26a1.856,1.856,0,0,0,.155.229c-.05-.307-.085-.571-.117-.792l-.062-.416-.031-.093.05-.229c.008-.016.016-.019.019-.019a.035.035,0,0,1,.031.019l.21.513v.074l-.093-.093v-.012a.021.021,0,0,0-.019.012c-.008.008-.008.016,0,.019.016.07.039.229.074.482.019.217.05.462.093.742l.062.062c.1.124.183.233.26.322a.638.638,0,0,0,.093.117,1,1,0,0,1,.082.093c.035.043.074.085.116.136a.608.608,0,0,1,.093.136,1.675,1.675,0,0,1,.136.249,1.252,1.252,0,0,1,.012.186v.186a.01.01,0,0,1-.012.012.021.021,0,0,1-.019-.012.7.7,0,0,0-.05-.21,1.018,1.018,0,0,0-.167-.291,1.2,1.2,0,0,1-.171-.194c-.074-.093-.148-.183-.217-.26a1.009,1.009,0,0,1-.132-.163.061.061,0,0,0-.031-.031c.027.2.054.381.082.544.027.245.047.392.05.447v.031a.911.911,0,0,1,.016.109,1.165,1.165,0,0,1,0,.117v.1c-.008.035-.016.082-.031.136s-.023.1-.031.136a.038.038,0,0,1-.031.012c-.008,0-.012,0-.016,0s0-.008,0-.016v-.233a2.383,2.383,0,0,0-.012-.264c-.016-.054-.043-.229-.082-.52-.035-.237-.05-.353-.05-.353S128.242,167.622,128.2,167.339Zm-.19,1.981a.929.929,0,0,1,.05-.082.1.1,0,0,1,.082-.043.182.182,0,0,1,.05.12.193.193,0,0,1-.031.14.177.177,0,0,1-.078-.019c-.023-.016-.05-.031-.078-.05a.415.415,0,0,1-.14.186c-.058.043-.117.082-.171.117a.6.6,0,0,1-.229.082.992.992,0,0,1-.1.019,2.336,2.336,0,0,1,.217-.117,1.519,1.519,0,0,0,.365-.249A.212.212,0,0,0,128.013,169.319Zm-.563-2.47a.2.2,0,0,0,.05.019l.043.019a.078.078,0,0,1-.012-.031.192.192,0,0,1-.016-.05.056.056,0,0,0-.027-.043.065.065,0,0,0-.043.016.126.126,0,0,0-.031.035A.149.149,0,0,0,127.45,166.85Zm.652,1.219a.014.014,0,0,1,.012,0s0,.008,0,.016a.653.653,0,0,1-.062.151.1.1,0,0,1-.1.058c-.07-.027-.089-.1-.062-.233a.787.787,0,0,1,.26-.392h.016s0,0,0,0v.016a.893.893,0,0,0-.171.287c-.016.066-.016.1.012.12s.054.008.089-.019C128.1,168.073,128.1,168.069,128.1,168.069Zm.047,1.282c-.008-.027-.019-.047-.035-.05a.049.049,0,0,0-.047,0A.267.267,0,0,0,128.149,169.35Zm1.942-1c-.016-.113-.027-.225-.043-.346q-.076-.489-.14-1c-.047-.342-.085-.629-.124-.858s-.062-.361-.066-.381l-.019-.019.05-.28a.029.029,0,0,1,.031-.019c.008,0,.012.008.012.019l.229.532-.012.082-.066-.085H129.9V166c.016.07.039.252.078.548s.085.629.14.994c.035.28.07.532.1.761h.082a.334.334,0,0,1,.066.066.826.826,0,0,1,.1.183c.019.054.039.1.05.124a.638.638,0,0,0,.043.124.925.925,0,0,0,.05.082.158.158,0,0,0,.062.066.206.206,0,0,0,.117.035.626.626,0,0,0,.148,0,.708.708,0,0,0,.117-.016.242.242,0,0,0,.1-.093c.027-.043.05-.082.074-.124V168.6a.218.218,0,0,0-.012-.078c-.008-.035-.031-.186-.066-.458s-.082-.583-.132-.94c-.016-.1-.023-.194-.031-.291q-.052-.064-.082-.1c-.1-.132-.175-.214-.21-.249-.078-.1-.167-.225-.276-.381s-.19-.28-.245-.369l-.019-.012.019-.26a.021.021,0,0,1,.012-.019h.012a.01.01,0,0,1,.012.012l.408.384.012.012c0,.008,0,.012,0,.016s-.008,0-.016,0h-.148v.019h.012v.012a.267.267,0,0,0,.05.062c.035.05.078.1.124.171s.1.132.148.194a1.3,1.3,0,0,0,.117.136.149.149,0,0,1,.031.043,1.985,1.985,0,0,0-.043-.315l-.05-.416-.031-.012.05-.322h.031l.229.551v.082l-.082-.093h-.019v.012c0,.016.008.054.019.124v.031a.056.056,0,0,1,.012.043v.043h.012v.085h.012a3.421,3.421,0,0,0,.05.408c.062.078.124.151.186.217a1.848,1.848,0,0,1,.155.2q.041.041.093.1V167.2c-.05-.342-.093-.649-.132-.924s-.066-.435-.078-.485v-.012l-.012-.019c-.008,0-.008-.008,0-.019l.043-.291.012-.012h.012a.01.01,0,0,1,.012.012l.229.532v.012c0,.019,0,.035-.016.035a.055.055,0,0,1-.035,0l-.043-.043h-.012l.2,1.472c.062.078.124.151.186.217a2.111,2.111,0,0,0,.179.21,1.084,1.084,0,0,1,.272.447.391.391,0,0,1,.012.1v.28c-.016,0-.019,0-.019-.012l-.012-.093v-.012c-.016-.05-.027-.1-.043-.148v-.012a.689.689,0,0,0-.058-.12,1.167,1.167,0,0,0-.109-.14.544.544,0,0,1-.136-.136c-.054-.07-.117-.144-.179-.217a.207.207,0,0,1-.05-.05l.05.353v.012a.01.01,0,0,0,.012.012.336.336,0,0,0,0,.058.4.4,0,0,1,0,.066v.291a.886.886,0,0,1-.019.186.639.639,0,0,1-.043.124l-.012.019-.012.012h-.016v-.085a1.021,1.021,0,0,0,0-.1,1.052,1.052,0,0,1,0-.109v-.062c-.008-.027-.027-.175-.062-.439-.019-.159-.047-.334-.074-.52l-.062-.062c-.082-.1-.136-.159-.155-.186a1.613,1.613,0,0,1-.186-.217l-.043-.043a.078.078,0,0,0,.012.031q.064.437.1.781c.027.229.047.357.05.384a1.619,1.619,0,0,1,.012.217.5.5,0,0,1,0,.078.4.4,0,0,0,0,.066.035.035,0,0,0-.012.019v.019a.822.822,0,0,1-.058.256.75.75,0,0,1-.151.264.306.306,0,0,1-.148.1.241.241,0,0,1-.117,0h-.019a.491.491,0,0,1-.082-.012.4.4,0,0,1-.136-.058.255.255,0,0,1-.1-.132,1.57,1.57,0,0,1-.089-.183q-.035-.087-.058-.151a.186.186,0,0,1-.019-.062.26.26,0,0,0-.027-.043.506.506,0,0,0-.047-.05h-.012c.035.249.05.4.05.447a1.644,1.644,0,0,1,.012.318,1.814,1.814,0,0,1-.05.338c-.008,0-.012,0-.016,0s-.008,0-.016,0-.012,0-.012,0v-.163c0-.07,0-.144,0-.225a.908.908,0,0,0-.027-.2c-.008-.043-.023-.163-.051-.365-.008-.054-.016-.109-.019-.155a.089.089,0,0,0-.043.012.407.407,0,0,0-.124.082,2.275,2.275,0,0,0-.249.489,1.11,1.11,0,0,1-.031.136,1.636,1.636,0,0,1-.148.365c-.016.035-.031.07-.05.1a.608.608,0,0,1-.078.1.134.134,0,0,1-.1.05.378.378,0,0,1-.249-.21,1,1,0,0,1-.062-.21.942.942,0,0,1-.043-.155.357.357,0,0,1-.093.05,1.983,1.983,0,0,1-.625.179l-.012-.012v-.023a1.716,1.716,0,0,1,.225-.12,2.647,2.647,0,0,0,.4-.245.379.379,0,0,1,.082-.074,1.317,1.317,0,0,1,0-.249,1.475,1.475,0,0,1,.019-.167l.043-.031-.012.031c0,.035,0,.089-.012.167a.944.944,0,0,0,0,.21,3.334,3.334,0,0,0,.241-.272,1.051,1.051,0,0,0,.1-.214.34.34,0,0,0,0-.14.668.668,0,0,0-.012-.132.6.6,0,0,1-.012-.12,1.753,1.753,0,0,1-.043-.21l-.322-2.241-.031-.019.05-.315a.035.035,0,0,1,.019-.012.01.01,0,0,1,.012.012l.229.544v.082l-.082-.082a.01.01,0,0,0-.012-.012c-.008,0-.012,0-.016,0s0,.008,0,.016l.3,2.066v.159a2.551,2.551,0,0,1,0,.346,1.269,1.269,0,0,1-.155.513c-.043.054-.078.1-.1.148s-.078.074-.124.117c.016.027.027.054.043.082a.44.44,0,0,0,.1.167.251.251,0,0,0,.066.058.092.092,0,0,0,.089,0,.215.215,0,0,0,.089-.066.283.283,0,0,0,.047-.089.774.774,0,0,0,.058-.117c.023-.054.05-.124.078-.21.043-.1.082-.2.117-.287a1.023,1.023,0,0,1,.082-.171.776.776,0,0,1,.28-.346Zm-1.619-2.917c.008-.019.016-.031.031-.035a.2.2,0,0,1,.05,0h.012a.434.434,0,0,1,.1.019.808.808,0,0,1,.117.05.035.035,0,0,1,.012.027v.035a.641.641,0,0,1-.183.186.291.291,0,0,1-.14.05h-.085a.035.035,0,0,1-.012-.019h.012c.043-.019.082-.043.124-.062a.852.852,0,0,0,.093-.05c.019-.016.019-.023,0-.031a.223.223,0,0,0-.093-.019.161.161,0,0,0-.074.019.029.029,0,0,1-.019,0c-.008,0-.012-.008-.012-.016A.186.186,0,0,1,128.471,165.432Zm.315.843a.729.729,0,0,1,.031.132.182.182,0,0,1-.031.132.117.117,0,0,1-.074.019.051.051,0,0,1-.047-.027.2.2,0,0,1-.027-.058.119.119,0,0,1-.027.078.1.1,0,0,1-.066.043.08.08,0,0,1-.074-.035v-.023a.143.143,0,0,1,0-.082.391.391,0,0,0-.012-.1v-.031l.012-.012v-.019a.035.035,0,0,1,.019-.031.08.08,0,0,1,.019.062.3.3,0,0,1-.012.082.269.269,0,0,0-.012.062.062.062,0,0,0,.043.031.086.086,0,0,0,.062,0,.05.05,0,0,0,.031-.047.339.339,0,0,0-.012-.093.176.176,0,0,1-.012-.062.061.061,0,0,1,.031-.05.132.132,0,0,1,.027.058.314.314,0,0,1,0,.066.038.038,0,0,0,.012.031c0,.035.012.058.031.066a.083.083,0,0,0,.074,0,.259.259,0,0,0-.031-.1.088.088,0,0,1-.019-.058.122.122,0,0,1,.043-.066A.072.072,0,0,1,128.785,166.275Zm.132.928s.008.008.016.019a1.364,1.364,0,0,1-.066.151.09.09,0,0,1-.1.058c-.078-.027-.1-.1-.074-.233a.746.746,0,0,1,.272-.392c0-.008,0-.012,0-.012s0,0,0,0v.016a1.049,1.049,0,0,0-.163.291c-.016.07-.016.109.012.12a.1.1,0,0,0,.089-.016A.008.008,0,0,1,128.918,167.2Zm.419-1.771a.085.085,0,0,1,.043-.035.276.276,0,0,1,.062,0,.535.535,0,0,1,.1.019.7.7,0,0,1,.12.05.063.063,0,0,1,.016.027.055.055,0,0,1,0,.035.518.518,0,0,1-.179.186.326.326,0,0,1-.136.05h-.1a.035.035,0,0,1-.012-.019h.012c.043-.019.085-.043.132-.062s.078-.039.1-.05.016-.023-.012-.031a.2.2,0,0,0-.082-.019.208.208,0,0,0-.074.019c-.008,0-.012,0-.016,0l-.016-.016A.157.157,0,0,1,129.337,165.432Zm.291,1.433v.016a.393.393,0,0,1-.062.183c-.035.05-.074.074-.117.066-.082-.035-.113-.132-.089-.287a.829.829,0,0,1,.318-.474c0-.008,0-.008,0,0l.012.012s0,0,0,0a1.449,1.449,0,0,0-.179.338c-.019.082-.019.132,0,.163s.058.019.1-.019C129.628,166.857,129.628,166.861,129.628,166.865Zm.159,1.247c.016,0,.019,0,.019.012a.515.515,0,0,1-.074.183c-.035.051-.07.078-.1.078-.082-.035-.117-.132-.093-.291a.8.8,0,0,1,.315-.482h.012v.012a1.062,1.062,0,0,0-.171.346.238.238,0,0,0,0,.163C129.714,168.15,129.745,168.143,129.787,168.112Zm.229,1.417c.016.008.019.016.019.019a.515.515,0,0,1-.074.183c-.035.05-.074.074-.117.066-.082-.027-.113-.12-.089-.276a.875.875,0,0,1,.318-.485c0-.008,0-.008,0,0s0,.008,0,.016a1.061,1.061,0,0,0-.171.346c-.016.082-.016.136.012.155S129.982,169.564,130.017,169.529Zm.489-2.451a.01.01,0,0,1,.012.012.515.515,0,0,1-.074.183.148.148,0,0,1-.117.078q-.117-.041-.082-.28a.834.834,0,0,1,.3-.489c.008-.008.012-.008.016,0a.014.014,0,0,1,0,.012v.016a.961.961,0,0,0-.171.334c-.016.082-.016.136.012.163s.05.019.078-.016C130.49,167.079,130.5,167.079,130.506,167.079Zm1.068,5.367a.1.1,0,0,0,.047-.093.35.35,0,0,0-.012-.058.164.164,0,0,0-.078-.089.322.322,0,0,0-.124-.05c-.039-.008-.206-.012-.5-.012a2.522,2.522,0,0,0-.47.019.325.325,0,0,0-.124.155.13.13,0,0,1,.124.136v.043h.334a.262.262,0,0,1,.062-.1.139.139,0,0,1,.093-.035.158.158,0,0,1,.167.136h.427A.289.289,0,0,1,131.574,172.446Zm-.92-4.742v-.2c0-.008,0-.012,0-.012h.016a.588.588,0,0,1,.2.4.708.708,0,0,1-.1.423h-.012a1.1,1.1,0,0,0,.016-.369.271.271,0,0,0-.12-.214A.076.076,0,0,1,130.653,167.7Zm.28,4.7a.119.119,0,0,0-.078.027.076.076,0,0,0-.035.066h.229A.11.11,0,0,0,130.933,172.407Zm.085.186a.061.061,0,0,0,.031-.031h-.229a.112.112,0,0,0,.117.074A.107.107,0,0,0,131.018,172.593Zm.676-3.3c-.035.008-.058.016-.074.019l-.05.019-.019.012-.1.093-.019.019h-.019a.129.129,0,0,1,.031-.062.227.227,0,0,1,.05-.074l.019-.012q-.076,0-.082-.012c-.035,0-.054-.012-.062-.031a.286.286,0,0,1,.031-.167.215.215,0,0,1,.155-.117.079.079,0,0,1,.093.054l-.043.093-.031-.019a.077.077,0,0,0-.031-.012h-.062c0,.008-.008.016-.019.019a.054.054,0,0,0-.019.043c.008.019.039.031.093.031l.093-.012h.05l.062-.012Zm.73-3.3v.082l-.062-.082-.019-.012c-.008.008-.012.012-.016.012h0l.291,2.074v.159c0,.1,0,.217-.012.346a1.019,1.019,0,0,1-.148.5c-.043.062-.078.117-.1.155a2.211,2.211,0,0,1-.28.229,2.307,2.307,0,0,1-.625.167.021.021,0,0,1-.019-.012V169.6l.012-.012c.027-.016.1-.05.225-.116a2.8,2.8,0,0,0,.4-.256,1.715,1.715,0,0,0,.369-.381,1.132,1.132,0,0,0,.093-.214.4.4,0,0,0,.019-.132c-.008-.054-.016-.1-.019-.14a1.112,1.112,0,0,1-.019-.12c-.008-.05-.016-.117-.031-.21l-.315-2.241-.043-.019.043-.3c0-.008.008-.016.019-.019h.012c.008,0,.012.008.012.019Zm-.711-.571a.141.141,0,0,1,.047-.035.16.16,0,0,1,.047,0h.012a.4.4,0,0,1,.1.016.292.292,0,0,1,.117.066c.008,0,.012,0,.016.016a.055.055,0,0,1,0,.035.742.742,0,0,1-.183.194.275.275,0,0,1-.132.058h-.019l-.082-.019c-.008,0-.012,0-.012,0s0,0,.012,0h.012l.124-.058a.333.333,0,0,0,.093-.05c.019-.016.019-.031,0-.035a.279.279,0,0,0-.093-.019.208.208,0,0,0-.074.019.021.021,0,0,1-.019-.012A.165.165,0,0,1,131.714,165.42Zm.221,1.208v-.2c0-.008,0-.012,0-.012h.016a.568.568,0,0,1,.21.4.8.8,0,0,1-.093.423h-.012a1.515,1.515,0,0,0,.012-.369.259.259,0,0,0-.117-.214A.031.031,0,0,1,131.935,166.628Z" transform="translate(-121.9 -165.344)" fill="#fff"/></g></g></svg>