<svg xmlns="http://www.w3.org/2000/svg" width="163.698" height="41.652" viewBox="0 0 163.698 41.652"><g transform="translate(-55.57 -51.19)"><g transform="translate(100.747 59.917)"><path d="M602.846,178.179l.311,1.971a5.026,5.026,0,0,1,4.806-2.421,6.464,6.464,0,0,1,4.391,1.625l-1.9,3.665a4.21,4.21,0,0,0-3.042-1.106c-2.213,0-4.252,1.176-4.252,4.322v8.989H598.94V178.179Z" transform="translate(-576.285 -170.661)" fill="#131e33"/><path d="M719.317,178.434h4.046v17.051h-3.977l-.207-2.49c-.969,2.006-3.632,2.975-5.534,3.009-5.05.035-8.785-3.078-8.785-9.062,0-5.88,3.907-8.958,8.888-8.923a6.262,6.262,0,0,1,5.43,2.766Zm-10.237,8.508a4.885,4.885,0,0,0,5.05,5.188c6.64,0,6.64-10.341,0-10.341A4.855,4.855,0,0,0,709.081,186.941Z" transform="translate(-668.982 -170.912)" fill="#131e33"/><path d="M885.922,194.446v-9.067c0-2.635-1.441-4.639-4.182-4.639a4.558,4.558,0,0,0-4.428,4.85v8.856H873.06v-17.36h3.83l.281,2.354a7.814,7.814,0,0,1,5.693-2.6c4.076,0,7.344,3.057,7.344,8.5v9.1Z" transform="translate(-816.185 -169.882)" fill="#131e33"/><path d="M1191.307,185.578c.281,2.143,2.143,3.69,5.166,3.69a7.148,7.148,0,0,0,4.639-1.617l2.741,2.705a10.643,10.643,0,0,1-7.45,2.811c-5.973,0-9.522-3.69-9.522-9.242,0-5.271,3.584-9.067,9.207-9.067,5.8,0,9.418,3.584,8.75,10.718Zm9.418-3.549c-.281-2.25-2.039-3.373-4.5-3.373a4.668,4.668,0,0,0-4.85,3.373Z" transform="translate(-1090.829 -168.149)" fill="#131e33"/><g transform="translate(75.708)"><path d="M1042.72,121.1v24.563h-4.006l-.281-2.389a6.305,6.305,0,0,1-5.588,2.776c-5.1,0-8.926-3.373-8.926-9.066,0-5.973,3.76-9.067,8.82-9.067,1.828,0,4.674.984,5.693,2.776V121.1Zm-14.513,15.884a4.974,4.974,0,1,0,9.946,0,4.945,4.945,0,0,0-5.026-5.061A4.779,4.779,0,0,0,1028.207,136.984Z" transform="translate(-1023.92 -121.1)" fill="#131e33"/></g><path d="M437.8,135.329a8.157,8.157,0,0,0-6.9-5.635,5.034,5.034,0,0,0-3.882-8.248v-.006h-9.55v24.52h12.564a8.16,8.16,0,0,0,7.772-10.63Zm-15.928-9.48h4.194a1.754,1.754,0,1,1,0,3.508v0h-4.194Zm8.329,15.515a4.027,4.027,0,0,1-1.22.19h-7.111v-8.038h7.057a4.019,4.019,0,0,1,1.273,7.848Z" transform="translate(-417.46 -121.398)" fill="#131e33"/></g><g transform="translate(55.57 51.19)"><g transform="translate(0)"><path d="M90.111,173.07h0c-.1-.3-.2-.593-.317-.881-.029-.074-.059-.147-.089-.22-.112-.271-.23-.538-.357-.8-.007-.015-.014-.031-.021-.046-.136-.275-.282-.542-.434-.8-.036-.064-.075-.126-.112-.189-.145-.241-.295-.478-.453-.708l-.037-.057c-.174-.25-.356-.491-.544-.727-.039-.049-.08-.1-.12-.146-.179-.218-.363-.432-.554-.638l-.041-.046c-.21-.225-.428-.439-.652-.648l-.106-.1c-.215-.2-.436-.388-.662-.57l-.031-.026c-.245-.2-.5-.383-.754-.562l-.076-.052q-.378-.26-.773-.494l-.012-.007c-.277-.164-.561-.318-.849-.462l-.031-.015a13.874,13.874,0,0,0-4.7-1.376h0l-9.1,11.023-5.618,6.8-8.092,9.8,0,0v0H76.911v0h0c.328,0,.658-.014.989-.037.045,0,.091-.007.136-.011.322-.026.644-.061.966-.111h.011c.317-.049.634-.112.951-.185l.207-.049c.315-.076.629-.161.943-.26a13.836,13.836,0,0,0,3.736-1.844,13.386,13.386,0,0,0,1.071-.83c.171-.146.337-.3.5-.451.248-.235.483-.479.713-.73q.431-.472.814-.979c.156-.206.307-.417.451-.632.174-.258.342-.521.5-.79q.333-.575.61-1.181c.092-.2.18-.406.262-.612a14.02,14.02,0,0,0,.573-1.766c.066-.261.127-.524.179-.79a13.581,13.581,0,0,0,.233-2.017A13.787,13.787,0,0,0,90.111,173.07Z" transform="translate(-55.57 -149.48)" fill="#00a694"/><path d="M69.223,67.461a13.841,13.841,0,0,1,9.163-2.252.034.034,0,0,1,.009-.01,8.55,8.55,0,0,0-6.6-14v-.01H55.57v0A22.447,22.447,0,0,1,69.223,67.461Z" transform="translate(-55.57 -51.19)" fill="#00a694"/></g><path d="M78.388,163.49h0l-9.1,11.023-5.618,6.8-8.092,9.8,0,0v.005h8.508l14.31-27.631Z" transform="translate(-55.57 -149.471)" fill="#131e33" opacity="0.1"/></g><g transform="translate(214.833 64.806)"><path d="M1333.567,160.26a2.217,2.217,0,1,0,2.217,2.217A2.22,2.22,0,0,0,1333.567,160.26Zm0,4.143a1.926,1.926,0,1,1,1.926-1.926A1.928,1.928,0,0,1,1333.567,164.4Z" transform="translate(-1331.35 -160.26)" fill="#15172d"/><path d="M1341.368,170.469a.706.706,0,0,1-.759-.747.723.723,0,0,1,.759-.765.759.759,0,0,1,.533.208l.277-.268a1.14,1.14,0,0,0-.81-.337,1.108,1.108,0,0,0-1.168,1.162,1.084,1.084,0,0,0,1.168,1.137,1.161,1.161,0,0,0,.838-.327l-.283-.287A.817.817,0,0,1,1341.368,170.469Z" transform="translate(-1339.095 -167.524)" fill="#15172d"/></g></g></svg>