<svg xmlns="http://www.w3.org/2000/svg" width="20" height="20.001" viewBox="0 0 20 20.001"><circle cx="9.999" cy="9.999" r="9.999" transform="translate(0.001 0.003)" fill="#fff"/><path d="M320.375,157.873h-6.157a27.632,27.632,0,0,1,0,6.626h6.165a10,10,0,0,0-.013-6.626Z" transform="translate(-300.946 -151.204)" fill="#efecec"/><path d="M260.471,7.592h6.157V7.583A10,10,0,0,0,258.107.971C259.634,1.8,260.086,4.467,260.471,7.592Z" transform="translate(-247.201 -0.93)" fill="#429945"/><path d="M258.113,321.526a10,10,0,0,0,8.528-6.626l.009-.028h-6.169C260.1,318.009,259.649,320.683,258.113,321.526Z" transform="translate(-247.21 -301.567)" fill="#0b0b0b"/><path d="M0,161.2A9.981,9.981,0,0,0,.559,164.5l13.224,0a27.63,27.63,0,0,0,0-6.626H.571A9.972,9.972,0,0,0,0,161.2Z" transform="translate(0 -151.204)" fill="#efefef"/><path d="M13.535,6.654v.009h13.2c-.4-3.125-1.353-5.782-2.882-6.626-.293-.021-.6-.037-.9-.037a9.995,9.995,0,0,0-9.418,6.653Z" transform="translate(-12.961)" fill="#49a948"/><path d="M26.438,314.867H13.219l.009.028a9.995,9.995,0,0,0,9.425,6.673c.3,0,.6-.015.9-.041C25.088,320.684,26.049,318.009,26.438,314.867Z" transform="translate(-12.661 -301.568)" fill="#151515"/><path d="M0,27.335a10,10,0,0,0,6.158,9.236V18.1A10,10,0,0,0,0,27.335Z" transform="translate(0 -17.334)" fill="#e73b36"/></svg>