<?xml version="1.0" encoding="UTF-8"?> <svg xmlns="http://www.w3.org/2000/svg" width="395.179" height="325" viewBox="0 0 395.179 325"><g transform="translate(0 0.001)"><path d="M452.781,423.477c0-20.135,16.334-67.914,36.482-67.914s36.482,47.779,36.482,67.914a36.482,36.482,0,1,1-72.965,0Z" transform="translate(-331.351 -241.918)" fill="#f2f2f2"></path><path d="M523.023,540.463a.3.3,0,0,1-.3-.3V414.469a.3.3,0,1,1,.6,0V540.163a.3.3,0,0,1-.3.3Z" transform="translate(-365.111 -270.206)" fill="#3f3d56"></path><path d="M509.55,447.633a.3.3,0,0,1-.212-.088l-14.44-14.43a.3.3,0,0,1,.424-.424l14.44,14.43a.3.3,0,0,1-.212.512Z" transform="translate(-351.638 -279.104)" fill="#3f3d56"></path><path d="M523.023,486.838a.3.3,0,0,1-.212-.512l24.182-24.166a.3.3,0,0,1,.424.424L523.235,486.75a.3.3,0,0,1-.212.088Z" transform="translate(-365.111 -293.328)" fill="#3f3d56"></path><path d="M332.781,367.116c0-24.968,20.254-84.215,45.239-84.215s45.239,59.247,45.239,84.215a45.239,45.239,0,1,1-90.477,0Z" transform="translate(-273.43 -206.845)" fill="#e6e6e6"></path><path d="M419.882,512.18a.372.372,0,0,1-.372-.372V355.945a.372.372,0,1,1,.744,0V511.808a.372.372,0,0,1-.372.372Z" transform="translate(-315.292 -241.923)" fill="#3f3d56"></path><path d="M403.176,397.069a.371.371,0,0,1-.263-.109l-17.905-17.893a.372.372,0,0,1,.526-.526l17.905,17.893a.372.372,0,0,1-.263.635Z" transform="translate(-298.586 -252.956)" fill="#3f3d56"></path><path d="M419.882,445.685a.372.372,0,0,1-.263-.635L449.6,415.084a.372.372,0,1,1,.526.526l-29.986,29.966a.371.371,0,0,1-.263.109Z" transform="translate(-315.292 -270.595)" fill="#3f3d56"></path><path d="M218.052,253.078c0-34.746,28.167-117.2,62.913-117.2s62.913,82.451,62.913,117.2a62.913,62.913,0,1,1-125.827,0Z" transform="translate(-218.052 -135.882)" fill="#15af9e"></path><path d="M339.183,454.955a.517.517,0,0,1-.517-.517v-216.9a.517.517,0,0,1,1.035,0v216.9A.517.517,0,0,1,339.183,454.955Z" transform="translate(-276.27 -184.698)" fill="#3f3d56"></path><path d="M315.95,294.762a.516.516,0,0,1-.366-.152l-24.9-24.9a.517.517,0,1,1,.732-.732l24.9,24.9a.517.517,0,0,1-.366.883Z" transform="translate(-253.037 -200.052)" fill="#3f3d56"></path><path d="M339.183,362.417a.517.517,0,0,1-.366-.883l41.7-41.7a.517.517,0,1,1,.732.732l-41.7,41.7a.516.516,0,0,1-.366.152Z" transform="translate(-276.27 -224.598)" fill="#3f3d56"></path><path d="M621.835,658.079H237.465a.517.517,0,1,1,0-1.035H621.835a.517.517,0,1,1,0,1.035Z" transform="translate(-227.173 -387.437)" fill="#3f3d56"></path><path d="M818.425,569.772a1.354,1.354,0,0,0,0-2.707h-12.86v-5.414h12.86a1.354,1.354,0,0,0,0-2.707H708.782a1.354,1.354,0,0,0,0,2.707h12.859v5.414H708.782a1.354,1.354,0,1,0,0,2.707h12.859v5.414H708.782a1.354,1.354,0,0,0,0,2.707h12.859v5.414H710.136a2.707,2.707,0,1,0,0,5.414h10.953a2.016,2.016,0,0,0-.124.677v18.951a2.03,2.03,0,0,0,4.061,0V589.4a2.017,2.017,0,0,0-.124-.677h77.4a2.018,2.018,0,0,0-.124.677v18.951a2.03,2.03,0,0,0,4.061,0V589.4a2.016,2.016,0,0,0-.124-.677h10.953a2.707,2.707,0,1,0,0-5.414H805.565v-5.414h12.86a1.354,1.354,0,0,0,0-2.707h-12.86v-5.415Zm-94.077-8.121h78.51v5.414h-78.51Zm78.51,21.658h-78.51v-5.415h78.51Zm0-8.122h-78.51v-5.415h78.51Z" transform="translate(-454.264 -340.086)" fill="#3f3d56"></path><path d="M501.429,583.655a4.305,4.305,0,0,0-4.391-4.93l-27.574-27.88-5.447,7.615,28.817,25.01a4.329,4.329,0,0,0,8.595.184Z" transform="translate(-336.775 -336.177)" fill="#ffb8b8"></path><path d="M480.22,562.917l-4.969,4.961a1.809,1.809,0,0,1-2.539.01l-19.232-18.907a7.054,7.054,0,1,1,9.994-9.959l16.761,21.359a1.81,1.81,0,0,1-.016,2.536Z" transform="translate(-330.696 -329.468)" fill="#15af9e"></path><circle cx="9.843" cy="9.843" r="9.843" transform="translate(117.067 175.116)" fill="#ffb8b8"></circle><path d="M181.031,580.574l2.492,4.234,17.518-7.6-3.678-6.249Z" transform="translate(-87.38 -275.591)" fill="#ffb8b8"></path><path d="M395.408,721.765l4.908,8.339h0a6.166,6.166,0,0,1-2.186,8.442l-.173.1-8.036-13.653Z" transform="translate(-301.01 -418.676)" fill="#2f2e41"></path><path d="M236.852,601.348h4.914L244.1,582.4h-7.251Z" transform="translate(-114.323 -281.111)" fill="#ffb8b8"></path><path d="M452.482,751.811h9.676a6.166,6.166,0,0,1,6.166,6.166v.2H452.482Z" transform="translate(-331.207 -433.178)" fill="#2f2e41"></path><path d="M410.617,679.276a1.8,1.8,0,0,1-1.452-.735l-4.738-6.436a1.8,1.8,0,0,1,.451-2.569l21.086-14.083L413.24,622l27.207,2.245.916,28.748a14.446,14.446,0,0,1-7.232,12.994l-22.614,13.047a1.8,1.8,0,0,1-.9.242Z" transform="translate(-307.842 -370.521)" fill="#2f2e41"></path><path d="M452.582,719.115a1.8,1.8,0,0,1-1.8-1.739l-1-28.006,12.347-.65-.983,28.207a1.8,1.8,0,0,1-1.683,1.737l-6.762.448C452.664,719.113,452.623,719.115,452.582,719.115Z" transform="translate(-329.906 -402.725)" fill="#2f2e41"></path><path d="M446.321,581.355c-3.141,0-9.975-3.533-13.784-4.793-.57.456-3.7,2.8-7.354,2.369a8.57,8.57,0,0,1-5.9-3.794c-3.666-4.975,3.727-23.367,8.171-40.389,1.87-7.161,6.138-14.487,13.377-12.915h0A13.855,13.855,0,0,1,451.286,532c.837,3.406.117,7.412-.409,10.337a14.046,14.046,0,0,0-.376,3c.258,2.063-2.448,34.422-3.369,35.8C447.035,581.289,446.751,581.355,446.321,581.355Z" transform="translate(-314.705 -322.07)" fill="#15af9e"></path><path d="M450.173,594.466a4.305,4.305,0,0,0,.377-6.591l.195-39.212-9.235,1.538,2.713,38.06a4.329,4.329,0,0,0,5.951,6.2Z" transform="translate(-325.91 -335.124)" fill="#ffb8b8"></path><path d="M451.193,563.937h-9.948a1.809,1.809,0,0,1-1.8-1.787l-.244-26.968a7.054,7.054,0,1,1,14.109.017L453,562.155A1.81,1.81,0,0,1,451.193,563.937Z" transform="translate(-324.795 -325.215)" fill="#15af9e"></path><path d="M449.494,490.67a9.987,9.987,0,0,1-9.539-7.992,11.491,11.491,0,0,1,.368-5.215,14.008,14.008,0,0,1,19.211-8.8,5.612,5.612,0,0,1,2.945,2.532,2.614,2.614,0,0,1-1,3.425c-.789.354-1.779.18-2.48.688-1.006.729-.747,2.281-.3,3.439s.957,2.56.2,3.548c-.7.921-2.1.892-3.208.546a8.622,8.622,0,0,0-3.346-.809,3.911,3.911,0,0,0-3.11,3.516,11.437,11.437,0,0,0,.822,4.952Z" transform="translate(-325.09 -295.908)" fill="#2f2e41"></path><path d="M529.4,612.468c6.394-1.445,13.638,3.556,13.863,10.271a6.509,6.509,0,0,1-1.944,5.157,4.782,4.782,0,0,1-4.536,1.077c-2.985-1-3.144-5.157-1.543-7.378,2.168-3.008,6.463-3.521,9.87-3.163a23.39,23.39,0,0,1,11.449,4.768c6.652,5.013,10.888,12.7,14.316,20.118a101.432,101.432,0,0,1,7.6,23.877q.29,1.553.531,3.114a.605.605,0,0,0,.745.409.617.617,0,0,0,.409-.745A102.77,102.77,0,0,0,572.45,643.9c-3.59-8.044-8.115-16.388-15.315-21.757a24.421,24.421,0,0,0-12.312-4.937c-3.776-.335-8.247.464-10.6,3.748-1.852,2.591-1.664,6.9,1.2,8.7a5.47,5.47,0,0,0,5.214.1,6.678,6.678,0,0,0,3.521-4.365c1.018-3.729-.528-7.763-3.177-10.428a13.353,13.353,0,0,0-9.4-3.952,11.836,11.836,0,0,0-2.527.3c-.755.171-.417,1.325.336,1.155Z" transform="translate(-367.966 -365.218)" fill="#ccc"></path><path d="M586.009,747.564l-3.973-6.784,4.9-2.87,3.973,6.784h0a2.839,2.839,0,1,1-4.9,2.87Z" transform="translate(-393.739 -426.469)" fill="#15af9e"></path><circle cx="3.494" cy="3.494" r="3.494" transform="translate(175.637 300.005)" fill="#15af9e"></circle><path d="M615.727,747.564l-3.973-6.784,4.9-2.87,3.973,6.784a2.839,2.839,0,1,1-4.9,2.87Z" transform="translate(-408.084 -426.469)" fill="#15af9e"></path><path d="M565.6,729.238a7.434,7.434,0,0,1,7.425-7.425h23.505a3.142,3.142,0,0,1,3.138,3.138v2.675a9.047,9.047,0,0,1-9.037,9.037H573.028A7.434,7.434,0,0,1,565.6,729.238Z" transform="translate(-385.808 -418.699)" fill="#3f3d56"></path><path d="M576.081,750.927v-7.862h5.678v7.862a2.839,2.839,0,1,1-5.678,0Z" transform="translate(-390.865 -428.957)" fill="#3f3d56"></path><path d="M607.93,750.927v-7.862h5.678v7.862a2.839,2.839,0,1,1-5.678,0Z" transform="translate(-406.238 -428.957)" fill="#3f3d56"></path><path d="M647.228,696.915a3.494,3.494,0,0,1,5.449,4.376l-5.744,7.151-5.449-4.376Z" transform="translate(-422.434 -406.051)" fill="#15af9e"></path><path d="M625.326,717.677l4.6-5.729a6.738,6.738,0,0,1,9.461-1.033l1.438,1.155a8.033,8.033,0,0,1,1.232,11.28l-3.791,4.72a2.522,2.522,0,0,1-3.542.387l-9.012-7.238a2.522,2.522,0,0,1-.386-3.542Z" transform="translate(-414.368 -412.725)" fill="#3f3d56"></path><path d="M647.912,695.651a2.4,2.4,0,1,1,3.746,3.009l-6.427,8-3.746-3.009Z" transform="translate(-422.434 -405.638)" fill="#3f3d56"></path><path d="M632.027,722.347l9.876,7.932a3.494,3.494,0,1,1-4.376,5.449l-9.876-7.932Z" transform="translate(-415.757 -418.957)" fill="#3f3d56"></path><ellipse cx="1.474" cy="0.819" rx="1.474" ry="0.819" transform="translate(224.904 316.617) rotate(-51.23)" fill="#15af9e"></ellipse><circle cx="7.358" cy="7.358" r="7.358" transform="translate(307.505 197.278)" fill="#2f2e41"></circle><path d="M568.809,505.677h-3.222l-1.533-12.427h4.755Z" transform="translate(-272.257 -238.082)" fill="#a0616a"></path><path d="M558.918,515.492h6.214V519.4H555.006A3.912,3.912,0,0,1,558.918,515.492Z" transform="translate(-267.89 -248.818)" fill="#2f2e41"></path><path d="M560.655,501.4l-3.074-.965,2.258-12.316,4.537,1.424Z" transform="translate(-269.133 -235.607)" fill="#a0616a"></path><path d="M3.912,0h6.214V3.912H0A3.912,3.912,0,0,1,3.912,0Z" transform="translate(282.794 262.093) rotate(17.423)" fill="#2f2e41"></path><path d="M780.289,615.85a1.17,1.17,0,0,1-.413-.075l-2.37-.889a1.187,1.187,0,0,1-.74-1.362c.6-2.683,2.631-11.818,3.744-16.718,1.321-5.812,20.589-6.892,21.408-6.935l.067,0,2.167,2.724c.783,2.517.535,4.481-.738,5.836-3.714,3.954-14.8,1.5-16.125,1.19L781.4,615.088a1.186,1.186,0,0,1-1.107.762Z" transform="translate(-487.719 -355.011)" fill="#2f2e41"></path><path d="M786.893,619.406a1.173,1.173,0,0,1-.413-.075l-2.37-.889a1.187,1.187,0,0,1-.74-1.362c.6-2.683,2.631-11.818,3.744-16.718,1.321-5.812,20.589-6.892,21.408-6.935l.067,0,2.167,2.724c.783,2.517.535,4.481-.738,5.836-3.714,3.954-14.8,1.5-16.125,1.19L788,618.644A1.186,1.186,0,0,1,786.893,619.406Z" transform="translate(-490.907 -356.728)" fill="#2f2e41"></path><path d="M772.326,569.467a2.759,2.759,0,0,1,.233.368L785.52,571.2l1.866-2.558,4.229,2.311-3.665,6.208-15.9-4.053a2.758,2.758,0,1,1,.272-3.642Z" transform="translate(-483.196 -344.638)" fill="#a0616a"></path><path d="M822.2,576.771a1.182,1.182,0,0,1-.539-.132c-2.592-1.318-7.639-3.6-12.319-4.078a1.154,1.154,0,0,1-.813-.46,1.187,1.187,0,0,1-.219-.923,72.461,72.461,0,0,0,1.266-13.062,6.464,6.464,0,0,1,4.883-6.43h0a21,21,0,0,1,2.605-.514,6.516,6.516,0,0,1,7.243,7.559c-.835,4.944-1.676,11.85-.945,16.67a1.184,1.184,0,0,1-.478,1.143,1.164,1.164,0,0,1-.685.226Z" transform="translate(-502.947 -336.31)" fill="#ccc"></path><path d="M806.982,566.162a1.182,1.182,0,0,1-.469-.1l-3.376-1.461a1.184,1.184,0,0,1-.615-1.555l2.61-6.029a3.022,3.022,0,1,1,5.547,2.4l-2.61,6.029a1.186,1.186,0,0,1-1.086.714Z" transform="translate(-500.116 -338.276)" fill="#ccc"></path><circle cx="6.455" cy="6.455" r="6.455" transform="translate(308.14 199.904)" fill="#a0616a"></circle><path d="M813.474,524.491a23.281,23.281,0,0,0,10.072,3.319l-1.062-1.272a7.8,7.8,0,0,0,2.41.479,2.639,2.639,0,0,0,2.151-1.007,2.455,2.455,0,0,0,.164-2.268,4.649,4.649,0,0,0-1.463-1.829,8.709,8.709,0,0,0-8.106-1.449,5.206,5.206,0,0,0-2.421,1.553c-.612.755-1.79,1.427-1.477,2.347Z" transform="translate(-505.45 -321.304)" fill="#2f2e41"></path><path d="M806.411,513.485a19.838,19.838,0,0,0-7.217-4.667,10.154,10.154,0,0,0-5.468-.679,5.211,5.211,0,0,0-4.058,3.418,6.452,6.452,0,0,0,.659,4.417c.646,1.378,1.508,2.655,2.03,4.084a9.321,9.321,0,0,1-9.379,12.5,46.427,46.427,0,0,1,5.2,1.531c1.752.448,3.819.418,5.121-.837,1.377-1.328,1.4-3.487,1.338-5.4l-.3-8.527a10.832,10.832,0,0,1,.429-4.3,3.691,3.691,0,0,1,3.215-2.525,5.274,5.274,0,0,1,2.954,1.332,6.035,6.035,0,0,0,2.909,1.455c1.095.1,2.345-.713,2.263-1.809" transform="translate(-490.73 -315.507)" fill="#2f2e41"></path><path d="M802.5,584.444a2.892,2.892,0,1,1,1.115-5.562h0a2.779,2.779,0,0,1,.345.175l11.758-5.279.33-3.189,5.068-.136-.034,5.309a2.859,2.859,0,0,1-2.066,2.718l-13.75,3.914a2.715,2.715,0,0,1-.094.268,2.9,2.9,0,0,1-2.672,1.782Z" transform="translate(-498.761 -345.641)" fill="#a0616a"></path><path d="M834.945,565.666a1.18,1.18,0,0,1-.463.125l-3.672.226a1.184,1.184,0,0,1-1.253-1.108l-.4-6.558a3.022,3.022,0,0,1,6.033-.371l.4,6.558a1.185,1.185,0,0,1-.645,1.128Z" transform="translate(-513.016 -338.251)" fill="#ccc"></path><rect width="22.601" height="1.84" rx="0.92" transform="translate(314.868 239.466) rotate(180)" fill="#3f3d56"></rect><path d="M767.268,581.868V568.991a1.71,1.71,0,0,1,1.708-1.708h23.389a1.71,1.71,0,0,1,1.708,1.708v12.877a1.71,1.71,0,0,1-1.708,1.708H768.976a1.71,1.71,0,0,1-1.708-1.708Z" transform="translate(-483.147 -344.111)" fill="#3f3d56"></path><circle cx="1.577" cy="1.577" r="1.577" transform="translate(295.947 229.743)" fill="#fff"></circle><path d="M458.26,521.639h-5.691a2.069,2.069,0,0,1,0-4.139h5.691a2.069,2.069,0,0,1,0,4.139Z" transform="translate(-330.25 -320.081)" fill="#15af9e"></path></g></svg> 