<?xml version="1.0" encoding="UTF-8"?> <svg xmlns="http://www.w3.org/2000/svg" width="55.075" height="35.531" viewBox="0 0 55.075 35.531"><g transform="translate(0)"><g transform="translate(0 0)"><path d="M77.126,176.657H72.239v-9.395l-4.4,5.432h-.39l-4.421-5.432v9.395H58.29V160.47h4.418l4.989,6.056,5-6.056h4.428Z" transform="translate(-58.29 -160.453)" fill="#aff5ed"></path><path d="M322.857,168.644a5.341,5.341,0,0,0-.753-3.065A3.686,3.686,0,0,0,320.3,164.1a6.475,6.475,0,0,0-2.15-.371h-2.082v9.547h2.082a5.951,5.951,0,0,0,3.313-.907c.932-.6,1.4-1.848,1.4-3.729m5,.2a7.676,7.676,0,0,1-.908,4,8.621,8.621,0,0,1-2.143,2.439,7.706,7.706,0,0,1-4.882,1.374H311.18V160.47h6.732a18.2,18.2,0,0,1,2.6.155,11.031,11.031,0,0,1,1.952.453,7.435,7.435,0,0,1,1.47.635,9.109,9.109,0,0,1,1.089.771,7.232,7.232,0,0,1,1.459,1.6,7.634,7.634,0,0,1,1,2.125,8.813,8.813,0,0,1,.372,2.632" transform="translate(-272.787 -160.454)" fill="#aff5ed"></path><rect width="12.014" height="3.264" transform="translate(22.65)" fill="#aff5ed"></rect><rect width="12.014" height="3.27" transform="translate(22.65 6.187)" fill="#aff5ed"></rect><rect width="12.014" height="3.27" transform="translate(22.65 12.93)" fill="#aff5ed"></rect><path d="M71.808,292.781v1.282a11.589,11.589,0,0,0-5.4-1.448,6.342,6.342,0,0,0-4.711,1.934,6.6,6.6,0,0,0-1.9,4.818,6.493,6.493,0,0,0,1.906,4.817,6.668,6.668,0,0,0,4.882,1.888,11.455,11.455,0,0,0,5.394-1.566v1.228a11.357,11.357,0,0,1-5.378,1.444,7.95,7.95,0,0,1-5.77-2.238,7.867,7.867,0,0,1,5.654-13.429,12.744,12.744,0,0,1,5.321,1.271" transform="translate(-58.486 -271.65)" fill="#aff5ed"></path><path d="M168.382,301.429l-3.281-7.155-3.271,7.155Zm-2.92-9.079,7.007,15.323h-1.237l-2.413-5.261h-7.447l-2.406,5.261h-1.237l7.05-15.323Z" transform="translate(-142.645 -272.363)" fill="#aff5ed"></path><path d="M273.8,293.916V299.9h2.531a4.771,4.771,0,0,0,2.947-.779,2.893,2.893,0,0,0-.014-4.414,4.838,4.838,0,0,0-2.975-.786H273.8Zm-1.188-.973h3.913A5.781,5.781,0,0,1,280.269,294a3.529,3.529,0,0,1,1.3,2.874,3.807,3.807,0,0,1-2.885,3.716,6.78,6.78,0,0,1,2.035,2.322l3.453,5.261h-1.363l-2.7-4.17a10.323,10.323,0,0,0-2.061-2.617,3.861,3.861,0,0,0-2.172-.515h-2.061v7.3h-1.188Z" transform="translate(-240.073 -272.867)" fill="#aff5ed"></path><path d="M371.988,292.94v.973h-7.129v6.117h6.916V301h-6.916v6.2h7.3v.977H363.67V292.94Z" transform="translate(-317.307 -272.863)" fill="#aff5ed"></path><path d="M77.126,176.657H72.239v-9.395l-4.4,5.432h-.39l-4.421-5.432v9.395H58.29V160.47h4.418l4.989,6.056,5-6.056h4.428Z" transform="translate(-58.29 -160.453)" fill="#aff5ed"></path><path d="M322.857,168.644a5.341,5.341,0,0,0-.753-3.065A3.686,3.686,0,0,0,320.3,164.1a6.475,6.475,0,0,0-2.15-.371h-2.082v9.547h2.082a5.951,5.951,0,0,0,3.313-.907c.932-.6,1.4-1.848,1.4-3.729m5,.2a7.676,7.676,0,0,1-.908,4,8.621,8.621,0,0,1-2.143,2.439,7.706,7.706,0,0,1-4.882,1.374H311.18V160.47h6.732a18.2,18.2,0,0,1,2.6.155,11.031,11.031,0,0,1,1.952.453,7.435,7.435,0,0,1,1.47.635,9.109,9.109,0,0,1,1.089.771,7.232,7.232,0,0,1,1.459,1.6,7.634,7.634,0,0,1,1,2.125,8.813,8.813,0,0,1,.372,2.632" transform="translate(-272.787 -160.454)" fill="#aff5ed"></path><rect width="12.014" height="3.264" transform="translate(22.65)" fill="#aff5ed"></rect><rect width="12.014" height="3.27" transform="translate(22.65 6.187)" fill="#aff5ed"></rect><rect width="12.014" height="3.27" transform="translate(22.65 12.93)" fill="#aff5ed"></rect><path d="M71.808,292.781v1.282a11.589,11.589,0,0,0-5.4-1.448,6.342,6.342,0,0,0-4.711,1.934,6.6,6.6,0,0,0-1.9,4.818,6.493,6.493,0,0,0,1.906,4.817,6.668,6.668,0,0,0,4.882,1.888,11.455,11.455,0,0,0,5.394-1.566v1.228a11.357,11.357,0,0,1-5.378,1.444,7.95,7.95,0,0,1-5.77-2.238,7.867,7.867,0,0,1,5.654-13.429,12.744,12.744,0,0,1,5.321,1.271" transform="translate(-58.486 -271.65)" fill="#aff5ed"></path><path d="M168.382,301.429l-3.281-7.155-3.271,7.155Zm-2.92-9.079,7.007,15.323h-1.237l-2.413-5.261h-7.447l-2.406,5.261h-1.237l7.05-15.323Z" transform="translate(-142.645 -272.363)" fill="#aff5ed"></path><path d="M273.8,293.916V299.9h2.531a4.771,4.771,0,0,0,2.947-.779,2.893,2.893,0,0,0-.014-4.414,4.838,4.838,0,0,0-2.975-.786H273.8Zm-1.188-.973h3.913A5.781,5.781,0,0,1,280.269,294a3.529,3.529,0,0,1,1.3,2.874,3.807,3.807,0,0,1-2.885,3.716,6.78,6.78,0,0,1,2.035,2.322l3.453,5.261h-1.363l-2.7-4.17a10.323,10.323,0,0,0-2.061-2.617,3.861,3.861,0,0,0-2.172-.515h-2.061v7.3h-1.188Z" transform="translate(-240.073 -272.867)" fill="#aff5ed"></path><path d="M371.988,292.94v.973h-7.129v6.117h6.916V301h-6.916v6.2h7.3v.977H363.67V292.94Z" transform="translate(-317.307 -272.863)" fill="#aff5ed"></path></g></g></svg> 