<?xml version="1.0" encoding="UTF-8"?> <svg xmlns="http://www.w3.org/2000/svg" width="442.602" height="301.645" viewBox="0 0 442.602 301.645"><ellipse cx="3.919" cy="3.919" rx="3.919" ry="3.919" transform="translate(338.154)" fill="#e6e6e6"></ellipse><ellipse cx="3.919" cy="3.919" rx="3.919" ry="3.919" transform="translate(318.314)" fill="#e6e6e6"></ellipse><ellipse cx="3.919" cy="3.919" rx="3.919" ry="3.919" transform="translate(298.474)" fill="#e6e6e6"></ellipse><ellipse cx="3.919" cy="3.919" rx="3.919" ry="3.919" transform="translate(278.635)" fill="#e6e6e6"></ellipse><ellipse cx="3.919" cy="3.919" rx="3.919" ry="3.919" transform="translate(258.795)" fill="#e6e6e6"></ellipse><ellipse cx="3.919" cy="3.919" rx="3.919" ry="3.919" transform="translate(338.154 20.089)" fill="#e6e6e6"></ellipse><ellipse cx="3.919" cy="3.919" rx="3.919" ry="3.919" transform="translate(318.314 20.089)" fill="#e6e6e6"></ellipse><ellipse cx="3.919" cy="3.919" rx="3.919" ry="3.919" transform="translate(298.474 20.089)" fill="#e6e6e6"></ellipse><ellipse cx="3.919" cy="3.919" rx="3.919" ry="3.919" transform="translate(278.635 20.089)" fill="#15af9e"></ellipse><ellipse cx="3.919" cy="3.919" rx="3.919" ry="3.919" transform="translate(258.795 20.089)" fill="#e6e6e6"></ellipse><ellipse cx="3.919" cy="3.919" rx="3.919" ry="3.919" transform="translate(219.116 20.089)" fill="#e6e6e6"></ellipse><ellipse cx="3.919" cy="3.919" rx="3.919" ry="3.919" transform="translate(338.154 40.177)" fill="#e6e6e6"></ellipse><ellipse cx="3.919" cy="3.919" rx="3.919" ry="3.919" transform="translate(318.314 40.177)" fill="#e6e6e6"></ellipse><ellipse cx="3.919" cy="3.919" rx="3.919" ry="3.919" transform="translate(298.474 40.177)" fill="#e6e6e6"></ellipse><ellipse cx="3.919" cy="3.919" rx="3.919" ry="3.919" transform="translate(278.635 40.177)" fill="#e6e6e6"></ellipse><ellipse cx="3.919" cy="3.919" rx="3.919" ry="3.919" transform="translate(258.795 40.177)" fill="#e6e6e6"></ellipse><ellipse cx="3.919" cy="3.919" rx="3.919" ry="3.919" transform="translate(338.154 60.266)" fill="#e6e6e6"></ellipse><ellipse cx="3.919" cy="3.919" rx="3.919" ry="3.919" transform="translate(318.314 60.266)" fill="#e6e6e6"></ellipse><ellipse cx="3.919" cy="3.919" rx="3.919" ry="3.919" transform="translate(298.474 60.266)" fill="#e6e6e6"></ellipse><ellipse cx="3.919" cy="3.919" rx="3.919" ry="3.919" transform="translate(278.635 60.266)" fill="#e6e6e6"></ellipse><ellipse cx="3.919" cy="3.919" rx="3.919" ry="3.919" transform="translate(258.795 60.266)" fill="#e6e6e6"></ellipse><ellipse cx="3.919" cy="3.919" rx="3.919" ry="3.919" transform="translate(238.955 60.266)" fill="#e6e6e6"></ellipse><ellipse cx="3.919" cy="3.919" rx="3.919" ry="3.919" transform="translate(219.116 60.266)" fill="#e6e6e6"></ellipse><ellipse cx="3.919" cy="3.919" rx="3.919" ry="3.919" transform="translate(199.276 60.266)" fill="#e6e6e6"></ellipse><ellipse cx="3.919" cy="3.919" rx="3.919" ry="3.919" transform="translate(179.436 60.266)" fill="#e6e6e6"></ellipse><ellipse cx="3.919" cy="3.919" rx="3.919" ry="3.919" transform="translate(159.597 60.266)" fill="#e6e6e6"></ellipse><ellipse cx="3.919" cy="3.919" rx="3.919" ry="3.919" transform="translate(258.795 80.355)" fill="#e6e6e6"></ellipse><ellipse cx="3.919" cy="3.919" rx="3.919" ry="3.919" transform="translate(238.955 80.355)" fill="#15af9e"></ellipse><ellipse cx="3.919" cy="3.919" rx="3.919" ry="3.919" transform="translate(219.116 80.355)" fill="#e6e6e6"></ellipse><ellipse cx="3.919" cy="3.919" rx="3.919" ry="3.919" transform="translate(199.276 80.355)" fill="#e6e6e6"></ellipse><ellipse cx="3.919" cy="3.919" rx="3.919" ry="3.919" transform="translate(179.436 80.355)" fill="#e6e6e6"></ellipse><ellipse cx="3.919" cy="3.919" rx="3.919" ry="3.919" transform="translate(159.597 80.355)" fill="#e6e6e6"></ellipse><ellipse cx="3.919" cy="3.919" rx="3.919" ry="3.919" transform="translate(258.795 100.444)" fill="#e6e6e6"></ellipse><ellipse cx="3.919" cy="3.919" rx="3.919" ry="3.919" transform="translate(238.955 100.444)" fill="#e6e6e6"></ellipse><ellipse cx="3.919" cy="3.919" rx="3.919" ry="3.919" transform="translate(219.116 100.444)" fill="#e6e6e6"></ellipse><ellipse cx="3.919" cy="3.919" rx="3.919" ry="3.919" transform="translate(199.276 100.444)" fill="#e6e6e6"></ellipse><ellipse cx="3.919" cy="3.919" rx="3.919" ry="3.919" transform="translate(179.436 100.444)" fill="#15af9e"></ellipse><ellipse cx="3.919" cy="3.919" rx="3.919" ry="3.919" transform="translate(159.597 100.444)" fill="#e6e6e6"></ellipse><ellipse cx="3.919" cy="3.919" rx="3.919" ry="3.919" transform="translate(258.795 120.532)" fill="#e6e6e6"></ellipse><ellipse cx="3.919" cy="3.919" rx="3.919" ry="3.919" transform="translate(238.955 120.532)" fill="#e6e6e6"></ellipse><ellipse cx="3.919" cy="3.919" rx="3.919" ry="3.919" transform="translate(219.116 120.532)" fill="#e6e6e6"></ellipse><ellipse cx="3.919" cy="3.919" rx="3.919" ry="3.919" transform="translate(199.276 120.532)" fill="#e6e6e6"></ellipse><ellipse cx="3.919" cy="3.919" rx="3.919" ry="3.919" transform="translate(179.436 120.532)" fill="#e6e6e6"></ellipse><ellipse cx="3.919" cy="3.919" rx="3.919" ry="3.919" transform="translate(159.597 120.532)" fill="#e6e6e6"></ellipse><ellipse cx="3.919" cy="3.919" rx="3.919" ry="3.919" transform="translate(338.154 140.621)" fill="#e6e6e6"></ellipse><ellipse cx="3.919" cy="3.919" rx="3.919" ry="3.919" transform="translate(318.314 140.621)" fill="#e6e6e6"></ellipse><ellipse cx="3.919" cy="3.919" rx="3.919" ry="3.919" transform="translate(298.474 140.621)" fill="#e6e6e6"></ellipse><ellipse cx="3.919" cy="3.919" rx="3.919" ry="3.919" transform="translate(278.635 140.621)" fill="#e6e6e6"></ellipse><ellipse cx="3.919" cy="3.919" rx="3.919" ry="3.919" transform="translate(258.795 140.621)" fill="#e6e6e6"></ellipse><ellipse cx="3.919" cy="3.919" rx="3.919" ry="3.919" transform="translate(238.955 140.621)" fill="#e6e6e6"></ellipse><ellipse cx="3.919" cy="3.919" rx="3.919" ry="3.919" transform="translate(219.116 140.621)" fill="#e6e6e6"></ellipse><ellipse cx="3.919" cy="3.919" rx="3.919" ry="3.919" transform="translate(199.276 140.621)" fill="#e6e6e6"></ellipse><ellipse cx="3.919" cy="3.919" rx="3.919" ry="3.919" transform="translate(179.436 140.621)" fill="#e6e6e6"></ellipse><ellipse cx="3.919" cy="3.919" rx="3.919" ry="3.919" transform="translate(159.597 140.621)" fill="#e6e6e6"></ellipse><ellipse cx="3.919" cy="3.919" rx="3.919" ry="3.919" transform="translate(338.156 160.709)" fill="#e6e6e6"></ellipse><ellipse cx="3.919" cy="3.919" rx="3.919" ry="3.919" transform="translate(318.314 160.71)" fill="#e6e6e6"></ellipse><ellipse cx="3.919" cy="3.919" rx="3.919" ry="3.919" transform="translate(338.156 180.798)" fill="#e6e6e6"></ellipse><ellipse cx="3.919" cy="3.919" rx="3.919" ry="3.919" transform="translate(318.314 180.799)" fill="#e6e6e6"></ellipse><ellipse cx="3.919" cy="3.919" rx="3.919" ry="3.919" transform="translate(278.635 180.799)" fill="#e6e6e6"></ellipse><path d="M565.17,235.5H720.487a2.88,2.88,0,0,0,2.876-2.876V194.1a2.88,2.88,0,0,0-2.876-2.876H565.17a2.88,2.88,0,0,0-2.876,2.876v38.527A2.88,2.88,0,0,0,565.17,235.5Zm155.317-43.13a1.728,1.728,0,0,1,1.726,1.726v38.527a1.728,1.728,0,0,1-1.726,1.726H565.17a1.728,1.728,0,0,1-1.726-1.726V194.1a1.728,1.728,0,0,1,1.726-1.726Z" transform="translate(-480.373 -189.26)" fill="#e6e6e6"></path><ellipse cx="12.08" cy="12.08" rx="12.08" ry="12.08" transform="translate(207.901 12.02)" fill="#15af9e"></ellipse><path d="M702.805,215.708a2.013,2.013,0,0,1,0,4.027h-53.5a2.013,2.013,0,1,1,0-4.027Z" transform="translate(-510.724 -199.661)" fill="#e6e6e6"></path><path d="M744.223,236.708a2.013,2.013,0,0,1,0,4.027H649.307a2.013,2.013,0,1,1,0-4.027Z" transform="translate(-552.141 -208.581)" fill="#e6e6e6"></path><path d="M218.17,371.5H373.487a2.88,2.88,0,0,0,2.876-2.876V330.1a2.88,2.88,0,0,0-2.876-2.876H218.17a2.88,2.88,0,0,0-2.876,2.876v38.528A2.88,2.88,0,0,0,218.17,371.5Zm155.317-43.13a1.728,1.728,0,0,1,1.726,1.726v38.527a1.728,1.728,0,0,1-1.726,1.726H218.17a1.728,1.728,0,0,1-1.726-1.726V330.1a1.728,1.728,0,0,1,1.726-1.726Z" transform="translate(66.238 -247.027)" fill="#e6e6e6"></path><ellipse cx="12.08" cy="12.08" rx="12.08" ry="12.08" transform="translate(407.511 90.254)" fill="#15af9e"></ellipse><path d="M358.106,351.708a2.013,2.013,0,0,1,0,4.027h-55.8a2.013,2.013,0,1,1,0-4.027Z" transform="translate(33.586 -257.428)" fill="#e6e6e6"></path><path d="M397.223,372.708a2.013,2.013,0,0,1,0,4.027H302.307a2.013,2.013,0,0,1,0-4.027Z" transform="translate(-5.531 -266.348)" fill="#e6e6e6"></path><path d="M462.17,518.5H617.487a2.88,2.88,0,0,0,2.876-2.876V477.1a2.88,2.88,0,0,0-2.876-2.876H462.17a2.88,2.88,0,0,0-2.876,2.876v38.527A2.88,2.88,0,0,0,462.17,518.5Zm155.317-43.13a1.728,1.728,0,0,1,1.726,1.726v38.527a1.728,1.728,0,0,1-1.726,1.726H462.17a1.728,1.728,0,0,1-1.726-1.726V477.1a1.728,1.728,0,0,1,1.726-1.726Z" transform="translate(-318.122 -309.465)" fill="#3f3d56"></path><ellipse cx="12.08" cy="12.08" rx="12.08" ry="12.08" transform="translate(267.151 174.815)" fill="#15af9e"></ellipse><path d="M597.5,498.708a2.013,2.013,0,0,1,0,4.027h-51.2a2.013,2.013,0,0,1,0-4.027Z" transform="translate(-346.172 -319.866)" fill="#e6e6e6"></path><path d="M641.223,519.708a2.013,2.013,0,0,1,0,4.027H546.307a2.013,2.013,0,0,1,0-4.027Z" transform="translate(-389.891 -328.786)" fill="#e6e6e6"></path><path d="M819.849,473.635c6.745,20.236,34.339-1.226,34.339-1.226l-7.358-76.65c-11.038-8.585-22.688-1.226-22.688-1.226Z" transform="translate(-759.355 -274.371)" fill="#e6e6e6"></path><path d="M671.133,464.458l-9.4.1,2.349,27.1h7.052Z" transform="translate(-609.19 -197.28)" fill="#ffb8b8"></path><path d="M896.64,695.555H882.751a8.861,8.861,0,0,0-8.851,8.851v.288h22.74Z" transform="translate(-832.899 -403.478)" fill="#2f2e41"></path><path d="M599.327,464.458h10.409l-3.355,27.2h-7.052Z" transform="translate(-511.895 -197.28)" fill="#ffb8b8"></path><path d="M819.049,704.693v-.288a8.851,8.851,0,0,0-8.851-8.851H796.309v9.139Z" transform="translate(-710.674 -403.478)" fill="#2f2e41"></path><path d="M825.382,618.254l12.318-71.8,11.413,70.878,11.563.642,3.083-94.965-.232-.052c-1.912-.428-46.9-10.31-54.279,3.827l-.037.072,6.156,91.725Z" transform="translate(-762.804 -328.57)" fill="#2f2e41"></path><ellipse cx="14.129" cy="14.129" rx="14.129" ry="14.129" transform="translate(61.504 84.148)" fill="#ffb8b8"></ellipse><path d="M874.4,479.493c1.656-.459,2.85-2.361,3.756-5.986.156-.625,14.825-63.111,2.42-74.432l-2.859-7.943L873.8,393.74c-1.385.013-15.544.371-16.754,9.447-1.185,8.884-4.41,68.4-1.168,72.107a.7.7,0,0,0,.533.27c3.285,0,4.282-3.645,4.517-4.807.781.324,3.108,1.512,6.931,5.336,2.368,2.368,4.225,3.5,5.759,3.5A2.9,2.9,0,0,0,874.4,479.493Z" transform="translate(-810.633 -274.173)" fill="#2f2e41"></path><path d="M814.984,476.094c3.825-3.824,6.151-5.013,6.931-5.336.234,1.162,1.231,4.807,4.517,4.807a.7.7,0,0,0,.533-.27c3.241-3.7.017-63.223-1.168-72.107-1.21-9.076-15.369-9.434-16.754-9.447l-3.913-2.609-2.859,7.943c-12.4,11.32,2.264,73.807,2.42,74.432.906,3.625,2.1,5.527,3.756,5.986a2.9,2.9,0,0,0,.778.1C810.758,479.6,812.616,478.462,814.984,476.094Z" transform="translate(-720.56 -274.173)" fill="#2f2e41"></path><path d="M827.9,350.038a14.5,14.5,0,0,1,7.022-26.2c1.3-.13,2.7-.111,3.78-.849.958-.656,1.474-1.794,2.354-2.552a5.136,5.136,0,0,1,3.984-1,14.415,14.415,0,0,1,4.005,1.316c3.133,1.4,6.463,3.116,7.889,6.236a8.6,8.6,0,0,1-1.058,8.437,11.741,11.741,0,0,1-7.488,4.421,18.715,18.715,0,0,1-8.793-.792,21.681,21.681,0,0,0-5.659-1.452,7.691,7.691,0,0,0-5.836,12.98" transform="translate(-763.935 -243.69)" fill="#2f2e41"></path><path d="M742.891,499.527a6.213,6.213,0,0,1-6.068-6.356l-8.239-13.9,6.366-5.836,8.679,13.7a6.213,6.213,0,0,1-.738,12.4Z" transform="translate(-601.916 -309.131)" fill="#ffb8b8"></path><path d="M891.93,525.8a6.213,6.213,0,0,1-1.812-8.6l.315-16.157,8.485-1.61.166,16.214a6.213,6.213,0,0,1-7.155,10.15Z" transform="translate(-846.544 -320.176)" fill="#ffb8b8"></path><path d="M789.135,446.487l.1-.153-.1-.153c-12.358-19.845-38.3-44.635-38.56-44.884l-.082-.078-3.2-.033-3.464,8.629c1.078,2.074,30.141,42.631,33.978,45.321a2.648,2.648,0,0,0,2.12.4,5.579,5.579,0,0,0,1.8-.765C785.262,452.578,788.954,446.774,789.135,446.487Z" transform="translate(-650.665 -278.444)" fill="#2f2e41"></path><path d="M901.427,472.758a2.629,2.629,0,0,0,1.557-1.429c1.85-4.317-6.08-58.849-6.418-61.168l-.064-.439-2.681,1.7-.026.116c-.079.348-7.888,35.088-5.771,58.172l.015.165.15.07c.323.149,6.827,3.137,11.162,3.137A5.863,5.863,0,0,0,901.427,472.758Z" transform="translate(-847.437 -282.069)" fill="#2f2e41"></path><path d="M717.281,711.338H870.3a.575.575,0,0,0,0-1.151H717.281a.575.575,0,1,0,0,1.151Z" transform="translate(-716.706 -409.693)" fill="#3f3d56"></path></svg> 