<?xml version="1.0" encoding="UTF-8"?> <svg xmlns="http://www.w3.org/2000/svg" width="395.51" height="247.329" viewBox="0 0 395.51 247.329"><path d="M875.041,505.166a5.254,5.254,0,0,1,2.56-7.639l-.743-18.657,8.306,5.015-.568,16.948a5.283,5.283,0,0,1-9.555,4.333Z" transform="translate(-533.208 -340.121)" fill="#a0616a"></path><path d="M869.539,454.17l-7.384,1.18a2.351,2.351,0,0,1-2.7-2.012l-3.124-23.528-15.437-21.125A7.1,7.1,0,0,1,842.8,398.52h0a7.1,7.1,0,0,1,9.8,2.158l15.766,24.671,3.138,26.219a2.375,2.375,0,0,1,.007.5A2.344,2.344,0,0,1,869.539,454.17Z" transform="translate(-516.62 -301.22)" fill="#15af9e"></path><path d="M618.086,437.283H611.68l-3.047-24.708h9.454Z" transform="translate(-290.624 -197.006)" fill="#a0616a"></path><path d="M598.6,456.36h12.354v7.778H590.821A7.778,7.778,0,0,1,598.6,456.36Z" transform="translate(-282.119 -217.913)" fill="#2f2e41"></path><path d="M657.772,422.008l-4.786,4.257-17.841-17.591,6.205-5.127Z" transform="translate(-303.284 -192.695)" fill="#a0616a"></path><path d="M7.778,0H20.132V7.778H0A7.778,7.778,0,0,1,7.778,0Z" transform="translate(339.258 240.414) rotate(-41.654)" fill="#2f2e41"></path><path d="M721.28,402.652a5.254,5.254,0,0,1,6.439,4.842l17.936,5.189-7.382,6.3-15.9-5.893a5.283,5.283,0,0,1-1.093-10.434Z" transform="translate(-458.191 -303.661)" fill="#a0616a"></path><circle cx="12.833" cy="12.833" r="12.833" transform="translate(306.176 55.42)" fill="#a0616a"></circle><path d="M837.35,588.438l-8.916-.713a2.35,2.35,0,0,1-2.162-2.266l-2.488-75.152a2.345,2.345,0,0,1,2.025-2.406l17.775-2.48a2.351,2.351,0,0,1,2.643,2.724l-6.8,39.84a1.841,1.841,0,0,0-.026.332l.49,37.748a2.352,2.352,0,0,1-2.353,2.382C837.474,588.446,837.412,588.443,837.35,588.438Z" transform="translate(-509.102 -352.788)" fill="#2a4164"></path><path d="M843.063,579.2l-30.628-34.087a2.353,2.353,0,0,1-.589-1.821l3.868-36.264a2.348,2.348,0,0,1,2.494-2.1l18.8,1.253a2.351,2.351,0,0,1,2.071,3.1L827.814,542.6a1.822,1.822,0,0,0,.416,1.855l26.017,26.963a2.351,2.351,0,0,1-.5,3.657l-7.743,4.575a2.357,2.357,0,0,1-2.945-.453Z" transform="translate(-503.396 -352.563)" fill="#2a4164"></path><path d="M820.642,379.827s7.837-6.792,11.495-3.135c0,0,16.981,10.711,9.666,39.971,0,0,6.27,28.215,3.657,29.26s-29,4.964-31.089,1.829S811.237,396.547,820.642,379.827Z" transform="translate(-503.933 -290.814)" fill="#15af9e"></path><path d="M740.273,418.2l1.213-7.379a2.351,2.351,0,0,1,2.763-1.927l23.31,4.468,24.92-7.974a7.1,7.1,0,0,1,9.041,5.021h0a7.1,7.1,0,0,1-5.143,8.615l-28.388,7.166-25.868-5.3a2.38,2.38,0,0,1-.48-.153A2.344,2.344,0,0,1,740.273,418.2Z" transform="translate(-469.211 -304.873)" fill="#15af9e"></path><path d="M825.922,337.028c1.173-2.714,2.165-6.329-.084-8.248-1.3-1.113-3.184-1.115-4.893-1.254-4.816-.39-9.774-2.606-12.128-6.826s-1.039-10.494,3.4-12.4c2.994-1.283,6.425-.409,9.559.479l9.408,2.668c2.8.793,5.73,1.667,7.743,3.763,3.21,3.343,2.97,8.993.42,12.863s-6.388,7.906-10.783,9.375Z" transform="translate(-501.406 -258.366)" fill="#2a4164"></path><path d="M858.582,685.725H729a.522.522,0,0,1,0-1.045H858.582a.522.522,0,1,1,0,1.045Z" transform="translate(-463.595 -438.396)" fill="#3f3d56"></path><path d="M479.634,213.32H225.177a3.662,3.662,0,0,0-3.657,3.657v188.1a3.662,3.662,0,0,0,3.657,3.657H479.634a3.662,3.662,0,0,0,3.657-3.657v-188.1A3.662,3.662,0,0,0,479.634,213.32Zm2.612,191.757a2.614,2.614,0,0,1-2.612,2.613H225.177a2.614,2.614,0,0,1-2.612-2.612v-188.1a2.614,2.614,0,0,1,2.613-2.612H479.634a2.614,2.614,0,0,1,2.613,2.613Z" transform="translate(-221.52 -213.32)" fill="#3f3d56"></path><rect width="260.726" height="1.045" transform="translate(0.522 14.651)" fill="#3f3d56"></rect><ellipse cx="3.5" cy="3" rx="3.5" ry="3" transform="translate(6 5)" fill="#3f3d56"></ellipse><circle cx="3.135" cy="3.135" r="3.135" transform="translate(15.283 4.702)" fill="#3f3d56"></circle><circle cx="3.135" cy="3.135" r="3.135" transform="translate(24.296 4.702)" fill="#3f3d56"></circle><path d="M522.865,504.092a.522.522,0,0,1-.522-.522V482.147a.522.522,0,1,1,1.045,0V503.57A.522.522,0,0,1,522.865,504.092Z" transform="translate(-365.164 -341.436)" fill="#3f3d56"></path><path d="M494.365,449.863a.52.52,0,0,1-.263-.071l-29.686-17.3a.523.523,0,1,1,.526-.9l29.686,17.3a.523.523,0,0,1-.264.974Z" transform="translate(-337.38 -317.511)" fill="#3f3d56"></path><path d="M407.866,449.863a.523.523,0,0,1-.264-.974l29.686-17.3a.523.523,0,1,1,.526.9l-29.686,17.3A.522.522,0,0,1,407.866,449.863Z" transform="translate(-310.251 -317.511)" fill="#3f3d56"></path><path d="M553.365,499.863a.52.52,0,0,1-.263-.071l-29.686-17.3a.523.523,0,1,1,.526-.9l29.686,17.3a.523.523,0,0,1-.264.974Z" transform="translate(-365.553 -341.387)" fill="#3f3d56"></path><path d="M466.866,499.863a.523.523,0,0,1-.264-.974l29.686-17.3a.523.523,0,1,1,.526.9l-29.686,17.3a.522.522,0,0,1-.262.071Z" transform="translate(-338.424 -341.386)" fill="#3f3d56"></path><path d="M464.821,397.295a.522.522,0,0,1-.523-.521l-.049-19.012a.522.522,0,0,1,.521-.524h0a.522.522,0,0,1,.522.521l.048,19.012a.522.522,0,0,1-.521.524Z" transform="translate(-337.424 -291.591)" fill="#3f3d56"></path><path d="M463.687,423.854H450.075a2.354,2.354,0,0,1-2.351-2.351V414.51a2.354,2.354,0,0,1,2.351-2.351h13.612a2.354,2.354,0,0,1,2.351,2.351V421.5A2.354,2.354,0,0,1,463.687,423.854Z" transform="translate(-329.533 -308.266)" fill="#ccc"></path><path d="M408.211,365.566H379.246a.522.522,0,0,1,0-1.045H408.21a.522.522,0,1,1,0,1.045Z" transform="translate(-296.585 -285.519)" fill="#3f3d56"></path><path d="M464.772,334.755a.523.523,0,0,1-.522-.522V316.148a.522.522,0,1,1,1.045,0v18.085a.523.523,0,0,1-.522.523Z" transform="translate(-337.424 -262.171)" fill="#3f3d56"></path><path d="M331.983,350.335a.52.52,0,0,1-.266-.073L303.6,333.6a.523.523,0,1,1,.533-.9l28.118,16.666a.523.523,0,0,1-.267.972Z" transform="translate(-260.591 -270.288)" fill="#3f3d56"></path><path d="M303.866,382.231a.523.523,0,0,1-.267-.972l28.118-16.666a.523.523,0,0,1,.533.9l-28.118,16.666A.52.52,0,0,1,303.866,382.231Z" transform="translate(-260.591 -285.519)" fill="#3f3d56"></path><path d="M367.186,365.914h-6.992a2.354,2.354,0,0,1-2.351-2.351V349.95a2.354,2.354,0,0,1,2.351-2.351h6.992a2.354,2.354,0,0,1,2.351,2.351v13.612a2.354,2.354,0,0,1-2.352,2.351Z" transform="translate(-286.615 -277.439)" fill="#ccc"></path><path d="M463.687,308.629H450.075a2.354,2.354,0,0,1-2.351-2.351v-6.992a2.354,2.354,0,0,1,2.351-2.351h13.612a2.354,2.354,0,0,1,2.351,2.351v6.992a2.354,2.354,0,0,1-2.351,2.351Z" transform="translate(-329.533 -253.246)" fill="#ccc"></path><path d="M292.186,334.914h-6.992a2.354,2.354,0,0,1-2.351-2.351V318.95a2.354,2.354,0,0,1,2.351-2.351h6.992a2.354,2.354,0,0,1,2.351,2.351v13.612a2.354,2.354,0,0,1-2.351,2.351Z" transform="translate(-250.802 -262.636)" fill="#ccc"></path><path d="M292.186,397.914h-6.992a2.354,2.354,0,0,1-2.351-2.351V381.95a2.354,2.354,0,0,1,2.351-2.351h6.992a2.354,2.354,0,0,1,2.351,2.351v13.612a2.354,2.354,0,0,1-2.351,2.351Z" transform="translate(-250.802 -292.719)" fill="#ccc"></path><path d="M523.829,365.566H494.865a.522.522,0,0,1,0-1.045h28.964a.522.522,0,1,1,0,1.045Z" transform="translate(-351.794 -285.519)" fill="#3f3d56"></path><path d="M571.866,350.335a.522.522,0,0,1-.267-.972L599.717,332.7a.523.523,0,1,1,.533.9l-28.118,16.666a.52.52,0,0,1-.266.073Z" transform="translate(-388.561 -270.288)" fill="#3f3d56"></path><path d="M599.983,382.231a.52.52,0,0,1-.266-.073L571.6,365.493a.523.523,0,0,1,.533-.9l28.118,16.666a.523.523,0,0,1-.267.972Z" transform="translate(-388.561 -285.519)" fill="#3f3d56"></path><path d="M559.619,365.914h-6.992a2.354,2.354,0,0,1-2.351-2.351V349.95a2.354,2.354,0,0,1,2.351-2.351h6.992a2.354,2.354,0,0,1,2.351,2.351v13.612A2.354,2.354,0,0,1,559.619,365.914Z" transform="translate(-378.502 -277.439)" fill="#ccc"></path><path d="M634.619,334.914h-6.992a2.354,2.354,0,0,1-2.351-2.351V318.95a2.354,2.354,0,0,1,2.351-2.351h6.992a2.354,2.354,0,0,1,2.351,2.351v13.612A2.354,2.354,0,0,1,634.619,334.914Z" transform="translate(-414.315 -262.636)" fill="#ccc"></path><path d="M634.619,397.914h-6.992a2.354,2.354,0,0,1-2.351-2.351V381.95a2.354,2.354,0,0,1,2.351-2.351h6.992a2.354,2.354,0,0,1,2.351,2.351v13.612A2.354,2.354,0,0,1,634.619,397.914Z" transform="translate(-414.315 -292.719)" fill="#ccc"></path><path d="M405.687,474.854H392.075a2.354,2.354,0,0,1-2.351-2.351V465.51a2.354,2.354,0,0,1,2.351-2.351h13.612a2.354,2.354,0,0,1,2.351,2.351V472.5A2.354,2.354,0,0,1,405.687,474.854Z" transform="translate(-301.838 -332.619)" fill="#ccc"></path><path d="M521.5,474.854H507.89a2.354,2.354,0,0,1-2.351-2.351V465.51a2.354,2.354,0,0,1,2.351-2.351H521.5a2.354,2.354,0,0,1,2.351,2.351V472.5A2.354,2.354,0,0,1,521.5,474.854Z" transform="translate(-357.14 -332.619)" fill="#ccc"></path><path d="M468.5,523.854H454.89a2.354,2.354,0,0,1-2.351-2.351V514.51a2.354,2.354,0,0,1,2.351-2.351H468.5a2.354,2.354,0,0,1,2.351,2.351V521.5A2.354,2.354,0,0,1,468.5,523.854Z" transform="translate(-331.832 -356.016)" fill="#ccc"></path><path d="M579.5,523.854H565.89a2.354,2.354,0,0,1-2.351-2.351V514.51a2.354,2.354,0,0,1,2.351-2.351H579.5a2.354,2.354,0,0,1,2.351,2.351V521.5A2.354,2.354,0,0,1,579.5,523.854Z" transform="translate(-384.835 -356.016)" fill="#ccc"></path><path d="M521.5,523.854H507.89a2.354,2.354,0,0,1-2.351-2.351V514.51a2.354,2.354,0,0,1,2.351-2.351H521.5a2.354,2.354,0,0,1,2.351,2.351V521.5A2.354,2.354,0,0,1,521.5,523.854Z" transform="translate(-357.14 -356.016)" fill="#ccc"></path><path d="M464.526,366.3H431.432a2.354,2.354,0,0,1-2.351-2.351V350.476a2.354,2.354,0,0,1,2.351-2.351h33.094a2.354,2.354,0,0,1,2.351,2.351v13.476A2.354,2.354,0,0,1,464.526,366.3Z" transform="translate(-320.631 -277.69)" fill="#15af9e"></path></svg> 