<?xml version="1.0" encoding="UTF-8"?> <!-- Generator: Adobe Illustrator 25.0.0, SVG Export Plug-In . SVG Version: 6.00 Build 0) --> <svg xmlns="http://www.w3.org/2000/svg" xmlns:xlink="http://www.w3.org/1999/xlink" version="1.1" id="Layer_1" x="0px" y="0px" viewBox="0 0 411.84 277.64" style="enable-background:new 0 0 411.84 277.64;" xml:space="preserve"> <style type="text/css"> .st0{fill:#BC976F;} .st1{fill:#515051;} </style> <g> <g> <path class="st0" d="M249.26,36.59c0.18,0.13,0.4,0.2,0.61,0.2c0.23,0,0.45-0.07,0.64-0.22c0.56-0.44,1.08-0.74,1.65-0.96 c0.58-0.23,1.21-0.37,2-0.45l0.58-0.06l0.25-0.53c0.43-0.91,0.66-1.83,0.7-2.72c0.03-0.86-0.12-1.71-0.46-2.53l-0.24-0.6 l-0.65-0.05c-0.88-0.06-1.74,0.05-2.55,0.35c-0.84,0.31-1.64,0.81-2.37,1.5l-0.43,0.4l0.13,0.58c0.16,0.76,0.22,1.43,0.19,2.04 c-0.04,0.6-0.17,1.21-0.41,1.87C248.73,35.83,248.87,36.31,249.26,36.59z M251.27,31.66c0.4-0.31,0.82-0.55,1.24-0.7l0,0 c0.32-0.12,0.65-0.19,1-0.22c0.08,0.34,0.11,0.68,0.1,1.02c-0.02,0.45-0.11,0.92-0.29,1.4c-0.7,0.11-1.33,0.28-1.92,0.51 c-0.01,0-0.01,0-0.02,0.01c0-0.01,0-0.01,0-0.02C251.42,33.01,251.38,32.36,251.27,31.66z"></path> <path class="st0" d="M245.14,44.08c-1.35,4.36-0.69,9.96,1.85,15.78l0,0c2.29,5.25,5.86,10.16,10.04,13.81 c1.03,0.9,2.25,1.92,3.6,2.77c-0.59,1.48-0.97,3.02-1.28,4.36c-1.24,5.42-1.24,11.49,0,17.08c1.36,6.2,4.13,11.12,7.78,13.86 c1.74,1.3,3.72,2.07,5.73,2.21c0.22,0.02,0.44,0.02,0.66,0.02c1.76,0,3.45-0.5,4.93-1.47c0.91-0.6,1.7-1.4,2.29-2.32 c0.59-0.93,0.96-1.96,1.1-3.06c0.22-1.67-0.22-3.32-1.24-4.66c-1.02-1.34-2.51-2.19-4.17-2.42c-1.39-0.18-2.77,0.18-3.88,1.03 c-1.11,0.85-1.83,2.09-2.01,3.48c-0.15,1.17,0.16,2.33,0.87,3.26c0.58,0.76,2.31,2.06,3.67,1.62c0.44-0.14,0.8-0.45,1.01-0.86 c0.21-0.41,0.25-0.88,0.1-1.32c-0.14-0.44-0.45-0.8-0.86-1.01c-0.41-0.21-0.88-0.25-1.32-0.1c-0.32,0.1-0.6,0.3-0.81,0.56 c-0.04-0.05-0.08-0.1-0.12-0.15c-0.38-0.49-0.54-1.1-0.46-1.71c0.11-0.83,0.54-1.58,1.21-2.09c0.67-0.51,1.5-0.74,2.34-0.62 c1.11,0.15,2.1,0.72,2.79,1.61c0.68,0.89,0.98,2,0.83,3.11c-0.1,0.79-0.37,1.54-0.8,2.21c-0.42,0.67-0.99,1.25-1.66,1.68 c-1.3,0.85-2.76,1.23-4.31,1.11c-1.58-0.12-3.22-0.76-4.62-1.8c-3.25-2.44-5.73-6.92-6.99-12.64c-0.48-2.18-0.76-4.48-0.84-6.79 c0.11,0.27,0.23,0.53,0.36,0.79c1.27,2.56,3.15,4.42,5.58,5.54c1.61,0.74,3.35,1.04,5.04,0.84c1.69-0.2,3.27-0.86,4.69-1.96 c0.92-0.72,1.68-1.59,2.26-2.61c0.57-1.01,0.94-2.11,1.09-3.27c0.37-2.83-0.97-5.64-3.4-7.15c-1.47-0.92-3.15-1.28-4.73-1.01 c-1.84,0.31-3.47,1.49-4.35,3.15c-1.1,2.07-0.86,4.46,0.61,6.09c0.65,0.73,1.53,1.26,2.47,1.51c1.51,0.4,3.36-0.17,4.5-1.38 c0.84-0.89,1.14-1.99,0.81-3c-0.17-0.52-0.53-0.94-1.01-1.18c-0.48-0.25-1.03-0.29-1.55-0.12c-1.07,0.35-1.65,1.49-1.3,2.56 c0.13,0.39,0.37,0.73,0.69,0.97c-0.44,0.21-0.95,0.27-1.46,0.16c-0.6-0.12-1.16-0.45-1.59-0.92c-1.16-1.29-0.82-2.94-0.17-3.97 c0.6-0.95,1.57-1.61,2.66-1.81c1-0.18,2.11,0.03,3.11,0.59c1.88,1.06,2.91,3.12,2.64,5.24c-0.11,0.89-0.4,1.73-0.83,2.5 c-0.44,0.77-1.02,1.44-1.73,1.99c-1.11,0.87-2.34,1.38-3.64,1.53c-1.3,0.15-2.66-0.08-3.92-0.66c-1.98-0.91-3.52-2.45-4.58-4.58 c-1.08-2.17-1.59-4.92-1.43-7.74c0.1-1.8,0.48-3.61,1.12-5.29c2.7,1.32,5.72,2.03,8.76,2.06c2.38,0.02,4.7-0.39,6.67-1.18 c2.05-0.82,3.65-2.02,4.65-3.47c1.2-1.74,1.48-3.76,0.81-5.83c-0.67-2.07-2.08-3.54-4.08-4.24c-1.66-0.59-3.67-0.61-5.8-0.07 c-2.07,0.52-4.17,1.55-6.09,2.97c-2.44,1.81-4.46,4.15-5.88,6.82c-1.5-0.98-2.88-2.23-4.02-3.62c-1.78-2.19-2.99-4.71-3.39-7.1 c-0.39-2.34-0.05-4.49,1.01-6.39c0.68-1.22,1.64-2.2,2.78-2.84c1.15-0.65,2.44-0.95,3.85-0.9c0.89,0.03,1.76,0.23,2.57,0.6 c0.81,0.37,1.53,0.88,2.14,1.53c1.47,1.55,1.84,3.83,0.95,5.79c-0.48,1.05-1.24,1.87-2.16,2.31c-1,0.48-2.17,0.52-3.21,0.1 c-1.13-0.45-2.38-1.59-2.2-3.31c0.07-0.63,0.33-1.23,0.74-1.68c0.35-0.39,0.8-0.63,1.28-0.72c-0.11,0.38-0.11,0.8,0.02,1.19 c0.35,1.06,1.49,1.65,2.56,1.3c0.52-0.17,0.94-0.53,1.18-1.01c0.25-0.48,0.29-1.03,0.12-1.55c-0.33-1.01-1.21-1.72-2.42-1.95 c-1.63-0.31-3.46,0.32-4.45,1.52c-0.61,0.75-1.01,1.7-1.11,2.67c-0.23,2.19,0.98,4.26,3.09,5.29c1.69,0.82,3.69,0.82,5.37-0.01 c1.43-0.71,2.58-1.98,3.23-3.6c1.07-2.66,0.5-5.71-1.46-7.79c-0.8-0.85-1.74-1.52-2.8-2c-1.06-0.48-2.19-0.74-3.36-0.78 c-1.79-0.06-3.46,0.33-4.95,1.17c-1.48,0.83-2.71,2.09-3.58,3.64c-1.31,2.34-1.73,4.95-1.25,7.76c0.05,0.28,0.11,0.57,0.17,0.86 c-1.3-1.92-2.42-3.95-3.31-5.99c-2.34-5.36-2.97-10.45-1.77-14.33c0.52-1.67,1.47-3.15,2.68-4.17c1.19-1.01,2.59-1.56,4.14-1.63 c0.8-0.04,1.6,0.09,2.33,0.39c0.74,0.3,1.4,0.74,1.95,1.32c0.77,0.81,1.18,1.88,1.16,3.01c-0.03,1.12-0.49,2.17-1.31,2.94 c-0.61,0.58-1.41,0.89-2.26,0.87c-0.84-0.02-1.63-0.37-2.21-0.98c-0.42-0.45-0.65-1.03-0.64-1.65c0-0.06,0.01-0.13,0.01-0.19 c0.32,0.09,0.66,0.08,0.98-0.03c0.44-0.14,0.8-0.45,1.01-0.86c0.21-0.41,0.25-0.88,0.1-1.32c-0.3-0.91-1.28-1.41-2.19-1.11 c-1.36,0.44-1.99,2.51-2.02,3.46c-0.03,1.18,0.4,2.3,1.21,3.15c0.97,1.02,2.27,1.59,3.67,1.63c1.41,0.04,2.73-0.48,3.75-1.45 c1.22-1.16,1.92-2.72,1.96-4.41c0.04-1.68-0.58-3.28-1.73-4.5c-0.77-0.8-1.67-1.42-2.69-1.82c-1.02-0.41-2.12-0.59-3.21-0.54 c-1.99,0.1-3.85,0.83-5.38,2.12C246.94,40.22,245.78,42,245.14,44.08z M271.25,77.45c-2.75-0.02-5.48-0.67-7.92-1.88 c1.27-2.41,3.09-4.54,5.3-6.17c1.7-1.26,3.56-2.17,5.36-2.62c1.74-0.44,3.33-0.43,4.6,0.02c1.37,0.48,2.31,1.46,2.78,2.91 c0.47,1.45,0.29,2.8-0.54,4c-0.76,1.11-2.05,2.05-3.71,2.71C275.4,77.11,273.38,77.47,271.25,77.45z"></path> <g> <path class="st0" d="M155.18,109.69c-0.33,0.28-0.46,0.72-0.33,1.13c0.13,0.41,0.49,0.69,0.93,0.72c1.91,0.13,3.7,0.71,5.32,1.73 c1.6,1.01,2.99,2.41,4.11,4.14c2.19,3.91,4.92,7.51,8.1,10.69c6.85,6.85,15.46,11.47,24.88,13.34c2.08,0.54,3.89,1.44,5.36,2.67 c1.48,1.23,2.58,2.75,3.29,4.53c0.16,0.4,0.54,0.66,0.97,0.66c0.43,0,0.81-0.26,0.97-0.66c0.71-1.78,1.82-3.3,3.29-4.53 c1.47-1.23,3.28-2.13,5.33-2.66c9.45-1.88,18.06-6.5,24.91-13.35c3.17-3.17,5.88-6.75,8.06-10.62c1.15-1.78,2.55-3.2,4.16-4.21 c1.62-1.02,3.41-1.61,5.32-1.73c0.43-0.03,0.79-0.31,0.92-0.72c0.13-0.41,0.01-0.85-0.32-1.13c-1.47-1.22-2.57-2.74-3.29-4.53 c-0.7-1.76-1-3.72-0.89-5.79c0.22-1.91,0.34-3.85,0.34-5.77c0-12.36-4.63-24.14-13.03-33.19c-1.29-1.61-2.18-3.34-2.63-5.15 c-0.47-1.86-0.47-3.75,0-5.6c0.1-0.42-0.05-0.85-0.4-1.1c-0.35-0.26-0.81-0.27-1.18-0.04c-1.62,1.02-3.41,1.6-5.32,1.72 c-1.8,0.12-3.66-0.17-5.53-0.85c-6.51-3.05-13.47-4.6-20.71-4.6c-7.24,0-14.2,1.55-20.71,4.6c-1.87,0.68-3.73,0.97-5.53,0.85 c-1.92-0.13-3.71-0.71-5.32-1.72c-0.37-0.23-0.83-0.22-1.17,0.04c-0.35,0.25-0.51,0.69-0.4,1.1c0.47,1.85,0.47,3.73,0,5.6 c-0.45,1.79-1.33,3.51-2.61,5.12c-8.42,9.05-13.06,20.85-13.06,33.23c0,1.94,0.12,3.89,0.34,5.77c0.11,2.09-0.19,4.04-0.89,5.79 C157.75,106.94,156.65,108.47,155.18,109.69z M160.52,105.65c0.52,2.05,1.17,4.06,1.96,6.02c-0.09-0.06-0.17-0.11-0.26-0.17 c-1.29-0.81-2.68-1.4-4.14-1.73c0.98-1.13,1.76-2.42,2.33-3.84C160.45,105.84,160.48,105.74,160.52,105.65z M161.11,93.6 c0-12.48,4.86-24.21,13.68-33.03c8.69-8.69,20.73-13.68,33.03-13.68c12.48,0,24.21,4.86,33.03,13.68 c8.77,8.77,13.6,20.5,13.6,33.03c0,12.53-4.83,24.26-13.6,33.03c-8.82,8.82-20.55,13.68-33.03,13.68 c-12.48,0-24.21-4.86-33.03-13.68C165.97,117.8,161.11,106.07,161.11,93.6z M210.75,142.51L210.75,142.51 c-1.17,0.98-2.16,2.12-2.93,3.4c-0.77-1.28-1.76-2.43-2.93-3.41c-0.09-0.07-0.18-0.14-0.27-0.22c2.14,0.14,4.25,0.14,6.39,0 C210.93,142.37,210.84,142.44,210.75,142.51z M255.24,105.94c0.57,1.42,1.35,2.71,2.33,3.84c-1.46,0.34-2.85,0.92-4.14,1.73 c-0.09,0.06-0.17,0.11-0.26,0.17c0.78-1.96,1.44-3.98,1.96-6.03C255.16,105.74,255.2,105.84,255.24,105.94z M234.2,52.33 c1.52-0.1,2.99-0.45,4.37-1.03c-0.13,1.49-0.01,2.99,0.37,4.47c0.02,0.1,0.05,0.2,0.08,0.29c-1.62-1.35-3.33-2.59-5.11-3.72 C234.01,52.34,234.1,52.33,234.2,52.33L234.2,52.33z M177.08,51.29c1.38,0.58,2.85,0.93,4.37,1.03c0.1,0.01,0.19,0.01,0.29,0.02 c-1.78,1.13-3.48,2.37-5.1,3.72c0.03-0.1,0.05-0.19,0.08-0.29v0C177.08,54.29,177.21,52.78,177.08,51.29z"></path> </g> <path class="st0" d="M272.39,115.37c-1.71-1.06-3.75-1.61-5.93-1.57c-4.56,0.07-9.69,2.42-14.44,6.64 c-4.28,3.8-7.85,8.71-10.03,13.82c-0.54,1.26-1.13,2.74-1.53,4.28c-1.62-0.1-3.26,0.01-4.54,0.13c-5.54,0.5-11.31,2.37-16.25,5.27 c-5.48,3.22-9.3,7.36-10.77,11.68c-0.7,2.06-0.82,4.18-0.34,6.13c0.48,1.94,1.56,3.63,3.11,4.88c0.85,0.69,1.86,1.19,2.91,1.46 c0.61,0.16,1.24,0.23,1.86,0.23c0.46,0,0.93-0.04,1.39-0.13c1.65-0.3,3.09-1.23,4.05-2.62c0.95-1.39,1.31-3.06,1.01-4.72 c-0.25-1.38-1.03-2.58-2.18-3.37c-1.15-0.79-2.55-1.09-3.93-0.84c-1.16,0.21-2.16,0.86-2.83,1.83c-0.54,0.79-1.24,2.83-0.4,3.99 c0.27,0.37,0.67,0.62,1.13,0.69c0.46,0.07,0.92-0.04,1.29-0.31c0.77-0.56,0.95-1.65,0.38-2.42c-0.2-0.27-0.47-0.48-0.78-0.6 c0.03-0.06,0.07-0.11,0.1-0.16c0.35-0.51,0.88-0.85,1.49-0.97c0.83-0.15,1.67,0.03,2.36,0.51c0.7,0.48,1.16,1.2,1.32,2.03 c0.2,1.1-0.03,2.22-0.67,3.15c-0.64,0.93-1.6,1.55-2.7,1.75c-0.79,0.14-1.59,0.12-2.36-0.08c-0.76-0.19-1.49-0.56-2.11-1.06 c-1.21-0.98-2.02-2.24-2.39-3.75c-0.38-1.54-0.28-3.3,0.29-4.95c1.31-3.85,4.81-7.59,9.86-10.56c1.92-1.13,4.02-2.11,6.2-2.9 c-0.22,0.19-0.43,0.39-0.64,0.59c-2.04,2-3.23,4.36-3.55,7.02c-0.21,1.76,0.05,3.51,0.76,5.05c0.71,1.55,1.82,2.85,3.31,3.85 c0.97,0.66,2.04,1.11,3.18,1.34c1.13,0.24,2.29,0.25,3.44,0.03c2.8-0.52,5.06-2.66,5.76-5.44c0.42-1.69,0.24-3.39-0.5-4.81 c-0.87-1.66-2.49-2.84-4.34-3.16c-2.31-0.41-4.51,0.56-5.61,2.46c-0.49,0.85-0.73,1.85-0.67,2.82c0.09,1.56,1.2,3.14,2.71,3.85 c1.11,0.53,2.24,0.47,3.1-0.16c0.44-0.32,0.73-0.79,0.81-1.32c0.09-0.54-0.04-1.07-0.36-1.51c-0.32-0.44-0.79-0.73-1.33-0.81 c-0.54-0.08-1.07,0.04-1.51,0.36c-0.33,0.24-0.58,0.58-0.72,0.95c-0.33-0.35-0.55-0.82-0.61-1.34c-0.07-0.61,0.07-1.25,0.38-1.79 c0.87-1.5,2.55-1.69,3.72-1.39c1.08,0.27,2.01,0.99,2.54,1.97c0.48,0.9,0.62,2.01,0.4,3.14c-0.43,2.11-2.07,3.73-4.17,4.12 c-0.88,0.16-1.76,0.16-2.63-0.02c-0.87-0.18-1.69-0.53-2.43-1.03c-1.17-0.79-2.04-1.8-2.59-2.99c-0.54-1.19-0.75-2.55-0.58-3.93 c0.26-2.17,1.25-4.11,2.94-5.77c1.73-1.7,4.19-3.03,6.92-3.75c1.74-0.46,3.59-0.65,5.38-0.57c-0.42,2.98-0.17,6.07,0.75,8.97 c0.72,2.28,1.82,4.35,3.18,5.98c1.41,1.69,3.05,2.86,4.74,3.36c2.03,0.6,4.03,0.25,5.79-1.03c1.76-1.28,2.72-3.07,2.77-5.19 c0.04-1.76-0.55-3.68-1.73-5.54c-1.13-1.8-2.76-3.49-4.71-4.88c-2.47-1.76-5.33-2.96-8.3-3.48c0.47-1.73,1.23-3.43,2.2-4.94 c1.53-2.37,3.56-4.3,5.7-5.42c2.1-1.1,4.25-1.44,6.4-1.01c1.36,0.27,2.59,0.88,3.56,1.77c0.97,0.89,1.66,2.03,2.05,3.38 c0.25,0.86,0.32,1.75,0.22,2.63c-0.1,0.88-0.36,1.73-0.79,2.51c-1.02,1.87-3.07,2.93-5.21,2.69c-1.14-0.13-2.16-0.61-2.86-1.35 c-0.77-0.8-1.16-1.91-1.09-3.02c0.08-1.21,0.78-2.75,2.47-3.11c0.62-0.13,1.27-0.06,1.82,0.19c0.48,0.22,0.85,0.56,1.08,0.99 c-0.4,0.01-0.79,0.14-1.13,0.38c-0.9,0.66-1.11,1.93-0.45,2.84c0.66,0.9,1.93,1.11,2.84,0.45c0.86-0.63,1.27-1.68,1.11-2.9 c-0.21-1.65-1.37-3.2-2.83-3.76c-0.91-0.35-1.93-0.43-2.89-0.23c-2.15,0.46-3.75,2.25-4.08,4.57c-0.26,1.86,0.36,3.77,1.67,5.1 c1.11,1.14,2.68,1.84,4.42,1.96c2.86,0.2,5.59-1.29,6.96-3.79c0.56-1.03,0.91-2.13,1.04-3.28c0.13-1.16,0.03-2.31-0.29-3.43 c-0.5-1.73-1.39-3.19-2.64-4.34c-1.25-1.15-2.83-1.93-4.57-2.28c-2.63-0.52-5.24-0.11-7.77,1.21c-0.26,0.13-0.51,0.28-0.76,0.43 c1.42-1.82,3.01-3.52,4.67-5c4.38-3.88,9.02-6.05,13.09-6.11c1.76-0.03,3.45,0.42,4.79,1.26c1.32,0.82,2.28,1.98,2.83,3.43 c0.28,0.74,0.4,1.55,0.35,2.34c-0.05,0.79-0.27,1.55-0.66,2.26c-0.54,0.99-1.42,1.71-2.5,2.03c-1.08,0.32-2.22,0.2-3.2-0.33 c-0.74-0.4-1.28-1.07-1.52-1.88c-0.24-0.81-0.15-1.66,0.25-2.4c0.29-0.54,0.78-0.94,1.38-1.12c0.06-0.02,0.13-0.03,0.19-0.05 c0.02,0.33,0.13,0.65,0.33,0.93c0.27,0.37,0.67,0.62,1.13,0.69c0.46,0.07,0.92-0.04,1.29-0.31c0.37-0.27,0.62-0.67,0.69-1.13 c0.07-0.46-0.04-0.92-0.31-1.29c-0.84-1.16-3-1.12-3.92-0.85c-1.13,0.33-2.06,1.09-2.62,2.13c-0.67,1.23-0.82,2.65-0.42,3.99 c0.4,1.34,1.3,2.45,2.53,3.12c1.48,0.8,3.18,0.98,4.8,0.5c1.61-0.48,2.94-1.56,3.74-3.04c0.53-0.97,0.83-2.02,0.9-3.12 c0.07-1.09-0.1-2.21-0.48-3.22C275.36,117.97,274.09,116.43,272.39,115.37z M253.29,156.18c-1.23,0.9-2.57,1.14-3.97,0.73 c-1.29-0.38-2.58-1.31-3.73-2.69c-1.19-1.43-2.16-3.25-2.8-5.27c-0.83-2.62-1.05-5.41-0.66-8.11c2.68,0.46,5.27,1.54,7.51,3.14 c1.73,1.23,3.16,2.72,4.15,4.29c0.95,1.52,1.44,3.03,1.41,4.38C255.16,154.09,254.52,155.28,253.29,156.18z"></path> <path class="st0" d="M172.25,42.81L172.25,42.81c3.73,2.63,9.26,3.73,15.58,3.12c5.7-0.56,11.47-2.43,16.24-5.28 c1.18-0.7,2.52-1.55,3.75-2.56c1.22,1.01,2.57,1.86,3.75,2.56c4.77,2.85,10.54,4.73,16.24,5.28c1.14,0.11,2.26,0.17,3.34,0.17 c4.92,0,9.19-1.13,12.24-3.28c1.78-1.25,3.12-2.9,3.88-4.76c0.75-1.85,0.87-3.85,0.35-5.77c-0.28-1.05-0.8-2.05-1.5-2.89 c-0.7-0.84-1.57-1.51-2.56-1.99c-1.52-0.73-3.23-0.82-4.81-0.26c-1.59,0.56-2.86,1.7-3.59,3.22c-0.61,1.26-0.68,2.69-0.22,4.01 c0.47,1.32,1.42,2.38,2.69,2.99c1.06,0.51,2.26,0.57,3.37,0.18c0.9-0.32,2.67-1.56,2.67-2.99c0-0.96-0.78-1.73-1.73-1.73 c-0.96,0-1.73,0.78-1.73,1.73c0,0.34,0.1,0.67,0.28,0.94c-0.06,0.03-0.12,0.05-0.18,0.07c-0.58,0.21-1.21,0.17-1.77-0.09 c-0.76-0.36-1.33-1-1.61-1.8c-0.28-0.8-0.24-1.65,0.13-2.41c0.48-1.01,1.34-1.78,2.4-2.15c1.06-0.37,2.2-0.31,3.22,0.17 c0.73,0.35,1.35,0.83,1.86,1.44c0.5,0.6,0.88,1.33,1.09,2.1c0.41,1.5,0.31,3-0.27,4.44c-0.6,1.47-1.71,2.83-3.14,3.84 c-3.32,2.34-8.35,3.32-14.18,2.75c-2.22-0.22-4.5-0.66-6.72-1.3c0.29-0.03,0.58-0.06,0.87-0.1c2.78-0.41,5.2-1.65,7-3.59 c1.21-1.3,2.02-2.87,2.36-4.53c0.34-1.67,0.2-3.38-0.42-5.07c-0.4-1.1-1-2.09-1.78-2.95c-0.78-0.86-1.71-1.55-2.77-2.05 c-2.58-1.22-5.66-0.82-7.86,1.02c-1.33,1.12-2.19,2.6-2.42,4.18c-0.27,1.85,0.35,3.76,1.65,5.11c1.63,1.69,3.98,2.2,5.99,1.3 c0.9-0.4,1.68-1.07,2.2-1.88c0.84-1.31,0.87-3.25,0.07-4.71c-0.59-1.08-1.54-1.69-2.6-1.69c-1.12,0-2.03,0.91-2.03,2.03 s0.91,2.03,2.03,2.03c0.41,0,0.81-0.13,1.14-0.35c0.06,0.48-0.04,0.98-0.29,1.44c-0.3,0.53-0.79,0.97-1.37,1.23 c-1.58,0.71-3.05-0.13-3.83-1.06c-0.71-0.86-1.04-1.99-0.89-3.09c0.14-1.01,0.68-1.99,1.52-2.77c1.59-1.46,3.86-1.81,5.79-0.89 c0.81,0.38,1.52,0.91,2.12,1.57c0.6,0.66,1.06,1.42,1.36,2.26c0.48,1.32,0.59,2.65,0.33,3.94c-0.26,1.28-0.9,2.5-1.84,3.52 c-1.49,1.61-3.43,2.59-5.77,2.94c-2.4,0.36-5.17-0.01-7.8-1.03c-1.68-0.65-3.29-1.58-4.69-2.7c2.09-2.16,3.7-4.81,4.67-7.69 c0.76-2.27,1.08-4.59,0.94-6.71c-0.15-2.2-0.79-4.1-1.86-5.5c-1.29-1.68-3.12-2.57-5.3-2.57c-2.18,0-4.01,0.89-5.29,2.57 c-1.07,1.4-1.71,3.3-1.86,5.5c-0.14,2.13,0.18,4.45,0.94,6.71c0.96,2.88,2.57,5.53,4.67,7.69c-1.39,1.12-3,2.05-4.68,2.7 c-2.63,1.02-5.4,1.39-7.8,1.03c-2.34-0.34-4.28-1.33-5.77-2.94c-0.94-1.02-1.58-2.24-1.84-3.52c-0.26-1.29-0.15-2.61,0.33-3.94 c0.31-0.84,0.76-1.6,1.36-2.26c0.6-0.66,1.31-1.18,2.11-1.56c1.93-0.91,4.21-0.57,5.8,0.89c0.85,0.77,1.39,1.76,1.52,2.77 c0.15,1.1-0.18,2.23-0.89,3.09c-0.78,0.93-2.24,1.77-3.83,1.06c-0.58-0.26-1.06-0.69-1.37-1.23c-0.26-0.45-0.36-0.96-0.29-1.44 c0.33,0.22,0.73,0.35,1.14,0.35c1.12,0,2.03-0.91,2.03-2.03s-0.91-2.03-2.03-2.03c-1.06,0-2.01,0.62-2.6,1.69 c-0.8,1.46-0.77,3.39,0.07,4.71c0.52,0.82,1.3,1.48,2.2,1.88c2.01,0.89,4.36,0.38,5.99-1.3c1.3-1.35,1.92-3.26,1.65-5.11 c-0.23-1.58-1.09-3.06-2.42-4.18c-2.19-1.84-5.28-2.24-7.86-1.02c-1.06,0.5-1.99,1.19-2.77,2.05c-0.78,0.86-1.38,1.85-1.78,2.95 c-0.61,1.69-0.75,3.4-0.42,5.07c0.34,1.66,1.15,3.23,2.36,4.53c1.79,1.94,4.21,3.18,7,3.59c0.29,0.04,0.57,0.08,0.87,0.1 c-2.22,0.64-4.5,1.08-6.72,1.3c-5.82,0.57-10.86-0.41-14.18-2.75c-1.43-1.01-2.54-2.37-3.14-3.84c-0.59-1.44-0.68-2.94-0.27-4.44 c0.21-0.77,0.58-1.49,1.09-2.1c0.51-0.61,1.13-1.1,1.86-1.44c1.01-0.48,2.16-0.55,3.22-0.17c1.06,0.38,1.91,1.14,2.4,2.15 c0.36,0.76,0.41,1.62,0.13,2.41c-0.28,0.8-0.85,1.43-1.61,1.8c-0.56,0.27-1.19,0.3-1.77,0.09c-0.06-0.02-0.12-0.05-0.18-0.07 c0.18-0.28,0.28-0.6,0.28-0.94c0-0.96-0.78-1.73-1.73-1.73c-0.96,0-1.73,0.78-1.73,1.73c0,1.42,1.77,2.67,2.67,2.99 c1.11,0.39,2.31,0.33,3.37-0.18c1.27-0.61,2.22-1.67,2.69-2.99c0.47-1.32,0.39-2.75-0.21-4.01c-0.73-1.52-2-2.67-3.59-3.22 c-1.59-0.56-3.29-0.47-4.81,0.26c-1,0.48-1.86,1.15-2.56,1.99c-0.7,0.84-1.22,1.84-1.5,2.89c-0.52,1.92-0.4,3.92,0.35,5.77 C169.13,39.91,170.47,41.56,172.25,42.81z M204.19,18.01c0.89-1.16,2.11-1.74,3.63-1.74c1.53,0,2.75,0.59,3.63,1.74 c0.82,1.07,1.32,2.58,1.44,4.37c0.12,1.86-0.17,3.91-0.84,5.91c-0.87,2.61-2.33,5-4.23,6.95c-1.9-1.95-3.36-4.34-4.23-6.95 c-0.67-2.01-0.96-4.05-0.84-5.91C202.87,20.59,203.37,19.08,204.19,18.01z"></path> <path class="st0" d="M207.08,161.75c0.48-1.95,0.37-4.07-0.34-6.13l0,0c-1.47-4.32-5.3-8.47-10.77-11.68 c-4.94-2.9-10.7-4.77-16.24-5.27c-1.36-0.12-2.95-0.23-4.54-0.13c-0.39-1.54-0.99-3.01-1.53-4.28 c-2.19-5.12-5.75-10.02-10.03-13.82c-4.75-4.21-9.87-6.57-14.44-6.64c-2.19-0.03-4.23,0.51-5.93,1.57 c-1.7,1.06-2.97,2.6-3.68,4.46c-0.39,1.01-0.56,2.13-0.48,3.22c0.07,1.1,0.38,2.15,0.9,3.12c0.8,1.48,2.13,2.56,3.74,3.04 c1.61,0.48,3.32,0.3,4.8-0.5c1.23-0.67,2.13-1.77,2.53-3.12c0.4-1.34,0.25-2.76-0.42-3.99c-0.56-1.04-1.49-1.79-2.62-2.13 c-0.92-0.27-3.08-0.31-3.92,0.84c-0.56,0.77-0.39,1.86,0.38,2.42c0.77,0.56,1.86,0.39,2.42-0.38c0.2-0.28,0.31-0.6,0.33-0.93 c0.06,0.01,0.13,0.03,0.19,0.05c0.6,0.18,1.09,0.57,1.38,1.12c0.4,0.74,0.49,1.59,0.25,2.4c-0.24,0.81-0.78,1.48-1.52,1.88 c-0.99,0.54-2.13,0.65-3.2,0.33c-1.08-0.32-1.97-1.04-2.5-2.03c-0.38-0.71-0.6-1.47-0.66-2.26c-0.05-0.79,0.07-1.6,0.35-2.34 c0.55-1.45,1.51-2.61,2.83-3.43c1.35-0.84,3.04-1.28,4.8-1.26c4.06,0.06,8.71,2.23,13.08,6.11c1.67,1.48,3.25,3.17,4.68,5 c-0.25-0.15-0.5-0.29-0.76-0.43c-2.53-1.32-5.14-1.73-7.77-1.21c-1.74,0.35-3.32,1.13-4.57,2.28c-1.25,1.15-2.14,2.61-2.64,4.34 c-0.32,1.12-0.42,2.28-0.29,3.44c0.13,1.15,0.48,2.26,1.04,3.28c1.37,2.5,4.1,3.99,6.95,3.79c1.73-0.12,3.3-0.82,4.42-1.96 c1.31-1.33,1.93-3.24,1.67-5.1c-0.33-2.32-1.93-4.12-4.08-4.57c-0.96-0.21-1.99-0.12-2.89,0.23c-1.45,0.57-2.62,2.12-2.83,3.77 c-0.16,1.22,0.25,2.27,1.11,2.9c0.91,0.66,2.18,0.46,2.84-0.45c0.66-0.91,0.45-2.18-0.45-2.84c-0.33-0.24-0.73-0.37-1.13-0.39 c0.23-0.43,0.61-0.77,1.08-0.99c0.56-0.25,1.2-0.32,1.82-0.19c1.7,0.36,2.39,1.9,2.47,3.11c0.07,1.12-0.32,2.22-1.09,3.02 c-0.7,0.74-1.72,1.22-2.86,1.34c-2.14,0.24-4.19-0.81-5.21-2.69c-0.43-0.78-0.69-1.63-0.79-2.51c-0.1-0.89-0.02-1.77,0.22-2.63 c0.39-1.35,1.08-2.49,2.05-3.38c0.97-0.89,2.2-1.5,3.56-1.77c2.14-0.43,4.29-0.09,6.39,1.01c2.15,1.13,4.18,3.05,5.7,5.42 c0.98,1.51,1.73,3.21,2.2,4.94c-2.97,0.52-5.83,1.72-8.3,3.48c-1.95,1.39-3.57,3.07-4.71,4.88c-1.17,1.87-1.77,3.78-1.73,5.54 c0.05,2.11,1.01,3.91,2.77,5.19c1.76,1.28,3.77,1.64,5.79,1.03c1.69-0.5,3.33-1.66,4.74-3.35c1.36-1.63,2.46-3.7,3.18-5.98 c0.91-2.9,1.17-5.99,0.75-8.97c1.79-0.09,3.64,0.11,5.38,0.57c2.73,0.72,5.19,2.06,6.92,3.75c1.69,1.66,2.68,3.6,2.94,5.77 c0.16,1.38-0.04,2.74-0.58,3.93c-0.55,1.2-1.42,2.2-2.59,2.99c-0.74,0.5-1.56,0.84-2.43,1.02c-0.87,0.18-1.75,0.19-2.63,0.03 c-2.1-0.4-3.74-2.02-4.17-4.13c-0.23-1.12-0.09-2.24,0.4-3.14c0.53-0.98,1.45-1.7,2.54-1.97c1.18-0.3,2.86-0.11,3.72,1.39 c0.32,0.55,0.45,1.18,0.38,1.79c-0.06,0.52-0.27,0.98-0.61,1.34c-0.14-0.38-0.38-0.71-0.72-0.95c-0.44-0.32-0.98-0.45-1.51-0.36 c-0.54,0.08-1.01,0.37-1.33,0.81c-0.66,0.91-0.45,2.18,0.45,2.84c0.86,0.63,1.99,0.68,3.1,0.16c1.5-0.71,2.62-2.29,2.71-3.85 c0.06-0.97-0.18-1.97-0.67-2.82c-1.1-1.9-3.3-2.87-5.61-2.46c-1.85,0.33-3.47,1.51-4.34,3.16c-0.74,1.41-0.92,3.12-0.5,4.81 c0.69,2.78,2.95,4.92,5.76,5.44c1.15,0.21,2.3,0.2,3.44-0.03c1.14-0.23,2.21-0.69,3.18-1.34c1.49-1.01,2.61-2.3,3.31-3.85 c0.71-1.54,0.97-3.29,0.76-5.05c-0.31-2.66-1.51-5.02-3.55-7.02c-0.21-0.2-0.42-0.4-0.64-0.59c2.18,0.79,4.28,1.77,6.2,2.9 c5.04,2.96,8.54,6.71,9.86,10.56c0.56,1.65,0.67,3.41,0.29,4.95c-0.37,1.51-1.18,2.78-2.39,3.75c-0.62,0.5-1.35,0.87-2.11,1.06 c-0.77,0.19-1.57,0.22-2.36,0.07c-1.1-0.2-2.06-0.82-2.7-1.75c-0.64-0.93-0.88-2.04-0.67-3.15c0.15-0.83,0.62-1.55,1.31-2.03 c0.69-0.48,1.53-0.66,2.36-0.51c0.61,0.11,1.14,0.46,1.49,0.97c0.04,0.05,0.07,0.11,0.1,0.16c-0.31,0.12-0.58,0.32-0.78,0.6 c-0.27,0.37-0.38,0.83-0.31,1.29c0.07,0.46,0.32,0.86,0.69,1.14c0.37,0.27,0.83,0.38,1.29,0.31c0.46-0.07,0.86-0.32,1.13-0.69 c0.84-1.15,0.14-3.2-0.4-3.99c-0.67-0.97-1.67-1.62-2.83-1.83c-1.38-0.25-2.77,0.04-3.93,0.84c-1.15,0.8-1.93,1.99-2.18,3.37 c-0.31,1.65,0.05,3.33,1.01,4.71c0.95,1.39,2.39,2.32,4.05,2.62c0.46,0.09,0.93,0.13,1.39,0.13c0.62,0,1.24-0.08,1.86-0.23 c1.06-0.27,2.07-0.77,2.91-1.46C205.53,165.37,206.6,163.68,207.08,161.75z M170.06,154.21c-1.15,1.38-2.44,2.31-3.73,2.69 c-1.4,0.42-2.73,0.17-3.97-0.73c-1.23-0.9-1.88-2.09-1.91-3.55c-0.03-1.34,0.45-2.86,1.41-4.38c0.99-1.57,2.43-3.06,4.15-4.29 c2.24-1.6,4.82-2.68,7.51-3.14c0.39,2.69,0.17,5.48-0.66,8.11v0C172.22,150.96,171.25,152.78,170.06,154.21z"></path> <path class="st0" d="M283.98,117.78L283.98,117.78c-0.21-0.87-0.59-1.65-1.12-2.32c-0.55-0.7-1.28-1.31-2.16-1.79l-0.52-0.28 l-0.51,0.3c-0.69,0.4-1.29,0.65-1.88,0.81c-0.59,0.15-1.19,0.21-1.91,0.19c-0.47-0.01-0.88,0.28-1.03,0.72 c-0.14,0.45,0.02,0.93,0.41,1.19c0.59,0.4,1.04,0.8,1.43,1.27c0.39,0.47,0.73,1.05,1.05,1.76l0.24,0.54l0.59,0.07 c0.34,0.04,0.67,0.06,1,0.06c0.63,0,1.24-0.08,1.81-0.24c0.82-0.23,1.59-0.64,2.27-1.22l0.49-0.42L283.98,117.78z M281.74,117.63 c-0.3,0.18-0.61,0.32-0.94,0.41c-0.43,0.12-0.91,0.18-1.41,0.16c-0.32-0.63-0.67-1.18-1.08-1.67c0-0.01-0.01-0.01-0.01-0.02 c0.01,0,0.01,0,0.02,0c0.61-0.16,1.22-0.4,1.86-0.72c0.42,0.28,0.77,0.6,1.05,0.96C281.43,117.01,281.6,117.31,281.74,117.63z"></path> <path class="st0" d="M209.6,166.6L209.6,166.6c-0.33-0.51-0.57-1.07-0.77-1.75l-0.11-0.39h-0.1c-0.19-0.23-0.48-0.37-0.8-0.37 c-0.47,0.01-0.87,0.31-1,0.76c-0.2,0.69-0.44,1.24-0.77,1.75c-0.33,0.52-0.76,1.01-1.35,1.54l-0.44,0.4l0.11,0.58 c0.19,0.99,0.54,1.87,1.04,2.61c0.48,0.71,1.11,1.31,1.86,1.78l0.55,0.34l0.55-0.34c0.75-0.47,1.38-1.07,1.86-1.78 c0.5-0.74,0.85-1.62,1.04-2.62l0.11-0.58l-0.44-0.39C210.35,167.61,209.93,167.12,209.6,166.6z M208.5,170.56 c-0.19,0.29-0.42,0.54-0.68,0.77c-0.26-0.23-0.49-0.48-0.68-0.77c-0.25-0.37-0.45-0.81-0.59-1.3c0.51-0.5,0.92-1.01,1.26-1.54 c0-0.01,0.01-0.01,0.01-0.02c0,0.01,0.01,0.01,0.01,0.02c0.34,0.54,0.75,1.04,1.26,1.54C208.95,169.76,208.75,170.19,208.5,170.56 L208.5,170.56z"></path> <path class="st0" d="M140.38,116.58c0.39-0.26,0.56-0.74,0.41-1.19c-0.15-0.45-0.56-0.74-1.03-0.72c-0.71,0.02-1.32-0.04-1.9-0.19 c-0.6-0.16-1.21-0.42-1.88-0.81l-0.51-0.3l-0.52,0.29c-0.89,0.49-1.61,1.09-2.16,1.79c-0.53,0.67-0.91,1.46-1.12,2.32l-0.16,0.63 l0.5,0.42c0.68,0.57,1.44,0.98,2.27,1.22c0.57,0.16,1.17,0.24,1.81,0.24c0.33,0,0.66-0.02,1-0.06l0.58-0.08l0.24-0.54 c0.32-0.71,0.66-1.29,1.05-1.76C139.33,117.39,139.8,116.97,140.38,116.58z M137.35,116.5c0,0.01-0.01,0.01-0.01,0.02 c-0.4,0.49-0.76,1.04-1.08,1.67c-0.51,0.02-0.98-0.04-1.42-0.16c-0.33-0.09-0.64-0.23-0.94-0.41c0.13-0.32,0.31-0.61,0.52-0.88 c0.28-0.35,0.63-0.68,1.05-0.96c0.63,0.32,1.24,0.56,1.85,0.72C137.34,116.5,137.35,116.5,137.35,116.5z"></path> <path class="st0" d="M160.9,35.08l0.58,0.06c0.78,0.08,1.42,0.22,2,0.45c0.56,0.22,1.09,0.53,1.65,0.96l0.15,0.11h0.04 c0.15,0.07,0.3,0.11,0.46,0.11c0.22,0,0.43-0.07,0.62-0.2c0.38-0.28,0.53-0.76,0.37-1.2c-0.24-0.66-0.37-1.26-0.41-1.86 c-0.04-0.61,0.02-1.28,0.19-2.04l0.12-0.58l-0.43-0.4c-0.74-0.69-1.54-1.2-2.37-1.5c-0.8-0.29-1.66-0.41-2.55-0.35l-0.65,0.05 l-0.25,0.6c-0.34,0.82-0.49,1.68-0.46,2.54c0.03,0.89,0.27,1.81,0.7,2.73L160.9,35.08z M164.27,33.64c0,0.01,0,0.01,0,0.02 c-0.01,0-0.01-0.01-0.02-0.01c-0.59-0.23-1.22-0.4-1.92-0.51c-0.17-0.48-0.27-0.95-0.29-1.4c-0.01-0.34,0.02-0.68,0.1-1.02 c0.35,0.03,0.68,0.1,1,0.22c0.42,0.15,0.83,0.39,1.24,0.7C164.27,32.36,164.23,33.01,164.27,33.64z"></path> <path class="st0" d="M137.74,78.36c1.98,0.79,4.28,1.2,6.67,1.18c3.04-0.03,6.05-0.74,8.76-2.06c0.64,1.67,1.02,3.49,1.12,5.29 c0.16,2.82-0.35,5.56-1.43,7.74c-1.05,2.12-2.59,3.66-4.58,4.58c-1.26,0.58-2.62,0.81-3.92,0.66c-1.31-0.15-2.54-0.67-3.65-1.54 c-0.7-0.55-1.28-1.22-1.72-1.99c-0.44-0.77-0.72-1.61-0.84-2.49c-0.27-2.12,0.76-4.18,2.64-5.24c1-0.57,2.1-0.78,3.11-0.59 c1.09,0.2,2.06,0.86,2.66,1.8c0.65,1.03,0.99,2.68-0.17,3.97c-0.42,0.47-0.99,0.8-1.59,0.92c-0.51,0.1-1.02,0.04-1.46-0.16 c0.31-0.24,0.56-0.58,0.69-0.97c0.34-1.07-0.24-2.21-1.3-2.56c-1.06-0.35-2.21,0.24-2.56,1.3c-0.33,1.01-0.03,2.11,0.81,3 c1.14,1.21,2.99,1.78,4.5,1.39c0.94-0.25,1.81-0.78,2.47-1.51c1.47-1.63,1.71-4.02,0.61-6.09c-0.88-1.66-2.51-2.84-4.35-3.15 c-1.57-0.27-3.25,0.09-4.73,1.01c-2.43,1.52-3.76,4.33-3.4,7.16c0.15,1.16,0.52,2.26,1.09,3.26c0.57,1.01,1.33,1.89,2.26,2.61 c1.42,1.11,2.99,1.77,4.69,1.96c1.68,0.19,3.42-0.1,5.04-0.84c2.43-1.12,4.31-2.99,5.58-5.55c0.13-0.26,0.25-0.52,0.36-0.79 c-0.08,2.31-0.36,4.61-0.84,6.79c-1.26,5.71-3.74,10.2-6.99,12.64c-1.4,1.05-3.04,1.69-4.62,1.8c-1.56,0.11-3-0.26-4.31-1.11 c-0.67-0.43-1.24-1.02-1.66-1.68c-0.42-0.68-0.69-1.42-0.8-2.22c-0.15-1.11,0.15-2.22,0.83-3.11c0.69-0.89,1.67-1.47,2.79-1.61 c0.84-0.11,1.67,0.11,2.34,0.63c0.67,0.51,1.1,1.25,1.21,2.09c0.08,0.61-0.08,1.22-0.46,1.71c-0.04,0.05-0.08,0.1-0.12,0.15 c-0.21-0.26-0.49-0.45-0.81-0.56c-0.91-0.29-1.89,0.21-2.18,1.11c-0.29,0.91,0.2,1.89,1.11,2.18c1.36,0.44,3.09-0.86,3.67-1.62 c0.71-0.93,1.02-2.09,0.87-3.26c-0.18-1.39-0.9-2.62-2.01-3.48c-1.11-0.85-2.49-1.22-3.88-1.03c-1.67,0.22-3.15,1.08-4.17,2.41 c-1.02,1.34-1.46,2.99-1.24,4.66c0.15,1.1,0.52,2.13,1.1,3.06c0.58,0.92,1.37,1.73,2.28,2.32c1.48,0.97,3.17,1.47,4.93,1.47 c0.22,0,0.44-0.01,0.67-0.02c2-0.14,3.98-0.91,5.73-2.21c3.65-2.74,6.41-7.66,7.78-13.86c1.23-5.59,1.23-11.65-0.01-17.08 c-0.3-1.34-0.69-2.88-1.28-4.36c1.34-0.85,2.56-1.87,3.6-2.77c4.19-3.66,7.76-8.57,10.04-13.82c2.54-5.82,3.2-11.42,1.85-15.78 c-0.64-2.08-1.79-3.86-3.33-5.16c-1.53-1.29-3.39-2.02-5.38-2.12c-1.09-0.05-2.2,0.13-3.21,0.54c-1.02,0.41-1.92,1.02-2.69,1.82 c-1.16,1.22-1.77,2.82-1.73,4.5c0.04,1.68,0.74,3.25,1.96,4.41c1.02,0.97,2.36,1.48,3.75,1.44c1.4-0.04,2.71-0.61,3.67-1.63 c0.81-0.85,1.24-1.97,1.21-3.15c-0.02-0.96-0.66-3.02-2.02-3.46c-0.44-0.14-0.91-0.11-1.32,0.1c-0.41,0.21-0.72,0.57-0.86,1.01 c-0.14,0.44-0.11,0.91,0.1,1.32s0.57,0.72,1.01,0.86c0.32,0.1,0.66,0.11,0.98,0.03c0.01,0.06,0.01,0.13,0.01,0.19 c0.02,0.62-0.21,1.21-0.64,1.65c-0.58,0.61-1.37,0.96-2.21,0.98c-0.85,0.02-1.65-0.29-2.26-0.87c-0.81-0.77-1.28-1.82-1.31-2.95 c-0.03-1.12,0.38-2.19,1.16-3.01c0.55-0.58,1.21-1.03,1.95-1.32c0.73-0.29,1.53-0.43,2.33-0.39c1.55,0.08,2.95,0.63,4.14,1.63 c1.21,1.02,2.16,2.5,2.68,4.17c1.2,3.88,0.57,8.97-1.77,14.33c-0.89,2.05-2.02,4.07-3.31,5.99c0.07-0.29,0.12-0.57,0.17-0.86 c0.48-2.81,0.05-5.43-1.25-7.76c-0.87-1.55-2.1-2.81-3.58-3.64c-1.48-0.84-3.14-1.23-4.95-1.17c-1.17,0.04-2.3,0.3-3.36,0.78 c-1.06,0.48-2,1.15-2.8,2c-1.96,2.07-2.53,5.13-1.46,7.79c0.65,1.61,1.8,2.89,3.23,3.6c1.67,0.83,3.68,0.83,5.37,0.01 c2.11-1.03,3.32-3.11,3.09-5.29c-0.1-0.98-0.5-1.92-1.11-2.67c-0.99-1.21-2.82-1.83-4.45-1.52c-1.21,0.23-2.09,0.94-2.42,1.95 c-0.34,1.07,0.24,2.21,1.3,2.56c0.52,0.17,1.07,0.12,1.55-0.12c0.48-0.25,0.84-0.67,1.01-1.18c0.13-0.39,0.13-0.81,0.02-1.19 c0.48,0.09,0.92,0.34,1.28,0.73c0.41,0.45,0.68,1.05,0.74,1.68c0.18,1.72-1.07,2.86-2.2,3.31c-1.04,0.42-2.21,0.38-3.21-0.1 c-0.92-0.44-1.69-1.26-2.16-2.31c-0.89-1.96-0.52-4.23,0.94-5.78c0.61-0.65,1.33-1.16,2.14-1.53c0.81-0.37,1.67-0.57,2.57-0.6 c1.4-0.05,2.7,0.25,3.85,0.9c1.14,0.64,2.1,1.63,2.78,2.84c1.07,1.91,1.41,4.06,1.01,6.39c-0.4,2.39-1.61,4.91-3.39,7.1 c-1.14,1.4-2.52,2.64-4.02,3.62c-1.41-2.66-3.43-5.01-5.88-6.82c-1.92-1.42-4.03-2.45-6.09-2.97c-2.14-0.54-4.14-0.52-5.8,0.07 c-2,0.7-3.41,2.17-4.08,4.24c-0.67,2.07-0.39,4.09,0.81,5.83C134.08,76.34,135.69,77.54,137.74,78.36z M141.65,66.78 c1.8,0.46,3.66,1.36,5.36,2.62c2.21,1.64,4.04,3.76,5.3,6.17c-2.44,1.21-5.17,1.85-7.92,1.88c-2.12,0.02-4.15-0.34-5.88-1.03 c-1.66-0.67-2.94-1.6-3.71-2.71c-0.83-1.2-1.01-2.54-0.54-3.99v0c0.47-1.45,1.41-2.43,2.78-2.92c0.64-0.23,1.37-0.34,2.15-0.34 C139.96,66.45,140.79,66.56,141.65,66.78z"></path> </g> <path class="st1" d="M178.14,115.46v-1.01c0,0,1.19-0.07,1.76-0.51c1.81-1.4,1.55-3.32,1.55-5.76c0.01-13.77,0.03-42.16,0.03-42.16 l6.46-0.14c1.36-0.03,2.47,1.07,2.47,2.42c-0.01,5.28-0.04,17.71-0.04,24.43c0,2.57,0.16,5.14,0.1,7.71 c-0.15,5.95-1.48,9.82-6.89,13.54c3.13,0,11.75,0.41,14.32-0.16c1.47-0.32,2.07-0.91,2.98-2.33c1.04-1.63,1.47-3.65,2.17-5.49 c0.58-1.51,1.08-3.05,1.76-4.51c2.8-6.02,7.8-8.4,14.27-6.86c0,0.11,0.04,0.3,0,0.32c-2.4,1.03-3.58,3.02-4.36,5.37 c-0.75,2.27-1.53,4.54-2.37,6.78c-2.47,6.52-5.78,8.36-12.73,8.37C194.05,115.46,178.14,115.46,178.14,115.46z"></path> <path class="st1" d="M191.5,65.98c-0.07-0.02-0.07-0.13,0.01-0.13c3.42,0.09,6.73,0.61,9.85,2.07c6.88,3.22,10.35,9.67,8.94,16.98 c-0.75,3.88-3.04,6.77-6.44,8.81c-2.91,1.75-6.7,2.7-10.58,2.62c-0.17,0-0.19-0.25-0.03-0.29c4.42-1.23,6.07-4.68,6.39-8.91 c0.27-3.46,0.34-6.99-0.02-10.43C199.09,71.66,196.85,67.65,191.5,65.98z"></path> <path class="st1" d="M216.92,80.21l-3.81,11.84c0,0-1.11,0.19-2.58,0.66c1.6-3.43,6.89-21.44,8.94-26.12 c0.12-0.28,0.55-0.31,0.66-0.02c6.07,16.6,12.37,32.81,18.1,45.29c0,0,1.15,2.46,3.83,2.41l0.1,1.22l-9.38-0.1 c-1.21,0.02-2.51-0.72-2.98-1.67C227.27,108.6,216.92,80.21,216.92,80.21z"></path> <g> <path class="st1" d="M34.26,193.6c-0.04,0-0.09,0-0.13,0c-11.03,0.06-19.95,4.96-19.95,12.49c0,4.14,3.29,7.51,7.34,7.51 c2.87,0,5.09-1.38,6.26-3.87l0.15-0.33l-0.33-0.15c-2.9-1.35-4.7-2.7-4.7-5.26c0-5.13,2.96-7.76,8.78-7.82 c3.5-0.02,8.3,1.09,10.48,3.26c2.22,2.2,3.4,5.28,3.4,8.9c0,7.35-4.34,11.85-11.61,12.04l-7.71,0l0.28-6.73l-0.57,0.39 c-1.29,0.88-3.87,1.58-6.3,1.23l0.09,13.28c0,7.23-1.15,7.02-2.13,7.02h-0.36v1.27h11.18v-1.27h-0.36c-1.25,0-1.82,0-1.82-7.24 l-0.1-5.74h8.82c4.83,0,9.27-1.58,12.49-4.44c3-2.66,4.72-6.24,4.73-9.82c0.01-3.32-1.52-6.75-4.2-9.42 C44.56,195.48,39.69,193.6,34.26,193.6z"></path> <path class="st1" d="M96.64,226.92c-0.33,4.89-2.66,7.69-6.39,7.69c-1.51,0-3.37-0.45-6.47-5.81c-1.17-2.03-2.76-4.39-4.86-5.28 c9.41-1.06,15.01-5.19,15.01-11.15c0-6.89-5.8-11.51-14.44-11.51c-6.77,0-12.89,3.94-15.76,9.96v-3.19c0-3.12-0.8-5.6-2.25-6.98 l-0.1-0.1h-6.7l0.14,1.36h0.32c1.7,0,2.45,0.76,2.45,8.01v18.13c0,7.13-0.45,7.45-2.01,7.45h-0.35v1.26l9.92,0.01v-1.24 l-0.33-0.02c-1.09-0.06-1.12-0.87-1.09-4.29c0.01-0.54,0.01-1.13,0.01-1.78V219c0-8.57,6.47-15.55,14.43-15.55 c5.88,0,8.99,3.09,8.99,8.92c0,5.76-4.62,9.06-12.69,9.06H67v1l3.57,0.61c3,0.51,4.74,3.52,6.59,6.72c2.34,4.06,5,8.66,10.95,8.66 c6.18,0,9.59-4.07,9.59-11.47v-0.35h-1.03L96.64,226.92z"></path> <path class="st1" d="M122.25,200.86c-10.5,0-17.56,4.66-17.56,11.6c0,4.08,3.34,7.4,7.43,7.4c3.03,0,4.86-1.27,6.31-4.39 l0.15-0.32l-0.32-0.15c-3.2-1.49-5.04-4.13-5.04-7.23c0-2.79,3.57-4.66,8.89-4.66c4.82,0,8.54,1.5,11.07,4.46 c2.5,2.94,3.77,7.23,3.77,12.76c0,9.3-5.06,14.22-14.64,14.22c-9,0-14.18-4.85-14.96-14.04l-0.01-0.17l-0.15-0.09 c-2.7-1.7-4.3-4.61-4.3-7.78c0-0.39,0.02-0.79,0.06-1.17l0.18-1.89l-0.85,1.7c-1.19,2.38-1.79,5.04-1.79,7.9 c0,10.85,8.69,18.14,21.62,18.14c12.93,0,21.62-7.29,21.62-18.14C143.73,208.15,135.1,200.86,122.25,200.86z"></path> <path class="st1" d="M229.78,212.3l-0.32,0.15l0.15,0.32c0.97,2.09,3.44,4.3,6.11,4.3c3.37,0,6.11-2.75,6.11-6.13 c0-6.25-7.42-10.45-18.46-10.45c-12.72,0-21.27,7.46-21.27,18.55c0,10.6,9.05,17.72,22.53,17.72c7.52,0,14-4.14,16.51-10.55 l0.13-0.32l-2.32-0.97l-0.13,0.33c-2.5,6.07-8.82,8.85-13.97,8.92c-10.35,0-15.83-5.62-15.83-16.24c0-9.71,4.85-14.85,14.01-14.85 c5.48,0,9.16,2.16,9.16,5.37C232.18,210.39,231.48,211.5,229.78,212.3z"></path> <path class="st1" d="M245.47,211.4c0,4.6,4.05,8.34,9.03,8.34c4.04,0,7.32-2.73,7.32-6.08v-0.35h-0.35 c-3.56,0-5.95-1.92-5.95-4.77c0-4.32,3.4-5.23,6.25-5.23c1.1,0,2.16-0.03,3.19-0.06c1.85-0.06,3.61-0.11,5.28,0.03v24.79 c0,7.46-1.78,7.46-2.45,7.46h-0.35v1.26h11.76v-1.27l-0.36,0.01c-0.51,0.01-0.85-0.1-1.15-0.39c-0.87-0.85-1.3-3.16-1.3-7.07 v-24.75h6.34c6.77,0,9.15,0.1,9.87,2.04l0.46,1.5h1.42v-6.38h-34.3C250.7,200.46,245.47,204.35,245.47,211.4z"></path> <path class="st1" d="M350.79,195c-3.54,0-6.42,2.66-6.42,5.93c0,2.42,1.56,3.93,2.22,4.46l0.26,0.21l0.22-0.25 c0.88-1.01,2.09-2.39,4.06-2.39c1.9,0,3.83,1.29,3.83,3.76c0,1.66-0.71,3.37-1.39,4.8l-11.05,19.84 c-0.14-0.41-0.34-0.91-0.57-1.37l-12.2-24.55l-0.01-0.03c-1.01-2.03-2.34-4.42-3.75-4.89l-0.05-0.02h-9.96v1.01l2.47,0.32 c1.91,0.24,3.51,1.77,5.03,4.83l14.76,30.29l1.69,4.37l15.91-28.69c1.65-2.98,2.56-6.24,2.56-9.2 C358.4,198.16,354.53,195,350.79,195z"></path> <path class="st1" d="M168.57,223.52c-0.92,1.63-1.56,3.42-2.18,5.15c-0.22,0.63-0.46,1.27-0.7,1.9l-0.04,0.11 c-0.87,2.28-1.7,4.43-4.67,5.34l-1.29,0.39l1.31,0.29c1.36,0.3,2.64,0.45,3.84,0.45c4.49,0,7.85-2.08,9.83-6.13 c0.72-1.48,1.28-3.06,1.81-4.59c0.29-0.83,0.59-1.68,0.91-2.51c0.8-2.06,1.56-4,4.36-4.77l1.4-0.38l-1.42-0.3 C175.52,217.15,171.22,218.8,168.57,223.52z"></path> <path class="st1" d="M397.64,228.69l-1.05,0.13l-0.43,1.69c-0.99,2.44-4.86,3.68-11.52,3.68h-15.36c0.94-1.38,1.14-3.41,1.14-6.13 v-7.79l1.21-0.69c2.04-1.18,4.04-1.8,5.78-1.8c1.87,0,4.49,0.99,4.49,3.19c0,1.07-0.73,2.39-2.05,3.72l-0.25,0.25l0.25,0.25 c1.19,1.18,2.74,1.86,4.24,1.86c3.08,0,5.59-2.49,5.59-5.55c0-4.49-3.49-7.5-8.68-7.5c-3.11,0-6.7,1.13-10.38,3.25l-0.19,0.11 v-7.31l0-0.47h0c-0.03-3.23-0.39-5.29-1.15-6.51h15.38c6.66,0,10.54,1.24,11.52,3.68l0.43,1.69l1.05,0.13v-5.59 c0.01-0.1,0.04-0.71,0-1.34c-0.04-0.53-0.52-1.17-2.62-1.17h-33.56v1.26h0.35c1.56,0,2.45,3.03,2.45,8.3v18.02 c0,7.46-1.72,7.46-2.45,7.46h-0.35v1.26h33.56c2.09,0,2.58-0.64,2.62-1.17c0.04-0.62,0.01-1.24,0-1.34V228.69z"></path> <path class="st1" d="M299.86,201.66h0.35c1.19,0,2.45,0.64,2.45,8.29v18.11c0,6.94-0.97,7.46-2.45,7.46h-0.35v1.26h11.75v-1.26 h-0.35c-1.48,0-2.45-0.52-2.45-7.46v-18.11c0-7.65,1.27-8.29,2.45-8.29h0.35v-1.29h-11.75V201.66z"></path> <path class="st1" d="M203.6,235.54c-1.88,0-2.91-2.33-2.93-2.37c-2.86-5.85-5.63-12.44-8.3-18.82c-2.89-6.9-5.89-14.03-9.09-20.49 c-0.1-0.2-0.31-0.33-0.55-0.32c-0.23,0.01-0.43,0.15-0.52,0.36c-1.56,3.96-6.88,16.75-8.24,19.95l-0.31,0.74l0.76-0.27 c1.1-0.39,1.84-0.35,1.85-0.35l0.26,0.02l3.51-8.82c2.06,4.48,5.07,11.69,7.74,18.1c2.22,5.33,4.14,9.93,5.08,11.9 c0.45,0.95,1.63,1.67,2.71,1.67c0.02,0,0.05,0,0.07,0l8.39-0.07v-1.26l-0.36,0.01C203.64,235.54,203.62,235.54,203.6,235.54z"></path> </g> <g> <path class="st1" d="M134.97,256.18c0.54-0.56,0.85-1.3,0.85-2.09c0-1.8-1.25-3.01-3.1-3.01h-4.4v12.13h4.4 c2.37,0,3.95-1.55,3.95-3.86C136.67,258.08,136.03,256.89,134.97,256.18z M132.72,261.61h-2.75v-4.52h2.75 c1.37,0,2.26,0.89,2.26,2.26C134.98,260.72,134.09,261.61,132.72,261.61z M132.72,255.49h-2.75v-2.82h2.75 c0.86,0,1.41,0.55,1.41,1.41C134.13,254.94,133.57,255.49,132.72,255.49z"></path> <polygon class="st1" points="146.45,257.74 143.19,251.08 141.39,251.08 145.54,259.56 143.76,263.21 145.56,263.21 151.5,251.08 149.71,251.08 "></polygon> <path class="st1" d="M170.98,251.08h-4.05v12.13h1.65v-4.41h2.41c2.37,0,3.95-1.55,3.95-3.86 C174.94,252.63,173.35,251.08,170.98,251.08z M170.98,257.19h-2.41v-4.52h2.41c1.37,0,2.26,0.89,2.26,2.26 C173.24,256.31,172.35,257.19,170.98,257.19z"></path> <path class="st1" d="M188.62,258.76c0,1.94-1.11,3.06-3.04,3.06c-1.95,0-3.08-1.11-3.08-3.06v-7.68h-1.65v7.68 c0,2.95,1.77,4.71,4.72,4.71c2.94,0,4.69-1.76,4.69-4.71v-7.68h-1.65V258.76z"></path> <path class="st1" d="M205.01,254.94c0-2.31-1.59-3.86-3.95-3.86h-4.05v12.13h1.65v-4.41h1.84l3.48,4.41h2.16l-3.64-4.63 C204.06,258.07,205.01,256.7,205.01,254.94z M198.65,252.68h2.41c1.37,0,2.26,0.89,2.26,2.26c0,1.37-0.89,2.26-2.26,2.26h-2.41 V252.68z"></path> <polygon class="st1" points="211.82,263.21 219.04,263.21 219.04,261.61 213.46,261.61 213.46,257.09 218.71,257.09 218.71,255.49 213.46,255.49 213.46,252.68 219.04,252.68 219.04,251.08 211.82,251.08 "></polygon> <polygon class="st1" points="237.39,251.08 235.75,251.08 235.75,263.21 242.77,263.21 242.77,261.61 237.39,261.61 "></polygon> <rect x="249.02" y="251.08" class="st1" width="1.65" height="12.13"></rect> <polygon class="st1" points="266.48,260.65 259.51,251.08 257.73,251.08 257.73,263.21 259.38,263.21 259.38,253.64 266.34,263.21 268.12,263.21 268.12,251.08 266.48,251.08 "></polygon> <polygon class="st1" points="282.41,252.68 282.41,251.08 275.19,251.08 275.19,263.21 282.41,263.21 282.41,261.61 276.83,261.61 276.83,257.09 282.08,257.09 282.08,255.49 276.83,255.49 276.83,252.68 "></polygon> </g> </g> </svg> 