<?xml version="1.0" encoding="UTF-8"?> <svg xmlns="http://www.w3.org/2000/svg" width="140.447" height="89" viewBox="0 0 140.447 89"><path d="M185.071,212.743H45.076a.226.226,0,0,1-.226-.226.231.231,0,0,1,.226-.226H185.071a.231.231,0,0,1,.226.226A.226.226,0,0,1,185.071,212.743Z" transform="translate(-44.85 -139.584)" fill="#d1d3d4"></path><path d="M60.44,100.409c-6.758,4.92-7.663,15.176-7.835,22.88-.172,7.242,1.444,14.158,2.956,21.223,1.476,6.911,7.083,10.682,13.778,12.221a94.061,94.061,0,0,0,30.927,1.457c10.107-1.113,10.369-11.071,9.356-19.223-.281-2.263-1.869-3.662-3.585-4.884a21.4,21.4,0,0,1-5.468-5.273c-4.793-6.939-5.069-15.185-8.265-22.735-2.526-5.979-8.147-10.143-14.669-9.935S64.934,97.141,60.44,100.409Z" transform="translate(-49.088 -76.002)" fill="#fff"></path><path d="M88.513,158.8a87.092,87.092,0,0,1-19.5-2.1c-9.826-2.263-13.008-8.007-13.95-12.411l-.317-1.485c-1.444-6.7-2.806-13.022-2.643-19.788.376-15.6,4.436-20.517,7.93-23.061l.131.186-.131-.186c4.757-3.458,11.424-4.119,17.322-4.309,6.364-.195,12.221,3.748,14.882,10.071a65.964,65.964,0,0,1,2.861,9.052c1.222,4.639,2.489,9.433,5.386,13.651a20.563,20.563,0,0,0,5.431,5.219c1.738,1.236,3.386,2.716,3.675,5.038.932,7.464.167,12.633-2.34,15.805a10.205,10.205,0,0,1-7.215,3.671,105.672,105.672,0,0,1-11.524.647ZM60.3,100.326c-6.491,4.721-7.55,14.615-7.744,22.7-.158,6.712,1.195,13.013,2.63,19.684l.321,1.485c.905,4.277,4.015,9.835,13.61,12.062a93.2,93.2,0,0,0,30.846,1.453,9.767,9.767,0,0,0,6.911-3.5c2.426-3.073,3.168-8.147,2.263-15.471-.272-2.159-1.838-3.549-3.49-4.725a21.01,21.01,0,0,1-5.522-5.327c-2.942-4.282-4.214-9.12-5.431-13.8a66.34,66.34,0,0,0-2.842-9c-2.6-6.151-8.274-10.007-14.452-9.795-5.825.19-12.411.837-17.068,4.223Z" transform="translate(-48.813 -75.729)" fill="#231f20"></path><path d="M83.985,142.891a32.68,32.68,0,0,1-3.621-.2,34.635,34.635,0,0,1-6.789-1.471,15.669,15.669,0,0,1-6.54-3.6A13.83,13.83,0,0,1,63.518,130a43.361,43.361,0,0,1,.557-13.606,13.837,13.837,0,0,1,6.762-9.532,23.4,23.4,0,0,1,8.876-2.793c3.711-.484,6.382-.086,8.405,1.249,3.3,2.182,4.246,6.377,4.924,10.487l1.154,6.975c.281,1.734.67,4.105,2.032,5.223a8.644,8.644,0,0,0,1.543.932,4.973,4.973,0,0,1,2.494,2.073,6.54,6.54,0,0,1,.272,5.11,8.528,8.528,0,0,1-3.49,3.381,25.474,25.474,0,0,1-13.063,3.39Zm-1.417-38.568a21.873,21.873,0,0,0-2.752.195,23.328,23.328,0,0,0-8.7,2.716,13.366,13.366,0,0,0-6.545,9.224,42.6,42.6,0,0,0-.557,13.474A13.211,13.211,0,0,0,67.4,137.3a15.232,15.232,0,0,0,6.337,3.49,33.639,33.639,0,0,0,6.676,1.448h0a26.178,26.178,0,0,0,16.426-3.123,8.19,8.19,0,0,0,3.309-3.168,6.038,6.038,0,0,0-.263-4.712,4.543,4.543,0,0,0-2.295-1.874,8.978,8.978,0,0,1-1.625-.982c-1.5-1.227-1.9-3.7-2.2-5.5L92.617,115.9c-.661-4.01-1.575-8.1-4.725-10.179A9.175,9.175,0,0,0,82.568,104.324Z" transform="translate(-54.891 -80.238)" fill="#d1d3d4"></path><path d="M72.033,172.79a.231.231,0,0,1-.213-.14.226.226,0,0,1,.127-.294,10.1,10.1,0,0,1,4.924-.905.229.229,0,1,1-.068.453,9.8,9.8,0,0,0-4.685.878A.2.2,0,0,1,72.033,172.79Z" transform="translate(-59.604 -117.211)" fill="#d1d3d4"></path><path d="M270.116,100.409c6.767,4.92,7.649,15.176,7.835,22.88.172,7.242-1.444,14.158-2.956,21.223-1.476,6.911-7.083,10.682-13.778,12.221a94.061,94.061,0,0,1-30.927,1.457c-10.107-1.113-10.369-11.071-9.356-19.223.281-2.263,1.869-3.662,3.585-4.884a21.4,21.4,0,0,0,5.468-5.273c4.793-6.939,5.069-15.185,8.265-22.735,2.526-5.979,8.147-10.143,14.669-9.935S265.622,97.141,270.116,100.409Z" transform="translate(-141.021 -76.002)" fill="#fff"></path><path d="M241.5,158.807a105.675,105.675,0,0,1-11.515-.638,10.205,10.205,0,0,1-7.215-3.671c-2.507-3.168-3.272-8.342-2.34-15.805.29-2.336,1.937-3.8,3.675-5.038a21.6,21.6,0,0,0,5.431-5.219c2.9-4.218,4.164-9.012,5.386-13.651a65.965,65.965,0,0,1,2.861-9.052c2.675-6.337,8.532-10.261,14.882-10.071,5.884.19,12.565.851,17.322,4.309,6.653,4.838,7.731,14.864,7.93,23.084.163,6.767-1.2,13.09-2.643,19.788l-.317,1.485c-.941,4.4-4.123,10.13-13.95,12.411a87.094,87.094,0,0,1-19.508,2.068ZM252.16,96.1c-6,0-11.456,3.807-13.99,9.8a66.343,66.343,0,0,0-2.842,9c-1.231,4.676-2.5,9.505-5.431,13.8a21.224,21.224,0,0,1-5.522,5.327c-1.652,1.177-3.218,2.566-3.49,4.725-.905,7.337-.181,12.4,2.263,15.471a9.766,9.766,0,0,0,6.911,3.5,93.2,93.2,0,0,0,30.846-1.453c9.6-2.227,12.673-7.785,13.61-12.062l.321-1.485c1.435-6.672,2.788-12.972,2.63-19.684-.371-15.389-4.332-20.223-7.744-22.7h0c-4.657-3.386-11.243-4.033-17.068-4.223Z" transform="translate(-140.748 -75.741)" fill="#231f20"></path><path d="M270.319,142.891a25.473,25.473,0,0,1-13.1-3.39,8.5,8.5,0,0,1-3.49-3.381,6.539,6.539,0,0,1,.272-5.11,4.973,4.973,0,0,1,2.494-2.073A8.643,8.643,0,0,0,258.04,128c1.358-1.118,1.752-3.49,2.032-5.223l1.154-6.975c.679-4.11,1.62-8.306,4.925-10.487,2.023-1.335,4.694-1.734,8.405-1.249a22.933,22.933,0,0,1,8.876,2.793,13.836,13.836,0,0,1,6.762,9.532A43.915,43.915,0,0,1,290.751,130a13.652,13.652,0,0,1-3.517,7.618,15.669,15.669,0,0,1-6.54,3.6,34.634,34.634,0,0,1-6.789,1.471h0A32.674,32.674,0,0,1,270.319,142.891Zm1.417-38.568a9.544,9.544,0,0,0-5.345,1.358c-3.168,2.078-4.074,6.169-4.725,10.179l-1.154,6.975c-.294,1.81-.7,4.277-2.2,5.5a8.977,8.977,0,0,1-1.625.982A4.519,4.519,0,0,0,254.4,131.2a6.039,6.039,0,0,0-.263,4.712,7.957,7.957,0,0,0,3.309,3.168,26.293,26.293,0,0,0,16.426,3.123h0a33.638,33.638,0,0,0,6.676-1.448,14.943,14.943,0,0,0,6.337-3.49,13.211,13.211,0,0,0,3.39-7.364,42.676,42.676,0,0,0-.557-13.452,13.366,13.366,0,0,0-6.545-9.224,22.921,22.921,0,0,0-8.7-2.716A21.812,21.812,0,0,0,271.736,104.324Z" transform="translate(-158.966 -80.238)" fill="#d1d3d4"></path><path d="M321.6,172.8a.2.2,0,0,1-.086,0,9.778,9.778,0,0,0-4.685-.878.229.229,0,1,1-.068-.453,10.165,10.165,0,0,1,4.924.905.226.226,0,0,1,.127.294A.231.231,0,0,1,321.6,172.8Z" transform="translate(-193.584 -117.223)" fill="#d1d3d4"></path><path d="M228.21,102.466l-14.031-7.695a9.216,9.216,0,0,0-1.679-3.028c-.869-.711-.33,1.81-.33,1.81s-4.8-3.064-5.291-2.236-1.313,4.2.326,5.513a9.691,9.691,0,0,0,4.132,1.435c7.5,6.042,18.073,12.719,18.073,12.719" transform="translate(-133.187 -73.289)" fill="#fff"></path><path d="M229.14,110.939a.226.226,0,0,1-.118-.036c-.109-.068-10.632-6.721-18.05-12.673a9.516,9.516,0,0,1-4.178-1.476c-1.715-1.358-.955-4.852-.38-5.807a.5.5,0,0,1,.33-.231c.905-.217,3.707,1.426,4.838,2.118-.1-.656-.149-1.426.181-1.629.122-.072.321-.113.607.118a8.6,8.6,0,0,1,1.711,3.028l13.968,7.695a.227.227,0,1,1-.217.4L213.8,94.749a.2.2,0,0,1-.1-.122,8.727,8.727,0,0,0-1.6-2.906l-.091-.063a4.386,4.386,0,0,0,.127,1.638.222.222,0,0,1-.091.235.235.235,0,0,1-.253,0c-1.543-.987-4.255-2.494-4.929-2.331h-.045c-.507.842-1.213,4.037.272,5.219a9.346,9.346,0,0,0,4.015,1.39.244.244,0,0,1,.118.05c7.4,5.966,17.951,12.637,18.055,12.7a.231.231,0,0,1,.072.312A.235.235,0,0,1,229.14,110.939Z" transform="translate(-132.918 -73.026)" fill="#231f20"></path><path d="M235.051,212.41s1.018,11.623.6,12.375-10.388,2.263-10.569,1.2,4.879-3.168,4.879-3.168l-1.113-9.5" transform="translate(-143.504 -139.65)" fill="#fff"></path><path d="M226.311,226.312a5.669,5.669,0,0,1-.978-.063c-.294-.05-.693-.154-.751-.48-.186-1.109,3.485-2.756,4.861-3.331l-1.1-9.333a.228.228,0,0,1,.453-.054l1.113,9.5a.226.226,0,0,1-.14.235c-2.354.969-4.839,2.354-4.743,2.9,0,0,.131.145,1.1.172,2.906.1,8.677-1,9.052-1.453.272-.57-.244-7.808-.634-12.221a.227.227,0,1,1,.453-.041c.172,1.951,1,11.732.575,12.5S229.1,226.312,226.311,226.312Z" transform="translate(-143.228 -139.394)" fill="#231f20"></path><path d="M267.914,216.654s1.4,10.27.674,10.564-10.569.76-10.41-.1,5.015-2.512,5.015-2.512l-1.756-10.012" transform="translate(-161.621 -140.843)" fill="#fff"></path><path d="M261.793,227.574c-1.915,0-3.589-.113-3.979-.425a.358.358,0,0,1-.14-.344c.154-.905,3.621-2.164,4.979-2.625l-1.729-9.826a.226.226,0,0,1,.186-.258.222.222,0,0,1,.263.181l1.761,10.012a.231.231,0,0,1-.154.258c-2.186.738-4.585,1.81-4.843,2.263.272.154,1.566.349,4.979.272a39.3,39.3,0,0,0,5.069-.349c.312-.57-.149-5.667-.788-10.333a.231.231,0,0,1,.195-.258.222.222,0,0,1,.253.195c.652,4.766,1.272,10.505.539,10.8A38.444,38.444,0,0,1,261.793,227.574Z" transform="translate(-161.344 -140.57)" fill="#231f20"></path><path d="M239.182,161.661c-.24.824-2.34,22.4-2.34,22.4h-8.468s-3.9-21.671-2.616-27.021c.878-3.684,4.879-5.486,8.953-4.291,6.061-.24,12.289-1.014,12.289-1.014Z" transform="translate(-143.734 -106.44)" fill="#231f20"></path><path d="M236.565,184.021H228.1a.222.222,0,0,1-.222-.186c-.158-.905-3.893-21.78-2.616-27.116a6.07,6.07,0,0,1,2.892-3.861,8.147,8.147,0,0,1,6.31-.607c5.97-.235,12.171-1,12.221-1a.223.223,0,0,1,.2.362L239.1,161.49c-.226,1.082-1.747,16.421-2.322,22.328A.226.226,0,0,1,236.565,184.021Zm-8.278-.453h8.075c.226-2.336,2.1-21.441,2.326-22.242a.253.253,0,0,1,.041-.077l7.477-9.5c-1.652.19-6.789.756-11.768.951h-.072a7.7,7.7,0,0,0-5.993.552,5.527,5.527,0,0,0-2.675,3.571c-1.19,4.988,2.213,24.641,2.589,26.75Z" transform="translate(-143.457 -106.169)" fill="#231f20"></path><path d="M276.026,152.663s2.666,4.427-1.453,9.41-15.842-.258-15.842-.258l2.928,19.5-8.6-.086s-8.962-26.546-7.93-29.293,8.373-4.015,8.373-4.015Z" transform="translate(-154.434 -104.349)" fill="#231f20"></path><path d="M261.365,181.268h0l-8.6-.086a.226.226,0,0,1-.213-.154c-.367-1.086-8.98-26.655-7.93-29.447s8.242-4.1,8.55-4.155a.271.271,0,0,1,.086,0l22.531,4.743a.231.231,0,0,1,.149.109c.027.045,2.716,4.617-1.476,9.668-1.738,2.1-5.092,2.716-9.691,1.81a34.686,34.686,0,0,1-6.056-1.851l2.87,19.1a.222.222,0,0,1-.05.181A.235.235,0,0,1,261.365,181.268Zm-8.437-.543,8.174.086L258.21,161.57a.226.226,0,0,1,.317-.24c.118.054,11.628,5.115,15.588.321a8.721,8.721,0,0,0,2.222-6.386,7.241,7.241,0,0,0-.742-2.675l-22.386-4.712c-.6.109-7.242,1.358-8.147,3.861C244.229,153.916,250.407,173.252,252.928,180.725Z" transform="translate(-154.153 -104.077)" fill="#231f20"></path><path d="M247.22,169.367a.222.222,0,0,1-.208-.14c-.195-.493-4.748-12.135-3.318-15.054a1.213,1.213,0,0,1,.76-.683.226.226,0,0,1,.281.154.231.231,0,0,1-.154.281.774.774,0,0,0-.48.453c-1.358,2.743,3.281,14.57,3.331,14.687a.226.226,0,0,1-.131.294Z" transform="translate(-153.542 -107.393)" fill="#fff"></path><path d="M270.78,175.211a.217.217,0,0,1-.118-.032,15.053,15.053,0,0,1-3.54-2.852.222.222,0,0,1,.063-.312.226.226,0,0,1,.312.063,14.569,14.569,0,0,0,3.4,2.716.231.231,0,0,1,.077.312A.235.235,0,0,1,270.78,175.211Z" transform="translate(-166.497 -117.518)" fill="#fff"></path><path d="M286.236,120.094s9.455-23.3,2.471-28.642-16.937-2.965-18.295,2.032S263.7,115.35,263.7,115.35,280.854,120.465,286.236,120.094Z" transform="translate(-164.644 -71.779)" fill="#15af9e"></path><path d="M289.674,99.323l-1.634,16.444,9.012-17.607Z" transform="translate(-177.968 -77.112)" fill="#231f20"></path><path d="M287.724,115.731a.177.177,0,0,1-.068,0,.217.217,0,0,1-.158-.24l1.638-16.444a.226.226,0,0,1,.19-.2l7.373-1.159a.222.222,0,0,1,.222.091.231.231,0,0,1,0,.235L287.9,115.618A.226.226,0,0,1,287.724,115.731Zm1.842-16.475-1.5,15.081,8.269-16.145Z" transform="translate(-177.67 -76.85)" fill="#231f20"></path><path d="M265.624,95.18l-11.8,8.351,1.077,10.6,12.651-5.345S269.644,97.058,265.624,95.18Z" transform="translate(-159.236 -75.48)" fill="#15af9e"></path><path d="M281.943,71.868a6.174,6.174,0,0,1,2.639-.285c1.39.244,2.661.905,4.074,1.113a26.072,26.072,0,0,0,4.68,0c.453-.023,0,.588.38.326,1.276-.932,1.213-2.779,1.208-4.164a35.14,35.14,0,0,0-1.19-9.5c-.453-1.611-2.24-7.509-4.852-4.979.588-.575-2.263-1.915-2.67-2.028-3.7-1.027-7.061,2.227-7.889,5.612-.6,2.458-.647,4.9-1.81,7.206a8.037,8.037,0,0,0-1.231,3.168,3.73,3.73,0,0,0,2.1,3.3,6.065,6.065,0,0,0,4.028.367Z" transform="translate(-170.983 -51.929)" fill="#fff"></path><path d="M293.294,73.04a.272.272,0,0,1-.122-.032.312.312,0,0,1-.131-.321v-.032l-.711.032a21.821,21.821,0,0,1-4-.036,12.469,12.469,0,0,1-2.209-.588,12.672,12.672,0,0,0-1.878-.525,5.69,5.69,0,0,0-2.417.244l-.131.032-.539.131a6.337,6.337,0,0,1-4.178-.389,3.938,3.938,0,0,1-2.231-3.5,6.287,6.287,0,0,1,.964-2.716c.1-.186.2-.371.294-.557a16.814,16.814,0,0,0,1.358-4.762c.131-.783.272-1.589.453-2.394a8.464,8.464,0,0,1,3.761-5.142,5.613,5.613,0,0,1,4.409-.634c.258.072,2.367,1,2.824,1.77a1.688,1.688,0,0,1,1.466-.33c1.584.425,2.716,3.336,3.39,5.7a35.079,35.079,0,0,1,1.2,9.577v.172c0,1.358,0,3.218-1.3,4.178a.484.484,0,0,1-.272.118Zm-.231-.86a.425.425,0,0,1,.317.118.376.376,0,0,1,.077.118c.969-.86.96-2.417.955-3.68v-.167a34.752,34.752,0,0,0-1.181-9.46c-.905-3.168-2-5.1-3.069-5.386a1.448,1.448,0,0,0-1.408.53.227.227,0,0,1-.317-.326c.081-.339-1.942-1.471-2.575-1.648a5.155,5.155,0,0,0-4.074.588,7.984,7.984,0,0,0-3.549,4.861c-.195.788-.33,1.589-.453,2.363a17.089,17.089,0,0,1-1.358,4.893c-.1.186-.2.371-.3.561a5.992,5.992,0,0,0-.905,2.508,3.472,3.472,0,0,0,1.982,3.082,5.884,5.884,0,0,0,3.879.349l.525-.127.131-.032a6.124,6.124,0,0,1,2.6-.253,13.713,13.713,0,0,1,1.946.543,12.08,12.08,0,0,0,2.127.57,21.275,21.275,0,0,0,3.911.032l.724-.036Z" transform="translate(-170.693 -51.656)" fill="#231f20"></path><path d="M284.224,66.773s-1.236,3.8-.5,6.635a4.191,4.191,0,0,0,3.313,3.168l.145,5.056s.054,2.589,3.209,2.1a5.431,5.431,0,0,0,4.169-3.259l.091-9.31s-3.653-1.964-3.44-5.309C291.212,65.855,287,68.045,284.224,66.773Z" transform="translate(-175.478 -59.426)" fill="#fff"></path><path d="M289.36,83.745a2.716,2.716,0,0,1-1.81-.584,2.607,2.607,0,0,1-.865-1.81L286.54,76.5a4.467,4.467,0,0,1-3.313-3.3c-.742-2.87.453-6.608.507-6.789a.226.226,0,0,1,.122-.136.24.24,0,0,1,.186,0c2.648,1.213,6.749-.905,6.789-.905a.235.235,0,0,1,.231,0,.226.226,0,0,1,.1.2c-.2,3.168,3.286,5.078,3.318,5.1a.226.226,0,0,1,.122.2l-.091,9.315a.2.2,0,0,1,0,.072,5.6,5.6,0,0,1-4.345,3.4,4.928,4.928,0,0,1-.806.081ZM284.091,66.8a13.6,13.6,0,0,0-.425,6.269,3.933,3.933,0,0,0,3.123,3.005.226.226,0,0,1,.2.217l.145,5.056a2.164,2.164,0,0,0,.706,1.466,2.691,2.691,0,0,0,2.263.416,5.237,5.237,0,0,0,3.974-3.082l.086-9.134c-.625-.367-3.395-2.159-3.444-5.078C289.663,66.424,286.486,67.718,284.091,66.8Z" transform="translate(-175.201 -59.148)" fill="#231f20"></path><path d="M304.23,73.73s1.462-3.558,3.286-1.394-.67,4.662-2.236,4.5" transform="translate(-186.83 -62.594)" fill="#fff"></path><path d="M305.157,76.806h-.172a.227.227,0,1,1,.045-.453,2.767,2.767,0,0,0,2.34-1.548,2.2,2.2,0,0,0-.3-2.58,1.317,1.317,0,0,0-1.163-.607c-.824.127-1.534,1.444-1.738,1.942a.227.227,0,1,1-.421-.172c.036-.086.846-2.023,2.091-2.218a1.729,1.729,0,0,1,1.58.765,2.666,2.666,0,0,1,.353,3.082A3.257,3.257,0,0,1,305.157,76.806Z" transform="translate(-186.558 -62.329)" fill="#231f20"></path><path d="M288.493,78.59a1.693,1.693,0,0,1-.715-.136.4.4,0,0,1-.217-.276c-.167-.647,1.05-2.431,1.43-2.965a.222.222,0,0,1,.312-.054.226.226,0,0,1,.054.317A6.854,6.854,0,0,0,288,78.07,2.761,2.761,0,0,0,289.426,78a.236.236,0,1,1,.131.453A3.893,3.893,0,0,1,288.493,78.59Z" transform="translate(-177.697 -64.499)" fill="#231f20"></path><path d="M291.33,89.341a14.851,14.851,0,0,0,4.25-.181s-1.58,4.033-4.146,4.074Z" transform="translate(-179.769 -72.185)" fill="#231f20"></path><path d="M291.16,93.2a.226.226,0,0,1-.226-.222l-.1-3.906a.226.226,0,0,1,.249-.231,14.827,14.827,0,0,0,4.164-.172.222.222,0,0,1,.231.063.226.226,0,0,1,.045.235c-.068.172-1.666,4.173-4.354,4.232Zm.127-3.888.091,3.417c1.81-.217,3.087-2.557,3.539-3.517A15.923,15.923,0,0,1,291.287,89.311Z" transform="translate(-179.495 -71.91)" fill="#231f20"></path><ellipse cx="0.697" cy="0.398" rx="0.697" ry="0.398" transform="matrix(0.025, -1, 1, 0.025, 112.817, 10.948)" fill="#231f20"></ellipse><ellipse cx="0.697" cy="0.398" rx="0.697" ry="0.398" transform="matrix(0.025, -1, 1, 0.025, 109.153, 10.859)" fill="#231f20"></ellipse><path d="M310.356,85c.195,2.974.453,8.441-4.273,7.093a4.015,4.015,0,0,1-2.322-1.833c-.905-1.62,1.53-3.965,2.684-5.02" transform="translate(-186.465 -69.908)" fill="#fff"></path><path d="M307.118,92.249a5.156,5.156,0,0,1-1.408-.217,4.191,4.191,0,0,1-2.476-1.946c-.937-1.648,1.109-3.811,2.716-5.3a.231.231,0,0,1,.321,0,.226.226,0,0,1,0,.321c-.869.8-3.508,3.214-2.639,4.739a3.748,3.748,0,0,0,2.209,1.734,2.963,2.963,0,0,0,2.77-.281c1.562-1.263,1.326-4.852,1.213-6.577a.227.227,0,1,1,.453-.032c.127,1.942.367,5.549-1.385,6.961A2.716,2.716,0,0,1,307.118,92.249Z" transform="translate(-186.156 -69.625)" fill="#231f20"></path><path d="M294.315,84.523c0,.24-.4.453-.905.453s-.3-.2-.3-.453-.2-.453.3-.453S294.315,84.283,294.315,84.523Z" transform="translate(-180.721 -69.399)" fill="#231f20"></path><path d="M315.7,97.82s-4.178,3.49-4.2,6.441,3.168,16.747,3.168,16.747l8.7-4.852S319.977,99.015,315.7,97.82Z" transform="translate(-190.809 -76.925)" fill="#15af9e"></path><path d="M264.48,119.9h-.063a.226.226,0,0,1-.149-.285L270.5,99.245a.226.226,0,1,1,.43.131L264.7,119.744A.226.226,0,0,1,264.48,119.9Z" transform="translate(-164.949 -77.604)" fill="#231f20"></path><path d="M314.514,127.8a.222.222,0,0,1-.222-.177c-3.526-15.728-3.309-15.914-3.168-16.027a.231.231,0,0,1,.321,0,.222.222,0,0,1,.041.222c0,.738,1.933,9.754,3.263,15.683a.226.226,0,0,1-.172.272Z" transform="translate(-190.569 -84.428)" fill="#231f20"></path><path d="M263.512,142.93l-16.226,6.115-7.206-5.173,14.185-4.282Z" transform="translate(-151.715 -99.79)" fill="#fff"></path><path d="M247.009,149.022a.24.24,0,0,1-.136-.041l-7.2-5.178a.226.226,0,0,1-.1-.222.231.231,0,0,1,.158-.177l14.185-4.277a.262.262,0,0,1,.145,0l9.238,3.331a.24.24,0,0,1,.149.213.226.226,0,0,1-.149.213l-16.217,6.138A.213.213,0,0,1,247.009,149.022Zm-6.7-5.318,6.735,4.838,15.538-5.857-8.6-3.1Z" transform="translate(-151.438 -99.531)" fill="#231f20"></path><path d="M299.545,139.6s1.81,9.156-3.119,10.03-21.273-2.326-21.273-2.326-5.676,1-5.314-.453,3.906-2.1,3.906-2.1-2.924-1.417-1.485-1.412a44.187,44.187,0,0,1,4.571.511l15.117-2.014" transform="translate(-167.996 -99.795)" fill="#fff"></path><path d="M293.95,149.733c-6.192,0-18.055-2.263-19.01-2.476-.855.149-4.6.742-5.386-.109a.625.625,0,0,1-.145-.607c.3-1.181,2.376-1.851,3.458-2.123-1.539-.815-1.466-1.136-1.435-1.263.068-.294.453-.294.616-.294a43.8,43.8,0,0,1,4.576.507l15.086-2.01a.228.228,0,0,1,.059.453l-15.117,2.01a.172.172,0,0,1-.068,0,44.426,44.426,0,0,0-4.526-.507h-.068a9.23,9.23,0,0,0,1.657.982.231.231,0,0,1-.054.43c-.946.177-3.463.874-3.73,1.928a.167.167,0,0,0,.036.186c.489.53,3.336.258,5.015-.036H275c.163.032,16.353,3.168,21.169,2.326a3.223,3.223,0,0,0,2.141-1.39c1.847-2.684.842-8.147.8-8.373a.235.235,0,0,1,.05-.19.222.222,0,0,1,.231-.077.217.217,0,0,1,.163.177l-.222.045.226-.041c.113.6,1.05,5.929-.874,8.717a3.643,3.643,0,0,1-2.435,1.575,13.4,13.4,0,0,1-2.295.158Z" transform="translate(-167.755 -99.518)" fill="#231f20"></path><path d="M190.778,225.84a3.087,3.087,0,0,0,1.715.833c.756,0,8.953-1.512,9.292-.389s-.33,1.684-2.29,2.607c-2.625,1.236-11.438,4.137-11.438,4.137L186.13,228.5Z" transform="translate(-122.184 -147.001)" fill="#fff"></path><path d="M187.808,232.989a.2.2,0,0,1-.19-.127l-1.928-4.526a.2.2,0,0,1,.086-.258l4.648-2.661a.208.208,0,0,1,.258.041,2.874,2.874,0,0,0,1.566.765,15.053,15.053,0,0,0,1.648-.2c4.884-.683,7.577-.905,7.839-.041.389,1.29-.425,1.924-2.4,2.856-2.6,1.231-11.37,4.119-11.46,4.151Zm-1.666-4.648,1.783,4.187c1.267-.421,8.853-2.951,11.229-4.074,2.014-.951,2.462-1.435,2.182-2.363-.2-.674-5.608.081-7.382.33-1,.14-1.525.2-1.715.208a3.223,3.223,0,0,1-1.743-.788Z" transform="translate(-121.934 -146.754)" fill="#231f20"></path><path d="M133.058,236.342s8.785,3.019,9.161,3.594-.29,1.249-2.63,1.457-12.352-.335-12.352-.335a11.523,11.523,0,0,1,.5-4.074C128.369,235.627,133.058,236.342,133.058,236.342Z" transform="translate(-89.942 -152.647)" fill="#fff"></path><path d="M137.67,241.373c-3.585,0-10.351-.362-10.691-.38a.213.213,0,0,1-.2-.2,11.86,11.86,0,0,1,.521-4.182c.674-1.48,5.042-.824,5.54-.747h.032c2.078.715,8.885,3.087,9.27,3.68a.706.706,0,0,1,.063.715c-.267.548-1.254.905-2.847,1.055A16.421,16.421,0,0,1,137.67,241.373Zm-10.483-.783c1.394.072,10.016.511,12.135.321,2.046-.181,2.44-.674,2.508-.824a.29.29,0,0,0-.032-.312c-.349-.407-5.721-2.363-9.052-3.5-1.756-.281-4.676-.385-5.083.511A11.132,11.132,0,0,0,127.187,240.59Z" transform="translate(-89.692 -152.373)" fill="#231f20"></path><path d="M81.941,129.128s-7.169-17.919-6.418-26.759,6.522-9.378,8.545-9.5,12.646-1.543,16.525,3.214,2.883,27.669,2.883,27.669Z" transform="translate(-61.61 -74.052)" fill="#15af9e"></path><path d="M108.353,100.784l-.131,17.955L100.6,99.58Z" transform="translate(-75.367 -77.889)" fill="#231f20"></path><path d="M107.948,118.688a.231.231,0,0,1-.213-.14l-7.622-19.164a.24.24,0,0,1,.036-.226.222.222,0,0,1,.213-.081l7.753,1.208a.226.226,0,0,1,.195.222l-.136,17.96a.226.226,0,0,1-.186.217Zm-7.242-19.105,7.043,17.72.122-16.6Z" transform="translate(-75.093 -77.611)" fill="#231f20"></path><path d="M136.269,151.419a61.854,61.854,0,0,1,16.6,7.667c3.594,2.44,10.306,26.374,10.306,26.374s-.751,4.146-5.54,3.5L136.7,161.843S132.213,151.315,136.269,151.419Z" transform="translate(-93.962 -106.264)" fill="#231f20"></path><path d="M158.341,188.963a7.3,7.3,0,0,1-1.009-.072.24.24,0,0,1-.149-.086l-20.925-27.116a.185.185,0,0,1-.032-.05c-.131-.312-3.272-7.735-1.711-10.035a1.629,1.629,0,0,1,1.489-.7h.054a62.746,62.746,0,0,1,16.665,7.695c3.621,2.462,10.121,25.523,10.41,26.505a.25.25,0,0,1,0,.1,4.757,4.757,0,0,1-4.793,3.761Zm-.855-.507c4.2.521,5.083-2.806,5.182-3.277-.353-1.254-6.789-23.885-10.2-26.2a62.082,62.082,0,0,0-16.5-7.627h-.027a1.172,1.172,0,0,0-1.05.5c-1.38,2.037,1.534,9.089,1.743,9.577Z" transform="translate(-93.693 -105.978)" fill="#231f20"></path><path d="M89.376,164.418s16.6-6.753,20.857-7.378a19.2,19.2,0,0,1,9.215,8.029c3.128,5.766-7.287,27.967-7.287,27.967a8.22,8.22,0,0,1-5.694,1l-.136-23.237S86.276,172.791,89.376,164.418Z" transform="translate(-69.044 -109.341)" fill="#231f20"></path><path d="M107.722,194.131a8.342,8.342,0,0,1-1.562-.149.226.226,0,0,1-.181-.222l-.136-22.988c-1.91.167-13.556,1.009-16.566-2.892a3.819,3.819,0,0,1-.376-3.82.226.226,0,0,1,.127-.131c.679-.276,16.674-6.789,20.911-7.4a.244.244,0,0,1,.113,0,19.643,19.643,0,0,1,9.333,8.147c3.132,5.78-6.857,27.261-7.283,28.171a.208.208,0,0,1-.081.1A8.31,8.31,0,0,1,107.722,194.131Zm-1.3-.561a8.093,8.093,0,0,0,5.291-.969c.593-1.285,10.229-22.26,7.265-27.7a19.1,19.1,0,0,0-9.052-7.907c-4.105.643-19.309,6.789-20.648,7.319a3.326,3.326,0,0,0,.339,3.3c3.06,3.965,16.294,2.716,16.412,2.716a.231.231,0,0,1,.172.054.226.226,0,0,1,.077.167Z" transform="translate(-68.784 -109.06)" fill="#231f20"></path><path d="M145.307,175.114h-.041a.231.231,0,0,1-.186-.263c.584-3.322,1.186-8.564.453-9.387a80.279,80.279,0,0,0-8.464-7.142.226.226,0,0,1-.05-.312.231.231,0,0,1,.317-.05,83.372,83.372,0,0,1,8.532,7.2c1.136,1.249-.172,8.9-.326,9.772a.222.222,0,0,1-.235.181Z" transform="translate(-95.279 -109.822)" fill="#fff"></path><path d="M129.84,100.32s2.874,5.522,4.567,8.36a58.1,58.1,0,0,0,5.368,6.907s13.017,4.63,13.1,4.879-1.236,4.626-1.236,4.626-13.655-.982-15.919-2.05-6.844-6.337-6.844-6.337Z" transform="translate(-90.846 -78.294)" fill="#15af9e"></path><path d="M110.05,106.62l-.96,1.512,1.05.625.1,7.242,2.625,6.595.131-6.1-2.186-7.943.652-.765Z" transform="translate(-80.014 -81.742)" fill="#fff"></path><path d="M112.616,122.543a.231.231,0,0,1-.213-.14l-2.621-6.595a.526.526,0,0,1,0-.081l-.1-7.12-.946-.557a.244.244,0,0,1-.1-.145.213.213,0,0,1,.032-.172l.96-1.512a.231.231,0,0,1,.154-.1.235.235,0,0,1,.181.05l1.417,1.163a.226.226,0,0,1,.027.321l-.588.674,2.154,7.83a.348.348,0,0,1,0,.068l-.136,6.1a.226.226,0,0,1-.186.217Zm-2.4-6.862,2.2,5.517.109-4.952-2.182-7.921a.244.244,0,0,1,.045-.208l.5-.588-1.041-.855-.7,1.1.851.507a.222.222,0,0,1,.109.19Z" transform="translate(-79.76 -81.466)" fill="#231f20"></path><path d="M96.557,58.194a3.544,3.544,0,0,1,.81-.2c1.1-.127,1.122.113,1.973-.6a8.1,8.1,0,0,1,4.526-1.72c3.168-.208,5.472,1.38,4.748,4.857a10.193,10.193,0,0,1-1.856,3.784c-1.81,2.48-4.313,4.725-7.364,4.979-.905.068-2.6,0-3.259-.738a8.215,8.215,0,0,1-1.684-7.871,4.594,4.594,0,0,1,.819-1.584,3.209,3.209,0,0,1,1.285-.9Z" transform="translate(-71.799 -53.842)" fill="#fff"></path><path d="M98.56,69.241a4.2,4.2,0,0,1-2.883-.833,8.41,8.41,0,0,1-1.72-8.07,4.753,4.753,0,0,1,.865-1.657A3.476,3.476,0,0,1,97.085,57.5a6.754,6.754,0,0,1,.688-.05c.453,0,.593,0,1.163-.5a8.179,8.179,0,0,1,4.644-1.77,5.126,5.126,0,0,1,4.268,1.358,4.207,4.207,0,0,1,.715,3.743,10.148,10.148,0,0,1-1.892,3.87c-1.562,2.164-4.132,4.8-7.532,5.051A2.571,2.571,0,0,1,98.56,69.241Zm5.558-13.633h-.53A7.876,7.876,0,0,0,99.2,57.3a1.874,1.874,0,0,1-1.435.607,3.8,3.8,0,0,0-.656.045,3.137,3.137,0,0,0-.756.19h0a2.956,2.956,0,0,0-1.19.833,4.4,4.4,0,0,0-.783,1.507,7.957,7.957,0,0,0,1.652,7.631c.516.575,1.955.751,3.073.661,3.223-.24,5.694-2.779,7.2-4.861a9.736,9.736,0,0,0,1.81-3.7,3.788,3.788,0,0,0-.616-3.358A4.388,4.388,0,0,0,104.118,55.608Zm-7.839,2.317Z" transform="translate(-71.521 -53.574)" fill="#231f20"></path><path d="M108.358,77.705v4.78a3.511,3.511,0,0,1-4.25,1.838c-3.128-.792-3.508-3.046-3.508-3.046l.14-8.858s2.34-1.213,1.715-6.269a15.57,15.57,0,0,0,8.147,1.231s.96,5.526.625,7.962C110.888,77.714,108.4,77.674,108.358,77.705Z" transform="translate(-75.367 -59.59)" fill="#fff"></path><path d="M104.967,84.451a4.806,4.806,0,0,1-1.181-.158c-3.232-.824-3.662-3.128-3.675-3.223l.136-8.889a.235.235,0,0,1,.122-.2s2.191-1.227,1.6-6.038a.213.213,0,0,1,.1-.213.222.222,0,0,1,.231,0,15.466,15.466,0,0,0,8.007,1.208.231.231,0,0,1,.249.186c.036.226.96,5.59.62,8.034a2.891,2.891,0,0,1-2.852,2.521v4.576a.262.262,0,0,1,0,.086A3.743,3.743,0,0,1,104.967,84.451ZM100.7,72.312l-.14,8.722c0,.045.4,2.073,3.34,2.82a3.277,3.277,0,0,0,3.965-1.666v-4.73a.226.226,0,0,1,.081-.177.344.344,0,0,1,.208-.059,2.479,2.479,0,0,0,2.566-2.145c.29-2.1-.416-6.653-.584-7.695a15.923,15.923,0,0,1-7.695-1.1c.43,4.25-1.263,5.708-1.743,6.033Zm7.391,9.926Z" transform="translate(-75.098 -59.343)" fill="#231f20"></path><path d="M100.478,77.566a2.041,2.041,0,0,0-.683-1.1A3.621,3.621,0,0,0,98.7,75.9a1.534,1.534,0,0,0-.661-.127,1.236,1.236,0,0,0-.453.158,1.571,1.571,0,0,0-.765.783,1.869,1.869,0,0,0-.054.905,3.824,3.824,0,0,0,.231.955,2.48,2.48,0,0,0,3.272,1.358" transform="translate(-73.253 -64.855)" fill="#fff"></path><path d="M99.016,80.042a2.716,2.716,0,0,1-2.5-1.675,3.743,3.743,0,0,1-.244-1.014,2.073,2.073,0,0,1,.063-1,1.811,1.811,0,0,1,.869-.905,1.4,1.4,0,0,1,.53-.186,1.743,1.743,0,0,1,.765.14,3.893,3.893,0,0,1,1.159.6,2.286,2.286,0,0,1,.756,1.227.222.222,0,0,1-.167.272.226.226,0,0,1-.272-.167,1.842,1.842,0,0,0-.607-.982,3.454,3.454,0,0,0-1.027-.525,1.3,1.3,0,0,0-.557-.118,1,1,0,0,0-.362.136,1.4,1.4,0,0,0-.665.656,1.765,1.765,0,0,0-.036.788,3.282,3.282,0,0,0,.217.905,2.263,2.263,0,0,0,1.231,1.227,2.322,2.322,0,0,0,1.743,0,.217.217,0,0,1,.294.118.226.226,0,0,1-.118.3A2.716,2.716,0,0,1,99.016,80.042Z" transform="translate(-72.977 -64.575)" fill="#231f20"></path><path d="M117.138,75.92s1.7,2.417,1.322,2.852-1.48.177-1.48.177" transform="translate(-84.333 -64.938)" fill="#fff"></path><path d="M117.37,78.976a3.471,3.471,0,0,1-.72-.081.232.232,0,1,1,.1-.453c.376.086,1.05.131,1.258-.109a6.645,6.645,0,0,0-1.358-2.571.226.226,0,0,1,.371-.258c.674.955,1.738,2.63,1.308,3.128A1.3,1.3,0,0,1,117.37,78.976Z" transform="translate(-84.052 -64.662)" fill="#231f20"></path><ellipse cx="0.57" cy="0.407" rx="0.57" ry="0.407" transform="translate(31.014 11.001) rotate(-86.47)" fill="#231f20"></ellipse><ellipse cx="0.407" cy="0.57" rx="0.407" ry="0.57" transform="matrix(0.998, -0.07, 0.07, 0.998, 34.501, 9.926)" fill="#231f20"></ellipse><path d="M113.789,85.021a4.92,4.92,0,0,1-2.992-.8.231.231,0,0,1-.036-.321.222.222,0,0,1,.317-.032c1.29,1.036,3.942.616,3.969.611a.229.229,0,0,1,.072.453A8.854,8.854,0,0,1,113.789,85.021Z" transform="translate(-80.901 -69.259)" fill="#231f20"></path><path d="M120.585,74.117a3.046,3.046,0,0,1-3.01-3.571h0a3.058,3.058,0,1,1,3.01,3.571Zm-2.562-3.49a2.091,2.091,0,1,0,0-.009Z" transform="translate(-84.633 -60.619)" fill="#231f20"></path><path d="M107.4,73.612a2.987,2.987,0,0,1-.53-.045,3.057,3.057,0,1,1,.53.045Zm0-5.635a2.58,2.58,0,1,0,2.136,1.082,2.562,2.562,0,0,0-2.127-1.1Z" transform="translate(-77.362 -60.331)" fill="#231f20"></path><path d="M112.025,91.308S109.052,92,107.3,91c0,0,1.937,4.006,4.725,3.589Z" transform="translate(-79.034 -73.192)" fill="#231f20"></path><path d="M111.316,94.565c-2.67,0-4.436-3.589-4.526-3.748a.213.213,0,0,1,.05-.263.217.217,0,0,1,.263-.032c1.657.946,4.526.294,4.562.29a.226.226,0,0,1,.281.217v3.277a.226.226,0,0,1-.195.222A3.037,3.037,0,0,1,111.316,94.565ZM107.536,91.2c.625,1.023,2.1,3.037,3.969,2.9V91.311A8.7,8.7,0,0,1,107.536,91.2Z" transform="translate(-78.741 -72.915)" fill="#231f20"></path><path d="M70.391,97.962c-2.431.453-12.275,23.192-8.9,25.8,5.259,4.074,23.559-.045,23.559-.045l-1.489-7.061s-11.768.33-11.936-2.087S78.466,100.99,77.547,99.3,70.391,97.962,70.391,97.962Z" transform="translate(-53.576 -76.986)" fill="#15af9e"></path><path d="M88.687,129.5a.227.227,0,0,1-.041-.453l5.536-.951.172-6.45-10.41-1.073a.213.213,0,0,1-.163-.1.222.222,0,0,1-.032-.19l4.635-15.891a.226.226,0,0,1,.281-.154.231.231,0,0,1,.154.281l-4.526,15.633,10.324,1.064a.226.226,0,0,1,.2.231l-.181,6.844a.226.226,0,0,1-.19.217l-5.717.987Z" transform="translate(-66.138 -80.434)" fill="#231f20"></path><path d="M107.714,143.557a26.967,26.967,0,0,0,5.857-.285,17.82,17.82,0,0,1,4.368-.5,16.467,16.467,0,0,1,5.64,1.29.416.416,0,0,1,.19.127c.172.24-.24.453-.534.484a7.762,7.762,0,0,1-2.3-.294,22.106,22.106,0,0,1,5.205,2.77c.186.131.385.335.294.543s-.453.167-.7.059l-4.209-1.924a10.587,10.587,0,0,1,2.992,1.81c.127.113.263.258.226.425-.059.281-.48.226-.742.1a24.863,24.863,0,0,1-3.653-2.231l2.6,1.987c.032.213-.19.394-.407.4a1.181,1.181,0,0,1-.6-.213l-2.9-1.675,1.81,1.267c.285.2.607.521.453.837s-.72.258-1.1.091a21.926,21.926,0,0,0-4.648-1.43,7.431,7.431,0,0,0-1.724-.349,14.935,14.935,0,0,0-2.639.575q-1.962.441-3.924.905" transform="translate(-79.018 -101.529)" fill="#fff"></path><path d="M120.62,148.743a1.983,1.983,0,0,1-.724-.177,21.6,21.6,0,0,0-4.6-1.421c-.2-.036-.394-.1-.588-.149a3.431,3.431,0,0,0-1.086-.19,8.148,8.148,0,0,0-1.779.353c-.281.077-.557.154-.824.213-1.308.3-2.616.6-3.924.905a.213.213,0,0,1-.249-.154.2.2,0,0,1,.154-.249c1.308-.308,2.621-.607,3.929-.905.258-.059.53-.131.806-.208a8.428,8.428,0,0,1,1.874-.371,4.259,4.259,0,0,1,1.213.208c.186.054.367.109.557.145a21.938,21.938,0,0,1,4.694,1.444,1.077,1.077,0,0,0,.711.118.172.172,0,0,0,.109-.1c.1-.217-.281-.5-.4-.588l-1.81-1.263a.213.213,0,0,1-.059-.285A.208.208,0,0,1,118.9,146l2.9,1.675a.928.928,0,0,0,.489.181.258.258,0,0,0,.181-.091h0l-2.5-1.915a.208.208,0,1,1,.249-.33,24.483,24.483,0,0,0,3.621,2.213.6.6,0,0,0,.425.063c.027-.045,0-.109-.14-.244a10.371,10.371,0,0,0-1.992-1.358l-.951-.453a.208.208,0,0,1,.163-.38,8.937,8.937,0,0,1,.969.453l3.25,1.489a.638.638,0,0,0,.4.068c.054-.081-.041-.208-.195-.317a21.888,21.888,0,0,0-5.16-2.743.2.2,0,0,1-.122-.258.208.208,0,0,1,.253-.136,7.346,7.346,0,0,0,2.236.285.507.507,0,0,0,.376-.167l-.1-.045a16.186,16.186,0,0,0-5.567-1.276,15.557,15.557,0,0,0-3.788.4l-.534.1a27.416,27.416,0,0,1-5.884.29.208.208,0,0,1-.2-.217.2.2,0,0,1,.213-.2,27.09,27.09,0,0,0,5.807-.281l.534-.1a15.751,15.751,0,0,1,3.883-.407,16.683,16.683,0,0,1,5.712,1.308.6.6,0,0,1,.276.195.4.4,0,0,1,.036.416.905.905,0,0,1-.733.394H122.4a22.341,22.341,0,0,1,3.621,2.109c.344.244.475.534.362.792a.453.453,0,0,1-.263.249,1.018,1.018,0,0,1-.715-.081l-1.009-.453h0a.693.693,0,0,1,.294.62.453.453,0,0,1-.244.312.969.969,0,0,1-.792-.072c-.253-.122-.5-.253-.756-.389a.5.5,0,0,1-.122.335.674.674,0,0,1-.484.235,1.331,1.331,0,0,1-.711-.235l-.349-.2a.616.616,0,0,1,0,.534.584.584,0,0,1-.335.321A.865.865,0,0,1,120.62,148.743Z" transform="translate(-78.78 -101.275)" fill="#231f20"></path><path d="M125.52,106.63s2.154,8.785,4.074,15.036" transform="translate(-89.007 -81.748)" fill="#fff"></path><path d="M129.358,121.617a.2.2,0,0,1-.195-.145c-1.919-6.178-4.074-14.936-4.1-15.045a.207.207,0,1,1,.4-.1c.023.086,2.177,8.853,4.074,15.022a.208.208,0,0,1-.136.258A.154.154,0,0,1,129.358,121.617Z" transform="translate(-88.753 -81.495)" fill="#231f20"></path><path d="M148.99,163.27l-.113,1.231-27.687,4.046.276-1.29Z" transform="translate(-86.637 -112.752)" fill="#fff"></path><path d="M120.915,168.5a.235.235,0,0,1-.167-.072.217.217,0,0,1-.054-.2l.276-1.294a.24.24,0,0,1,.19-.177l27.524-3.983a.231.231,0,0,1,.186.059.24.24,0,0,1,.072.186l-.113,1.227a.226.226,0,0,1-.19.2l-27.691,4.074Zm.453-1.317-.177.819,27.189-3.974.068-.765Z" transform="translate(-86.362 -112.481)" fill="#231f20"></path><path d="M140.248,156.794s-6.3-5.4-6.513-5.354-28.515,3.444-28.515,3.444l7.518,5.884Z" transform="translate(-77.895 -106.276)" fill="#fff"></path><path d="M112.433,160.752a.208.208,0,0,1-.136-.05l-7.523-5.884a.226.226,0,0,1,.113-.4c.281-.032,28.062-3.363,28.515-3.44.127-.027.312-.077,6.7,5.4a.231.231,0,0,1,.072.235.235.235,0,0,1-.186.163l-27.519,3.983Zm-6.948-5.965,7.011,5.5,26.935-3.9c-2.263-1.924-5.531-4.685-6.02-4.979C131.937,151.618,111.062,154.116,105.486,154.786Z" transform="translate(-77.605 -106.019)" fill="#231f20"></path><path d="M112.3,166.238l-7.355-5.961.113-1.227,7.518,5.9Z" transform="translate(-77.742 -110.442)" fill="#fff"></path><path d="M112.021,166.19a.235.235,0,0,1-.145-.05l-7.351-5.961a.235.235,0,0,1-.086-.195l.113-1.231a.231.231,0,0,1,.367-.158l7.518,5.884a.231.231,0,0,1,.081.226L112.243,166a.226.226,0,0,1-.149.163A.2.2,0,0,1,112.021,166.19ZM104.9,159.9l6.975,5.64.172-.792-7.083-5.545Z" transform="translate(-77.468 -110.168)" fill="#231f20"></path><path d="M149.324,141.709l5.318-17.829-29.185,4.974L121.8,145.7Z" transform="translate(-86.971 -91.19)" fill="#fff"></path><path d="M121.527,145.644a.226.226,0,0,1-.163-.072.24.24,0,0,1-.059-.2l3.657-16.837a.222.222,0,0,1,.181-.177l29.189-4.979a.222.222,0,0,1,.253.285l-5.318,17.833a.24.24,0,0,1-.186.158l-27.519,3.983Zm3.847-16.869-3.553,16.371,27.053-3.92,5.173-17.34Zm23.676,12.673Z" transform="translate(-86.698 -90.912)" fill="#231f20"></path><path d="M216.894,99.633a.222.222,0,0,1-.222-.2,6.663,6.663,0,0,1,1.014-3.417A.226.226,0,0,1,218,95.94a.231.231,0,0,1,.072.312,6.516,6.516,0,0,0-.951,3.132.226.226,0,0,1-.2.249Z" transform="translate(-138.895 -75.878)" fill="#231f20"></path><path d="M251.68,152.248a.24.24,0,0,1-.122-.036l-5.056-3.25a.228.228,0,1,1,.244-.385l5.056,3.25a.231.231,0,0,1,.068.317A.24.24,0,0,1,251.68,152.248Z" transform="translate(-155.173 -104.689)" fill="#d1d3d4"></path><path d="M256.03,150.632a.226.226,0,0,1-.122-.032l-4.8-3.1a.227.227,0,0,1,.249-.38l4.8,3.082a.231.231,0,0,1,.068.317A.235.235,0,0,1,256.03,150.632Z" transform="translate(-157.694 -103.888)" fill="#d1d3d4"></path><path d="M259.854,149.286a.253.253,0,0,1-.122-.036l-4.857-3.114a.227.227,0,1,1,.249-.38l4.838,3.114a.226.226,0,0,1,.068.312A.217.217,0,0,1,259.854,149.286Z" transform="translate(-159.758 -103.144)" fill="#d1d3d4"></path><path d="M264.292,148.007a.2.2,0,0,1-.113-.032l-5.21-3.069a.226.226,0,1,1,.226-.389l5.21,3.069a.226.226,0,0,1-.113.421Z" transform="translate(-161.982 -102.463)" fill="#d1d3d4"></path><path d="M267.806,146.828a.217.217,0,0,1-.118-.032l-5.21-3.069a.231.231,0,0,1-.077-.312.217.217,0,0,1,.308-.077l5.21,3.069a.226.226,0,0,1-.113.421Z" transform="translate(-163.917 -101.822)" fill="#d1d3d4"></path></svg> 