<?xml version="1.0" encoding="UTF-8"?> <svg xmlns="http://www.w3.org/2000/svg" width="395.174" height="292.189" viewBox="0 0 395.174 292.189"><path d="M922.758,413.509s-4.516-7.21-3.273-15.02,7.775-13.261,7.775-13.261,4.516,7.21,3.273,15.02S922.758,413.509,922.758,413.509Z" transform="translate(-594.071 -265.021)" fill="#f2f2f2"></path><path d="M799.384,460.6c-2.308-7.564,1.171-15.327,1.171-15.327s7.22,4.5,9.528,12.063a21.761,21.761,0,0,1,.264,10.573,63.213,63.213,0,0,1,15.631-20.058c-.136-.175-.208-.276-.208-.276s.43-.226,1.183-.544c.1-.086.2-.174.309-.26,10.892-8.927,25.3-15.5,44.026-20.066-.048-.076-.089-.143-.124-.2l-.046-.026.017-.022c-.081-.134-.123-.21-.123-.21s.152-.059.426-.152c1.241-1.439,6.035-6.535,12.684-7.814,7.765-1.494,15.117,2.787,15.117,2.787a26.284,26.284,0,0,1-8.8,6.829,26.33,26.33,0,0,1,7.526,8.023s-7.923,3.1-15.366.427c-5.669-2.035-9.422-6.827-10.89-9-17.952,4.357-31.919,10.545-42.6,18.881a22.54,22.54,0,0,1,11.886-.807c7.7,1.818,12.649,8.736,12.649,8.736s-7.525,3.969-15.221,2.151c-6.042-1.427-10.392-6-11.983-7.9-13.05,11.254-20.712,26.633-20.573,41.442a58.626,58.626,0,0,0,1.545,12.22c.22.988.458,1.981.7,2.977,1.309,5.473,2.662,11.133,1.263,16.606a19.593,19.593,0,0,1-6.068,9.654l-.481-.545a18.859,18.859,0,0,0,5.844-9.29c1.355-5.3.023-10.87-1.265-16.257-.239-1-.477-2-.7-2.988a59.329,59.329,0,0,1-1.562-12.371,47.872,47.872,0,0,1,3.287-17.529C806.763,471.17,801.329,466.972,799.384,460.6Z" transform="translate(-521.63 -284.671)" fill="#f2f2f2"></path><circle cx="6.901" cy="6.901" r="6.901" transform="matrix(0.532, -0.847, 0.847, 0.532, 376.145, 146.83)" fill="#f2f2f2"></circle><path d="M260,413.509s4.516-7.21,3.273-15.02-7.775-13.261-7.775-13.261-4.516,7.21-3.273,15.02S260,413.509,260,413.509Z" transform="translate(-193.518 -265.021)" fill="#f2f2f2"></path><path d="M249.46,460.6c2.308-7.564-1.171-15.327-1.171-15.327s-7.22,4.5-9.528,12.063a21.762,21.762,0,0,0-.264,10.573,63.212,63.212,0,0,0-15.631-20.058c.136-.175.208-.276.208-.276s-.43-.226-1.183-.544c-.1-.086-.2-.174-.309-.26-10.892-8.927-25.3-15.5-44.026-20.066.048-.076.089-.143.124-.2l.046-.026-.017-.022c.081-.134.123-.21.123-.21s-.152-.059-.426-.152c-1.242-1.439-6.035-6.535-12.684-7.814-7.766-1.494-15.117,2.787-15.117,2.787a26.283,26.283,0,0,0,8.8,6.83,26.331,26.331,0,0,0-7.526,8.023s7.923,3.1,15.366.427c5.669-2.035,9.422-6.827,10.89-9,17.952,4.357,31.919,10.545,42.6,18.881a22.539,22.539,0,0,0-11.886-.807c-7.7,1.818-12.649,8.736-12.649,8.736s7.525,3.969,15.221,2.151c6.042-1.428,10.392-6,11.983-7.9,13.05,11.254,20.712,26.633,20.573,41.442a58.625,58.625,0,0,1-1.545,12.22c-.22.988-.458,1.981-.7,2.977-1.309,5.473-2.662,11.133-1.263,16.606a19.592,19.592,0,0,0,6.068,9.654l.481-.545a18.859,18.859,0,0,1-5.844-9.29c-1.355-5.3-.023-10.87,1.265-16.257.239-1,.477-2,.7-2.988a59.328,59.328,0,0,0,1.562-12.371,47.874,47.874,0,0,0-3.287-17.529C242.081,471.17,247.515,466.972,249.46,460.6Z" transform="translate(-132.045 -284.671)" fill="#f2f2f2"></path><circle cx="6.901" cy="6.901" r="6.901" transform="matrix(0.847, -0.532, 0.532, 0.847, 0, 142.478)" fill="#f2f2f2"></circle><ellipse cx="26.381" cy="4.397" rx="26.381" ry="4.397" transform="translate(99.857 241.826)" fill="#3f3d56"></ellipse><ellipse cx="26.381" cy="4.397" rx="26.381" ry="4.397" transform="translate(243.351 241.826)" fill="#3f3d56"></ellipse><path d="M556.152,797.9c0,1.963-29.294,3.621-69.749,4.189-9.641.136-19.913.208-30.577.208-11.264,0-22.092-.08-32.2-.232-39.615-.588-68.126-2.23-68.126-4.165,0-1.831,25.445-3.393,61.654-4.061,11.9-.216,24.966-.336,38.671-.336,13.1,0,25.617.112,37.093.308C529.967,794.455,556.152,796.042,556.152,797.9Z" transform="translate(-255.643 -510.105)" fill="#3f3d56"></path><path d="M323.434,527.348l-6.117,6.8,14.613,13.594,4.078-13.254Z" transform="translate(-187.873 -316.56)" fill="#a0616a"></path><path d="M639.38,527.348l6.117,6.8-14.613,13.594-4.078-13.254Z" transform="translate(-373.657 -316.56)" fill="#a0616a"></path><path d="M481.7,313.915l-7.817,18.691a49.455,49.455,0,0,0-9.516,33.3l-27.188,63.212,14.274,11.895,11.215-27.188a33.926,33.926,0,0,0,9.176-21.071l28.887-47.578,31.266,44.18s6.457,20.731,12.914,24.469l14.274,27.188,15.293-10.535L540.15,365.911s-4.758-27.867-14.274-36.024l-2.039-14.274-23.789-11.555Z" transform="translate(-304.673 -216.296)" fill="#2f2e41"></path><path d="M397.051,645.94A19.744,19.744,0,0,1,395.7,649.5c-3.4,6.8-21.41-3.738-21.41-3.738s-26.848-10.2-22.77-21.41c.085-.231.173-.455.272-.67,4.5-10.127,20.8-.35,20.8-.35l11.555-4.078,6.8,8.156,6.8,6.97A30.3,30.3,0,0,1,397.051,645.94Z" transform="translate(-253 -405.405)" fill="#2f2e41"></path><path d="M397.051,652.523a19.745,19.745,0,0,1-1.353,3.558c-3.4,6.8-21.41-3.738-21.41-3.738s-26.848-10.2-22.77-21.41c.085-.231.173-.455.272-.669,4.72-.683,12.568-.17,17.74,8.826C375.576,649.6,390.57,651.987,397.051,652.523Z" transform="translate(-253 -411.988)" fill="#3f3d56"></path><path d="M747.8,645.94a19.741,19.741,0,0,0,1.353,3.558c3.4,6.8,21.41-3.738,21.41-3.738s26.848-10.2,22.77-21.41c-.085-.231-.173-.455-.272-.67-4.5-10.127-20.8-.35-20.8-.35l-11.555-4.078-6.8,8.156-6.8,6.97A30.3,30.3,0,0,0,747.8,645.94Z" transform="translate(-490.566 -405.405)" fill="#2f2e41"></path><path d="M749.233,652.523a19.742,19.742,0,0,0,1.353,3.558c3.4,6.8,21.41-3.738,21.41-3.738s26.848-10.2,22.77-21.41c-.085-.231-.173-.455-.272-.669-4.72-.683-12.568-.17-17.74,8.826C770.708,649.6,755.714,651.987,749.233,652.523Z" transform="translate(-491.999 -411.988)" fill="#3f3d56"></path><circle cx="13.254" cy="13.254" r="13.254" transform="translate(174.474 8.069)" fill="#a0616a"></circle><path d="M456.757,65.66l2.719,13.934,10.2,4.418,8.5-11.555-8.156-13.594Z" transform="translate(-271.578 -35.331)" fill="#a0616a"></path><path d="M536.271,102.581a1.014,1.014,0,0,0,1.4,0,2.967,2.967,0,0,0,.751-1.343,2.906,2.906,0,0,1,.758-1.338c1.132-.944,2.95.2,4.3-.4.994-.444,1.355-1.649,2.071-2.469,1.116-1.279,2.982-1.516,4.673-1.668,1.458-.131,3.1-.206,4.2.762.976.86,1.2,2.262,1.638,3.487s1.45,2.513,2.739,2.333a2.208,2.208,0,0,0,1.576-1.231,4.946,4.946,0,0,0,.446-2.014,13.512,13.512,0,0,0-15.175-14.106c-.884.111-1.755.309-2.625.507a9.783,9.783,0,0,0-3.292,1.179c-.885.586-1.567,1.452-2.487,1.98-1.444.829-3.377.774-4.544,1.963a5.674,5.674,0,0,0-1.152,2.229l-1.52,4.473a3.692,3.692,0,0,0-.258,2.329c.335.989,1.451,1.55,1.794,2.536.518,1.49-.95,3.182-.32,4.628a2.818,2.818,0,0,0,2.111,1.4,2.975,2.975,0,0,0,1.917-.122,2.571,2.571,0,0,0,1.248-2.381,7.564,7.564,0,0,0-.751-2.719l1.181.925" transform="translate(-360.187 -84.489)" fill="#2f2e41"></path><path d="M559.922,171.421l25.149,12.914-10.2,54.376s-25.829-6.457-26.168-6.117-22.09,6.117-22.09,6.117L520.5,186.374l20.8-12.032S547.688,187.394,559.922,171.421Z" transform="translate(-354.692 -136.674)" fill="#575a89"></path><path d="M565.782,505.535c-6.523,0-12.583-4.672-17.064-13.155-4.332-8.2-6.718-19.072-6.718-30.613s2.386-22.412,6.718-30.613C553.2,422.672,559.26,418,565.782,418s12.583,4.672,17.064,13.155c4.332,8.2,6.718,19.072,6.718,30.613s-2.386,22.412-6.718,30.613C578.365,500.864,572.3,505.535,565.782,505.535Zm0-84.737c-5.435,0-10.617,4.142-14.591,11.664-4.123,7.8-6.394,18.212-6.394,29.306s2.271,21.5,6.394,29.306c3.974,7.522,9.155,11.664,14.591,11.664s10.617-4.142,14.59-11.664c4.123-7.8,6.394-18.212,6.394-29.306s-2.271-21.5-6.394-29.306C576.4,424.94,571.218,420.8,565.782,420.8Z" transform="translate(-367.598 -284.694)" fill="#3f3d56"></path><path d="M513.7,269.2l1.7,26.168,14.274,26.168s7.477,21.75,15.293,16.313-7.137-20.391-7.137-20.391l-11.895-26.168,1.7-18.692Z" transform="translate(-350.609 -195.369)" fill="#a0616a"></path><path d="M620.129,267.158l-1.02,19.711-13.934,26.508S592.6,333.088,601.1,333.428,615.032,316.1,615.032,316.1l14.953-24.809,3.4-25.489Z" transform="translate(-401.305 -193.328)" fill="#a0616a"></path><path d="M409.645,121.781l-7.476,1.02-4.078,26.508,17.332,3.059Z" transform="translate(-236.36 -73.1)" fill="#575a89"></path><path d="M542.8,114.979l7.137,1.7,3.4,28.208-16.653,1.359Z" transform="translate(-319.555 -69.017)" fill="#575a89"></path><path d="M582.232,669.861a44.286,44.286,0,0,1-12.99,31.369c-9.641.136-19.913.208-30.577.208-11.264,0-22.092-.08-32.2-.232a44.368,44.368,0,1,1,75.768-31.345Z" transform="translate(-337.987 -409.249)" fill="#15af9e"></path><path d="M476.178,588.625l-16.17,27.551h9.24v23.362h13.86V616.176h9.24Z" transform="translate(-276.498 -353.344)" fill="#fff"></path><circle cx="5.996" cy="5.996" r="5.996" transform="translate(280.124 120.316)" fill="#f2f2f2"></circle><circle cx="10.792" cy="10.792" r="10.792" transform="translate(93.062 87.94)" fill="#f2f2f2"></circle></svg> 