<?xml version="1.0" encoding="UTF-8"?> <svg xmlns="http://www.w3.org/2000/svg" width="134.055" height="35.29" viewBox="0 0 134.055 35.29"><g transform="translate(-0.55 0)"><g transform="translate(0)"><path d="M7,0h3.722a0,0,0,0,1,0,0V11.7a0,0,0,0,1,0,0H0a0,0,0,0,1,0,0V7A7,7,0,0,1,7,0Z" transform="translate(0.55)" fill="#aff5ed"></path><path d="M0,0H3.722a7,7,0,0,1,7,7v4.7a0,0,0,0,1,0,0H0a0,0,0,0,1,0,0V0A0,0,0,0,1,0,0Z" transform="translate(24.308)" fill="#aff5ed"></path><rect width="10.723" height="11.437" transform="translate(0.551 12.364)" fill="#aff5ed"></rect><path d="M0,0H1.723a9,9,0,0,1,9,9v2.437a0,0,0,0,1,0,0H0a0,0,0,0,1,0,0V0A0,0,0,0,1,0,0Z" transform="translate(24.308 12.364)" fill="#6ee8da"></path><path d="M0,0H10.722a0,0,0,0,1,0,0V10.722a0,0,0,0,1,0,0H7a7,7,0,0,1-7-7V0A0,0,0,0,1,0,0Z" transform="translate(0.55 24.567)" fill="#aff5ed"></path><path d="M0,0H10.722a0,0,0,0,1,0,0V3.722a7,7,0,0,1-7,7H0a0,0,0,0,1,0,0V0A0,0,0,0,1,0,0Z" transform="translate(24.308 24.567)" fill="#6ee8da"></path><g transform="translate(12.073 0)"><rect width="11.438" height="11.426" fill="#aff5ed"></rect><path d="M11.426,0h.012a0,0,0,0,1,0,0V11.426a0,0,0,0,1,0,0H0a0,0,0,0,1,0,0v0A11.426,11.426,0,0,1,11.426,0Z" fill="#6ee8da"></path><path d="M11.426,0h.012a0,0,0,0,1,0,0V0A11.426,11.426,0,0,1,.012,11.426H0a0,0,0,0,1,0,0v0A11.426,11.426,0,0,1,11.426,0Z" fill="#15af9e"></path></g><g transform="translate(12.073 12.364)"><rect width="11.437" height="11.437" fill="#aff5ed"></rect><path d="M0,0H11.437a0,0,0,0,1,0,0V11.437a0,0,0,0,1,0,0h0A11.437,11.437,0,0,1,0,0V0A0,0,0,0,1,0,0Z" fill="#6ee8da"></path><path d="M0,0H0A11.437,11.437,0,0,1,11.437,11.437v0a0,0,0,0,1,0,0h0A11.437,11.437,0,0,1,0,0V0A0,0,0,0,1,0,0Z" fill="#15af9e"></path></g><g transform="translate(12.073 24.567)"><rect width="11.437" height="10.722" fill="#aff5ed"></rect><path d="M0,0H11.437a0,0,0,0,1,0,0V10.722a0,0,0,0,1,0,0h-.715A10.722,10.722,0,0,1,0,0V0A0,0,0,0,1,0,0Z" fill="#6ee8da"></path><path d="M0,0H.715A10.722,10.722,0,0,1,11.437,10.722v0a0,0,0,0,1,0,0h-.715A10.722,10.722,0,0,1,0,0V0A0,0,0,0,1,0,0Z" fill="#15af9e"></path></g></g><g transform="translate(46.504 10.66)"><path d="M7.611,3.192A7.592,7.592,0,0,0,13.566.536l-.979-.783a6.5,6.5,0,0,1-4.976,2.1A5.434,5.434,0,0,1,1.992-3.266H14.433c.531-5.4-2.936-7.772-6.822-7.772A6.943,6.943,0,0,0,.594-3.909,6.773,6.773,0,0,0,7.611,3.192ZM1.992-4.468A5.52,5.52,0,0,1,7.611-9.78c3.327,0,5.564,1.9,5.592,5.312ZM26.147.145a5.849,5.849,0,0,1-4.11,1.705,5.469,5.469,0,0,1-5.759-5.759,5.469,5.469,0,0,1,5.759-5.759,5.856,5.856,0,0,1,4.138,1.65l.895-.867a7.183,7.183,0,0,0-5.032-2.069,6.749,6.749,0,0,0-7.1,7.045,6.81,6.81,0,0,0,7.1,7.045A7.065,7.065,0,0,0,27.07,1.068Zm8.136,3.047A6.75,6.75,0,0,0,41.3-3.881a6.843,6.843,0,0,0-7.017-7.185,6.843,6.843,0,0,0-7.017,7.185A6.75,6.75,0,0,0,34.283,3.192Zm0-1.342a5.459,5.459,0,0,1-5.675-5.731,5.6,5.6,0,0,1,5.675-5.9,5.6,5.6,0,0,1,5.675,5.9A5.459,5.459,0,0,1,34.283,1.85Z" transform="translate(-0.594 11.066)" fill="#aff5ed"></path><path d="M11.317,4.109A5.874,5.874,0,0,0,6.342,2.05c-2.745,0-5.261,1.411-5.28,4.06-.038,3.145,2.478,3.85,5.3,4.117,1.811.152,2.707.667,2.688,1.792,0,.953-1.086,1.582-2.669,1.582A5.3,5.3,0,0,1,2.3,11.714L.528,13.563c1.125,1.868,3.526,2.764,5.833,2.745,2.878-.019,5.623-1.315,5.623-4.289,0-3.088-2.5-4.1-5.127-4.327-1.716-.152-2.878-.381-2.878-1.6,0-.915,1.067-1.468,2.383-1.468A4.45,4.45,0,0,1,9.449,5.748Zm11.341,9.016H15.415V10.437h6.576V7.826H15.415V5.252h6.976V2.527H12.5V15.869h10.16Zm12.657,2.516-3.66-4.422c2.554-.915,3.069-2.459,3.088-4.193,0-2.345-1.716-4.5-4.937-4.5H23.478V15.869h2.974V11.485h2.154l3.412,4.384h3.3ZM29.806,5.081a1.961,1.961,0,0,1,2,2.02,1.853,1.853,0,0,1-1.963,1.868H26.451V5.081ZM48.048,2.527H44.712l-3.755,9.855L37.2,2.527H33.866l5.566,13.4H42.5Z" transform="translate(40.054 -2.05)" fill="#aff5ed"></path></g></g></svg> 