<?xml version="1.0" encoding="UTF-8"?> <svg xmlns="http://www.w3.org/2000/svg" width="100.434" height="88.51" viewBox="0 0 100.434 88.51"><path d="M171.11,241.509H71.064a.194.194,0,1,1,0-.389H171.11a.194.194,0,1,1,0,.389Z" transform="translate(-70.87 -161.426)" fill="#d1d3d4"></path><rect width="22.334" height="38.344" transform="translate(69.529 45.978)" fill="#fff"></rect><path d="M271.688,192.653H249.354a.194.194,0,0,1-.194-.194V154.114a.194.194,0,0,1,.194-.194h22.334a.194.194,0,0,1,.194.194v38.337a.194.194,0,0,1-.194.2Zm-22.139-.389h21.945V154.309H249.549Z" transform="translate(-179.825 -108.137)" fill="#231f20"></path><rect width="22.334" height="38.344" transform="translate(7.999 45.978)" fill="#fff"></rect><path d="M113.468,192.653H91.134a.194.194,0,0,1-.194-.194V154.114a.194.194,0,0,1,.194-.194h22.334a.194.194,0,0,1,.194.194v38.337a.194.194,0,0,1-.194.2Zm-22.139-.389h21.945V154.309H91.329Z" transform="translate(-83.135 -108.137)" fill="#231f20"></path><path d="M248.507,125.83l4.422,8.878H240.97Z" transform="translate(-174.82 -90.971)" fill="#231f20"></path><path d="M252.638,134.6H240.692a.2.2,0,0,1-.179-.113.191.191,0,0,1,.031-.206l7.537-8.878a.183.183,0,0,1,.171-.066.194.194,0,0,1,.152.105l4.418,8.878a.187.187,0,0,1,0,.187A.19.19,0,0,1,252.638,134.6Zm-11.538-.389h11.223l-4.149-8.33Z" transform="translate(-174.53 -90.668)" fill="#231f20"></path><path d="M173.02,124.876h28.471l10.329-15.136H184.943Z" transform="translate(-133.295 -81.138)" fill="#231f20"></path><path d="M201.174,124.764H172.7a.194.194,0,0,1-.152-.315l11.923-15.136a.191.191,0,0,1,.152-.074H211.5a.2.2,0,0,1,.171.105.191.191,0,0,1,0,.2l-10.329,15.132a.191.191,0,0,1-.163.086Zm-28.07-.389h27.981l10.064-14.747H184.72Z" transform="translate(-132.979 -80.832)" fill="#231f20"></path><path d="M192.509,113.52,184,124.545h21.128l8-11.025Z" transform="translate(-140.005 -83.448)" fill="#fff"></path><path d="M204.81,124.434H183.682a.194.194,0,0,1-.175-.109.206.206,0,0,1,0-.206l8.513-11.025a.191.191,0,0,1,.152-.074h20.611a.187.187,0,0,1,.171.1.191.191,0,0,1,0,.2l-8,11.025A.191.191,0,0,1,204.81,124.434Zm-20.732-.389h20.611l7.735-10.644H192.288Z" transform="translate(-139.687 -83.142)" fill="#231f20"></path><path d="M203.24,125.844a.194.194,0,0,1-.183-.132c-1.023-3.014-2.446-6.319-2.963-6.4h0c-.618,0-4.585,3.278-8.108,6.483a.2.2,0,0,1-.264-.288c1.221-1.108,7.292-6.58,8.408-6.58h.043c1,.152,2.757,5.133,3.274,6.658a.191.191,0,0,1-.124.245.16.16,0,0,1-.082.012Z" transform="translate(-144.685 -86.754)" fill="#d1d3d4"></path><path d="M226.811,128.809a.194.194,0,0,1-.187-.144c-.684-2.431-1.661-5.024-2.119-5.161s-2.59,1.789-4.324,3.64a.2.2,0,0,1-.284-.268c.887-.945,3.842-4.006,4.721-3.741s2.139,4.566,2.38,5.444a.194.194,0,0,1-.132.241Z" transform="translate(-161.909 -89.314)" fill="#d1d3d4"></path><path d="M252.486,127.368c-.478,0-.856-.229-.856-.521s.389-.517.856-.517.856.226.856.517S252.964,127.368,252.486,127.368Zm0-.941c-.412,0-.778.191-.778.42s.346.424.778.424.758-.194.758-.424-.346-.408-.758-.408Z" transform="translate(-181.334 -91.276)" fill="#a7a9ac"></path><path d="M259.783,117.507h-1.727a.049.049,0,0,1,0-.1h1.727a.049.049,0,0,1,0,.1Z" transform="translate(-185.233 -85.825)" fill="#a7a9ac"></path><path d="M245.923,136.659a.206.206,0,0,1-.117-.035.2.2,0,0,1-.043-.272l5.514-7.568a.194.194,0,0,1,.272-.043.2.2,0,0,1,.043.272l-5.514,7.583A.2.2,0,0,1,245.923,136.659Z" transform="translate(-177.727 -92.727)" fill="#fff"></path><path d="M220.1,118.051a.856.856,0,1,1,.856-.856A.856.856,0,0,1,220.1,118.051Zm0-1.322a.463.463,0,1,0,.331.136.467.467,0,0,0-.331-.136Z" transform="translate(-161.541 -85.171)" fill="#d1d3d4"></path><rect width="87.78" height="3.722" transform="translate(5.032 44.068)" fill="#fff"></rect><path d="M171.288,153.121H83.5a.194.194,0,0,1-.194-.194V149.2a.2.2,0,0,1,.194-.194h87.784a.2.2,0,0,1,.194.194v3.722a.194.194,0,0,1-.194.194ZM83.7,152.732h87.379v-3.337H83.7Z" transform="translate(-78.472 -105.136)" fill="#231f20"></path><path d="M161.12,192.877c.082.276-4.83,17.908-4.83,17.908l6.864,1.1,8.112-24.36Z" transform="translate(-123.071 -128.676)" fill="#fff"></path><path d="M162.846,211.788h-.031l-6.864-1.1a.2.2,0,0,1-.136-.086.225.225,0,0,1-.023-.159c1.917-6.868,4.772-17.255,4.826-17.838a.194.194,0,0,1,.105-.187l10.146-5.347a.2.2,0,0,1,.218.023.206.206,0,0,1,.058.21l-8.116,24.36A.191.191,0,0,1,162.846,211.788Zm-6.611-1.458,6.487,1.046,7.91-23.742-9.644,5.079c-.214,1.116-1.812,7.031-4.76,17.617Z" transform="translate(-122.763 -128.38)" fill="#231f20"></path><path d="M153.576,245.187l-1.046,3.29,16.438,1.272a6.833,6.833,0,0,0-3.733-3.364c-1.707-.6-3.547-1.314-3.547-1.314l-.832,1.983Z" transform="translate(-120.773 -163.84)" fill="#231f20"></path><path d="M168.685,249.639h0l-16.438-1.272a.194.194,0,0,1-.171-.253l1.046-3.29a.194.194,0,0,1,.233-.128l7.117,1.824.778-1.828a.191.191,0,0,1,.249-.105c.019,0,1.855.719,3.543,1.311a7,7,0,0,1,3.846,3.469.194.194,0,0,1,0,.191.187.187,0,0,1-.2.082ZM152.5,248l15.847,1.229a6.669,6.669,0,0,0-3.461-2.963c-1.388-.486-2.878-1.054-3.379-1.244l-.758,1.8a.2.2,0,0,1-.229.117l-7.1-1.812Z" transform="translate(-120.49 -163.536)" fill="#231f20"></path><path d="M113.151,201.88l-1.167,18.573s-3.943.136-4.931.828-1.793,3.827-1.793,3.827h1.229s.716-2.333,1.5-2.613a41.256,41.256,0,0,1,5.25-.389s2.154.832,2.5,2.259a3.607,3.607,0,0,1,.194,1.384H117.3a6.946,6.946,0,0,0-.272-1.89,5.645,5.645,0,0,0-1.295-1.707s2.252.047,3,.047,1.532,1.431,1.532,1.431h1.466s-1.532-2.582-2.524-2.765-3.535-.626-3.535-.626l-.692-17.306Z" transform="translate(-91.886 -137.446)" fill="#231f20"></path><path d="M117.034,225.667h-1.361a.21.21,0,0,1-.159-.078.2.2,0,0,1-.027-.175,4.118,4.118,0,0,0-.2-1.279c-.292-1.217-2.077-2-2.333-2.108a33.133,33.133,0,0,0-5.149.389c-.506.187-1.116,1.626-1.381,2.485a.2.2,0,0,1-.187.14H105a.2.2,0,0,1-.187-.245c.031-.128.832-3.212,1.867-3.936.914-.638,4.068-.821,4.861-.856l1.143-18.4a.2.2,0,0,1,.1-.159.2.2,0,0,1,.187,0l1.843,1.062a.191.191,0,0,1,.1.159l.688,17.15c.568.1,2.543.439,3.383.6,1.042.194,2.493,2.582,2.652,2.854a.194.194,0,0,1,0,.194.2.2,0,0,1-.171.1H120a.2.2,0,0,1-.171-.1c-.28-.513-.9-1.33-1.361-1.33-.529,0-1.812-.023-2.52-.035a4.492,4.492,0,0,1,1,1.435,6.927,6.927,0,0,1,.284,1.944A.194.194,0,0,1,117.034,225.667Zm-1.167-.389h.961a6.254,6.254,0,0,0-.257-1.633,5.4,5.4,0,0,0-1.244-1.626.2.2,0,0,1-.051-.214.21.21,0,0,1,.187-.124c.023,0,2.256.047,3,.047s1.435,1.069,1.645,1.431h1c-.521-.821-1.556-2.259-2.209-2.38-.976-.183-3.5-.618-3.531-.622a.194.194,0,0,1-.163-.187l-.681-17.2-1.478-.852L111.916,220.2a.194.194,0,0,1-.187.183c-1.081.039-4.056.253-4.826.778-.7.49-1.377,2.485-1.653,3.473h.832c.179-.548.817-2.333,1.556-2.6a41.483,41.483,0,0,1,5.316-.389h.074c.093.035,2.256.883,2.621,2.392a6.467,6.467,0,0,1,.226,1.244Zm-4.153-5.106Z" transform="translate(-91.608 -137.164)" fill="#231f20"></path><path d="M173.14,171.42s15.532.828,16.512,3.041-6.222,26.546-6.222,26.546,7.6,2.629,6.358,3.181-13.689-.552-13.689-.552L182,181.08l-15.369-1.034Z" transform="translate(-129.39 -118.831)" fill="#fff"></path><path d="M187.536,204.23c-3.648,0-10.737-.618-11.737-.708a.192.192,0,0,1-.171-.245l5.833-22.311-15.136-1.019a.21.21,0,0,1-.163-.113.191.191,0,0,1,.023-.2L172.7,171a.167.167,0,0,1,.163-.078c.039,0,3.936.21,7.9.692,8.124.98,8.618,2.1,8.781,2.466.961,2.174-5.444,24.111-6.152,26.5,2.065.719,6.421,2.333,6.452,3.131a.362.362,0,0,1-.253.35A7.167,7.167,0,0,1,187.536,204.23Zm-11.476-1.077c3.609.319,12.406.976,13.366.548h0c-.257-.471-3.453-1.812-6.354-2.812a.194.194,0,0,1-.121-.241c1.991-6.747,7-24.652,6.222-26.413s-11.877-2.683-16.24-2.921l-6.222,8.272,15.011,1.015a.2.2,0,0,1,.148.078.222.222,0,0,1,.031.163ZM189.461,203.682Z" transform="translate(-129.093 -118.523)" fill="#231f20"></path><path d="M169.82,118.392s7.98,9.956,11.391,9.679,13.179-12.549,13.179-12.549c1.766-2.108,3.741-4.783,2.477-7.688-.124-.28-.342-.579-.646-.556a.824.824,0,0,0-.354.144l-1.089.669c.035-.3-.346-.513-.638-.432a1.314,1.314,0,0,0-.669.583,8.1,8.1,0,0,0-1.8,5.126L180.254,119.2l-4.531-5.013" transform="translate(-131.339 -79.632)" fill="#fff"></path><path d="M180.785,127.945c-3.543,0-11.083-9.333-11.406-9.757a.194.194,0,0,1,.3-.241c.078.1,7.747,9.613,11.091,9.613h.132c3.29-.264,12.938-12.355,13.032-12.479,1.824-2.17,3.663-4.713,2.454-7.486-.047-.109-.21-.455-.451-.439a.642.642,0,0,0-.268.117l-1.1.665a.194.194,0,0,1-.3-.187.156.156,0,0,0-.07-.144.389.389,0,0,0-.319-.078,1.167,1.167,0,0,0-.564.509,7.977,7.977,0,0,0-1.766,5.009.194.194,0,0,1-.1.179l-11.418,5.833a.194.194,0,0,1-.233-.043L175.278,114a.194.194,0,0,1,0-.276.2.2,0,0,1,.276,0l4.426,4.892,11.181-5.7A8.367,8.367,0,0,1,193,107.793a1.517,1.517,0,0,1,.778-.661.778.778,0,0,1,.681.159.641.641,0,0,1,.132.159l.871-.533a.992.992,0,0,1,.443-.171c.338-.027.638.222.832.673,1.408,3.228-1.136,6.261-2.5,7.891-.389.5-9.847,12.339-13.3,12.619Z" transform="translate(-131.05 -79.307)" fill="#231f20"></path><path d="M98.053,128.746s-4.111,9.314-2.586,10.309,10.8,0,10.8,0L105.466,127" transform="translate(-85.694 -91.686)" fill="#fff"></path><path d="M98.687,139.361a8.8,8.8,0,0,1-3.64-.467c-.264-.171-1.073-.7.649-5.74.828-2.431,1.859-4.772,1.871-4.795a.194.194,0,1,1,.354.156c-1.556,3.543-3.663,9.4-2.66,10.053,1.167.778,7.778.264,10.5,0l-.778-11.865a.195.195,0,1,1,.389-.027l.805,12.056a.194.194,0,0,1-.175.206C105.73,138.952,101.81,139.361,98.687,139.361Z" transform="translate(-85.387 -91.376)" fill="#231f20"></path><path d="M109.915,163.2s-2.011,4.464.132,7.28,31.889,3.154,31.889,3.154l2.135-10.691-12.444-1.7-.723-3.7Z" transform="translate(-94.208 -110.355)" fill="#fff"></path><path d="M141.609,173.5h0c-.074,0-7.529-.089-15.167-.521-10.286-.583-15.972-1.5-16.9-2.722-2.186-2.87-.241-7.288-.156-7.474a.191.191,0,0,1,.128-.109l21-5.651a.183.183,0,0,1,.156.023.191.191,0,0,1,.086.124l.7,3.566,12.293,1.672a.187.187,0,0,1,.132.082.183.183,0,0,1,.031.148l-2.112,10.7A.194.194,0,0,1,141.609,173.5ZM109.72,163.04c-.253.618-1.742,4.519.148,7,1.641,2.154,21.28,2.956,31.582,3.08l2.065-10.333-12.227-1.664a.194.194,0,0,1-.163-.156l-.681-3.5Z" transform="translate(-93.873 -110.031)" fill="#231f20"></path><path d="M139.423,51.783a2.675,2.675,0,0,1-.778-.708,4.1,4.1,0,0,1-.622-1.381c-1.054-3.811-1.062-8.692,2.333-11.3a7.887,7.887,0,0,1,7.132-1.264c1.649.537,3.049,2.8,3.784,4.278.6,1.194,1.011,2.493,1.727,3.621a4.29,4.29,0,0,0,3.193,2.182,4.029,4.029,0,0,1-3.5.21,2.283,2.283,0,0,0,2.314.867,3.469,3.469,0,0,1-2.87.389,8.879,8.879,0,0,0-2.952-.389c-1.556.175-2.567,1.318-3.784,2.147C143.857,51.445,141.189,52.806,139.423,51.783Z" transform="translate(-111.528 -36.547)" fill="#fff"></path><path d="M140.6,51.988a3.045,3.045,0,0,1-1.556-.389h0a2.788,2.788,0,0,1-.844-.778,4.332,4.332,0,0,1-.653-1.462c-.513-1.867-1.867-8.221,2.392-11.5a8.062,8.062,0,0,1,7.315-1.3c1.766.572,3.2,2.975,3.889,4.356.233.467.443.953.642,1.423a15.375,15.375,0,0,0,1.073,2.186,4.2,4.2,0,0,0,3.037,2.088.191.191,0,0,1,.179.148.187.187,0,0,1-.093.214,4.231,4.231,0,0,1-2.839.463,2.061,2.061,0,0,0,1.524.257.194.194,0,0,1,.167.342,3.66,3.66,0,0,1-3.029.443c-.233-.043-.467-.1-.7-.152a6.58,6.58,0,0,0-2.189-.249,5.743,5.743,0,0,0-2.784,1.435c-.3.229-.6.463-.914.681A9.2,9.2,0,0,1,140.6,51.988Zm4.258-15.4a7.712,7.712,0,0,0-4.69,1.587c-4.064,3.138-2.753,9.283-2.252,11.1a3.932,3.932,0,0,0,.6,1.33,2.423,2.423,0,0,0,.727.657h0c1.874,1.089,4.888-.778,5.767-1.373.3-.206.6-.439.891-.665a5.988,5.988,0,0,1,2.983-1.513,6.856,6.856,0,0,1,2.333.257c.229.051.459.1.688.148a4.336,4.336,0,0,0,1.968,0,2.5,2.5,0,0,1-1.606-.972.194.194,0,0,1,0-.233.187.187,0,0,1,.226-.058,3.862,3.862,0,0,0,2.746.058,4.748,4.748,0,0,1-2.687-2.166,15.342,15.342,0,0,1-1.1-2.24c-.2-.463-.389-.945-.634-1.4-.537-1.069-1.972-3.613-3.667-4.161a7.389,7.389,0,0,0-2.283-.35Z" transform="translate(-111.244 -36.192)" fill="#231f20"></path><path d="M167.806,68.25s1.062,3.321.506,3.792-1.711-.268-1.711-.268" transform="translate(-129.372 -55.783)" fill="#fff"></path><path d="M167.54,72.093a2.9,2.9,0,0,1-1.334-.459.194.194,0,1,1,.21-.327c.272.171,1.124.6,1.478.284.268-.229-.078-2.038-.576-3.582a.2.2,0,0,1,.128-.245.194.194,0,0,1,.245.124c.257.809,1.054,3.5.455,4A.887.887,0,0,1,167.54,72.093Z" transform="translate(-129.071 -55.481)" fill="#231f20"></path><path d="M150.472,55.081c.906,1.291,0,3.228-.389,4.546q-.805,2.784-1.738,5.526c-.389,1.167-3.453.323-3.889-.179l-.832,4.787-6.444-2.228,2.073-5.806a4.044,4.044,0,0,0,3.939-1.466c1.867-2.065,3.166-7.331,3.166-7.331S149.589,53.817,150.472,55.081Z" transform="translate(-111.393 -46.421)" fill="#fff"></path><path d="M143.312,69.67h-.062L136.8,67.449a.187.187,0,0,1-.113-.1.225.225,0,0,1,0-.152l2.057-5.826a.191.191,0,0,1,.233-.121,3.843,3.843,0,0,0,3.745-1.412c1.758-1.944,3.111-7.191,3.111-7.245a.187.187,0,0,1,.089-.121.194.194,0,0,1,.148,0c.136.039,3.313.922,4.227,2.224h0c.809,1.167.288,2.722-.136,4.006-.082.249-.159.486-.226.708-.537,1.847-1.12,3.71-1.742,5.534a1.073,1.073,0,0,1-.894.649,5.308,5.308,0,0,1-3.037-.568l-.778,4.48a.183.183,0,0,1-.093.132A.175.175,0,0,1,143.312,69.67Zm-6.2-2.543,6.043,2.092.778-4.566a.194.194,0,0,1,.338-.093,4.661,4.661,0,0,0,2.952.657c.334-.066.537-.206.607-.416.618-1.816,1.206-3.671,1.738-5.514.066-.226.148-.467.229-.723.389-1.186.887-2.664.187-3.659s-3.111-1.8-3.819-2.014c-.261.992-1.466,5.339-3.162,7.214a4.268,4.268,0,0,1-3.959,1.556Z" transform="translate(-111.085 -46.135)" fill="#231f20"></path><path d="M163.578,78.835a1.569,1.569,0,0,1-2.038-1.225" transform="translate(-126.279 -61.503)" fill="#fff"></path><path d="M162.724,78.78a1.82,1.82,0,0,1-.953-.241,1.742,1.742,0,0,1-.778-1.2.2.2,0,1,1,.389-.078,1.369,1.369,0,0,0,.583.945,1.738,1.738,0,0,0,1.209.132.2.2,0,0,1,.105.389A2.294,2.294,0,0,1,162.724,78.78Z" transform="translate(-125.943 -61.191)" fill="#231f20"></path><path d="M154.8,63.955a2.641,2.641,0,0,0-.159-1.423,3.921,3.921,0,0,0-.436-1.034,1.291,1.291,0,0,0-.918-.587,1.167,1.167,0,0,0-.891.389,2.163,2.163,0,0,0-.49.856,4.142,4.142,0,0,0,.844,4.041l-.074-.14" transform="translate(-120.268 -51.297)" fill="#fff"></path><path d="M152.444,66.083a.2.2,0,0,1-.144-.062,4.367,4.367,0,0,1-.887-4.251,2.333,2.333,0,0,1,.537-.929A1.381,1.381,0,0,1,153,60.409a1.439,1.439,0,0,1,1.062.673,4.037,4.037,0,0,1,.463,1.085,2.82,2.82,0,0,1,.163,1.528.2.2,0,0,1-.241.14.194.194,0,0,1-.136-.237,2.516,2.516,0,0,0-.159-1.314,3.535,3.535,0,0,0-.412-.98,1.069,1.069,0,0,0-.778-.506.98.98,0,0,0-.739.315,1.972,1.972,0,0,0-.447.778,3.971,3.971,0,0,0,.634,3.663.21.21,0,0,1,.128.1l.07.14a.191.191,0,0,1-.062.249.183.183,0,0,1-.1.039Z" transform="translate(-119.96 -50.991)" fill="#231f20"></path><ellipse cx="0.688" cy="0.272" rx="0.688" ry="0.272" transform="translate(37.875 11.476) rotate(-77.39)" fill="#231f20"></ellipse><path d="M152.034,81.071a23.772,23.772,0,0,1-2.423-1.8s-.389,3.368,1.917,4.142Z" transform="translate(-118.974 -62.517)" fill="#231f20"></path><path d="M151.22,83.316a.175.175,0,0,1-.062,0c-2.419-.813-2.065-4.2-2.049-4.348a.2.2,0,0,1,.121-.159.2.2,0,0,1,.2.031,24.109,24.109,0,0,0,2.4,1.789.2.2,0,0,1,.086.2l-.506,2.333a.2.2,0,0,1-.093.128A.214.214,0,0,1,151.22,83.316Zm-1.742-3.939c0,.832.109,2.819,1.6,3.481l.428-1.987A24.135,24.135,0,0,1,149.478,79.377Z" transform="translate(-118.666 -62.228)" fill="#231f20"></path><path d="M108.16,121.626s.35-23.8,3.92-29.279,12.833-6.716,17.251-3.449,2.291,28.233,2.291,28.233S117.536,121.626,108.16,121.626Z" transform="translate(-93.658 -67.307)" fill="#15af9e"></path><path d="M154.481,88.11A25.791,25.791,0,0,1,161,91.956c3.057,2.539,9.508,13.459,9.508,13.459L162,110.568l-7.638-9.419Z" transform="translate(-121.892 -67.92)" fill="#15af9e"></path><path d="M109.862,91.92a9.347,9.347,0,0,0-6.809,5.39c-1.276,2.652-4.542,11.216-4.542,11.216l9.823,1.132Z" transform="translate(-87.761 -70.248)" fill="#15af9e"></path><path d="M160.132,127.48a.191.191,0,0,1-.156-.082l-7.587-10.333a.194.194,0,0,1,.039-.272.2.2,0,0,1,.272.043l7.587,10.333a.194.194,0,0,1-.156.311Z" transform="translate(-120.663 -85.426)" fill="#231f20"></path><path d="M230.6,105.042l1.9-5.892.591.171-1.194,5.81S231.055,105.94,230.6,105.042Z" transform="translate(-168.483 -74.666)" fill="#231f20"></path><path d="M230.885,105.357h-.132a.871.871,0,0,1-.626-.521.194.194,0,0,1,0-.148l1.886-5.9a.2.2,0,0,1,.241-.128l.591.171a.194.194,0,0,1,.136.226l-1.194,5.833a.187.187,0,0,1-.054.1A1.373,1.373,0,0,1,230.885,105.357Zm-.389-.642a.463.463,0,0,0,.307.249.856.856,0,0,0,.6-.237l1.147-5.573-.237-.066Z" transform="translate(-168.185 -74.363)" fill="#231f20"></path><path d="M117.867,79.473a12.468,12.468,0,0,0-10.216,1.944,7.229,7.229,0,0,0-2.578,3.5,4.581,4.581,0,0,0,.723,4.192c2.683,3.224,8.575,3.208,12.219,2.154,2.485-.716,9.843-4.208,7.817-7.638C124.373,81.172,120.492,80.037,117.867,79.473Z" transform="translate(-91.636 -62.436)" fill="#15af9e"></path><path d="M116.367,98.694a13.786,13.786,0,0,1-6.584-1.894.191.191,0,0,1-.062-.268.194.194,0,0,1,.268-.058c.047.031,4.857,3.022,9.411,1.295a11.872,11.872,0,0,0,4.756-3.718c1.388-1.556,2.7-3.026,4.962-3.232a.194.194,0,0,1,.21.179.191.191,0,0,1-.175.21c-2.108.191-3.313,1.556-4.706,3.111a12.428,12.428,0,0,1-4.912,3.823,8.944,8.944,0,0,1-3.169.552Z" transform="translate(-94.593 -69.575)" fill="#231f20"></path><path d="M108.766,129.687h0a.194.194,0,0,1-.187-.2c.284-6.156,1.556-15.015,1.556-15.1a.2.2,0,0,1,.222-.163.194.194,0,0,1,.163.218c0,.089-1.287,8.944-1.556,15.066A.194.194,0,0,1,108.766,129.687Z" transform="translate(-93.915 -83.873)" fill="#231f20"></path><path d="M184.833,249.609H193.1a4.122,4.122,0,0,1,2.835-2.279s7.537,3.185,6.428,3.838-18.111.583-18.111.583Z" transform="translate(-140.158 -165.221)" fill="#231f20"></path><path d="M185.674,251.639h-1.738a.191.191,0,0,1-.152-.074.194.194,0,0,1-.035-.171l.583-2.143a.194.194,0,0,1,.191-.144h8.143a4.215,4.215,0,0,1,2.928-2.279.179.179,0,0,1,.1,0c1.556.653,6.611,2.862,6.662,3.827a.389.389,0,0,1-.206.358C201.207,251.581,190.182,251.639,185.674,251.639Zm-1.482-.389c6.817.019,16.991-.1,17.761-.56,0-.482-3.294-2.174-6.358-3.473a3.978,3.978,0,0,0-2.629,2.162.194.194,0,0,1-.179.113h-8.116Z" transform="translate(-139.848 -164.91)" fill="#231f20"></path><path d="M111.342,154.873c5.262-1.108,8.789-3.57,6.72-6.891s-16.928-1.167-19.833-3.628-1.867-15.517-5.056-17.753-16.858-4.5-18.387-1.672,0,23.368,4.453,27.93S106.208,155.931,111.342,154.873Z" transform="translate(-72.912 -89.614)" fill="#231f20"></path><path d="M95.57,155.839h-.879c-5.911-.051-13.475-.646-15.944-3.166-4.4-4.542-6.121-25.1-4.468-28.163a2.883,2.883,0,0,1,1.944-1.167c4.227-1,14,.824,16.722,2.722,1.715,1.2,2.248,5.3,2.765,9.256.471,3.617.957,7.354,2.314,8.509,1.291,1.1,5.258,1.256,9.1,1.412,4.725.191,9.613.389,10.784,2.263a3.243,3.243,0,0,1,.389,3.111c-.778,1.8-3.337,3.239-7.237,4.06h0A91.217,91.217,0,0,1,95.57,155.839ZM79.179,123.471a13.071,13.071,0,0,0-2.878.268,2.451,2.451,0,0,0-1.68.957c-1.509,2.788.136,23.3,4.422,27.7,4.359,4.476,26.759,3.014,31.92,1.944h0c3.722-.778,6.257-2.178,6.961-3.834a2.893,2.893,0,0,0-.362-2.761c-1.062-1.7-5.833-1.894-10.469-2.081-4.083-.163-7.941-.319-9.333-1.5-1.47-1.252-1.944-4.9-2.446-8.754s-1.027-7.887-2.606-8.987C90.608,124.937,83.841,123.471,79.179,123.471Zm31.827,31.064Z" transform="translate(-72.575 -89.277)" fill="#231f20"></path><path d="M174.791,172.308h-.031l-12.538-2.193a.2.2,0,0,1,.066-.389l12.538,2.193a.2.2,0,0,1-.035.389Z" transform="translate(-126.596 -117.794)" fill="#d1d3d4"></path><path d="M282.941,215.832l-.389-.043c0-.113,1.225-11.371-2.672-16.372l.307-.237c1.68,2.154,2.656,5.616,2.893,10.286a43.836,43.836,0,0,1-.14,6.366Z" transform="translate(-198.598 -135.796)" fill="#231f20"></path><path d="M281.012,229.049a1.333,1.333,0,0,1,.039-.389c.929-5.892-.646-8.637-2.131-9.905l.253-.3c1.556,1.33,3.22,4.192,2.263,10.263-.023.148-.039.245-.039.284Z" transform="translate(-198.012 -147.578)" fill="#231f20"></path><path d="M270.411,212.275a2.225,2.225,0,0,0-1.034-.3,2.384,2.384,0,0,0-1.832.5c-.128.124-.241.334-.124.471a.463.463,0,0,0,.249.117,1.556,1.556,0,0,1,1.069,1.069c-.268-.2-.5-.451-.778-.649a1.31,1.31,0,0,0-.929-.3,1.555,1.555,0,0,0-.906.607,3.6,3.6,0,0,0-.618.906,1.668,1.668,0,0,0-.14,1.077,2.594,2.594,0,0,1,1.093-.074,1.291,1.291,0,0,1,.708.292.354.354,0,0,1,.124.187.311.311,0,0,1-.245.331.988.988,0,0,1-.451,0,7.931,7.931,0,0,0-.961-.136.945.945,0,0,0-.362.023.778.778,0,0,0-.389.8.474.474,0,0,0,.136.354c.159.124.389.035.576-.043a2.823,2.823,0,0,1,1.027-.218.237.237,0,0,1,.117.019.171.171,0,0,1,.031.253.463.463,0,0,1-.249.144,5.4,5.4,0,0,1-.817.191c-.159.023-.346.058-.424.2a.439.439,0,0,0-.043.2,2.489,2.489,0,0,0,.436,1.482.711.711,0,0,0,.187.2.805.805,0,0,0,.346.093,5.67,5.67,0,0,0,2.722-.389.241.241,0,0,0,.113-.082c.051-.089-.035-.194-.1-.272a1.6,1.6,0,0,1-.14-1.311.389.389,0,0,1,.1-.233.261.261,0,0,1,.35.054.657.657,0,0,1,.128.366,3.41,3.41,0,0,1-.109,1.373,6.953,6.953,0,0,0,1.3-.443,4.025,4.025,0,0,0,.949-.525,1.556,1.556,0,0,0,.579-.894.287.287,0,0,0-.019-.2.323.323,0,0,0-.117-.1,2.458,2.458,0,0,1-.918-1.081c-.039-.093-.058-.222.027-.268a.187.187,0,0,1,.113,0c.49.082.739.63,1.143.922a.206.206,0,0,0,.113.047.179.179,0,0,0,.132-.058,1.046,1.046,0,0,0,.315-.568,2.049,2.049,0,0,0-.07-1.295,1.466,1.466,0,0,0-.949-.852,1.676,1.676,0,0,0-.607-.027c-.07,0-.443.132-.494.086s.148-.327.194-.42A1.422,1.422,0,0,0,270.411,212.275Z" transform="translate(-189.429 -143.598)" fill="#231f20"></path><path d="M291.321,200.784a1.874,1.874,0,0,0-1.556.805,2.147,2.147,0,0,0-.272,1.346,6.222,6.222,0,0,0,.334,1.349,1.9,1.9,0,0,1,1.486-.968c.634-.054-.1.556-.214.684-.358.42-.7.852-1.038,1.287a.611.611,0,0,0-.058.828,3.974,3.974,0,0,0,1.167,1.489.482.482,0,0,0,.506.082.564.564,0,0,0,.171-.249,4.434,4.434,0,0,1,.719-1.073c.07-.082.183-.163.272-.1s.074.148.066.233l-.082.867a2.057,2.057,0,0,0,.054.937,1.762,1.762,0,0,0,1.408.937.922.922,0,0,0,.482,0c.311-.109.439-.478.494-.805a2.392,2.392,0,0,1,.509-1.167,4.352,4.352,0,0,0,.533,1.606,2.174,2.174,0,0,0,.572.688,2.053,2.053,0,0,0,.844.35,6.339,6.339,0,0,0,1.556.086,3.89,3.89,0,0,0,1.066-.136,1.443,1.443,0,0,0,.84-.634,1.639,1.639,0,0,0-.327-1.754c-.4-.49-.933-.856-1.346-1.334a3.764,3.764,0,0,1,1.4.731.521.521,0,0,0,.389.179.346.346,0,0,0,.179-.1c.615-.614-.093-1.653-.42-2.2a1.793,1.793,0,0,0-.871-.894,1.424,1.424,0,0,0-.7,0c-.35.058-2.084.848-1.346-.191a2.038,2.038,0,0,1,1.61-.7c.3.027.754.268.747-.292a1.05,1.05,0,0,0-.226-.548,12.02,12.02,0,0,0-.778-1.038.509.509,0,0,0-.292-.206.5.5,0,0,0-.292.082,6.634,6.634,0,0,1-2.31.863c-.187,0-.447-.058-.416-.241a.272.272,0,0,1,.121-.159c.494-.389,1.233-.222,1.738-.579a.607.607,0,0,0,.276-.436.869.869,0,0,0-.424-.626,3.687,3.687,0,0,0-1.855-.859,3.394,3.394,0,0,0-2.633,1.357c-.229.261-.389.937-.743.894a5.907,5.907,0,0,1-.653-.276A2.228,2.228,0,0,0,291.321,200.784Z" transform="translate(-204.463 -135.626)" fill="#231f20"></path><path d="M266.817,187.579a1.7,1.7,0,0,0-.509-1.034,2.394,2.394,0,0,0-2-.389,10.224,10.224,0,0,0-1.532.455c-.5.144-.649.257-.2.665.315.284,1.167,1.3.778,1.785s-1.042-.754-1.295-.961a1.851,1.851,0,0,0-1.229-.525,1.917,1.917,0,0,0-1.058.56,11.157,11.157,0,0,0-.863.852.431.431,0,0,0-.1.152c-.062.226.245.358.474.389.657.121,1.392.463,1.524,1.116-.677.167-1.314-.517-2.007-.443a1.575,1.575,0,0,0-1.108.984,2.5,2.5,0,0,0-.167,1.388,3.71,3.71,0,0,1,1.82-.156.315.315,0,0,1,.2.089.226.226,0,0,1-.089.3.6.6,0,0,1-.342.058h-1.128a.49.49,0,0,0-.315.074.443.443,0,0,0-.124.292,6.1,6.1,0,0,0-.019,1.556,1.322,1.322,0,0,0,.354.863,1.358,1.358,0,0,0,.6.257,7.91,7.91,0,0,0,1.738.218,1.369,1.369,0,0,1-.175-1.256c.233-.544.63-.229.649.264,0,.233-.043.463-.051.7a.245.245,0,0,0,.023.128.233.233,0,0,0,.089.07,1.427,1.427,0,0,0,1.011.132.65.65,0,0,0,.268-.121.844.844,0,0,0,.163-.778l-.159-1.4a.218.218,0,0,1,.039-.191c.07-.07.194,0,.268.054a1.26,1.26,0,0,1,.42,1.023c0,.222-.093.436-.109.653a.634.634,0,0,0,.233.587.778.778,0,0,0,.6.031,1.167,1.167,0,0,0,.681-.354,1.05,1.05,0,0,0,.128-.824,5.215,5.215,0,0,1-.163-.844c0-.576.591-1.4.688-.389a7.06,7.06,0,0,1-.058.988.288.288,0,0,0,0,.128.264.264,0,0,0,.222.105,2.458,2.458,0,0,0,1.326-.257,2.069,2.069,0,0,0,.723-.583,3.416,3.416,0,0,0,.362-.649c.471-1,1.221-1.781.346-2.851-.3-.366-.856-.463-1.136-.836-.331-.443.179-1.147.2-1.7a2.379,2.379,0,0,0,.012-.369Z" transform="translate(-184.913 -127.803)" fill="#231f20"></path><path d="M274.27,239h9.917l-.778,7.443a2.217,2.217,0,0,1-2.209,1.991h-3.963a2.217,2.217,0,0,1-2.2-1.991Z" transform="translate(-195.17 -160.13)" fill="#fff"></path><path d="M280.873,248.335h-3.978a2.415,2.415,0,0,1-2.407-2.174l-.778-7.443a.21.21,0,0,1,.051-.152.2.2,0,0,1,.152-.066h9.917a.191.191,0,0,1,.148.066.183.183,0,0,1,.051.152l-.778,7.443A2.411,2.411,0,0,1,280.873,248.335Zm-6.724-9.434.739,7.222a2.014,2.014,0,0,0,2.007,1.812h3.978a2.014,2.014,0,0,0,2.007-1.812l.743-7.222Z" transform="translate(-194.827 -159.824)" fill="#231f20"></path><path d="M290.444,219.024c0-.07-.778-7.194,2.722-12.934l.334.2c-3.426,5.623-2.664,12.616-2.656,12.686Z" transform="translate(-205.009 -140.018)" fill="#231f20"></path><path d="M267.1,198.559a.2.2,0,0,1-.132-.054.194.194,0,0,1,0-.276,17.525,17.525,0,0,1,5.363-3.5.195.195,0,1,1,.144.362,17.005,17.005,0,0,0-5.227,3.4A.2.2,0,0,1,267.1,198.559Z" transform="translate(-190.673 -133.067)" fill="#fff"></path><path d="M270.617,223.616a.194.194,0,0,1-.171-.284,16.174,16.174,0,0,1,2.777-3.772.191.191,0,0,1,.272,0,.194.194,0,0,1,0,.272,15.886,15.886,0,0,0-2.7,3.675A.2.2,0,0,1,270.617,223.616Z" transform="translate(-192.82 -148.215)" fill="#fff"></path><path d="M305.221,213.7a.2.2,0,0,1-.163-.086,25.3,25.3,0,0,0-4.989-5.483.194.194,0,0,1-.039-.272.2.2,0,0,1,.272-.039,26.007,26.007,0,0,1,5.079,5.577.194.194,0,0,1-.054.268A.179.179,0,0,1,305.221,213.7Z" transform="translate(-210.888 -141.053)" fill="#fff"></path><rect width="23.609" height="16.574" transform="translate(69.693 5.098)" fill="#fff"></rect><path d="M273.38,65.763H249.774a.194.194,0,0,1-.194-.194V48.994a.194.194,0,0,1,.194-.194H273.38a.194.194,0,0,1,.194.194V65.569A.194.194,0,0,1,273.38,65.763Zm-23.411-.389h23.217V49.189H249.969Z" transform="translate(-180.082 -43.897)" fill="#d1d3d4"></path><path d="M284.395,121.648a.2.2,0,0,1-.194-.163l-.957-6.207-1.672.739a.194.194,0,0,1-.257-.1.191.191,0,0,1,.1-.253l1.909-.824a.191.191,0,0,1,.171,0,.2.2,0,0,1,.1.14l1,6.436a.191.191,0,0,1-.163.222Z" transform="translate(-199.465 -84.241)" fill="#231f20"></path><path d="M289.673,133.041H284.8l-.264-10.481h5.4Z" transform="translate(-201.446 -88.972)" fill="#fff"></path><path d="M289.343,132.926h-4.869a.194.194,0,0,1-.194-.187L284,122.262a.2.2,0,0,1,.054-.14.2.2,0,0,1,.14-.062h5.4a.206.206,0,0,1,.194.2l-.264,10.5A.194.194,0,0,1,289.343,132.926Zm-4.667-.389h4.488l.253-10.092h-5.009Z" transform="translate(-201.116 -88.667)" fill="#231f20"></path><rect width="6.386" height="1.062" transform="translate(82.6 32.526)" fill="#fff"></rect><path d="M289.35,120.781h-6.386a.194.194,0,0,1-.194-.194v-1.062a.194.194,0,0,1,.194-.194h6.386a.194.194,0,0,1,.194.194v1.062A.194.194,0,0,1,289.35,120.781Zm-6.191-.389h6v-.673h-6Z" transform="translate(-200.364 -86.998)" fill="#231f20"></path><path d="M287.772,133.09a2.333,2.333,0,1,1,2.135-2.333A2.24,2.24,0,0,1,287.772,133.09Zm0-4.258a1.944,1.944,0,1,0,1.746,1.944A1.851,1.851,0,0,0,287.772,128.831Z" transform="translate(-201.874 -92.56)" fill="#d1d3d4"></path><path d="M260.426,66.117a4.344,4.344,0,0,1-1.4-.241,9.451,9.451,0,0,1-1.7-.723h0c-.132-.074-.261-.159-.389-.245a2.831,2.831,0,0,1-1.248-1.871,1.244,1.244,0,0,1,.132-.817,1.871,1.871,0,0,1,.856-.649,2.22,2.22,0,0,0,.622-.389c.389-.416.237-1.023.082-1.664-.043-.163-.082-.323-.113-.478a3.364,3.364,0,0,1,.739-2.831,3.426,3.426,0,0,1,2.889-1.124,4.047,4.047,0,0,1,3.267,1.991A3.376,3.376,0,0,1,264,60.318a1.863,1.863,0,0,0-.342,1.011,1.742,1.742,0,0,0,.486.84,2.2,2.2,0,0,1,.568,1.015c.093.638-.327,1.248-1.283,1.867A5.511,5.511,0,0,1,260.426,66.117Zm-2.9-1.307a8.972,8.972,0,0,0,1.629.7,4.476,4.476,0,0,0,4.076-.778c.817-.533,1.167-1.015,1.108-1.486a1.875,1.875,0,0,0-.482-.824,1.588,1.588,0,0,1-.2-2.259,3.014,3.014,0,0,0,.171-2.905,3.672,3.672,0,0,0-2.963-1.785,3.022,3.022,0,0,0-2.555,1,2.979,2.979,0,0,0-.649,2.5c.031.148.07.3.109.459a2.074,2.074,0,0,1-.175,2.022,2.508,2.508,0,0,1-.735.482,1.556,1.556,0,0,0-.692.5.871.871,0,0,0-.082.568,2.477,2.477,0,0,0,1.093,1.6,4.164,4.164,0,0,0,.35.229Z" transform="translate(-183.803 -47.727)" fill="#d1d3d4"></path><path d="M277.894,72.551a7.809,7.809,0,0,1-2.9-.6l-.194-.078a2.5,2.5,0,0,0-2.641.1,4.709,4.709,0,0,1-1.353.455,3.181,3.181,0,0,1-2.781-1.206h0a4.39,4.39,0,0,1-1.066-2.244,2.384,2.384,0,0,1,1.3-2.508,4.135,4.135,0,0,1,2.8.144,5.534,5.534,0,0,0,2.088.319,4.97,4.97,0,0,0,1.556-.537,8.826,8.826,0,0,1,.98-.416c1.556-.517,4.562,0,5.744,1.3a2.668,2.668,0,0,1,.642,2.555,3.741,3.741,0,0,1-2.454,2.481A5.518,5.518,0,0,1,277.894,72.551Zm-4.3-1.4h.093a3.776,3.776,0,0,1,1.264.354l.187.078a6.4,6.4,0,0,0,4.328.338,3.352,3.352,0,0,0,2.2-2.205,2.3,2.3,0,0,0-.556-2.2c-1.066-1.167-3.908-1.668-5.332-1.19a8.253,8.253,0,0,0-.937.389,5.34,5.34,0,0,1-1.661.587,5.911,5.911,0,0,1-2.24-.334,3.74,3.74,0,0,0-2.532-.159,2.011,2.011,0,0,0-1.062,2.1,4.025,4.025,0,0,0,.988,2.049,2.876,2.876,0,0,0,2.442,1.077,4.425,4.425,0,0,0,1.237-.424A3.862,3.862,0,0,1,273.589,71.151Z" transform="translate(-190.682 -54.274)" fill="#d1d3d4"></path><path d="M286.045,65.62a1.684,1.684,0,0,1-1.381-.579,2.586,2.586,0,0,0-.646-.471,2.66,2.66,0,0,0-.906-.245,2,2,0,0,1-1.466-.7,2.306,2.306,0,0,1-.432-1.874,3.111,3.111,0,0,1,1.439-2.069c2.049-1.206,5.853.051,7.093,1.832a2.132,2.132,0,0,1-.622,3.142,4.947,4.947,0,0,1-2.835.972h0Zm-1.4-6.043a3.543,3.543,0,0,0-1.793.42,2.722,2.722,0,0,0-1.252,1.8,1.886,1.886,0,0,0,.354,1.556,1.633,1.633,0,0,0,1.213.56,2.621,2.621,0,0,1,1.766.84,1.388,1.388,0,0,0,1.334.463h0a4.713,4.713,0,0,0,2.613-.883,1.788,1.788,0,0,0,.548-2.617,6.392,6.392,0,0,0-4.783-2.143Z" transform="translate(-199.385 -50.255)" fill="#d1d3d4"></path><path d="M137.916,68.393a1.505,1.505,0,0,0,0-2.333H135.89s.436,1.7,0,2.333Z" transform="translate(-110.604 -54.445)" fill="#231f20"></path><path d="M137.585,68.288h-2.026a.2.2,0,0,1-.175-.1.2.2,0,0,1,0-.2c.315-.455.086-1.719-.031-2.166a.222.222,0,0,1,.035-.171.2.2,0,0,1,.156-.074h2.026a.214.214,0,0,1,.14.058,1.882,1.882,0,0,1,.614,1.412,1.847,1.847,0,0,1-.63,1.206A.2.2,0,0,1,137.585,68.288Zm-1.723-.389h1.645a1.423,1.423,0,0,0,.428-.887,1.45,1.45,0,0,0-.447-1.054h-1.7a4.511,4.511,0,0,1,.07,1.941Z" transform="translate(-110.273 -54.145)" fill="#231f20"></path><path d="M123.843,64.928a1.454,1.454,0,0,0-.439-1.241,3.076,3.076,0,0,0-.509-.521,3.243,3.243,0,0,0-1.2-.474,12.251,12.251,0,0,0-3.014.082,7.669,7.669,0,0,1-3.026-.56,2.038,2.038,0,0,1-.859-.564,5.661,5.661,0,0,0,.6,4.153,5.4,5.4,0,0,0,2.722,1.878,4.383,4.383,0,0,0,4.367-.634,3.768,3.768,0,0,0,1.237-1.629A2.54,2.54,0,0,0,123.843,64.928Z" transform="translate(-97.632 -51.75)" fill="#fff"></path><path d="M119.482,67.922a5.277,5.277,0,0,1-1.766-.323,5.577,5.577,0,0,1-2.812-1.944,5.694,5.694,0,0,1-.63-4.278.2.2,0,0,1,.144-.156.191.191,0,0,1,.2.07,1.9,1.9,0,0,0,.778.506,7.642,7.642,0,0,0,2.967.5,9.254,9.254,0,0,0,1-.082,6.032,6.032,0,0,1,2.065,0,3.426,3.426,0,0,1,1.276.506,3.807,3.807,0,0,1,.541.552,1.637,1.637,0,0,1,.478,1.4h0a2.59,2.59,0,0,1-.144.529,4,4,0,0,1-1.3,1.715,4.472,4.472,0,0,1-2.8,1.007ZM114.6,61.781a5.1,5.1,0,0,0,.626,3.644,5.172,5.172,0,0,0,2.621,1.808,4.216,4.216,0,0,0,4.184-.6,3.6,3.6,0,0,0,1.167-1.556,2.4,2.4,0,0,0,.128-.451,1.283,1.283,0,0,0-.389-1.089,3.169,3.169,0,0,0-.482-.459,3.111,3.111,0,0,0-1.132-.439,5.736,5.736,0,0,0-1.944,0c-.342.035-.7.074-1.034.082a8.05,8.05,0,0,1-3.111-.572A3.068,3.068,0,0,1,114.6,61.781Zm8.921,2.882Z" transform="translate(-97.312 -51.484)" fill="#231f20"></path><rect width="16.512" height="10.904" transform="translate(50.217 3.04)" fill="#fff"></rect><path d="M216.207,54.8H199.694a.194.194,0,0,1-.194-.194V43.694a.194.194,0,0,1,.194-.194h16.512a.2.2,0,0,1,.194.194V54.607A.2.2,0,0,1,216.207,54.8Zm-16.333-.389h16.154V43.893H199.889Z" transform="translate(-149.477 -40.658)" fill="#d1d3d4"></path><rect width="16.512" height="2.158" transform="translate(50.217 13.949)" fill="#fff"></rect><path d="M216.207,74.107H199.694a.194.194,0,0,1-.194-.194V71.754a.194.194,0,0,1,.194-.194h16.512a.194.194,0,0,1,.194.194v2.158A.194.194,0,0,1,216.207,74.107Zm-16.333-.389h16.154V71.949H199.889Z" transform="translate(-149.477 -57.806)" fill="#d1d3d4"></path><path d="M204.549,56.53a.191.191,0,0,1-.152-.315c.187-.233,4.667-5.728,8.843-5.4a3.024,3.024,0,0,1,3.041,2.333,2.629,2.629,0,0,1-1.443,2.862,2.914,2.914,0,0,1-3-.023,2.259,2.259,0,0,1-.8-2.232,1.7,1.7,0,0,1,1.217-1.556,2.034,2.034,0,0,1,1.991.564.848.848,0,0,1,.128.953c-.3.572-.646.871-1.042.887-.634,0-1.1-.719-1.12-.751a.194.194,0,0,1,.066-.268.191.191,0,0,1,.264.066c.1.159.424.583.778.564s.552-.389.708-.677a.459.459,0,0,0-.086-.529,1.637,1.637,0,0,0-1.583-.436,1.33,1.33,0,0,0-.937,1.233,1.886,1.886,0,0,0,.646,1.863,2.571,2.571,0,0,0,2.609,0,2.232,2.232,0,0,0,1.206-2.458,2.653,2.653,0,0,0-2.687-2.007c-3.955-.327-8.451,5.2-8.493,5.254A.2.2,0,0,1,204.549,56.53Z" transform="translate(-152.442 -45.121)" fill="#d1d3d4"></path><path d="M211.137,89.574h-6.362a.194.194,0,0,1-.194-.194V84.324a.194.194,0,0,1,.194-.194h6.362a.194.194,0,0,1,.194.194V89.38A.194.194,0,0,1,211.137,89.574Zm-6.168-.389h5.973V84.519h-5.973Z" transform="translate(-152.582 -65.487)" fill="#d1d3d4"></path><path d="M212.954,84.488a.194.194,0,0,1-.194-.194V83.084a.194.194,0,0,1,.389,0v1.2a.194.194,0,0,1-.194.2Z" transform="translate(-157.581 -64.73)" fill="#d1d3d4"></path></svg> 