<?xml version="1.0" encoding="UTF-8"?> <!-- Generator: Adobe Illustrator 25.0.0, SVG Export Plug-In . SVG Version: 6.00 Build 0) --> <svg xmlns="http://www.w3.org/2000/svg" xmlns:xlink="http://www.w3.org/1999/xlink" version="1.1" id="Layer_1" x="0px" y="0px" viewBox="0 0 486.56 130.72" style="enable-background:new 0 0 486.56 130.72;" xml:space="preserve"> <style type="text/css"> .st0{fill:#5A3788;} .st1{fill:#F18E21;} </style> <g> <g> <path class="st0" d="M202.15,15.54c7.93,0,15.53-0.61,22.99,0.14c11.13,1.12,28.13,8.37,28.13,31.81s-17.76,30.61-28.61,31.54 c-7.32,0.63-14.73,0.12-22.51,0.12C202.15,65.54,202.15,29.47,202.15,15.54z M211.03,69.94c4.56,0,8.84,0.31,13.06-0.08 c5.61-0.52,19.79-6.27,19.79-21.21c0-19.07-12.66-22.59-18.25-23.53c-4.74-0.79-9.71-0.16-14.6-0.16 C211.03,32.52,211.03,62.41,211.03,69.94z"></path> <path class="st1" d="M96.62,63.13c0,5.3,0,10.43,0,15.88c-3.26,0-5.93,0-9,0c0-20.99,0-41.73,0-62.39 c10.31,0,20.57-1.41,30.28,0.31c16.39,2.91,22.87,22.36,13.06,36.3c-0.89,1.27-1.93,2.44-3.18,4.01 c19.94,10.28,39.7,19.66,62.41,8.43c0.98,1.8,1.75,3.14,2.44,4.51c0.46,0.9,0.81,1.86,1.44,3.3c-12.49,5.79-25.11,9.18-38.43,5.18 c-8.61-2.59-17.01-6.11-25.13-9.99C119.83,63.57,108.84,61.79,96.62,63.13z M96.85,25.39c0,9.48,0,18.59,0,27.98 c5.89,0,11.45,0.33,16.95-0.08c6.83-0.52,12.1-6.96,12.16-14.09c0.05-6.59-4.83-13.03-11.29-13.68 C108.88,24.93,102.98,25.39,96.85,25.39z"></path> <path class="st0" d="M358.32,79.12c-3.46,0-6,0-8.96,0c0-21.34,0-42.44,0-64.94c13.76,14.46,26.87,28.23,41.06,43.13 c0-14.73,0-28.31,0-41.71c3.08,0,5.6,0,8.52,0c0,21.14,0,42.56,0,64.89c-13.65-14.32-26.65-27.97-40.62-42.62 C358.32,52.32,358.32,65.41,358.32,79.12z"></path> <path class="st0" d="M297.51,15.76h-36.1v63.43h35.99v-9.06h-27.28V56.79h21.49V46.72h-21.52v-21.9h27.06 C297.14,24.82,297.51,16.01,297.51,15.76z"></path> <path class="st0" d="M341.67,15.76h-36.1v63.43h35.99v-9.06h-27.28V56.79h21.49V46.72h-21.52v-21.9h27.06 C341.3,24.82,341.67,16.01,341.67,15.76z"></path> <path class="st0" d="M47.8,15.23L14.17,79.43h10.92l4.37-8.73c0,0,4.32-7.32,31.83-7.32l7.86,16.06h10.97L47.8,15.23z M36.49,55.84l11.14-20.52l8.47,17.47C56.1,52.79,43.48,52.79,36.49,55.84z"></path> <path class="st0" d="M440.07,15.23l-33.62,64.19h10.92l4.37-8.73c0,0,4.32-7.32,31.83-7.32l7.86,16.06h10.97L440.07,15.23z M428.77,55.84l11.14-20.52l8.47,17.47C448.37,52.79,435.75,52.79,428.77,55.84z"></path> <path class="st0" d="M167.07,15.23l-21.5,41.05c2.11,0.85,4.23,1.62,6.36,2.29l2.39-4.78c0,0,3-5.09,22.14-5.09l5.4,11.03 c2.12-0.61,4.27-1.38,6.45-2.34L167.07,15.23z M159.21,43.48l7.74-14.27l5.89,12.15C172.84,41.35,164.07,41.35,159.21,43.48z"></path> </g> <g> <path class="st1" d="M169.04,103.46v4.63h7.36v2.4h-7.36v5.83h-2.82v-15.24h11.12v2.38H169.04z"></path> <path class="st1" d="M198.06,115.53c-1.25-0.66-2.23-1.6-2.94-2.81c-0.71-1.19-1.06-2.54-1.06-4.01s0.35-2.82,1.06-4.01 c0.71-1.21,1.69-2.14,2.94-2.82c1.24-0.66,2.65-1.01,4.2-1.01c1.56,0,2.95,0.34,4.2,1.01c1.25,0.68,2.23,1.61,2.94,2.81 c0.71,1.18,1.06,2.52,1.06,4.02c0,1.49-0.36,2.83-1.06,4.02c-0.71,1.19-1.69,2.13-2.94,2.79c-1.25,0.68-2.65,1.02-4.2,1.02 C200.71,116.55,199.3,116.2,198.06,115.53z M205,113.37c0.81-0.46,1.45-1.1,1.91-1.91c0.47-0.82,0.7-1.75,0.7-2.76 c0-1.02-0.23-1.93-0.7-2.76c-0.46-0.81-1.1-1.45-1.91-1.91c-0.81-0.47-1.73-0.69-2.74-0.69s-1.93,0.22-2.74,0.69 c-0.82,0.46-1.45,1.1-1.92,1.91c-0.46,0.82-0.7,1.74-0.7,2.76c0,1.01,0.23,1.93,0.7,2.76c0.47,0.81,1.1,1.45,1.92,1.91 c0.81,0.46,1.72,0.69,2.74,0.69S204.19,113.83,205,113.37z"></path> <path class="st1" d="M231.63,115.53c-1.25-0.66-2.23-1.6-2.94-2.81c-0.71-1.19-1.06-2.54-1.06-4.01s0.35-2.82,1.06-4.01 c0.71-1.21,1.69-2.14,2.94-2.82c1.24-0.66,2.65-1.01,4.2-1.01c1.56,0,2.95,0.34,4.2,1.01c1.25,0.68,2.23,1.61,2.94,2.81 c0.71,1.18,1.06,2.52,1.06,4.02c0,1.49-0.36,2.83-1.06,4.02c-0.71,1.19-1.69,2.13-2.94,2.79c-1.25,0.68-2.65,1.02-4.2,1.02 C234.28,116.55,232.87,116.2,231.63,115.53z M238.57,113.37c0.81-0.46,1.45-1.1,1.91-1.91c0.47-0.82,0.7-1.75,0.7-2.76 c0-1.02-0.23-1.93-0.7-2.76c-0.46-0.81-1.1-1.45-1.91-1.91c-0.81-0.47-1.73-0.69-2.74-0.69s-1.93,0.22-2.74,0.69 c-0.82,0.46-1.45,1.1-1.92,1.91c-0.46,0.82-0.7,1.74-0.7,2.76c0,1.01,0.23,1.93,0.7,2.76c0.47,0.81,1.1,1.45,1.92,1.91 c0.81,0.46,1.72,0.69,2.74,0.69S237.76,113.83,238.57,113.37z"></path> <path class="st1" d="M262.29,101.09h6.66c1.62,0,3.07,0.32,4.33,0.95c1.26,0.63,2.24,1.53,2.94,2.67c0.7,1.16,1.04,2.49,1.04,4 s-0.34,2.84-1.04,3.99c-0.7,1.16-1.68,2.06-2.94,2.68c-1.26,0.63-2.71,0.95-4.33,0.95h-6.66V101.09z M268.82,113.93 c1.11,0,2.1-0.21,2.95-0.64s1.5-1.03,1.96-1.82c0.46-0.8,0.68-1.71,0.68-2.76s-0.23-1.97-0.68-2.76c-0.46-0.79-1.11-1.4-1.96-1.82 c-0.85-0.43-1.83-0.65-2.95-0.65h-3.7v10.45H268.82z"></path> <path class="st1" d="M296.83,116.04c-1.1-0.33-1.96-0.78-2.6-1.33l0.98-2.2c0.62,0.5,1.39,0.9,2.3,1.22 c0.91,0.31,1.82,0.47,2.73,0.47c1.13,0,1.98-0.18,2.54-0.55c0.56-0.36,0.84-0.84,0.84-1.43c0-0.44-0.15-0.8-0.47-1.08 c-0.31-0.28-0.71-0.5-1.18-0.66c-0.48-0.16-1.13-0.33-1.96-0.54c-1.16-0.27-2.1-0.55-2.82-0.82c-0.72-0.28-1.34-0.71-1.85-1.29 c-0.51-0.59-0.77-1.39-0.77-2.39c0-0.85,0.23-1.61,0.68-2.3c0.46-0.69,1.15-1.23,2.07-1.64c0.92-0.41,2.05-0.62,3.38-0.62 c0.93,0,1.85,0.12,2.74,0.34c0.9,0.23,1.68,0.57,2.33,1.01l-0.89,2.19c-0.67-0.38-1.37-0.69-2.09-0.89 c-0.73-0.21-1.43-0.31-2.11-0.31c-1.12,0-1.95,0.2-2.49,0.57c-0.55,0.38-0.82,0.89-0.82,1.5c0,0.44,0.16,0.8,0.47,1.07 c0.31,0.27,0.71,0.49,1.19,0.65c0.48,0.16,1.13,0.34,1.96,0.54c1.13,0.26,2.06,0.54,2.79,0.82c0.73,0.28,1.35,0.71,1.86,1.29 c0.51,0.58,0.77,1.37,0.77,2.35c0,0.84-0.23,1.6-0.68,2.29c-0.46,0.68-1.15,1.22-2.08,1.62c-0.93,0.41-2.06,0.62-3.4,0.62 C299.05,116.55,297.92,116.38,296.83,116.04z"></path> </g> </g> </svg> 