<?xml version="1.0" encoding="UTF-8"?> <svg xmlns="http://www.w3.org/2000/svg" width="395.51" height="343.209" viewBox="0 0 395.51 343.209"><path d="M691.61,182.466h-1.88v-51.5a29.808,29.808,0,0,0-29.808-29.808H550.81A29.808,29.808,0,0,0,521,130.966V413.5a29.808,29.808,0,0,0,29.808,29.808H659.923A29.808,29.808,0,0,0,689.73,413.5V219.124h1.88Z" transform="translate(-362.109 -101.158)" fill="#e6e6e6"></path><path d="M669.62,116.917H655.378a10.576,10.576,0,0,1-9.793,14.57H583.076a10.576,10.576,0,0,1-9.792-14.57h-13.3a22.26,22.26,0,0,0-22.26,22.26V421.3a22.26,22.26,0,0,0,22.26,22.26H669.62a22.26,22.26,0,0,0,22.26-22.26h0V139.177a22.26,22.26,0,0,0-22.26-22.26Z" transform="translate(-370.603 -109.165)" fill="#fff"></path><path d="M622.4,239.666a4.233,4.233,0,0,1-3.162-1.377,5.274,5.274,0,0,1-1.251-4.038,6.1,6.1,0,0,1,1.637-3.681,4.915,4.915,0,0,1,3.56-1.577,4.435,4.435,0,0,1,3.306,1.457,5.176,5.176,0,0,1,1.273,3.957h0A5.879,5.879,0,0,1,626,238.265,5.227,5.227,0,0,1,622.4,239.666Zm.784-8.894a3.747,3.747,0,0,0-3.425,3.636,3.5,3.5,0,0,0,.791,2.68,2.442,2.442,0,0,0,1.85.8,3.636,3.636,0,0,0,3.592-3.636,3.4,3.4,0,0,0-.813-2.6,2.675,2.675,0,0,0-1.995-.88Zm3.694,3.558Z" transform="translate(-411.368 -166.108)" fill="#3f3d56"></path><path d="M616.925,239.491a9.706,9.706,0,0,1-9.807-10.75,11.787,11.787,0,0,1,11.531-10.6,9.983,9.983,0,0,1,7.619,2.975,9.425,9.425,0,0,1,2.228,7.316,6.485,6.485,0,0,1-2.32,4.847,3.9,3.9,0,0,1-2.951.846c-1.464-.26-3.083-1.59-2.829-4.484l.471-5.35a.889.889,0,0,1,1.772.156l-.471,5.35c-.127,1.439.384,2.4,1.367,2.576a2.146,2.146,0,0,0,1.558-.506,4.781,4.781,0,0,0,1.63-3.591,7.575,7.575,0,0,0-1.768-5.958,8.264,8.264,0,0,0-6.307-2.4,10,10,0,0,0-9.759,8.972,7.928,7.928,0,0,0,8.035,8.816,8.926,8.926,0,0,0,4.062-.737.889.889,0,1,1,.689,1.64A10.671,10.671,0,0,1,616.925,239.491Z" transform="translate(-405.833 -160.596)" fill="#3f3d56"></path><path d="M607.1,510.778a.889.889,0,0,1-.629-1.518l5.781-5.781a.889.889,0,1,1,1.258,1.258l-5.781,5.781A.886.886,0,0,1,607.1,510.778Zm14.675-2.223a.889.889,0,0,1-.629-1.518l4.892-4.892A.889.889,0,1,1,627.3,503.4l-4.892,4.892a.887.887,0,0,1-.629.26Zm-2.668,0a.887.887,0,0,1-.629-.26l-3.557-3.558a.889.889,0,1,1,1.258-1.258l3.558,3.558a.889.889,0,0,1-.629,1.518Z" transform="translate(-405.402 -304.756)" fill="#3f3d56"></path><path d="M648.214,500.907a2.223,2.223,0,1,1,2.224-2.223A2.224,2.224,0,0,1,648.214,500.907Zm0-2.668a.445.445,0,1,0,.445.445.445.445,0,0,0-.445-.445Z" transform="translate(-425.611 -302)" fill="#3f3d56"></path><path d="M632.846,516.275a2.223,2.223,0,1,1,2.224-2.224A2.224,2.224,0,0,1,632.846,516.275Zm0-2.668a.445.445,0,1,0,.445.445.445.445,0,0,0-.445-.445Z" transform="translate(-417.803 -309.808)" fill="#3f3d56"></path><path d="M620.19,503.619a2.223,2.223,0,1,1,2.223-2.224A2.224,2.224,0,0,1,620.19,503.619Zm0-2.668a.445.445,0,1,0,.445.445.445.445,0,0,0-.445-.445Z" transform="translate(-411.373 -303.378)" fill="#3f3d56"></path><path d="M603.014,520.8a2.223,2.223,0,1,1,2.224-2.223,2.224,2.224,0,0,1-2.224,2.223Zm0-2.668a.445.445,0,1,0,.445.445.445.445,0,0,0-.445-.445Z" transform="translate(-402.647 -312.105)" fill="#3f3d56"></path><path d="M754.388,644.6H735.711a3.116,3.116,0,0,1-3.113-3.113V628.149a3.116,3.116,0,0,1,3.113-3.113h18.677a3.116,3.116,0,0,1,3.113,3.113V641.49a3.116,3.116,0,0,1-3.113,3.113Zm-18.677-17.788a1.336,1.336,0,0,0-1.334,1.334V641.49a1.336,1.336,0,0,0,1.334,1.334h18.677a1.336,1.336,0,0,0,1.334-1.334V628.149a1.336,1.336,0,0,0-1.334-1.334Z" transform="translate(-469.615 -367.326)" fill="#3f3d56"></path><path d="M748.724,640.273a.888.888,0,0,1-.546-.187l-8-6.226a.889.889,0,0,1,1.092-1.4l7.458,5.8,7.459-5.8a.889.889,0,0,1,1.092,1.4l-8,6.226A.889.889,0,0,1,748.724,640.273Z" transform="translate(-473.289 -371)" fill="#3f3d56"></path><path d="M855.068,688.825l-102.882.041a.492.492,0,0,1,0-.984l102.882-.041a.492.492,0,1,1,0,.984Z" transform="translate(-479.317 -399.236)" fill="#ccc"></path><ellipse cx="6.887" cy="6.887" rx="6.887" ry="6.887" transform="translate(367.495 282.211)" fill="#163d77"></ellipse><path d="M849.052,420.825l-103.866.041a.492.492,0,0,1,0-.984l103.866-.041a.492.492,0,0,1,0,.984Z" transform="translate(-475.76 -263.072)" fill="#ccc"></path><ellipse cx="6.887" cy="6.887" rx="6.887" ry="6.887" transform="translate(367.495 150.866)" fill="#163d77"></ellipse><path d="M415.76,283.825l103.866.041a.492.492,0,0,0,0-.984l-103.866-.041a.492.492,0,0,0,0,.984Z" transform="translate(-308.388 -193.466)" fill="#ccc"></path><ellipse cx="6.887" cy="6.887" rx="6.887" ry="6.887" transform="translate(99.394 83.472)" fill="#163d77"></ellipse><path d="M415.76,554.825l103.866.041a.492.492,0,1,0,0-.984l-103.866-.041a.492.492,0,1,0,0,.984Z" transform="translate(-308.388 -331.154)" fill="#ccc"></path><ellipse cx="6.887" cy="6.887" rx="6.887" ry="6.887" transform="translate(99.394 216.784)" fill="#163d77"></ellipse><path d="M735.047,644.2a22.137,22.137,0,1,1,22.137-22.137A22.137,22.137,0,0,1,735.047,644.2Zm0-43.29A21.153,21.153,0,1,0,756.2,622.061a21.153,21.153,0,0,0-21.153-21.153Z" transform="translate(-459.612 -354.567)" fill="#ccc"></path><path d="M605.047,510.2a22.137,22.137,0,1,1,22.137-22.137A22.137,22.137,0,0,1,605.047,510.2Zm0-43.29A21.153,21.153,0,1,0,626.2,488.061,21.153,21.153,0,0,0,605.047,466.908Z" transform="translate(-393.562 -286.486)" fill="#ccc"></path><path d="M726.047,376.2a22.137,22.137,0,1,1,22.137-22.137A22.137,22.137,0,0,1,726.047,376.2Zm0-43.29A21.153,21.153,0,1,0,747.2,354.061,21.153,21.153,0,0,0,726.047,332.908Z" transform="translate(-455.039 -218.404)" fill="#ccc"></path><path d="M606.047,239.115a22.137,22.137,0,1,1,22.137-22.137,22.137,22.137,0,0,1-22.137,22.137Zm0-43.29A21.153,21.153,0,1,0,627.2,216.978a21.153,21.153,0,0,0-21.153-21.153Z" transform="translate(-394.07 -148.756)" fill="#ccc"></path><path d="M318.742,533.136a5.42,5.42,0,0,1-2.116-3.877,5.051,5.051,0,0,1-.013-.531L293.705,513.3a4.207,4.207,0,0,1-1.641-4.757l10.949-27.2a4.771,4.771,0,1,1,8.866,3.528l-8.84,22.476,17.838,16.2a5.15,5.15,0,0,1,.715-.11,5.412,5.412,0,0,1,1.468,10.706,5.606,5.606,0,0,1-1.056.1A5.344,5.344,0,0,1,318.742,533.136Z" transform="translate(-245.69 -292.79)" fill="#a0616a"></path><path d="M295.429,499.179a2.367,2.367,0,0,1,.05-1.972l5.227-10.683a6.581,6.581,0,1,1,12.555,3.949l-1.908,11.778a2.37,2.37,0,0,1-3.057,1.879l-11.405-3.625A2.367,2.367,0,0,1,295.429,499.179Z" transform="translate(-247.404 -294.611)" fill="#163d77"></path><path d="M170.907,659.924h6.031l2.869-23.262h-8.9Z" transform="translate(-86.833 -323.47)" fill="#a0616a"></path><path d="M365.781,781.106h11.878a7.569,7.569,0,0,1,7.569,7.569v.246H365.781Z" transform="translate(-283.245 -446.62)" fill="#2f2e41"></path><path d="M51.025,651.994l5.841,1.5,8.569-21.816-8.621-2.215Z" transform="translate(-25.924 -319.813)" fill="#a0616a"></path><path d="M244.984,771.767l11.5,2.956h0a7.569,7.569,0,0,1,5.447,9.215l-.061.238-18.835-4.84Z" transform="translate(-220.883 -441.876)" fill="#2f2e41"></path><ellipse cx="12.082" cy="12.082" rx="12.082" ry="12.082" transform="translate(55.319 152.704)" fill="#a0616a"></ellipse><path d="M313.261,503.51a43.648,43.648,0,0,1-7.249-9.954,16.094,16.094,0,0,1-.758-13.025,16.451,16.451,0,0,1,9.342-9.516,16.174,16.174,0,0,1,20.47,7.6c3.023,5.917,4.208,11.7,3.522,17.194-1.313,10.5-2.081,15.928-2.284,16.131l-.068.068-22.476,1Z" transform="translate(-251.971 -288.468)" fill="#163d77"></path><path d="M284.9,550.657l20.114-1a1.968,1.968,0,0,1,2.058,1.79l9.253,103.714a1.968,1.968,0,0,1-2,2.142l-7.858-.167a1.968,1.968,0,0,1-1.868-1.493l-15.012-60.489a1.968,1.968,0,0,0-3.7-.349l-28.448,61.786a1.968,1.968,0,0,1-2.284,1.081l-7.908-2.063a1.965,1.965,0,0,1-1.429-2.309c2.6-12.283,18.187-82.622,37.81-102.091A1.939,1.939,0,0,1,284.9,550.657Z" transform="translate(-222.272 -329.026)" fill="#2a4164"></path><path d="M368.106,525.967a5.42,5.42,0,0,1-3.324-2.909,5.1,5.1,0,0,1-.2-.494l-26.825-6.574a4.207,4.207,0,0,1-3.182-3.9l.888-29.308a4.771,4.771,0,1,1,9.539.25l-.539,24.146,22.334,9.05a5.283,5.283,0,0,1,.632-.351h0a5.416,5.416,0,1,1,.673,10.087Z" transform="translate(-267.392 -292.691)" fill="#a0616a"></path><path d="M329.915,496.071a2.367,2.367,0,0,1-.616-1.874l1.33-11.818a6.581,6.581,0,1,1,13.152-.5l2.164,11.733a2.369,2.369,0,0,1-2.247,2.8l-11.96.422A2.367,2.367,0,0,1,329.915,496.071Z" transform="translate(-264.702 -291.374)" fill="#163d77"></path><path d="M294.619,432.5l1.262-4.08.863,4.579,7.09-.188-.033-4.515,2.7,4.456,6.425-1.42a26.749,26.749,0,0,1-3.639-5.842,9.607,9.607,0,0,1-.377-6.867c2.028-5.4,9.716-3.886,13.922-3.931,1.227-.013,2.612-.1,3.415-1.1a4.318,4.318,0,0,0,.673-2.834,14.034,14.034,0,0,0-7.611-12.094,11.8,11.8,0,0,0-6.84-.927,12.367,12.367,0,0,0-3.489,1.1c-.982.48-2.014,1.623-3.072,1.592-.889-.026-2.066-.952-3.033-1.11a9.377,9.377,0,0,0-3.5.122,11.007,11.007,0,0,0-5.941,3.555c-3.286,3.818-4.263,9.445-3.69,14.625s2.511,10.052,4.427,14.839" transform="translate(-244.53 -251.758)" fill="#2a4164"></path><path d="M593.018,797.825H198.492a.492.492,0,0,1,0-.984H593.018a.492.492,0,0,1,0,.984Z" transform="translate(-198 -454.615)" fill="#e6e6e6"></path><path d="M956.078,770.817a9.5,9.5,0,0,0,3.136-4.721,4.233,4.233,0,0,0-2.189-4.811c-2.009-.776-4.157.621-5.782,2.026s-3.5,3.014-5.627,2.712a8.551,8.551,0,0,0,2.622-8.012,3.267,3.267,0,0,0-.735-1.633c-1.111-1.192-3.136-.678-4.476.261-4.247,2.989-5.431,8.755-5.448,13.95-.433-1.878-.073-3.831-.082-5.717s-.539-4.084-2.156-5.08a6.535,6.535,0,0,0-3.267-.776c-1.911-.065-4.035.123-5.341,1.519-1.633,1.732-1.2,4.647.212,6.534s3.553,3.1,5.521,4.427a12.184,12.184,0,0,1,3.953,3.765,3.6,3.6,0,0,1,.294.67h11.965A33.3,33.3,0,0,0,956.078,770.817Z" transform="translate(-567.716 -433.704)" fill="#f2f2f2"></path><path d="M730.744,377.086a1.337,1.337,0,0,1-1.215-1.882l1.539-3.434a11.515,11.515,0,1,1,4.353,2.424l-3.928,2.659A1.333,1.333,0,0,1,730.744,377.086Zm7.943-23.744a9.861,9.861,0,0,0-6.143,17.579l.485.387-1.656,3.7,3.8-2.573.375.126a9.864,9.864,0,1,0,3.139-19.214Z" transform="translate(-466.872 -228.424)" fill="#3f3d56"></path><ellipse cx="1.6" cy="1.6" rx="1.6" ry="1.6" transform="translate(270.215 132.651)" fill="#3f3d56"></ellipse><ellipse cx="1.6" cy="1.6" rx="1.6" ry="1.6" transform="translate(265.682 132.651)" fill="#3f3d56"></ellipse><ellipse cx="1.6" cy="1.6" rx="1.6" ry="1.6" transform="translate(274.749 132.651)" fill="#3f3d56"></ellipse></svg> 