<?xml version="1.0" encoding="UTF-8"?> <svg xmlns="http://www.w3.org/2000/svg" width="81.002" height="89" viewBox="0 0 81.002 89"><path d="M121.311,196.049a25.146,25.146,0,0,0,3.556-8.389s-5.836,1.164-6.114,6.166C118.412,200,121.311,196.049,121.311,196.049Z" transform="translate(-108.742 -128.999)" fill="#fff"></path><path d="M119.343,197.176a.788.788,0,0,1-.263-.045c-.676-.244-.946-1.427-.826-3.62.285-5.085,6.2-6.328,6.264-6.339a.169.169,0,0,1,.165.049.184.184,0,0,1,.056.165,25.45,25.45,0,0,1-3.586,8.464h0C121.04,196,120.154,197.176,119.343,197.176Zm4.976-9.568c-1.127.308-5.456,1.746-5.689,5.926-.143,2.591.3,3.143.578,3.245.518.184,1.374-.785,1.637-1.127a25.666,25.666,0,0,0,3.474-8.044ZM121,195.741Z" transform="translate(-108.43 -128.691)" fill="#231f20"></path><path d="M112.606,188.425a12.978,12.978,0,0,0,1.878-6.722,12.34,12.34,0,0,0-1.878-6.613,16.587,16.587,0,0,0-3.778,7.612c-.834,4.506.9,7.834,2.336,6.76Z" transform="translate(-102.425 -121.149)" fill="#fff"></path><path d="M110.293,189.551a1.127,1.127,0,0,1-.608-.188c-1.172-.751-2-3.556-1.363-7.007a16.944,16.944,0,0,1,3.827-7.706.192.192,0,0,1,.15-.06.184.184,0,0,1,.139.079,12.392,12.392,0,0,1,1.926,6.722,13.038,13.038,0,0,1-1.923,6.827.128.128,0,0,1-.045.045l-1.438,1.055a1.126,1.126,0,0,1-.665.233Zm1.968-14.462a16.565,16.565,0,0,0-3.568,7.334c-.6,3.252.15,5.967,1.19,6.624a.71.71,0,0,0,.852-.03l1.412-1.036a12.952,12.952,0,0,0,1.84-6.591A12.392,12.392,0,0,0,112.261,175.089Zm.026,13.023Z" transform="translate(-102.107 -120.837)" fill="#231f20"></path><path d="M102.539,193.015s.834-5.5-.834-8.262a10.991,10.991,0,0,0-4.668-4s-1.776,4.112,0,7.225A15.2,15.2,0,0,0,102.539,193.015Z" transform="translate(-94.705 -124.684)" fill="#fff"></path><path d="M102.234,192.866a.173.173,0,0,1-.086-.023,15.325,15.325,0,0,1-5.577-5.13c-1.784-3.124-.083-7.218,0-7.39a.188.188,0,0,1,.244-.1,10.894,10.894,0,0,1,4.758,4.078c1.679,2.8.89,8.175.856,8.4a.2.2,0,0,1-.1.143A.24.24,0,0,1,102.234,192.866Zm-5.4-12.216c-.3.811-1.442,4.247.064,6.88a14.651,14.651,0,0,0,5.186,4.848c.139-1.127.56-5.539-.845-7.886A10.461,10.461,0,0,0,96.833,180.65Z" transform="translate(-94.4 -124.348)" fill="#231f20"></path><path d="M131,121.045V56.92H113.536L92.66,68.629v16L112.266,74.39v46.656H92.66v14.3h57.073v-14.3Z" transform="translate(-92.465 -47.356)" fill="#fff"></path><path d="M149.408,135.221H92.328a.188.188,0,0,1-.188-.188v-14.3a.192.192,0,0,1,.188-.188h19.419V74.385l-19.325,10.1a.188.188,0,0,1-.184,0,.184.184,0,0,1-.09-.158V68.317a.192.192,0,0,1,.1-.165l20.872-11.709a.188.188,0,0,1,.09-.023h17.466a.188.188,0,0,1,.188.188v63.934H149.4a.188.188,0,0,1,.188.188v14.3a.188.188,0,0,1-.184.188Zm-56.885-.376h56.7V120.917H130.677a.188.188,0,0,1-.188-.188V56.8H113.26L92.523,68.437V84.018l19.332-10.105a.182.182,0,0,1,.274.161v46.656a.188.188,0,0,1-.188.188H92.523Z" transform="translate(-92.14 -47.043)" fill="#231f20"></path><path d="M244.37,205.322,246,222.746h5.017l-1.45-19.486Z" transform="translate(-187.203 -138.741)" fill="#fff"></path><path d="M250.7,222.608h-5.017a.192.192,0,0,1-.188-.169l-1.63-17.425a.188.188,0,0,1,.116-.192l5.2-2.065a.192.192,0,0,1,.169,0,.2.2,0,0,1,.09.146l1.45,19.486a.188.188,0,0,1-.188.2Zm-4.844-.376H250.5l-1.416-19.021-4.829,1.919Z" transform="translate(-186.89 -138.415)" fill="#231f20"></path><path d="M292,71.117l1.232-2.584s-1-1.266-.616-1.957.792-1.878,1.322-1.926a9.123,9.123,0,0,1,.954-.045,30.952,30.952,0,0,1,1.573-3.785.522.522,0,0,1,.646.68c-.177.571-.822,3.151-.822,3.151s1.7.751,1.468,1.926-1.235,2.31-1.7,3.188-1.724,4.1-1.724,4.1Z" transform="translate(-216.947 -49.776)" fill="#fff"></path><path d="M293.988,73.776a.184.184,0,0,1-.143-.064l-2.351-2.749a.184.184,0,0,1-.026-.2l1.183-2.482c-.244-.334-.943-1.386-.563-2.069.09-.161.184-.376.278-.552.338-.7.683-1.423,1.19-1.472.376-.038.672-.045.841-.045,1.326-3.646,1.547-3.737,1.63-3.755a.751.751,0,0,1,.725.161.683.683,0,0,1,.173.751c-.146.484-.638,2.437-.781,3,.432.222,1.656.95,1.435,2.069a6.936,6.936,0,0,1-1.175,2.362c-.207.315-.406.612-.548.879-.458.86-1.679,4.048-1.694,4.078a.188.188,0,0,1-.143.12Zm-2.129-2.967,2.065,2.418c.319-.819,1.209-3.094,1.6-3.827a10.513,10.513,0,0,1,.567-.92,6.89,6.89,0,0,0,1.127-2.227c.2-1.029-1.344-1.716-1.359-1.724a.184.184,0,0,1-.109-.218c.026-.105.65-2.587.826-3.158a.327.327,0,0,0-.068-.376.413.413,0,0,0-.3-.1,33.79,33.79,0,0,0-1.5,3.684.184.184,0,0,1-.18.124,9.177,9.177,0,0,0-.931.041c-.3.03-.638.751-.89,1.262-.1.207-.192.406-.285.575-.263.473.342,1.42.6,1.746a.176.176,0,0,1,.023.2Z" transform="translate(-216.603 -49.499)" fill="#231f20"></path><path d="M207.214,206.51l-3,18.266h5.017c-.143.376,4.717-18.266,4.717-18.266Z" transform="translate(-162.124 -140.77)" fill="#fff"></path><path d="M208.9,224.661h-5.013a.184.184,0,0,1-.143-.068.2.2,0,0,1-.041-.15l3-18.266a.188.188,0,0,1,.184-.158h6.726a.184.184,0,0,1,.15.075.192.192,0,0,1,.034.161c-1.581,6.061-4.563,17.533-4.713,18.221a.188.188,0,0,1-.192.188Zm-4.792-.376h4.664c.064-.376.259-1.127.668-2.715.439-1.712,1.033-4,1.622-6.279l2.317-8.9H207.06Z" transform="translate(-161.809 -140.464)" fill="#231f20"></path><path d="M210.1,131.74s-2.813,8.457-4.833,30.793l21.942.424s1.224-21.247-1.941-30.947Z" transform="translate(-162.786 -94.079)" fill="#231f20"></path><path d="M226.9,162.829h0l-21.942-.424a.218.218,0,0,1-.139-.064.176.176,0,0,1-.045-.143c2-22.1,4.814-30.745,4.844-30.827a.2.2,0,0,1,.18-.131l15.164.267a.2.2,0,0,1,.177.131c3.143,9.621,1.964,30.793,1.953,31.011A.188.188,0,0,1,226.9,162.829Zm-21.739-.8,21.563.417c.105-2.08,1.01-21.435-1.9-30.568l-14.89-.263C209.577,132.772,207.027,141.593,205.164,162.033Z" transform="translate(-162.478 -93.766)" fill="#231f20"></path><path d="M231.575,99.053c-.774-5.1-4.131-20.853-4.131-20.853a8.345,8.345,0,0,1-4.735.169s-5.164,16.553-6.039,20.684Z" transform="translate(-169.905 -60.644)" fill="#231f20"></path><path d="M231.266,98.928h-14.9a.184.184,0,0,1-.143-.068.173.173,0,0,1-.038-.158c.856-4.093,6.008-20.538,6.057-20.7a.188.188,0,0,1,.094-.113.18.18,0,0,1,.146,0,8.344,8.344,0,0,0,4.623-.173.192.192,0,0,1,.15,0,.188.188,0,0,1,.086.12c.034.158,3.346,15.821,4.131,20.868a.2.2,0,0,1-.2.225Zm-14.672-.376h14.45c-.77-4.927-3.65-18.626-4.033-20.433a8.787,8.787,0,0,1-4.469.169C221.99,80.065,217.525,94.384,216.594,98.553Z" transform="translate(-169.596 -60.332)" fill="#231f20"></path><path d="M241.285,80.526l-4.2,7.022-6.639-8.156c-.894-1.54-5.145-1.54-5.145-1.54s-6.576-.443-7.886,0c0,0-5.19,1.588-6.219,2.723s1.878,6.346,2,11.814a30.569,30.569,0,0,1-2.212,10.969l6.9,1.964A128.014,128.014,0,0,0,219.2,92.254V78.029l4.69.15s-.154,8.235-.376,14.552c-.312,8.235,1.48,12.591,1.48,12.591l6.275-1.656s-2.05-7.45-2.024-11.412a26.33,26.33,0,0,1,.338-3.5c2.1,2.58,5.941,8.363,8.979,7.135,2.276-.905,6.594-12.584,6.594-12.584Z" transform="translate(-166.348 -60.304)" fill="#15af9e"></path><path d="M224.617,34.541h-.023c-.146.1-.657.7-.789.706-2.726.083-3.853,2.467-3.808,4.912a15.919,15.919,0,0,0,1.957,7.334l.06-.913a5.344,5.344,0,0,0,1.818,2.659,3.68,3.68,0,0,1,.826-1.652l2.5,1.791a.751.751,0,0,0,.443.192.837.837,0,0,0,.417-.2c1.044-.751,2.482-1.2,2.854-2.426a7.32,7.32,0,0,0,.548,1.7c1.438-.852,1.915-2.678,2.193-4.326a14.27,14.27,0,0,0,.274-3.9,8.875,8.875,0,0,0-.751-3.38,6.8,6.8,0,0,0-7.315-3.1,4.229,4.229,0,0,0-1.209.6Z" transform="translate(-171.983 -32.881)" fill="#fff"></path><path d="M227.285,49.518a.943.943,0,0,1-.537-.225l-2.362-1.69a3.417,3.417,0,0,0-.676,1.435.2.2,0,0,1-.12.139.184.184,0,0,1-.18-.03,5.509,5.509,0,0,1-1.57-1.953v.071a.2.2,0,0,1-.15.173.188.188,0,0,1-.2-.094,16.091,16.091,0,0,1-1.979-7.42c-.041-2.291.973-4.995,3.962-5.1a4.421,4.421,0,0,0,.409-.376,3.05,3.05,0,0,1,.3-.293h.026a4.285,4.285,0,0,1,1.251-.612,6.991,6.991,0,0,1,7.533,3.192,7.837,7.837,0,0,1,.725,3.042l.041.4A14.472,14.472,0,0,1,233.5,44.1c-.289,1.7-.789,3.568-2.283,4.458a.2.2,0,0,1-.154,0,.188.188,0,0,1-.113-.1,7.542,7.542,0,0,1-.439-1.2,4.92,4.92,0,0,1-1.814,1.461c-.3.173-.6.349-.871.541a.988.988,0,0,1-.518.229Zm-2.933-2.358a.191.191,0,0,1,.109.038l2.5,1.784a.612.612,0,0,0,.327.154.635.635,0,0,0,.285-.154c.3-.21.616-.376.92-.567.837-.484,1.63-.943,1.878-1.769a.188.188,0,0,1,.188-.135.2.2,0,0,1,.176.154,7.267,7.267,0,0,0,.447,1.457c1.228-.852,1.664-2.535,1.926-4.082a14.206,14.206,0,0,0,.255-3.857l-.041-.4a7.681,7.681,0,0,0-.683-2.9,6.562,6.562,0,0,0-7.1-3,3.969,3.969,0,0,0-1.127.56h0l-.105-.154.1.161a3.005,3.005,0,0,0-.267.255c-.349.353-.492.488-.635.492-2.741.083-3.665,2.595-3.628,4.72a15.723,15.723,0,0,0,1.626,6.662v-.248a.186.186,0,0,1,.364-.041,5.167,5.167,0,0,0,1.528,2.377,3.834,3.834,0,0,1,.8-1.435.18.18,0,0,1,.154-.064ZM223.5,35.008Z" transform="translate(-171.677 -32.627)" fill="#231f20"></path><path d="M248.19,55.376c.278-1.611,2.955-1.979,2.805-.079a2.8,2.8,0,0,1-.751,1.776,1.66,1.66,0,0,1-1.8.4" transform="translate(-189.589 -45.541)" fill="#fff"></path><path d="M248.743,57.41a1.6,1.6,0,0,1-.653-.135.188.188,0,0,1-.09-.252.184.184,0,0,1,.248-.09,1.48,1.48,0,0,0,1.588-.376,2.647,2.647,0,0,0,.68-1.656.877.877,0,0,0-.751-1.07,1.543,1.543,0,0,0-1.664,1.194.19.19,0,0,1-.376-.064,1.9,1.9,0,0,1,2.08-1.5,1.239,1.239,0,0,1,1.093,1.472,2.978,2.978,0,0,1-.785,1.878A1.964,1.964,0,0,1,248.743,57.41Z" transform="translate(-189.297 -45.187)" fill="#231f20"></path><path d="M225.782,55.119c-.24-1.615-2.91-2.039-2.8-.139a2.8,2.8,0,0,0,.695,1.791,1.66,1.66,0,0,0,1.788.436" transform="translate(-173.846 -45.359)" fill="#fff"></path><path d="M224.6,57.192a1.949,1.949,0,0,1-1.386-.608,3,3,0,0,1-.751-1.908,1.24,1.24,0,0,1,1.127-1.45,1.9,1.9,0,0,1,2.047,1.551.19.19,0,1,1-.376.053,1.54,1.54,0,0,0-1.637-1.228.873.873,0,0,0-.789,1.051,2.6,2.6,0,0,0,.642,1.671,1.472,1.472,0,0,0,1.577.4.188.188,0,1,1,.15.345A1.555,1.555,0,0,1,224.6,57.192Z" transform="translate(-173.521 -45.044)" fill="#231f20"></path><path d="M232.663,68.5s1.483,1.386,2.512,1.363a4.089,4.089,0,0,0,2.178-1.213l-.064-1.127-.15-2.629-.146-2.452-4.2-.045-.161,2-.049.646Z" transform="translate(-179.841 -50.778)" fill="#fff"></path><path d="M234.821,69.754c-1.093,0-2.557-1.356-2.629-1.416a.18.18,0,0,1-.06-.131l-.083-3.444.214-2.67a.184.184,0,0,1,.184-.173h0l4.2.045a.188.188,0,0,1,.184.18l.376,6.2a.184.184,0,0,1-.053.143,4.209,4.209,0,0,1-2.31,1.269Zm-2.306-1.637a4.794,4.794,0,0,0,2.3,1.262h.023a3.585,3.585,0,0,0,1.99-1.1l-.346-5.952-3.853-.041-.2,2.471Z" transform="translate(-179.51 -50.478)" fill="#231f20"></path><path d="M232.58,68.4a3.973,3.973,0,0,0,1.367,1.4,5.353,5.353,0,0,0,3.342,1.067l-.15-2.629a9.05,9.05,0,0,1-2.426,0,6.234,6.234,0,0,1-2.084-.488Z" transform="translate(-179.841 -54.119)" fill="#231f20"></path><path d="M236.59,70.772a6.231,6.231,0,0,1-3.061-1.127,4.131,4.131,0,0,1-1.427-1.472.2.2,0,0,1-.023-.1l.049-.65a.2.2,0,0,1,.1-.15.176.176,0,0,1,.173,0,6.031,6.031,0,0,0,2.024.469,8.637,8.637,0,0,0,2.373,0,.188.188,0,0,1,.146.041.176.176,0,0,1,.068.135l.154,2.629a.192.192,0,0,1-.158.2A2.565,2.565,0,0,1,236.59,70.772Zm-4.131-2.726a3.808,3.808,0,0,0,1.277,1.284,5.512,5.512,0,0,0,3.042,1.059l-.128-2.253A9.5,9.5,0,0,1,234.4,68.1a6.9,6.9,0,0,1-1.9-.394Z" transform="translate(-179.528 -53.806)" fill="#231f20"></path><path d="M232.2,53.642h.432a3.691,3.691,0,0,0,3.733-3.65c0-1.168.041-3.5.041-3.5s-2.065-.5-3.4-1.006a5.106,5.106,0,0,1-2.85-2.065,9.055,9.055,0,0,1-.529,2.362,10.629,10.629,0,0,1-1,1.54s-.064,1.821-.071,2.584a3.691,3.691,0,0,0,3.65,3.737Z" transform="translate(-177.324 -38.925)" fill="#fff"></path><path d="M232.361,53.527h-.473A3.887,3.887,0,0,1,228.05,49.6c0-.751.071-2.569.075-2.587a.2.2,0,0,1,.038-.109,10.309,10.309,0,0,0,.98-1.5,9.074,9.074,0,0,0,.511-2.3.192.192,0,0,1,.15-.173.188.188,0,0,1,.207.1,5.1,5.1,0,0,0,2.749,1.972c1.311.5,3.357,1,3.38,1a.2.2,0,0,1,.143.188l-.038,3.5A3.887,3.887,0,0,1,232.361,53.527Zm-.469-.376h.469a3.511,3.511,0,0,0,3.507-3.466l.049-3.35c-.5-.124-2.148-.552-3.278-.98a6.279,6.279,0,0,1-2.651-1.727,8.677,8.677,0,0,1-.488,1.926,10.138,10.138,0,0,1-1,1.532c0,.319-.064,1.844-.071,2.516a3.507,3.507,0,0,0,3.466,3.545Z" transform="translate(-177.012 -38.619)" fill="#231f20"></path><path d="M237.773,58.536a5.774,5.774,0,0,1-.635-.038.192.192,0,0,1-.161-.214.184.184,0,0,1,.21-.158,5,5,0,0,0,1,0,6.794,6.794,0,0,0-.6-2.516.188.188,0,1,1,.349-.128c.207.548.849,2.381.56,2.858a.327.327,0,0,1-.244.158,4.425,4.425,0,0,1-.484.038Z" transform="translate(-182.586 -46.365)" fill="#231f20"></path><ellipse cx="0.627" cy="0.255" rx="0.627" ry="0.255" transform="translate(53.181 9.346) rotate(-89.37)" fill="#231f20"></ellipse><ellipse cx="0.627" cy="0.255" rx="0.627" ry="0.255" transform="translate(56.546 9.266) rotate(-89.37)" fill="#231f20"></ellipse><path d="M234.891,63.522h-.24A3.436,3.436,0,0,1,232.4,62.23a.188.188,0,1,1,.3-.225,3.106,3.106,0,0,0,1.99,1.145,3.33,3.33,0,0,0,2.55-1.127.188.188,0,0,1,.267,0,.184.184,0,0,1,0,.263A3.857,3.857,0,0,1,234.891,63.522Z" transform="translate(-179.703 -50.484)" fill="#231f20"></path><path d="M231.23,39.014a8.227,8.227,0,0,0,2.516,3.793,8.408,8.408,0,0,0,2.047,1.04c1.082.421,2.133.469,3.049,1.228a5.347,5.347,0,0,1,1.773,2.756,6.147,6.147,0,0,0-.439-5.257,11.463,11.463,0,0,0-3.706-3.44,4.589,4.589,0,0,0-2.539-1.025" transform="translate(-178.998 -35.608)" fill="#fff"></path><path d="M240.3,47.7h0a.18.18,0,0,1-.169-.143,5.16,5.16,0,0,0-1.724-2.678,4.916,4.916,0,0,0-1.945-.845c-.345-.1-.7-.2-1.059-.334a8.732,8.732,0,0,1-2.084-1.074,8.476,8.476,0,0,1-2.58-3.875.188.188,0,0,1,.109-.244.184.184,0,0,1,.24.109,8.138,8.138,0,0,0,2.456,3.71,8.314,8.314,0,0,0,2,1.018c.342.131.687.229,1.025.323a5.209,5.209,0,0,1,2.077.931,5.576,5.576,0,0,1,1.652,2.294,6.009,6.009,0,0,0-.6-4.551,11.26,11.26,0,0,0-3.65-3.38,4.454,4.454,0,0,0-2.433-1,.177.177,0,0,1-.188-.184.184.184,0,0,1,.184-.192,4.81,4.81,0,0,1,2.647,1.059,11.592,11.592,0,0,1,3.755,3.5,6.384,6.384,0,0,1,.454,5.423A.192.192,0,0,1,240.3,47.7Z" transform="translate(-178.683 -35.285)" fill="#231f20"></path><path d="M206.971,128.11a17.172,17.172,0,0,1,2.306,2.749c.214.638.105,4.634-.214,4.848s-2.557,1.607-3.034,1.127-1.333-1.761-.909-1.709a2.929,2.929,0,0,1,1.066.586,3.354,3.354,0,0,0,1.07-.845,2.37,2.37,0,0,1-.578-2.674l-1.209-1.423" transform="translate(-162.621 -91.812)" fill="#fff"></path><path d="M206.037,136.807a.608.608,0,0,1-.447-.15c-.233-.233-1.247-1.472-1.044-1.878a.274.274,0,0,1,.3-.146,2.715,2.715,0,0,1,1.059.548,3.259,3.259,0,0,0,.8-.6,2.478,2.478,0,0,1-.556-2.659l-1.127-1.326a.192.192,0,0,1,.023-.267.184.184,0,0,1,.263.023l1.209,1.42a.2.2,0,0,1,.023.21,2.163,2.163,0,0,0,.541,2.448.188.188,0,0,1,.03.237,3.38,3.38,0,0,1-1.127.909.184.184,0,0,1-.207-.023,3.275,3.275,0,0,0-.845-.514,5.332,5.332,0,0,0,.939,1.363c.259.263,1.833-.5,2.8-1.149a16.554,16.554,0,0,0,.139-4.63,15.3,15.3,0,0,0-2.253-2.678.187.187,0,0,1,.267-.263,15.974,15.974,0,0,1,2.351,2.82c.18.545.2,4.743-.285,5.066A7.921,7.921,0,0,1,206.037,136.807Z" transform="translate(-162.317 -91.507)" fill="#231f20"></path><path d="M193.056,85.39s-11.149,8.686-11.116,10.639c.023,1.4,8.911,9.167,8.911,9.167l2.85-3.222-4.4-5.363,6.234-4.232" transform="translate(-148.217 -65.134)" fill="#15af9e"></path><path d="M260.094,98.025h-.03a.188.188,0,0,1-.158-.214,51.616,51.616,0,0,1,1.127-5.475.2.2,0,1,1,.376.109,53.938,53.938,0,0,0-1.1,5.423.188.188,0,0,1-.214.158Z" transform="translate(-196.904 -69.383)" fill="#231f20"></path><path d="M275.067,107.38a.2.2,0,0,1-.09-.023.188.188,0,0,1-.075-.255l1.923-3.515a.188.188,0,0,1,.33.18l-1.923,3.515A.184.184,0,0,1,275.067,107.38Z" transform="translate(-206.255 -76.436)" fill="#231f20"></path><path d="M298.651,74.528a.18.18,0,0,1-.128-.049.188.188,0,0,1,0-.267c.811-.849-.376-2.058-.413-2.107a.192.192,0,0,1-.019-.244.188.188,0,0,1,.237-.056,4.638,4.638,0,0,0,2.11.514h.023a7.673,7.673,0,0,0-1.9-1.543.188.188,0,1,1,.2-.315c1.006.65,2.182,1.5,2.077,1.972-.019.083-.09.229-.357.263a3.879,3.879,0,0,1-1.652-.27,1.6,1.6,0,0,1-.038,2.047.184.184,0,0,1-.143.056Zm1.814-2.167ZM300.495,72.3Z" transform="translate(-220.729 -55.79)" fill="#231f20"></path><path d="M234.8,88.037h0a.192.192,0,0,1-.18-.143l-2.306-9.52a.188.188,0,0,1,.139-.225.18.18,0,0,1,.225.139l2.144,8.784,2.2-8.637a.193.193,0,1,1,.376.09l-2.388,9.388a.18.18,0,0,1-.21.124Z" transform="translate(-179.67 -60.608)" fill="#fff"></path><circle cx="3.282" cy="3.282" r="3.282" transform="translate(51.812 27.241)" fill="#fff"></circle><path d="M233.067,110.447a3.474,3.474,0,1,1,3.47-3.474A3.474,3.474,0,0,1,233.067,110.447Zm0-6.568a3.1,3.1,0,1,0,0-.008Z" transform="translate(-177.974 -76.443)" fill="#231f20"></path><path d="M248.71,255.15a38.942,38.942,0,0,0,.357,3.973,13.38,13.38,0,0,0,2.294.255l.376-1.363.958,1.5s9.133,1.07,8.671-.075-7.642-4.281-7.642-4.281Z" transform="translate(-189.913 -171.145)" fill="#231f20"></path><path d="M258.663,259.844c-2.3,0-5.456-.349-6.331-.451a.184.184,0,0,1-.135-.086l-.751-1.127-.267.958a.184.184,0,0,1-.188.139c-2.216-.105-2.37-.259-2.418-.308s-.2-.207-.413-4.1a.188.188,0,0,1,.053-.139.18.18,0,0,1,.135-.06h5.017a.169.169,0,0,1,.075,0c.751.323,7.27,3.2,7.743,4.382a.376.376,0,0,1-.049.376C260.92,259.739,259.918,259.844,258.663,259.844Zm-6.2-.815c3.872.451,8.16.642,8.393.173-.319-.789-4.653-2.914-7.511-4.165h-4.78c.09,1.611.222,3.35.308,3.661a17.006,17.006,0,0,0,2.005.184l.338-1.217a.188.188,0,0,1,.338-.053Z" transform="translate(-189.57 -170.844)" fill="#231f20"></path><path d="M196.488,255.15a37.9,37.9,0,0,1-.357,3.973,13.42,13.42,0,0,1-2.294.255l-.376-1.363-.954,1.5s-9.133,1.07-8.675-.075,7.642-4.281,7.642-4.281Z" transform="translate(-149.389 -171.145)" fill="#231f20"></path><path d="M185.877,259.851c-1.258,0-2.253-.105-2.494-.409a.376.376,0,0,1-.045-.376c.473-1.183,7-4.059,7.74-4.382a.181.181,0,0,1,.075,0h5.017a.2.2,0,0,1,.139.06.188.188,0,0,1,.049.139c-.207,3.89-.353,4.041-.409,4.1s-.207.2-2.418.308a.192.192,0,0,1-.192-.139l-.267-.958-.729,1.127a.184.184,0,0,1-.135.086C191.33,259.5,188.175,259.851,185.877,259.851Zm5.317-4.807c-2.862,1.25-7.2,3.38-7.511,4.161.229.473,4.506.282,8.389-.169l.905-1.416a.191.191,0,0,1,.188-.083.2.2,0,0,1,.154.135l.338,1.217a14.967,14.967,0,0,0,2.005-.2c.09-.338.218-2.058.308-3.65ZM195.656,258.732Z" transform="translate(-149.072 -170.851)" fill="#231f20"></path><path d="M235.084,106.03l.7,1.416,1.566.225-1.13,1.1.267,1.558-1.4-.736-1.4.736.267-1.558-1.134-1.1,1.566-.225Z" transform="translate(-179.991 -78.023)" fill="#15af9e"></path><path d="M280.2,141.348a.184.184,0,0,1-.18-.18V139.56a.18.18,0,0,1,.18-.18.176.176,0,0,1,.18.18v1.607A.18.18,0,0,1,280.2,141.348Z" transform="translate(-209.466 -98.849)" fill="#d1d3d4"></path><path d="M280.188,149.2a.18.18,0,0,1-.188-.18V147.41a.184.184,0,0,1,.18-.18.18.18,0,0,1,.18.18v1.611A.177.177,0,0,1,280.188,149.2Z" transform="translate(-209.453 -103.752)" fill="#d1d3d4"></path><path d="M283.589,145.786h-1.611a.188.188,0,0,1,0-.376h1.611a.188.188,0,1,1,0,.376Z" transform="translate(-210.571 -102.615)" fill="#d1d3d4"></path><path d="M275.725,145.786h-1.607a.188.188,0,0,1,0-.376h1.607a.188.188,0,1,1,0,.376Z" transform="translate(-205.663 -102.615)" fill="#d1d3d4"></path><path d="M274.158,58.62a.18.18,0,0,1-.161-.161V57.137a.18.18,0,1,1,.357,0v1.322a.18.18,0,0,1-.2.161Z" transform="translate(-205.703 -47.362)" fill="#d1d3d4"></path><path d="M274.127,64.99a.18.18,0,0,1-.18-.18v-1.3a.18.18,0,1,1,.357,0v1.3a.18.18,0,0,1-.177.18Z" transform="translate(-205.672 -51.34)" fill="#d1d3d4"></path><path d="M276.867,62.256h-1.3a.188.188,0,0,1,0-.376h1.3a.188.188,0,1,1,0,.376Z" transform="translate(-206.568 -50.453)" fill="#d1d3d4"></path><path d="M270.521,62.256h-1.3a.188.188,0,1,1,0-.376h1.3a.188.188,0,1,1,0,.376Z" transform="translate(-202.603 -50.453)" fill="#d1d3d4"></path><path d="M193.7,33.46a.176.176,0,0,1-.18-.18V31.657a.18.18,0,1,1,.357,0v1.607a.177.177,0,0,1-.177.2Z" transform="translate(-155.446 -31.451)" fill="#d1d3d4"></path><path d="M193.7,41.355a.176.176,0,0,1-.18-.18V39.567a.18.18,0,1,1,.357,0v1.607a.177.177,0,0,1-.177.18Z" transform="translate(-155.446 -36.39)" fill="#d1d3d4"></path><path d="M197.015,37.966h-1.607a.188.188,0,0,1,0-.376h1.607a.188.188,0,1,1,0,.376Z" transform="translate(-156.511 -35.285)" fill="#d1d3d4"></path><path d="M189.185,37.966h-1.607a.188.188,0,0,1,0-.376h1.607a.188.188,0,1,1,0,.376Z" transform="translate(-151.621 -35.285)" fill="#d1d3d4"></path><path d="M130.52,129.148a.18.18,0,0,1-.18-.18V127.36a.177.177,0,0,1,.18-.18.18.18,0,0,1,.18.18v1.607a.184.184,0,0,1-.18.18Z" transform="translate(-115.995 -91.231)" fill="#d1d3d4"></path><path d="M130.52,137.008a.177.177,0,0,1-.18-.176V135.22a.18.18,0,0,1,.18-.18.184.184,0,0,1,.18.18v1.611a.18.18,0,0,1-.18.176Z" transform="translate(-115.995 -96.139)" fill="#d1d3d4"></path><path d="M133.905,133.586H132.3a.188.188,0,0,1,0-.376h1.607a.188.188,0,1,1,0,.376Z" transform="translate(-117.1 -94.997)" fill="#d1d3d4"></path><path d="M126.009,133.586H124.4a.188.188,0,0,1,0-.376h1.611a.188.188,0,0,1,0,.376Z" transform="translate(-112.167 -94.997)" fill="#d1d3d4"></path><path d="M102.026,159.175a.176.176,0,0,1-.176-.18v-1.607a.188.188,0,0,1,.376,0V159a.176.176,0,0,1-.2.173Z" transform="translate(-98.204 -109.978)" fill="#d1d3d4"></path><path d="M102.026,167.045a.18.18,0,0,1-.176-.18v-1.607a.188.188,0,1,1,.376,0v1.607a.18.18,0,0,1-.2.18Z" transform="translate(-98.204 -114.892)" fill="#d1d3d4"></path><path d="M105.384,163.654h-1.607a.18.18,0,1,1,0-.357h1.607a.18.18,0,1,1,0,.357Z" transform="translate(-99.278 -113.784)" fill="#d1d3d4"></path><path d="M97.514,163.654H95.907a.18.18,0,1,1,0-.357h1.607a.18.18,0,1,1,0,.357Z" transform="translate(-94.364 -113.784)" fill="#d1d3d4"></path><path d="M103.07,207.34h9.268l-.961,6.5a1.333,1.333,0,0,1-1.322,1.127h-4.7a1.333,1.333,0,0,1-1.322-1.127Z" transform="translate(-98.965 -141.289)" fill="#231f20"></path><path d="M109.751,214.85h-4.7a1.525,1.525,0,0,1-1.5-1.3l-.961-6.493a.192.192,0,0,1,.041-.15.2.2,0,0,1,.143-.068h9.268a.2.2,0,0,1,.143.068.192.192,0,0,1,.041.15l-.958,6.493a1.528,1.528,0,0,1-1.513,1.3Zm-6.76-7.635.928,6.279a1.153,1.153,0,0,0,1.127.98h4.7a1.153,1.153,0,0,0,1.127-.98l.928-6.279Z" transform="translate(-98.662 -140.976)" fill="#231f20"></path></svg> 