<?xml version="1.0" encoding="UTF-8"?> <svg xmlns="http://www.w3.org/2000/svg" width="146.522" height="35.531" viewBox="0 0 146.522 35.531"><g transform="translate(0 0)"><g transform="translate(0 0)"><path d="M434.691,97.238a.231.231,0,0,0,.28,0,1.428,1.428,0,0,1,.367-.215,1.641,1.641,0,0,1,.446-.1l.131-.014.056-.118a1.564,1.564,0,0,0,.155-.606,1.36,1.36,0,0,0-.1-.565l-.054-.136-.145-.012a1.356,1.356,0,0,0-.569.078,1.551,1.551,0,0,0-.529.335l-.1.09.028.128a1.7,1.7,0,0,1,.042.454,1.477,1.477,0,0,1-.091.416.231.231,0,0,0,.083.268m.448-1.1a1.021,1.021,0,0,1,.276-.156h0a.152.152,0,1,1,.244.178,1.022,1.022,0,0,1-.064.311,2.022,2.022,0,0,0-.429.113h0v0a2,2,0,0,0-.025-.443" transform="translate(-408.455 -92.24)" fill="#fff"></path><path d="M420.2,124.343a5.2,5.2,0,0,0,.412,3.516,8.881,8.881,0,0,0,2.238,3.078,6.64,6.64,0,0,0,.8.618,6.677,6.677,0,0,0-.285.971,8.878,8.878,0,0,0,0,3.806,5.2,5.2,0,0,0,1.733,3.087,2.428,2.428,0,0,0,1.276.493q.074.005.148.005a2,2,0,0,0,1.1-.328,1.694,1.694,0,0,0,.755-1.2,1.4,1.4,0,0,0-1.207-1.576,1.168,1.168,0,0,0-1.313,1.006.976.976,0,0,0,.194.726c.129.169.515.459.816.361a.386.386,0,1,0-.419-.612c-.01-.011-.019-.022-.028-.033a.514.514,0,0,1-.1-.382.7.7,0,0,1,.79-.6.938.938,0,0,1,.806,1.053,1.217,1.217,0,0,1-.178.493,1.24,1.24,0,0,1-.369.375,1.52,1.52,0,0,1-.959.248,1.992,1.992,0,0,1-1.029-.4,4.749,4.749,0,0,1-1.558-2.815,8.441,8.441,0,0,1-.188-1.513q.038.09.081.177a2.577,2.577,0,0,0,1.243,1.235,2.109,2.109,0,0,0,1.123.188,2.067,2.067,0,0,0,1.044-.437,1.973,1.973,0,0,0,.748-1.308,1.638,1.638,0,0,0-.757-1.594,1.511,1.511,0,0,0-1.053-.225,1.365,1.365,0,0,0-.968.7,1.179,1.179,0,0,0,.136,1.361,1.137,1.137,0,0,0,.55.336,1.07,1.07,0,0,0,1-.308.663.663,0,0,0,.18-.668.452.452,0,1,0-.708.5.515.515,0,0,1-.325.037.657.657,0,0,1-.354-.2.727.727,0,0,1-.038-.884.9.9,0,0,1,.593-.4,1.041,1.041,0,0,1,.692.133,1.166,1.166,0,0,1,.587,1.167,1.51,1.51,0,0,1-.571,1,1.605,1.605,0,0,1-.812.34,1.641,1.641,0,0,1-.874-.147,2.121,2.121,0,0,1-1.021-1.02,3.5,3.5,0,0,1-.318-1.724,3.952,3.952,0,0,1,.25-1.179,4.54,4.54,0,0,0,1.952.459,3.946,3.946,0,0,0,1.487-.263,2.251,2.251,0,0,0,1.037-.772,1.5,1.5,0,0,0-.729-2.245,2.249,2.249,0,0,0-1.293-.016,3.947,3.947,0,0,0-1.361.662,4.545,4.545,0,0,0-1.309,1.518,3.972,3.972,0,0,1-.9-.807,3.505,3.505,0,0,1-.756-1.582,2.123,2.123,0,0,1,.226-1.425,1.638,1.638,0,0,1,.62-.633,1.608,1.608,0,0,1,.858-.2,1.511,1.511,0,0,1,1.049.476,1.166,1.166,0,0,1,.211,1.293,1.035,1.035,0,0,1-.482.514.892.892,0,0,1-.716.023.727.727,0,0,1-.49-.737.663.663,0,0,1,.166-.374.516.516,0,0,1,.285-.161.452.452,0,1,0,.865-.014.665.665,0,0,0-.539-.435,1.071,1.071,0,0,0-.993.34,1.136,1.136,0,0,0-.248.6,1.178,1.178,0,0,0,.688,1.178,1.365,1.365,0,0,0,1.2,0,1.511,1.511,0,0,0,.719-.8,1.638,1.638,0,0,0-.325-1.735,1.973,1.973,0,0,0-1.373-.62,2.06,2.06,0,0,0-1.1.261,2.109,2.109,0,0,0-.8.812,2.576,2.576,0,0,0-.28,1.729q.016.1.038.19a8.428,8.428,0,0,1-.737-1.345,4.75,4.75,0,0,1-.394-3.193,1.992,1.992,0,0,1,.6-.929,1.52,1.52,0,0,1,.923-.364,1.243,1.243,0,0,1,.52.086,1.225,1.225,0,0,1,.434.295.939.939,0,0,1-.033,1.326.7.7,0,0,1-1-.025.513.513,0,0,1-.141-.369q0-.021,0-.043a.386.386,0,1,0-.02-.741c-.3.1-.444.559-.449.772a.977.977,0,0,0,.272.7,1.169,1.169,0,0,0,1.653.041,1.4,1.4,0,0,0,.05-1.984,1.676,1.676,0,0,0-.6-.408,1.705,1.705,0,0,0-.716-.12,2,2,0,0,0-1.2.472,2.422,2.422,0,0,0-.742,1.149m5.817,7.434a4.082,4.082,0,0,1-1.764-.418,4.082,4.082,0,0,1,1.181-1.375,3.488,3.488,0,0,1,1.195-.584,1.8,1.8,0,0,1,1.025,0,1.038,1.038,0,0,1,.5,1.54,1.8,1.8,0,0,1-.827.6,3.469,3.469,0,0,1-1.31.229" transform="translate(-394.877 -117.676)" fill="#fff"></path><path d="M120.882,163.875a.233.233,0,0,0,.136.412,2.517,2.517,0,0,1,1.186.386,3.017,3.017,0,0,1,.915.922,10.9,10.9,0,0,0,7.347,5.356,3.035,3.035,0,0,1,1.195.6,2.509,2.509,0,0,1,.734,1.009.233.233,0,0,0,.433,0,2.509,2.509,0,0,1,.734-1.009,3.025,3.025,0,0,1,1.188-.593,10.9,10.9,0,0,0,7.348-5.341,3.028,3.028,0,0,1,.926-.937,2.508,2.508,0,0,1,1.186-.386.233.233,0,0,0,.136-.412,2.51,2.51,0,0,1-.733-1.01,3.03,3.03,0,0,1-.2-1.293,11.018,11.018,0,0,0,.076-1.286,10.836,10.836,0,0,0-2.9-7.4,3.024,3.024,0,0,1-.586-1.147,2.51,2.51,0,0,1,0-1.248.233.233,0,0,0-.35-.254,2.517,2.517,0,0,1-1.186.384,3,3,0,0,1-1.232-.189,10.9,10.9,0,0,0-9.228,0,3,3,0,0,1-1.231.189,2.513,2.513,0,0,1-1.186-.384.233.233,0,0,0-.351.254,2.517,2.517,0,0,1,0,1.247,3.028,3.028,0,0,1-.582,1.14,10.885,10.885,0,0,0-2.834,8.689,3.029,3.029,0,0,1-.2,1.293,2.513,2.513,0,0,1-.732,1.009m1.189-.9a10.844,10.844,0,0,0,.436,1.342l-.057-.037a2.994,2.994,0,0,0-.923-.386,3,3,0,0,0,.52-.855l.024-.063m.132-2.686a10.341,10.341,0,0,1,3.049-7.359,10.409,10.409,0,1,1-3.05,7.361m11.06,10.9h0a3,3,0,0,0-.652.759,3.007,3.007,0,0,0-.652-.759l-.059-.048a10.884,10.884,0,0,0,1.423,0l-.059.048m9.912-8.149a3,3,0,0,0,.52.855,2.993,2.993,0,0,0-.923.386l-.058.037a10.846,10.846,0,0,0,.437-1.344l.025.068M138.5,151.1a3,3,0,0,0,.974-.23,2.993,2.993,0,0,0,.082,1l.017.068a10.938,10.938,0,0,0-1.138-.829l.068,0Zm-12.727-.231a3,3,0,0,0,.974.23l.064,0a10.943,10.943,0,0,0-1.137.828l.017-.064h0a3.007,3.007,0,0,0,.082-1" transform="translate(-115.607 -142.617)" fill="#fff"></path><path d="M313.554,380.077a2.418,2.418,0,0,0-1.323-.351,5.2,5.2,0,0,0-3.214,1.479,8.876,8.876,0,0,0-2.236,3.079,6.667,6.667,0,0,0-.34.952,6.786,6.786,0,0,0-1.011.029,8.887,8.887,0,0,0-3.625,1.178,5.2,5.2,0,0,0-2.4,2.6,2.427,2.427,0,0,0-.076,1.365,2,2,0,0,0,.692,1.089,1.706,1.706,0,0,0,.649.325,1.683,1.683,0,0,0,.723.023,1.4,1.4,0,0,0,1.126-1.633,1.168,1.168,0,0,0-1.361-.937.975.975,0,0,0-.631.408.9.9,0,0,0-.09.888.386.386,0,1,0,.451-.587l.023-.036a.514.514,0,0,1,.331-.216.7.7,0,0,1,.82.565.939.939,0,0,1-.752,1.093,1.225,1.225,0,0,1-.525-.017,1.242,1.242,0,0,1-.471-.235,1.519,1.519,0,0,1-.533-.836,1.99,1.99,0,0,1,.064-1.1,4.747,4.747,0,0,1,2.2-2.352,8.437,8.437,0,0,1,1.381-.646q-.074.064-.143.131a2.578,2.578,0,0,0-.791,1.565,2.109,2.109,0,0,0,.169,1.125,2.069,2.069,0,0,0,.738.859,1.977,1.977,0,0,0,1.474.305,1.638,1.638,0,0,0,1.282-1.212,1.515,1.515,0,0,0-.111-1.071,1.364,1.364,0,0,0-.967-.7,1.18,1.18,0,0,0-1.25.549,1.14,1.14,0,0,0-.15.628,1.072,1.072,0,0,0,.6.858.664.664,0,0,0,.691-.035.452.452,0,1,0-.691-.52.514.514,0,0,1-.136-.3.658.658,0,0,1,.085-.4.726.726,0,0,1,.829-.31.894.894,0,0,1,.565.439,1.04,1.04,0,0,1,.088.7,1.166,1.166,0,0,1-.928.919,1.512,1.512,0,0,1-1.127-.233,1.606,1.606,0,0,1-.576-.667,1.64,1.64,0,0,1-.129-.876,2.119,2.119,0,0,1,.655-1.285,3.51,3.51,0,0,1,1.542-.836,3.978,3.978,0,0,1,1.2-.126,4.545,4.545,0,0,0,.167,2,3.938,3.938,0,0,0,.709,1.333,2.252,2.252,0,0,0,1.055.748,1.5,1.5,0,0,0,1.909-1.387,2.252,2.252,0,0,0-.384-1.235,3.946,3.946,0,0,0-1.048-1.089,4.552,4.552,0,0,0-1.849-.776,3.966,3.966,0,0,1,.491-1.1,3.507,3.507,0,0,1,1.271-1.208,2.121,2.121,0,0,1,1.425-.226,1.645,1.645,0,0,1,.793.394,1.611,1.611,0,0,1,.456.754,1.513,1.513,0,0,1-.126,1.144,1.166,1.166,0,0,1-1.161.6,1.036,1.036,0,0,1-.638-.3.891.891,0,0,1-.243-.673.727.727,0,0,1,.55-.693.658.658,0,0,1,.408.042.515.515,0,0,1,.241.22.452.452,0,1,0,.281.816.663.663,0,0,0,.247-.646,1.072,1.072,0,0,0-.63-.839,1.138,1.138,0,0,0-.644-.051,1.179,1.179,0,0,0-.908,1.02,1.365,1.365,0,0,0,.371,1.138,1.516,1.516,0,0,0,.984.437,1.639,1.639,0,0,0,1.55-.846,1.973,1.973,0,0,0,.165-1.5,2.059,2.059,0,0,0-.588-.967,2.109,2.109,0,0,0-1.02-.509,2.578,2.578,0,0,0-1.731.272q-.086.044-.169.1a8.452,8.452,0,0,1,1.042-1.114,4.75,4.75,0,0,1,2.916-1.361,1.982,1.982,0,0,1,1.068.28,1.523,1.523,0,0,1,.631.765,1.243,1.243,0,0,1,.078.52,1.224,1.224,0,0,1-.146.5.938.938,0,0,1-1.272.378.7.7,0,0,1-.284-.952.512.512,0,0,1,.307-.248l.042-.011a.386.386,0,1,0,.7-.248.9.9,0,0,0-.872-.188.974.974,0,0,0-.584.476,1.169,1.169,0,0,0,.471,1.585,1.4,1.4,0,0,0,1.9-.566,1.682,1.682,0,0,0,.2-.7,1.71,1.71,0,0,0-.108-.718,2,2,0,0,0-.816-.994m-4.257,9.092a.969.969,0,0,1-.884.162,1.793,1.793,0,0,1-.831-.6,3.475,3.475,0,0,1-.623-1.174,4.077,4.077,0,0,1-.147-1.807,4.083,4.083,0,0,1,1.673.7,3.481,3.481,0,0,1,.925.956,1.8,1.8,0,0,1,.313.975.968.968,0,0,1-.427.79" transform="translate(-282.164 -357.576)" fill="#fff"></path><path d="M164.868,53.6h0a5.2,5.2,0,0,0,3.47.695,8.881,8.881,0,0,0,3.619-1.178,6.694,6.694,0,0,0,.835-.571,6.716,6.716,0,0,0,.835.571,8.881,8.881,0,0,0,3.619,1.178q.381.037.744.037a4.74,4.74,0,0,0,2.727-.731,2.427,2.427,0,0,0,.864-1.061,2,2,0,0,0,.079-1.286,1.707,1.707,0,0,0-.335-.644,1.688,1.688,0,0,0-.571-.444,1.4,1.4,0,0,0-1.872.661,1.168,1.168,0,0,0,.55,1.559.976.976,0,0,0,.748.041c.2-.068.6-.348.6-.665a.386.386,0,1,0-.71.21l-.04.016a.513.513,0,0,1-.395-.021.7.7,0,0,1-.331-.938.938.938,0,0,1,1.251-.442,1.225,1.225,0,0,1,.414.322,1.245,1.245,0,0,1,.242.467,1.518,1.518,0,0,1-.061.99,1.984,1.984,0,0,1-.7.854,4.745,4.745,0,0,1-3.159.612,8.428,8.428,0,0,1-1.5-.288q.1-.008.193-.022a2.609,2.609,0,0,0,1.559-.8,2.109,2.109,0,0,0,.525-1.009,2.068,2.068,0,0,0-.093-1.129,1.978,1.978,0,0,0-1.014-1.114,1.639,1.639,0,0,0-1.75.227,1.516,1.516,0,0,0-.539.931,1.361,1.361,0,0,0,.368,1.138,1.179,1.179,0,0,0,1.333.29,1.14,1.14,0,0,0,.491-.42,1.072,1.072,0,0,0,.016-1.049.664.664,0,0,0-.58-.378.452.452,0,1,0,.254.827.515.515,0,0,1-.068.32.658.658,0,0,1-.3.272.727.727,0,0,1-.853-.237.9.9,0,0,1-.2-.688,1.034,1.034,0,0,1,.34-.617,1.166,1.166,0,0,1,1.293-.2,1.511,1.511,0,0,1,.775.852,1.606,1.606,0,0,1,.074.878,1.644,1.644,0,0,1-.408.785,2.121,2.121,0,0,1-1.285.655,3.5,3.5,0,0,1-1.738-.229,3.976,3.976,0,0,1-1.044-.6,4.549,4.549,0,0,0,1.04-1.714,3.955,3.955,0,0,0,.21-1.5,2.252,2.252,0,0,0-.414-1.225,1.5,1.5,0,0,0-2.359,0,2.255,2.255,0,0,0-.415,1.225,3.945,3.945,0,0,0,.21,1.5,4.545,4.545,0,0,0,1.04,1.714,3.973,3.973,0,0,1-1.044.6,3.5,3.5,0,0,1-1.738.229,2.12,2.12,0,0,1-1.285-.655,1.64,1.64,0,0,1-.408-.785,1.605,1.605,0,0,1,.074-.878,1.512,1.512,0,0,1,.775-.852,1.166,1.166,0,0,1,1.293.2,1.035,1.035,0,0,1,.34.617.893.893,0,0,1-.2.688.726.726,0,0,1-.853.237.66.66,0,0,1-.3-.272.516.516,0,0,1-.068-.32.452.452,0,1,0,.254-.827.664.664,0,0,0-.58.378,1.071,1.071,0,0,0,.016,1.049,1.139,1.139,0,0,0,.49.42,1.18,1.18,0,0,0,1.333-.29,1.364,1.364,0,0,0,.368-1.138,1.516,1.516,0,0,0-.539-.931,1.638,1.638,0,0,0-1.75-.227,1.973,1.973,0,0,0-1.014,1.114,2.066,2.066,0,0,0-.093,1.129,2.109,2.109,0,0,0,.525,1.009,2.61,2.61,0,0,0,1.559.8q.1.014.193.022a8.433,8.433,0,0,1-1.5.288,4.747,4.747,0,0,1-3.159-.612,1.985,1.985,0,0,1-.7-.854,1.519,1.519,0,0,1-.061-.989,1.248,1.248,0,0,1,.242-.467,1.225,1.225,0,0,1,.414-.322.937.937,0,0,1,1.25.442.7.7,0,0,1-.331.938.514.514,0,0,1-.395.021l-.04-.016a.386.386,0,1,0-.71-.21c0,.317.394.595.6.665a.976.976,0,0,0,.748-.041,1.169,1.169,0,0,0,.55-1.559,1.4,1.4,0,0,0-1.872-.661,1.684,1.684,0,0,0-.571.444,1.707,1.707,0,0,0-.335.644A2,2,0,0,0,164,52.54a2.424,2.424,0,0,0,.863,1.061m7.116-5.526a1.038,1.038,0,0,1,1.619,0,1.8,1.8,0,0,1,.32.973,3.48,3.48,0,0,1-.187,1.317,4.077,4.077,0,0,1-.943,1.548,4.082,4.082,0,0,1-.943-1.548,3.479,3.479,0,0,1-.186-1.317,1.8,1.8,0,0,1,.319-.973" transform="translate(-155.79 -47.221)" fill="#fff"></path><path d="M523.362,379.31h0a1.361,1.361,0,0,0-.25-.517,1.557,1.557,0,0,0-.482-.4l-.115-.063-.114.068a1.662,1.662,0,0,1-.42.18,1.453,1.453,0,0,1-.424.042.233.233,0,0,0-.136.426,1.459,1.459,0,0,1,.318.284,1.67,1.67,0,0,1,.233.392l.054.12.131.016a1.779,1.779,0,0,0,.222.014,1.473,1.473,0,0,0,.4-.054,1.363,1.363,0,0,0,.507-.272l.11-.094Zm-.5-.033a.877.877,0,0,1-.209.091,1.019,1.019,0,0,1-.315.035,2.034,2.034,0,0,0-.24-.373v0h0a2.018,2.018,0,0,0,.414-.16,1.02,1.02,0,0,1,.234.214.872.872,0,0,1,.115.2" transform="translate(-489.39 -356.256)" fill="#fff"></path><path d="M83.457,390.416a2.424,2.424,0,0,0-.075-1.365,5.2,5.2,0,0,0-2.4-2.6,8.886,8.886,0,0,0-3.619-1.174,6.639,6.639,0,0,0-1.012-.029,6.693,6.693,0,0,0-.34-.952,8.872,8.872,0,0,0-2.236-3.079,5.2,5.2,0,0,0-3.217-1.479,2.421,2.421,0,0,0-1.322.351,2,2,0,0,0-.816.994,1.7,1.7,0,0,0-.108.718,1.681,1.681,0,0,0,.2.7,1.4,1.4,0,0,0,1.9.565,1.168,1.168,0,0,0,.471-1.585A.973.973,0,0,0,70.31,381a.9.9,0,0,0-.873.188.386.386,0,1,0,.7.248l.042.011a.513.513,0,0,1,.307.249.7.7,0,0,1-.284.952.938.938,0,0,1-1.272-.378,1.219,1.219,0,0,1-.146-.5,1.24,1.24,0,0,1,.078-.52,1.522,1.522,0,0,1,.631-.765,1.979,1.979,0,0,1,1.069-.28,4.746,4.746,0,0,1,2.915,1.361,8.437,8.437,0,0,1,1.042,1.114q-.084-.05-.169-.1a2.576,2.576,0,0,0-1.731-.272,2.109,2.109,0,0,0-1.02.508,2.068,2.068,0,0,0-.589.967,1.977,1.977,0,0,0,.165,1.5,1.638,1.638,0,0,0,1.55.845,1.512,1.512,0,0,0,.984-.437,1.361,1.361,0,0,0,.371-1.137,1.178,1.178,0,0,0-.908-1.02,1.132,1.132,0,0,0-.644.051,1.071,1.071,0,0,0-.63.839.663.663,0,0,0,.247.646.452.452,0,1,0,.281-.816.517.517,0,0,1,.242-.221.659.659,0,0,1,.408-.042.726.726,0,0,1,.55.693.893.893,0,0,1-.243.673,1.036,1.036,0,0,1-.637.3,1.165,1.165,0,0,1-1.161-.6,1.512,1.512,0,0,1-.126-1.144,1.607,1.607,0,0,1,.456-.754,1.64,1.64,0,0,1,.793-.394,2.121,2.121,0,0,1,1.425.225,3.508,3.508,0,0,1,1.271,1.208,3.955,3.955,0,0,1,.491,1.1,4.547,4.547,0,0,0-1.849.776,3.946,3.946,0,0,0-1.049,1.089,2.249,2.249,0,0,0-.384,1.235,1.5,1.5,0,0,0,1.909,1.387,2.254,2.254,0,0,0,1.055-.748,3.946,3.946,0,0,0,.71-1.333,4.546,4.546,0,0,0,.167-2,3.974,3.974,0,0,1,1.2.126,3.511,3.511,0,0,1,1.541.835,2.121,2.121,0,0,1,.655,1.285,1.642,1.642,0,0,1-.13.876,1.609,1.609,0,0,1-.576.667,1.517,1.517,0,0,1-1.127.233,1.167,1.167,0,0,1-.928-.92,1.036,1.036,0,0,1,.088-.7.893.893,0,0,1,.565-.439.727.727,0,0,1,.83.31.656.656,0,0,1,.085.4.514.514,0,0,1-.136.3.453.453,0,1,0-.692.52.664.664,0,0,0,.691.035,1.072,1.072,0,0,0,.6-.859,1.14,1.14,0,0,0-.15-.628,1.18,1.18,0,0,0-1.249-.549,1.365,1.365,0,0,0-.967.7,1.516,1.516,0,0,0-.111,1.071,1.638,1.638,0,0,0,1.282,1.212,1.973,1.973,0,0,0,1.474-.305,2.062,2.062,0,0,0,.738-.859,2.1,2.1,0,0,0,.169-1.125,2.578,2.578,0,0,0-.791-1.565q-.068-.068-.143-.131a8.393,8.393,0,0,1,1.381.646,4.746,4.746,0,0,1,2.2,2.352,1.988,1.988,0,0,1,.064,1.1,1.519,1.519,0,0,1-.533.836,1.247,1.247,0,0,1-.471.235,1.226,1.226,0,0,1-.525.016.937.937,0,0,1-.752-1.092.7.7,0,0,1,.816-.565.515.515,0,0,1,.332.216l.023.036a.386.386,0,1,0,.45.587.9.9,0,0,0-.09-.889.977.977,0,0,0-.631-.408,1.169,1.169,0,0,0-1.361.938A1.4,1.4,0,0,0,81.4,391.84a1.717,1.717,0,0,0,.31.029,1.68,1.68,0,0,0,.413-.052,1.714,1.714,0,0,0,.649-.325,2,2,0,0,0,.692-1.089m-8.253-1.665a1.794,1.794,0,0,1-.831.6,1.037,1.037,0,0,1-1.31-.952,1.8,1.8,0,0,1,.314-.975,3.478,3.478,0,0,1,.925-.952,4.082,4.082,0,0,1,1.673-.7,4.082,4.082,0,0,1-.148,1.807h0a3.473,3.473,0,0,1-.623,1.174" transform="translate(-66.619 -357.583)" fill="#fff"></path><path d="M287.049,548.158h0a1.424,1.424,0,0,1-.171-.389l-.025-.088h-.022a.233.233,0,0,0-.4.087,1.443,1.443,0,0,1-.171.39,1.631,1.631,0,0,1-.3.344l-.1.088.025.129a1.56,1.56,0,0,0,.231.582,1.36,1.36,0,0,0,.415.4l.122.076.123-.076a1.36,1.36,0,0,0,.415-.4,1.555,1.555,0,0,0,.231-.583l.024-.129-.1-.088a1.634,1.634,0,0,1-.3-.34m-.244.884a.152.152,0,1,1-.3,0,1.016,1.016,0,0,1-.131-.289,2,2,0,0,0,.28-.344v0a1.987,1.987,0,0,0,.28.344,1.019,1.019,0,0,1-.131.289Z" transform="translate(-269.651 -514.242)" fill="#fff"></path><path d="M45.016,379.033a.233.233,0,0,0-.136-.427,1.452,1.452,0,0,1-.423-.042,1.691,1.691,0,0,1-.42-.18l-.114-.068-.116.063a1.565,1.565,0,0,0-.482.4,1.361,1.361,0,0,0-.25.517l-.035.14.111.093a1.361,1.361,0,0,0,.506.272,1.465,1.465,0,0,0,.4.054,1.777,1.777,0,0,0,.223-.014l.129-.017.053-.12a1.682,1.682,0,0,1,.233-.392,1.478,1.478,0,0,1,.318-.283m-.674-.017v0a1.993,1.993,0,0,0-.24.373,1.034,1.034,0,0,1-.316-.036.851.851,0,0,1-.209-.091.865.865,0,0,1,.116-.2,1.02,1.02,0,0,1,.235-.214,1.993,1.993,0,0,0,.413.159h0" transform="translate(-43.041 -356.245)" fill="#fff"></path><path d="M138.189,96.9l.131.014a1.64,1.64,0,0,1,.445.1,1.438,1.438,0,0,1,.367.215l.033.026h.008a.231.231,0,0,0,.1.024.234.234,0,0,0,.219-.314,1.441,1.441,0,0,1-.091-.416,1.679,1.679,0,0,1,.042-.454l.028-.129-.1-.09a1.559,1.559,0,0,0-.529-.335,1.361,1.361,0,0,0-.569-.078l-.144.01-.055.136a1.355,1.355,0,0,0-.1.565,1.561,1.561,0,0,0,.156.608Zm.748-.321v0h0a2.025,2.025,0,0,0-.429-.113,1.027,1.027,0,0,1-.064-.311.152.152,0,1,1,.246-.177,1.01,1.01,0,0,1,.276.156,2,2,0,0,0-.024.443" transform="translate(-131.639 -92.236)" fill="#fff"></path><path d="M45.707,131.99a3.946,3.946,0,0,0,1.487.263,4.552,4.552,0,0,0,1.952-.459,3.959,3.959,0,0,1,.25,1.179,3.5,3.5,0,0,1-.318,1.724,2.123,2.123,0,0,1-1.02,1.02,1.646,1.646,0,0,1-.874.148,1.606,1.606,0,0,1-.812-.34,1.513,1.513,0,0,1-.571-1,1.167,1.167,0,0,1,.587-1.167,1.037,1.037,0,0,1,.692-.132.893.893,0,0,1,.593.4.727.727,0,0,1-.038.884.659.659,0,0,1-.354.2.515.515,0,0,1-.325-.037.452.452,0,1,0-.708-.5.664.664,0,0,0,.18.668,1.072,1.072,0,0,0,1,.309,1.139,1.139,0,0,0,.551-.34,1.179,1.179,0,0,0,.136-1.361,1.361,1.361,0,0,0-.969-.7,1.517,1.517,0,0,0-1.052.225,1.638,1.638,0,0,0-.757,1.595,1.973,1.973,0,0,0,.748,1.308,2.064,2.064,0,0,0,1.044.437,2.108,2.108,0,0,0,1.123-.187A2.576,2.576,0,0,0,49.5,134.9q.043-.086.081-.176a8.431,8.431,0,0,1-.188,1.513,4.747,4.747,0,0,1-1.559,2.815,1.986,1.986,0,0,1-1.029.4,1.521,1.521,0,0,1-.96-.248,1.241,1.241,0,0,1-.369-.375,1.225,1.225,0,0,1-.178-.494.938.938,0,0,1,.806-1.052.7.7,0,0,1,.791.6.514.514,0,0,1-.1.382.426.426,0,0,1-.028.033.386.386,0,1,0-.419.612c.3.1.688-.191.816-.361a.976.976,0,0,0,.193-.726,1.169,1.169,0,0,0-1.313-1.006,1.4,1.4,0,0,0-1.207,1.576,1.682,1.682,0,0,0,.246.68,1.707,1.707,0,0,0,.509.517,2,2,0,0,0,1.1.328q.073,0,.148-.005a2.425,2.425,0,0,0,1.276-.493,5.2,5.2,0,0,0,1.733-3.088,8.873,8.873,0,0,0,0-3.805,6.682,6.682,0,0,0-.285-.971,6.679,6.679,0,0,0,.8-.618,8.879,8.879,0,0,0,2.238-3.078,5.2,5.2,0,0,0,.412-3.516,2.427,2.427,0,0,0-.742-1.149,2,2,0,0,0-1.2-.473,1.714,1.714,0,0,0-.716.12,1.68,1.68,0,0,0-.6.408,1.4,1.4,0,0,0,.05,1.984,1.169,1.169,0,0,0,1.653-.041.974.974,0,0,0,.272-.7c-.005-.214-.147-.674-.449-.771a.386.386,0,1,0-.02.74q0,.021,0,.044a.514.514,0,0,1-.142.369.7.7,0,0,1-1,.025.938.938,0,0,1-.033-1.326,1.218,1.218,0,0,1,.434-.295,1.24,1.24,0,0,1,.519-.086,1.521,1.521,0,0,1,.923.363,1.99,1.99,0,0,1,.6.929,4.749,4.749,0,0,1-.394,3.194,8.424,8.424,0,0,1-.737,1.335q.022-.1.038-.19a2.577,2.577,0,0,0-.279-1.73,2.109,2.109,0,0,0-.8-.812,2.065,2.065,0,0,0-1.1-.261,1.973,1.973,0,0,0-1.373.62,1.638,1.638,0,0,0-.325,1.735,1.517,1.517,0,0,0,.719.8,1.365,1.365,0,0,0,1.2,0A1.18,1.18,0,0,0,50.194,128a1.14,1.14,0,0,0-.248-.6,1.073,1.073,0,0,0-.993-.34.664.664,0,0,0-.538.435.452.452,0,1,0,.865.014.514.514,0,0,1,.284.162.655.655,0,0,1,.166.373.727.727,0,0,1-.489.738.893.893,0,0,1-.716-.023,1.038,1.038,0,0,1-.482-.514,1.165,1.165,0,0,1,.21-1.288,1.51,1.51,0,0,1,1.05-.476,1.61,1.61,0,0,1,.857.2,1.642,1.642,0,0,1,.62.633,2.119,2.119,0,0,1,.226,1.425,3.508,3.508,0,0,1-.75,1.585,3.964,3.964,0,0,1-.9.806,4.55,4.55,0,0,0-1.31-1.518,3.945,3.945,0,0,0-1.357-.662,2.255,2.255,0,0,0-1.293.016,1.5,1.5,0,0,0-.729,2.245,2.253,2.253,0,0,0,1.037.772m.871-2.58a3.474,3.474,0,0,1,1.194.584,4.082,4.082,0,0,1,1.182,1.376,4.082,4.082,0,0,1-1.763.418,3.476,3.476,0,0,1-1.31-.229,1.793,1.793,0,0,1-.827-.6.968.968,0,0,1-.12-.89h0a.969.969,0,0,1,.62-.65,1.442,1.442,0,0,1,.476-.076,2.24,2.24,0,0,1,.544.073" transform="translate(-44.32 -117.685)" fill="#fff"></path></g><g transform="translate(10.39 11.502)"><path d="M198.68,230.839v-.224a.885.885,0,0,0,.393-.114c.4-.312.346-.74.346-1.282,0-3.069.007-9.394.007-9.394l1.44-.031a.539.539,0,0,1,.549.54c0,1.176-.008,3.946-.008,5.443,0,.573.035,1.146.021,1.718a3.24,3.24,0,0,1-1.535,3.016,26.8,26.8,0,0,0,3.191-.035.921.921,0,0,0,.663-.52,6.721,6.721,0,0,0,.484-1.225c.128-.336.241-.68.392-1.006a2.566,2.566,0,0,1,3.18-1.529c0,.024.007.068,0,.071a1.781,1.781,0,0,0-.971,1.2c-.167.506-.34,1.012-.529,1.51a2.51,2.51,0,0,1-2.836,1.865h-4.786" transform="translate(-198.68 -219.794)" fill="#fff"></path></g><g transform="translate(13.353 11.498)"><path d="M243.126,219.738a.014.014,0,0,1,0-.029,5.42,5.42,0,0,1,2.194.461,3.347,3.347,0,0,1,1.992,3.783,2.874,2.874,0,0,1-1.435,1.963,4.47,4.47,0,0,1-2.357.583.034.034,0,1,1-.006-.068,1.973,1.973,0,0,0,1.425-1.986,12.757,12.757,0,0,0-.005-2.325,2.531,2.531,0,0,0-1.81-2.385" transform="translate(-243.112 -219.709)" fill="#fff"></path></g><g transform="translate(17.609 11.611)"><path d="M308.231,224.521l-.85,2.638a4.71,4.71,0,0,0-.573.148c.357-.764,1.535-4.777,1.991-5.821a.081.081,0,0,1,.147,0c1.353,3.7,2.756,7.31,4.032,10.091a.976.976,0,0,0,.853.538l.022.272-2.091-.022a.765.765,0,0,1-.664-.373c-.563-1.142-2.868-7.467-2.868-7.467" transform="translate(-306.808 -221.437)" fill="#fff"></path></g><g transform="translate(38.474 9.576)"><path d="M625.036,190.979H625c-3.106.017-5.621,1.4-5.621,3.519a2.1,2.1,0,0,0,2.069,2.116,1.842,1.842,0,0,0,1.763-1.089l.044-.093-.093-.044c-.816-.381-1.323-.762-1.323-1.483,0-1.446.833-2.187,2.475-2.2a4.688,4.688,0,0,1,2.953.918,3.432,3.432,0,0,1,.959,2.507,3.116,3.116,0,0,1-3.271,3.393h-2.171l.079-1.9-.161.109a2.765,2.765,0,0,1-1.775.346l.024,3.742c0,2.041-.325,1.978-.6,1.978h-.1v.358H623.4V202.8h-.1c-.352,0-.514,0-.514-2.041l-.027-1.616h2.484a5.268,5.268,0,0,0,3.52-1.251,3.769,3.769,0,0,0,1.333-2.766,3.818,3.818,0,0,0-1.184-2.653,5.408,5.408,0,0,0-3.871-1.5" transform="translate(-619.378 -190.976)" fill="#aff5ed"></path></g><g transform="translate(49.892 11.535)"><path d="M802.171,227.78c-.092,1.377-.748,2.167-1.8,2.167-.424,0-.952-.127-1.822-1.637a3.4,3.4,0,0,0-1.369-1.489c2.653-.3,4.228-1.463,4.228-3.142,0-1.94-1.633-3.243-4.068-3.243a4.925,4.925,0,0,0-4.436,2.8v-.9a2.7,2.7,0,0,0-.635-1.966l-.029-.027h-1.887l.038.384h.09c.48,0,.691.214.691,2.258V228.1c0,2.01-.127,2.1-.565,2.1h-.1v.356H793.3v-.35l-.094-.005c-.306-.018-.316-.246-.306-1.208v-3.449a4.237,4.237,0,0,1,4.066-4.381,2.257,2.257,0,0,1,2.534,2.517c0,1.623-1.3,2.553-3.575,2.553h-2.1v.282l1.006.171c.846.144,1.336.993,1.855,1.892.66,1.144,1.408,2.439,3.085,2.439,1.742,0,2.7-1.148,2.7-3.231v-.1h-.291Z" transform="translate(-790.352 -220.349)" fill="#aff5ed"></path></g><g transform="translate(62.79 11.617)"><path d="M989.791,221.635c-2.959,0-4.947,1.313-4.947,3.266a2.091,2.091,0,0,0,2.095,2.084,1.785,1.785,0,0,0,1.779-1.237l.042-.09-.09-.042a2.241,2.241,0,0,1-1.419-2.041c0-.786,1.006-1.314,2.5-1.314a3.885,3.885,0,0,1,3.118,1.258,5.419,5.419,0,0,1,1.063,3.595c0,2.621-1.429,4.007-4.125,4.007-2.537,0-3.994-1.368-4.218-3.955l0-.049-.042-.027a2.579,2.579,0,0,1-1.213-2.191c0-.111.005-.222.016-.331l.05-.533-.239.476a4.944,4.944,0,0,0-.5,2.227c0,3.057,2.449,5.11,6.092,5.11s6.092-2.053,6.092-5.11-2.433-5.11-6.055-5.11" transform="translate(-983.656 -221.628)" fill="#aff5ed"></path></g><g transform="translate(91.421 11.519)"><path d="M1420.314,223.4l-.091.042.042.09a2.1,2.1,0,0,0,1.72,1.212,1.726,1.726,0,0,0,1.721-1.727c0-1.761-2.09-2.944-5.2-2.944-3.585,0-5.994,2.1-5.994,5.228,0,2.986,2.551,4.992,6.348,4.992a4.876,4.876,0,0,0,4.651-2.971l.035-.091-.654-.272-.038.093a4.31,4.31,0,0,1-3.936,2.512c-2.917,0-4.459-1.582-4.459-4.577,0-2.737,1.365-4.184,3.946-4.184,1.543,0,2.58.608,2.58,1.514a1.049,1.049,0,0,1-.674,1.084" transform="translate(-1412.513 -220.074)" fill="#aff5ed"></path></g><g transform="translate(103.644 11.513)"><path d="M1595.6,223.051a2.457,2.457,0,0,0,2.545,2.351,1.914,1.914,0,0,0,2.063-1.714v-.1h-.1c-1,0-1.677-.54-1.677-1.344,0-1.218.958-1.474,1.761-1.474.309,0,.612-.01.9-.018a12.948,12.948,0,0,1,1.489.01v6.982c0,2.1-.5,2.1-.691,2.1h-.1v.356h3.312v-.359h-.1a.408.408,0,0,1-.323-.11c-.245-.239-.365-.89-.365-1.991v-6.973h1.786c1.905,0,2.577.028,2.782.574l.129.423h.4v-1.8h-9.665c-2.672,0-4.143,1.094-4.143,3.08" transform="translate(-1595.6 -219.968)" fill="#aff5ed"></path></g><g transform="translate(123.513 9.973)"><path d="M1903,196.914a1.746,1.746,0,0,0-1.809,1.672,1.634,1.634,0,0,0,.627,1.257l.074.059.063-.071a1.537,1.537,0,0,1,1.143-.674,1.037,1.037,0,0,1,1.08,1.06,3.3,3.3,0,0,1-.391,1.353l-3.113,5.591a3.553,3.553,0,0,0-.159-.386l-3.438-6.916,0-.008c-.284-.572-.66-1.246-1.058-1.378l-.016,0h-2.807v.285l.7.09c.538.068.989.5,1.419,1.361l4.158,8.534.476,1.233,4.481-8.083a5.482,5.482,0,0,0,.72-2.592,2.245,2.245,0,0,0-2.143-2.381" transform="translate(-1893.194 -196.913)" fill="#aff5ed"></path></g><g transform="translate(79.48 16.457)"><path d="M1236.076,295.645a9.5,9.5,0,0,0-.612,1.45c-.063.176-.129.359-.2.535l-.012.031c-.246.642-.476,1.248-1.315,1.5l-.362.111.37.081a5.049,5.049,0,0,0,1.081.126,2.892,2.892,0,0,0,2.768-1.726,11.869,11.869,0,0,0,.509-1.293c.082-.233.166-.476.257-.707.226-.58.44-1.128,1.229-1.344l.4-.108-.4-.085c-1.75-.369-2.963.1-3.709,1.425" transform="translate(-1233.579 -294.098)" fill="#aff5ed"></path></g><g transform="translate(136.323 11.51)"><path d="M2095.329,227.982l-.3.037-.122.476c-.278.688-1.37,1.036-3.246,1.036h-4.329a3.135,3.135,0,0,0,.321-1.728v-2.2l.34-.195a3.36,3.36,0,0,1,1.629-.507c.525,0,1.266.279,1.266.9a1.65,1.65,0,0,1-.578,1.047l-.068.068.068.068a1.731,1.731,0,0,0,1.2.523,1.571,1.571,0,0,0,1.574-1.565,2.176,2.176,0,0,0-2.45-2.113,6.046,6.046,0,0,0-2.925.917l-.054.031v-2.187h0a3.723,3.723,0,0,0-.325-1.837h4.333c1.876,0,2.968.348,3.247,1.036l.122.476.3.037v-1.574a3.022,3.022,0,0,0,0-.376c-.011-.15-.147-.329-.737-.329h-9.457v.356h.1c.44,0,.691.852.691,2.339V227.8c0,2.1-.485,2.1-.691,2.1h-.1v.356h9.457c.59,0,.727-.179.737-.33a2.976,2.976,0,0,0,0-.376Z" transform="translate(-2085.134 -220.027)" fill="#aff5ed"></path></g><g transform="translate(118.968 11.487)"><path d="M1825.15,219.952h.1c.334,0,.69.18.69,2.336v5.1c0,1.955-.272,2.1-.69,2.1h-.1v.356h3.312v-.356h-.1c-.417,0-.691-.146-.691-2.1v-5.1c0-2.156.356-2.336.691-2.336h.1v-.363h-3.312Z" transform="translate(-1825.15 -219.589)" fill="#aff5ed"></path></g><g transform="translate(83.415 9.566)"><path d="M1300.956,202.617c-.531,0-.821-.656-.826-.667-.806-1.649-1.585-3.506-2.338-5.3-.816-1.944-1.658-3.954-2.563-5.773a.165.165,0,0,0-.3.012c-.44,1.114-1.938,4.721-2.321,5.622l-.088.209.213-.076a1.431,1.431,0,0,1,.521-.1l.073.005.99-2.485c.581,1.261,1.429,3.294,2.181,5.1.626,1.5,1.167,2.8,1.429,3.354a.9.9,0,0,0,.763.472h.021l2.364-.02v-.356h-.12" transform="translate(-1292.521 -190.786)" fill="#aff5ed"></path></g><g transform="translate(70.106 25.783)"><path d="M1095.283,435.6a.914.914,0,0,0,.261-.639.884.884,0,0,0-.953-.919h-1.344v3.708h1.344a1.131,1.131,0,0,0,1.209-1.179,1.178,1.178,0,0,0-.52-.971m-.689,1.661h-.84v-1.381h.84a.691.691,0,1,1,0,1.381m0-1.87h-.84v-.861h.84a.431.431,0,0,1,0,.861" transform="translate(-1093.247 -434.041)" fill="#fff"></path></g><g transform="translate(74.104 25.785)"><path d="M1154.664,436.081l-1-2.036h-.55l1.268,2.593-.544,1.114h.549l1.818-3.708h-.55Z" transform="translate(-1153.118 -434.045)" fill="#fff"></path></g><g transform="translate(81.916 25.785)"><path d="M1271.338,434.045H1270.1v3.708h.5V436.4h.736a1.18,1.18,0,1,0,0-2.358m0,1.87h-.736v-1.381h.736a.691.691,0,1,1,0,1.381" transform="translate(-1270.1 -434.044)" fill="#fff"></path></g><g transform="translate(86.003 25.953)"><path d="M1333.734,438.914a.935.935,0,1,1-1.871,0v-2.349h-.5v2.349a1.439,1.439,0,1,0,2.878,0v-2.349h-.5Z" transform="translate(-1331.36 -436.565)" fill="#fff"></path></g><g transform="translate(90.525 25.783)"><path d="M1401.5,435.223a1.131,1.131,0,0,0-1.209-1.179h-1.24v3.708h.5V436.4h.562l1.065,1.35h.661l-1.114-1.416a1.114,1.114,0,0,0,.77-1.113m-1.945-.691h.735a.691.691,0,1,1,0,1.381h-.735Z" transform="translate(-1399.051 -434.041)" fill="#fff"></path></g><g transform="translate(95.052 25.789)"><path d="M1466.88,437.758h2.208v-.488h-1.7v-1.381h1.6V435.4h-1.6v-.861h1.7v-.488h-2.208Z" transform="translate(-1466.88 -434.051)" fill="#fff"></path></g><g transform="translate(102.015 25.785)"><path d="M1571.7,434.045h-.5v3.708h2.149v-.488H1571.7Z" transform="translate(-1571.2 -434.045)" fill="#fff"></path></g><g transform="translate(106.073 25.785)"><rect width="0.503" height="3.708" fill="#fff"></rect></g><g transform="translate(108.612 25.785)"><path d="M1672.683,436.97l-2.129-2.925h-.544v3.708h.5v-2.925l2.129,2.925h.544v-3.708h-.5Z" transform="translate(-1670.01 -434.045)" fill="#fff"></path></g><g transform="translate(113.49 25.785)"><path d="M1745.262,434.533v-.488h-2.208v3.708h2.208v-.488h-1.7v-1.381h1.6v-.488h-1.6v-.861Z" transform="translate(-1743.054 -434.045)" fill="#fff"></path></g></g></svg> 