<?xml version="1.0" encoding="UTF-8"?> <svg xmlns="http://www.w3.org/2000/svg" xmlns:xlink="http://www.w3.org/1999/xlink" width="216.593" height="35.531" viewBox="0 0 216.593 35.531"><defs><clipPath id="a"><path d="M171,0h73.591V35.531H171Zm0,0" transform="translate(-171)" fill="#fff"></path></clipPath><clipPath id="b"><path d="M170.672,29.971c15.218-7.19,30.256-6.755,45.143,0C201.745,37.433,186.642,36.974,170.672,29.971Zm73.792-10.785c-1.914,4.992-5.942,6.654-11.374,5.662C235.257,20.033,239.142,18.175,244.464,19.186ZM239.322,9.051c-.1,6.918-3.344,11.134-9.635,12.734C229.378,14.935,232.663,10.655,239.322,9.051ZM226.472,2.062c4.132,7.074,3.565,13.553-1.057,19.452C220.705,14.828,221.046,8.259,226.472,2.062ZM208.986-.094c8.881,5.858,12.492,13.45,11.568,22.472C211.922,17.312,208.058,9.7,208.986-.094ZM187.329,8.428c13.735.309,23.827,6.359,30.882,17.133C204.959,26.1,194.74,20.123,187.329,8.428Zm0,0" transform="translate(-170.672 0.094)" fill="#fff"></path></clipPath><clipPath id="d"><path d="M229.075,7.942c0-10.974-18.5-19.871-41.323-19.871V7.942ZM187.753-11.93c-22.822,0-41.324,8.9-41.324,19.871h41.324ZM229.075,7.942H187.753V27.816C210.575,27.816,229.075,18.919,229.075,7.942Zm-82.646,0c0,10.977,18.5,19.874,41.324,19.874V7.942Zm82.646,0h20.242c0-16.351-27.565-29.606-61.565-29.606v9.735C210.575-11.93,229.075-3.033,229.075,7.942ZM187.753-11.93v-9.735c-34,0-61.565,13.255-61.565,29.606h20.241C146.429-3.033,164.931-11.93,187.753-11.93ZM229.075,7.942c0,10.977-18.5,19.874-41.323,19.874v9.734c34,0,61.565-13.256,61.565-29.609Zm-82.646,0H126.188c0,16.353,27.563,29.609,61.565,29.609V27.816C164.931,27.816,146.429,18.919,146.429,7.942Zm0,0" transform="translate(-126.188 21.664)" fill="#fff"></path></clipPath></defs><g transform="translate(69.123)" clip-path="url(#a)"><g transform="translate(-0.133 -0.038)" clip-path="url(#b)"><g clip-path="url(#b)"><g transform="translate(-17.987 -8.709)" clip-path="url(#d)"><rect width="73.915" height="35.531" transform="translate(17.958 8.707)" fill="#fff"></rect></g></g></g></g><path d="M.051,42.094V34.151a8.245,8.245,0,0,1,6.676-.109c2.331-1.144,5.97-.771,5.97,2.068v5.985l-2.008-.019V36.211a.808.808,0,0,0-.662-.867,3.709,3.709,0,0,0-2.7.221v6.53H5.261v-6.53a3.137,3.137,0,0,0-3.364,0v6.53Zm57.763-3.983a4.7,4.7,0,0,0,5.009,4.568,5.485,5.485,0,0,0,1.238-.141V46.8l1.866-.488V33.887a12.568,12.568,0,0,0-5.228-.009C59.019,34.295,57.814,35.74,57.814,38.111Zm6.247-2.772v5.538c-4.963,1.084-5.038-4.8-2.26-5.538A7.631,7.631,0,0,1,64.061,35.339ZM54.3,37.131a1.917,1.917,0,0,0-1.974-2.06,1.965,1.965,0,0,0-2.008,2.091ZM52.3,33.409c3.7,0,4.122,3.355,4.122,5.4l-6.173-.035h-.011a.825.825,0,0,1,0,.142,2.321,2.321,0,0,0,2.726,2.025,5.121,5.121,0,0,0,2.063-.515l.826,1.153a6.2,6.2,0,0,1-3.459,1.033A4.412,4.412,0,0,1,48.182,38,4.312,4.312,0,0,1,52.3,33.409ZM44.275,42.53H42.411l-.01-7.195a1.984,1.984,0,0,1,.155-1.038c.674-.864,4.577-.87,5.519-.722l-1.022,1.707c-1.143-.036-2.412-.147-2.759.306ZM32.411,29.48h1.864V33.9c2.9-.922,4.955-.479,5.831,1.369.071,2.38,0,4.819,0,7.266H38.243v-5.8c0-2.1-3.968-1.592-3.968-.445V42.53H32.411ZM30.1,33.712c-.169.577-.265,1.079-.434,1.654-.7-.055-1.464-.3-2.164-.31-1.2-.013-1.606,1.469-.445,1.809,3.595,1.047,4.555,4.013,1.488,5.523-1,.493-3.38.213-4.664-.34l.81-1.594a4.988,4.988,0,0,0,1.218.644c2.355.482,3.407-1.513,1.42-2.27-1.445-.551-2.9-1.181-3.11-2.543a2.49,2.49,0,0,1,2.333-2.778A9.973,9.973,0,0,1,30.1,33.712ZM15.32,34q.4.7.794,1.395c2.126-.286,3.826-.444,4.146.335-.952,2.6-5.569.668-5.645,3.957a2.5,2.5,0,0,0,1.977,2.688c1.989.54,3.571-.052,5.561-.163L22.122,36C22.108,33.244,18.311,32.891,15.32,34Zm4.827,3.843v2.712c-1.379.891-3.266.629-3.394-.3C16.487,38.379,19.126,39.095,20.147,37.845Zm0,0" transform="translate(-0.051 -17.594)" fill="#aff5ed" fill-rule="evenodd"></path><path d="M385.168,28.1q-.421.5-1.494,1.57l-1.5-1.463-1.42,1.463-1.483-1.494a18.144,18.144,0,0,1,1.483-1.538l1.42,1.426,1.5-1.426Zm-2.173,9.4a13.762,13.762,0,0,1-3.124-.915c-1.089-.591-1.327-1.807-.442-3.412A3.92,3.92,0,0,1,381,31.4c2.395-1.091,3.421.283,4.05,2.082,1.086,3.108.372,5.135-2.145,6.381a22.9,22.9,0,0,1-8.28.542c-3.052-.235-4.246-1.355-4.593-4a6.615,6.615,0,0,1,1.611-4.879,5.53,5.53,0,0,1,1.259.965,7.1,7.1,0,0,0-.945,3.254,2.018,2.018,0,0,0,.722,1.649c1.657,1.18,8.06,1.144,10.048.526C383.053,37.817,383.015,37.761,382.995,37.5Zm54,2.559-2.009.344-.371-12.737,2.014-.344Zm-4.456.408H417.763a2.576,2.576,0,0,1-1.461-.892c-.262.73-.534.892-.891.892H393.171a8.915,8.915,0,0,1-1.856,3.576,7.254,7.254,0,0,1-4.6,1.507A1.515,1.515,0,0,1,386.693,44a5.23,5.23,0,0,0,2.96-1.232,3.524,3.524,0,0,0,1.2-2.745,7.768,7.768,0,0,0-1.594-4.238l1.8-1.486c.6.452,1.347,1.88,2.1,4.026h5.434a1.393,1.393,0,0,1,.032-.152,4.489,4.489,0,0,0-1.265-2.932c.278-.382.719-.913,1.322-1.6a6.123,6.123,0,0,1,1.94,4.652h2.216l.063-.152a3.021,3.021,0,0,0-1.186-2.9l1.289-1.6a4.946,4.946,0,0,1,1.752,4.652h2.786l.03-.152a5.854,5.854,0,0,0-1.67-4.2l1.632-1.377a7.558,7.558,0,0,1,1.9,5.789h3.733c1.6,0,2.064-.843,2.8-1.767q.675-1.305,1.369-2.6a2.7,2.7,0,0,1,2.5-1.395,2.426,2.426,0,0,1,1.9,1.09,13.658,13.658,0,0,1,1.3,2.3c.509,1.08.886,2.156,1.133,2.466h6.4l-.146-10.674,1.741-.671Q432.349,33.784,432.541,40.465Zm-10.6-2.14v-.273a4.725,4.725,0,0,0-1.613-2.718.708.708,0,0,0-.6-.262c-.419,0-.921.392-1.373,1.072a5.813,5.813,0,0,0-.8,1.466c.763.709,2.765.867,3.908.779A1.83,1.83,0,0,0,421.942,38.324ZM403.877,26.786a4.857,4.857,0,0,1-1.1,1.306c-.286-.235-.714-.63-1.268-1.192a10.746,10.746,0,0,1,1.192-1.306Zm1.867,2.279q-.523.526-1.606,1.478-.448-.372-1.439-1.363a15.036,15.036,0,0,1-1.453,1.363,16.149,16.149,0,0,1-1.606-1.478l1.529-1.491q.45.372,1.53,1.44l1.439-1.44A14.047,14.047,0,0,1,405.744,29.065Zm-22.061,6.563c-.458-1.485-1.115-2.611-2.484-2.456a1.377,1.377,0,0,0-.622,1.047C381.308,35.379,382.55,35.437,383.683,35.628Zm0,0" transform="translate(-220.405 -15.296)" fill="#aff5ed" fill-rule="evenodd"></path></svg> 