<?xml version="1.0" encoding="UTF-8"?> <svg xmlns="http://www.w3.org/2000/svg" xmlns:xlink="http://www.w3.org/1999/xlink" width="127.994" height="35.531" viewBox="0 0 127.994 35.531"><defs><clipPath id="a"><path d="M327.3,228.151A12.351,12.351,0,1,0,339.651,215.8,12.345,12.345,0,0,0,327.3,228.151" transform="translate(-327.3 -215.8)"></path></clipPath></defs><g transform="translate(0 0)"><g transform="translate(0)"><path d="M-120.284,197.468h.064l3.072,9.152h-6.144Zm-2.325-5.568-8.49,23.4v1.451h4.565l2.048-6.314h8.618l2.112,6.314h5.525V215.3l-8.512-23.4Z" transform="translate(131.1 -191.9)" fill="#aff5ed"></path></g><g transform="translate(10.048 0.149)"><path d="M-16.951,237.457v-3.84h1.685a7.034,7.034,0,0,0,4.714,1.557c2.155,0,3.285-.576,3.285-1.749,0-1.131-.683-1.664-3.392-1.984-4.2-.491-6.442-2.027-6.442-5.674,0-3.754,2.9-5.866,7.594-5.866a12.841,12.841,0,0,1,6.037,1.28v3.754h-1.6A7.6,7.6,0,0,0-9.463,223.7c-2.091,0-2.88.6-2.88,1.664,0,.96.939,1.451,3.584,1.771,4.565.576,6.464,2.027,6.464,5.781,0,3.669-2.453,6.037-8,6.037a12.716,12.716,0,0,1-6.656-1.493" transform="translate(31.371 -214.094)" fill="#aff5ed"></path><path d="M55.2,202.67h2.261V197.7h5.333v4.97h3.883v3.477H62.816V215.7c0,1.771.725,2.261,2.475,2.261h1.472V221.1a10.74,10.74,0,0,1-3.371.491c-3.691,0-5.93-1.429-5.93-5.29V206.148H55.2Z" transform="translate(-25.505 -196.612)" fill="#aff5ed"></path><path d="M117.482,230.53c.256,3.733,2.091,4.757,5.056,4.757a8.651,8.651,0,0,0,5.077-1.557h1.643v3.413a14.316,14.316,0,0,1-7.53,1.813c-6.293,0-9.728-3.626-9.728-9.472,0-5.994,4.032-9.685,9.344-9.685,5.632,0,8.64,3.008,8.64,9.152,0,.64-.085,1.429-.085,1.6H117.482Zm.064-3.115h7.168c-.107-3.307-1.28-4.373-3.371-4.373-1.856,0-3.392.9-3.8,4.373" transform="translate(-70.188 -214.016)" fill="#aff5ed"></path><path d="M213.733,225.554v13.461H208.4V220.371h3.627c.917,0,1.451.384,1.643,2.24A7.4,7.4,0,0,1,219,220.2a4.215,4.215,0,0,1,1.173.171v4.074h-.917a12.552,12.552,0,0,0-5.525,1.109" transform="translate(-146.024 -214.33)" fill="#aff5ed"></path><g transform="translate(0 30.07)"><path d="M-79.52,339.35h-.235l-1.067-4.586h-.512L-82.4,339.35h-.235l-.917-4.65H-84l1.024,5.034h.9l1-4.416.981,4.416h.917l1.024-5.034H-78.6Z" transform="translate(84 -334.508)" fill="#fff"></path><path d="M-52.907,341c-.875,0-1.493.491-1.493,1.9,0,1.216.32,1.856,1.408,1.877a13.817,13.817,0,0,0,1.387-.107l-.021-.363s-.789.064-1.323.064c-.768,0-1-.448-1-1.3H-51.5l.021-.341c0-1.216-.491-1.728-1.429-1.728m-1.045,1.707c0-.96.384-1.323,1.045-1.323.683,0,1,.341,1,1.323Z" transform="translate(60.714 -339.464)" fill="#fff"></path><path d="M-37.6,335.636h.363l.405-1.536h-.448Z" transform="translate(47.498 -334.036)" fill="#fff"></path><rect width="0.427" height="5.226" transform="translate(11.583)" fill="#fff"></rect><rect width="0.427" height="5.226" transform="translate(13.183)" fill="#fff"></rect><path d="M-5.895,334.7H-9.5v.405h1.579v4.629h.448v-4.629h1.579Z" transform="translate(25.393 -334.508)" fill="#fff"></path><path d="M7.627,341.243H7.2v3.626h.427V342.16a4.9,4.9,0,0,1,1.365-.533V341.2a3.555,3.555,0,0,0-1.365.6Z" transform="translate(12.255 -339.621)" fill="#fff"></path><path d="M19.093,341c-.875,0-1.493.491-1.493,1.9,0,1.216.32,1.856,1.408,1.877a13.817,13.817,0,0,0,1.387-.107l-.021-.363s-.789.064-1.323.064c-.768,0-1-.448-1-1.3H20.5l.021-.341C20.5,341.512,20.011,341,19.093,341m-1.067,1.707c0-.96.384-1.323,1.045-1.323.683,0,1,.341,1,1.323Z" transform="translate(4.073 -339.464)" fill="#fff"></path><path d="M36.952,344.093v-1.941c0-.768-.341-1.152-1.131-1.152a9.169,9.169,0,0,0-1.408.149l.021.341s.853-.107,1.365-.107c.469,0,.7.213.7.768v.341l-1.237.128c-.725.064-1.067.384-1.067,1.067,0,.725.363,1.088,1,1.088a3.927,3.927,0,0,0,1.365-.3,1.032,1.032,0,0,0,.811.3l.021-.341c-.213-.043-.427-.128-.448-.341m-.427.064a4.076,4.076,0,0,1-1.237.256c-.405,0-.6-.277-.6-.725,0-.427.171-.661.661-.7l1.173-.128Z" transform="translate(-8.985 -339.464)" fill="#fff"></path><path d="M52.336,340.458c-.512,0-.576-.235-.576-1.131v-1.792h1.216v-.384H51.76V336h-.427v1.131H50.8v.384h.533v2.005c0,1.045.256,1.3.981,1.3.256,0,.725-.064.725-.064l-.021-.363c-.021,0-.491.064-.683.064" transform="translate(-22.044 -335.531)" fill="#fff"></path><path d="M72.679,334.7l-1.344,2.453L69.991,334.7H69.5l1.621,2.923v2.112h.448v-2.112l1.621-2.923Z" transform="translate(-36.755 -334.508)" fill="#fff"></path><path d="M88.115,341c-1.131,0-1.515.555-1.515,1.835,0,1.365.3,1.941,1.515,1.941s1.515-.576,1.515-1.941c0-1.28-.384-1.835-1.515-1.835m0,3.392c-.939,0-1.067-.448-1.067-1.557,0-1.088.235-1.451,1.067-1.451s1.067.363,1.067,1.451c.021,1.109-.128,1.557-1.067,1.557" transform="translate(-50.207 -339.464)" fill="#fff"></path><path d="M107.425,344.308a2.3,2.3,0,0,1-1.067.3c-.725,0-.832-.341-.832-1.429V341.3H105.1v1.9c0,1.344.213,1.813,1.216,1.813a2.469,2.469,0,0,0,1.109-.341v.277h.427v-3.626h-.427Z" transform="translate(-64.76 -339.7)" fill="#fff"></path><path d="M133.58,339.35h-.235l-1.045-4.586h-.533L130.7,339.35h-.235l-.917-4.65H129.1l1.045,5.034h.9l.981-4.416,1,4.416h.9l1.024-5.034H134.5Z" transform="translate(-83.641 -334.508)" fill="#fff"></path><path d="M160.193,341c-.875,0-1.493.491-1.493,1.9,0,1.216.32,1.856,1.408,1.877a13.817,13.817,0,0,0,1.387-.107l-.021-.363s-.789.064-1.323.064c-.768,0-1-.448-1-1.3H161.6l.021-.341c0-1.216-.491-1.728-1.429-1.728m-1.045,1.707c0-.96.384-1.323,1.045-1.323.683,0,1,.341,1,1.323Z" transform="translate(-106.927 -339.464)" fill="#fff"></path><rect width="0.427" height="5.226" transform="translate(55.634)" fill="#fff"></rect><rect width="0.427" height="5.226" transform="translate(57.234)" fill="#fff"></rect></g><path d="M338.141,210.216a17.621,17.621,0,1,1-17.62-17.616,17.613,17.613,0,0,1,17.62,17.616" transform="translate(-220.365 -192.6)" fill="#fff"></path></g><g transform="translate(97.788 5.098)"><g transform="translate(0 0)" clip-path="url(#a)"><path d="M324.6,226.006a12.917,12.917,0,1,1,12.927,12.927A12.914,12.914,0,0,1,324.6,226.006" transform="translate(-325.176 -213.676)" fill="#00a283"></path></g><g transform="translate(0 0)" clip-path="url(#a)"><path d="M324,225.106a13.108,13.108,0,0,1,25.556-3.9,1.943,1.943,0,0,1-.9.427,5,5,0,0,0-2.368,1.259l-2.581,2.923-4.65,4.693s-.427.085-.469-.7-.661-3.584-.661-3.584a6.019,6.019,0,0,1-1.131,1.792,15.259,15.259,0,0,1-7.04,3.285,4.569,4.569,0,0,1-3.605-1.216,13.536,13.536,0,0,0-1.749-2.453,8.291,8.291,0,0,1-.405-2.517" transform="translate(-324.704 -212.968)" fill="#0b308e"></path></g></g><g transform="translate(92.583 0.149)"><path d="M342.1,253.133s-.128-.128-.32.555a16.345,16.345,0,0,0-.213,2.624,7.52,7.52,0,0,0,1.109-2.859c-.021-.555-.576-.32-.576-.32m-3.072,3.712-.021.043a.587.587,0,0,1,.363.043c.192.128.277.491.192.555-.171.107-1.792,1.131-2.176.981s-1.92-1.664-2.859-2.3c-.939-.619-5.525-2.112-5.717,1.749-.192,3.84,3.776,4.992,6.293,4.117,2.539-.853,5.333-4.2,5.333-4.2-.043-2.923.235-3.691.789-4.8.576-1.173,2.453-1.259,2.155.725a9.536,9.536,0,0,1-1.877,3.861,23.494,23.494,0,0,1,.789,3.819s4.394-5.12,6.314-7.082c1.877-1.9,3.392-1.237,3.392-1.237-.427.192-.555,1.643-.619,1.877-.085.235-.576,0-.576,0l.064-.512c-.811-1.216-2.453.939-3.307,2.731a22.573,22.573,0,0,0-1.259,5.4l1.173.085v.619a8.267,8.267,0,0,0-2.389.747,7.218,7.218,0,0,1,.043-1.323c.085-1.088.939-4.522.939-4.522s-1.408,1.493-1.9,2.155c-.512.661-2.923,3.413-2.923,3.413l-.384-.384a12.585,12.585,0,0,0,.277-2.3c-.085-.619-.384-2.091-.384-2.091l-.981.981a15.671,15.671,0,0,1-3.861,2.773c-7.509,2.347-9.13-4.395-7.125-6.848a4.663,4.663,0,0,1,5.525-1.173c.853.363,3.733,2.688,4.1,2.731.3.021.533-.384.6-.512l.021-.107" transform="translate(-322.646 -239.508)" fill="#fff" fill-rule="evenodd"></path><path d="M338.141,210.216a17.621,17.621,0,1,1-17.62-17.616,17.613,17.613,0,0,1,17.62,17.616" transform="translate(-302.9 -192.6)" fill="#aff5ed"></path></g><g transform="translate(97.788 5.098)"><g transform="translate(0 0)" clip-path="url(#a)"><path d="M324.6,226.006a12.917,12.917,0,1,1,12.927,12.927A12.914,12.914,0,0,1,324.6,226.006" transform="translate(-325.176 -213.676)" fill="#16b1a0"></path></g><g transform="translate(0 0)" clip-path="url(#a)"><path d="M324,225.106a13.108,13.108,0,0,1,25.556-3.9,1.943,1.943,0,0,1-.9.427,5,5,0,0,0-2.368,1.259l-2.581,2.923-4.65,4.693s-.427.085-.469-.7-.661-3.584-.661-3.584a6.019,6.019,0,0,1-1.131,1.792,15.259,15.259,0,0,1-7.04,3.285,4.569,4.569,0,0,1-3.605-1.216,13.536,13.536,0,0,0-1.749-2.453,8.291,8.291,0,0,1-.405-2.517" transform="translate(-324.704 -212.968)" fill="#129081"></path></g></g><g transform="translate(92.412 0)"><path d="M342.1,253s-.128-.021-.341.661a16.339,16.339,0,0,0-.213,2.624,7.521,7.521,0,0,0,1.109-2.859c0-.533-.555-.427-.555-.427m-3.093,3.882a.587.587,0,0,1,.363.043c.192.128.277.491.192.555-.171.107-1.792,1.131-2.176.981s-1.92-1.664-2.859-2.3c-.939-.619-5.525-2.112-5.717,1.749-.192,3.84,3.776,4.992,6.293,4.117,2.539-.853,5.333-4.2,5.333-4.2-.043-2.923.235-3.691.789-4.8.576-1.173,2.453-1.259,2.155.725a9.536,9.536,0,0,1-1.877,3.861,23.494,23.494,0,0,1,.789,3.819s4.394-5.12,6.314-7.082c1.877-1.9,3.392-1.237,3.392-1.237-.427.192-.555,1.643-.619,1.877-.085.235-.576,0-.576,0l.064-.512c-.811-1.216-2.453.917-3.307,2.731a22.573,22.573,0,0,0-1.259,5.4l1.173.085v.619a8.267,8.267,0,0,0-2.389.747,7.218,7.218,0,0,1,.043-1.323c.085-1.088.939-4.522.939-4.522s-1.408,1.493-1.9,2.155c-.512.661-2.923,3.413-2.923,3.413l-.384-.384a12.585,12.585,0,0,0,.277-2.3c-.085-.619-.384-2.091-.384-2.091l-.981.981a15.671,15.671,0,0,1-3.861,2.773c-7.509,2.347-9.13-4.395-7.125-6.848a4.224,4.224,0,0,1,3.754-1.6,6.017,6.017,0,0,1,1.92.533,12.454,12.454,0,0,1,1.536.981,23.125,23.125,0,0,0,2.411,1.643c.277-.043.533-.469.6-.576" transform="translate(-322.476 -239.358)" fill="#fff" fill-rule="evenodd"></path><path d="M311.209,289.764l-.3-1.109-.7-.128-.107-.427,3.072.555-2.41,1.941-.107-.427Zm.32-.256.768-.619-.981-.171Z" transform="translate(-308.393 -267.61)" fill="#15af9e"></path><path d="M317.637,299.565l-.3-.213a1.365,1.365,0,0,0,.128-.235.5.5,0,0,0-.043-.235.382.382,0,0,0-.192-.213.272.272,0,0,0-.256,0c-.128.043-.171.192-.171.384v.277a1.028,1.028,0,0,1-.107.555.6.6,0,0,1-.363.32.8.8,0,0,1-.661.021.9.9,0,0,1-.512-1.067.893.893,0,0,1,.405-.491l.256.341a.945.945,0,0,0-.256.213.451.451,0,0,0,0,.405.423.423,0,0,0,.235.235.389.389,0,0,0,.341-.021l.128-.085.085-.107a.309.309,0,0,0,.043-.149c0-.064.021-.128.021-.192v-.277a.755.755,0,0,1,.384-.768.633.633,0,0,1,.555,0,.768.768,0,0,1,.405.448.887.887,0,0,1-.128.853" transform="translate(-312.347 -275.558)" fill="#15af9e"></path><path d="M321.955,305.667l-1.941,1.195-.213-.341,1.963-1.195-.32-.512.32-.213.832,1.387-.32.192Z" transform="translate(-316.024 -280.595)" fill="#15af9e"></path><path d="M326.509,313.365l-.661-.832-.512.405.64.811-.277.235-.661-.811-.683.555.661.832-.3.235-.917-1.152L325.891,312l.9,1.131Z" transform="translate(-319.171 -286.42)" fill="#15af9e"></path><path d="M331.851,320.407l-.192,1.387-.363-.341.192-1.3-.043-.043-.747.789-.3-.277,1.835-1.92.341.32a1.136,1.136,0,0,1,.405.661.7.7,0,0,1-.213.6.767.767,0,0,1-.448.235.641.641,0,0,1-.469-.107m-.149-.555.085.085c.277.256.512.277.7.085s.149-.427-.128-.683l-.107-.107Z" transform="translate(-324.363 -291.693)" fill="#15af9e"></path><path d="M343.3,329.9l1.323-2.3.491.277a1.767,1.767,0,0,1,.512.384.949.949,0,0,1,.256.448,1.352,1.352,0,0,1-.128,1.067,1.209,1.209,0,0,1-.875.64,1.035,1.035,0,0,1-.512,0,1.585,1.585,0,0,1-.576-.256Zm.555-.107.149.085a1.369,1.369,0,0,0,.427.171,1.16,1.16,0,0,0,.384,0,.964.964,0,0,0,.619-.469.987.987,0,0,0,.107-.768,1.058,1.058,0,0,0-.555-.6l-.149-.085Z" transform="translate(-334.511 -298.703)" fill="#15af9e"></path><path d="M354.8,335.539,356.229,333l.213,2.24L358,333.576l-.427,2.88-.384-.128.256-1.6-1.3,1.387-.171-1.877-.789,1.429Z" transform="translate(-343.558 -302.951)" fill="#15af9e"></path><path d="M377.869,339.267l1.152.043.043-1.024h.405l-.128,2.667-.384-.021.043-1.237-1.131-.064-.064,1.237H377.4l.128-2.667.405.021Z" transform="translate(-361.337 -307.042)" fill="#15af9e"></path><path d="M390.815,338.084l-1.067.107.064.64,1.024-.107.043.363-1.024.128.107.875,1.045-.128.043.384-1.451.171-.3-2.645,1.472-.171Z" transform="translate(-370.698 -306.648)" fill="#15af9e"></path><path d="M401.421,337.363l-1.088.3-.107.7-.427.107.512-3.072,1.963,2.389-.427.107Zm-.256-.32-.619-.768-.171.981Z" transform="translate(-378.958 -304.839)" fill="#15af9e"></path><path d="M409.263,333.4l.9,2.091.725-.32.149.341-1.088.469-1.045-2.432Z" transform="translate(-386.117 -303.266)" fill="#15af9e"></path><path d="M414.267,329.219l1.109,2.005-.341.192-1.109-2.005-.533.3-.192-.32,1.429-.789.171.32Z" transform="translate(-389.5 -299.49)" fill="#15af9e"></path><path d="M421.639,324.349l.917-.683-.64-.832.32-.235,1.621,2.112-.32.235-.747-.981-.917.7.747.981-.32.235-1.6-2.112.32-.235Z" transform="translate(-395.4 -294.77)" fill="#15af9e"></path><path d="M432.648,314.8l.341.32a1.2,1.2,0,0,0-.7.32.858.858,0,0,0-.256.7.926.926,0,0,0,.341.683,1.018,1.018,0,0,0,.7.277.869.869,0,0,0,.683-.32.852.852,0,0,0,.192-.32.624.624,0,0,0,.043-.192.8.8,0,0,0,.021-.235l.363.32a1.51,1.51,0,0,1-.341.661,1.361,1.361,0,0,1-.96.448,1.284,1.284,0,0,1-.981-.363,1.317,1.317,0,0,1-.427-.853,1.337,1.337,0,0,1,.363-1.109,1.878,1.878,0,0,1,.619-.341" transform="translate(-404.02 -288.623)" fill="#15af9e"></path><path d="M440.833,309.2l-.619.96.384.6-.235.363L438.7,308.5l3.051.448-.235.363Zm-.405-.064-.981-.149.533.832Z" transform="translate(-409.56 -283.665)" fill="#15af9e"></path><path d="M444.628,298.816l1.365-.3-.192.448-1.3.277-.021.064,1,.427-.149.363L442.9,299.05l.192-.427a1.169,1.169,0,0,1,.491-.619.679.679,0,0,1,.64,0,.752.752,0,0,1,.384.341.858.858,0,0,1,.021.469m-.469.341.043-.107c.149-.341.085-.576-.171-.7-.256-.107-.448,0-.6.341l-.064.128Z" transform="translate(-412.864 -275.342)" fill="#15af9e"></path><path d="M447.047,288.007l-.277,1.024.619.171.256-1,.363.107-.256,1,.853.235.277-1.024.363.085-.384,1.429-2.56-.7.384-1.429Z" transform="translate(-415.539 -267.452)" fill="#15af9e"></path><path d="M319.891,227.431a17.766,17.766,0,1,1,17.791-17.766,17.8,17.8,0,0,1-17.791,17.766m0-35.34a17.574,17.574,0,1,0,17.6,17.574,17.6,17.6,0,0,0-17.6-17.574" transform="translate(-302.1 -191.9)" fill="#129081"></path></g></g></svg> 