<?xml version="1.0" encoding="UTF-8"?> <!-- Generator: Adobe Illustrator 25.0.0, SVG Export Plug-In . SVG Version: 6.00 Build 0) --> <svg xmlns="http://www.w3.org/2000/svg" xmlns:xlink="http://www.w3.org/1999/xlink" version="1.1" id="Layer_1" x="0px" y="0px" viewBox="0 0 325.6 125.01" style="enable-background:new 0 0 325.6 125.01;" xml:space="preserve"> <style type="text/css"> .st0{fill:#4B718A;} </style> <g> <path class="st0" d="M47.27,48c0.18-0.25,0.32-0.42,0.45-0.62c7.1-10.9,14.2-21.8,21.29-32.71c0.24-0.37,0.49-0.48,0.91-0.48 c3.08,0.02,6.16,0.02,9.23,0c0.5,0,0.68,0.11,0.68,0.65c-0.01,21.6-0.01,43.19,0,64.79c0,0.54-0.19,0.65-0.69,0.65 c-2.17-0.02-4.34-0.01-6.51-0.01c-0.78,0-0.78,0-0.78-0.77c0-11.75,0-23.51,0-35.26c0-6.19,0-12.39,0-18.58c0-0.25,0-0.5,0-0.75 c-0.05-0.02-0.09-0.04-0.14-0.06c-0.13,0.15-0.28,0.28-0.38,0.44c-6.49,9.93-12.98,19.87-19.45,29.81c-0.39,0.6-0.8,0.83-1.51,0.81 c-2.13-0.05-4.26-0.04-6.39,0c-0.6,0.01-0.91-0.2-1.23-0.68c-5.4-8.29-10.82-16.57-16.24-24.85c-1.11-1.7-2.22-3.4-3.33-5.1 c-0.1-0.16-0.22-0.3-0.48-0.42c-0.02,0.28-0.05,0.56-0.05,0.84c0,17.83,0,35.66,0,53.49c0,1.24,0.11,1.08-1.06,1.09 c-2.03,0.01-4.06,0-6.1,0c-0.82,0-0.82,0-0.82-0.85c0-19.74,0-39.49,0-59.23c0-1.78,0.02-3.55-0.01-5.33 c-0.01-0.5,0.11-0.69,0.65-0.68c3.12,0.02,6.24,0.02,9.35,0c0.38,0,0.61,0.12,0.82,0.44c5.95,9.15,11.91,18.3,17.87,27.45 c1.17,1.8,2.34,3.6,3.52,5.4C46.98,47.64,47.1,47.78,47.27,48z"></path> <path class="st0" d="M123.57,80.39c-12.77-0.52-22.16-5.94-28.52-16.48c-2.26-3.75-3.61-7.85-4.15-12.21 c-1.2-9.62,1.22-18.24,7.37-25.73c4.96-6.04,11.36-9.77,19.04-11.25c3.17-0.61,6.37-0.68,9.58-0.3c7.41,0.89,13.76,4.01,19.02,9.25 c4.93,4.9,8.02,10.82,9.2,17.69c0.28,1.62,0.43,3.28,0.48,4.92c0.27,7.69-1.91,14.66-6.5,20.82c-4.99,6.7-11.61,10.96-19.85,12.57 C127.24,80.07,125.17,80.19,123.57,80.39z M147.69,47.26c-0.06-1.04-0.07-2.09-0.2-3.12c-0.41-3.23-1.41-6.27-2.98-9.14 c-5.2-9.49-16.25-14.52-26.74-12.08c-13.06,3.04-20.99,15.7-18.85,28.47c1.02,6.07,3.89,11.17,8.66,15.09 c6.16,5.06,13.22,6.8,21.02,5.04C139.74,69.01,147.78,58.7,147.69,47.26z"></path> <path class="st0" d="M310.3,80.25c-0.25,0.01-0.42,0.03-0.59,0.03c-2.66,0-5.33-0.01-7.99,0.01c-0.5,0-0.73-0.17-0.91-0.62 c-2.51-6.1-5.04-12.19-7.57-18.27c-0.5-1.19-0.26-1-1.47-1c-5.09-0.01-10.18-0.01-15.27,0.01c-0.6,0-0.77-0.16-0.76-0.76 c0.04-2.19,0.03-4.38,0-6.57c-0.01-0.53,0.17-0.66,0.68-0.66c3.85,0.02,7.69,0.01,11.54,0.01c0.25,0,0.49-0.02,0.88-0.04 c-4.03-9.34-8.02-18.58-12.07-27.98c-0.18,0.33-0.29,0.5-0.37,0.68c-5.39,12.42-10.78,24.85-16.17,37.28 c-2.51,5.78-5.03,11.55-7.52,17.34c-0.18,0.42-0.4,0.59-0.87,0.59c-2.66-0.02-5.33-0.01-7.99-0.01c-0.19,0-0.38-0.02-0.66-0.03 c0.44-1.01,0.85-1.94,1.26-2.87c6.02-13.59,12.05-27.18,18.07-40.77c3.18-7.16,6.36-14.32,9.51-21.5c0.29-0.66,0.61-0.94,1.38-0.92 c2.37,0.06,4.73,0.03,7.1,0.01c0.42,0,0.63,0.14,0.8,0.52c4.59,10.37,9.18,20.74,13.78,31.1c3.81,8.58,7.61,17.17,11.42,25.75 c1.22,2.75,2.44,5.51,3.66,8.26C310.2,79.94,310.23,80.05,310.3,80.25z"></path> <path class="st0" d="M195.17,55.51c5.84,8.24,11.65,16.44,17.51,24.71c-0.26,0.02-0.42,0.05-0.59,0.05c-2.9,0-5.8,0-8.7,0.01 c-0.4,0-0.64-0.12-0.88-0.45c-5.54-7.82-11.09-15.63-16.62-23.45c-0.32-0.46-0.65-0.63-1.2-0.63c-3.18,0.03-6.35,0.01-9.53,0.01 c-0.84,0-0.85,0-0.85,0.84c0,7.59,0,15.19,0,22.78c0,0.89,0,0.89-0.9,0.89c-2.11,0-4.22-0.01-6.33,0.01 c-0.49,0.01-0.64-0.15-0.64-0.64c0.01-10.39,0.01-20.79,0-31.18c0-0.54,0.18-0.65,0.68-0.65c8.09,0.01,16.18-0.06,24.27,0.03 c5.84,0.06,11.57-4.05,12.8-10.48c1.32-6.91-3.2-13.57-10.02-14.96c-1.01-0.21-2.07-0.32-3.1-0.32c-7.93-0.03-15.86-0.01-23.8-0.01 c-0.82,0-0.82,0-0.82-0.8c0-2.15,0.01-4.3-0.01-6.45c0-0.45,0.11-0.62,0.59-0.62c8.48,0.01,16.97-0.1,25.45,0.05 c4.91,0.09,9.24,1.99,12.91,5.28c3.6,3.24,5.87,7.26,6.63,12.03c1,6.3-0.6,11.96-4.71,16.84c-3.06,3.63-6.96,5.92-11.61,6.91 C195.56,55.34,195.42,55.42,195.17,55.51z"></path> <path class="st0" d="M224.47,47.25c0-10.73,0-21.46,0-32.18c0-0.86,0-0.86,0.87-0.86c2.13,0,4.26,0.01,6.39-0.01 c0.52-0.01,0.72,0.1,0.72,0.68c-0.01,21.57-0.01,43.15,0,64.72c0,0.55-0.17,0.7-0.7,0.69c-2.19-0.03-4.38-0.03-6.57,0 c-0.59,0.01-0.72-0.19-0.72-0.74C224.48,68.78,224.47,58.01,224.47,47.25z"></path> <path class="st0" d="M117.92,101.55c0.63,0,1.26,0,1.89,0c1.46-0.01,2.59-0.85,2.91-2.28c0.12-0.54,0.43-0.53,0.76-0.42 c0.12,0.04,0.23,0.45,0.18,0.65c-0.4,1.63-1.42,2.65-3.09,2.93c-0.55,0.09-0.74,0.31-0.72,0.87c0.03,1.02,0.11,2.07-0.09,3.06 c-0.49,2.49-2.87,4.31-5.44,4.46c-3.09,0.18-5.41-1.79-6.09-3.79c-0.57-1.69-0.42-3.31,0.77-4.72c0.3-0.36,0.41-0.72,0.41-1.18 c-0.02-1.97-0.01-3.94-0.01-5.91c0-2.77,2-4.73,4.75-4.68c1.95,0.03,3.78,1.65,4.16,3.58c0.38,1.92-0.49,3.26-1.95,4.28 c-1.21,0.85-2.52,1.54-3.78,2.31c-0.62,0.38-1.23,0.78-1.82,1.21c-3.03,2.26-2.11,5.75,0.58,7.28c2.84,1.6,6.6,0.21,7.4-2.84 c0.29-1.12,0.16-2.34,0.18-3.52c0-0.11-0.31-0.32-0.48-0.32c-0.87-0.03-1.74-0.03-2.6-0.01c-0.37,0.01-0.53-0.09-0.53-0.5 c0-0.42,0.19-0.49,0.55-0.48C116.54,101.56,117.23,101.55,117.92,101.55z M110.37,100.93c0.75-0.45,1.36-0.8,1.96-1.17 c1.26-0.77,2.54-1.5,3.76-2.33c0.83-0.56,1.33-1.41,1.34-2.45c0.02-1.71-1.46-3.32-3.12-3.46c-1.86-0.16-3.57,1-3.8,2.79 c-0.18,1.38-0.11,2.79-0.14,4.18C110.35,99.25,110.37,100.02,110.37,100.93z"></path> <path class="st0" d="M21.72,110.83c-2.2,0.01-4.21-0.56-5.89-2.03c-0.83-0.72-1.37-1.62-1.59-2.7c-0.05-0.25-0.2-0.59,0.25-0.64 c0.32-0.03,0.62-0.09,0.71,0.44c0.19,1.23,0.98,2.08,1.98,2.75c2.54,1.7,6.88,1.63,9.36-0.16c1.46-1.05,2.06-2.74,1.5-4.24 c-0.39-1.04-1.21-1.68-2.16-2.17c-1.53-0.79-3.2-1.04-4.87-1.34c-1.58-0.28-3.09-0.74-4.45-1.66c-2.45-1.66-2.32-5.05-0.25-6.78 c1.89-1.58,4.13-1.95,6.5-1.7c1.5,0.16,2.87,0.67,4.05,1.63c0.94,0.76,1.57,1.71,1.75,2.92c0.02,0.15-0.14,0.47-0.21,0.47 c-0.24-0.01-0.65-0.09-0.68-0.22c-0.51-2.28-2.19-3.24-4.23-3.69c-2.24-0.49-4.41-0.26-6.31,1.15c-1.14,0.85-1.69,2.01-1.42,3.46 c0.19,1.02,0.87,1.7,1.72,2.23c1.26,0.78,2.68,1.12,4.12,1.35c1.89,0.3,3.74,0.73,5.41,1.75c2.97,1.8,2.79,5.68,0.17,7.59 C25.73,110.28,23.91,110.82,21.72,110.83z"></path> <path class="st0" d="M148.46,100.74c0-3.04,0-6.07,0-9.11c0-0.28-0.1-0.61,0.38-0.64c0.48-0.03,0.6,0.16,0.6,0.62 c-0.02,2.58-0.01,5.16-0.01,7.75c0,0.87,0,0.87,0.88,0.87c4.04,0,8.09,0,12.13,0c0.81,0,0.82,0,0.82-0.83c0-2.6,0.01-5.2-0.01-7.81 c-0.01-0.54,0.22-0.67,0.67-0.58c0.12,0.02,0.24,0.17,0.3,0.28c0.05,0.09,0.01,0.23,0.01,0.35c0,6.05,0,12.1,0,18.16 c0,0.27,0.13,0.61-0.36,0.65c-0.46,0.03-0.62-0.12-0.61-0.6c0.02-2.48,0.01-4.97,0.01-7.45c0-0.18-0.02-0.36,0-0.53 c0.07-0.52-0.14-0.67-0.66-0.67c-4.18,0.02-8.36,0.02-12.54,0c-0.49,0-0.64,0.13-0.64,0.63c0.02,2.6,0.02,5.2,0,7.81 c0,0.34,0.2,0.83-0.5,0.82c-0.66-0.01-0.46-0.47-0.47-0.79C148.45,106.69,148.46,103.71,148.46,100.74z"></path> <path class="st0" d="M309.76,107.43c0.27,0.23,0.48,0.41,0.74,0.63c-1.01,1.35-2.26,2.22-3.9,2.51c-4.09,0.74-6.77-2.12-7.3-5.49 c-0.34-2.14-0.06-4.17,1.17-5.99c2.46-3.64,7.67-3.46,9.89,0.34c0.72,1.23,1.06,2.57,1.07,4c0,0.5-0.16,0.64-0.64,0.63 c-3.25-0.02-6.51-0.01-9.76-0.01c-0.25,0-0.51,0-0.74,0c-0.38,1.35,0.87,3.88,2.39,4.88c1.18,0.77,2.48,0.94,3.85,0.66 C307.88,109.32,308.88,108.49,309.76,107.43z M300.16,103.09c0.35,0,0.58,0,0.81,0c2.66,0,5.33,0,7.99,0c1.66,0,1.7-0.01,1.21-1.63 c-0.64-2.12-1.93-3.62-4.22-3.95c-1.93-0.28-3.48,0.48-4.61,2.04C300.6,100.56,300.21,101.72,300.16,103.09z"></path> <path class="st0" d="M254.6,107.98c-3.88,3.9-10.51,3.78-14.38-0.24c-3.99-4.14-3.77-10.69,0.51-14.59 c4.17-3.79,10.44-3.27,13.89,0.3c-0.2,0.2-0.41,0.41-0.64,0.64c-1.09-1-2.29-1.73-3.66-2.17c-5.33-1.72-11.05,1.9-11.87,7.4 c-0.71,4.78,2.5,9.74,7.86,10.47c2.63,0.36,5.04-0.32,7.12-2.03C254.05,107.26,254.05,107.26,254.6,107.98z"></path> <path class="st0" d="M175.79,97.78c0.81-0.63,1.71-0.93,2.66-1.13c1.44-0.3,2.86-0.22,4.22,0.34c1.8,0.74,2.7,2.15,2.74,4.04 c0.06,2.96,0.01,5.91,0.02,8.87c0,0.34-0.04,0.55-0.47,0.56c-0.45,0.01-0.53-0.21-0.51-0.58c0.02-0.33,0-0.66,0-1.15 c-0.3,0.23-0.49,0.36-0.65,0.5c-2.19,1.88-5.36,1.95-7.62,0.17c-2.05-1.62-2.07-4.25-0.02-5.86c1.15-0.9,2.48-1.36,3.94-1.39 c1.24-0.03,2.48-0.03,3.73,0c0.5,0.01,0.63-0.18,0.64-0.66c0.05-2.67-1.61-3.89-4.14-4.04c-1.16-0.07-2.27,0.18-3.31,0.71 C176.34,98.49,176.34,98.49,175.79,97.78z M181.89,103.11C181.89,103.11,181.89,103.11,181.89,103.11c-0.65,0-1.3-0.03-1.95,0.01 c-1.23,0.08-2.36,0.45-3.31,1.27c-1.4,1.21-1.38,2.99,0.05,4.19c1.78,1.49,4.72,1.54,6.54,0.11c0.69-0.55,1.18-1.24,1.22-2.14 c0.05-0.98,0-1.97,0.02-2.96c0.01-0.36-0.13-0.49-0.49-0.48C183.28,103.12,182.59,103.11,181.89,103.11z"></path> <path class="st0" d="M44.05,103.35c-0.62,0.59-1.22,1.11-1.75,1.68c-0.62,0.65-1.42,1.26-1.71,2.04c-0.3,0.8-0.05,1.79-0.09,2.7 c-0.01,0.23-0.12,0.58-0.28,0.65c-0.47,0.19-0.68-0.01-0.68-0.53c0-6.49,0-12.98-0.01-19.47c0-0.36,0.02-0.6,0.49-0.6 c0.48,0,0.49,0.25,0.49,0.6c0,4.67,0,9.35,0,14.02c0,0.25,0,0.5,0,0.94c0.29-0.25,0.45-0.37,0.59-0.52 c2.42-2.49,4.86-4.96,7.24-7.48c0.55-0.59,1.12-0.68,1.91-0.55c-1.07,1.1-2.1,2.16-3.12,3.22c-0.69,0.71-1.36,1.43-2.07,2.11 c-0.32,0.31-0.28,0.53-0.04,0.85c1.65,2.26,3.28,4.54,4.92,6.81c0.12,0.17,0.23,0.34,0.37,0.55c-0.7,0.16-1.16,0.06-1.57-0.53 c-1.37-1.98-2.8-3.91-4.21-5.86C44.38,103.77,44.22,103.58,44.05,103.35z"></path> <path class="st0" d="M264.76,97.77c0.83-0.62,1.75-0.94,2.72-1.14c1.59-0.31,3.14-0.2,4.59,0.56c1.44,0.76,2.25,1.97,2.27,3.61 c0.04,3.04,0.02,6.07,0.03,9.11c0,0.3-0.02,0.53-0.43,0.54c-0.43,0.01-0.49-0.22-0.48-0.56c0.01-0.35,0-0.7,0-1.24 c-0.29,0.24-0.45,0.36-0.6,0.5c-2.13,1.95-5.66,2.03-7.81,0.16c-2.07-1.8-1.92-4.43,0.37-6.01c1.09-0.76,2.33-1.15,3.66-1.17 c1.2-0.02,2.41,0,3.61-0.01c0.73,0,0.83-0.11,0.76-0.81c-0.27-2.54-1.51-3.74-4.09-3.88c-1.18-0.06-2.34,0.13-3.36,0.72 C265.41,98.51,265.09,98.37,264.76,97.77z M270.89,103.11c-0.63,0-1.26-0.02-1.89,0c-1.19,0.05-2.28,0.41-3.23,1.14 c-1.53,1.17-1.57,3.02-0.12,4.29c1.58,1.38,4.21,1.58,6.08,0.46c0.98-0.59,1.65-1.42,1.71-2.6c0.05-0.96,0.03-1.93,0-2.89 c0-0.14-0.27-0.37-0.43-0.38C272.31,103.09,271.6,103.11,270.89,103.11z"></path> <path class="st0" d="M73.64,99.02c0.03-0.1,0.04-0.21,0.1-0.28c0.95-1.36,2.29-2.12,3.92-2.25c2.79-0.22,5.31,1.81,5.44,4.45 c0.15,3.01,0.04,6.03,0.06,9.05c0,0.32-0.1,0.46-0.44,0.47c-0.39,0.01-0.46-0.19-0.46-0.51c0.01-2.7,0.01-5.4,0-8.1 c-0.01-2.06-1.17-3.67-2.99-4.21c-2.81-0.84-5.84,1.41-5.84,4.33c0,2.62,0,5.24,0,7.87c0,0.37-0.01,0.64-0.52,0.63 c-0.48-0.01-0.48-0.27-0.48-0.61c0-4.14,0-8.28,0-12.42c0-0.37,0.01-0.65,0.52-0.65c0.54,0,0.48,0.33,0.48,0.67 c0,0.48,0,0.96,0,1.44C73.49,98.94,73.56,98.98,73.64,99.02z"></path> <path class="st0" d="M286.7,99.53c0.22-0.35,0.43-0.7,0.66-1.04c0.97-1.4,2.43-1.87,4.03-2c0.11-0.01,0.34,0.22,0.33,0.33 c-0.02,0.21-0.11,0.53-0.26,0.59c-0.36,0.14-0.77,0.12-1.15,0.22c-2.1,0.54-3.24,1.98-3.64,4.05c-0.1,0.52-0.12,1.05-0.13,1.58 c-0.01,2.21-0.01,4.42,0,6.62c0,0.37-0.05,0.59-0.51,0.58c-0.43-0.01-0.47-0.22-0.47-0.56c0.01-4.18,0.01-8.36,0-12.54 c0-0.38,0.07-0.59,0.51-0.58c0.43,0.01,0.47,0.24,0.46,0.57c-0.01,0.72,0,1.44,0,2.16C286.6,99.52,286.65,99.52,286.7,99.53z"></path> <path class="st0" d="M210.2,99.53c0.21-0.35,0.41-0.71,0.65-1.04c0.96-1.37,2.39-1.86,3.97-2c0.11-0.01,0.34,0.23,0.33,0.34 c-0.02,0.21-0.12,0.52-0.27,0.59c-0.31,0.14-0.69,0.12-1.04,0.2c-2.25,0.55-3.76,2.49-3.78,4.89c-0.02,2.45-0.01,4.89,0,7.34 c0,0.4-0.05,0.64-0.54,0.61c-0.34-0.02-0.45-0.15-0.44-0.47c0.01-0.65,0-1.3,0-1.95c0-3.53,0-7.06,0-10.59 c0-0.35-0.04-0.66,0.49-0.66c0.53,0,0.48,0.33,0.48,0.67c0,0.68,0,1.37,0,2.05C210.1,99.51,210.15,99.52,210.2,99.53z"></path> <path class="st0" d="M60.02,103.57c0-2.05,0-4.1,0-6.15c0-0.37,0-0.65,0.51-0.64c0.49,0.01,0.46,0.3,0.46,0.63 c0,4.14,0,8.27,0,12.41c0,0.37,0.01,0.65-0.51,0.64c-0.5-0.01-0.46-0.3-0.46-0.62C60.02,107.75,60.02,105.66,60.02,103.57z"></path> <path class="st0" d="M197.63,103.63c0,2.07,0,4.14,0,6.21c0,0.33,0.03,0.61-0.47,0.62c-0.51,0.01-0.51-0.27-0.51-0.64 c0.01-4.14,0-8.28,0-12.42c0-0.33-0.02-0.62,0.47-0.63c0.51-0.01,0.52,0.27,0.51,0.64C197.62,99.49,197.63,101.56,197.63,103.63z"></path> <path class="st0" d="M60.98,92.3c0,0.26-0.01,0.51,0,0.76c0.02,0.37-0.04,0.59-0.5,0.59c-0.48,0-0.48-0.27-0.48-0.61 c0.01-0.51,0.02-1.02,0-1.53c-0.02-0.37,0.11-0.53,0.5-0.53c0.42,0,0.5,0.2,0.48,0.55C60.97,91.79,60.98,92.05,60.98,92.3z"></path> <path class="st0" d="M197.63,92.33c0,0.26-0.01,0.51,0,0.77c0.02,0.34-0.04,0.55-0.47,0.56c-0.45,0.01-0.53-0.19-0.51-0.57 c0.02-0.55,0.02-1.1,0-1.65c-0.01-0.35,0.16-0.44,0.47-0.44c0.33,0,0.54,0.07,0.51,0.46C197.61,91.74,197.63,92.03,197.63,92.33z"></path> </g> </svg> 