<?xml version="1.0" encoding="UTF-8"?> <svg xmlns="http://www.w3.org/2000/svg" xmlns:xlink="http://www.w3.org/1999/xlink" width="148.126" height="35.531" viewBox="0 0 148.126 35.531"><defs><clipPath id="a"><path d="M168,0h14.082V35.531H168Zm0,0" transform="translate(-168)" fill="#aff5ed"></path></clipPath><clipPath id="b"><path d="M249,41h14.295V67.834H249Zm0,0" transform="translate(-249 -41)" fill="#aff5ed"></path></clipPath><clipPath id="c"><path d="M0,0H14.082V35.531H0ZM0,0" fill="#aff5ed"></path></clipPath><clipPath id="d"><path d="M80,43H94.935V69.407H80Zm0,0" transform="translate(-80 -43)" fill="#aff5ed"></path></clipPath><clipPath id="e"><path d="M421,114h9.814v11.259H421Zm0,0" transform="translate(-421 -114)" fill="#fff"></path></clipPath><clipPath id="f"><path d="M548,114h10.028v11.259H548Zm0,0" transform="translate(-548 -114)" fill="#fff"></path></clipPath><clipPath id="g"><path d="M599,114h8.961v11.259H599Zm0,0" transform="translate(-599 -114)" fill="#fff"></path></clipPath><clipPath id="h"><path d="M647,114h10.084v11.259H647Zm0,0" transform="translate(-647 -114)" fill="#fff"></path></clipPath></defs><g transform="translate(35.844 0.001)" clip-path="url(#a)"><path d="M168.332,35.532h13.987V.055H168.332Zm0,0" transform="translate(-168.261 -0.043)" fill="#aff5ed" fill-rule="evenodd"></path></g><g transform="translate(53.126 8.697)" clip-path="url(#b)"><path d="M263.566,49.951v18.6H249.578V42.131c14.282-1.5,13.988,7.82,13.988,7.82" transform="translate(-249.455 -41.762)" fill="#aff5ed" fill-rule="evenodd"></path></g><g transform="translate(0 0.001)" clip-path="url(#c)"><path d="M0,35.532H13.987V.055H0Zm0,0" transform="translate(0 -0.043)" fill="#aff5ed" fill-rule="evenodd"></path></g><g transform="translate(17.069 9.124)" clip-path="url(#d)"><path d="M82.065,43.059c-.118,0-1.6.013-1.714.017V69.31c.118,0,1.6.018,1.714.018a13.135,13.135,0,0,0,0-26.27" transform="translate(-80.277 -43.046)" fill="#aff5ed"></path></g><path d="M368.954,110.055a3.017,3.017,0,0,0,2.586-1.04,2.6,2.6,0,0,0,.485-1.591,2.114,2.114,0,0,0-1.416-2.139,5.405,5.405,0,0,0-1.992-.3H364.7v5.075Zm-.66-6.655a4.451,4.451,0,0,0,1.942-.343,1.975,1.975,0,0,0,1.093-1.943,1.871,1.871,0,0,0-1.162-1.9,5.275,5.275,0,0,0-1.943-.275H364.7V103.4Zm-5.5-6.095h6.235a4.141,4.141,0,0,1,3.625,1.513,3.469,3.469,0,0,1,.632,2.06,3.241,3.241,0,0,1-.775,2.237,3.808,3.808,0,0,1-1.157.845,4.907,4.907,0,0,1,1.658.951,3.456,3.456,0,0,1,.972,2.6,4.01,4.01,0,0,1-.878,2.522,4.969,4.969,0,0,1-4.178,1.689h-6.132" transform="translate(-285.385 -76.594)" fill="#fff"></path><g transform="translate(89.824 24.272)" clip-path="url(#e)"><path d="M429.669,119.164a4.579,4.579,0,0,0-.5-1.835,2.534,2.534,0,0,0-2.4-1.276,2.657,2.657,0,0,0-2.025.878,3.333,3.333,0,0,0-.864,2.233Zm-.632-4.126a3.978,3.978,0,0,1,1.589,1.358,4.7,4.7,0,0,1,.7,1.855,11.962,11.962,0,0,1,.157,2.316H423.84a4.533,4.533,0,0,0,.749,2.572,2.5,2.5,0,0,0,2.173.97,2.8,2.8,0,0,0,2.191-.917,3.134,3.134,0,0,0,.648-1.232h1.737a3.665,3.665,0,0,1-.455,1.291,4.685,4.685,0,0,1-.864,1.163,4.084,4.084,0,0,1-1.978,1.06,6.023,6.023,0,0,1-1.432.157A4.379,4.379,0,0,1,423.3,124.2a5.576,5.576,0,0,1-1.356-4,6.052,6.052,0,0,1,1.367-4.11,4.485,4.485,0,0,1,3.568-1.582,4.736,4.736,0,0,1,2.157.526" transform="translate(-421.743 -114.403)" fill="#fff"></path></g><path d="M477.379,111.723h1.765V97.3h-1.765Zm0,0" transform="translate(-375.526 -76.594)" fill="#fff"></path><path d="M498.078,97.078h1.766v5.379a5.137,5.137,0,0,1,1.129-1.119,3.8,3.8,0,0,1,2.129-.558,3.148,3.148,0,0,1,3.1,1.6,5.434,5.434,0,0,1,.441,2.422v6.742h-1.814V104.92a3.717,3.717,0,0,0-.293-1.7,1.886,1.886,0,0,0-1.806-.864,3.007,3.007,0,0,0-1.992.757,3.628,3.628,0,0,0-.9,2.857v5.572h-1.766" transform="translate(-391.809 -76.416)" fill="#fff"></path><g transform="translate(116.92 24.272)" clip-path="url(#f)"><path d="M550.573,123.6a2.08,2.08,0,0,0,1.324.441,4.03,4.03,0,0,0,1.806-.431,2.423,2.423,0,0,0,1.472-2.341v-1.423a3.06,3.06,0,0,1-.831.347,7.46,7.46,0,0,1-1,.2l-1.066.137a4.116,4.116,0,0,0-1.444.4,1.562,1.562,0,0,0-.819,1.469,1.452,1.452,0,0,0,.558,1.2m3.719-4.772a.958.958,0,0,0,.814-.51,1.539,1.539,0,0,0,.118-.68,1.443,1.443,0,0,0-.641-1.314,3.422,3.422,0,0,0-1.837-.408,2.325,2.325,0,0,0-1.96.75,2.482,2.482,0,0,0-.421,1.233h-1.65a3.057,3.057,0,0,1,1.26-2.713,5.181,5.181,0,0,1,2.81-.763,5.7,5.7,0,0,1,3.009.707,2.4,2.4,0,0,1,1.147,2.2v6.056a.772.772,0,0,0,.113.442.543.543,0,0,0,.476.167,2.231,2.231,0,0,0,.265-.016c.1-.009.2-.023.315-.043v1.305a5.074,5.074,0,0,1-.63.148,4.7,4.7,0,0,1-.589.028,1.451,1.451,0,0,1-1.324-.648,2.5,2.5,0,0,1-.3-.97,4.471,4.471,0,0,1-1.552,1.224,4.766,4.766,0,0,1-2.225.522,3.313,3.313,0,0,1-2.391-.887,2.951,2.951,0,0,1-.928-2.222,2.859,2.859,0,0,1,.913-2.264,4.335,4.335,0,0,1,2.395-.99" transform="translate(-548.132 -114.329)" fill="#fff"></path></g><g transform="translate(127.801 24.272)" clip-path="url(#g)"><path d="M601.523,121.816a2.517,2.517,0,0,0,.451,1.354,2.863,2.863,0,0,0,2.364.854,3.524,3.524,0,0,0,1.762-.427,1.412,1.412,0,0,0,.762-1.32,1.124,1.124,0,0,0-.608-1.029,7.167,7.167,0,0,0-1.534-.5l-1.428-.352a7.05,7.05,0,0,1-2.014-.746,2.227,2.227,0,0,1-1.158-1.982,3.015,3.015,0,0,1,1.09-2.416,4.385,4.385,0,0,1,2.927-.922,4.092,4.092,0,0,1,3.472,1.394,3,3,0,0,1,.647,1.9h-1.669a2.008,2.008,0,0,0-.432-1.083,2.8,2.8,0,0,0-2.16-.693,2.639,2.639,0,0,0-1.552.38,1.187,1.187,0,0,0-.527,1.008,1.234,1.234,0,0,0,.693,1.1,4.233,4.233,0,0,0,1.178.43l1.192.286a9.338,9.338,0,0,1,2.6.892,2.366,2.366,0,0,1,1.029,2.13,3.222,3.222,0,0,1-1.079,2.424,4.616,4.616,0,0,1-3.283,1.022,4.453,4.453,0,0,1-3.365-1.064,4.019,4.019,0,0,1-1.058-2.636" transform="translate(-599.648 -114.258)" fill="#fff"></path></g><g transform="translate(138.043 24.272)" clip-path="url(#h)"><path d="M650.073,123.6a2.073,2.073,0,0,0,1.324.441,4.043,4.043,0,0,0,1.806-.431,2.423,2.423,0,0,0,1.473-2.341v-1.423a3.083,3.083,0,0,1-.833.347,7.485,7.485,0,0,1-1,.2l-1.067.137a4.127,4.127,0,0,0-1.443.4,1.557,1.557,0,0,0-.82,1.469,1.45,1.45,0,0,0,.56,1.2m3.72-4.772a.959.959,0,0,0,.814-.51,1.574,1.574,0,0,0,.118-.68,1.442,1.442,0,0,0-.643-1.314,3.421,3.421,0,0,0-1.838-.408,2.326,2.326,0,0,0-1.959.75,2.488,2.488,0,0,0-.419,1.233h-1.65a3.052,3.052,0,0,1,1.26-2.713,5.174,5.174,0,0,1,2.809-.763,5.693,5.693,0,0,1,3.009.707,2.4,2.4,0,0,1,1.149,2.2v6.056a.779.779,0,0,0,.111.442.546.546,0,0,0,.476.167,2.219,2.219,0,0,0,.265-.016c.1-.009.2-.023.313-.043v1.305a5.013,5.013,0,0,1-.627.148,4.725,4.725,0,0,1-.59.028,1.451,1.451,0,0,1-1.324-.648,2.473,2.473,0,0,1-.305-.97,4.473,4.473,0,0,1-1.55,1.224,4.775,4.775,0,0,1-2.228.522,3.314,3.314,0,0,1-2.389-.887,2.948,2.948,0,0,1-.928-2.222,2.859,2.859,0,0,1,.913-2.264,4.337,4.337,0,0,1,2.394-.99" transform="translate(-647.526 -114.329)" fill="#fff"></path></g><path d="M380.767,13.963h-9.284c2-.927,4.113-2.781,6.386-2.781a5.189,5.189,0,0,1,1.247.2c.188.066,2.274,1.356,2.274,2.084,0,.265-.5.5-.623.5m33.589-7.811A17.888,17.888,0,0,0,415.322,4a11.135,11.135,0,0,1-1.683-.993c-.028-.43.283-.926-.092-1.026a9,9,0,0,0-1.276,2.084,2.032,2.032,0,0,0-.126.563v.265a1.472,1.472,0,0,0,.4.4c.033.068.033.133.064.2.281,1.656.56,3.475.716,4.964.061.463.156,1.026.187,1.457A14.3,14.3,0,0,1,413.639,14s-5.076-.068-5.076,0l.623-2.119a12.19,12.19,0,0,1-4.8-1.225,13.118,13.118,0,0,0-2.9-1.257c-.248-.034-.687-.1-.842-.1a2.231,2.231,0,0,0-.966.233,5.435,5.435,0,0,0-2.025,2.349l.125.065a1.375,1.375,0,0,0,.528-.33,2.668,2.668,0,0,1,.685-.232,1.832,1.832,0,0,1,.436-.033,1.7,1.7,0,0,1,.437.033c.5.132,1.153.331,1.621.463a4.787,4.787,0,0,1,1.835.794A4.7,4.7,0,0,1,401.3,13.8c-.28.068-.562.2-.684.2h-5.144v0h-12.9a12.265,12.265,0,0,0,.809-1.457c0-1.788-3.084-3.308-4.392-3.308-2.99,0-6.261,3.57-9.871,4.763-.544-.044-1.184,0-1.629,0a.53.53,0,0,1-.464-.265c.714-.927.65-2.814.747-3.54-.528.528-1.184,1.257-1.683,1.82-.095.1.281,1.985-.686,1.985h-3.4c-.687,0-1.714-.066-1.87-.959-.748-5.229-.653-7.414-1.183-13.04a14.456,14.456,0,0,0-1.279,1.72,1,1,0,0,0-.029.43l1.026,13.769h6.388c.188,0,.591-.4.843-.663.122.2.31.433.435.663.528,0,1.065-.011,1.59-.02v.02h32.188a2.224,2.224,0,0,0,.621-.2,15.869,15.869,0,0,1,3.18-1.557,12.572,12.572,0,0,1,1.714-.1c.154,0,.9,0,1.153.032a1.282,1.282,0,0,1,.654.165c.093.53.218,1.126.281,1.655h6.2a7.108,7.108,0,0,0,.653-2.749,3.794,3.794,0,0,0,.061-.759l-.558-6.025c0-.231.218-.133.278-.231" transform="translate(-281.336 0.004)" fill="#fff"></path><path d="M666.563,87.6l2.024,1.358a18.676,18.676,0,0,0,.905-1.655c-.688-.4-1.4-.9-2.089-1.226-.249.463-.53.961-.841,1.523" transform="translate(-524.346 -67.744)" fill="#fff"></path><path d="M649.581,8.633a19.488,19.488,0,0,0-.9,1.953c0,.167,1.184,2.25,1.184,3.211,0,.166.032.2-.031.2h-4.239v0h-.408c-.682,0-1.709-.066-1.867-.959-.747-5.229-.655-7.414-1.185-13.04a14.1,14.1,0,0,0-1.276,1.72.956.956,0,0,0-.031.43l1.028,13.769h3.739v0h4.832c.248-1.058.56-2.978.56-3.143a9.22,9.22,0,0,0-1.4-4.138" transform="translate(-504.093 0.004)" fill="#fff"></path></svg> 