<?xml version="1.0" encoding="UTF-8"?> <svg xmlns="http://www.w3.org/2000/svg" width="153.029" height="153.029" viewBox="0 0 153.029 153.029"><g transform="translate(-320.846 -1218.248)"><path d="M407.194,1277.131l-9.833-19.926-9.834,19.926a4.487,4.487,0,0,1-3.376,2.453l-21.989,3.194,15.912,15.51a4.486,4.486,0,0,1,1.289,3.968l-3.756,21.9,19.668-10.339a4.482,4.482,0,0,1,4.172,0l19.667,10.339-3.756-21.9a4.484,4.484,0,0,1,1.29-3.968l15.911-15.51-21.989-3.194a4.487,4.487,0,0,1-3.376-2.453" fill="#1e9c86"></path><path d="M397.361,1218.248a76.514,76.514,0,1,0,76.514,76.515,76.6,76.6,0,0,0-76.514-76.515m47.962,64.61-20.729,20.206,4.894,28.53a4.483,4.483,0,0,1-6.505,4.726l-25.622-13.47-25.622,13.47a4.483,4.483,0,0,1-6.505-4.727l4.894-28.53-20.729-20.2a4.483,4.483,0,0,1,2.485-7.647l28.646-4.163,12.811-25.957a4.483,4.483,0,0,1,8.04,0l12.811,25.957,28.646,4.163a4.483,4.483,0,0,1,2.485,7.647" fill="#1e9c86"></path></g></svg> 