<?xml version="1.0" encoding="UTF-8"?> <svg xmlns="http://www.w3.org/2000/svg" width="124.484" height="154.329" viewBox="0 0 124.484 154.329"><defs><style>.a{fill:#1e9c86;}</style></defs><g transform="translate(-1111.552 -592.148)"><path class="a" d="M1139.177,680.333c-2.027-26.353.277-45.849,7.044-59.6a48.069,48.069,0,0,1,3.452-5.932,60.625,60.625,0,0,0-17.045,20.163c-4.122,7.541-7.611,22.007-9.333,38.7-1.088,10.533-1.292,22.839-.485,29.26l.5,3.968H1135.2c.084-.189.169-.372.253-.567,2.213-5.146,4.656-13.832,3.721-25.989"></path><path class="a" d="M1188.447,592.148a19.714,19.714,0,0,0-5.59,1.2,15.463,15.463,0,0,0-4.989,4.392,14.442,14.442,0,0,0-2.7,6.823l-1.021,2.909-2.693,1.106c-7.611,3.127-27.829,11.432-23.244,71.057a65.2,65.2,0,0,1-3.308,27.416h63.2a34.906,34.906,0,0,0-3.249-11.372c-3.108-6.755-16.95-35.754-18.692-40.326a27.88,27.88,0,0,0,3.146-.181,30.21,30.21,0,0,0,8.6-2.046c1.8-.7,2.55-.993,7.964.33l14,3.544a7.131,7.131,0,0,0,1.7.205c6.389,0,11.608-8.551,12.816-10.7a9.812,9.812,0,0,0-2.857-13.7c-1.985-1.275-24.254-19.463-33.882-24.866a26.685,26.685,0,0,0-6.9-2.705V592.148Zm-1.489,36.426a4.532,4.532,0,1,1,4.533,4.533,4.584,4.584,0,0,1-4.533-4.533"></path><path class="a" d="M1128.763,716.12a9.459,9.459,0,0,0-9.637,9.492v2.753h107.221v-2.753a9.459,9.459,0,0,0-9.637-9.492Z"></path><rect class="a" width="122.369" height="9.047" transform="translate(1111.552 737.43)"></rect></g></svg> 