<?xml version="1.0" encoding="UTF-8"?> <svg xmlns="http://www.w3.org/2000/svg" width="168" height="167.999" viewBox="0 0 168 167.999"><defs><style>.a{fill:#1e9c86;}</style></defs><g transform="translate(-2059.831 -599.654)"><path class="a" d="M2143.831,623.853a5.252,5.252,0,0,1-5.25-5.25V604.9a5.25,5.25,0,0,1,10.5,0v13.7a5.253,5.253,0,0,1-5.25,5.25"></path><path class="a" d="M2189.827,642.906a5.253,5.253,0,0,1-3.71-8.967l9.689-9.688a5.251,5.251,0,0,1,7.426,7.427l-9.687,9.688a5.268,5.268,0,0,1-3.718,1.54"></path><path class="a" d="M2222.581,688.9h-13.7a5.25,5.25,0,0,1,0-10.5h13.7a5.25,5.25,0,0,1,0,10.5"></path><path class="a" d="M2199.516,744.588a5.209,5.209,0,0,1-3.711-1.54l-9.688-9.688a5.252,5.252,0,0,1,7.427-7.427l9.688,9.688a5.254,5.254,0,0,1-3.716,8.967"></path><path class="a" d="M2088.146,744.588a5.254,5.254,0,0,1-3.711-8.967l9.689-9.688a5.251,5.251,0,0,1,7.426,7.427l-9.688,9.688a5.234,5.234,0,0,1-3.716,1.54"></path><path class="a" d="M2078.779,688.9h-13.7a5.25,5.25,0,0,1,0-10.5h13.7a5.25,5.25,0,0,1,0,10.5"></path><path class="a" d="M2097.834,642.906a5.207,5.207,0,0,1-3.71-1.54l-9.688-9.688a5.251,5.251,0,0,1,7.426-7.427l9.689,9.688a5.253,5.253,0,0,1-3.717,8.967"></path><path class="a" d="M2164.831,746.653v8.75a12.309,12.309,0,0,1-12.25,12.25h-17.5c-5.881,0-12.25-4.48-12.25-14.28v-6.72Z"></path><path class="a" d="M2174.7,645.573a49,49,0,1,0-60.34,77.21,21.142,21.142,0,0,1,7.981,13.37v.07a1.186,1.186,0,0,1,.49-.07h42a.631.631,0,0,1,.35.07v-.07a23.34,23.34,0,0,1,8.96-14,49.026,49.026,0,0,0,.559-76.58m-4.619,41.58a5.288,5.288,0,0,1-5.25-5.25,19.239,19.239,0,0,0-19.25-19.25,5.25,5.25,0,0,1,0-10.5,29.815,29.815,0,0,1,29.75,29.75,5.289,5.289,0,0,1-5.25,5.25"></path><path class="a" d="M2122.341,736.153h.49a1.191,1.191,0,0,0-.49.07Z"></path><path class="a" d="M2165.181,736.153v.07a.632.632,0,0,0-.35-.07Z"></path></g></svg> 