<?xml version="1.0" encoding="UTF-8"?> <svg xmlns="http://www.w3.org/2000/svg" width="129.504" height="88.826" viewBox="0 0 129.504 88.826"><path d="M44.35,129.131s71.159-2.787,81.829-2.787c14.569,0,17.1-7.175,19.418-16.816,2.491-10.361,8.488-32.546,8.488-32.546l-6,.268,19.76-24.7,5.619,24.432-3.647.206s-6.031,30.463-8.114,38.354c-3.4,12.9-4.825,23.765-37.934,23.765-31.982,0-70.949,1.647-70.949,1.647Z" transform="translate(-44.168 -52.342)" fill="#fff"></path><path d="M52.591,140.87a.189.189,0,0,1-.165-.086l-8.48-11.827a.21.21,0,0,1,.161-.329c.708-.025,71.278-2.787,81.833-2.787,14.149,0,16.8-6.587,19.216-16.656,2.318-9.633,7.723-29.709,8.414-32.282l-5.71.255a.2.2,0,0,1-.193-.115.21.21,0,0,1,0-.222l19.76-24.7a.2.2,0,0,1,.206-.07.21.21,0,0,1,.156.152l5.619,24.432a.21.21,0,0,1-.037.169.2.2,0,0,1-.152.082l-3.491.2c-.469,2.371-6.1,30.685-8.081,38.206-.14.519-.272,1.037-.412,1.548-1.564,6.031-3.038,11.728-8.106,15.8-5.586,4.483-15,6.587-29.639,6.587-31.615,0-70.55,1.647-70.937,1.647Zm-8.11-11.843,8.192,11.428c2.338-.1,40.063-1.647,70.846-1.647,31.619,0,34.139-9.736,37.333-22.065.132-.515.268-1.029.412-1.548,2.058-7.8,8.048-38.037,8.11-38.338a.206.206,0,0,1,.189-.169l3.4-.189-5.479-23.781L148.273,76.726l5.541-.247a.189.189,0,0,1,.173.078.206.206,0,0,1,.037.181c-.062.222-6.023,22.3-8.488,32.542-2.392,9.937-5.2,16.973-19.615,16.973C115.777,126.252,50.121,128.8,44.482,129.027Z" transform="translate(-43.909 -52.045)" fill="#231f20"></path><path d="M113.027,208.05c-.161.111-4.117.988-4.117.988l.272,5.212,5.043-1.54Z" transform="translate(-82.152 -143.829)" fill="#fff"></path><path d="M108.907,214.168a.214.214,0,0,1-.119-.037.21.21,0,0,1-.086-.156l-.272-5.212a.206.206,0,0,1,.161-.214c1.461-.325,3.853-.873,4.059-.963a.173.173,0,0,1,.177,0,.193.193,0,0,1,.119.144l1.206,4.66a.2.2,0,0,1-.14.247l-5.043,1.54A.161.161,0,0,1,108.907,214.168Zm-.058-5.253.251,4.775,4.6-1.42-1.1-4.261C111.957,208.211,110.311,208.59,108.849,208.915Z" transform="translate(-81.869 -143.541)" fill="#231f20"></path><path d="M267.81,197.62l4.681,2.779,2.886-4.351-3.618-2.157Z" transform="translate(-175.639 -135.498)" fill="#fff"></path><path d="M272.2,200.31a.243.243,0,0,1-.107-.029l-4.676-2.779a.193.193,0,0,1-.1-.156.21.21,0,0,1,.062-.173l3.948-3.725a.206.206,0,0,1,.247-.029l3.618,2.157a.21.21,0,0,1,.066.292l-2.882,4.347a.21.21,0,0,1-.177.095Zm-4.339-3.022,4.265,2.528,2.659-4.005-3.293-1.968Z" transform="translate(-175.349 -135.205)" fill="#231f20"></path><path d="M235.686,73.756l-1.066-1.918s-1.675-.576-2.083-1.4-.687-1.914-.193-2.272,3.388-1.54,3.9-1.181,3.034,5.566,3.034,5.566" transform="translate(-154.618 -60.795)" fill="#fff"></path><path d="M235.392,73.649a.2.2,0,0,1-.177-.107l-1.033-1.852a4.341,4.341,0,0,1-2.124-1.474c-.445-.889-.745-2.083-.128-2.532.412-.292,3.47-1.647,4.117-1.181.531.366,2.68,4.767,3.1,5.644a.206.206,0,1,1-.37.177,41.848,41.848,0,0,0-2.968-5.483c-.292-.2-3.063.741-3.664,1.177-.358.259-.136,1.235.255,2.017a4.126,4.126,0,0,0,1.968,1.293.21.21,0,0,1,.111.095l1.07,1.918a.2.2,0,0,1-.078.28A.185.185,0,0,1,235.392,73.649Z" transform="translate(-154.324 -60.494)" fill="#231f20"></path><path d="M220.577,84.159l8.871,5.323-3.17-9.987s4.5-1.852,4.825-2.058,9.88,15.268,5.29,18.632S218,93.961,218,93.961Z" transform="translate(-146.334 -66.983)" fill="#15af9e"></path><rect width="20.476" height="13.28" rx="4.22" transform="translate(20.157 38.785) rotate(28.94)" fill="#fff"></rect><path d="M95.082,167.987a1.931,1.931,0,0,1-.934-.243l-14.881-8.217a1.943,1.943,0,0,1-.762-2.639l4.746-8.583a1.935,1.935,0,0,1,1.161-.926,1.91,1.91,0,0,1,1.478.169l14.881,8.233a1.943,1.943,0,0,1,.762,2.639L96.786,167a1.922,1.922,0,0,1-1.165.922,1.857,1.857,0,0,1-.539.062ZM84.951,147.7a1.51,1.51,0,0,0-.412.062,1.54,1.54,0,0,0-.914.729l-4.759,8.567a1.531,1.531,0,0,0,.6,2.079l14.881,8.233h0a1.527,1.527,0,0,0,2.058-.6l4.746-8.583a1.523,1.523,0,0,0,.132-1.161,1.507,1.507,0,0,0-.729-.918l-14.881-8.233A1.531,1.531,0,0,0,84.951,147.7Z" transform="translate(-64.121 -108.088)" fill="#231f20"></path><path d="M107.1,164.149a.181.181,0,0,1-.1-.029l-14.153-7.834a.21.21,0,0,1-.082-.28.206.206,0,0,1,.28-.082l14.169,7.821a.206.206,0,0,1,.082.28A.21.21,0,0,1,107.1,164.149Z" transform="translate(-72.639 -113.146)" fill="#d1d3d4"></path><path d="M112.911,154.651a.226.226,0,0,1-.1-.029l-6.619-3.66a.2.2,0,0,1-.078-.28l.7-1.268a1.519,1.519,0,0,1,2.058-.593l4.322,2.392a1.515,1.515,0,0,1,.593,2.058l-.7,1.276a.214.214,0,0,1-.124.1Zm-6.344-3.948,6.261,3.462.6-1.091a1.1,1.1,0,0,0-.432-1.5l-4.327-2.379a1.111,1.111,0,0,0-1.5.436Z" transform="translate(-80.488 -108.872)" fill="#231f20"></path><path d="M119.791,141s-.7,1.235-1.1,2.145a13.173,13.173,0,0,0-.626,2.7c-.214-.3-.589-.412-.823-.659a3.569,3.569,0,0,1-.358,1.132,1.2,1.2,0,0,1-.955.634,1.535,1.535,0,0,1-.613-.144c-.708-.284-1.877-.8-1.972-1.688a1.762,1.762,0,0,1,.259-.971,44.4,44.4,0,0,1,3.791-4.94" transform="translate(-84.763 -103.328)" fill="#fff"></path><path d="M115.659,146.845a1.8,1.8,0,0,1-.667-.156c-.6-.243-1.992-.8-2.1-1.861a1.955,1.955,0,0,1,.284-1.087,47.727,47.727,0,0,1,3.816-4.993.207.207,0,0,1,.313.272,42.112,42.112,0,0,0-3.763,4.911,1.6,1.6,0,0,0-.243.856c.078.716,1.029,1.19,1.848,1.519a1.379,1.379,0,0,0,.531.128,1,1,0,0,0,.778-.531,3.363,3.363,0,0,0,.338-1.066.21.21,0,0,1,.148-.161.206.206,0,0,1,.21.066,1.577,1.577,0,0,0,.338.255l.181.119a11.2,11.2,0,0,1,.585-2.367c.412-.922,1.079-2.116,1.107-2.165a.207.207,0,1,1,.358.206s-.7,1.235-1.091,2.124a13.349,13.349,0,0,0-.605,2.647.206.206,0,0,1-.152.173.21.21,0,0,1-.218-.078,1.314,1.314,0,0,0-.383-.309l-.144-.095a3.05,3.05,0,0,1-.313.86,1.4,1.4,0,0,1-1.128.733Z" transform="translate(-84.492 -103.014)" fill="#231f20"></path><path d="M174.97,153.13l-16.417.354L150.32,174.61c2.882.56,8.138.638,10.831,2.392l8.155-15.153S200,174.894,200.168,175.874l4-5.965Z" transform="translate(-106.515 -111.517)" fill="#231f20"></path><path d="M160.895,176.9a.194.194,0,0,1-.111-.033c-1.9-1.235-5.216-1.647-7.879-1.951-1.066-.128-2.058-.251-2.882-.412a.206.206,0,0,1-.152-.276l8.233-21.126a.2.2,0,0,1,.185-.128l16.413-.358a.181.181,0,0,1,.107.029l29.2,16.779a.214.214,0,0,1,.1.132.206.206,0,0,1-.033.161l-4,5.961a.2.2,0,0,1-.214.086.206.206,0,0,1-.152-.132c-.725-.922-18.582-8.735-30.557-13.828l-8.068,14.984a.214.214,0,0,1-.128.1Zm-10.567-2.75c.753.136,1.647.243,2.61.358,2.758.329,5.874.7,7.867,1.9l8.052-14.956a.2.2,0,0,1,.259-.095c8.7,3.7,28.277,12.1,30.714,13.918l3.758-5.6-28.96-16.643-16.219.35ZM199.677,175.607Z" transform="translate(-106.243 -111.217)" fill="#231f20"></path><path d="M186.737,120.936l-16.417.354,7.821-22.88s8.06,1.013,9.353,2.058S186.737,120.936,186.737,120.936Z" transform="translate(-118.282 -79.323)" fill="#fff"></path><path d="M170.027,121.205a.2.2,0,0,1-.165-.082.206.206,0,0,1-.029-.189l7.822-22.88a.21.21,0,0,1,.222-.136c.329.041,8.134,1.029,9.468,2.112s-.329,17.38-.675,20.636a.206.206,0,0,1-.2.185l-16.417.354Zm7.949-22.843-7.669,22.427,15.935-.346c.782-7.472,1.68-19.381.823-20.093C186.061,99.532,180.319,98.646,177.976,98.362Zm8.468,22.3Z" transform="translate(-117.989 -79.033)" fill="#231f20"></path><path d="M170.446,95.53c-.259.115-.128,3.656-.14,3.968-.115,2.952-.1,5.965-.313,8.892-.412,5.788-4.783,11.284-8.06,15.779a3.257,3.257,0,0,1-1.647,1.424,2.993,2.993,0,0,1-1.564-.119,16.026,16.026,0,0,1-5.9-3.1,1.573,1.573,0,0,1-.552-.692,1.645,1.645,0,0,1,.412-1.33c3.4-5.166,6.344-16.384,8.147-22.3A41.023,41.023,0,0,0,170.446,95.53Z" transform="translate(-107.639 -77.629)" fill="#15af9e"></path><path d="M213.946,93.472c.095.037-1.149,10.049-1.181,10.452-.239,3.063-2.585,9.328-4.471,11.675.613-3.269-.387-7.772-1.334-10.9-.461-1.527-.107-4.594,0-6.175,0-.152.152-3.651.078-3.672C207.042,94.847,211.492,92.579,213.946,93.472Z" transform="translate(-139.703 -76.296)" fill="#15af9e"></path><path d="M182.515,106.7l-1.4.98.873.823s-2.289,7.513-6.1,8.011-5.158-.107-5.158-.107l-2.425,2.264s2.968,1.4,3.178,1.511,7.06-.35,8.764-4.265a42.945,42.945,0,0,0,2.416-7.15l.79-.708Z" transform="translate(-117.094 -84.201)" fill="#231f20"></path><path d="M186.165,108.94a.2.2,0,0,1-.181-.111l-2.388-4.676a.206.206,0,0,1,.062-.255l2.169-1.614-2.219-.984a.206.206,0,0,1-.045-.354l3.293-2.548a.206.206,0,1,1,.251.325l-3,2.338,2.227.988a.206.206,0,0,1,.123.165.222.222,0,0,1-.082.189l-2.314,1.721,2.305,4.528a.206.206,0,0,1-.091.276.189.189,0,0,1-.111.012Z" transform="translate(-126.026 -79.286)" fill="#231f20"></path><path d="M163.364,153.6a.207.207,0,0,1-.049-.408c1.947-.453,5.5-1.379,5.529-1.387a.212.212,0,0,1,.1.412c-.033,0-3.586.934-5.537,1.387Z" transform="translate(-114.068 -110.732)" fill="#231f20"></path><path d="M219,110.123h-.054a.206.206,0,0,1-.144-.251c.025-.1,2.626-9.97,1.474-12.815a.21.21,0,0,1,.115-.268.206.206,0,0,1,.268.115c1.2,2.972-1.35,12.663-1.457,13.074A.21.21,0,0,1,219,110.123Z" transform="translate(-146.801 -78.361)" fill="#231f20"></path><path d="M210.787,106.651a.206.206,0,0,1-.1-.025.21.21,0,0,1-.082-.28l2.577-4.635-2.132-.9a.206.206,0,0,1-.124-.144.21.21,0,0,1,.049-.181l1.857-2.1-1.9-.708a.21.21,0,0,1-.119-.268.206.206,0,0,1,.268-.119l2.174.823a.214.214,0,0,1,.128.144.2.2,0,0,1-.045.185l-1.865,2.112,2.079.873a.226.226,0,0,1,.115.123.218.218,0,0,1,0,.169l-2.684,4.833A.206.206,0,0,1,210.787,106.651Z" transform="translate(-141.97 -78.656)" fill="#231f20"></path><path d="M194.73,74.356a6.352,6.352,0,0,1-2.021-1.972,8.188,8.188,0,0,1-.741-7.072,4.481,4.481,0,0,1,2.589-2.927c1.494-.51,3.153.095,4.705-.177a5.13,5.13,0,0,1,.823-.128,2.281,2.281,0,0,1,.959.226,3.363,3.363,0,0,1,1.84,2.359,3.293,3.293,0,0,1-.786,2.779c-.613.753-.77,1.791-1.346,2.626a18.522,18.522,0,0,1-1.787,2.025,15.745,15.745,0,0,1-1.181,1.1,7.55,7.55,0,0,1-1.647,1.338A1.675,1.675,0,0,1,194.73,74.356Z" transform="translate(-130.742 -57.949)" fill="#fff"></path><path d="M195.36,74.535a2.219,2.219,0,0,1-1.033-.292h0a6.467,6.467,0,0,1-2.1-2.058,8.443,8.443,0,0,1-.766-7.245,4.642,4.642,0,0,1,2.721-3.059,6.7,6.7,0,0,1,2.7-.169,8.678,8.678,0,0,0,2.058,0l.222-.045a3.421,3.421,0,0,1,.626-.086,2.421,2.421,0,0,1,1.05.247,3.561,3.561,0,0,1,1.955,2.5,3.483,3.483,0,0,1-.823,2.947,5.129,5.129,0,0,0-.692,1.317,6.46,6.46,0,0,1-.646,1.3,12.7,12.7,0,0,1-1.4,1.622l-.412.412a15.391,15.391,0,0,1-1.194,1.12c-.119.1-.255.231-.412.37a4.623,4.623,0,0,1-1.313,1A1.507,1.507,0,0,1,195.36,74.535Zm-.823-.655a1.494,1.494,0,0,0,1.235.173,4.553,4.553,0,0,0,1.173-.918c.148-.144.288-.28.412-.387a14.612,14.612,0,0,0,1.161-1.087c.136-.148.276-.288.412-.412a12.408,12.408,0,0,0,1.354-1.568,6.518,6.518,0,0,0,.609-1.235,5.463,5.463,0,0,1,.749-1.42,3.1,3.1,0,0,0,.745-2.61,3.133,3.133,0,0,0-1.729-2.206,1.865,1.865,0,0,0-.864-.21,3.293,3.293,0,0,0-.552.078l-.235.045a8.645,8.645,0,0,1-2.141,0,6.315,6.315,0,0,0-2.532.152,4.244,4.244,0,0,0-2.47,2.8,8.027,8.027,0,0,0,.72,6.9,6.126,6.126,0,0,0,1.943,1.9Z" transform="translate(-130.437 -57.655)" fill="#231f20"></path><path d="M215.064,82.44s1.235,2.359.9,2.787-1.326.029-1.326.029" transform="translate(-144.357 -69.927)" fill="#fff"></path><path d="M215.144,85.337a2.581,2.581,0,0,1-.877-.185.2.2,0,0,1-.111-.268.206.206,0,0,1,.268-.115c.272.115.9.268,1.087.037a6.056,6.056,0,0,0-.922-2.561.21.21,0,0,1,.086-.28.206.206,0,0,1,.28.086c.391.745,1.268,2.528.877,3.013A.856.856,0,0,1,215.144,85.337Z" transform="translate(-144.063 -69.634)" fill="#231f20"></path><path d="M204.122,70.176c.856.852.379,4.392.272,5.438q-.235,2.206-.568,4.392c-.144.93-2.556.712-2.956.412v3.7a4.98,4.98,0,0,1-3.046-.889c-1.857-1.091-1.824-1.56-1.824-1.56l.576-4.232a3.054,3.054,0,0,0,2.721-1.647,12.766,12.766,0,0,0,1.375-4.73S203.286,69.344,204.122,70.176Z" transform="translate(-133.391 -62.578)" fill="#fff"></path><path d="M200.371,84.045a5.841,5.841,0,0,1-2.882-.93c-1.774-1.046-1.943-1.568-1.931-1.745l.576-4.248a.2.2,0,0,1,.226-.177,2.855,2.855,0,0,0,2.528-1.544,12.691,12.691,0,0,0,1.346-4.639.193.193,0,0,1,.091-.152c.28-.185,2.77-1.795,3.7-.873h0c.762.757.609,3.116.362,5.327l-.033.28c-.156,1.47-.346,2.952-.568,4.4a.869.869,0,0,1-.642.671,4.174,4.174,0,0,1-2.326,0v3.4a.21.21,0,0,1-.173.206A2.421,2.421,0,0,1,200.371,84.045Zm-4.417-2.668c.029.078.255.515,1.729,1.383a5.389,5.389,0,0,0,2.738.873V80.105a.206.206,0,0,1,.333-.161,3.59,3.59,0,0,0,2.256.091c.222-.086.346-.206.366-.35.222-1.445.412-2.923.568-4.388l.029-.268c.132-1.169.482-4.273-.239-4.989h0c-.564-.56-2.392.412-3.1.869a12.623,12.623,0,0,1-1.4,4.722,3.335,3.335,0,0,1-2.721,1.737Z" transform="translate(-133.131 -62.286)" fill="#231f20"></path><path d="M212.527,89.863a1.737,1.737,0,0,1-1.857-1.293" transform="translate(-142.022 -73.534)" fill="#fff"></path><path d="M212.087,89.784a1.951,1.951,0,0,1-1.9-1.437.21.21,0,0,1,.128-.263.2.2,0,0,1,.259.128,1.535,1.535,0,0,0,1.647,1.157.206.206,0,0,1,.235.173.21.21,0,0,1-.173.235S212.2,89.784,212.087,89.784Z" transform="translate(-141.73 -73.241)" fill="#231f20"></path><path d="M205.089,81.075a2.025,2.025,0,0,0-.313-1.05,2.882,2.882,0,0,0-.469-.72.963.963,0,0,0-.766-.317.885.885,0,0,0-.622.412,1.684,1.684,0,0,0-.255.712,3.162,3.162,0,0,0,1.181,2.939l-.074-.095" transform="translate(-137.292 -67.896)" fill="#fff"></path><path d="M203.552,82.949a.206.206,0,0,1-.128-.041,3.417,3.417,0,0,1-1.26-3.137,1.927,1.927,0,0,1,.292-.8,1.091,1.091,0,0,1,.766-.486,1.169,1.169,0,0,1,.939.379,3.009,3.009,0,0,1,.5.77A2.149,2.149,0,0,1,205,80.8a.206.206,0,0,1-.412-.033,1.873,1.873,0,0,0-.288-.939,2.757,2.757,0,0,0-.432-.671.778.778,0,0,0-.6-.259.708.708,0,0,0-.473.313,1.506,1.506,0,0,0-.222.626,2.98,2.98,0,0,0,.943,2.614.193.193,0,0,1,.128.078l.07.095a.2.2,0,0,1,0,.268A.2.2,0,0,1,203.552,82.949Z" transform="translate(-136.999 -67.6)" fill="#231f20"></path><path d="M205.379,93.294a3.939,3.939,0,0,1-1.713-1.424,3.3,3.3,0,0,0,1.721,3.083Z" transform="translate(-137.9 -75.476)" fill="#231f20"></path><path d="M205.09,94.874a.2.2,0,0,1-.082,0,3.543,3.543,0,0,1-1.84-3.293.206.206,0,0,1,.387-.086,3.754,3.754,0,0,0,1.6,1.326.206.206,0,0,1,.128.189v1.647a.206.206,0,0,1-.091.177.235.235,0,0,1-.1.041Zm-1.47-2.622a2.882,2.882,0,0,0,1.264,2.058V93.141A4.619,4.619,0,0,1,203.621,92.252Z" transform="translate(-137.607 -75.191)" fill="#231f20"></path><ellipse cx="0.527" cy="0.206" rx="0.527" ry="0.206" transform="matrix(0.262, -0.965, 0.965, 0.262, 69.632, 11.866)" fill="#231f20"></ellipse><line x1="0.984" y1="0.576" transform="translate(69.472 10.467)" fill="#fff"></line><path d="M213.36,77.958a.243.243,0,0,1-.107-.029l-.98-.572a.208.208,0,1,1,.21-.358l.98.572a.206.206,0,0,1-.1.387Z" transform="translate(-142.904 -66.71)" fill="#231f20"></path><path d="M145.653,100.66s-9.616,1.009-15.388,4.347c-3.232,1.869-8.645,11.646-8.645,11.646l4.273,2.091,9.155-9.056a69.334,69.334,0,0,0,9.085-2.058Z" transform="translate(-89.63 -80.647)" fill="#15af9e"></path><path d="M157.77,119.367c.548-.095,7.632-1.787,7.632-1.787" transform="translate(-110.898 -90.602)" fill="#fff"></path><path d="M157.448,119.27a.207.207,0,1,1-.037-.412c.535-.095,7.554-1.766,7.624-1.787a.206.206,0,0,1,.247.152.21.21,0,0,1-.152.251c-.288.066-7.1,1.692-7.649,1.791Z" transform="translate(-110.576 -90.3)" fill="#231f20"></path><path d="M141.517,199.312s-24.362,5.352-24.045,4.911l-.552-6.541,18.035-6.632,4.664,7.15" transform="translate(-86.864 -133.827)" fill="#231f20"></path><path d="M117.259,204.138c-.2,0-.226-.041-.255-.086a.206.206,0,0,1-.033-.124l-.552-6.525a.21.21,0,0,1,.136-.21l18.035-6.632a.2.2,0,0,1,.243.082l4.664,7.15a.206.206,0,0,1-.062.284.2.2,0,0,1-.284-.062l-4.574-7-17.734,6.508.523,6.22c1.647-.14,14.927-2.98,23.814-4.94a.21.21,0,0,1,.086.412c-.058,0-6.031,1.326-11.938,2.581C120.157,203.738,117.893,204.138,117.259,204.138Z" transform="translate(-86.57 -133.532)" fill="#231f20"></path><path d="M234.24,72.445a3.677,3.677,0,0,0,2.47-.687,1.647,1.647,0,0,0,.683-.617,1.021,1.021,0,0,0-.169-1.05,1.342,1.342,0,0,0-1.062-.5c-.062,0-.152,0-.144-.078" transform="translate(-155.889 -62.32)" fill="#fff"></path><path d="M234.345,72.428a2.31,2.31,0,0,1-.44-.041.206.206,0,0,1-.161-.243.2.2,0,0,1,.239-.161,3.51,3.51,0,0,0,2.342-.667,1.428,1.428,0,0,0,.6-.523.823.823,0,0,0-.144-.823,1.124,1.124,0,0,0-.9-.412.412.412,0,0,1-.288-.1.255.255,0,0,1-.066-.2.206.206,0,0,1,.222-.185.189.189,0,0,1,.144.078,1.573,1.573,0,0,1,1.21.58A1.235,1.235,0,0,1,237.3,71a1.77,1.77,0,0,1-.762.7A4.528,4.528,0,0,1,234.345,72.428ZM235.938,69.267Z" transform="translate(-155.595 -62.06)" fill="#231f20"></path><path d="M279.18,196.081s3,2.775,3.948,2.47,7.311-11.7,6.138-11.987-7.2,5.154-7.2,5.154Z" transform="translate(-182.329 -131.181)" fill="#231f20"></path><path d="M282.689,198.521c-1.124,0-3.462-2.112-3.944-2.561a.206.206,0,0,1-.033-.263l2.882-4.351.033-.037c1.021-.922,6.175-5.5,7.389-5.2.107.025.288.123.3.461.045,1.647-5.3,11.576-6.43,11.938A.63.63,0,0,1,282.689,198.521Zm-3.536-2.742c1.214,1.1,3.059,2.47,3.618,2.322.626-.243,4.808-7.315,5.911-10.538.309-.9.218-1.07.214-1.074-.753-.177-4.664,3.03-6.969,5.109Z" transform="translate(-182.034 -130.912)" fill="#231f20"></path><path d="M102.259,210.45s-4.553.659-4.66,1.1.93,11.736,1.807,11.242,3.124-7.126,3.124-7.126Z" transform="translate(-75.493 -145.241)" fill="#231f20"></path><path d="M99.056,222.782a.342.342,0,0,1-.206-.074c-.152-.115-.617-.469-1.268-5.833a53.227,53.227,0,0,1-.478-5.6c.037-.14.144-.572,4.829-1.235a.206.206,0,0,1,.161.045.181.181,0,0,1,.074.144l.276,5.216a.235.235,0,0,1,0,.074c-.379,1.12-2.318,6.731-3.219,7.237a.309.309,0,0,1-.169.029Zm-1.556-11.4c0,.346.165,2.783.5,5.512.539,4.4.947,5.269,1.066,5.434.626-.523,2.128-4.471,2.968-6.936l-.259-4.94A19.416,19.416,0,0,0,97.5,211.379Z" transform="translate(-75.2 -144.997)" fill="#231f20"></path><path d="M242.471,96.332a.206.206,0,0,1-.2-.14l-3.5-10.353a.206.206,0,1,1,.391-.132l3.5,10.353a.206.206,0,0,1-.128.263A.194.194,0,0,1,242.471,96.332Z" transform="translate(-158.55 -71.766)" fill="#231f20"></path><ellipse cx="33.772" cy="1.754" rx="33.772" ry="1.754" transform="translate(30.974 78.209)" fill="#e6e7e8"></ellipse></svg> 