<?xml version="1.0" encoding="UTF-8"?> <svg xmlns="http://www.w3.org/2000/svg" width="1800" height="998.906" viewBox="0 0 1800 998.906"><defs><style>.a{fill:#f5f5f5;}.b{fill:#d4e9e7;}.c{fill:#f2f2f2;}.d,.f{fill:#087770;}.d,.e,.g{fill-rule:evenodd;}.e{fill:#d0d1d2;}.g{fill:#fff;}</style></defs><g transform="translate(0 2176.232)"><g transform="translate(0 -2176.232)"><rect class="a" width="1800" height="995" transform="translate(0 2.232)"></rect><rect class="b" width="900" height="499.219" transform="translate(900)"></rect><rect class="c" width="900" height="499.219" transform="translate(900 499.688)"></rect><g transform="translate(1149.375 201.553)"><path class="d" d="M271.594,13.984a11.455,11.455,0,0,0-11.4,11.512v3.413h-9.712V40h9.712V65.593c0,13.959,7.069,18.759,24.487,16.631V71.884c-8.653.422-13.087.534-13.087-6.291V40h13.087V28.909H271.594V13.984ZM231.525,17.7V82.224h11.4V6.184a11.455,11.455,0,0,0-11.4,11.512ZM38.906,35.856h7.162V15.268A14.208,14.208,0,0,0,31.931.99V28.712a7.114,7.114,0,0,0,6.975,7.144ZM7.341,35.715A7.375,7.375,0,0,0,0,43.131l.131,6.862H25a6.834,6.834,0,0,0,6.8-6.862v-.375h-.009l.141-7.041ZM39.094,50.124H31.931V70.168A14.208,14.208,0,0,0,46.069,84.446V57.268a7.114,7.114,0,0,0-6.975-7.144ZM209.484,36.484c-4.331-5.972-10.453-8.962-18.469-8.962a24.6,24.6,0,0,0-18.581,8.109,27.733,27.733,0,0,0-7.706,19.941A27.9,27.9,0,0,0,172.434,75.5a24.6,24.6,0,0,0,18.581,8.109c8.016,0,14.137-2.991,18.469-9.066v7.678h11.4V28.909h-11.4v7.575Zm-4.753,31.341a17.213,17.213,0,0,1-23.85,0,16.948,16.948,0,0,1-4.753-12.253,16.548,16.548,0,0,1,4.753-12.159,16.953,16.953,0,0,1,23.85,0,16.548,16.548,0,0,1,4.753,12.159,16.948,16.948,0,0,1-4.753,12.253Zm-71.484-40.3c-8.128,0-14.878,2.672-20.053,8.109a27.5,27.5,0,0,0-7.809,19.941q0,12.15,7.922,20.147c5.269,5.222,12.234,7.894,20.784,7.894,10.247,0,17.944-3.844,23.119-11.625l-9.394-5.541c-3.056,4.369-7.594,6.609-13.613,6.609-8.766,0-15.206-4.481-16.894-12.581h42.009a31.318,31.318,0,0,0,.422-4.8,28.69,28.69,0,0,0-7.491-19.941,24.629,24.629,0,0,0-19-8.212ZM117.206,51.09c1.584-8.109,7.491-13.116,15.938-13.116,7.491,0,13.509,4.481,15.094,13.116ZM53.016,35.715a6.834,6.834,0,0,0-6.8,6.863v.375h.009l-.141,7.041H70.678a7.375,7.375,0,0,0,7.341-7.416l-.131-6.863ZM83.241,14.368V71.059A13.313,13.313,0,0,0,96.487,84.446V.99A13.312,13.312,0,0,0,83.241,14.368Zm205.884,41.2a27.73,27.73,0,1,1,8.084,19.884,27.938,27.938,0,0,1-8.084-19.884Zm44.447,0c0-9.7-7.2-16.847-16.509-16.847s-16.509,7.144-16.509,16.847,7.2,16.837,16.509,16.837,16.509-7.134,16.509-16.837Z" transform="translate(0 -0.99)"></path></g><g transform="translate(1149.375 704.991)"><path class="e" d="M271.594,13.984a11.455,11.455,0,0,0-11.4,11.512v3.413h-9.712V40h9.712V65.593c0,13.959,7.069,18.759,24.487,16.631V71.884c-8.653.422-13.087.534-13.087-6.291V40h13.087V28.909H271.594V13.984ZM231.525,17.7V82.224h11.4V6.184a11.455,11.455,0,0,0-11.4,11.512ZM38.906,35.856h7.162V15.268A14.208,14.208,0,0,0,31.931.99V28.712a7.114,7.114,0,0,0,6.975,7.144ZM7.341,35.715A7.375,7.375,0,0,0,0,43.131l.131,6.862H25a6.834,6.834,0,0,0,6.8-6.862v-.375h-.009l.141-7.041ZM39.094,50.124H31.931V70.168A14.208,14.208,0,0,0,46.069,84.446V57.268a7.114,7.114,0,0,0-6.975-7.144ZM209.484,36.484c-4.331-5.972-10.453-8.962-18.469-8.962a24.6,24.6,0,0,0-18.581,8.109,27.733,27.733,0,0,0-7.706,19.941A27.9,27.9,0,0,0,172.434,75.5a24.6,24.6,0,0,0,18.581,8.109c8.016,0,14.137-2.991,18.469-9.066v7.678h11.4V28.909h-11.4v7.575Zm-4.753,31.341a17.213,17.213,0,0,1-23.85,0,16.948,16.948,0,0,1-4.753-12.253,16.548,16.548,0,0,1,4.753-12.159,16.953,16.953,0,0,1,23.85,0,16.548,16.548,0,0,1,4.753,12.159,16.948,16.948,0,0,1-4.753,12.253ZM133.247,27.531c-8.128,0-14.878,2.662-20.053,8.1a27.487,27.487,0,0,0-7.809,19.941q0,12.15,7.922,20.147c5.269,5.222,12.234,7.894,20.784,7.894,10.247,0,17.944-3.844,23.119-11.625l-9.394-5.541c-3.056,4.369-7.594,6.609-13.613,6.609-8.766,0-15.206-4.481-16.894-12.581h42.009a31.318,31.318,0,0,0,.422-4.8,28.69,28.69,0,0,0-7.491-19.941,24.621,24.621,0,0,0-19-8.2ZM117.206,51.09c1.584-8.109,7.491-13.116,15.938-13.116,7.491,0,13.509,4.481,15.094,13.116ZM53.016,35.715a6.834,6.834,0,0,0-6.8,6.863v.375h.009l-.141,7.041H70.678a7.375,7.375,0,0,0,7.341-7.416l-.131-6.863ZM83.241,14.368V71.059A13.313,13.313,0,0,0,96.487,84.446V.99A13.312,13.312,0,0,0,83.241,14.368Zm205.884,41.2a27.721,27.721,0,1,1,8.081,19.886,27.938,27.938,0,0,1-8.081-19.886Zm44.447,0c0-9.7-7.2-16.847-16.509-16.847s-16.509,7.144-16.509,16.847,7.2,16.837,16.509,16.837,16.509-7.134,16.509-16.837Z" transform="translate(0 -0.99)"></path></g><rect class="f" width="900" height="998" transform="translate(0 0.232)"></rect><g transform="translate(345.938 412.5)"><path class="g" d="M111.784,72.563A14.333,14.333,0,0,0,97.458,86.9v.769h.006l-.292,14.719h51.862A15.48,15.48,0,0,0,164.5,86.9l-.286-14.334Zm63.723-44.606V146.409a27.951,27.951,0,0,0,27.931,27.966V0a27.942,27.942,0,0,0-27.931,27.956ZM82.026,72.844H97.119V29.831A29.813,29.813,0,0,0,67.326,0V57.938A14.906,14.906,0,0,0,82.026,72.844Zm.4,29.831H67.33v41.869a29.812,29.812,0,0,0,29.8,29.822V117.591a14.907,14.907,0,0,0-14.7-14.916ZM15.469,72.563A15.469,15.469,0,0,0,0,88.041l.281,14.344H52.715A14.334,14.334,0,0,0,67.041,88.041v-.769h-.009l.292-14.709Z" transform="translate(0)"></path></g></g></g></svg> 