<?xml version="1.0" encoding="UTF-8"?> <svg xmlns="http://www.w3.org/2000/svg" width="174.268" height="124.609" viewBox="0 0 174.268 124.609"><g transform="translate(-1086.06 -1230.342)"><path d="M1238.643,1280.234a41.322,41.322,0,0,0-15.283-22.959c-7.578-5.752-16.685-8.955-25.752-8.515a48.541,48.541,0,0,0-85.093,18.1,46.272,46.272,0,0,0,19.824,88.086h88.521a39.477,39.477,0,0,0,17.783-74.717m-17.783,64.219h-88.521a35.784,35.784,0,0,1-10.561-69.971,38.052,38.052,0,0,1,70.708-14.687,31.29,31.29,0,0,1,36.8,27.969,28.971,28.971,0,0,1-8.423,56.689" fill="#1e9c86"></path><path d="M1224.674,1294.863a4,4,0,0,1-3.276-3.994,23.26,23.26,0,0,0-29.869-22.617,4.032,4.032,0,0,1-4.755-2.129,30.046,30.046,0,0,0-57.222,11.65,4,4,0,0,1-3.149,3.76,27.777,27.777,0,0,0,5.937,54.912h88.521a20.966,20.966,0,0,0,3.813-41.582" fill="#1e9c86"></path></g></svg> 