<?xml version="1.0" encoding="UTF-8"?> <svg xmlns="http://www.w3.org/2000/svg" width="134.5" height="153.028" viewBox="0 0 134.5 153.028"><defs><style>.a{fill:#1e9c86;}</style></defs><path class="a" d="M388.394,697.1h4.483v-8.967H374.944V674.688a4.483,4.483,0,1,0-8.966,0v13.449H333.74a26.78,26.78,0,0,0,15.007,38.945,26.9,26.9,0,0,0,44.13,26.215V724h-4.483a13.449,13.449,0,1,1,0-26.9m72.587-8.967H437.71v4.484a13.45,13.45,0,0,1-26.9,0v-4.484h-8.966V706.07h-13.45a4.483,4.483,0,0,0,0,8.967h13.45V753.3a26.9,26.9,0,0,0,44.13-26.215,26.779,26.779,0,0,0,15.007-38.945m-15.007-47.911a26.9,26.9,0,0,0-44.13-26.215V643.3h4.483a13.449,13.449,0,1,1,0,26.9h-4.483v8.966h17.933v13.451a4.483,4.483,0,0,0,8.967,0V679.17h32.237a26.779,26.779,0,0,0-15.007-38.944m-39.647,12.045h-13.45v-38.26a26.9,26.9,0,0,0-44.13,26.215A26.779,26.779,0,0,0,333.74,679.17h23.271v-4.482a13.45,13.45,0,1,1,26.9,0v4.482h8.966V661.238h13.45a4.483,4.483,0,0,0,0-8.967" transform="translate(-330.111 -607.14)"></path></svg> 