<?xml version="1.0" standalone="no"?>
<!DOCTYPE svg PUBLIC "-//W3C//DTD SVG 20010904//EN"
 "http://www.w3.org/TR/2001/REC-SVG-20010904/DTD/svg10.dtd">
<svg version="1.0" xmlns="http://www.w3.org/2000/svg"
 width="102.000000pt" height="102.000000pt" viewBox="0 0 102.000000 102.000000"
 preserveAspectRatio="xMidYMid meet">
<metadata>
Created by potrace 1.11, written by Peter Selinger 2001-2013
</metadata>
<g transform="translate(0.000000,102.000000) scale(0.100000,-0.100000)"
fill="#000000" stroke="none">
<path d="M125 999 c140 -76 246 -205 279 -341 6 -28 24 -36 42 -19 27 26 190
54 182 32 -1 -6 -73 -94 -158 -197 -85 -103 -203 -246 -262 -318 -59 -72 -112
-136 -117 -142 -15 -18 540 -15 604 3 96 28 165 87 213 183 36 73 39 199 5
272 -44 97 -127 169 -220 193 -49 12 -48 11 -27 60 41 99 6 210 -86 268 -33
21 -47 22 -265 25 l-230 3 40 -22z"/>
</g>
</svg>
