<svg xmlns="http://www.w3.org/2000/svg" width="128.424" height="88.001" viewBox="0 0 128.424 88.001"><g transform="translate(131.222 -191.9)"><g transform="translate(-115.802 192.127)"><g transform="translate(-15.298 30)"><path d="M-74.04,345.04h-.522l-2.371-10.2h-1.138l-2.371,10.2h-.522L-83,334.7h-1l2.277,11.193h1.992l2.229-9.818,2.182,9.818h2.039L-71,334.7h-1Z" transform="translate(84 -288.41)" fill="#595757" stroke="#595757" stroke-width="0.2"/><path d="M-51.08,341c-1.945,0-3.32,1.091-3.32,4.221,0,2.7.711,4.126,3.13,4.174a30.719,30.719,0,0,0,3.083-.237l-.047-.806s-1.755.142-2.941.142c-1.707,0-2.229-1-2.229-2.893h5.454l.047-.759c0-2.7-1.091-3.842-3.178-3.842m-2.324,3.794c0-2.134.854-2.941,2.324-2.941,1.518,0,2.229.759,2.229,2.941Z" transform="translate(68.439 -291.721)" fill="#595757" stroke="#595757" stroke-width="0.2"/><path d="M-37.6,337.515h.806l.9-3.415h-1Z" transform="translate(59.607 -288.095)" fill="#595757" stroke="#595757" stroke-width="0.2"/><rect width="0.949" height="11.62" transform="translate(25.754 45.863)" fill="#595757" stroke="#595757" stroke-width="0.2"/><rect width="0.949" height="11.62" transform="translate(29.312 45.863)" fill="#595757" stroke="#595757" stroke-width="0.2"/><path d="M-1.484,334.7H-9.5v.9h3.51v10.292h1V335.6h3.51Z" transform="translate(44.835 -288.41)" fill="#595757" stroke="#595757" stroke-width="0.2"/><path d="M8.149,341.295H7.2v8.063h.949v-6.024a10.893,10.893,0,0,1,3.035-1.186V341.2a7.9,7.9,0,0,0-3.035,1.328Z" transform="translate(36.056 -291.827)" fill="#595757" stroke="#595757" stroke-width="0.2"/><path d="M20.92,341c-1.945,0-3.32,1.091-3.32,4.221,0,2.7.711,4.126,3.13,4.174a30.719,30.719,0,0,0,3.083-.237l-.047-.806s-1.755.142-2.941.142c-1.707,0-2.229-1-2.229-2.893H24.05l.047-.759C24.05,342.138,22.96,341,20.92,341m-2.371,3.794c0-2.134.854-2.941,2.324-2.941,1.518,0,2.229.759,2.229,2.941Z" transform="translate(30.588 -291.721)" fill="#595757" stroke="#595757" stroke-width="0.2"/><path d="M40.318,347.877v-4.316c0-1.707-.759-2.561-2.514-2.561a20.385,20.385,0,0,0-3.13.332l.047.759s1.9-.237,3.035-.237c1.043,0,1.565.474,1.565,1.707v.759l-2.751.285c-1.613.142-2.371.854-2.371,2.371,0,1.613.806,2.419,2.229,2.419a8.731,8.731,0,0,0,3.035-.664,2.3,2.3,0,0,0,1.8.664l.047-.759c-.474-.095-.949-.285-1-.759m-.949.142a9.063,9.063,0,0,1-2.751.569c-.9,0-1.328-.617-1.328-1.613,0-.949.379-1.47,1.47-1.565l2.609-.285Z" transform="translate(21.862 -291.721)" fill="#595757" stroke="#595757" stroke-width="0.2"/><path d="M54.215,345.913c-1.138,0-1.281-.522-1.281-2.514v-3.984h2.7v-.854h-2.7V336h-.949v2.514H50.8v.854h1.186v4.458c0,2.324.569,2.893,2.182,2.893.569,0,1.613-.142,1.613-.142l-.047-.806c-.047,0-1.091.142-1.518.142" transform="translate(13.135 -289.093)" fill="#595757" stroke="#595757" stroke-width="0.2"/><path d="M76.567,334.7l-2.988,5.454L70.591,334.7H69.5l3.6,6.5v4.7h1v-4.7l3.6-6.5Z" transform="translate(3.304 -288.41)" fill="#595757" stroke="#595757" stroke-width="0.2"/><path d="M89.967,341c-2.514,0-3.367,1.233-3.367,4.079,0,3.035.664,4.316,3.367,4.316s3.368-1.281,3.368-4.316c0-2.846-.854-4.079-3.368-4.079m0,7.541c-2.087,0-2.371-1-2.371-3.462,0-2.419.522-3.225,2.371-3.225s2.371.806,2.371,3.225c.047,2.466-.285,3.462-2.371,3.462" transform="translate(-5.685 -291.721)" fill="#595757" stroke="#595757" stroke-width="0.2"/><path d="M110.27,347.988a5.115,5.115,0,0,1-2.371.664c-1.613,0-1.85-.759-1.85-3.178V341.3H105.1v4.221c0,2.988.474,4.031,2.7,4.031a5.488,5.488,0,0,0,2.466-.759v.617h.949v-8.063h-.949Z" transform="translate(-15.411 -291.88)" fill="#595757" stroke="#595757" stroke-width="0.2"/><path d="M139.06,345.04h-.522l-2.324-10.2h-1.186l-2.371,10.2h-.522L130.1,334.7h-1l2.324,11.193h1.992l2.182-9.818,2.229,9.818h1.992L142.1,334.7h-1Z" transform="translate(-28.028 -288.41)" fill="#595757" stroke="#595757" stroke-width="0.2"/><path d="M162.02,341c-1.945,0-3.32,1.091-3.32,4.221,0,2.7.711,4.126,3.13,4.174a30.719,30.719,0,0,0,3.083-.237l-.047-.806s-1.755.142-2.941.142c-1.707,0-2.229-1-2.229-2.893h5.454l.047-.759c0-2.7-1.091-3.842-3.178-3.842m-2.324,3.794c0-2.134.854-2.941,2.324-2.941,1.518,0,2.229.759,2.229,2.941Z" transform="translate(-43.589 -291.721)" fill="#595757" stroke="#595757" stroke-width="0.2"/><rect width="0.949" height="11.62" transform="translate(123.696 45.863)" fill="#595757" stroke="#595757" stroke-width="0.2"/><rect width="0.949" height="11.62" transform="translate(127.253 45.863)" fill="#595757" stroke="#595757" stroke-width="0.2"/></g><g transform="translate(0)"><path d="M-16.873,246.632v-5.847h2.566a10.71,10.71,0,0,0,7.178,2.371c3.281,0,5-.877,5-2.663,0-1.721-1.039-2.533-5.164-3.021-6.4-.747-9.809-3.086-9.809-8.64,0-5.717,4.417-8.932,11.563-8.932a19.552,19.552,0,0,1,9.192,1.949v5.717H1.219a11.564,11.564,0,0,0-6.691-1.884c-3.183,0-4.385.909-4.385,2.534,0,1.462,1.429,2.209,5.457,2.7,6.951.877,9.842,3.086,9.842,8.8,0,5.587-3.735,9.192-12.18,9.192a19.362,19.362,0,0,1-10.134-2.274" transform="translate(38.83 -211.032)" fill="#00418d"/><path d="M55.2,205.268h3.443V197.7h8.12v7.568h5.912v5.294H66.8v14.551c0,2.7,1.1,3.443,3.768,3.443H72.8v4.775a16.354,16.354,0,0,1-5.132.747c-5.619,0-9.03-2.176-9.03-8.055V210.562H55.2Z" transform="translate(-9.987 -196.043)" fill="#00418d"/><path d="M120.348,236.138c.39,5.684,3.183,7.243,7.7,7.243a13.172,13.172,0,0,0,7.73-2.371h2.5v5.2a21.8,21.8,0,0,1-11.466,2.761c-9.582,0-14.811-5.522-14.811-14.421,0-9.127,6.139-14.746,14.227-14.746,8.575,0,13.155,4.58,13.155,13.934,0,.974-.13,2.176-.13,2.436h-18.9Zm.1-4.742h10.914c-.162-5.035-1.949-6.659-5.132-6.659-2.826,0-5.164,1.364-5.782,6.659" transform="translate(-48.338 -210.965)" fill="#00418d"/><path d="M216.52,228.353v20.5H208.4V220.46h5.522c1.4,0,2.209.585,2.5,3.41a11.262,11.262,0,0,1,8.12-3.67,6.417,6.417,0,0,1,1.786.26v6.2h-1.4a19.112,19.112,0,0,0-8.413,1.689" transform="translate(-113.426 -211.235)" fill="#00418d"/><path d="M-114.632,200.377h.1l4.677,13.934h-9.354Zm-3.54-8.477L-131.1,227.531v2.209h6.951l3.118-9.614h13.122l3.216,9.614h8.413v-2.209L-109.24,191.9h-8.932Z" transform="translate(115.802 -192.127)" fill="#00418d"/></g><path d="M347.573,143.1c-8.676,0-8.782-7.325-8.871-9.343.186-6.955,3.284-10,10.781-9.824,1.765,0,3.463-.071,5.2.077,0,0,.593,2.984-.778,3.977s-3.549.577-5.2.577c-4.669,0-5.29.458-5.29,5.193.085,4.516,2.233,5.239,7.233,5.239,1.507,0,2.382-.379,3.346.412s.709,3.692.709,3.692c-.856.022-1.676.03-2.475.03C350.63,143.13,349.117,143.1,347.573,143.1Zm65.52-.363a4.47,4.47,0,0,1-1.82-1.631c-1.328-1.97-2.871-4.264-3.962-5.923-1.941-2.952-2.827-4.15-2.827-4.15V143.1h-3.428a1.95,1.95,0,0,1-1.277-.363,2.218,2.218,0,0,1-.458-1.305l.042-17.234a11.089,11.089,0,0,1,5.408.234c2.569.89,3.083,3.341,5.225,6.433s2.256,3.231,3.512,5.069a21.576,21.576,0,0,1,0-2.562c.027-1.074,0-1.979,0-3.509a22.409,22.409,0,0,1,0-2.618c.094-1.273.156-2.049.8-2.618,1.6-1.416,4.34-.429,4.34-.429v18.9H415.2s-.125.009-.32.009A3.685,3.685,0,0,1,413.093,142.738Zm-48.185-.329c-.946-.775-.854-2.96-.854-2.96V124.2s3.4-.32,4.453.494.675,2.752.743,6.493,0,7.8,0,7.8,1.639.066,4.308,0c1.334.049,1.723.016,2.336.428,1.336.866.779,3.692.779,3.692h-9.1s-.053,0-.146,0A4.365,4.365,0,0,1,364.908,142.408Zm22.167.692a3.71,3.71,0,0,1-1.689-.56,1.751,1.751,0,0,1-.768-1.287V124.2s3.3-.326,4.566.688c.584.469.527,1.555.52,2.208,0,1.471,0,2.49,0,2.49V143.1Zm64.1-.054c-8.676,0-8.782-7.325-8.871-9.344.186-6.954,3.283-10,10.781-9.823,1.765,0,3.463-.071,5.2.077,0,0,.593,2.984-.777,3.977s-3.549.576-5.2.576c-4.669,0-5.29.459-5.29,5.192.085,4.516,2.232,5.24,7.232,5.24,1.507,0,2.382-.379,3.346.412s.709,3.692.709,3.692c-.856.022-1.676.029-2.475.029C454.236,143.075,452.723,143.046,451.179,143.046Zm-20.47-.008a3.71,3.71,0,0,1-1.689-.56,1.753,1.753,0,0,1-.768-1.288V124.137s3.3-.327,4.566.687c.584.47.527,1.555.52,2.209,0,1.47,0,2.49,0,2.49v13.516Z" transform="translate(-351 -75.001)" fill="#0eb48d"/></g></g></svg>