<svg xmlns="http://www.w3.org/2000/svg" xmlns:xlink="http://www.w3.org/1999/xlink" width="142.035" height="98.133" viewBox="0 0 142.035 98.133"><defs><clipPath id="a"><rect width="3.028" height="8.786"/></clipPath><clipPath id="b"><rect width="3.971" height="8.786"/></clipPath><clipPath id="c"><rect width="3.524" height="9.58"/></clipPath><linearGradient id="e" x1="0.458" y1="0.909" x2="0.58" y2="0.212" gradientUnits="objectBoundingBox"><stop offset="0" stop-color="#f6b11c"/><stop offset="1" stop-color="#6b2a07"/></linearGradient><linearGradient id="f" x1="0.423" y1="1.628" x2="0.533" y2="-0.116" xlink:href="#e"/><linearGradient id="g" x1="0.466" y1="0.697" x2="0.577" y2="-0.481" xlink:href="#e"/><linearGradient id="h" x1="0.433" y1="0.78" x2="0.69" y2="0.113" xlink:href="#e"/><linearGradient id="i" x1="0.419" y1="1.576" x2="0.521" y2="0.237" xlink:href="#e"/><linearGradient id="j" x1="0.43" y1="1.016" x2="0.511" y2="0.27" xlink:href="#e"/><linearGradient id="k" x1="0.465" y1="0.722" x2="0.571" y2="0.05" xlink:href="#e"/></defs><g transform="translate(-17.803 1)"><g transform="translate(18.894 86.908)"><path d="M81,148.439l3.078-8.339.745,2.085-.149.347-.05.149-2.035,5.708H81Z" transform="translate(-50.771 -139.107)"/><path d="M87.693,139.9h1.34l3.226,8.389H90.721l-2.134-6.056ZM86.8,147l.546-1.489h3.375V147Z" transform="translate(-53.692 -139.007)"/><path d="M113.1,148.439l3.078-8.339.745,2.085-.149.347-.05.149-2.035,5.708H113.1Z" transform="translate(-66.937 -139.107)"/><path d="M119.744,139.9h1.34l3.226,8.389h-1.539l-2.134-6.056ZM118.9,147l.546-1.489h3.375V147Z" transform="translate(-69.858 -139.007)"/><path d="M158.8,148.439l3.078-8.339.745,2.085-.149.347-.05.149-2.035,5.708H158.8Z" transform="translate(-89.953 -139.107)"/><path d="M165.444,139.9h1.34l3.226,8.389h-1.539l-2.134-6.056ZM164.6,147l.546-1.489h3.375V147Z" transform="translate(-92.874 -139.007)"/><path d="M271.8,148.439l3.078-8.339.745,2.085-.149.347-.05.149-2.035,5.708H271.8Z" transform="translate(-146.863 -139.107)"/><path d="M278.444,139.9h1.34l3.226,8.389h-1.539l-2.134-6.056ZM277.6,147l.546-1.489h3.375V147Z" transform="translate(-149.784 -139.007)"/><path d="M241.1,140h1.886l6.453,8.389H247.5Z" transform="translate(-131.401 -139.057)"/><path d="M239.4,148.489V140.1l1.539,1.886v6.5Z" transform="translate(-130.545 -139.107)"/><path d="M256.1,139.9v6.056l1.539,1.985V139.9Z" transform="translate(-138.956 -139.007)"/><g transform="translate(38.072 0.745)"><g transform="translate(4.765 0.05)"><g clip-path="url(#a)"><path d="M102.577,148.287a5.112,5.112,0,0,1-1.737-.3,5.611,5.611,0,0,1-1.439-.745l.745-1.291a4.15,4.15,0,0,0,1.142.6,3.888,3.888,0,0,0,1.291.2,2.658,2.658,0,0,0,1.191-.248.875.875,0,0,0,.447-.745h0a.618.618,0,0,0-.2-.546,1.183,1.183,0,0,0-.546-.3l-.745-.149c-.347-.05-.645-.149-.993-.2a5.292,5.292,0,0,1-.943-.347,1.866,1.866,0,0,1-.695-.695,2.735,2.735,0,0,1-.248-1.241h0a2.241,2.241,0,0,1,.794-1.886,3.483,3.483,0,0,1,2.283-.695,4.837,4.837,0,0,1,1.39.248,4.494,4.494,0,0,1,1.291.645l-.695,1.34a3.717,3.717,0,0,0-2.035-.695,2.434,2.434,0,0,0-1.142.248.792.792,0,0,0-.4.695h0a.744.744,0,0,0,.248.6,1.673,1.673,0,0,0,.6.3c.248.05.546.149.844.2a5.237,5.237,0,0,1,.943.248,3.526,3.526,0,0,1,.893.4,1.753,1.753,0,0,1,.645.695,2.588,2.588,0,0,1,.248,1.142h0a2.341,2.341,0,0,1-.844,1.886A3.447,3.447,0,0,1,102.577,148.287Z" transform="translate(-102.875 -139.7)"/></g></g><g clip-path="url(#b)"><path d="M101.177,148.387a5.112,5.112,0,0,1-1.737-.3A5.612,5.612,0,0,1,98,147.345l.745-1.291a4.149,4.149,0,0,0,1.142.6,3.888,3.888,0,0,0,1.291.2,2.658,2.658,0,0,0,1.191-.248.875.875,0,0,0,.447-.745h0a.618.618,0,0,0-.2-.546,1.183,1.183,0,0,0-.546-.3l-.745-.149c-.347-.05-.645-.149-.993-.2a5.292,5.292,0,0,1-.943-.347,1.866,1.866,0,0,1-.695-.695,2.735,2.735,0,0,1-.248-1.241h0a2.241,2.241,0,0,1,.794-1.886,3.483,3.483,0,0,1,2.283-.695,4.838,4.838,0,0,1,1.39.248,4.5,4.5,0,0,1,1.291.645l-.695,1.34a3.717,3.717,0,0,0-2.035-.695,2.434,2.434,0,0,0-1.142.248.792.792,0,0,0-.4.695h0a.744.744,0,0,0,.248.6,1.672,1.672,0,0,0,.6.3c.248.05.546.149.844.2a5.236,5.236,0,0,1,.943.248,3.527,3.527,0,0,1,.893.4,1.753,1.753,0,0,1,.645.695,2.588,2.588,0,0,1,.248,1.142h0a2.341,2.341,0,0,1-.844,1.886A3.948,3.948,0,0,1,101.177,148.387Z" transform="translate(-97.404 -139.701)"/></g></g><g transform="translate(66.117)"><g clip-path="url(#c)"><path d="M150.228,148.487a3.332,3.332,0,0,1-1.638-.347,2.47,2.47,0,0,1-1.042-1.092,3.535,3.535,0,0,1-.347-1.688v-2.333a3.535,3.535,0,0,1,.347-1.688,2.759,2.759,0,0,1,1.042-1.092,3.331,3.331,0,0,1,1.638-.347,2.812,2.812,0,0,1,1.439.347,3.29,3.29,0,0,1,1.042.993,4.6,4.6,0,0,1,.546,1.588h-1.638a1.482,1.482,0,0,0-.3-.695,1.9,1.9,0,0,0-.447-.447,1.322,1.322,0,0,0-.6-.149,1.422,1.422,0,0,0-1.042.4,1.576,1.576,0,0,0-.347,1.142v2.333a1.576,1.576,0,0,0,.347,1.142,1.422,1.422,0,0,0,1.042.4,1.386,1.386,0,0,0,.893-.3,1.571,1.571,0,0,0,.5-.893h1.638a4.051,4.051,0,0,1-.546,1.489,2.4,2.4,0,0,1-1.042.943A3.8,3.8,0,0,1,150.228,148.487Z" transform="translate(-150.228 -139.007)"/></g></g><g transform="translate(61.65 0.645)"><g clip-path="url(#c)"><path d="M149.028,148.387a3.331,3.331,0,0,1-1.638-.347,2.47,2.47,0,0,1-1.042-1.092A3.535,3.535,0,0,1,146,145.26v-2.333a3.535,3.535,0,0,1,.347-1.688,2.759,2.759,0,0,1,1.042-1.092,3.332,3.332,0,0,1,1.638-.347,2.812,2.812,0,0,1,1.439.347,3.291,3.291,0,0,1,1.042.993,4.6,4.6,0,0,1,.546,1.588h-1.638a1.482,1.482,0,0,0-.3-.695,1.9,1.9,0,0,0-.447-.447,1.322,1.322,0,0,0-.6-.149,1.422,1.422,0,0,0-1.042.4,1.575,1.575,0,0,0-.347,1.142v2.333a1.576,1.576,0,0,0,.347,1.142,1.422,1.422,0,0,0,1.042.4,1.386,1.386,0,0,0,.893-.3,1.571,1.571,0,0,0,.5-.893h1.638a4.051,4.051,0,0,1-.546,1.489,2.4,2.4,0,0,1-1.042.943A3.8,3.8,0,0,1,149.028,148.387Z" transform="translate(-145.156 -139.601)"/></g></g><path d="M20.1,148.389V140h1.588v8.389Zm2.482,0V146.9h1.837a1.022,1.022,0,0,0,.844-.3,1.219,1.219,0,0,0,.248-.745h0a1.2,1.2,0,0,0-.2-.745.773.773,0,0,0-.695-.3H22.532v-1.489h2.085c.546,0,.794-.3.794-.943,0-.6-.3-.893-.943-.893H22.532V140h2.134a1.742,1.742,0,0,1,1.489.6,2.4,2.4,0,0,1,.5,1.638,2.306,2.306,0,0,1-.3,1.142,1.479,1.479,0,0,1-.993.695,1.435,1.435,0,0,1,.993.695,2.4,2.4,0,0,1,.347,1.291h0a2.412,2.412,0,0,1-.546,1.638,1.874,1.874,0,0,1-1.439.645H22.582Z" transform="translate(-20.1 -139.057)"/><path d="M35.3,148.338V139.95h1.588v8.389Zm2.383-6.9V139.9H41.5v1.539Zm0,3.475v-1.539h3.177v1.539Zm0,3.425v-1.489H41.5v1.489Z" transform="translate(-27.755 -139.007)"/><path d="M223.8,148.489V140.1h1.588v8.389Zm2.333-6.85V140.1h3.822v1.539Zm0,3.475v-1.539h3.177v1.539Zm0,3.375V147h3.822v1.489Z" transform="translate(-122.689 -139.107)"/><path d="M50.7,148.389V140h1.588v8.389Zm1.837,0V146.85h3.772v1.539Z" transform="translate(-35.511 -139.057)"/><path d="M64.4,148.389V140h1.638v8.389Zm2.383-3.375v-1.588h3.772v1.588Zm2.68,3.375V140H71.1v8.389Z" transform="translate(-42.411 -139.057)"/><path d="M177.5,148.938V140.5h1.688v8.438Zm2.68-3.375v-1.489h2.085a.477.477,0,0,0,.447-.3,1.936,1.936,0,0,0,0-1.489.477.477,0,0,0-.447-.3H180.18V140.5h2.184a1.386,1.386,0,0,1,.893.3,2.019,2.019,0,0,1,.6.893,4.623,4.623,0,0,1,0,2.68,2.019,2.019,0,0,1-.6.893,1.386,1.386,0,0,1-.893.3Zm2.283,3.375-2.035-3.624,1.688-.248,2.283,3.921h-1.936Z" transform="translate(-99.371 -139.309)"/><path d="M262.2,141.439V139.9h6.155v1.539Zm2.283,6.9v-6.4h1.588v6.4Z" transform="translate(-142.028 -139.007)"/><path d="M290.4,148.389V140h1.588v8.389Zm2.581,0v-1.34h3.574v1.34Z" transform="translate(-156.23 -139.057)"/><path d="M208.2,148.338V139.9h1.688v8.438Zm2.68-3.375v-1.489h2.085a.477.477,0,0,0,.447-.3,1.936,1.936,0,0,0,0-1.489.477.477,0,0,0-.447-.3H210.88V139.9h2.184a1.386,1.386,0,0,1,.893.3,2.019,2.019,0,0,1,.6.894,4.622,4.622,0,0,1,0,2.68,2.019,2.019,0,0,1-.6.893,1.386,1.386,0,0,1-.893.3Zm2.333,3.375-2.035-3.624,1.688-.248,2.283,3.921h-1.936Z" transform="translate(-114.832 -139.007)"/></g><g transform="translate(19.886 -1)"><g transform="translate(0 0)"><path d="M159.4,11.985c5.113.695,6.6,3.921,7.1,6.85h11.665c-.745-7.644-5.907-15.09-18.763-15.735Z" transform="translate(-88.716 -1.065)"/><path d="M161.541,20.73c-2.234-1.539-9.481-1.688-14.593-1.638v.794c-4.467.1-7.148,2.085-7.148,5.857,0,3.822,2.283,5.361,10.92,7.4,1.241.3,2.333.6,3.425.943a40.686,40.686,0,0,1,22.138.5c-4.021-5.212-16.678-2.879-23.478-3.872s-3.624-2.085-3.624-2.085c9.034-2.73,20.55,0,20.55,0-4.815-3.524-20.2-2.283-20.2-2.283s-.4.4-3.524,0-.745-1.241-.745-1.241c5.212-2.68,19.309-2.085,19.309-2.085-6.3-2.035-20.649-1.34-20.649-1.34C154.443,18.7,161.541,20.73,161.541,20.73Z" transform="translate(-78.845 -9.115)" fill="url(#e)"/><path d="M154.2,15.938c4.815-.4,10.622-.3,10.622-.3-2.333-.943-6.7-1.291-10.622-1.34Z" transform="translate(-86.097 -6.705)" fill="url(#f)"/><path d="M63.61,83.7a9.762,9.762,0,0,1-1.291,1.886c-5.808,6.552-11.963,6.651-25.365,1.439S17,86.033,17,86.033c9.878-1.837,14.494,5.956,27.7,8.19,9.183,1.539,12.211.1,20.55-5.41A22.76,22.76,0,0,1,63.61,83.7Z" transform="translate(-17 -41.657)" fill="url(#g)"/><path d="M71.8,16.125l1.092-.6c1.092-.6,5.956-.4,3.723.248-2.283.695-4.567,2.78-4.219,3.028s3.028-.248,3.028-.248A12.244,12.244,0,0,1,78.9,16.274c1.837-.745,1.688-1.092,5.41.347s4.716-1.34,4.716-1.34l.993,2.383c-1.787,2.383-3.524,2.184-3.524,2.184,2.78,2.234,5.46,13,3.772,20.3h11.714l4.517-2.68h0a57.291,57.291,0,0,1,5.956-3.326c-.893-.248-1.936-.5-3.028-.794C94.833,29.874,91.21,24.464,91.21,17.068c0-5.857,2.631-10.573,7.595-13.3-.546.05-.893.1-.893.1.447-.5,1.936-.943,3.624-1.34a23.791,23.791,0,0,1,4.021-1.042c-10.176.1-13.9,2.73-13.9,2.73L86.047-1l2.78,5.162c-5.063-2.234-8.587,4.269-9.084,4.17S69.121,12.8,69.121,12.8c-1.191,1.837.248,4.815.248,4.815Z" transform="translate(-43.012 1)" fill="url(#h)"/><path d="M154.2,11.4c1.837-.05,3.226,0,3.226,0a13.385,13.385,0,0,0-3.226-.6Z" transform="translate(-86.097 -4.943)" fill="url(#i)"/><path d="M154.2,7.9a12.413,12.413,0,0,1,1.886.2,5.429,5.429,0,0,0-1.886-.5Z" transform="translate(-86.097 -3.331)" fill="url(#j)"/><g transform="translate(70.684 6.254)"><path d="M169.139,25.539a91.207,91.207,0,0,1,9.332-.149c-2.73-.893-6.949-1.241-10.871-1.39A6.463,6.463,0,0,1,169.139,25.539Z" transform="translate(-163.53 -17.845)" fill="#8d9096"/><path d="M159.4,20.043a9.146,9.146,0,0,1,1.241.248,31.756,31.756,0,0,1,10.771.447c-1.886-1.291-7.3-1.588-12.012-1.638Z" transform="translate(-159.4 -15.377)" fill="#8d9096"/><path d="M173.3,33.2c.05.3.1.546.149.844h8.835A41.182,41.182,0,0,0,173.3,33.2Z" transform="translate(-166.4 -22.478)" fill="#8d9096"/><path d="M167.441,15.741A27.909,27.909,0,0,0,159.4,14.5v1.39C163.52,15.691,167.441,15.741,167.441,15.741Z" transform="translate(-159.4 -13.061)" fill="#8d9096"/><path d="M159.4,11.8h.645c-.2-.05-.4-.149-.645-.2Z" transform="translate(-159.4 -11.6)" fill="#8d9096"/></g><g transform="translate(47.255 1.985)"><path d="M138.684,25.039c-8.687-2.035-10.92-3.574-10.92-7.4,0-3.772,2.68-5.758,7.148-5.857V3c-12.26.248-19.011,6.651-19.011,15.983,0,7.4,3.624,12.806,18.217,16.281,9.183,2.184,11.764,4.12,11.764,8.538,0,3.872-2.532,6.354-8.339,6.5V59.19c13.253-.447,20.2-7.148,20.2-16.827C157.695,34.718,154.27,28.811,138.684,25.039Z" transform="translate(-114.063 -3)"/><path d="M133.048,90.293c-4.964-.5-8.091-2.978-9.183-7.793H112.2c1.241,9.679,8.041,16.38,20.848,16.777Z" transform="translate(-112.2 -43.038)"/></g><g transform="translate(48.992 1.539)"><path d="M150.5,31.787c-1.439-.1-2.78-.1-3.921-.1-6.651,0-10.126-1.787-10.126-1.787.6-.2,4.815-1.588,5.41-1.737-1.092-.3-2.234-.645-3.425-.943-8.687-2.035-10.92-3.574-10.92-7.4,0-3.772,2.68-5.758,7.148-5.857v-.794c-3.127.05-5.51.2-5.51.2a22,22,0,0,1,5.51-.943V10.791c-4.467-.1-8.488.149-8.488.149,1.34-.993,5.51-1.241,8.488-1.291v-.6a66.875,66.875,0,0,0-12.36.6,32.693,32.693,0,0,1,12.36-1.936V7.465c-3.375-.4-9.183.2-11.367.447-4.964,2.73-7.595,7.446-7.595,13.3,0,7.4,3.624,12.806,18.217,16.281,1.092.248,2.085.5,3.028.794a40.469,40.469,0,0,1,17.373-3.326A17.807,17.807,0,0,0,150.5,31.787Z" transform="translate(-115.7 -4.735)" fill="#8d9096"/><path d="M144.207,2.1h-1.886A23.79,23.79,0,0,0,138.3,3.142C141.03,2.547,144.207,2.1,144.207,2.1Z" transform="translate(-127.082 -2.1)" fill="#8d9096"/></g><path d="M195.779,58.039A55.449,55.449,0,0,0,186,56.6a16.413,16.413,0,0,1,3.772,3.127,36.484,36.484,0,0,1,5.956.645V58.039Z" transform="translate(-102.113 -28.009)" fill="url(#k)"/><g transform="translate(94.112 1.886)"><path d="M218.066,48.317h-.05V33.476h.05V24.343h-.05V11.933h.05V2.8H206.6V57.451h11.466Z" transform="translate(-206.6 -2.8)"/><path d="M257.249,28.661c3.624-1.688,6.85-5.708,6.85-11.863,0-7.1-4.964-14-17.969-14H236.65v9.133h8.488c4.517,0,7.5,2.085,7.5,6.056,0,3.822-2.283,6.354-7.843,6.354H236.6v9.133h7.843c6.4,0,9.233,2.829,9.233,7.2,0,4.964-2.829,7.644-9.133,7.644H236.65v9.133h10.275c11.466,0,18.713-7,18.713-16.38A12.993,12.993,0,0,0,257.249,28.661Z" transform="translate(-221.709 -2.8)"/></g><path d="M206.6,62.233a36.444,36.444,0,0,1,10.374,3.723c-2.383-2.978-6.254-4.864-10.374-6.056Z" transform="translate(-112.488 -29.671)" fill="#8d9096"/></g></g><path d="M-135.747-17.6l-.618,1.533-.28-.115.255,3.89q.025.4.025.635a12.109,12.109,0,0,1-.791,3.552,6.168,6.168,0,0,1-3.494,1.3,2.448,2.448,0,0,1-1.821-.738A2.542,2.542,0,0,1-143.2-9.4a6.958,6.958,0,0,1,.412-2.225,14.506,14.506,0,0,1,.618-1.525q-.016.132-.066.346-.041.288-.1.593a5.4,5.4,0,0,0-.049.775q0,2.563,1.912,2.563a4.056,4.056,0,0,0,2.629-1.145l-.008-.272q-.041-.766-.124-2.2-.074-2.093-.115-2.472l-.165-1.862-.082-.033q-.354-.165-.354-.437a.721.721,0,0,1,.148-.371,1.807,1.807,0,0,0,.148-.214l.7-1.038a1.08,1.08,0,0,0,.091.387,1.38,1.38,0,0,0,.659.429Zm4.582,5.488v2.134H-134q-.873,0-.874-.7v-.4l-.016-.28v-5.76l1.714-1.813v6.024a1.535,1.535,0,0,0,.087.655q.086.144.556.144Zm4.516,0v2.134h-4.78v-2.134Zm4.368,0v2.134h-4.78v-2.134Zm4.368,0v2.134h-4.78v-2.134Zm4.368,0v2.134h-4.78v-2.134Zm4.368,0v2.134h-4.78v-2.134Zm4.368,0v2.134h-4.78v-2.134Zm4.368,0v2.134h-4.78v-2.134Zm4.368,0v2.134h-4.78v-2.134Zm2.11,2.134h-2.489v-2.134H-93.9l-.264-.857,1.3-1.286.626,2.143h1.755v2.134h-2.777l-.206-.643Zm2.307-6.494-1.08.956-.783-.643-.692.643-1.343-1.244,1.014-.948.75.676.742-.676ZM-88.2-9.975h-2.489v-2.134h2.555l-.264-.857,1.3-1.286.626,2.143h1.755v2.134H-87.49l-.206-.643Zm1.731-6.494-1.022.956-1.4-1.22,1.038-.956Zm4.862,1.335a3.3,3.3,0,0,1,.816,2.192,5.524,5.524,0,0,1-.4,1.8q-.222.6-.47,1.17h-3.255v-2.134h2.81a3.077,3.077,0,0,0-.717-1.343Zm-3.14,7.408,1.08-.948.766.643.709-.643,1.343,1.236-1.014.956-.766-.667-.725.667Zm6.906-6.18a5.345,5.345,0,0,1,1.055,2.761,5.2,5.2,0,0,1-.3,1.6,6.153,6.153,0,0,1-.762,1.578q-.882,1.294-1.665,1.294-.849,0-2.167-2.093a3.69,3.69,0,0,0,1.129.222,2.626,2.626,0,0,0,1.582-.577,3.962,3.962,0,0,0,1.063-1.4l.066-.124a8.153,8.153,0,0,0-.577-1.071,5.183,5.183,0,0,0-.593-.816Zm7.7,0a5.345,5.345,0,0,1,1.055,2.761,5.2,5.2,0,0,1-.3,1.6,6.152,6.152,0,0,1-.762,1.578q-.882,1.294-1.665,1.294-.849,0-2.167-2.093a3.69,3.69,0,0,0,1.129.222,2.626,2.626,0,0,0,1.582-.577,3.962,3.962,0,0,0,1.063-1.4l.066-.124a8.153,8.153,0,0,0-.577-1.071,5.183,5.183,0,0,0-.593-.816Zm6.362,1.8v2.134h-2.835q-.874,0-.874-.7v-.4l-.016-.28v-5.76l1.714-1.813v6.024a1.535,1.535,0,0,0,.087.655q.087.144.556.144Zm4.516,0v2.134h-4.78v-2.134Zm8.653-6.9-.923,1.9-3.741.981,3.23,3.576a.761.761,0,0,1,.2.4.746.746,0,0,1-.008.132l-.124.222-.181.354-.75,1.475h-6.733v-2.134h5.562l-2.011-2.233-.239.272-.816-.775a.523.523,0,0,1-.19-.4.39.39,0,0,1,.041-.157l.124-.321.841-1.854Zm7.886,6.9v2.134h-2.835q-.874,0-.874-.7v-.4l-.016-.28v-5.76l1.714-1.813v6.024a1.535,1.535,0,0,0,.087.655q.087.144.556.144Zm4.516,0v2.134h-4.78v-2.134Zm4.368,0v2.134h-4.78v-2.134Zm11.875,0h1.928v2.134H-31.117l-.19-.626-.527.626h-2.382v-2.134h2.489l-.222-.733,1.36-1.277.6,2.035.214-.124.206-.148,2.176-1.45q.725-.486,1.97-1.17a2.654,2.654,0,0,1,1.1-.412,2.091,2.091,0,0,1,1.17.453,2.594,2.594,0,0,1,1.384,2.011,2.67,2.67,0,0,1-.173.775Zm-1.228,0a3.1,3.1,0,0,0-.878-1.145,1.788,1.788,0,0,0-1.117-.478,2.462,2.462,0,0,0-1.055.412l-.857.494q-.338.19-1.088.717Zm9.641-4.953.066,2.629A.46.46,0,0,1-13.7-14l.338.132.816.371a5.376,5.376,0,0,0,.964.313,7.486,7.486,0,0,0,1.689.222l-1.294,2a6.8,6.8,0,0,0-1.623-.231,2.737,2.737,0,0,0-1.862.692,2.191,2.191,0,0,1-.68.49,4.609,4.609,0,0,1-.746.037h-4.145v-2.134h4.623a1.324,1.324,0,0,1,.412-.313,1.778,1.778,0,0,1-.321-.091q-.132-.074-.42-.255a3.3,3.3,0,0,0-1.747-.643,2.064,2.064,0,0,0-.635.124q.816-1.055,1.261-1.525a1.048,1.048,0,0,1,.783-.321h.165q.132.008.222.008h.33q.28,0,.544-.008l-.132-2.6-.091-.033q-.346-.148-.346-.4a1.426,1.426,0,0,1,.3-.6l.725-1.038v.058a.6.6,0,0,0,.157.449,2.385,2.385,0,0,0,.709.367l1.063.445-.676,1.508Zm8.488,4.953v2.134H-7.895q-.873,0-.874-.7v-.4l-.016-.28v-5.76l1.714-1.813v6.024a1.535,1.535,0,0,0,.087.655q.087.144.556.144Zm3.082-3.024a3.3,3.3,0,0,1,.816,2.192,5.524,5.524,0,0,1-.4,1.8q-.222.6-.47,1.17H-5.291v-2.134h2.81A3.077,3.077,0,0,0-3.2-13.452ZM-3.56-7.774l1-.948,1.4,1.211-1.022.956Z" transform="translate(161 87.402)"/></g></svg>