<svg xmlns="http://www.w3.org/2000/svg" width="114.729" height="62.94" viewBox="0 0 114.729 62.94"><g transform="translate(-440.97 -5110.088)"><g transform="translate(-10 -8.373)"><path d="M7.119,4.8a1.9,1.9,0,0,0-.76.156A1.931,1.931,0,0,0,5.317,6a1.93,1.93,0,0,0,0,1.52A1.931,1.931,0,0,0,6.359,8.558a1.93,1.93,0,0,0,1.52,0A1.931,1.931,0,0,0,8.921,7.516a1.93,1.93,0,0,0,0-1.52A1.931,1.931,0,0,0,7.879,4.954a1.9,1.9,0,0,0-.76-.156ZM9.468,6.756a2.3,2.3,0,0,1-.315,1.179A2.339,2.339,0,0,1,8.3,8.79a2.364,2.364,0,0,1-2.358,0,2.339,2.339,0,0,1-.855-.855,2.364,2.364,0,0,1,0-2.358,2.339,2.339,0,0,1,.855-.855,2.364,2.364,0,0,1,2.358,0,2.339,2.339,0,0,1,.855.855A2.3,2.3,0,0,1,9.468,6.756Z" transform="translate(556.23 5114.053)" fill="#5d5d5d"/><path d="M-4.522-13.6h.881a.911.911,0,0,1,.331.057.764.764,0,0,1,.255.159.69.69,0,0,1,.164.241.8.8,0,0,1,.057.306.635.635,0,0,1-.041.228.683.683,0,0,1-.111.192.82.82,0,0,1-.165.152.838.838,0,0,1-.2.1l0,.024.648.928v.027h-.523l-.625-.908h-.213v.908h-.456Zm.878,1.09a.355.355,0,0,0,.255-.095.316.316,0,0,0,.1-.24.365.365,0,0,0-.022-.125.314.314,0,0,0-.066-.108.324.324,0,0,0-.11-.076.373.373,0,0,0-.15-.029h-.429v.672Z" transform="translate(567.032 5133.119)" fill="#5d5d5d"/></g><path d="M42.945-3.084V-45.912h7.836V-3.084Z" transform="translate(497 5156)" fill="#fd671a"/><path d="M30.608-6.793h-.479a13.218,13.218,0,0,1-3.32,2.871,9.4,9.4,0,0,1-4.995,1.2,12.134,12.134,0,0,1-4.277-.748,11.125,11.125,0,0,1-3.5-2.064,9.23,9.23,0,0,1-2.333-3.17,9.767,9.767,0,0,1-.837-4.067,9.16,9.16,0,0,1,.9-4.1,9.318,9.318,0,0,1,2.512-3.14,11.332,11.332,0,0,1,3.8-2,15.752,15.752,0,0,1,4.755-.688,20.61,20.61,0,0,1,4.725.449,22.919,22.919,0,0,1,3.051.927v-.9a4.785,4.785,0,0,0-1.854-3.858,7.01,7.01,0,0,0-4.606-1.525A8.6,8.6,0,0,0,17.269-24.2l-5.682-3.888a15.406,15.406,0,0,1,12.741-5.862q6.819,0,10.408,3.2t3.589,9.481V-3.682H30.608Zm0-8.793a16.2,16.2,0,0,0-2.841-1.047,12.456,12.456,0,0,0-3.2-.389,6.766,6.766,0,0,0-4.337,1.226A3.739,3.739,0,0,0,18.7-12.774,3.388,3.388,0,0,0,20.17-9.9a5.557,5.557,0,0,0,3.38,1.077,7.165,7.165,0,0,0,2.871-.568,7.126,7.126,0,0,0,2.243-1.5A6.576,6.576,0,0,0,30.1-13.043,6.575,6.575,0,0,0,30.608-15.586Z" transform="translate(497 5156.037)" fill="#fd671a"/><path d="M8.635-11.4A16.359,16.359,0,0,1,3.282-5.329,14.81,14.81,0,0,1-5.3-2.966a16.307,16.307,0,0,1-6.251-1.166,14.57,14.57,0,0,1-4.9-3.26,15.134,15.134,0,0,1-3.23-4.935,16.307,16.307,0,0,1-1.166-6.251,16.533,16.533,0,0,1,1.166-6.281,14.725,14.725,0,0,1,3.23-4.935,14.8,14.8,0,0,1,4.9-3.23A16.307,16.307,0,0,1-5.3-34.19a14.984,14.984,0,0,1,8.554,2.333,13.814,13.814,0,0,1,5.084,6.041L1.158-22.825a7.708,7.708,0,0,0-2.6-3.081,7.072,7.072,0,0,0-3.978-1.047,7.271,7.271,0,0,0-2.931.6,7.541,7.541,0,0,0-2.423,1.675,7.67,7.67,0,0,0-1.645,2.632,9.6,9.6,0,0,0-.6,3.469,9.6,9.6,0,0,0,.6,3.469,7.67,7.67,0,0,0,1.645,2.632A7.541,7.541,0,0,0-8.352-10.8a7.271,7.271,0,0,0,2.931.6A7.474,7.474,0,0,0-1.264-11.31a7.72,7.72,0,0,0,2.722-3.2Z" transform="translate(497 5156.277)" fill="#fd671a"/><path d="M-56.03-45.824h8.65V-27.64l18.008-18.184H-17.4L-38.15-24.889-17.4-3.205-29.735-3-47.381-21.539V-3h-8.075Z" transform="translate(497 5155.912)" fill="#75bc20"/><path d="M-46.658,0h-1.125V-4.77a1.64,1.64,0,0,0-.42-1.282,1.791,1.791,0,0,0-1.215-.368,2.455,2.455,0,0,0-1.208.33,2.739,2.739,0,0,0-.923.8V0h-1.125V-10.005h1.125V-6.2a3.31,3.31,0,0,1,1.11-.87,3.192,3.192,0,0,1,1.47-.36,2.042,2.042,0,0,1,2.31,2.31Zm5.235.18a3.572,3.572,0,0,1-2.67-1.058A3.768,3.768,0,0,1-45.127-3.63a3.819,3.819,0,0,1,1.02-2.693,3.33,3.33,0,0,1,2.55-1.1,3.164,3.164,0,0,1,2.542,1.1,4.145,4.145,0,0,1,.938,2.783v.285h-5.85a2.758,2.758,0,0,0,.773,1.785,2.423,2.423,0,0,0,1.822.72,3,3,0,0,0,2.25-.93l.54.735A3.963,3.963,0,0,1-41.423.18ZM-39.187-4.1a2.6,2.6,0,0,0-.63-1.657A2.15,2.15,0,0,0-41.573-6.5a2.113,2.113,0,0,0-1.7.735A2.72,2.72,0,0,0-43.943-4.1Zm9,4.1h-1.125V-1.08A2.9,2.9,0,0,1-33.757.18,2.942,2.942,0,0,1-36.09-.848a4.074,4.074,0,0,1-.892-2.768,4.087,4.087,0,0,1,.9-2.767,2.929,2.929,0,0,1,2.325-1.043A2.913,2.913,0,0,1-31.312-6.15V-7.245h1.125Zm-3.285-.825a2.548,2.548,0,0,0,1.252-.337,2.425,2.425,0,0,0,.908-.817V-5.25a2.376,2.376,0,0,0-.908-.832,2.548,2.548,0,0,0-1.252-.338,2.074,2.074,0,0,0-1.71.788,3.129,3.129,0,0,0-.63,2.017,3.1,3.1,0,0,0,.63,2.01A2.081,2.081,0,0,0-33.472-.825ZM-26.632.18a1.561,1.561,0,0,1-1.2-.435,1.784,1.784,0,0,1-.405-1.26v-8.49h1.125v8.25a1.113,1.113,0,0,0,.188.675.637.637,0,0,0,.548.255.908.908,0,0,0,.75-.315l.345.855A1.926,1.926,0,0,1-26.632.18Zm3.975,0q-1.62,0-1.62-1.7v-4.74h-1.2v-.99h1.2v-1.98h1.14v1.98h1.47v.99h-1.47v4.5a1.113,1.113,0,0,0,.188.675.622.622,0,0,0,.533.255.981.981,0,0,0,.765-.315l.33.855A1.871,1.871,0,0,1-22.657.18Zm8.3-.18h-1.125V-4.77a1.64,1.64,0,0,0-.42-1.282,1.791,1.791,0,0,0-1.215-.368,2.455,2.455,0,0,0-1.208.33,2.739,2.739,0,0,0-.923.8V0h-1.125V-10.005h1.125V-6.2a3.31,3.31,0,0,1,1.11-.87,3.192,3.192,0,0,1,1.47-.36,2.042,2.042,0,0,1,2.31,2.31Zm4.65,2.94a3.76,3.76,0,0,1-2.775-1.1l.57-.81a2.662,2.662,0,0,0,2.205.975,2.237,2.237,0,0,0,1.6-.555A2.027,2.027,0,0,0-7.522-.09V-1.17a3.735,3.735,0,0,1-1.133.855A3.165,3.165,0,0,1-10.1.03a2.042,2.042,0,0,1-2.31-2.31V-7.245h1.125v4.62a1.665,1.665,0,0,0,.42,1.29A1.767,1.767,0,0,0-9.652-.96a2.5,2.5,0,0,0,1.208-.322,2.745,2.745,0,0,0,.922-.773v-5.19H-6.4V-.09a2.751,2.751,0,0,1-.945,2.25A3.6,3.6,0,0,1-9.712,2.94ZM.578,0H-.547V-6.255h-1.2v-.99h1.2V-7.8A2.45,2.45,0,0,1,.03-9.533a1.979,1.979,0,0,1,1.523-.623,2.282,2.282,0,0,1,1.11.24l-.285.855a1.264,1.264,0,0,0-.645-.165Q.578-9.225.578-7.8v.555h1.47v.99H.578ZM9.472,0H8.347V-1.08A2.9,2.9,0,0,1,5.9.18,2.942,2.942,0,0,1,3.57-.848a4.074,4.074,0,0,1-.893-2.768,4.087,4.087,0,0,1,.9-2.767A2.929,2.929,0,0,1,5.9-7.425,2.913,2.913,0,0,1,8.347-6.15V-7.245H9.472ZM6.188-.825A2.548,2.548,0,0,0,7.44-1.163a2.425,2.425,0,0,0,.907-.817V-5.25a2.376,2.376,0,0,0-.907-.832A2.548,2.548,0,0,0,6.188-6.42a2.074,2.074,0,0,0-1.71.788,3.129,3.129,0,0,0-.63,2.017,3.1,3.1,0,0,0,.63,2.01A2.081,2.081,0,0,0,6.188-.825ZM13.733.18A3.867,3.867,0,0,1,10.808-.96l.57-.81a2.966,2.966,0,0,0,1.028.735,3.214,3.214,0,0,0,1.358.3A2.064,2.064,0,0,0,15.03-1.08a1.076,1.076,0,0,0,.458-.9.848.848,0,0,0-.465-.758,3.716,3.716,0,0,0-1.125-.42q-.66-.142-1.312-.33a2.582,2.582,0,0,1-1.118-.645A1.618,1.618,0,0,1,11-5.34a1.86,1.86,0,0,1,.72-1.485,2.976,2.976,0,0,1,1.965-.6,3.574,3.574,0,0,1,2.685,1.05l-.525.78a2.659,2.659,0,0,0-2.16-.915,1.922,1.922,0,0,0-1.17.322.979.979,0,0,0-.435.818.718.718,0,0,0,.33.6,2.145,2.145,0,0,0,.833.345q.5.105,1.08.27a10.907,10.907,0,0,1,1.08.368,1.876,1.876,0,0,1,.833.66,1.859,1.859,0,0,1,.33,1.118,1.954,1.954,0,0,1-.743,1.575A3.193,3.193,0,0,1,13.733.18Zm6.21,0q-1.62,0-1.62-1.7v-4.74h-1.2v-.99h1.2v-1.98h1.14v1.98h1.47v.99h-1.47v4.5a1.113,1.113,0,0,0,.188.675.622.622,0,0,0,.533.255.981.981,0,0,0,.765-.315l.33.855A1.871,1.871,0,0,1,19.943.18ZM27.233,0H26.108V-6.255h-1.2v-.99h1.2V-7.8a2.45,2.45,0,0,1,.577-1.732,1.979,1.979,0,0,1,1.523-.623,2.282,2.282,0,0,1,1.11.24l-.285.855a1.264,1.264,0,0,0-.645-.165q-1.155,0-1.155,1.425v.555H28.7v.99h-1.47ZM35.52-.915a3.327,3.327,0,0,1-2.6,1.1,3.327,3.327,0,0,1-2.6-1.1,3.916,3.916,0,0,1-.983-2.715,3.888,3.888,0,0,1,.983-2.707,3.338,3.338,0,0,1,2.6-1.088,3.338,3.338,0,0,1,2.6,1.088A3.888,3.888,0,0,1,36.5-3.63,3.916,3.916,0,0,1,35.52-.915Zm-4.358-.727a2.116,2.116,0,0,0,1.755.817,2.116,2.116,0,0,0,1.755-.817,3.11,3.11,0,0,0,.645-1.988,3.079,3.079,0,0,0-.645-1.98,2.123,2.123,0,0,0-1.755-.81,2.123,2.123,0,0,0-1.755.81,3.079,3.079,0,0,0-.645,1.98A3.11,3.11,0,0,0,31.163-1.643ZM43.8-.915A3.327,3.327,0,0,1,41.2.18a3.327,3.327,0,0,1-2.6-1.1,3.916,3.916,0,0,1-.982-2.715A3.888,3.888,0,0,1,38.6-6.338a3.338,3.338,0,0,1,2.6-1.088,3.338,3.338,0,0,1,2.6,1.088,3.888,3.888,0,0,1,.982,2.707A3.916,3.916,0,0,1,43.8-.915Zm-4.358-.727A2.116,2.116,0,0,0,41.2-.825a2.116,2.116,0,0,0,1.755-.817A3.11,3.11,0,0,0,43.6-3.63a3.079,3.079,0,0,0-.645-1.98A2.123,2.123,0,0,0,41.2-6.42a2.123,2.123,0,0,0-1.755.81A3.079,3.079,0,0,0,38.8-3.63,3.11,3.11,0,0,0,39.443-1.643ZM52.688,0H51.563V-1.08A2.9,2.9,0,0,1,49.118.18,2.942,2.942,0,0,1,46.785-.848a4.074,4.074,0,0,1-.892-2.768,4.087,4.087,0,0,1,.9-2.767,2.929,2.929,0,0,1,2.325-1.043A2.913,2.913,0,0,1,51.563-6.15v-3.855h1.125ZM49.4-.825a2.548,2.548,0,0,0,1.252-.337,2.425,2.425,0,0,0,.908-.817V-5.25a2.376,2.376,0,0,0-.908-.832A2.548,2.548,0,0,0,49.4-6.42a2.074,2.074,0,0,0-1.71.788,3.129,3.129,0,0,0-.63,2.017,3.1,3.1,0,0,0,.63,2.01A2.081,2.081,0,0,0,49.4-.825Z" transform="translate(494.969 5170.088)" fill="#888"/></g></svg>