<svg xmlns="http://www.w3.org/2000/svg" width="98" height="98" viewBox="0 0 98 98"><g transform="translate(-0.134 -0.308)"><rect width="98" height="98" transform="translate(0.134 0.308)" fill="#951e60"/><g transform="translate(11.949 32.874)"><path d="M83.725,182.328h-6.6V169.642l-5.937,7.336h-.527l-5.97-7.336v12.686h-6.4V160.47h5.966l6.736,8.178,6.753-8.178h5.979Z" transform="translate(-58.29 -160.448)" fill="#fff"/><path d="M326.947,171.507a7.211,7.211,0,0,0-1.017-4.139,4.978,4.978,0,0,0-2.442-1.994,8.743,8.743,0,0,0-2.9-.5h-2.811v12.892h2.811a8.035,8.035,0,0,0,4.473-1.224c1.258-.807,1.889-2.5,1.889-5.035m6.747.273a10.366,10.366,0,0,1-1.226,5.395,11.641,11.641,0,0,1-2.894,3.293,10.406,10.406,0,0,1-6.592,1.855h-11.8V160.471h9.091a24.568,24.568,0,0,1,3.51.21,14.9,14.9,0,0,1,2.636.612,10.037,10.037,0,0,1,1.985.857,12.294,12.294,0,0,1,1.471,1.041,9.766,9.766,0,0,1,1.97,2.165,10.308,10.308,0,0,1,1.349,2.87,11.9,11.9,0,0,1,.5,3.555" transform="translate(-259.338 -160.449)" fill="#fff"/><rect width="16.222" height="4.408" transform="translate(30.585)" fill="#fff"/><rect width="16.222" height="4.415" transform="translate(30.585 8.367)" fill="#fff"/><rect width="16.222" height="4.415" transform="translate(30.585 17.487)" fill="#fff"/><path d="M76.464,293.226v1.731a15.649,15.649,0,0,0-7.3-1.955,8.563,8.563,0,0,0-6.362,2.612,8.9,8.9,0,0,0-2.56,6.506,8.768,8.768,0,0,0,2.573,6.5,9,9,0,0,0,6.592,2.549,15.468,15.468,0,0,0,7.284-2.115v1.659a15.337,15.337,0,0,1-7.261,1.95,10.734,10.734,0,0,1-7.792-3.022,10.622,10.622,0,0,1,7.634-18.133,17.209,17.209,0,0,1,7.185,1.716" transform="translate(-58.475 -264.624)" fill="#fff"/><path d="M172.113,304.609l-4.43-9.662-4.417,9.662ZM168.17,292.35l9.462,20.691h-1.67l-3.258-7.1H162.649l-3.248,7.1h-1.67l9.519-20.691Z" transform="translate(-137.361 -265.292)" fill="#fff"/><path d="M274.215,294.262v8.074h3.417a6.443,6.443,0,0,0,3.979-1.052,3.907,3.907,0,0,0-.018-5.961,6.533,6.533,0,0,0-4.017-1.061h-3.362Zm-1.6-1.314h5.284a7.806,7.806,0,0,1,5.059,1.432,4.766,4.766,0,0,1,1.751,3.881,5.141,5.141,0,0,1-3.9,5.018,9.155,9.155,0,0,1,2.748,3.135l4.662,7.1h-1.84l-3.644-5.631a13.941,13.941,0,0,0-2.783-3.534,5.213,5.213,0,0,0-2.933-.7h-2.783v9.86h-1.6Z" transform="translate(-228.675 -265.769)" fill="#fff"/><path d="M374.9,292.94v1.314h-9.627v8.259h9.339v1.314h-9.339V312.2h9.851v1.319H363.67V292.94Z" transform="translate(-301.066 -265.761)" fill="#fff"/><path d="M83.725,182.328h-6.6V169.642l-5.937,7.336h-.527l-5.97-7.336v12.686h-6.4V160.47h5.966l6.736,8.178,6.753-8.178h5.979Z" transform="translate(-58.29 -160.448)" fill="#fff"/><path d="M326.947,171.507a7.211,7.211,0,0,0-1.017-4.139,4.978,4.978,0,0,0-2.442-1.994,8.743,8.743,0,0,0-2.9-.5h-2.811v12.892h2.811a8.035,8.035,0,0,0,4.473-1.224c1.258-.807,1.889-2.5,1.889-5.035m6.747.273a10.366,10.366,0,0,1-1.226,5.395,11.641,11.641,0,0,1-2.894,3.293,10.406,10.406,0,0,1-6.592,1.855h-11.8V160.471h9.091a24.568,24.568,0,0,1,3.51.21,14.9,14.9,0,0,1,2.636.612,10.037,10.037,0,0,1,1.985.857,12.294,12.294,0,0,1,1.471,1.041,9.766,9.766,0,0,1,1.97,2.165,10.308,10.308,0,0,1,1.349,2.87,11.9,11.9,0,0,1,.5,3.555" transform="translate(-259.338 -160.449)" fill="#fff"/><rect width="16.222" height="4.408" transform="translate(30.585)" fill="#fff"/><rect width="16.222" height="4.415" transform="translate(30.585 8.367)" fill="#fff"/><rect width="16.222" height="4.415" transform="translate(30.585 17.487)" fill="#fff"/><path d="M76.464,293.226v1.731a15.649,15.649,0,0,0-7.3-1.955,8.563,8.563,0,0,0-6.362,2.612,8.9,8.9,0,0,0-2.56,6.506,8.768,8.768,0,0,0,2.573,6.5,9,9,0,0,0,6.592,2.549,15.468,15.468,0,0,0,7.284-2.115v1.659a15.337,15.337,0,0,1-7.261,1.95,10.734,10.734,0,0,1-7.792-3.022,10.622,10.622,0,0,1,7.634-18.133,17.209,17.209,0,0,1,7.185,1.716" transform="translate(-58.475 -264.624)" fill="#fff"/><path d="M172.113,304.609l-4.43-9.662-4.417,9.662ZM168.17,292.35l9.462,20.691h-1.67l-3.258-7.1H162.649l-3.248,7.1h-1.67l9.519-20.691Z" transform="translate(-137.361 -265.292)" fill="#fff"/><path d="M274.215,294.262v8.074h3.417a6.443,6.443,0,0,0,3.979-1.052,3.907,3.907,0,0,0-.018-5.961,6.533,6.533,0,0,0-4.017-1.061h-3.362Zm-1.6-1.314h5.284a7.806,7.806,0,0,1,5.059,1.432,4.766,4.766,0,0,1,1.751,3.881,5.141,5.141,0,0,1-3.9,5.018,9.155,9.155,0,0,1,2.748,3.135l4.662,7.1h-1.84l-3.644-5.631a13.941,13.941,0,0,0-2.783-3.534,5.213,5.213,0,0,0-2.933-.7h-2.783v9.86h-1.6Z" transform="translate(-228.675 -265.769)" fill="#fff"/><path d="M374.9,292.94v1.314h-9.627v8.259h9.339v1.314h-9.339V312.2h9.851v1.319H363.67V292.94Z" transform="translate(-301.066 -265.761)" fill="#fff"/></g></g></svg>