<svg xmlns="http://www.w3.org/2000/svg" width="159.503" height="93.683" viewBox="0 0 159.503 93.683"><g transform="translate(0)"><g transform="translate(54.459 0)"><path d="M434.736,98.084a.342.342,0,0,0,.413-.007,2.1,2.1,0,0,1,.542-.317,2.423,2.423,0,0,1,.658-.149l.192-.021.082-.175a2.3,2.3,0,0,0,.229-.9,2,2,0,0,0-.151-.834l-.08-.2-.214-.017a2,2,0,0,0-.84.115,2.291,2.291,0,0,0-.781.495l-.142.133.041.189a2.5,2.5,0,0,1,.061.671,2.179,2.179,0,0,1-.135.614.341.341,0,0,0,.122.4m.662-1.622a1.5,1.5,0,0,1,.407-.231h0a1.266,1.266,0,0,1,.329-.072,1.274,1.274,0,0,1,.032.335,1.512,1.512,0,0,1-.094.459,2.986,2.986,0,0,0-.632.167l-.006,0v-.006a2.942,2.942,0,0,0-.036-.654" transform="translate(-396.006 -90.711)" fill="#b07c3a"/><path d="M420.261,125.119a7.671,7.671,0,0,0,.609,5.191,13.109,13.109,0,0,0,3.3,4.543,9.806,9.806,0,0,0,1.183.912,9.876,9.876,0,0,0-.421,1.433,13.107,13.107,0,0,0,0,5.618,7.674,7.674,0,0,0,2.558,4.557,3.586,3.586,0,0,0,1.883.729q.11.008.218.008a2.951,2.951,0,0,0,1.622-.484,2.5,2.5,0,0,0,1.115-1.769,2.071,2.071,0,0,0-1.782-2.326,1.724,1.724,0,0,0-1.938,1.485,1.442,1.442,0,0,0,.286,1.072c.191.25.76.677,1.206.532a.57.57,0,1,0-.619-.9c-.014-.016-.028-.032-.041-.049a.76.76,0,0,1-.151-.564,1.039,1.039,0,0,1,1.167-.893,1.384,1.384,0,0,1,1.19,1.554,1.8,1.8,0,0,1-.262.728,1.831,1.831,0,0,1-.546.554,2.243,2.243,0,0,1-1.417.366,2.942,2.942,0,0,1-1.52-.593,7.01,7.01,0,0,1-2.3-4.156,12.451,12.451,0,0,1-.277-2.234q.056.133.119.261a3.8,3.8,0,0,0,1.835,1.823,3.111,3.111,0,0,0,1.657.277,3.053,3.053,0,0,0,1.542-.645,2.913,2.913,0,0,0,1.1-1.931,2.418,2.418,0,0,0-1.118-2.353,2.231,2.231,0,0,0-1.554-.333,2.014,2.014,0,0,0-1.43,1.036,1.741,1.741,0,0,0,.2,2,1.679,1.679,0,0,0,.813.5,1.58,1.58,0,0,0,1.48-.455.98.98,0,0,0,.266-.987.668.668,0,1,0-1.045.733.761.761,0,0,1-.48.054.97.97,0,0,1-.522-.3,1.072,1.072,0,0,1-.056-1.305,1.322,1.322,0,0,1,.875-.594,1.536,1.536,0,0,1,1.022.2,1.721,1.721,0,0,1,.867,1.722,2.23,2.23,0,0,1-.842,1.476,2.369,2.369,0,0,1-1.2.5,2.422,2.422,0,0,1-1.29-.217,3.13,3.13,0,0,1-1.505-1.505,5.173,5.173,0,0,1-.47-2.545,5.839,5.839,0,0,1,.369-1.74,6.7,6.7,0,0,0,2.881.678,5.826,5.826,0,0,0,2.195-.387,3.324,3.324,0,0,0,1.531-1.14,2.218,2.218,0,0,0-1.076-3.313,3.32,3.32,0,0,0-1.909-.023,5.822,5.822,0,0,0-2,.977,6.708,6.708,0,0,0-1.933,2.242,5.863,5.863,0,0,1-1.321-1.191,5.173,5.173,0,0,1-1.116-2.335,3.133,3.133,0,0,1,.333-2.1,2.418,2.418,0,0,1,.915-.934,2.374,2.374,0,0,1,1.266-.3,2.23,2.23,0,0,1,1.549.7,1.722,1.722,0,0,1,.311,1.9,1.529,1.529,0,0,1-.712.758,1.316,1.316,0,0,1-1.056.034,1.073,1.073,0,0,1-.723-1.089.978.978,0,0,1,.245-.552.762.762,0,0,1,.421-.238.667.667,0,0,0,.848.82.668.668,0,0,0,.429-.842.981.981,0,0,0-.8-.642,1.582,1.582,0,0,0-1.465.5,1.678,1.678,0,0,0-.365.88,1.739,1.739,0,0,0,1.016,1.74,2.015,2.015,0,0,0,1.766,0,2.231,2.231,0,0,0,1.062-1.183,2.418,2.418,0,0,0-.479-2.561,2.916,2.916,0,0,0-2.026-.915,3.041,3.041,0,0,0-1.627.384,3.112,3.112,0,0,0-1.177,1.2,3.8,3.8,0,0,0-.413,2.553c.016.094.035.187.057.281a12.452,12.452,0,0,1-1.089-1.97,7.012,7.012,0,0,1-.582-4.714,2.939,2.939,0,0,1,.881-1.372,2.243,2.243,0,0,1,1.361-.537,1.835,1.835,0,0,1,.767.127,1.808,1.808,0,0,1,.641.435,1.386,1.386,0,0,1-.049,1.957,1.04,1.04,0,0,1-1.469-.037.757.757,0,0,1-.209-.544c0-.021,0-.043,0-.064a.57.57,0,1,0-.029-1.093c-.446.146-.655.825-.663,1.139a1.442,1.442,0,0,0,.4,1.036,1.725,1.725,0,0,0,2.44.061,2.069,2.069,0,0,0,.073-2.928,2.474,2.474,0,0,0-.884-.6,2.517,2.517,0,0,0-1.056-.176,2.95,2.95,0,0,0-1.769.7,3.576,3.576,0,0,0-1.1,1.7m8.588,10.974a6.021,6.021,0,0,1-2.6-.617,6.026,6.026,0,0,1,1.744-2.03,5.149,5.149,0,0,1,1.764-.863,2.652,2.652,0,0,1,1.512.005,1.531,1.531,0,0,1,.738,2.273,2.653,2.653,0,0,1-1.22.892,5.122,5.122,0,0,1-1.933.339" transform="translate(-382.884 -115.282)" fill="#b07c3a"/><path d="M120.922,170.761a.345.345,0,0,0,.2.608,3.714,3.714,0,0,1,1.751.57,4.453,4.453,0,0,1,1.351,1.361,16.088,16.088,0,0,0,10.848,7.906,4.481,4.481,0,0,1,1.764.878,3.7,3.7,0,0,1,1.083,1.489.345.345,0,0,0,.639,0,3.7,3.7,0,0,1,1.084-1.489,4.466,4.466,0,0,1,1.754-.876,16.082,16.082,0,0,0,10.843-7.884,4.471,4.471,0,0,1,1.367-1.384,3.7,3.7,0,0,1,1.751-.571.344.344,0,0,0,.2-.608,3.7,3.7,0,0,1-1.081-1.49,4.471,4.471,0,0,1-.293-1.905,16.257,16.257,0,0,0,.112-1.9A16,16,0,0,0,150,154.55a4.466,4.466,0,0,1-.866-1.693,3.705,3.705,0,0,1,0-1.841.344.344,0,0,0-.518-.375,3.714,3.714,0,0,1-1.751.567,4.429,4.429,0,0,1-1.819-.28,16.091,16.091,0,0,0-13.622,0,4.434,4.434,0,0,1-1.818.279,3.709,3.709,0,0,1-1.751-.567.344.344,0,0,0-.518.375,3.71,3.71,0,0,1,0,1.841,4.469,4.469,0,0,1-.859,1.683,16.07,16.07,0,0,0-4.183,12.827,4.471,4.471,0,0,1-.292,1.905,3.71,3.71,0,0,1-1.081,1.49m1.756-1.329a16.009,16.009,0,0,0,.643,1.98l-.085-.055a4.424,4.424,0,0,0-1.362-.57,4.431,4.431,0,0,0,.767-1.262l.036-.093m.195-3.965a15.262,15.262,0,0,1,4.5-10.864,15.469,15.469,0,0,1,10.864-4.5,15.364,15.364,0,1,1-15.363,15.363M139.2,181.556h0a4.433,4.433,0,0,0-.964,1.12,4.44,4.44,0,0,0-.963-1.12l-.087-.071a16.066,16.066,0,0,0,2.1,0l-.087.071m14.632-12.03a4.425,4.425,0,0,0,.767,1.262,4.421,4.421,0,0,0-1.363.571l-.086.055a16,16,0,0,0,.644-1.984c.012.032.024.064.037.1m-6.92-17.633a4.425,4.425,0,0,0,1.438-.34,4.423,4.423,0,0,0,.121,1.472q.012.048.025.1a16.151,16.151,0,0,0-1.68-1.223l.1-.005Zm-18.788-.34a4.435,4.435,0,0,0,1.438.34l.095.005a16.157,16.157,0,0,0-1.678,1.222l.025-.094h0a4.44,4.44,0,0,0,.121-1.472" transform="translate(-113.134 -139.344)" fill="#b07c3a"/><path d="M320.358,380.245a3.569,3.569,0,0,0-1.952-.518,7.673,7.673,0,0,0-4.748,2.184,13.1,13.1,0,0,0-3.3,4.546,9.837,9.837,0,0,0-.5,1.407,10.009,10.009,0,0,0-1.493.042,13.12,13.12,0,0,0-5.343,1.734,7.675,7.675,0,0,0-3.544,3.842,3.582,3.582,0,0,0-.111,2.016,2.953,2.953,0,0,0,1.021,1.6,2.518,2.518,0,0,0,.958.479,2.486,2.486,0,0,0,1.068.034,2.07,2.07,0,0,0,1.662-2.413,1.725,1.725,0,0,0-2.01-1.384,1.44,1.44,0,0,0-.932.6,1.334,1.334,0,0,0-.133,1.311.57.57,0,1,0,.665-.867q.016-.027.034-.054a.759.759,0,0,1,.489-.318,1.04,1.04,0,0,1,1.21.834,1.386,1.386,0,0,1-1.11,1.612,1.8,1.8,0,0,1-.775-.025,1.835,1.835,0,0,1-.7-.348,2.243,2.243,0,0,1-.786-1.234,2.938,2.938,0,0,1,.094-1.628,7.007,7.007,0,0,1,3.241-3.472,12.446,12.446,0,0,1,2.038-.954q-.109.094-.21.194a3.805,3.805,0,0,0-1.168,2.309,3.111,3.111,0,0,0,.249,1.661,3.053,3.053,0,0,0,1.09,1.267,2.918,2.918,0,0,0,2.177.451,2.417,2.417,0,0,0,1.894-1.79,2.237,2.237,0,0,0-.164-1.581,2.014,2.014,0,0,0-1.427-1.04,1.741,1.741,0,0,0-1.845.81,1.685,1.685,0,0,0-.221.927,1.581,1.581,0,0,0,.89,1.267.98.98,0,0,0,1.02-.052.668.668,0,1,0-1.02-.767.76.76,0,0,1-.2-.44.972.972,0,0,1,.126-.59,1.073,1.073,0,0,1,1.225-.457,1.32,1.32,0,0,1,.835.648,1.536,1.536,0,0,1,.13,1.033,1.721,1.721,0,0,1-1.37,1.357,2.232,2.232,0,0,1-1.664-.345,2.372,2.372,0,0,1-.85-.984,2.42,2.42,0,0,1-.191-1.293,3.129,3.129,0,0,1,.966-1.9,5.181,5.181,0,0,1,2.275-1.234,5.867,5.867,0,0,1,1.769-.186,6.709,6.709,0,0,0,.246,2.949,5.815,5.815,0,0,0,1.047,1.968,3.324,3.324,0,0,0,1.558,1.1,2.217,2.217,0,0,0,2.818-2.047,3.325,3.325,0,0,0-.568-1.823,5.826,5.826,0,0,0-1.548-1.6,6.72,6.72,0,0,0-2.73-1.145,5.855,5.855,0,0,1,.724-1.624,5.175,5.175,0,0,1,1.876-1.783,3.13,3.13,0,0,1,2.1-.333,2.427,2.427,0,0,1,1.171.582,2.377,2.377,0,0,1,.673,1.113,2.233,2.233,0,0,1-.186,1.69,1.722,1.722,0,0,1-1.714.884,1.529,1.529,0,0,1-.941-.442,1.316,1.316,0,0,1-.358-.994,1.072,1.072,0,0,1,.813-1.023.971.971,0,0,1,.6.063.761.761,0,0,1,.356.326.668.668,0,1,0,.414,1.207.979.979,0,0,0,.365-.954,1.581,1.581,0,0,0-.93-1.238,1.679,1.679,0,0,0-.95-.076,1.74,1.74,0,0,0-1.341,1.5,2.015,2.015,0,0,0,.548,1.679,2.239,2.239,0,0,0,1.453.645,2.419,2.419,0,0,0,2.288-1.248,2.915,2.915,0,0,0,.244-2.209,3.04,3.04,0,0,0-.868-1.428,3.115,3.115,0,0,0-1.5-.751,3.806,3.806,0,0,0-2.556.4q-.126.066-.25.14a12.48,12.48,0,0,1,1.537-1.644,7.012,7.012,0,0,1,4.3-2.01,2.925,2.925,0,0,1,1.577.414,2.247,2.247,0,0,1,.932,1.129,1.836,1.836,0,0,1,.116.769,1.805,1.805,0,0,1-.215.744,1.385,1.385,0,0,1-1.877.558,1.04,1.04,0,0,1-.419-1.408.756.756,0,0,1,.453-.367l.062-.016a.57.57,0,1,0,1.03-.365,1.328,1.328,0,0,0-1.288-.278,1.438,1.438,0,0,0-.861.7,1.726,1.726,0,0,0,.7,2.34,2.071,2.071,0,0,0,2.808-.836,2.484,2.484,0,0,0,.3-1.026,2.524,2.524,0,0,0-.159-1.06,2.953,2.953,0,0,0-1.21-1.467m-6.285,13.422a1.431,1.431,0,0,1-1.3.239,2.646,2.646,0,0,1-1.226-.885,5.128,5.128,0,0,1-.92-1.734,6.019,6.019,0,0,1-.217-2.668,6.029,6.029,0,0,1,2.469,1.031,5.141,5.141,0,0,1,1.365,1.411,2.65,2.65,0,0,1,.462,1.439,1.43,1.43,0,0,1-.629,1.166" transform="translate(-274.018 -346.959)" fill="#b07c3a"/><path d="M165.35,56.645h0a7.68,7.68,0,0,0,5.125,1.025,13.11,13.11,0,0,0,5.342-1.738,9.884,9.884,0,0,0,1.233-.843,9.92,9.92,0,0,0,1.233.843,13.111,13.111,0,0,0,5.342,1.738q.563.055,1.1.055a7,7,0,0,0,4.026-1.08,3.582,3.582,0,0,0,1.275-1.566,2.956,2.956,0,0,0,.116-1.9,2.521,2.521,0,0,0-.494-.951,2.491,2.491,0,0,0-.844-.655,2.071,2.071,0,0,0-2.763.975,1.725,1.725,0,0,0,.812,2.3,1.44,1.44,0,0,0,1.108.06c.3-.105.879-.514.879-.983a.57.57,0,1,0-1.048.31l-.06.024a.757.757,0,0,1-.583-.031,1.04,1.04,0,0,1-.489-1.385,1.385,1.385,0,0,1,1.847-.652,1.806,1.806,0,0,1,.612.475,1.838,1.838,0,0,1,.358.69,2.241,2.241,0,0,1-.09,1.461,2.929,2.929,0,0,1-1.033,1.262,7,7,0,0,1-4.663.9,12.443,12.443,0,0,1-2.211-.426q.144-.012.285-.033a3.852,3.852,0,0,0,2.3-1.181,3.11,3.11,0,0,0,.775-1.49,3.052,3.052,0,0,0-.137-1.666,2.921,2.921,0,0,0-1.5-1.644,2.42,2.42,0,0,0-2.584.336,2.237,2.237,0,0,0-.8,1.375,2.013,2.013,0,0,0,.543,1.68,1.741,1.741,0,0,0,1.969.428,1.682,1.682,0,0,0,.724-.62,1.582,1.582,0,0,0,.024-1.549.98.98,0,0,0-.856-.557.668.668,0,1,0,.374,1.221.761.761,0,0,1-.1.473.971.971,0,0,1-.449.4,1.073,1.073,0,0,1-1.259-.35,1.321,1.321,0,0,1-.294-1.016,1.527,1.527,0,0,1,.5-.911,1.721,1.721,0,0,1,1.906-.293,2.23,2.23,0,0,1,1.144,1.258,2.371,2.371,0,0,1,.11,1.3,2.427,2.427,0,0,1-.605,1.159,3.13,3.13,0,0,1-1.9.967,5.17,5.17,0,0,1-2.566-.339,5.87,5.87,0,0,1-1.541-.889,6.715,6.715,0,0,0,1.535-2.531,5.837,5.837,0,0,0,.31-2.207,3.324,3.324,0,0,0-.612-1.809,2.218,2.218,0,0,0-3.483,0,3.329,3.329,0,0,0-.612,1.809,5.826,5.826,0,0,0,.31,2.207,6.709,6.709,0,0,0,1.535,2.531,5.865,5.865,0,0,1-1.541.889,5.166,5.166,0,0,1-2.566.339,3.129,3.129,0,0,1-1.9-.967,2.422,2.422,0,0,1-.605-1.159,2.37,2.37,0,0,1,.11-1.3,2.232,2.232,0,0,1,1.144-1.258,1.721,1.721,0,0,1,1.906.293,1.528,1.528,0,0,1,.5.911,1.319,1.319,0,0,1-.294,1.016,1.072,1.072,0,0,1-1.259.35.974.974,0,0,1-.449-.4.763.763,0,0,1-.1-.473.668.668,0,1,0,.375-1.221.98.98,0,0,0-.856.557,1.582,1.582,0,0,0,.024,1.549,1.682,1.682,0,0,0,.724.62,1.741,1.741,0,0,0,1.969-.428,2.014,2.014,0,0,0,.543-1.68,2.238,2.238,0,0,0-.8-1.375,2.419,2.419,0,0,0-2.584-.335,2.917,2.917,0,0,0-1.5,1.644,3.05,3.05,0,0,0-.137,1.666,3.11,3.11,0,0,0,.775,1.49,3.853,3.853,0,0,0,2.3,1.181q.141.021.285.033a12.446,12.446,0,0,1-2.211.426,7.007,7.007,0,0,1-4.664-.9,2.931,2.931,0,0,1-1.032-1.262,2.243,2.243,0,0,1-.09-1.461,1.842,1.842,0,0,1,.358-.69,1.8,1.8,0,0,1,.612-.475,1.384,1.384,0,0,1,1.846.652,1.039,1.039,0,0,1-.489,1.385.758.758,0,0,1-.583.031l-.059-.024a.57.57,0,1,0-1.048-.31c0,.468.582.877.879.983a1.44,1.44,0,0,0,1.108-.06,1.726,1.726,0,0,0,.813-2.3,2.071,2.071,0,0,0-2.763-.975,2.486,2.486,0,0,0-.844.656,2.521,2.521,0,0,0-.494.951,2.954,2.954,0,0,0,.117,1.9,3.578,3.578,0,0,0,1.274,1.566m10.5-8.156a1.532,1.532,0,0,1,2.39,0,2.65,2.65,0,0,1,.472,1.436,5.138,5.138,0,0,1-.276,1.944,6.019,6.019,0,0,1-1.391,2.286,6.027,6.027,0,0,1-1.392-2.286,5.137,5.137,0,0,1-.275-1.944,2.651,2.651,0,0,1,.471-1.436" transform="translate(-151.949 -47.226)" fill="#b07c3a"/><path d="M90.671,395.5a3.579,3.579,0,0,0-.11-2.016,7.677,7.677,0,0,0-3.544-3.842,13.117,13.117,0,0,0-5.343-1.734,9.8,9.8,0,0,0-1.493-.043,9.88,9.88,0,0,0-.5-1.406,13.1,13.1,0,0,0-3.3-4.546,7.675,7.675,0,0,0-4.749-2.184,3.573,3.573,0,0,0-1.952.518,2.953,2.953,0,0,0-1.209,1.467,2.515,2.515,0,0,0-.159,1.059,2.482,2.482,0,0,0,.3,1.027,2.071,2.071,0,0,0,2.808.835,1.725,1.725,0,0,0,.7-2.339,1.436,1.436,0,0,0-.861-.7,1.33,1.33,0,0,0-1.288.278.57.57,0,1,0,1.03.365l.062.016a.758.758,0,0,1,.454.367,1.04,1.04,0,0,1-.419,1.408,1.385,1.385,0,0,1-1.877-.558,1.8,1.8,0,0,1-.216-.744,1.831,1.831,0,0,1,.116-.769,2.246,2.246,0,0,1,.931-1.129,2.92,2.92,0,0,1,1.578-.414,7.006,7.006,0,0,1,4.3,2.01,12.45,12.45,0,0,1,1.538,1.644q-.124-.075-.25-.14a3.8,3.8,0,0,0-2.556-.4,3.112,3.112,0,0,0-1.5.75,3.054,3.054,0,0,0-.868,1.428,2.919,2.919,0,0,0,.244,2.21,2.418,2.418,0,0,0,2.287,1.247,2.232,2.232,0,0,0,1.453-.645,2.013,2.013,0,0,0,.548-1.678,1.739,1.739,0,0,0-1.34-1.5,1.672,1.672,0,0,0-.95.076,1.582,1.582,0,0,0-.93,1.239.98.98,0,0,0,.365.954.668.668,0,1,0,.415-1.207.763.763,0,0,1,.357-.326.972.972,0,0,1,.6-.062,1.072,1.072,0,0,1,.813,1.023,1.319,1.319,0,0,1-.359.995,1.528,1.528,0,0,1-.941.442,1.72,1.72,0,0,1-1.714-.884,2.231,2.231,0,0,1-.186-1.69,2.373,2.373,0,0,1,.673-1.113,2.421,2.421,0,0,1,1.171-.582,3.132,3.132,0,0,1,2.1.332,5.177,5.177,0,0,1,1.876,1.783,5.841,5.841,0,0,1,.724,1.624,6.713,6.713,0,0,0-2.729,1.145,5.82,5.82,0,0,0-1.548,1.6,3.321,3.321,0,0,0-.568,1.823,2.217,2.217,0,0,0,2.818,2.047,3.327,3.327,0,0,0,1.557-1.1,5.82,5.82,0,0,0,1.047-1.968,6.711,6.711,0,0,0,.246-2.95,5.866,5.866,0,0,1,1.769.186,5.183,5.183,0,0,1,2.275,1.234,3.132,3.132,0,0,1,.967,1.9,2.424,2.424,0,0,1-.192,1.294,2.375,2.375,0,0,1-.851.984,2.239,2.239,0,0,1-1.664.345,1.722,1.722,0,0,1-1.37-1.358,1.528,1.528,0,0,1,.13-1.032,1.317,1.317,0,0,1,.834-.648,1.073,1.073,0,0,1,1.225.458.969.969,0,0,1,.126.59.76.76,0,0,1-.2.44.668.668,0,1,0-1.021.767.981.981,0,0,0,1.02.052,1.582,1.582,0,0,0,.891-1.267,1.682,1.682,0,0,0-.222-.927,1.741,1.741,0,0,0-1.844-.81,2.015,2.015,0,0,0-1.427,1.04,2.238,2.238,0,0,0-.164,1.581,2.418,2.418,0,0,0,1.893,1.79,2.914,2.914,0,0,0,2.176-.451,3.044,3.044,0,0,0,1.09-1.267,3.106,3.106,0,0,0,.249-1.661,3.806,3.806,0,0,0-1.167-2.309q-.1-.1-.211-.194a12.384,12.384,0,0,1,2.038.954,7.006,7.006,0,0,1,3.242,3.472A2.936,2.936,0,0,1,90,395.338a2.243,2.243,0,0,1-.786,1.234,1.84,1.84,0,0,1-.695.348,1.808,1.808,0,0,1-.775.025,1.384,1.384,0,0,1-1.111-1.612,1.04,1.04,0,0,1,1.21-.834.76.76,0,0,1,.49.318q.018.026.034.054a.57.57,0,1,0,.665.867,1.334,1.334,0,0,0-.133-1.311,1.442,1.442,0,0,0-.931-.6,1.726,1.726,0,0,0-2.01,1.385,2.07,2.07,0,0,0,1.662,2.412,2.518,2.518,0,0,0,.458.042,2.486,2.486,0,0,0,.61-.076,2.528,2.528,0,0,0,.958-.479,2.953,2.953,0,0,0,1.021-1.6m-12.177-2.477a2.648,2.648,0,0,1-1.226.885,1.531,1.531,0,0,1-1.934-1.405,2.653,2.653,0,0,1,.463-1.439,5.135,5.135,0,0,1,1.365-1.41,6.021,6.021,0,0,1,2.469-1.031,6.022,6.022,0,0,1-.218,2.667h0a5.129,5.129,0,0,1-.92,1.734" transform="translate(-65.814 -346.965)" fill="#b07c3a"/><path d="M524.335,379.777h0a2.006,2.006,0,0,0-.369-.764,2.3,2.3,0,0,0-.712-.59l-.17-.093-.168.1a2.444,2.444,0,0,1-.62.266,2.142,2.142,0,0,1-.627.062.344.344,0,0,0-.2.629,2.152,2.152,0,0,1,.47.419,2.465,2.465,0,0,1,.344.578l.079.178.193.024a2.646,2.646,0,0,0,.328.021,2.173,2.173,0,0,0,.594-.08,2.014,2.014,0,0,0,.748-.4l.162-.138Zm-.739-.05a1.288,1.288,0,0,1-.308.135,1.511,1.511,0,0,1-.465.052,3,3,0,0,0-.355-.55l0-.005.006,0a2.984,2.984,0,0,0,.61-.236,1.506,1.506,0,0,1,.345.316,1.282,1.282,0,0,1,.17.29" transform="translate(-474.183 -345.7)" fill="#b07c3a"/><path d="M287.615,548.423h0a2.1,2.1,0,0,1-.252-.575l-.037-.129h-.032a.345.345,0,0,0-.593.129,2.128,2.128,0,0,1-.252.576,2.406,2.406,0,0,1-.445.507l-.144.131.037.19a2.3,2.3,0,0,0,.341.859,2.008,2.008,0,0,0,.613.587l.181.112.182-.112a2.011,2.011,0,0,0,.612-.586,2.3,2.3,0,0,0,.341-.861l.035-.19-.144-.13a2.406,2.406,0,0,1-.443-.506m-.361,1.3a.225.225,0,1,1-.446,0,1.5,1.5,0,0,1-.194-.426,2.949,2.949,0,0,0,.413-.508l0-.006,0,.005a2.934,2.934,0,0,0,.413.508,1.5,1.5,0,0,1-.194.426Z" transform="translate(-261.931 -498.287)" fill="#b07c3a"/><path d="M45.957,379.373a.344.344,0,0,0-.2-.629,2.141,2.141,0,0,1-.625-.062,2.5,2.5,0,0,1-.619-.265l-.168-.1-.17.094a2.3,2.3,0,0,0-.711.59,2.007,2.007,0,0,0-.368.764l-.051.207.163.138a2,2,0,0,0,.747.4,2.164,2.164,0,0,0,.594.08,2.639,2.639,0,0,0,.33-.021l.191-.026.078-.176a2.484,2.484,0,0,1,.345-.579,2.179,2.179,0,0,1,.469-.417m-.995-.025,0,.006a2.94,2.94,0,0,0-.355.55,1.525,1.525,0,0,1-.466-.053,1.255,1.255,0,0,1-.308-.134,1.276,1.276,0,0,1,.17-.29,1.507,1.507,0,0,1,.346-.316,2.942,2.942,0,0,0,.61.235l.007,0" transform="translate(-43.039 -345.69)" fill="#b07c3a"/><path d="M138.29,97.584l.192.021a2.422,2.422,0,0,1,.657.149,2.123,2.123,0,0,1,.542.317l.049.038h.012a.341.341,0,0,0,.151.036.345.345,0,0,0,.324-.463,2.127,2.127,0,0,1-.134-.613,2.48,2.48,0,0,1,.061-.671l.041-.19-.142-.133a2.3,2.3,0,0,0-.781-.494,2.012,2.012,0,0,0-.84-.115l-.213.015-.081.2a2,2,0,0,0-.151.834,2.3,2.3,0,0,0,.23.9Zm1.107-.474v.007l-.006,0a2.989,2.989,0,0,0-.632-.167,1.516,1.516,0,0,1-.094-.459,1.277,1.277,0,0,1,.033-.335,1.271,1.271,0,0,1,.329.073,1.492,1.492,0,0,1,.407.231,2.948,2.948,0,0,0-.036.653" transform="translate(-128.62 -90.707)" fill="#b07c3a"/><path d="M46.32,136.4a5.822,5.822,0,0,0,2.2.388,6.72,6.72,0,0,0,2.881-.678,5.844,5.844,0,0,1,.369,1.74,5.168,5.168,0,0,1-.47,2.545A3.134,3.134,0,0,1,49.79,141.9a2.431,2.431,0,0,1-1.29.217,2.371,2.371,0,0,1-1.2-.505,2.234,2.234,0,0,1-.842-1.476,1.722,1.722,0,0,1,.867-1.723,1.53,1.53,0,0,1,1.022-.195,1.317,1.317,0,0,1,.875.593,1.073,1.073,0,0,1-.056,1.306.973.973,0,0,1-.522.3.76.76,0,0,1-.48-.054.668.668,0,1,0-1.045-.734.98.98,0,0,0,.266.987,1.582,1.582,0,0,0,1.48.456,1.682,1.682,0,0,0,.813-.5,1.741,1.741,0,0,0,.2-2,2.012,2.012,0,0,0-1.43-1.035,2.239,2.239,0,0,0-1.554.332,2.418,2.418,0,0,0-1.117,2.354,2.916,2.916,0,0,0,1.1,1.931,3.048,3.048,0,0,0,1.542.645,3.111,3.111,0,0,0,1.657-.276,3.8,3.8,0,0,0,1.835-1.824q.063-.127.119-.26a12.446,12.446,0,0,1-.278,2.233,7.008,7.008,0,0,1-2.3,4.156,2.931,2.931,0,0,1-1.519.592,2.245,2.245,0,0,1-1.417-.366,1.834,1.834,0,0,1-.546-.553,1.8,1.8,0,0,1-.263-.73,1.385,1.385,0,0,1,1.19-1.554,1.04,1.04,0,0,1,1.167.893.758.758,0,0,1-.151.564c-.013.017-.027.033-.041.049a.57.57,0,1,0-.619.9c.446.146,1.015-.282,1.207-.532a1.441,1.441,0,0,0,.285-1.072,1.725,1.725,0,0,0-1.938-1.484,2.071,2.071,0,0,0-1.781,2.326,2.483,2.483,0,0,0,.363,1,2.521,2.521,0,0,0,.751.763,2.946,2.946,0,0,0,1.623.484q.109,0,.219-.008a3.581,3.581,0,0,0,1.883-.728,7.677,7.677,0,0,0,2.558-4.558,13.1,13.1,0,0,0,0-5.617A9.865,9.865,0,0,0,52,135.773a9.864,9.864,0,0,0,1.182-.912,13.107,13.107,0,0,0,3.3-4.544,7.675,7.675,0,0,0,.609-5.191,3.583,3.583,0,0,0-1.1-1.7,2.956,2.956,0,0,0-1.77-.7,2.53,2.53,0,0,0-1.056.176,2.48,2.48,0,0,0-.884.6,2.071,2.071,0,0,0,.074,2.929,1.726,1.726,0,0,0,2.441-.062,1.439,1.439,0,0,0,.4-1.035c-.008-.315-.217-.995-.663-1.139a.57.57,0,1,0-.029,1.093q0,.032,0,.064a.758.758,0,0,1-.209.544,1.04,1.04,0,0,1-1.469.037,1.385,1.385,0,0,1-.049-1.958,1.8,1.8,0,0,1,.641-.435,1.831,1.831,0,0,1,.766-.127,2.245,2.245,0,0,1,1.362.536,2.937,2.937,0,0,1,.881,1.372,7.01,7.01,0,0,1-.582,4.715,12.434,12.434,0,0,1-1.089,1.971q.033-.141.057-.281a3.8,3.8,0,0,0-.412-2.554,3.108,3.108,0,0,0-1.178-1.2,3.048,3.048,0,0,0-1.627-.384,2.917,2.917,0,0,0-2.026.915,2.419,2.419,0,0,0-.479,2.561,2.239,2.239,0,0,0,1.062,1.183,2.016,2.016,0,0,0,1.766,0,1.742,1.742,0,0,0,1.015-1.74,1.683,1.683,0,0,0-.366-.88,1.584,1.584,0,0,0-1.465-.5.98.98,0,0,0-.795.642.668.668,0,1,0,1.277.021.759.759,0,0,1,.42.239.966.966,0,0,1,.245.551,1.073,1.073,0,0,1-.722,1.09,1.319,1.319,0,0,1-1.057-.034,1.533,1.533,0,0,1-.712-.759,1.72,1.72,0,0,1,.311-1.9,2.23,2.23,0,0,1,1.55-.7,2.376,2.376,0,0,1,1.266.3,2.424,2.424,0,0,1,.915.934,3.127,3.127,0,0,1,.333,2.1,5.179,5.179,0,0,1-1.115,2.336,5.853,5.853,0,0,1-1.321,1.19,6.717,6.717,0,0,0-1.933-2.242,5.826,5.826,0,0,0-2-.977,3.329,3.329,0,0,0-1.909.023,2.218,2.218,0,0,0-1.077,3.313,3.325,3.325,0,0,0,1.531,1.14m1.286-3.809a5.129,5.129,0,0,1,1.763.862,6.02,6.02,0,0,1,1.744,2.03,6.02,6.02,0,0,1-2.6.617,5.131,5.131,0,0,1-1.934-.339,2.648,2.648,0,0,1-1.22-.893,1.43,1.43,0,0,1-.176-1.314h0a1.431,1.431,0,0,1,.915-.959,2.129,2.129,0,0,1,.707-.112,3.3,3.3,0,0,1,.8.107" transform="translate(-44.272 -115.289)" fill="#b07c3a"/><path d="M198.68,236.1v-.333a1.3,1.3,0,0,0,.58-.168c.6-.46.51-1.091.511-1.893,0-4.53.01-13.867.01-13.867l2.125-.046a.8.8,0,0,1,.811.8c0,1.735-.012,5.824-.012,8.036,0,.846.053,1.692.031,2.536a4.783,4.783,0,0,1-2.267,4.452,39.541,39.541,0,0,0,4.71-.052,1.36,1.36,0,0,0,.979-.767,9.919,9.919,0,0,0,.715-1.806c.189-.5.355-1,.578-1.485a3.788,3.788,0,0,1,4.694-2.257c0,.037.012.1,0,.106a2.629,2.629,0,0,0-1.433,1.766c-.246.748-.5,1.493-.78,2.229-.811,2.144-1.9,2.751-4.186,2.752-1.832,0-7.065,0-7.065,0" transform="translate(-183.342 -202.785)" fill="#575756"/><path d="M243.133,219.751a.021.021,0,0,1,0-.043,8,8,0,0,1,3.239.681,4.94,4.94,0,0,1,2.941,5.584,4.243,4.243,0,0,1-2.119,2.9,6.6,6.6,0,0,1-3.479.86.049.049,0,0,1-.009-.1,2.912,2.912,0,0,0,2.1-2.932,18.83,18.83,0,0,0-.008-3.431,3.737,3.737,0,0,0-2.672-3.521" transform="translate(-223.399 -202.711)" fill="#575756"/><path d="M308.908,225.989l-1.254,3.895a6.957,6.957,0,0,0-.847.219c.527-1.128,2.266-7.051,2.94-8.592a.119.119,0,0,1,.217-.007c2,5.458,4.068,10.791,5.952,14.9a1.441,1.441,0,0,0,1.259.794l.033.4-3.086-.033a1.129,1.129,0,0,1-.98-.55c-.831-1.686-4.233-11.023-4.233-11.023" transform="translate(-280.813 -204.268)" fill="#575756"/></g><g transform="translate(0 63.871)"><path d="M627.731,190.981h-.054c-4.586.025-8.3,2.064-8.3,5.194a3.094,3.094,0,0,0,3.054,3.125,2.72,2.72,0,0,0,2.6-1.611l.064-.137-.137-.064c-1.206-.562-1.953-1.125-1.953-2.189,0-2.135,1.229-3.228,3.654-3.251a6.921,6.921,0,0,1,4.36,1.356,5.065,5.065,0,0,1,1.414,3.7,4.6,4.6,0,0,1-4.828,5.009l-3.205,0,.117-2.8-.237.161a4.081,4.081,0,0,1-2.62.511l.036,5.523c0,3.008-.479,2.919-.886,2.919h-.152v.529h4.652v-.529h-.152c-.52,0-.758,0-.758-3.011l-.04-2.386h3.668a7.776,7.776,0,0,0,5.2-1.847,5.563,5.563,0,0,0,1.968-4.083,5.637,5.637,0,0,0-1.748-3.919,7.984,7.984,0,0,0-5.715-2.2" transform="translate(-619.378 -190.962)" fill="#575756"/><path d="M807.8,231.319c-.136,2.033-1.1,3.2-2.658,3.2-.627,0-1.4-.187-2.69-2.416a5.025,5.025,0,0,0-2.022-2.2c3.916-.439,6.241-2.159,6.241-4.637,0-2.864-2.413-4.788-6.006-4.788a7.27,7.27,0,0,0-6.554,4.142v-1.327a3.978,3.978,0,0,0-.937-2.9l-.043-.04h-2.785l.057.566h.133c.709,0,1.02.315,1.02,3.333v7.541c0,2.967-.187,3.1-.835,3.1h-.147v.526l4.124,0V234.9l-.138-.008c-.452-.026-.466-.362-.452-1.782,0-.223,0-.469,0-.74v-4.351a6.255,6.255,0,0,1,6-6.466c2.447,0,3.74,1.283,3.74,3.711,0,2.4-1.923,3.769-5.277,3.769h-3.106v.416l1.485.253c1.249.213,1.973,1.466,2.739,2.793.974,1.688,2.079,3.6,4.553,3.6,2.572,0,3.988-1.694,3.988-4.769v-.147h-.429Z" transform="translate(-773.498 -217.438)" fill="#575756"/><path d="M992.712,221.639c-4.368,0-7.3,1.939-7.3,4.824a3.088,3.088,0,0,0,3.092,3.076,2.635,2.635,0,0,0,2.626-1.825l.062-.133-.133-.062a3.308,3.308,0,0,1-2.094-3.009c0-1.16,1.485-1.939,3.7-1.939a5.736,5.736,0,0,1,4.6,1.857,8,8,0,0,1,1.569,5.306c0,3.87-2.106,5.915-6.089,5.915-3.745,0-5.9-2.019-6.224-5.839l-.006-.073-.062-.039a3.807,3.807,0,0,1-1.79-3.235c0-.164.008-.328.023-.489l.075-.786-.352.707a7.3,7.3,0,0,0-.744,3.287c0,4.512,3.614,7.543,8.994,7.543s8.994-3.031,8.994-7.543-3.591-7.543-8.936-7.543" transform="translate(-947.762 -218.598)" fill="#575756"/><path d="M1424.029,224.985l-.133.062.062.133a3.1,3.1,0,0,0,2.539,1.789,2.548,2.548,0,0,0,2.541-2.55c0-2.6-3.085-4.345-7.677-4.345-5.293,0-8.848,3.1-8.848,7.717,0,4.408,3.766,7.369,9.371,7.369a7.2,7.2,0,0,0,6.866-4.386l.052-.134-.965-.4-.056.136a6.362,6.362,0,0,1-5.81,3.709c-4.306,0-6.583-2.336-6.583-6.756,0-4.041,2.016-6.176,5.829-6.176,2.277,0,3.808.9,3.808,2.234a1.548,1.548,0,0,1-1,1.6" transform="translate(-1334.352 -217.188)" fill="#575756"/><path d="M1595.6,224.516a3.627,3.627,0,0,0,3.757,3.471,2.827,2.827,0,0,0,3.045-2.53v-.147h-.147c-1.481,0-2.476-.8-2.476-1.984,0-1.8,1.414-2.175,2.6-2.175.456,0,.9-.014,1.328-.027a19.114,19.114,0,0,1,2.2.014v10.309c0,3.1-.741,3.1-1.02,3.1h-.147v.526h4.889v-.53l-.151,0a.6.6,0,0,1-.476-.163c-.363-.352-.539-1.314-.539-2.939v-10.3h2.638c2.815,0,3.8.041,4.107.848l.19.625h.589v-2.655h-14.268c-3.945,0-6.117,1.615-6.117,4.548" transform="translate(-1499.396 -217.092)" fill="#575756"/><path d="M1907.668,196.915a2.578,2.578,0,0,0-2.67,2.467,2.41,2.41,0,0,0,.925,1.855l.11.088.092-.106a2.269,2.269,0,0,1,1.688-.994,1.53,1.53,0,0,1,1.593,1.565,4.874,4.874,0,0,1-.577,2l-4.594,8.253a5.266,5.266,0,0,0-.235-.57l-5.076-10.21-.006-.012c-.419-.845-.975-1.84-1.561-2.035l-.023-.007h-4.144v.421l1.028.133c.794.1,1.46.738,2.094,2.009l6.138,12.6.7,1.82,6.615-11.932a8.091,8.091,0,0,0,1.064-3.827,3.31,3.31,0,0,0-3.164-3.511" transform="translate(-1767.659 -196.311)" fill="#575756"/><path d="M1237.263,296.382a13.987,13.987,0,0,0-.906,2.141c-.094.26-.19.529-.291.79l-.018.046c-.364.947-.708,1.842-1.941,2.219l-.535.164.546.12a7.455,7.455,0,0,0,1.6.186,4.27,4.27,0,0,0,4.087-2.548,17.64,17.64,0,0,0,.753-1.909c.12-.344.245-.7.379-1.043.333-.856.648-1.665,1.814-1.985l.584-.16-.592-.125c-2.583-.546-4.374.142-5.476,2.1" transform="translate(-1173.046 -283.916)" fill="#575756"/><path d="M2100.185,231.77l-.438.055-.18.7c-.41,1.015-2.022,1.53-4.792,1.53h-6.389a4.635,4.635,0,0,0,.474-2.551v-3.242l.5-.287a4.958,4.958,0,0,1,2.4-.749c.776,0,1.868.412,1.868,1.327a2.436,2.436,0,0,1-.853,1.546l-.1.1.105.1a2.553,2.553,0,0,0,1.763.773,2.318,2.318,0,0,0,2.323-2.308c0-1.866-1.451-3.119-3.611-3.119a8.927,8.927,0,0,0-4.319,1.354l-.079.046v-3.236h0a5.5,5.5,0,0,0-.48-2.707h6.4c2.77,0,4.382.515,4.792,1.529l.18.7.438.055v-2.324a4.52,4.52,0,0,0,0-.556c-.016-.222-.218-.486-1.088-.486h-13.959v.526h.146c.648,0,1.02,1.259,1.02,3.453v7.493c0,3.1-.715,3.1-1.02,3.1h-.146v.526H2099.1c.871,0,1.073-.265,1.088-.487a4.517,4.517,0,0,0,0-.555Z" transform="translate(-1940.69 -217.154)" fill="#575756"/><path d="M1825.15,220.124h.147c.493,0,1.02.266,1.02,3.449V231.1c0,2.886-.4,3.1-1.02,3.1h-.147v.526h4.889v-.526h-.147c-.616,0-1.02-.216-1.02-3.1v-7.532c0-3.183.527-3.449,1.02-3.449h.147v-.535h-4.889Z" transform="translate(-1706.324 -216.75)" fill="#575756"/><path d="M1304.969,208.252c-.783,0-1.212-.968-1.219-.984-1.19-2.435-2.34-5.176-3.452-7.827-1.2-2.869-2.449-5.837-3.783-8.522a.244.244,0,0,0-.442.018c-.65,1.645-2.861,6.968-3.426,8.3l-.131.308.315-.113a2.113,2.113,0,0,1,.768-.144l.108.008,1.462-3.669c.858,1.861,2.109,4.863,3.22,7.528.924,2.217,1.723,4.132,2.111,4.951a1.325,1.325,0,0,0,1.126.7h.03l3.49-.03v-.525l-.151,0h-.027" transform="translate(-1226.18 -190.786)" fill="#575756"/><path d="M1096.252,436.345a1.348,1.348,0,0,0,.385-.943,1.306,1.306,0,0,0-1.4-1.357h-1.984v5.474h1.984a1.669,1.669,0,0,0,1.785-1.741,1.738,1.738,0,0,0-.768-1.433m-1.017,2.452h-1.24v-2.038h1.24a1.019,1.019,0,1,1,0,2.038m0-2.76h-1.24v-1.271h1.24a.635.635,0,0,1,0,1.271" transform="translate(-1046.553 -410.072)" fill="#575756"/><path d="M1155.4,437.05l-1.47-3.005h-.811l1.872,3.829-.8,1.645h.81l2.683-5.474h-.811Z" transform="translate(-1100.521 -410.072)" fill="#575756"/><path d="M1271.927,434.045H1270.1v5.474h.744v-1.992h1.086a1.741,1.741,0,1,0,0-3.481m0,2.76h-1.086v-2.038h1.086a1.019,1.019,0,0,1,0,2.038" transform="translate(-1205.971 -410.072)" fill="#575756"/><path d="M1334.868,440.032a1.381,1.381,0,0,1-2.761,0v-3.467h-.744v3.467a2.124,2.124,0,1,0,4.249,0v-3.467h-.744Z" transform="translate(-1261.199 -412.344)" fill="#575756"/><path d="M1402.661,435.786a1.669,1.669,0,0,0-1.785-1.741h-1.829v5.474h.743v-1.992h.829l1.572,1.992h.977l-1.644-2.089a1.645,1.645,0,0,0,1.137-1.643m-2.87-1.019h1.086a1.019,1.019,0,1,1,0,2.038h-1.086Z" transform="translate(-1322.213 -410.072)" fill="#575756"/><path d="M1466.88,439.519h3.259V438.8h-2.516v-2.038h2.369v-.721h-2.369v-1.271h2.516v-.721h-3.259Z" transform="translate(-1383.36 -410.072)" fill="#575756"/><path d="M1571.943,434.045h-.743v5.474h3.172V438.8h-2.428Z" transform="translate(-1477.4 -410.072)" fill="#575756"/><rect width="0.744" height="5.474" transform="translate(99.79 23.973)" fill="#575756"/><path d="M1673.958,438.363l-3.144-4.318h-.8v5.474h.744V435.2l3.144,4.318h.8v-5.474h-.743Z" transform="translate(-1566.473 -410.072)" fill="#575756"/><path d="M1746.31,434.766v-.721h-3.26v5.474h3.26V438.8h-2.517v-2.038h2.369v-.721h-2.369v-1.271Z" transform="translate(-1632.315 -410.072)" fill="#575756"/></g></g></svg>