<svg xmlns="http://www.w3.org/2000/svg" xmlns:xlink="http://www.w3.org/1999/xlink" width="260" height="130" viewBox="0 0 260 130"><defs><clipPath id="b"><rect width="260" height="130"/></clipPath></defs><g id="a" clip-path="url(#b)"><rect width="260" height="130" fill="rgba(255,255,255,0)"/><g transform="translate(25.584 34.81)"><g transform="translate(14.17 14.18)"><path d="M202.15,15.4c3.124,0,6.117-.24,9.055.055,4.384.441,11.08,3.3,11.08,12.53s-7,12.057-11.269,12.423c-2.883.248-5.8.047-8.866.047C202.15,35.093,202.15,20.885,202.15,15.4Zm3.5,21.428c1.8,0,3.482.122,5.144-.032,2.21-.2,7.8-2.47,7.8-8.354,0-7.511-4.987-8.9-7.188-9.268a35.416,35.416,0,0,0-5.751-.063Z" transform="translate(-128.107 -14.863)" fill="#5a3788"/><path d="M91.165,34.61v6.255H87.62V16.29c4.061,0,8.1-.555,11.927.122,6.456,1.146,9.008,8.807,5.144,14.3-.351.5-.76.961-1.253,1.579,7.854,4.049,15.637,7.744,24.583,3.32.386.709.689,1.237.961,1.776.181.355.319.733.567,1.3-4.92,2.281-9.891,3.616-15.137,2.04a69.693,69.693,0,0,1-9.9-3.935A23.929,23.929,0,0,0,91.165,34.61Zm.091-14.865V30.766c2.32,0,4.51.13,6.676-.032a5.511,5.511,0,0,0,4.79-5.55A5.342,5.342,0,0,0,98.275,19.8C95.994,19.563,93.67,19.745,91.256,19.745Z" transform="translate(-58.689 -15.329)" fill="#f18e21"/><path d="M352.889,39.759H349.36V14.18c5.42,5.7,10.584,11.119,16.173,16.988V14.739h3.356V40.3c-5.377-5.64-10.5-11.017-16-16.788Z" transform="translate(-217.332 -14.18)" fill="#5a3788"/><path d="M275.629,15.76H261.41V40.744h14.176V37.176H264.841V31.921h8.465V27.955h-8.477V19.329h10.659S275.629,15.858,275.629,15.76Z" transform="translate(-164.025 -15.138)" fill="#5a3788"/><path d="M319.789,15.76H305.57V40.744h14.176V37.176H309V31.921h8.465V27.955h-8.476V19.329h10.659S319.789,15.858,319.789,15.76Z" transform="translate(-190.791 -15.138)" fill="#5a3788"/><path d="M27.416,15.23,14.17,40.518h4.3l1.721-3.439S21.894,34.2,32.73,34.2l3.1,6.326h4.321Zm-4.455,16,4.388-8.083,3.336,6.881S25.715,30.024,22.962,31.226Z" transform="translate(-14.17 -14.816)" fill="#5a3788"/><path d="M419.693,15.23,406.45,40.514h4.3l1.721-3.439s1.7-2.883,12.537-2.883l3.1,6.326h4.321Zm-4.451,16,4.388-8.083,3.336,6.881S417.991,30.024,415.242,31.226Z" transform="translate(-251.935 -14.816)" fill="#5a3788"/><path d="M154.039,15.23,145.57,31.4c.831.335,1.666.638,2.505.9l.941-1.883s1.182-2,8.721-2l2.127,4.345a20.05,20.05,0,0,0,2.541-.922Zm-3.1,11.127,3.049-5.621,2.32,4.786A16.963,16.963,0,0,0,150.943,26.357Z" transform="translate(-93.813 -14.816)" fill="#5a3788"/></g><g transform="translate(74.061 48.326)"><path d="M167.331,102.017v1.824h2.9v.945h-2.9v2.3H166.22v-6h4.38v.937Z" transform="translate(-166.22 -100.997)" fill="#f18e21"/><path d="M195.636,106.644a2.875,2.875,0,0,1-1.158-1.107,3.2,3.2,0,0,1,0-3.159,2.937,2.937,0,0,1,1.158-1.111,3.481,3.481,0,0,1,1.654-.4,3.436,3.436,0,0,1,1.654.4,2.955,2.955,0,0,1,1.158,1.107,3.009,3.009,0,0,1,.418,1.583,3.067,3.067,0,0,1-.418,1.583,2.908,2.908,0,0,1-1.158,1.1,3.623,3.623,0,0,1-3.309,0Zm2.734-.851a1.972,1.972,0,0,0,.752-.752,2.281,2.281,0,0,0,0-2.174,1.972,1.972,0,0,0-.752-.752,2.279,2.279,0,0,0-2.159,0,1.982,1.982,0,0,0-.756.752,2.281,2.281,0,0,0,0,2.174,1.982,1.982,0,0,0,.756.752,2.279,2.279,0,0,0,2.159,0Z" transform="translate(-183.094 -100.87)" fill="#f18e21"/><path d="M229.206,106.644a2.875,2.875,0,0,1-1.158-1.107,3.2,3.2,0,0,1,0-3.159,2.937,2.937,0,0,1,1.158-1.111,3.481,3.481,0,0,1,1.654-.4,3.436,3.436,0,0,1,1.654.4,2.954,2.954,0,0,1,1.158,1.107,3.009,3.009,0,0,1,.418,1.583,3.067,3.067,0,0,1-.418,1.583,2.908,2.908,0,0,1-1.158,1.1,3.623,3.623,0,0,1-3.309,0Zm2.734-.851a1.972,1.972,0,0,0,.752-.752,2.281,2.281,0,0,0,0-2.174,1.972,1.972,0,0,0-.752-.752,2.279,2.279,0,0,0-2.159,0,1.982,1.982,0,0,0-.756.752,2.281,2.281,0,0,0,0,2.174,1.982,1.982,0,0,0,.756.752,2.279,2.279,0,0,0,2.159,0Z" transform="translate(-203.441 -100.87)" fill="#f18e21"/><path d="M262.29,101.09h2.623a3.772,3.772,0,0,1,1.706.374,2.8,2.8,0,0,1,1.158,1.052,3.227,3.227,0,0,1,0,3.147,2.734,2.734,0,0,1-1.158,1.056,3.772,3.772,0,0,1-1.706.374H262.29Zm2.572,5.058a2.548,2.548,0,0,0,1.162-.252,1.814,1.814,0,0,0,.772-.717,2.13,2.13,0,0,0,.268-1.087A2.16,2.16,0,0,0,266.8,103a1.791,1.791,0,0,0-.772-.717,2.537,2.537,0,0,0-1.162-.256H263.4v4.116Z" transform="translate(-224.449 -101.003)" fill="#f18e21"/><path d="M295.254,106.851a2.775,2.775,0,0,1-1.024-.524l.386-.867a3.032,3.032,0,0,0,.906.481,3.32,3.32,0,0,0,1.075.185,1.841,1.841,0,0,0,1-.217.646.646,0,0,0,.331-.563.536.536,0,0,0-.185-.425,1.324,1.324,0,0,0-.465-.26c-.189-.063-.445-.13-.772-.213a9.111,9.111,0,0,1-1.111-.323,1.85,1.85,0,0,1-.729-.508,1.393,1.393,0,0,1-.3-.941,1.618,1.618,0,0,1,.268-.906,1.845,1.845,0,0,1,.815-.646,3.267,3.267,0,0,1,1.331-.244,4.5,4.5,0,0,1,1.079.134,2.915,2.915,0,0,1,.918.4l-.35.863a3.675,3.675,0,0,0-.823-.351,2.992,2.992,0,0,0-.831-.122,1.751,1.751,0,0,0-.981.225.691.691,0,0,0-.323.591.535.535,0,0,0,.185.421,1.366,1.366,0,0,0,.469.256c.189.063.445.134.772.213a8.344,8.344,0,0,1,1.1.323,1.836,1.836,0,0,1,.733.508,1.358,1.358,0,0,1,.3.926,1.615,1.615,0,0,1-.268.9,1.823,1.823,0,0,1-.819.638,3.307,3.307,0,0,1-1.339.244A4.356,4.356,0,0,1,295.254,106.851Z" transform="translate(-243.808 -100.876)" fill="#f18e21"/></g></g></g></svg>