<svg xmlns="http://www.w3.org/2000/svg" xmlns:xlink="http://www.w3.org/1999/xlink" width="260" height="130" viewBox="0 0 260 130"><defs><clipPath id="b"><rect width="260" height="130"/></clipPath></defs><g id="a" clip-path="url(#b)"><rect width="260" height="130" fill="rgba(255,255,255,0)"/><g transform="translate(201.1 -167.9)"><g transform="translate(-131.1 191.9)"><g transform="translate(0 71.222)"><path d="M-74.677,344.378h-.489l-2.219-9.547H-78.45l-2.219,9.547h-.489l-1.906-9.678H-84l2.131,10.477H-80l2.086-9.19,2.042,9.19h1.909l2.135-10.477h-.936Z" transform="translate(84 -334.3)" fill="#595757" stroke="#595757" stroke-width="0.2"/><path d="M-51.292,341c-1.821,0-3.108,1.021-3.108,3.951,0,2.527.666,3.862,2.93,3.907a28.751,28.751,0,0,0,2.886-.222l-.044-.754s-1.643.133-2.753.133c-1.6,0-2.086-.936-2.086-2.708h5.105l.044-.71c0-2.527-1.021-3.6-2.975-3.6m-2.175,3.551c0-2,.8-2.753,2.175-2.753,1.421,0,2.086.71,2.086,2.753Z" transform="translate(67.541 -337.803)" fill="#595757" stroke="#595757" stroke-width="0.2"/><path d="M-37.6,337.3h.754l.842-3.2h-.936Z" transform="translate(58.199 -333.967)" fill="#595757" stroke="#595757" stroke-width="0.2"/><rect width="0.888" height="10.877" transform="translate(24.106 0)" fill="#595757" stroke="#595757" stroke-width="0.2"/><rect width="0.888" height="10.877" transform="translate(27.437 0)" fill="#595757" stroke="#595757" stroke-width="0.2"/><path d="M-2,334.7H-9.5v.842h3.285v9.634h.936v-9.634h3.285Z" transform="translate(42.574 -334.3)" fill="#595757" stroke="#595757" stroke-width="0.2"/><path d="M8.088,341.289H7.2v7.547h.888V343.2a10.2,10.2,0,0,1,2.841-1.11V341.2a7.4,7.4,0,0,0-2.841,1.243Z" transform="translate(33.289 -337.915)" fill="#595757" stroke="#595757" stroke-width="0.2"/><path d="M20.708,341c-1.821,0-3.108,1.021-3.108,3.951,0,2.527.666,3.862,2.93,3.907a28.751,28.751,0,0,0,2.886-.222l-.044-.754s-1.643.133-2.753.133c-1.6,0-2.086-.936-2.086-2.708h5.105l.044-.71c-.044-2.531-1.064-3.6-2.974-3.6m-2.219,3.551c0-2,.8-2.753,2.175-2.753,1.421,0,2.086.71,2.086,2.753Z" transform="translate(27.505 -337.803)" fill="#595757" stroke="#595757" stroke-width="0.2"/><path d="M39.927,347.437V343.4c0-1.6-.71-2.4-2.353-2.4a19.075,19.075,0,0,0-2.93.311l.044.71s1.778-.222,2.841-.222c.976,0,1.465.444,1.465,1.6v.71l-2.575.267c-1.51.133-2.219.8-2.219,2.219,0,1.51.754,2.264,2.086,2.264a8.172,8.172,0,0,0,2.841-.622,2.153,2.153,0,0,0,1.685.622l.044-.71c-.444-.089-.888-.267-.936-.71m-.888.133a8.482,8.482,0,0,1-2.575.533c-.842,0-1.243-.578-1.243-1.51,0-.888.355-1.376,1.376-1.465l2.442-.267Z" transform="translate(18.275 -337.803)" fill="#595757" stroke="#595757" stroke-width="0.2"/><path d="M54,345.279c-1.065,0-1.2-.489-1.2-2.353V339.2h2.527v-.8H52.8V336h-.888v2.353H50.8v.8h1.11v4.173c0,2.175.533,2.708,2.042,2.708.533,0,1.51-.133,1.51-.133l-.044-.754c-.044,0-1.021.133-1.421.133" transform="translate(9.045 -335.023)" fill="#595757" stroke="#595757" stroke-width="0.2"/><path d="M76.115,334.7l-2.8,5.105-2.8-5.105H69.5l3.37,6.084v4.4h.936v-4.4l3.37-6.084Z" transform="translate(-1.354 -334.3)" fill="#595757" stroke="#595757" stroke-width="0.2"/><path d="M89.752,341c-2.353,0-3.152,1.154-3.152,3.818,0,2.841.622,4.04,3.152,4.04s3.153-1.2,3.153-4.04c0-2.664-.8-3.818-3.153-3.818m0,7.059c-1.953,0-2.219-.936-2.219-3.241,0-2.264.489-3.019,2.219-3.019s2.219.754,2.219,3.019c.044,2.308-.267,3.241-2.219,3.241" transform="translate(-10.862 -337.803)" fill="#595757" stroke="#595757" stroke-width="0.2"/><path d="M109.939,347.56a4.787,4.787,0,0,1-2.219.622c-1.51,0-1.732-.71-1.732-2.975V341.3H105.1v3.951c0,2.8.444,3.773,2.527,3.773a5.137,5.137,0,0,0,2.308-.71v.578h.888v-7.547h-.888Z" transform="translate(-21.149 -337.971)" fill="#595757" stroke="#595757" stroke-width="0.2"/><path d="M138.423,344.378h-.489l-2.175-9.547h-1.11l-2.219,9.547h-.489l-1.9-9.678H129.1l2.175,10.477h1.865l2.042-9.19,2.086,9.19h1.865l2.135-10.477h-.936Z" transform="translate(-34.494 -334.3)" fill="#595757" stroke="#595757" stroke-width="0.2"/><path d="M161.808,341c-1.821,0-3.108,1.021-3.108,3.951,0,2.527.666,3.862,2.93,3.907a28.751,28.751,0,0,0,2.886-.222l-.044-.754s-1.643.133-2.753.133c-1.6,0-2.086-.936-2.086-2.708h5.105l.044-.71c0-2.527-1.021-3.6-2.975-3.6m-2.175,3.551c0-2,.8-2.753,2.175-2.753,1.421,0,2.086.71,2.086,2.753Z" transform="translate(-50.953 -337.803)" fill="#595757" stroke="#595757" stroke-width="0.2"/><rect width="0.888" height="10.877" transform="translate(115.782 0)" fill="#595757" stroke="#595757" stroke-width="0.2"/><rect width="0.888" height="10.877" transform="translate(119.112 0)" fill="#595757" stroke="#595757" stroke-width="0.2"/></g><g transform="translate(0 0)"><path d="M-16.888,244.921v-5.473h2.4a10.025,10.025,0,0,0,6.719,2.219c3.071,0,4.68-.821,4.68-2.493,0-1.611-.973-2.371-4.834-2.828-5.991-.7-9.181-2.889-9.181-8.087,0-5.351,4.134-8.361,10.823-8.361a18.3,18.3,0,0,1,8.6,1.824v5.351H.047a10.824,10.824,0,0,0-6.263-1.763c-2.979,0-4.1.851-4.1,2.372,0,1.368,1.338,2.068,5.108,2.527C1.294,231.031,4,233.1,4,238.448c0,5.23-3.5,8.6-11.4,8.6a18.123,18.123,0,0,1-9.486-2.129" transform="translate(51.759 -211.386)" fill="#00418d"/><path d="M55.2,204.784h3.223V197.7h7.6v7.084h5.534v4.955h-5.5v13.62c0,2.527,1.03,3.223,3.527,3.223h2.089v4.469a15.308,15.308,0,0,1-4.8.7c-5.26,0-8.452-2.037-8.452-7.54V209.739H55.2Z" transform="translate(1.44 -195.937)" fill="#00418d"/><path d="M119.814,235.093c.365,5.32,2.979,6.78,7.207,6.78a12.33,12.33,0,0,0,7.235-2.219h2.34v4.867a20.405,20.405,0,0,1-10.732,2.584c-8.969,0-13.863-5.169-13.863-13.5,0-8.543,5.746-13.8,13.317-13.8,8.026,0,12.313,4.287,12.313,13.043,0,.912-.122,2.037-.122,2.28H119.819Zm.094-4.439h10.216c-.152-4.713-1.824-6.233-4.8-6.233-2.645,0-4.834,1.277-5.412,6.233" transform="translate(-38.092 -211.318)" fill="#00418d"/><path d="M216,227.831V247.02h-7.6V220.443h5.169c1.31,0,2.068.548,2.34,3.192a10.541,10.541,0,0,1,7.6-3.435,6.006,6.006,0,0,1,1.672.243v5.8h-1.31A17.889,17.889,0,0,0,216,227.828" transform="translate(-105.183 -211.596)" fill="#00418d"/><path d="M-115.686,199.835h.094l4.378,13.043h-8.756ZM-119,191.9l-12.1,33.351v2.068h6.506l2.919-9h12.282l3.01,9h7.875v-2.068L-110.639,191.9H-119Z" transform="translate(131.1 -191.9)" fill="#00418d"/></g><path d="M347.005,141.869c-8.121,0-8.22-6.856-8.3-8.745.174-6.51,3.074-9.36,10.091-9.2,1.652,0,3.241-.066,4.867.072,0,0,.555,2.793-.728,3.723s-3.322.54-4.867.54c-4.37,0-4.952.429-4.952,4.861.08,4.227,2.09,4.9,6.77,4.9,1.411,0,2.23-.355,3.132.386s.664,3.456.664,3.456c-.8.021-1.569.028-2.317.028C349.867,141.9,348.451,141.869,347.005,141.869Zm61.328-.34a4.184,4.184,0,0,1-1.7-1.527c-1.243-1.844-2.687-3.991-3.708-5.544-1.817-2.763-2.646-3.884-2.646-3.884v11.295h-3.209a1.825,1.825,0,0,1-1.2-.34,2.076,2.076,0,0,1-.429-1.221l.039-16.131a10.38,10.38,0,0,1,5.062.219c2.4.833,2.886,3.127,4.891,6.021s2.112,3.024,3.287,4.745a20.2,20.2,0,0,1,0-2.4c.025-1.005,0-1.852,0-3.285a20.987,20.987,0,0,1,0-2.451c.088-1.192.146-1.918.749-2.451,1.5-1.325,4.062-.4,4.062-.4v17.691h-3.227s-.117.008-.3.008a3.45,3.45,0,0,1-1.673-.345Zm-45.1-.308c-.885-.725-.8-2.771-.8-2.771V124.178s3.182-.3,4.168.462.632,2.576.7,6.078,0,7.3,0,7.3,1.534.062,4.032,0c1.249.046,1.613.015,2.187.4,1.251.811.729,3.456.729,3.456h-8.654a4.086,4.086,0,0,1-2.358-.654Zm20.749.648a3.472,3.472,0,0,1-1.581-.524,1.639,1.639,0,0,1-.719-1.2V124.178s3.089-.305,4.274.644c.547.439.493,1.456.487,2.067v14.98Zm60-.051c-8.121,0-8.22-6.856-8.3-8.746.174-6.509,3.073-9.36,10.091-9.195,1.652,0,3.241-.066,4.867.072,0,0,.555,2.793-.727,3.723s-3.322.539-4.867.539c-4.37,0-4.952.43-4.952,4.86.08,4.227,2.089,4.9,6.769,4.9,1.411,0,2.23-.355,3.132.386s.664,3.456.664,3.456c-.8.021-1.569.027-2.317.027-1.492,0-2.908-.026-4.353-.026Zm-19.16-.007a3.473,3.473,0,0,1-1.581-.524,1.641,1.641,0,0,1-.719-1.206V124.119s3.089-.306,4.274.643c.547.44.493,1.456.487,2.068v14.982Z" transform="translate(-335.894 -77.914)" fill="#0eb48d"/></g></g></g></svg>