<svg xmlns="http://www.w3.org/2000/svg" xmlns:xlink="http://www.w3.org/1999/xlink" width="260" height="130" viewBox="0 0 260 130"><defs><clipPath id="a"><rect width="2.709" height="7.859"/></clipPath><clipPath id="b"><rect width="3.552" height="7.859"/></clipPath><clipPath id="c"><rect width="3.152" height="8.57"/></clipPath><linearGradient id="e" x1="0.458" y1="0.909" x2="0.58" y2="0.212" gradientUnits="objectBoundingBox"><stop offset="0" stop-color="#f6b11c"/><stop offset="1" stop-color="#6b2a07"/></linearGradient><linearGradient id="f" x1="0.423" y1="1.628" x2="0.533" y2="-0.116" xlink:href="#e"/><linearGradient id="g" x1="0.466" y1="0.697" x2="0.577" y2="-0.481" xlink:href="#e"/><linearGradient id="h" x1="0.433" y1="0.78" x2="0.69" y2="0.113" xlink:href="#e"/><linearGradient id="i" x1="0.419" y1="1.576" x2="0.521" y2="0.237" xlink:href="#e"/><linearGradient id="j" x1="0.43" y1="1.016" x2="0.511" y2="0.27" xlink:href="#e"/><linearGradient id="k" x1="0.465" y1="0.722" x2="0.571" y2="0.05" xlink:href="#e"/><clipPath id="m"><rect width="260" height="130"/></clipPath></defs><g id="l" clip-path="url(#m)"><rect width="260" height="130" fill="rgba(255,255,255,0)"/><g transform="translate(49.145 21.725)"><g transform="translate(18.779 77.636)"><path d="M81,147.559l2.753-7.459.666,1.865-.133.31-.045.133-1.82,5.106H81Z" transform="translate(-53.959 -139.212)"/><path d="M87.6,139.9h1.2l2.886,7.5H90.307L88.4,141.987Zm-.8,6.351.488-1.332h3.019v1.332Z" transform="translate(-57.184 -139.101)"/><path d="M113.1,147.559l2.753-7.459.666,1.865-.133.31-.045.133-1.82,5.106H113.1Z" transform="translate(-71.806 -139.212)"/><path d="M119.655,139.9h1.2l2.886,7.5h-1.377l-1.909-5.417Zm-.755,6.351.488-1.332h3.019v1.332Z" transform="translate(-75.03 -139.101)"/><path d="M158.8,147.559l2.753-7.459.666,1.865-.133.31-.045.133-1.82,5.106H158.8Z" transform="translate(-97.214 -139.212)"/><path d="M165.355,139.9h1.2l2.886,7.5h-1.377l-1.909-5.417Zm-.755,6.351.488-1.332h3.019v1.332Z" transform="translate(-100.439 -139.101)"/><path d="M271.8,147.559l2.753-7.459.666,1.865-.133.31-.045.133-1.82,5.106H271.8Z" transform="translate(-160.04 -139.212)"/><path d="M278.355,139.9h1.2l2.886,7.5h-1.377l-1.909-5.417Zm-.755,6.351.488-1.332h3.019v1.332Z" transform="translate(-163.265 -139.101)"/><path d="M241.1,140h1.687l5.772,7.5h-1.735Z" transform="translate(-142.971 -139.156)"/><path d="M239.4,147.6v-7.5l1.377,1.687V147.6Z" transform="translate(-142.026 -139.212)"/><path d="M256.1,139.9v5.417l1.377,1.776V139.9Z" transform="translate(-151.311 -139.101)"/><g transform="translate(34.057 0.666)"><g transform="translate(4.262 0.045)"><g clip-path="url(#a)"><path d="M102.242,147.381a4.573,4.573,0,0,1-1.554-.268,5.02,5.02,0,0,1-1.287-.666l.666-1.155a3.713,3.713,0,0,0,1.022.537,3.478,3.478,0,0,0,1.155.179,2.378,2.378,0,0,0,1.065-.222.783.783,0,0,0,.4-.666h0a.553.553,0,0,0-.179-.488,1.058,1.058,0,0,0-.488-.268l-.666-.133c-.31-.045-.577-.133-.888-.179a4.733,4.733,0,0,1-.844-.31,1.669,1.669,0,0,1-.622-.622,2.446,2.446,0,0,1-.222-1.11h0a2,2,0,0,1,.71-1.687,3.116,3.116,0,0,1,2.042-.622,4.327,4.327,0,0,1,1.243.222,4.02,4.02,0,0,1,1.155.577l-.622,1.2a3.325,3.325,0,0,0-1.82-.622,2.178,2.178,0,0,0-1.022.222.709.709,0,0,0-.358.622h0a.665.665,0,0,0,.222.537,1.5,1.5,0,0,0,.537.268c.222.045.488.133.755.179a4.687,4.687,0,0,1,.844.222,3.154,3.154,0,0,1,.8.358,1.568,1.568,0,0,1,.577.622,2.315,2.315,0,0,1,.222,1.022h0a2.094,2.094,0,0,1-.755,1.687,3.083,3.083,0,0,1-2.087.569Z" transform="translate(-102.509 -139.699)"/></g></g><g clip-path="url(#b)"><path d="M100.842,147.481a4.573,4.573,0,0,1-1.554-.268A5.02,5.02,0,0,1,98,146.549l.666-1.155a3.711,3.711,0,0,0,1.022.537,3.478,3.478,0,0,0,1.155.179,2.378,2.378,0,0,0,1.065-.222.783.783,0,0,0,.4-.666h0a.553.553,0,0,0-.179-.488,1.058,1.058,0,0,0-.488-.268l-.666-.133c-.31-.045-.577-.133-.888-.179a4.734,4.734,0,0,1-.844-.31,1.669,1.669,0,0,1-.622-.622,2.447,2.447,0,0,1-.222-1.11h0a2,2,0,0,1,.71-1.687,3.116,3.116,0,0,1,2.042-.622,4.327,4.327,0,0,1,1.243.222,4.025,4.025,0,0,1,1.155.577l-.622,1.2a3.325,3.325,0,0,0-1.82-.622,2.177,2.177,0,0,0-1.022.222.709.709,0,0,0-.358.622h0a.666.666,0,0,0,.222.537,1.5,1.5,0,0,0,.537.268c.222.045.488.133.755.179a4.683,4.683,0,0,1,.844.222,3.155,3.155,0,0,1,.8.358,1.568,1.568,0,0,1,.577.622,2.315,2.315,0,0,1,.222,1.022h0a2.094,2.094,0,0,1-.755,1.687,3.532,3.532,0,0,1-2.086.566Z" transform="translate(-97.467 -139.711)"/></g></g><g transform="translate(59.144)"><g clip-path="url(#c)"><path d="M149.908,147.581a2.98,2.98,0,0,1-1.465-.31,2.21,2.21,0,0,1-.932-.977,3.163,3.163,0,0,1-.31-1.51V142.7a3.163,3.163,0,0,1,.31-1.51,2.468,2.468,0,0,1,.932-.977,2.98,2.98,0,0,1,1.465-.31,2.516,2.516,0,0,1,1.287.31,2.943,2.943,0,0,1,.932.888,4.115,4.115,0,0,1,.488,1.421h-1.465a1.326,1.326,0,0,0-.268-.622,1.7,1.7,0,0,0-.4-.4,1.182,1.182,0,0,0-.537-.133,1.272,1.272,0,0,0-.932.358,1.41,1.41,0,0,0-.31,1.022v2.087a1.41,1.41,0,0,0,.31,1.022,1.272,1.272,0,0,0,.932.358,1.24,1.24,0,0,0,.8-.268,1.405,1.405,0,0,0,.447-.8h1.465a3.624,3.624,0,0,1-.488,1.332,2.147,2.147,0,0,1-.932.844A3.4,3.4,0,0,1,149.908,147.581Z" transform="translate(-149.908 -139.101)"/></g></g><g transform="translate(55.148 0.577)"><g clip-path="url(#c)"><path d="M148.708,147.481a2.98,2.98,0,0,1-1.465-.31,2.209,2.209,0,0,1-.932-.977,3.162,3.162,0,0,1-.311-1.51V142.6a3.162,3.162,0,0,1,.31-1.51,2.468,2.468,0,0,1,.932-.977,2.981,2.981,0,0,1,1.465-.31,2.516,2.516,0,0,1,1.287.31,2.944,2.944,0,0,1,.932.888,4.115,4.115,0,0,1,.488,1.421H149.95a1.326,1.326,0,0,0-.268-.622,1.7,1.7,0,0,0-.4-.4,1.182,1.182,0,0,0-.537-.133,1.272,1.272,0,0,0-.932.358,1.409,1.409,0,0,0-.31,1.022v2.087a1.41,1.41,0,0,0,.31,1.022,1.272,1.272,0,0,0,.932.358,1.24,1.24,0,0,0,.8-.268,1.405,1.405,0,0,0,.447-.8h1.465a3.623,3.623,0,0,1-.488,1.332,2.147,2.147,0,0,1-.932.844,3.4,3.4,0,0,1-1.327.263Z" transform="translate(-145.245 -139.622)"/></g></g><path d="M20.1,147.5V140h1.421v7.5Zm2.22,0v-1.332h1.643a.914.914,0,0,0,.755-.268,1.09,1.09,0,0,0,.222-.666h0a1.073,1.073,0,0,0-.179-.666.692.692,0,0,0-.622-.268H22.275V142.97h1.865c.488,0,.71-.268.71-.844,0-.537-.268-.8-.844-.8H22.275V140h1.909a1.558,1.558,0,0,1,1.332.537A2.147,2.147,0,0,1,25.964,142a2.063,2.063,0,0,1-.268,1.022,1.323,1.323,0,0,1-.888.622,1.284,1.284,0,0,1,.888.622,2.147,2.147,0,0,1,.31,1.155h0a2.158,2.158,0,0,1-.488,1.465,1.676,1.676,0,0,1-1.287.577H22.32Z" transform="translate(-20.1 -139.156)"/><path d="M35.3,147.448v-7.5h1.421v7.5Zm2.132-6.172V139.9h3.414v1.377Zm0,3.108v-1.377h2.842v1.377Zm0,3.064v-1.332h3.414v1.332Z" transform="translate(-28.551 -139.101)"/><path d="M223.8,147.6v-7.5h1.421v7.5Zm2.087-6.128V140.1h3.419v1.377Zm0,3.108v-1.377h2.842v1.377Zm0,3.019v-1.332h3.419V147.6Z" transform="translate(-133.353 -139.212)"/><path d="M50.7,147.5V140h1.421v7.5Zm1.643,0v-1.377h3.374V147.5Z" transform="translate(-37.113 -139.156)"/><path d="M64.4,147.5V140h1.465v7.5Zm2.132-3.019v-1.421h3.374v1.421Zm2.4,3.019V140h1.464v7.5Z" transform="translate(-44.73 -139.156)"/><path d="M177.5,148.048V140.5h1.51v7.548Zm2.4-3.019V143.7h1.865a.427.427,0,0,0,.4-.268,1.732,1.732,0,0,0,0-1.332.427.427,0,0,0-.4-.268H179.9V140.5h1.954a1.24,1.24,0,0,1,.8.268,1.806,1.806,0,0,1,.537.8,4.135,4.135,0,0,1,0,2.4,1.806,1.806,0,0,1-.537.8,1.24,1.24,0,0,1-.8.268Zm2.042,3.019-1.82-3.242,1.51-.222,2.042,3.507H181.94Z" transform="translate(-107.611 -139.435)"/><path d="M262.2,141.277V139.9h5.506v1.377Zm2.042,6.172v-5.725h1.421v5.725Z" transform="translate(-154.703 -139.101)"/><path d="M290.4,147.5V140h1.421v7.5Zm2.309,0v-1.2h3.2v1.2Z" transform="translate(-170.381 -139.156)"/><path d="M208.2,147.448V139.9h1.51v7.548Zm2.4-3.019V143.1h1.865a.427.427,0,0,0,.4-.268,1.732,1.732,0,0,0,0-1.332.427.427,0,0,0-.4-.268H210.6V139.9h1.954a1.24,1.24,0,0,1,.8.268,1.806,1.806,0,0,1,.537.8,4.135,4.135,0,0,1,0,2.4,1.806,1.806,0,0,1-.537.8,1.24,1.24,0,0,1-.8.268Zm2.087,3.019-1.82-3.242,1.51-.222,2.042,3.507h-1.732Z" transform="translate(-124.68 -139.101)"/></g><g transform="translate(19.666 -1)"><path d="M159.4,11.048c4.574.622,5.9,3.507,6.351,6.128h10.435C175.519,10.338,170.9,3.677,159.4,3.1Z" transform="translate(-96.171 -1.28)"/><path d="M159.248,20.556c-2-1.377-8.481-1.51-13.054-1.465v.71c-4,.089-6.394,1.865-6.394,5.239,0,3.419,2.042,4.8,9.768,6.62,1.11.268,2.087.537,3.064.844a36.4,36.4,0,0,1,19.8.447c-3.6-4.662-14.919-2.575-21-3.464s-3.242-1.865-3.242-1.865c8.081-2.442,18.383,0,18.383,0-4.307-3.152-18.07-2.042-18.07-2.042s-.358.358-3.152,0-.666-1.11-.666-1.11c4.662-2.4,17.272-1.865,17.272-1.865-5.636-1.82-18.471-1.2-18.471-1.2C152.9,18.741,159.248,20.556,159.248,20.556Z" transform="translate(-85.274 -10.166)" fill="url(#e)"/><path d="M154.2,15.765c4.307-.358,9.5-.268,9.5-.268-2.087-.844-5.993-1.155-9.5-1.2Z" transform="translate(-93.28 -7.506)" fill="url(#f)"/><path d="M58.694,83.7a8.732,8.732,0,0,1-1.155,1.687c-5.2,5.861-10.7,5.95-22.69,1.287S17,85.787,17,85.787c8.836-1.643,12.965,5.328,24.778,7.326,8.214,1.377,10.923.089,18.383-4.839A20.359,20.359,0,0,1,58.694,83.7Z" transform="translate(-17 -46.091)" fill="url(#g)"/><path d="M71.468,14.319l.977-.537c.977-.537,5.328-.358,3.33.222-2.042.622-4.085,2.487-3.774,2.709a9.969,9.969,0,0,0,2.709-.222,10.953,10.953,0,0,1,3.109-2.039c1.643-.666,1.51-.977,4.839.31s4.219-1.2,4.219-1.2l.888,2.132c-1.6,2.132-3.152,1.954-3.152,1.954,2.487,2,4.884,11.629,3.374,18.159H98.465l4.041-2.4h0a51.25,51.25,0,0,1,5.328-2.975c-.8-.222-1.732-.447-2.709-.71C92.071,26.618,88.83,21.778,88.83,15.162a12.912,12.912,0,0,1,6.794-11.9c-.488.045-.8.089-.8.089a8.139,8.139,0,0,1,3.242-1.2,21.282,21.282,0,0,1,3.6-.932c-9.1.089-12.434,2.442-12.434,2.442L84.212-1,86.7,3.618c-4.529-2-7.681,3.819-8.126,3.73s-9.5,4-9.5,4c-1.065,1.643.222,4.307.222,4.307Z" transform="translate(-45.716 1)" fill="url(#h)"/><path d="M154.2,11.337c1.643-.045,2.886,0,2.886,0A11.973,11.973,0,0,0,154.2,10.8Z" transform="translate(-93.28 -5.561)" fill="url(#i)"/><path d="M154.2,7.868a11.1,11.1,0,0,1,1.687.179A4.856,4.856,0,0,0,154.2,7.6Z" transform="translate(-93.28 -3.781)" fill="url(#j)"/><g transform="translate(63.229 5.594)"><path d="M168.977,25.377a81.583,81.583,0,0,1,8.348-.133A40.206,40.206,0,0,0,167.6,24a5.781,5.781,0,0,1,1.377,1.377Z" transform="translate(-163.959 -18.494)" fill="#8d9096"/><path d="M159.4,19.944a8.182,8.182,0,0,1,1.11.222,28.407,28.407,0,0,1,9.635.4c-1.687-1.155-6.53-1.421-10.745-1.465Z" transform="translate(-159.4 -15.77)" fill="#8d9096"/><path d="M173.3,33.2c.045.268.089.488.133.755h7.9A36.838,36.838,0,0,0,173.3,33.2Z" transform="translate(-167.128 -23.608)" fill="#8d9096"/><path d="M166.593,15.61A24.965,24.965,0,0,0,159.4,14.5v1.243C163.085,15.565,166.593,15.61,166.593,15.61Z" transform="translate(-159.4 -13.213)" fill="#8d9096"/><path d="M159.4,11.779h.577c-.179-.045-.358-.133-.577-.179Z" transform="translate(-159.4 -11.6)" fill="#8d9096"/></g><g transform="translate(42.271 1.776)"><path d="M136.281,22.715c-7.771-1.82-9.768-3.2-9.768-6.62,0-3.374,2.4-5.151,6.394-5.239V3C121.94,3.222,115.9,8.95,115.9,17.3c0,6.62,3.242,11.455,16.3,14.564,8.214,1.954,10.523,3.685,10.523,7.637,0,3.464-2.265,5.684-7.46,5.814v7.951c11.855-.4,18.07-6.394,18.07-15.052C153.287,31.373,150.223,26.089,136.281,22.715Z" transform="translate(-114.257 -3)"/><path d="M130.849,89.471c-4.44-.447-7.238-2.664-8.214-6.971H112.2c1.11,8.658,7.193,14.652,18.649,15.008Z" transform="translate(-112.2 -47.2)"/></g><g transform="translate(43.828 1.377)"><path d="M146.83,29.208c-1.287-.089-2.487-.089-3.507-.089-5.95,0-9.058-1.6-9.058-1.6.537-.179,4.307-1.421,4.839-1.554-.977-.268-2-.577-3.064-.844-7.771-1.82-9.768-3.2-9.768-6.62,0-3.374,2.4-5.151,6.394-5.239v-.71c-2.8.045-4.929.179-4.929.179a19.68,19.68,0,0,1,4.929-.844V10.426c-4-.089-7.593.133-7.593.133,1.2-.888,4.929-1.11,7.593-1.155V8.868A59.822,59.822,0,0,0,121.61,9.4a29.245,29.245,0,0,1,11.056-1.732V7.451a55.446,55.446,0,0,0-10.168.4,12.918,12.918,0,0,0-6.794,11.9c0,6.62,3.242,11.455,16.3,14.564.977.222,1.865.447,2.709.71a36.2,36.2,0,0,1,15.541-2.975,15.929,15.929,0,0,0-3.419-2.839Z" transform="translate(-115.704 -5.009)" fill="#8d9096"/><path d="M143.584,2.1H141.9a21.281,21.281,0,0,0-3.6.932C140.742,2.5,143.584,2.1,143.584,2.1Z" transform="translate(-128.269 -2.1)" fill="#8d9096"/></g><path d="M194.748,57.887A49.6,49.6,0,0,0,186,56.6a14.682,14.682,0,0,1,3.374,2.8,32.637,32.637,0,0,1,5.328.577V57.887Z" transform="translate(-110.961 -31.024)" fill="url(#k)"/><g transform="translate(84.186 1.685)"><path d="M216.857,43.516h-.045V30.241h.045v-8.17h-.045V10.97h.045V2.8H206.6V51.687h10.257Z" transform="translate(-206.6 -2.798)"/><path d="M255.071,25.933c3.242-1.51,6.128-5.106,6.128-10.612,0-6.351-4.44-12.523-16.074-12.523h-8.48v8.17h7.593c4.041,0,6.709,1.865,6.709,5.417,0,3.419-2.042,5.684-7.016,5.684H236.6v8.17h7.016c5.725,0,8.259,2.531,8.259,6.441,0,4.44-2.531,6.838-8.17,6.838h-7.061v8.17h9.191c10.257,0,16.739-6.262,16.739-14.652a11.623,11.623,0,0,0-7.5-11.1Z" transform="translate(-223.28 -2.798)"/></g><path d="M206.6,61.987a32.6,32.6,0,0,1,9.28,3.33c-2.132-2.664-5.594-4.351-9.28-5.417Z" transform="translate(-122.414 -32.859)" fill="#8d9096"/></g><path d="M-136.533-17.832l-.553,1.371-.25-.1.228,3.48q.022.358.022.568a10.832,10.832,0,0,1-.708,3.177,5.517,5.517,0,0,1-3.125,1.163,2.19,2.19,0,0,1-1.629-.66A2.274,2.274,0,0,1-143.2-10.5a6.224,6.224,0,0,1,.369-1.99,12.976,12.976,0,0,1,.553-1.364,3.031,3.031,0,0,1-.059.31q-.037.258-.089.53a4.832,4.832,0,0,0-.044.693q0,2.293,1.71,2.293a3.628,3.628,0,0,0,2.352-1.024l-.007-.243q-.037-.685-.111-1.968-.066-1.872-.1-2.211l-.148-1.666-.073-.03q-.317-.148-.317-.391a.645.645,0,0,1,.132-.332,1.619,1.619,0,0,0,.132-.191l.626-.929a.966.966,0,0,0,.081.346,1.234,1.234,0,0,0,.59.384Zm4.1,4.909v1.909h-2.536q-.781,0-.782-.626V-12l-.014-.25V-17.4l1.533-1.622v5.389a1.373,1.373,0,0,0,.078.586q.077.129.5.129Zm4.04,0v1.909h-4.276v-1.909Zm3.907,0v1.909h-4.276v-1.909Zm3.907,0v1.909h-4.276v-1.909Zm3.907,0v1.909h-4.276v-1.909Zm3.907,0v1.909h-4.276v-1.909Zm3.907,0v1.909h-4.276v-1.909Zm3.907,0v1.909h-4.276v-1.909Zm3.907,0v1.909h-4.276v-1.909Zm1.887,1.909h-2.226v-1.909H-99.1l-.236-.767,1.163-1.15.56,1.917h1.57v1.909h-2.484l-.184-.575Zm2.064-5.809-.966.855-.7-.575-.619.575-1.2-1.113.907-.848.671.6.664-.6ZM-94-11.012h-2.226V-12.92h2.286l-.236-.767,1.163-1.15.56,1.917h1.57v1.909h-2.481l-.184-.575Zm1.548-5.809-.914.855-1.252-1.091.929-.855Zm4.349,1.194a2.952,2.952,0,0,1,.73,1.961,4.941,4.941,0,0,1-.358,1.61q-.2.537-.42,1.047h-2.912v-1.909h2.514a2.752,2.752,0,0,0-.641-1.2ZM-90.912-9l.966-.848.685.575.634-.575,1.2,1.106-.907.855-.685-.6-.649.6Zm6.178-5.528a4.781,4.781,0,0,1,.944,2.47,4.651,4.651,0,0,1-.268,1.431,5.5,5.5,0,0,1-.682,1.412q-.789,1.158-1.489,1.158-.759,0-1.938-1.872a3.3,3.3,0,0,0,1.01.2,2.349,2.349,0,0,0,1.415-.516,3.544,3.544,0,0,0,.951-1.252l.059-.111a7.292,7.292,0,0,0-.516-.958,4.637,4.637,0,0,0-.53-.73Zm6.888,0a4.781,4.781,0,0,1,.944,2.47,4.652,4.652,0,0,1-.268,1.431,5.5,5.5,0,0,1-.682,1.412q-.789,1.158-1.489,1.158-.759,0-1.938-1.872a3.3,3.3,0,0,0,1.01.2,2.349,2.349,0,0,0,1.415-.516A3.544,3.544,0,0,0-77.9-11.5l.059-.111a7.293,7.293,0,0,0-.516-.958,4.636,4.636,0,0,0-.53-.73Zm5.691,1.61v1.909h-2.536q-.782,0-.782-.626v-.358l-.014-.25V-17.4l1.533-1.622v5.389a1.373,1.373,0,0,0,.078.586q.078.129.5.129Zm4.04,0v1.909h-4.276v-1.909Zm7.74-6.172-.826,1.7-3.346.878,2.889,3.2a.681.681,0,0,1,.179.358.668.668,0,0,1-.007.118l-.111.2-.162.317L-62.43-11h-6.023v-1.909h4.975l-1.8-2-.214.243-.73-.693a.468.468,0,0,1-.17-.358.349.349,0,0,1,.037-.14l.111-.287.752-1.658Zm7.054,6.172v1.909h-2.536q-.782,0-.782-.626v-.358l-.014-.25V-17.4l1.533-1.622v5.389a1.373,1.373,0,0,0,.078.586q.078.129.5.129Zm4.04,0v1.909h-4.276v-1.909Zm3.907,0v1.909H-49.65v-1.909Zm10.623,0h1.725v1.909h-9.911l-.17-.56-.471.56h-2.131v-1.909h2.226l-.2-.656,1.217-1.142.537,1.82.191-.111.184-.132,1.946-1.3q.649-.435,1.762-1.047a2.374,2.374,0,0,1,.984-.369,1.87,1.87,0,0,1,1.047.405,2.32,2.32,0,0,1,1.238,1.8,2.388,2.388,0,0,1-.155.693Zm-1.1,0a2.773,2.773,0,0,0-.785-1.024,1.6,1.6,0,0,0-1-.428,2.2,2.2,0,0,0-.944.369l-.767.442q-.3.17-.973.641Zm8.624-4.431L-27.167-15a.411.411,0,0,1-.191.385l.3.118.73.332a4.809,4.809,0,0,0,.862.28,6.7,6.7,0,0,0,1.511.2l-1.158,1.789a6.083,6.083,0,0,0-1.452-.207,2.448,2.448,0,0,0-1.666.619,1.96,1.96,0,0,1-.608.438,4.123,4.123,0,0,1-.667.033h-3.708V-12.92h4.135a1.184,1.184,0,0,1,.369-.28,1.591,1.591,0,0,1-.287-.081q-.118-.066-.376-.228a2.952,2.952,0,0,0-1.563-.575,1.846,1.846,0,0,0-.568.111q.73-.944,1.128-1.364a.937.937,0,0,1,.7-.287h.148q.118.007.2.007h.3q.25,0,.487-.007l-.118-2.326-.081-.03q-.31-.132-.31-.358a1.276,1.276,0,0,1,.268-.537l.649-.929v.052a.537.537,0,0,0,.14.4,2.133,2.133,0,0,0,.634.328l.951.4-.6,1.349Zm7.593,4.431v1.909h-2.532q-.781,0-.782-.626v-.358l-.014-.25V-17.4l1.533-1.622v5.389a1.373,1.373,0,0,0,.078.586q.078.129.5.129Zm2.757-2.705a2.952,2.952,0,0,1,.73,1.961,4.941,4.941,0,0,1-.358,1.61q-.2.537-.42,1.047h-2.912v-1.909h2.514a2.752,2.752,0,0,0-.643-1.208Zm-1.412,6.58.895-.848,1.252,1.083-.914.855Z" transform="translate(161 80.167)"/></g></g></svg>