<svg xmlns="http://www.w3.org/2000/svg" xmlns:xlink="http://www.w3.org/1999/xlink" width="260" height="130" viewBox="0 0 260 130"><defs><clipPath id="b"><rect width="260" height="130"/></clipPath></defs><g id="a" clip-path="url(#b)"><rect width="260" height="130" fill="rgba(255,255,255,0)"/><g transform="translate(-374.768 -5080.088)"><g transform="translate(563.343 5110.087)"><path d="M7.382,4.844a2.113,2.113,0,0,0-.845.173,2.172,2.172,0,1,0,1.69,0,2.113,2.113,0,0,0-.845-.173ZM9.995,7.019a2.558,2.558,0,0,1-.35,1.311,2.6,2.6,0,0,1-.949.951,2.629,2.629,0,0,1-2.622,0,2.6,2.6,0,0,1-.951-.951,2.629,2.629,0,0,1,0-2.622,2.6,2.6,0,0,1,.951-.951,2.629,2.629,0,0,1,2.622,0,2.6,2.6,0,0,1,.951.951A2.558,2.558,0,0,1,9.995,7.019Z" transform="translate(-4.772 -4.407)" fill="#5d5d5d"/><path d="M-4.522-13.6h.98a1.013,1.013,0,0,1,.368.063.85.85,0,0,1,.284.177.767.767,0,0,1,.182.268.89.89,0,0,1,.063.34.706.706,0,0,1-.046.254.76.76,0,0,1-.123.214A.912.912,0,0,1-3-12.115.932.932,0,0,1-3.22-12v.027l.721,1.032v.03h-.582l-.7-1.01h-.237v1.01H-4.52Zm.976,1.212a.4.4,0,0,0,.284-.106.351.351,0,0,0,.111-.267.406.406,0,0,0-.024-.139.349.349,0,0,0-.073-.12.36.36,0,0,0-.122-.085.415.415,0,0,0-.167-.032h-.477v.747Z" transform="translate(6.199 14.778)" fill="#5d5d5d"/></g><path d="M42.945,1.719V-45.912H51.66V1.719Z" transform="translate(508.101 5156)" fill="#fd671a"/><path d="M32.822-3.746h-.533A14.7,14.7,0,0,1,28.6-.553,10.454,10.454,0,0,1,23.042.782,13.5,13.5,0,0,1,18.285-.05a12.373,12.373,0,0,1-3.893-2.3A10.265,10.265,0,0,1,11.8-5.871a10.862,10.862,0,0,1-.931-4.523,10.187,10.187,0,0,1,1-4.56,10.363,10.363,0,0,1,2.794-3.492,12.6,12.6,0,0,1,4.226-2.224,17.519,17.519,0,0,1,5.288-.765,22.922,22.922,0,0,1,5.255.5,25.49,25.49,0,0,1,3.393,1.031v-1A5.322,5.322,0,0,0,30.762-25.2a7.8,7.8,0,0,0-5.123-1.7A9.565,9.565,0,0,0,17.987-23.1l-6.319-4.324a17.134,17.134,0,0,1,14.17-6.519q7.584,0,11.575,3.559T41.4-19.845V-.286H32.822Zm0-9.779a18.017,18.017,0,0,0-3.16-1.164,13.853,13.853,0,0,0-3.559-.433,7.525,7.525,0,0,0-4.823,1.364,4.158,4.158,0,0,0-1.7,3.361,3.768,3.768,0,0,0,1.635,3.2A6.18,6.18,0,0,0,24.973-6a7.969,7.969,0,0,0,3.193-.632A7.925,7.925,0,0,0,30.66-8.3a7.314,7.314,0,0,0,1.6-2.393,7.312,7.312,0,0,0,.565-2.828Z" transform="translate(504.503 5157.382)" fill="#fd671a"/><path d="M11.942-8.843A18.194,18.194,0,0,1,5.988-2.091,16.471,16.471,0,0,1-3.556.537a18.136,18.136,0,0,1-6.952-1.3,16.2,16.2,0,0,1-5.45-3.626A16.831,16.831,0,0,1-19.55-9.874a18.136,18.136,0,0,1-1.3-6.952,18.387,18.387,0,0,1,1.3-6.985A16.377,16.377,0,0,1-15.958-29.3a16.46,16.46,0,0,1,5.45-3.592,18.136,18.136,0,0,1,6.952-1.3,16.665,16.665,0,0,1,9.513,2.595,15.363,15.363,0,0,1,5.654,6.719L3.626-21.549A8.573,8.573,0,0,0,.735-24.976,7.865,7.865,0,0,0-3.69-26.14a8.087,8.087,0,0,0-3.26.667A8.387,8.387,0,0,0-9.644-23.61a8.53,8.53,0,0,0-1.829,2.927,10.677,10.677,0,0,0-.667,3.858,10.677,10.677,0,0,0,.667,3.858A8.53,8.53,0,0,0-9.644-10.04,8.387,8.387,0,0,0-6.95-8.176a8.086,8.086,0,0,0,3.26.667A8.312,8.312,0,0,0,.933-8.743,8.586,8.586,0,0,0,3.96-12.3Z" transform="translate(500.946 5157.622)" fill="#fd671a"/><path d="M-56.03-45.824h9.62V-25.6l20.028-20.223h13.315L-36.145-22.541-13.067,1.575-26.786,1.8-46.411-18.815V1.8h-8.981Z" transform="translate(497 5155.912)" fill="#75bc20"/><path d="M-45.983,1.139h-1.251v-5.3A1.824,1.824,0,0,0-47.7-5.592,1.992,1.992,0,0,0-49.053-6a2.73,2.73,0,0,0-1.343.367,3.046,3.046,0,0,0-1.027.89V1.139h-1.251V-9.988h1.251v4.232a3.681,3.681,0,0,1,1.234-.968,3.55,3.55,0,0,1,1.635-.4,2.271,2.271,0,0,1,1.927.642,2.271,2.271,0,0,1,.642,1.927Zm5.822.2A3.973,3.973,0,0,1-43.131.163,4.191,4.191,0,0,1-44.281-2.9a4.247,4.247,0,0,1,1.134-3A3.7,3.7,0,0,1-40.31-7.116a3.519,3.519,0,0,1,2.827,1.223A4.61,4.61,0,0,1-36.44-2.8v.317h-6.506A3.067,3.067,0,0,0-42.086-.5a2.7,2.7,0,0,0,2.026.8,3.336,3.336,0,0,0,2.5-1.034l.6.817a4.407,4.407,0,0,1-3.2,1.251Zm2.487-4.76a2.892,2.892,0,0,0-.7-1.843,2.391,2.391,0,0,0-1.953-.826,2.35,2.35,0,0,0-1.891.817,3.025,3.025,0,0,0-.745,1.852Zm10.009,4.56h-1.251v-1.2a3.225,3.225,0,0,1-2.719,1.4A3.272,3.272,0,0,1-34.23.2a4.531,4.531,0,0,1-.992-3.078,4.545,4.545,0,0,1,1-3.077,3.258,3.258,0,0,1,2.586-1.16A3.24,3.24,0,0,1-28.916-5.7V-6.918h1.251ZM-31.318.222a2.834,2.834,0,0,0,1.392-.375,2.7,2.7,0,0,0,1.01-.909V-4.7a2.642,2.642,0,0,0-1.01-.925A2.834,2.834,0,0,0-31.318-6a2.307,2.307,0,0,0-1.9.876,3.48,3.48,0,0,0-.7,2.243,3.448,3.448,0,0,0,.7,2.235,2.314,2.314,0,0,0,1.9.867Zm7.607,1.118A1.736,1.736,0,0,1-25.046.856a1.984,1.984,0,0,1-.45-1.4V-9.988h1.251V-.813a1.238,1.238,0,0,0,.209.751.708.708,0,0,0,.609.284,1.01,1.01,0,0,0,.834-.35l.384.951a2.142,2.142,0,0,1-1.5.517Zm4.421,0q-1.8,0-1.8-1.891V-5.823h-1.335v-1.1h1.335v-2.2h1.268v2.2h1.635v1.1h-1.635v5a1.238,1.238,0,0,0,.209.751.692.692,0,0,0,.593.284,1.091,1.091,0,0,0,.851-.35l.367.951a2.081,2.081,0,0,1-1.486.523Zm9.231-.2h-1.251v-5.3a1.824,1.824,0,0,0-.467-1.426A1.992,1.992,0,0,0-13.129-6a2.73,2.73,0,0,0-1.343.367,3.046,3.046,0,0,0-1.027.89V1.139H-16.75V-9.988H-15.5v4.232a3.681,3.681,0,0,1,1.234-.968,3.55,3.55,0,0,1,1.635-.4,2.271,2.271,0,0,1,1.927.642,2.271,2.271,0,0,1,.642,1.927Zm5.172,3.27A4.182,4.182,0,0,1-7.974,3.186l.634-.9A2.961,2.961,0,0,0-4.888,3.369a2.488,2.488,0,0,0,1.779-.617,2.254,2.254,0,0,0,.651-1.713v-1.2a4.154,4.154,0,0,1-1.26.951,3.52,3.52,0,0,1-1.607.384A2.271,2.271,0,0,1-7.252.53,2.271,2.271,0,0,1-7.894-1.4V-6.918h1.251V-1.78A1.852,1.852,0,0,0-6.176-.345,1.965,1.965,0,0,0-4.827.072,2.78,2.78,0,0,0-3.483-.287a3.053,3.053,0,0,0,1.025-.86V-6.918H-1.21V1.039a3.06,3.06,0,0,1-1.051,2.5,4,4,0,0,1-2.632.867ZM6.551,1.139H5.3V-5.817H3.965v-1.1H5.3v-.617a2.725,2.725,0,0,1,.642-1.927,2.2,2.2,0,0,1,1.694-.693,2.538,2.538,0,0,1,1.234.267l-.317.951a1.406,1.406,0,0,0-.717-.184q-1.285,0-1.285,1.586v.617H8.185v1.1H6.551Zm9.892,0H15.191v-1.2a3.225,3.225,0,0,1-2.721,1.4A3.272,3.272,0,0,1,9.878.2a4.531,4.531,0,0,1-.993-3.078,4.545,4.545,0,0,1,1-3.077,3.258,3.258,0,0,1,2.584-1.159A3.24,3.24,0,0,1,15.191-5.7V-6.918h1.251ZM12.79.222a2.834,2.834,0,0,0,1.392-.376,2.7,2.7,0,0,0,1.009-.909V-4.7a2.643,2.643,0,0,0-1.009-.925A2.834,2.834,0,0,0,12.79-6a2.307,2.307,0,0,0-1.9.876,3.48,3.48,0,0,0-.7,2.243,3.448,3.448,0,0,0,.7,2.235,2.314,2.314,0,0,0,1.9.867Zm8.391,1.118A4.3,4.3,0,0,1,17.928.072l.634-.9a3.3,3.3,0,0,0,1.143.817,3.574,3.574,0,0,0,1.51.334,2.3,2.3,0,0,0,1.408-.384,1.2,1.2,0,0,0,.509-1,.943.943,0,0,0-.517-.843,4.133,4.133,0,0,0-1.251-.467q-.734-.158-1.459-.367a2.872,2.872,0,0,1-1.243-.717,1.8,1.8,0,0,1-.52-1.342,2.069,2.069,0,0,1,.8-1.652,3.31,3.31,0,0,1,2.185-.667,3.975,3.975,0,0,1,2.986,1.168l-.584.867a2.957,2.957,0,0,0-2.4-1.018,2.138,2.138,0,0,0-1.3.358,1.089,1.089,0,0,0-.484.91.8.8,0,0,0,.367.667,2.386,2.386,0,0,0,.926.384q.556.117,1.2.3a12.13,12.13,0,0,1,1.2.409,2.086,2.086,0,0,1,.926.734A2.067,2.067,0,0,1,24.332-1.1,2.173,2.173,0,0,1,23.505.657a3.551,3.551,0,0,1-2.324.683Zm6.906,0q-1.8,0-1.8-1.891V-5.823H24.951v-1.1h1.335v-2.2h1.268v2.2h1.635v1.1H27.554v5a1.238,1.238,0,0,0,.209.751.692.692,0,0,0,.593.284,1.091,1.091,0,0,0,.851-.35l.367.951a2.081,2.081,0,0,1-1.486.523Zm8.108-.2H34.944V-5.817H33.609v-1.1h1.335v-.617a2.725,2.725,0,0,1,.642-1.926,2.2,2.2,0,0,1,1.694-.693,2.538,2.538,0,0,1,1.234.267l-.317.951a1.406,1.406,0,0,0-.717-.184Q36.2-9.12,36.2-7.536v.617h1.632v1.1H36.192ZM45.412.122A3.7,3.7,0,0,1,42.52,1.345,3.7,3.7,0,0,1,39.628.122,4.355,4.355,0,0,1,38.535-2.9a4.324,4.324,0,0,1,1.093-3.011,3.712,3.712,0,0,1,2.892-1.21,3.712,3.712,0,0,1,2.892,1.21A4.324,4.324,0,0,1,46.5-2.9a4.355,4.355,0,0,1-1.09,3.02ZM40.565-.687a2.353,2.353,0,0,0,1.952.909,2.353,2.353,0,0,0,1.952-.909A3.459,3.459,0,0,0,45.186-2.9a3.424,3.424,0,0,0-.717-2.2A2.361,2.361,0,0,0,42.517-6a2.361,2.361,0,0,0-1.952.9,3.424,3.424,0,0,0-.717,2.2,3.459,3.459,0,0,0,.718,2.21ZM54.62.122a3.7,3.7,0,0,1-2.892,1.218A3.7,3.7,0,0,1,48.837.116,4.355,4.355,0,0,1,47.745-2.9,4.324,4.324,0,0,1,48.837-5.91a3.712,3.712,0,0,1,2.892-1.21A3.712,3.712,0,0,1,54.62-5.91,4.324,4.324,0,0,1,55.712-2.9,4.355,4.355,0,0,1,54.62.122ZM49.773-.687a2.353,2.353,0,0,0,1.955.909A2.353,2.353,0,0,0,53.68-.687,3.459,3.459,0,0,0,54.4-2.9a3.424,3.424,0,0,0-.717-2.2A2.361,2.361,0,0,0,51.729-6a2.361,2.361,0,0,0-1.952.9,3.424,3.424,0,0,0-.717,2.2,3.459,3.459,0,0,0,.715,2.21ZM64.505,1.139H63.254v-1.2a3.225,3.225,0,0,1-2.719,1.4A3.272,3.272,0,0,1,57.94.2a4.531,4.531,0,0,1-.992-3.078,4.545,4.545,0,0,1,1-3.077,3.258,3.258,0,0,1,2.586-1.16A3.24,3.24,0,0,1,63.254-5.7V-9.988h1.251ZM60.848.222a2.834,2.834,0,0,0,1.392-.375,2.7,2.7,0,0,0,1.01-.909V-4.7a2.642,2.642,0,0,0-1.01-.925A2.834,2.834,0,0,0,60.848-6a2.307,2.307,0,0,0-1.9.876,3.48,3.48,0,0,0-.7,2.243,3.448,3.448,0,0,0,.7,2.235,2.314,2.314,0,0,0,1.9.867Z" transform="translate(495.118 5175.678)" fill="#888"/></g></g></svg>