<svg xmlns="http://www.w3.org/2000/svg" xmlns:xlink="http://www.w3.org/1999/xlink" width="260" height="130" viewBox="0 0 260 130"><defs><clipPath id="b"><rect width="260" height="130"/></clipPath></defs><g id="a" clip-path="url(#b)"><rect width="260" height="130" fill="rgba(255,255,255,0)"/><g transform="translate(44.824 27.83)"><path d="M30.305,30.411c.086-.12.154-.2.216-.3q5.11-7.844,10.214-15.693a.449.449,0,0,1,.437-.23q2.217.014,4.428,0c.24,0,.326.053.326.312q-.007,15.545,0,31.085c0,.259-.091.312-.331.312-1.041-.01-2.082,0-3.123,0-.374,0-.374,0-.374-.369V19.333l-.067-.029a1.851,1.851,0,0,0-.182.211q-4.671,7.146-9.332,14.3a.736.736,0,0,1-.724.389c-1.022-.024-2.044-.019-3.066,0a.611.611,0,0,1-.59-.326q-3.886-5.966-7.792-11.922l-1.6-2.447a.487.487,0,0,0-.23-.2c-.01.134-.024.269-.024.4V45.375c0,.595.053.518-.509.523-.974,0-1.948,0-2.927,0-.393,0-.393,0-.393-.408V17.073c0-.854.01-1.7,0-2.557,0-.24.053-.331.312-.326q2.245.014,4.486,0a.415.415,0,0,1,.393.211q4.282,6.585,8.574,13.17.842,1.3,1.689,2.591C30.166,30.238,30.224,30.305,30.305,30.411Z" transform="translate(-0.252 -0.01)" fill="#4b718a"/><path d="M106.419,45.949c-6.127-.249-10.632-2.85-13.683-7.907a14.739,14.739,0,0,1-1.991-5.858A15.659,15.659,0,0,1,94.281,19.84a15.209,15.209,0,0,1,9.135-5.4,14.918,14.918,0,0,1,4.6-.144,15.18,15.18,0,0,1,9.125,4.438,15.391,15.391,0,0,1,4.414,8.487,16.945,16.945,0,0,1,.23,2.36,15.39,15.39,0,0,1-3.119,9.989A15.162,15.162,0,0,1,109.14,45.6C108.18,45.8,107.187,45.853,106.419,45.949Zm11.572-15.895c-.029-.5-.034-1-.1-1.5a12.279,12.279,0,0,0-1.43-4.385,11.725,11.725,0,0,0-12.829-5.8,11.955,11.955,0,0,0-9.044,13.659,11.588,11.588,0,0,0,4.155,7.24,11.284,11.284,0,0,0,10.085,2.418A11.913,11.913,0,0,0,117.991,30.054Z" transform="translate(-39.759 -0.008)" fill="#4b718a"/><path d="M275.388,45.889c-.12,0-.2.014-.283.014-1.276,0-2.557,0-3.833,0a.4.4,0,0,1-.437-.3q-1.806-4.39-3.632-8.765c-.24-.571-.125-.48-.705-.48q-3.663-.007-7.326,0c-.288,0-.369-.077-.365-.365.019-1.051.014-2.1,0-3.152,0-.254.082-.317.326-.317,1.847.01,3.689,0,5.537,0,.12,0,.235-.01.422-.019-1.933-4.481-3.848-8.914-5.791-13.424-.086.158-.139.24-.178.326q-3.879,8.938-7.758,17.886-1.806,4.16-3.608,8.319a.392.392,0,0,1-.417.283c-1.276-.01-2.557,0-3.833,0-.091,0-.182-.01-.317-.014.211-.485.408-.931.6-1.377q4.332-9.78,8.669-19.56,2.289-5.153,4.563-10.315a.6.6,0,0,1,.662-.441c1.137.029,2.269.014,3.406,0a.361.361,0,0,1,.384.249q3.3,7.463,6.611,14.921,2.742,6.175,5.479,12.354c.585,1.319,1.171,2.644,1.756,3.963C275.34,45.74,275.354,45.793,275.388,45.889Z" transform="translate(-119.139 -0.015)" fill="#4b718a"/><path d="M180.224,34l8.4,11.855c-.125.01-.2.024-.283.024q-2.087,0-4.174,0a.459.459,0,0,1-.422-.216q-3.987-5.628-7.974-11.251a.618.618,0,0,0-.576-.3c-1.526.014-3.047,0-4.572,0-.4,0-.408,0-.408.4V45.456c0,.427,0,.427-.432.427-1.012,0-2.025,0-3.037,0-.235,0-.307-.072-.307-.307q.007-7.477,0-14.959c0-.259.086-.312.326-.312,3.881,0,7.763-.029,11.644.014a6.223,6.223,0,0,0,6.141-5.028,6.156,6.156,0,0,0-4.807-7.177,7.382,7.382,0,0,0-1.487-.154c-3.8-.014-7.609,0-11.419,0-.393,0-.393,0-.393-.384,0-1.032,0-2.063,0-3.095,0-.216.053-.3.283-.3,4.068,0,8.142-.048,12.21.024a9.376,9.376,0,0,1,6.194,2.533,9.905,9.905,0,0,1,.921,13.851,9.75,9.75,0,0,1-5.57,3.315C180.411,33.922,180.344,33.961,180.224,34Z" transform="translate(-79.212 0)" fill="#4b718a"/><path d="M224.465,30.056V14.617c0-.413,0-.413.417-.413,1.022,0,2.044,0,3.066,0,.25,0,.345.048.345.326q-.007,15.523,0,31.051c0,.264-.082.336-.336.331q-1.576-.022-3.152,0c-.283,0-.345-.091-.345-.355Q224.474,37.8,224.465,30.056Z" transform="translate(-109.396 -0.015)" fill="#4b718a"/><path d="M112.712,95.822h.907a1.364,1.364,0,0,0,1.4-1.094c.058-.259.206-.254.365-.2.058.019.11.216.086.312a1.731,1.731,0,0,1-1.482,1.406c-.264.043-.355.149-.345.417a6.515,6.515,0,0,1-.043,1.468,2.811,2.811,0,0,1-2.61,2.14,2.9,2.9,0,0,1-2.922-1.818,2.213,2.213,0,0,1,.369-2.265.818.818,0,0,0,.2-.566c-.01-.945,0-1.89,0-2.835a2.161,2.161,0,0,1,4.275-.528,1.912,1.912,0,0,1-.936,2.053c-.581.408-1.209.739-1.814,1.108-.3.182-.59.374-.873.581a2,2,0,0,0,.278,3.493,2.437,2.437,0,0,0,3.55-1.363,7.308,7.308,0,0,0,.086-1.689c0-.053-.149-.154-.23-.154-.417-.014-.835-.014-1.247,0-.178,0-.254-.043-.254-.24s.091-.235.264-.23C112.05,95.827,112.381,95.822,112.712,95.822Zm-3.622-.3c.36-.216.652-.384.94-.561.6-.369,1.219-.72,1.8-1.118a1.4,1.4,0,0,0,.643-1.175,1.717,1.717,0,0,0-1.5-1.66,1.629,1.629,0,0,0-1.823,1.339,18.629,18.629,0,0,0-.067,2.005C109.08,94.718,109.09,95.088,109.09,95.524Z" transform="translate(-48.763 -39.729)" fill="#4b718a"/><path d="M17.8,100.269a4.1,4.1,0,0,1-2.826-.974,2.28,2.28,0,0,1-.763-1.3c-.024-.12-.1-.283.12-.307.154-.014.3-.043.341.211a1.954,1.954,0,0,0,.95,1.319,4.329,4.329,0,0,0,4.491-.077,1.757,1.757,0,0,0,.72-2.034,1.981,1.981,0,0,0-1.036-1.041,8.053,8.053,0,0,0-2.336-.643,5.393,5.393,0,0,1-2.135-.8,2.035,2.035,0,0,1-.12-3.253,3.986,3.986,0,0,1,3.119-.816,3.615,3.615,0,0,1,1.943.782,2.178,2.178,0,0,1,.84,1.4c.01.072-.067.225-.1.225-.115,0-.312-.043-.326-.106a2.327,2.327,0,0,0-2.029-1.77,3.582,3.582,0,0,0-3.027.552,1.6,1.6,0,0,0-.681,1.66,1.617,1.617,0,0,0,.825,1.07,5.247,5.247,0,0,0,1.977.648,6.936,6.936,0,0,1,2.6.84,2.152,2.152,0,0,1,.082,3.641A4.42,4.42,0,0,1,17.8,100.269Z" transform="translate(0 -39.724)" fill="#4b718a"/><path d="M148.449,95.665V91.294c0-.134-.048-.293.182-.307s.288.077.288.3c-.01,1.238,0,2.476,0,3.718,0,.417,0,.417.422.417h5.82c.389,0,.393,0,.393-.4,0-1.247,0-2.495,0-3.747,0-.259.106-.321.321-.278.058.01.115.082.144.134s0,.11,0,.168v8.713c0,.13.062.293-.173.312s-.3-.058-.293-.288c.01-1.19,0-2.384,0-3.574a2.243,2.243,0,0,1,0-.254c.034-.249-.067-.321-.317-.321q-3.008.014-6.016,0c-.235,0-.307.062-.307.3q.014,1.871,0,3.747c0,.163.1.4-.24.393-.317,0-.221-.226-.225-.379C148.444,98.519,148.449,97.09,148.449,95.665Z" transform="translate(-69.848 -39.96)" fill="#4b718a"/><path d="M304.249,101.727l.355.3a2.9,2.9,0,0,1-1.871,1.2,2.946,2.946,0,0,1-3.5-2.634,3.862,3.862,0,0,1,.561-2.874,2.774,2.774,0,0,1,4.745.163,3.784,3.784,0,0,1,.513,1.919c0,.24-.077.307-.307.3-1.559-.01-3.123,0-4.683,0h-.355a2.694,2.694,0,0,0,1.147,2.341,2.383,2.383,0,0,0,1.847.317A2.713,2.713,0,0,0,304.249,101.727Zm-4.606-2.082h4.222c.8,0,.816,0,.581-.782a2.414,2.414,0,0,0-2.025-1.9,2.206,2.206,0,0,0-2.212.979A2.966,2.966,0,0,0,299.643,99.644Z" transform="translate(-148.26 -42.813)" fill="#4b718a"/><path d="M245.635,98.9a4.872,4.872,0,1,1,.01-6.971l-.307.307a4.692,4.692,0,0,0-1.756-1.041,4.41,4.41,0,1,0-1.924,8.574,4.286,4.286,0,0,0,3.416-.974C245.371,98.557,245.371,98.557,245.635,98.9Z" transform="translate(-116.111 -39.725)" fill="#4b718a"/><path d="M175.188,97.1a3.005,3.005,0,0,1,1.276-.542,3.4,3.4,0,0,1,2.025.163,2,2,0,0,1,1.315,1.938c.029,1.42,0,2.835.01,4.256,0,.163-.019.264-.225.269s-.254-.1-.245-.278c.01-.158,0-.317,0-.552-.144.11-.235.173-.312.24a2.867,2.867,0,0,1-3.656.082,1.708,1.708,0,0,1-.01-2.811,3.106,3.106,0,0,1,1.89-.667c.595-.014,1.19-.014,1.79,0,.24,0,.3-.086.307-.317.024-1.281-.772-1.866-1.986-1.938a3.051,3.051,0,0,0-1.588.341C175.452,97.443,175.452,97.443,175.188,97.1Zm2.927,2.557h0c-.312,0-.624-.014-.936,0a2.612,2.612,0,0,0-1.588.609,1.247,1.247,0,0,0,.024,2.01,2.606,2.606,0,0,0,3.138.053,1.381,1.381,0,0,0,.585-1.027c.024-.47,0-.945.01-1.42,0-.173-.062-.235-.235-.23C178.781,99.665,178.45,99.66,178.114,99.66Z" transform="translate(-83.474 -42.819)" fill="#4b718a"/><path d="M41.7,96.311c-.3.283-.585.533-.84.806a3.4,3.4,0,0,0-.82.979,4.449,4.449,0,0,0-.043,1.3c0,.11-.058.278-.134.312-.225.091-.326,0-.326-.254q0-4.671,0-9.341c0-.173.01-.288.235-.288s.235.12.235.288v7.177c.139-.12.216-.178.283-.249,1.161-1.195,2.332-2.38,3.474-3.589a.9.9,0,0,1,.916-.264c-.513.528-1.008,1.036-1.5,1.545-.331.341-.652.686-.993,1.012-.154.149-.134.254-.019.408.792,1.084,1.574,2.178,2.36,3.267.058.082.11.163.178.264a.619.619,0,0,1-.753-.254c-.657-.95-1.343-1.876-2.02-2.811C41.857,96.513,41.78,96.422,41.7,96.311Z" transform="translate(-13.19 -39.355)" fill="#4b718a"/><path d="M264.154,97.093a3.19,3.19,0,0,1,1.3-.547,3.266,3.266,0,0,1,2.2.269,1.891,1.891,0,0,1,1.089,1.732c.019,1.459.01,2.912.014,4.371,0,.144-.01.254-.206.259s-.235-.106-.23-.269,0-.336,0-.595c-.139.115-.216.173-.288.24a2.9,2.9,0,0,1-3.747.077,1.721,1.721,0,0,1,.178-2.883,3.105,3.105,0,0,1,1.756-.561c.576-.01,1.156,0,1.732,0,.35,0,.4-.053.365-.389a1.826,1.826,0,0,0-1.962-1.862,2.882,2.882,0,0,0-1.612.345C264.465,97.448,264.312,97.381,264.154,97.093Zm2.941,2.562c-.3,0-.6-.01-.907,0a2.667,2.667,0,0,0-1.55.547,1.256,1.256,0,0,0-.058,2.058,2.59,2.59,0,0,0,2.917.221,1.515,1.515,0,0,0,.82-1.247c.024-.461.014-.926,0-1.387,0-.067-.129-.178-.206-.182C267.776,99.645,267.435,99.655,267.095,99.655Z" transform="translate(-129.754 -42.814)" fill="#4b718a"/><path d="M73.011,97.7a.372.372,0,0,1,.048-.134,2.451,2.451,0,0,1,1.881-1.079,2.376,2.376,0,0,1,2.61,2.135c.072,1.444.019,2.893.029,4.342,0,.154-.048.221-.211.225-.187,0-.221-.091-.221-.245q.007-1.943,0-3.886a2.021,2.021,0,0,0-1.435-2.02,2.223,2.223,0,0,0-2.8,2.077v3.776c0,.178,0,.307-.249.3s-.23-.13-.23-.293V96.937c0-.178,0-.312.249-.312s.23.158.23.321v.691A.941.941,0,0,0,73.011,97.7Z" transform="translate(-30.306 -42.816)" fill="#4b718a"/><path d="M286.107,97.948c.105-.168.206-.336.317-.5a2.411,2.411,0,0,1,1.933-.96c.053,0,.163.106.158.158-.01.1-.053.254-.125.283a5.1,5.1,0,0,1-.552.106,2.279,2.279,0,0,0-1.746,1.943,4.448,4.448,0,0,0-.062.758q-.007,1.59,0,3.176c0,.178-.024.283-.245.278s-.225-.106-.225-.269q.007-3.008,0-6.016c0-.182.034-.283.245-.278s.225.115.221.273c0,.345,0,.691,0,1.036C286.059,97.944,286.083,97.944,286.107,97.948Z" transform="translate(-141.181 -42.825)" fill="#4b718a"/><path d="M209.617,97.948c.1-.168.2-.341.312-.5a2.418,2.418,0,0,1,1.9-.96c.053,0,.163.11.158.163-.01.1-.058.249-.13.283a2.7,2.7,0,0,1-.5.1,2.37,2.37,0,0,0-1.814,2.346c-.01,1.175,0,2.346,0,3.522,0,.192-.024.307-.259.293-.163-.01-.216-.072-.211-.226,0-.312,0-.624,0-.936V96.95c0-.168-.019-.317.235-.317s.23.158.23.321v.984A.372.372,0,0,1,209.617,97.948Z" transform="translate(-101.394 -42.825)" fill="#4b718a"/><path d="M60.02,100.038V97.087c0-.178,0-.312.245-.307s.221.144.221.3v5.954c0,.178,0,.312-.245.307s-.221-.144-.221-.3Z" transform="translate(-23.849 -42.976)" fill="#4b718a"/><path d="M197.12,100.061v2.979c0,.158.014.293-.225.3s-.245-.13-.245-.307c0-1.986,0-3.973,0-5.959,0-.158-.01-.3.225-.3s.249.13.245.307C197.115,98.075,197.12,99.068,197.12,100.061Z" transform="translate(-94.928 -42.97)" fill="#4b718a"/><path d="M60.469,91.613c0,.125,0,.245,0,.365.01.178-.019.283-.24.283s-.23-.13-.23-.293c0-.245.01-.489,0-.734-.01-.178.053-.254.24-.254s.24.1.23.264C60.464,91.369,60.469,91.493,60.469,91.613Z" transform="translate(-23.838 -39.958)" fill="#4b718a"/><path d="M197.119,91.638c0,.125,0,.245,0,.369.01.163-.019.264-.226.269s-.254-.091-.245-.273q.014-.4,0-.792c0-.168.077-.211.225-.211s.259.034.245.221C197.109,91.355,197.119,91.494,197.119,91.638Z" transform="translate(-94.927 -39.969)" fill="#4b718a"/></g></g></svg>