<svg xmlns="http://www.w3.org/2000/svg" xmlns:xlink="http://www.w3.org/1999/xlink" width="260" height="130" viewBox="0 0 260 130"><defs><clipPath id="b"><rect width="260" height="130"/></clipPath></defs><g id="a" clip-path="url(#b)"><rect width="260" height="130" fill="rgba(255,255,255,0)"/><g transform="translate(60.001 21.005)"><g transform="translate(47.668 -0.005)"><path d="M434.718,97.756a.3.3,0,0,0,.361-.006,1.839,1.839,0,0,1,.474-.277,2.12,2.12,0,0,1,.576-.13l.168-.018.072-.153a2.014,2.014,0,0,0,.2-.788,1.751,1.751,0,0,0-.132-.73l-.07-.175-.187-.015a1.75,1.75,0,0,0-.735.1,2.005,2.005,0,0,0-.684.433l-.124.116.036.165a2.185,2.185,0,0,1,.053.587,1.906,1.906,0,0,1-.118.537.3.3,0,0,0,.107.35m.579-1.42a1.314,1.314,0,0,1,.356-.2h0a1.107,1.107,0,0,1,.288-.063,1.118,1.118,0,0,1,.028.293,1.322,1.322,0,0,1-.082.4,2.612,2.612,0,0,0-.553.146h-.005V96.9a2.57,2.57,0,0,0-.031-.572" transform="translate(-400.826 -91.299)" fill="#b07c3a"/><path d="M420.236,124.82a6.714,6.714,0,0,0,.533,4.543,11.474,11.474,0,0,0,2.888,3.976,8.576,8.576,0,0,0,1.035.8,8.65,8.65,0,0,0-.368,1.254,11.473,11.473,0,0,0,0,4.917,6.717,6.717,0,0,0,2.239,3.988,3.139,3.139,0,0,0,1.648.638q.1.007.191.007a2.583,2.583,0,0,0,1.42-.424,2.188,2.188,0,0,0,.976-1.548,1.813,1.813,0,0,0-1.56-2.036,1.509,1.509,0,0,0-1.7,1.3,1.262,1.262,0,0,0,.25.938c.167.219.665.593,1.055.466a.5.5,0,1,0-.542-.788c-.012-.014-.025-.028-.036-.043a.666.666,0,0,1-.132-.494.909.909,0,0,1,1.021-.782,1.211,1.211,0,0,1,1.042,1.36,1.574,1.574,0,0,1-.229.637,1.6,1.6,0,0,1-.478.485,1.963,1.963,0,0,1-1.24.32,2.575,2.575,0,0,1-1.33-.519,6.135,6.135,0,0,1-2.013-3.637,10.9,10.9,0,0,1-.242-1.955q.049.116.1.228a3.326,3.326,0,0,0,1.606,1.6,2.723,2.723,0,0,0,1.45.242,2.672,2.672,0,0,0,1.35-.564,2.549,2.549,0,0,0,.963-1.69,2.116,2.116,0,0,0-.978-2.059,1.953,1.953,0,0,0-1.36-.291,1.763,1.763,0,0,0-1.252.907,1.524,1.524,0,0,0,.175,1.75,1.47,1.47,0,0,0,.712.438,1.383,1.383,0,0,0,1.3-.4.858.858,0,0,0,.233-.864.585.585,0,1,0-.915.642.666.666,0,0,1-.42.047.849.849,0,0,1-.457-.263.938.938,0,0,1-.049-1.142,1.157,1.157,0,0,1,.766-.52,1.344,1.344,0,0,1,.895.175,1.506,1.506,0,0,1,.759,1.507,1.952,1.952,0,0,1-.737,1.292,2.074,2.074,0,0,1-1.05.438,2.12,2.12,0,0,1-1.129-.19,2.739,2.739,0,0,1-1.317-1.317,4.528,4.528,0,0,1-.411-2.227,5.11,5.11,0,0,1,.323-1.523,5.863,5.863,0,0,0,2.521.593,5.1,5.1,0,0,0,1.921-.339,2.909,2.909,0,0,0,1.34-1,1.941,1.941,0,0,0-.942-2.9,2.906,2.906,0,0,0-1.671-.02,5.1,5.1,0,0,0-1.75.855,5.871,5.871,0,0,0-1.692,1.962,5.132,5.132,0,0,1-1.156-1.042,4.528,4.528,0,0,1-.977-2.044,2.742,2.742,0,0,1,.292-1.838,2.116,2.116,0,0,1,.8-.817,2.078,2.078,0,0,1,1.108-.263,1.952,1.952,0,0,1,1.356.613,1.507,1.507,0,0,1,.272,1.663,1.338,1.338,0,0,1-.623.663,1.152,1.152,0,0,1-.924.03.939.939,0,0,1-.633-.953.856.856,0,0,1,.214-.483.667.667,0,0,1,.368-.208.585.585,0,1,0,1.118-.019.859.859,0,0,0-.7-.562,1.385,1.385,0,0,0-1.282.438,1.468,1.468,0,0,0-.319.77,1.522,1.522,0,0,0,.889,1.523,1.763,1.763,0,0,0,1.546,0,1.953,1.953,0,0,0,.929-1.035,2.116,2.116,0,0,0-.419-2.241,2.552,2.552,0,0,0-1.773-.8,2.661,2.661,0,0,0-1.424.336,2.723,2.723,0,0,0-1.03,1.05,3.326,3.326,0,0,0-.361,2.234c.014.082.031.164.05.246a10.9,10.9,0,0,1-.953-1.724,6.137,6.137,0,0,1-.509-4.126,2.572,2.572,0,0,1,.771-1.2,1.963,1.963,0,0,1,1.191-.47,1.605,1.605,0,0,1,.671.111,1.581,1.581,0,0,1,.561.381,1.213,1.213,0,0,1-.043,1.713.91.91,0,0,1-1.286-.032.663.663,0,0,1-.183-.476c0-.018,0-.038,0-.056a.5.5,0,1,0-.025-.957c-.39.128-.573.722-.58,1a1.262,1.262,0,0,0,.35.907,1.51,1.51,0,0,0,2.135.053,1.811,1.811,0,0,0,.064-2.563,2.166,2.166,0,0,0-.774-.525,2.2,2.2,0,0,0-.924-.154,2.582,2.582,0,0,0-1.548.613,3.13,3.13,0,0,0-.963,1.488m7.516,9.6a5.269,5.269,0,0,1-2.276-.54,5.274,5.274,0,0,1,1.526-1.777,4.507,4.507,0,0,1,1.544-.755,2.321,2.321,0,0,1,1.323,0,1.34,1.34,0,0,1,.646,1.989,2.321,2.321,0,0,1-1.068.781,4.483,4.483,0,0,1-1.692.3" transform="translate(-387.528 -116.206)" fill="#b07c3a"/><path d="M120.907,168.1a.3.3,0,0,0,.175.532,3.251,3.251,0,0,1,1.532.5,3.9,3.9,0,0,1,1.182,1.191,14.08,14.08,0,0,0,9.494,6.919,3.922,3.922,0,0,1,1.544.768,3.238,3.238,0,0,1,.948,1.3.3.3,0,0,0,.559,0,3.238,3.238,0,0,1,.949-1.3,3.909,3.909,0,0,1,1.535-.767,14.075,14.075,0,0,0,9.49-6.9,3.913,3.913,0,0,1,1.2-1.211,3.238,3.238,0,0,1,1.532-.5.3.3,0,0,0,.175-.532,3.238,3.238,0,0,1-.946-1.3,3.913,3.913,0,0,1-.256-1.667,14.22,14.22,0,0,0,.1-1.663,14,14,0,0,0-3.759-9.554,3.909,3.909,0,0,1-.758-1.482,3.242,3.242,0,0,1,0-1.611.3.3,0,0,0-.453-.328,3.251,3.251,0,0,1-1.533.5,3.876,3.876,0,0,1-1.592-.245,14.083,14.083,0,0,0-11.922,0,3.881,3.881,0,0,1-1.591.244,3.246,3.246,0,0,1-1.532-.5.3.3,0,0,0-.453.328,3.247,3.247,0,0,1,0,1.611,3.911,3.911,0,0,1-.752,1.473,14.064,14.064,0,0,0-3.661,11.226,3.913,3.913,0,0,1-.256,1.667,3.247,3.247,0,0,1-.946,1.3m1.537-1.163a14.008,14.008,0,0,0,.563,1.733l-.074-.048a3.872,3.872,0,0,0-1.192-.5,3.877,3.877,0,0,0,.671-1.1l.031-.081m.171-3.47a13.357,13.357,0,0,1,3.938-9.508,13.447,13.447,0,1,1-3.938,9.508m14.29,14.082h0a3.88,3.88,0,0,0-.844.98,3.886,3.886,0,0,0-.843-.98l-.076-.062a14.063,14.063,0,0,0,1.838,0l-.076.062m12.806-10.529a3.873,3.873,0,0,0,.671,1.1,3.869,3.869,0,0,0-1.193.5l-.075.048a14.007,14.007,0,0,0,.564-1.736l.032.088m-6.056-15.433a3.873,3.873,0,0,0,1.259-.3,3.872,3.872,0,0,0,.106,1.288l.022.088a14.138,14.138,0,0,0-1.47-1.07l.088,0Zm-16.443-.3a3.881,3.881,0,0,0,1.259.3l.083,0a14.147,14.147,0,0,0-1.469,1.07l.022-.082h0a3.886,3.886,0,0,0,.106-1.288" transform="translate(-114.096 -140.596)" fill="#b07c3a"/><path d="M317.727,380.18a3.124,3.124,0,0,0-1.708-.453,6.715,6.715,0,0,0-4.155,1.911,11.466,11.466,0,0,0-2.888,3.979,8.608,8.608,0,0,0-.438,1.231,8.771,8.771,0,0,0-1.307.037,11.483,11.483,0,0,0-4.676,1.518,6.718,6.718,0,0,0-3.1,3.363,3.135,3.135,0,0,0-.1,1.764,2.585,2.585,0,0,0,.894,1.4,2.2,2.2,0,0,0,.838.419,2.176,2.176,0,0,0,.935.03,1.812,1.812,0,0,0,1.455-2.112,1.51,1.51,0,0,0-1.759-1.211,1.261,1.261,0,0,0-.816.525,1.168,1.168,0,0,0-.116,1.147.5.5,0,1,0,.582-.759q.014-.024.03-.047a.664.664,0,0,1,.428-.278.91.91,0,0,1,1.059.73,1.213,1.213,0,0,1-.971,1.411,1.575,1.575,0,0,1-.678-.022,1.607,1.607,0,0,1-.613-.3,1.963,1.963,0,0,1-.688-1.08,2.571,2.571,0,0,1,.082-1.425,6.133,6.133,0,0,1,2.837-3.039,10.9,10.9,0,0,1,1.784-.835q-.1.082-.184.17a3.33,3.33,0,0,0-1.022,2.021,2.723,2.723,0,0,0,.218,1.454,2.671,2.671,0,0,0,.954,1.109,2.554,2.554,0,0,0,1.905.395,2.115,2.115,0,0,0,1.658-1.567,1.957,1.957,0,0,0-.143-1.384,1.763,1.763,0,0,0-1.249-.91,1.524,1.524,0,0,0-1.615.709,1.475,1.475,0,0,0-.193.811,1.383,1.383,0,0,0,.779,1.109.858.858,0,0,0,.893-.045.585.585,0,1,0-.893-.671.664.664,0,0,1-.175-.385.85.85,0,0,1,.11-.516.939.939,0,0,1,1.072-.4,1.155,1.155,0,0,1,.731.567,1.344,1.344,0,0,1,.114.9,1.506,1.506,0,0,1-1.2,1.188,1.953,1.953,0,0,1-1.456-.3,2.076,2.076,0,0,1-.744-.861,2.118,2.118,0,0,1-.167-1.132,2.739,2.739,0,0,1,.845-1.663,4.534,4.534,0,0,1,1.991-1.08,5.134,5.134,0,0,1,1.548-.163,5.872,5.872,0,0,0,.215,2.581,5.089,5.089,0,0,0,.916,1.722,2.909,2.909,0,0,0,1.364.963,1.94,1.94,0,0,0,2.466-1.792,2.911,2.911,0,0,0-.5-1.6,5.1,5.1,0,0,0-1.355-1.4,5.881,5.881,0,0,0-2.389-1,5.126,5.126,0,0,1,.634-1.421,4.53,4.53,0,0,1,1.642-1.561,2.74,2.74,0,0,1,1.838-.291,2.124,2.124,0,0,1,1.025.509,2.08,2.08,0,0,1,.589.974,1.954,1.954,0,0,1-.163,1.479,1.507,1.507,0,0,1-1.5.774,1.338,1.338,0,0,1-.824-.387,1.152,1.152,0,0,1-.313-.87.938.938,0,0,1,.712-.9.85.85,0,0,1,.525.055.666.666,0,0,1,.312.285.585.585,0,1,0,.362,1.056.857.857,0,0,0,.319-.835,1.384,1.384,0,0,0-.814-1.083,1.469,1.469,0,0,0-.831-.066,1.523,1.523,0,0,0-1.174,1.313,1.764,1.764,0,0,0,.48,1.47,1.959,1.959,0,0,0,1.272.564,2.117,2.117,0,0,0,2-1.092,2.551,2.551,0,0,0,.214-1.933,2.661,2.661,0,0,0-.76-1.25,2.726,2.726,0,0,0-1.313-.657,3.331,3.331,0,0,0-2.237.35q-.11.058-.219.123a10.927,10.927,0,0,1,1.345-1.439,6.137,6.137,0,0,1,3.763-1.759,2.56,2.56,0,0,1,1.38.362,1.967,1.967,0,0,1,.816.988,1.607,1.607,0,0,1,.1.673,1.578,1.578,0,0,1-.188.651,1.212,1.212,0,0,1-1.643.488.91.91,0,0,1-.367-1.232.662.662,0,0,1,.4-.321l.054-.014a.5.5,0,1,0,.9-.319,1.162,1.162,0,0,0-1.127-.243,1.259,1.259,0,0,0-.754.613,1.511,1.511,0,0,0,.613,2.048,1.813,1.813,0,0,0,2.458-.732,2.174,2.174,0,0,0,.263-.9,2.21,2.21,0,0,0-.139-.928,2.585,2.585,0,0,0-1.059-1.284m-5.5,11.747a1.252,1.252,0,0,1-1.138.209,2.316,2.316,0,0,1-1.073-.775,4.487,4.487,0,0,1-.805-1.518,5.267,5.267,0,0,1-.19-2.335,5.275,5.275,0,0,1,2.161.9,4.5,4.5,0,0,1,1.195,1.235,2.319,2.319,0,0,1,.4,1.259,1.252,1.252,0,0,1-.55,1.021" transform="translate(-277.175 -351.043)" fill="#b07c3a"/><path d="M165.16,55.469h0a6.722,6.722,0,0,0,4.485.9,11.474,11.474,0,0,0,4.675-1.521,8.649,8.649,0,0,0,1.079-.738,8.687,8.687,0,0,0,1.079.738,11.475,11.475,0,0,0,4.675,1.521q.493.048.963.048a6.126,6.126,0,0,0,3.524-.945,3.135,3.135,0,0,0,1.116-1.371,2.587,2.587,0,0,0,.1-1.663,2.206,2.206,0,0,0-.432-.832,2.179,2.179,0,0,0-.739-.573,1.813,1.813,0,0,0-2.418.853,1.51,1.51,0,0,0,.711,2.013,1.26,1.26,0,0,0,.97.053c.263-.092.769-.45.769-.86a.5.5,0,1,0-.917.271l-.053.021a.663.663,0,0,1-.51-.027.91.91,0,0,1-.428-1.212,1.212,1.212,0,0,1,1.617-.571,1.581,1.581,0,0,1,.536.416,1.609,1.609,0,0,1,.313.6,1.962,1.962,0,0,1-.079,1.279,2.563,2.563,0,0,1-.9,1.1,6.126,6.126,0,0,1-4.081.788,10.89,10.89,0,0,1-1.935-.373q.126-.011.249-.029a3.371,3.371,0,0,0,2.013-1.034,2.721,2.721,0,0,0,.678-1.3,2.671,2.671,0,0,0-.12-1.458,2.556,2.556,0,0,0-1.313-1.439,2.118,2.118,0,0,0-2.262.294,1.958,1.958,0,0,0-.7,1.2,1.762,1.762,0,0,0,.475,1.47,1.524,1.524,0,0,0,1.723.375,1.472,1.472,0,0,0,.634-.543,1.385,1.385,0,0,0,.021-1.356.858.858,0,0,0-.749-.487.585.585,0,1,0,.327,1.069.666.666,0,0,1-.088.414.85.85,0,0,1-.393.35.939.939,0,0,1-1.1-.306,1.156,1.156,0,0,1-.257-.889,1.336,1.336,0,0,1,.438-.8,1.506,1.506,0,0,1,1.668-.256,1.952,1.952,0,0,1,1,1.1,2.075,2.075,0,0,1,.1,1.138,2.124,2.124,0,0,1-.529,1.014,2.739,2.739,0,0,1-1.663.846,4.525,4.525,0,0,1-2.246-.3,5.137,5.137,0,0,1-1.349-.778,5.877,5.877,0,0,0,1.343-2.215,5.108,5.108,0,0,0,.271-1.932,2.909,2.909,0,0,0-.536-1.583,1.941,1.941,0,0,0-3.048,0,2.914,2.914,0,0,0-.536,1.583,5.1,5.1,0,0,0,.271,1.932,5.872,5.872,0,0,0,1.343,2.215,5.132,5.132,0,0,1-1.349.778,4.521,4.521,0,0,1-2.246.3,2.739,2.739,0,0,1-1.663-.846,2.12,2.12,0,0,1-.529-1.014,2.074,2.074,0,0,1,.1-1.138,1.953,1.953,0,0,1,1-1.1,1.506,1.506,0,0,1,1.668.256,1.337,1.337,0,0,1,.438.8,1.154,1.154,0,0,1-.257.889.938.938,0,0,1-1.1.306.852.852,0,0,1-.393-.35.668.668,0,0,1-.088-.414.585.585,0,1,0,.328-1.069.858.858,0,0,0-.749.487,1.385,1.385,0,0,0,.021,1.356,1.472,1.472,0,0,0,.634.543,1.524,1.524,0,0,0,1.723-.375,1.763,1.763,0,0,0,.475-1.47,1.959,1.959,0,0,0-.7-1.2,2.117,2.117,0,0,0-2.262-.293,2.553,2.553,0,0,0-1.313,1.439,2.669,2.669,0,0,0-.12,1.458,2.722,2.722,0,0,0,.678,1.3,3.372,3.372,0,0,0,2.013,1.034q.123.018.249.029a10.891,10.891,0,0,1-1.935.373,6.133,6.133,0,0,1-4.082-.788,2.565,2.565,0,0,1-.9-1.1,1.963,1.963,0,0,1-.079-1.279,1.612,1.612,0,0,1,.313-.6,1.575,1.575,0,0,1,.536-.416,1.211,1.211,0,0,1,1.616.571.909.909,0,0,1-.428,1.212.663.663,0,0,1-.51.027l-.052-.021a.5.5,0,1,0-.917-.271c0,.41.509.768.769.86a1.26,1.26,0,0,0,.97-.053,1.511,1.511,0,0,0,.712-2.013,1.813,1.813,0,0,0-2.418-.853,2.175,2.175,0,0,0-.739.574,2.207,2.207,0,0,0-.432.832,2.585,2.585,0,0,0,.1,1.663,3.131,3.131,0,0,0,1.115,1.371m9.19-7.138a1.341,1.341,0,0,1,2.092,0,2.32,2.32,0,0,1,.413,1.257,4.5,4.5,0,0,1-.242,1.7,5.268,5.268,0,0,1-1.217,2,5.275,5.275,0,0,1-1.218-2,4.5,4.5,0,0,1-.241-1.7,2.32,2.32,0,0,1,.412-1.257" transform="translate(-153.436 -47.221)" fill="#b07c3a"/><path d="M87.88,393.532a3.133,3.133,0,0,0-.1-1.764,6.719,6.719,0,0,0-3.1-3.363,11.48,11.48,0,0,0-4.676-1.518,8.556,8.556,0,0,0-1.307-.038,8.647,8.647,0,0,0-.438-1.231,11.465,11.465,0,0,0-2.888-3.979,6.717,6.717,0,0,0-4.156-1.911,3.127,3.127,0,0,0-1.708.453,2.584,2.584,0,0,0-1.058,1.284,2.2,2.2,0,0,0-.139.927,2.172,2.172,0,0,0,.263.9,1.813,1.813,0,0,0,2.458.731,1.51,1.51,0,0,0,.613-2.047,1.257,1.257,0,0,0-.754-.613,1.164,1.164,0,0,0-1.127.243.5.5,0,1,0,.9.319l.054.014a.664.664,0,0,1,.4.321.91.91,0,0,1-.367,1.232A1.212,1.212,0,0,1,69.107,383a1.575,1.575,0,0,1-.189-.651,1.6,1.6,0,0,1,.1-.673,1.966,1.966,0,0,1,.815-.988,2.556,2.556,0,0,1,1.381-.362,6.131,6.131,0,0,1,3.763,1.759,10.907,10.907,0,0,1,1.346,1.439q-.109-.066-.219-.123a3.326,3.326,0,0,0-2.237-.35,2.723,2.723,0,0,0-1.313.656,2.673,2.673,0,0,0-.76,1.25,2.555,2.555,0,0,0,.214,1.934,2.116,2.116,0,0,0,2,1.091,1.953,1.953,0,0,0,1.272-.565,1.762,1.762,0,0,0,.48-1.469,1.522,1.522,0,0,0-1.173-1.313,1.463,1.463,0,0,0-.831.066,1.385,1.385,0,0,0-.814,1.084.858.858,0,0,0,.319.835.585.585,0,1,0,.363-1.056.668.668,0,0,1,.312-.285.851.851,0,0,1,.525-.054.938.938,0,0,1,.712.9,1.155,1.155,0,0,1-.314.871,1.337,1.337,0,0,1-.824.387,1.505,1.505,0,0,1-1.5-.774,1.953,1.953,0,0,1-.163-1.479,2.077,2.077,0,0,1,.589-.974,2.119,2.119,0,0,1,1.025-.509,2.742,2.742,0,0,1,1.838.29,4.531,4.531,0,0,1,1.642,1.56,5.113,5.113,0,0,1,.634,1.421,5.874,5.874,0,0,0-2.388,1,5.094,5.094,0,0,0-1.355,1.4,2.906,2.906,0,0,0-.5,1.6,1.94,1.94,0,0,0,2.466,1.792,2.912,2.912,0,0,0,1.363-.963,5.094,5.094,0,0,0,.916-1.722,5.874,5.874,0,0,0,.215-2.582,5.132,5.132,0,0,1,1.548.163,4.537,4.537,0,0,1,1.991,1.08,2.741,2.741,0,0,1,.846,1.663,2.122,2.122,0,0,1-.168,1.133,2.079,2.079,0,0,1-.745.861,1.96,1.96,0,0,1-1.456.3,1.507,1.507,0,0,1-1.2-1.188,1.337,1.337,0,0,1,.114-.9,1.153,1.153,0,0,1,.73-.567.939.939,0,0,1,1.072.4.848.848,0,0,1,.11.516.665.665,0,0,1-.175.385.585.585,0,1,0-.894.671.859.859,0,0,0,.893.045,1.384,1.384,0,0,0,.78-1.109,1.472,1.472,0,0,0-.194-.811,1.524,1.524,0,0,0-1.614-.709,1.764,1.764,0,0,0-1.249.91,1.959,1.959,0,0,0-.144,1.384,2.116,2.116,0,0,0,1.657,1.567,2.551,2.551,0,0,0,1.9-.395,2.664,2.664,0,0,0,.954-1.109,2.718,2.718,0,0,0,.218-1.454,3.331,3.331,0,0,0-1.021-2.021q-.088-.087-.185-.17a10.838,10.838,0,0,1,1.784.835,6.132,6.132,0,0,1,2.837,3.039,2.57,2.57,0,0,1,.074,1.428,1.963,1.963,0,0,1-.688,1.08,1.611,1.611,0,0,1-.608.3,1.583,1.583,0,0,1-.678.022,1.211,1.211,0,0,1-.972-1.411.91.91,0,0,1,1.059-.73.665.665,0,0,1,.429.278q.016.023.03.047a.5.5,0,1,0,.582.759,1.167,1.167,0,0,0-.116-1.147,1.262,1.262,0,0,0-.815-.525,1.511,1.511,0,0,0-1.759,1.212,1.812,1.812,0,0,0,1.455,2.111,2.2,2.2,0,0,0,.4.037,2.178,2.178,0,0,0,.534-.066,2.214,2.214,0,0,0,.838-.419,2.584,2.584,0,0,0,.894-1.4m-10.657-2.168a2.317,2.317,0,0,1-1.073.775,1.34,1.34,0,0,1-1.693-1.23,2.322,2.322,0,0,1,.405-1.259,4.493,4.493,0,0,1,1.195-1.234,5.269,5.269,0,0,1,2.161-.9,5.271,5.271,0,0,1-.191,2.334h0a4.49,4.49,0,0,1-.805,1.518" transform="translate(-66.13 -351.049)" fill="#b07c3a"/><path d="M523.958,379.6h0a1.755,1.755,0,0,0-.323-.669,2.015,2.015,0,0,0-.623-.516l-.149-.081-.147.088a2.14,2.14,0,0,1-.543.233,1.874,1.874,0,0,1-.549.054.3.3,0,0,0-.175.55,1.888,1.888,0,0,1,.411.367,2.157,2.157,0,0,1,.3.506l.069.156.169.021a2.326,2.326,0,0,0,.287.018,1.9,1.9,0,0,0,.52-.07,1.763,1.763,0,0,0,.655-.35l.142-.121Zm-.647-.044a1.125,1.125,0,0,1-.27.118,1.319,1.319,0,0,1-.407.046,2.632,2.632,0,0,0-.311-.481v0h.005a2.616,2.616,0,0,0,.534-.207,1.314,1.314,0,0,1,.3.277,1.12,1.12,0,0,1,.149.254" transform="translate(-480.07 -349.767)" fill="#b07c3a"/><path d="M287.4,548.32h0a1.839,1.839,0,0,1-.221-.5l-.032-.113h-.028a.3.3,0,0,0-.519.113,1.86,1.86,0,0,1-.221.5,2.1,2.1,0,0,1-.389.444l-.126.115.032.166a2.013,2.013,0,0,0,.3.752,1.759,1.759,0,0,0,.536.514l.158.1.159-.1a1.761,1.761,0,0,0,.536-.513,2.013,2.013,0,0,0,.3-.754l.031-.166-.126-.114a2.107,2.107,0,0,1-.388-.443m-.316,1.138a.2.2,0,1,1-.39,0,1.315,1.315,0,0,1-.17-.373,2.576,2.576,0,0,0,.361-.445v0a2.563,2.563,0,0,0,.361.445,1.313,1.313,0,0,1-.17.373Z" transform="translate(-264.922 -504.436)" fill="#b07c3a"/><path d="M45.594,379.241a.3.3,0,0,0-.175-.55,1.874,1.874,0,0,1-.547-.054,2.184,2.184,0,0,1-.542-.232l-.147-.088-.149.082a2.013,2.013,0,0,0-.622.516,1.756,1.756,0,0,0-.322.669l-.045.181.143.121a1.749,1.749,0,0,0,.654.35,1.893,1.893,0,0,0,.52.07,2.337,2.337,0,0,0,.289-.018l.167-.023.068-.154a2.176,2.176,0,0,1,.3-.507,1.907,1.907,0,0,1,.41-.365m-.871-.022v.005a2.574,2.574,0,0,0-.311.481,1.332,1.332,0,0,1-.408-.046,1.1,1.1,0,0,1-.27-.117,1.119,1.119,0,0,1,.149-.254,1.319,1.319,0,0,1,.3-.277,2.571,2.571,0,0,0,.534.206h.006" transform="translate(-43.045 -349.757)" fill="#b07c3a"/><path d="M138.251,97.319l.168.018a2.12,2.12,0,0,1,.575.13,1.858,1.858,0,0,1,.474.277l.043.033h.01a.3.3,0,0,0,.132.032.3.3,0,0,0,.284-.405,1.861,1.861,0,0,1-.117-.536,2.17,2.17,0,0,1,.053-.587l.036-.166L139.785,96a2.013,2.013,0,0,0-.684-.432,1.761,1.761,0,0,0-.735-.1l-.186.013-.071.175a1.75,1.75,0,0,0-.132.73,2.013,2.013,0,0,0,.2.788Zm.969-.415v.006h-.005a2.617,2.617,0,0,0-.553-.146,1.327,1.327,0,0,1-.082-.4.2.2,0,1,1,.317-.229,1.306,1.306,0,0,1,.356.2,2.58,2.58,0,0,0-.031.572" transform="translate(-129.793 -91.295)" fill="#b07c3a"/><path d="M46.081,134.693a5.1,5.1,0,0,0,1.925.34,5.881,5.881,0,0,0,2.521-.593,5.115,5.115,0,0,1,.323,1.523,4.523,4.523,0,0,1-.411,2.227,2.743,2.743,0,0,1-1.322,1.317,2.127,2.127,0,0,1-1.129.19,2.075,2.075,0,0,1-1.05-.442,1.955,1.955,0,0,1-.737-1.292,1.507,1.507,0,0,1,.759-1.508,1.339,1.339,0,0,1,.894-.171,1.153,1.153,0,0,1,.766.519.939.939,0,0,1-.049,1.143.852.852,0,0,1-.457.263.665.665,0,0,1-.42-.047.585.585,0,1,0-.915-.642.858.858,0,0,0,.233.864,1.385,1.385,0,0,0,1.3.4,1.472,1.472,0,0,0,.712-.438,1.524,1.524,0,0,0,.175-1.75,1.761,1.761,0,0,0-1.252-.906,1.96,1.96,0,0,0-1.36.291,2.116,2.116,0,0,0-.978,2.06,2.552,2.552,0,0,0,.963,1.69,2.668,2.668,0,0,0,1.35.565,2.723,2.723,0,0,0,1.45-.242,3.326,3.326,0,0,0,1.606-1.6q.055-.111.1-.228a10.893,10.893,0,0,1-.243,1.954,6.134,6.134,0,0,1-2.013,3.637,2.565,2.565,0,0,1-1.329.518,1.965,1.965,0,0,1-1.24-.32,1.605,1.605,0,0,1-.478-.484,1.576,1.576,0,0,1-.23-.639,1.212,1.212,0,0,1,1.041-1.36.91.91,0,0,1,1.021.782.663.663,0,0,1-.132.494c-.011.015-.024.029-.036.043a.5.5,0,1,0-.542.788c.39.128.888-.247,1.056-.466a1.261,1.261,0,0,0,.249-.938,1.51,1.51,0,0,0-1.7-1.3,1.813,1.813,0,0,0-1.559,2.036,2.173,2.173,0,0,0,.318.875,2.206,2.206,0,0,0,.657.668,2.578,2.578,0,0,0,1.42.424q.1,0,.192-.007a3.134,3.134,0,0,0,1.648-.637,6.719,6.719,0,0,0,2.239-3.989,11.465,11.465,0,0,0,0-4.916,8.634,8.634,0,0,0-.37-1.246,8.634,8.634,0,0,0,1.034-.8,11.471,11.471,0,0,0,2.888-3.977,6.717,6.717,0,0,0,.533-4.543,3.136,3.136,0,0,0-.963-1.488A2.587,2.587,0,0,0,53,122.726a2.214,2.214,0,0,0-.924.154,2.17,2.17,0,0,0-.774.525,1.813,1.813,0,0,0,.065,2.563,1.511,1.511,0,0,0,2.136-.054,1.259,1.259,0,0,0,.35-.906c-.007-.276-.19-.871-.58-1a.5.5,0,1,0-.025.957v.056a.663.663,0,0,1-.183.476.91.91,0,0,1-1.286.032,1.212,1.212,0,0,1-.043-1.714,1.575,1.575,0,0,1,.561-.381,1.6,1.6,0,0,1,.67-.111,1.965,1.965,0,0,1,1.192.469,2.571,2.571,0,0,1,.771,1.2,6.135,6.135,0,0,1-.509,4.127,10.88,10.88,0,0,1-.953,1.725q.029-.123.05-.246a3.326,3.326,0,0,0-.361-2.235,2.72,2.72,0,0,0-1.031-1.05,2.668,2.668,0,0,0-1.424-.336,2.553,2.553,0,0,0-1.773.8,2.117,2.117,0,0,0-.419,2.241,1.959,1.959,0,0,0,.929,1.035,1.764,1.764,0,0,0,1.546,0,1.525,1.525,0,0,0,.888-1.523,1.473,1.473,0,0,0-.32-.77,1.386,1.386,0,0,0-1.282-.438.858.858,0,0,0-.7.562.585.585,0,1,0,1.118.018.664.664,0,0,1,.368.209.845.845,0,0,1,.214.482.939.939,0,0,1-.632.954,1.154,1.154,0,0,1-.925-.03,1.342,1.342,0,0,1-.623-.664,1.505,1.505,0,0,1,.272-1.663,1.952,1.952,0,0,1,1.357-.613,2.079,2.079,0,0,1,1.108.263,2.121,2.121,0,0,1,.8.817,2.737,2.737,0,0,1,.291,1.838,4.533,4.533,0,0,1-.976,2.045,5.123,5.123,0,0,1-1.156,1.042,5.879,5.879,0,0,0-1.692-1.962,5.1,5.1,0,0,0-1.75-.855,2.914,2.914,0,0,0-1.671.02,1.941,1.941,0,0,0-.943,2.9,2.91,2.91,0,0,0,1.34,1m1.126-3.334a4.489,4.489,0,0,1,1.543.754,5.269,5.269,0,0,1,1.526,1.777,5.269,5.269,0,0,1-2.276.54,4.49,4.49,0,0,1-1.693-.3,2.317,2.317,0,0,1-1.068-.782,1.251,1.251,0,0,1-.154-1.15h0a1.252,1.252,0,0,1,.8-.839,1.864,1.864,0,0,1,.619-.1,2.888,2.888,0,0,1,.7.094" transform="translate(-44.294 -116.212)" fill="#b07c3a"/><path d="M198.68,234.065v-.291a1.138,1.138,0,0,0,.508-.147c.525-.4.446-.955.447-1.657,0-3.965.009-12.137.009-12.137l1.86-.04a.7.7,0,0,1,.71.7c0,1.518-.011,5.1-.011,7.033,0,.74.046,1.481.027,2.22a4.186,4.186,0,0,1-1.984,3.9,34.6,34.6,0,0,0,4.122-.046,1.19,1.19,0,0,0,.857-.671,8.684,8.684,0,0,0,.626-1.581c.165-.438.311-.875.506-1.3a3.315,3.315,0,0,1,4.108-1.975c0,.032.01.088,0,.093a2.3,2.3,0,0,0-1.254,1.546c-.215.655-.438,1.307-.683,1.951-.71,1.876-1.663,2.408-3.664,2.409h-6.183" transform="translate(-185.261 -204.903)" fill="#575756"/><path d="M243.13,219.746a.019.019,0,0,1,0-.038,7,7,0,0,1,2.835.6,4.324,4.324,0,0,1,2.574,4.887,3.713,3.713,0,0,1-1.855,2.538,5.777,5.777,0,0,1-3.045.753.044.044,0,0,1-.008-.088,2.549,2.549,0,0,0,1.838-2.566,16.478,16.478,0,0,0-.007-3,3.271,3.271,0,0,0-2.339-3.082" transform="translate(-225.864 -204.827)" fill="#575756"/><path d="M308.646,225.421l-1.1,3.409a6.086,6.086,0,0,0-.741.192c.461-.987,1.983-6.171,2.573-7.52a.1.1,0,0,1,.19-.006c1.75,4.777,3.56,9.444,5.209,13.041a1.261,1.261,0,0,0,1.1.695l.029.35-2.7-.029a.988.988,0,0,1-.858-.481c-.727-1.476-3.7-9.647-3.7-9.647" transform="translate(-284.062 -206.406)" fill="#575756"/></g><g transform="translate(-0.001 55.901)"><path d="M626.688,190.981h-.047c-4.014.022-7.264,1.806-7.264,4.546a2.708,2.708,0,0,0,2.673,2.735,2.381,2.381,0,0,0,2.276-1.41l.056-.12-.12-.056c-1.056-.492-1.709-.985-1.709-1.916,0-1.869,1.076-2.825,3.2-2.845a6.057,6.057,0,0,1,3.816,1.187,4.432,4.432,0,0,1,1.237,3.238,4.026,4.026,0,0,1-4.225,4.384h-2.805l.1-2.451-.207.141a3.572,3.572,0,0,1-2.293.447l.031,4.834c0,2.633-.419,2.555-.775,2.555H620.5v.463h4.071v-.463h-.133c-.455,0-.663,0-.663-2.635l-.035-2.088h3.21a6.805,6.805,0,0,0,4.551-1.617,4.869,4.869,0,0,0,1.722-3.573,4.934,4.934,0,0,0-1.53-3.43,6.988,6.988,0,0,0-5-1.925" transform="translate(-619.377 -190.965)" fill="#575756"/><path d="M805.622,229.951c-.119,1.779-.963,2.8-2.326,2.8-.549,0-1.225-.164-2.354-2.114a4.4,4.4,0,0,0-1.77-1.925c3.427-.384,5.462-1.89,5.462-4.058,0-2.507-2.112-4.191-5.256-4.191a6.363,6.363,0,0,0-5.736,3.625v-1.161a3.482,3.482,0,0,0-.82-2.538l-.038-.035h-2.437l.05.5h.116c.621,0,.893.276.893,2.917v6.6c0,2.6-.164,2.713-.731,2.713h-.129v.46h3.609v-.454l-.121-.007c-.4-.023-.408-.317-.4-1.56v-4.456a5.474,5.474,0,0,1,5.251-5.659,2.915,2.915,0,0,1,3.273,3.248c0,2.1-1.683,3.3-4.618,3.3h-2.718v.364l1.3.221c1.093.186,1.727,1.283,2.4,2.444.852,1.477,1.82,3.151,3.985,3.151,2.251,0,3.49-1.483,3.49-4.174v-.129h-.375Z" transform="translate(-775.599 -217.803)" fill="#575756"/><path d="M991.583,221.639c-3.823,0-6.389,1.7-6.389,4.222a2.7,2.7,0,0,0,2.706,2.692,2.306,2.306,0,0,0,2.3-1.6l.054-.116-.116-.054a2.9,2.9,0,0,1-1.833-2.634c0-1.015,1.3-1.7,3.239-1.7a5.02,5.02,0,0,1,4.026,1.625,7,7,0,0,1,1.373,4.644c0,3.387-1.843,5.177-5.329,5.177-3.278,0-5.164-1.767-5.448-5.11l-.005-.064-.054-.034a3.332,3.332,0,0,1-1.567-2.831c0-.144.007-.287.02-.428l.066-.688-.308.619a6.387,6.387,0,0,0-.651,2.877c0,3.949,3.163,6.6,7.871,6.6s7.872-2.653,7.872-6.6-3.143-6.6-7.821-6.6" transform="translate(-952.241 -218.978)" fill="#575756"/><path d="M1422.593,224.372l-.116.054.054.116a2.714,2.714,0,0,0,2.222,1.566,2.23,2.23,0,0,0,2.224-2.232c0-2.276-2.7-3.8-6.719-3.8-4.632,0-7.744,2.713-7.744,6.754,0,3.858,3.3,6.449,8.2,6.449a6.3,6.3,0,0,0,6.009-3.839l.045-.117-.845-.35-.049.119a5.569,5.569,0,0,1-5.085,3.246c-3.769,0-5.761-2.044-5.761-5.913,0-3.537,1.764-5.405,5.1-5.405,1.993,0,3.333.788,3.333,1.955a1.354,1.354,0,0,1-.875,1.4" transform="translate(-1344.105 -217.549)" fill="#575756"/><path d="M1595.6,223.947a3.174,3.174,0,0,0,3.288,3.038,2.475,2.475,0,0,0,2.665-2.214v-.129h-.129c-1.3,0-2.167-.7-2.167-1.736,0-1.575,1.238-1.9,2.276-1.9.4,0,.788-.012,1.162-.024a16.733,16.733,0,0,1,1.925.012v9.023c0,2.713-.649,2.713-.893,2.713h-.129v.46h4.279v-.464h-.132a.526.526,0,0,1-.417-.143c-.318-.308-.472-1.15-.472-2.572v-9.015h2.309c2.464,0,3.326.036,3.594.742l.166.547h.516v-2.324h-12.488c-3.453,0-5.354,1.413-5.354,3.98" transform="translate(-1511.4 -217.451)" fill="#575756"/><path d="M1905.863,196.915a2.256,2.256,0,0,0-2.337,2.159,2.108,2.108,0,0,0,.809,1.624l.1.077.081-.093a1.986,1.986,0,0,1,1.477-.87,1.339,1.339,0,0,1,1.394,1.37,4.266,4.266,0,0,1-.5,1.75l-4.021,7.223a4.6,4.6,0,0,0-.206-.5l-4.443-8.936-.005-.01c-.367-.74-.853-1.61-1.366-1.781l-.02-.006h-3.627v.368l.9.116c.695.088,1.278.646,1.833,1.758l5.372,11.028.613,1.593,5.789-10.443a7.077,7.077,0,0,0,.931-3.349,2.9,2.9,0,0,0-2.769-3.073" transform="translate(-1783.323 -196.387)" fill="#575756"/><path d="M1236.8,296.1a12.253,12.253,0,0,0-.793,1.874c-.082.228-.167.463-.255.691l-.016.04c-.318.829-.62,1.612-1.7,1.942l-.468.143.478.105a6.522,6.522,0,0,0,1.4.163,3.737,3.737,0,0,0,3.577-2.23,15.466,15.466,0,0,0,.659-1.671c.1-.3.214-.613.331-.913.291-.749.567-1.457,1.588-1.737l.511-.14-.518-.109c-2.261-.478-3.828.124-4.793,1.838" transform="translate(-1180.597 -285.187)" fill="#575756"/><path d="M2098.313,230.3l-.384.048-.157.613c-.359.888-1.769,1.339-4.194,1.339h-5.592a4.057,4.057,0,0,0,.415-2.233v-2.837l.438-.251a4.338,4.338,0,0,1,2.1-.656c.679,0,1.635.361,1.635,1.161a2.132,2.132,0,0,1-.746,1.353l-.088.088.092.088a2.235,2.235,0,0,0,1.543.677,2.029,2.029,0,0,0,2.033-2.02c0-1.633-1.27-2.73-3.16-2.73a7.811,7.811,0,0,0-3.78,1.185l-.07.04v-2.832h0a4.813,4.813,0,0,0-.42-2.369h5.6c2.425,0,3.835.451,4.194,1.338l.158.613.383.048v-2.034a3.853,3.853,0,0,0,0-.487c-.014-.194-.191-.425-.952-.425h-12.217v.46h.128c.567,0,.893,1.1.893,3.022v6.558c0,2.713-.626,2.713-.893,2.713h-.128v.46h12.214c.762,0,.939-.232.952-.426a4.133,4.133,0,0,0,0-.486Z" transform="translate(-1958.716 -217.512)" fill="#575756"/><path d="M1825.15,220.057h.128c.432,0,.893.233.893,3.019v6.588c0,2.526-.35,2.713-.893,2.713h-.128v.46h4.279v-.46h-.129c-.539,0-.893-.189-.893-2.713v-6.592c0-2.786.461-3.019.893-3.019h.129v-.468h-4.279Z" transform="translate(-1721.151 -217.104)" fill="#575756"/><path d="M1303.416,206.072c-.685,0-1.061-.847-1.067-.861-1.041-2.131-2.048-4.53-3.021-6.85-1.051-2.511-2.143-5.109-3.311-7.459a.214.214,0,0,0-.387.016c-.569,1.44-2.5,6.1-3,7.264l-.114.27.275-.1a1.851,1.851,0,0,1,.672-.126l.095.007,1.279-3.211c.751,1.629,1.846,4.256,2.818,6.589.809,1.94,1.508,3.616,1.848,4.333a1.16,1.16,0,0,0,.985.613h.026l3.055-.026v-.459h-.156" transform="translate(-1234.458 -190.787)" fill="#575756"/><path d="M1095.876,436.058a1.181,1.181,0,0,0,.337-.825,1.143,1.143,0,0,0-1.225-1.188h-1.736v4.791h1.736a1.461,1.461,0,0,0,1.562-1.524,1.521,1.521,0,0,0-.672-1.254m-.89,2.146H1093.9V436.42h1.085a.892.892,0,1,1,0,1.784m0-2.416H1093.9v-1.112h1.085a.556.556,0,0,1,0,1.112" transform="translate(-1052.379 -413.064)" fill="#575756"/><path d="M1155.115,436.675l-1.286-2.63h-.71l1.638,3.351-.7,1.44h.709l2.349-4.791h-.71Z" transform="translate(-1107.084 -413.064)" fill="#575756"/><path d="M1271.7,434.045h-1.6v4.791h.651v-1.743h.95a1.524,1.524,0,1,0,0-3.047m0,2.416h-.95v-1.784h.95a.892.892,0,1,1,0,1.784" transform="translate(-1213.973 -413.064)" fill="#575756"/><path d="M1334.433,439.6a1.209,1.209,0,0,1-2.416,0v-3.034h-.651V439.6a1.859,1.859,0,1,0,3.719,0v-3.034h-.651Z" transform="translate(-1269.954 -415.367)" fill="#575756"/><path d="M1402.209,435.568a1.461,1.461,0,0,0-1.562-1.524h-1.6v4.791h.65v-1.743h.725l1.376,1.743h.855l-1.439-1.828a1.44,1.44,0,0,0,1-1.438m-2.512-.892h.951a.892.892,0,1,1,0,1.784h-.951Z" transform="translate(-1331.8 -413.064)" fill="#575756"/><path d="M1466.88,438.836h2.852v-.629h-2.2v-1.784h2.073v-.631h-2.073V434.68h2.2v-.631h-2.852Z" transform="translate(-1393.781 -413.065)" fill="#575756"/><path d="M1571.847,434.045h-.651v4.791h2.776v-.629h-2.125Z" transform="translate(-1489.104 -413.064)" fill="#575756"/><rect width="0.651" height="4.791" transform="translate(87.338 20.981)" fill="#575756"/><path d="M1673.468,437.824l-2.752-3.779h-.7v4.791h.651v-3.78l2.752,3.779h.7v-4.791h-.65Z" transform="translate(-1579.393 -413.064)" fill="#575756"/><path d="M1745.9,434.676v-.631h-2.853v4.791h2.853v-.629h-2.2v-1.784h2.073v-.631H1743.7V434.68Z" transform="translate(-1646.132 -413.064)" fill="#575756"/></g></g></g></svg>