<svg xmlns="http://www.w3.org/2000/svg" xmlns:xlink="http://www.w3.org/1999/xlink" width="260" height="130" viewBox="0 0 260 130"><defs><clipPath id="a"><rect width="260" height="130"/></clipPath></defs><g clip-path="url(#a)"><rect width="260" height="130" fill="rgba(255,255,255,0)"/><g transform="translate(-1188.713 -397.266)"><g transform="translate(1217.028 423.684)"><g transform="translate(0 0)"><g transform="translate(0 0)"><ellipse cx="19.002" cy="19.03" rx="19.002" ry="19.03" transform="translate(10.561 10.668)" fill="#3753a0"/><g transform="translate(59.339 54.573) rotate(175.008)"><path d="M40.109,21.888V20.043A20.054,20.054,0,1,0,28.22,38.373" transform="translate(54.791 34.738) rotate(150)" fill="none" stroke="#fff" stroke-linejoin="round" stroke-width="3"/></g><path d="M11.182,17.944a2.045,2.045,0,0,1,2.919,0,2.1,2.1,0,0,1,0,2.919L8.689,29.255a2.116,2.116,0,0,1-2.978,0l-5.1-8.572a2.045,2.045,0,0,1,0-2.919,2.045,2.045,0,0,1,2.919,0L5.9,21.522,4.931.325C7.154.134,7.078.049,8.939,0c0,0-.027.148-.2,2.821s.623,17.985.623,17.985Z" transform="translate(35.642 8.768) rotate(42)" fill="#fff"/></g><g transform="translate(24.442 0.137)"><ellipse cx="19.002" cy="19.03" rx="19.002" ry="19.03" transform="translate(10.708 10.531)" fill="#e83b5a"/><g transform="translate(4.748 0) rotate(4.992)"><path d="M40.179,21.194c-1.642,9.383-6.241,15.29-14.685,17.795A19.813,19.813,0,0,1,4.79,7.09C10.52.4,19.237-.408,22.086.141" transform="translate(34.796 54.577) rotate(-150)" fill="none" stroke="#fff" stroke-linejoin="round" stroke-width="3"/></g><path d="M11.182,17.9a2.045,2.045,0,0,1,2.919,0,2.1,2.1,0,0,1,0,2.919l-5.41,8.39a2.116,2.116,0,0,1-2.978,0l-5.1-8.572a2.045,2.045,0,0,1,0-2.919,2.045,2.045,0,0,1,2.919,0L5.9,21.478,5.37.984C7.621.88,6.744-.015,8.694,0l.671,20.764Z" transform="translate(22.786 50.926) rotate(-138)" fill="#fff"/></g></g><path d="M20.516,49.918a8.487,8.487,0,0,0,3.331-.623,6.848,6.848,0,0,0,2.492-1.768,7.746,7.746,0,0,0,1.551-2.772,11.712,11.712,0,0,0,.534-3.661V19.126h7.628V41.095a17.043,17.043,0,0,1-1.08,6.166,13.906,13.906,0,0,1-3.092,4.844A14.083,14.083,0,0,1,27,55.284a17.4,17.4,0,0,1-6.484,1.144,17.5,17.5,0,0,1-6.5-1.144A14.058,14.058,0,0,1,9.126,52.1a13.906,13.906,0,0,1-3.092-4.844,17.043,17.043,0,0,1-1.081-6.166V19.126h7.628V41.095a11.712,11.712,0,0,0,.534,3.661,7.746,7.746,0,0,0,1.551,2.772A6.848,6.848,0,0,0,17.157,49.3,8.556,8.556,0,0,0,20.516,49.918ZM60.718,26.2a2.9,2.9,0,0,1-.724.852,1.587,1.587,0,0,1-.954.267,2.354,2.354,0,0,1-1.207-.394q-.649-.394-1.512-.852a14.661,14.661,0,0,0-1.983-.851,7.883,7.883,0,0,0-2.622-.4A5.791,5.791,0,0,0,47.749,26,3.949,3.949,0,0,0,46.427,29.1a2.9,2.9,0,0,0,.725,2.021A6.3,6.3,0,0,0,49.059,32.5a17.722,17.722,0,0,0,2.68,1.042q1.5.458,3.077,1a27.084,27.084,0,0,1,3.077,1.284,10.822,10.822,0,0,1,2.68,1.855,8.506,8.506,0,0,1,1.913,2.731,9.565,9.565,0,0,1,.725,3.928,12.613,12.613,0,0,1-.878,4.717,11.185,11.185,0,0,1-2.53,3.839,11.71,11.71,0,0,1-4.081,2.581,15.147,15.147,0,0,1-5.505.941,17.418,17.418,0,0,1-3.5-.356,20.166,20.166,0,0,1-3.356-.992,18.515,18.515,0,0,1-3.039-1.526,13.357,13.357,0,0,1-2.491-1.983l2.238-3.611a2.261,2.261,0,0,1,.737-.673,1.889,1.889,0,0,1,.966-.267,2.636,2.636,0,0,1,1.449.509q.763.509,1.754,1.119a14.2,14.2,0,0,0,2.3,1.12,8.678,8.678,0,0,0,3.141.509,6.274,6.274,0,0,0,4.132-1.22,4.467,4.467,0,0,0,1.462-3.636,3.405,3.405,0,0,0-.724-2.264,5.828,5.828,0,0,0-1.895-1.449,15.013,15.013,0,0,0-2.67-1q-1.5-.419-3.077-.928a25.246,25.246,0,0,1-3.079-1.22,9.519,9.519,0,0,1-2.67-1.882A8.912,8.912,0,0,1,40,33.772a11.152,11.152,0,0,1-.725-4.3,10.21,10.21,0,0,1,3.2-7.422,11.962,11.962,0,0,1,3.877-2.416,14.192,14.192,0,0,1,5.276-.915A17.932,17.932,0,0,1,57.8,19.753,13.826,13.826,0,0,1,62.6,22.613ZM73.838,25.1v9.484H86.145v5.773H73.838v9.69H89.653V56.02H66.159V19.126H89.653V25.1Zm53.8,12.459a20.31,20.31,0,0,1-1.363,7.5,17.576,17.576,0,0,1-3.839,5.975,17.758,17.758,0,0,1-5.96,3.953,21.513,21.513,0,0,1-15.462,0,17.9,17.9,0,0,1-5.975-3.954,17.48,17.48,0,0,1-3.852-5.975,20.309,20.309,0,0,1-1.361-7.5,20.21,20.21,0,0,1,1.361-7.491,17.508,17.508,0,0,1,3.852-5.963,17.9,17.9,0,0,1,5.975-3.954,21.513,21.513,0,0,1,15.462,0,17.407,17.407,0,0,1,9.8,9.945,20.14,20.14,0,0,1,1.363,7.463Zm-7.806,0a16.483,16.483,0,0,0-.763-5.2,11.024,11.024,0,0,0-2.2-3.917,9.462,9.462,0,0,0-3.483-2.466,13.1,13.1,0,0,0-9.293,0,9.44,9.44,0,0,0-3.5,2.466,11.024,11.024,0,0,0-2.2,3.917,16.483,16.483,0,0,0-.763,5.2,16.572,16.572,0,0,0,.763,5.223,10.893,10.893,0,0,0,2.2,3.9,9.507,9.507,0,0,0,3.5,2.454,13.1,13.1,0,0,0,9.293,0,9.53,9.53,0,0,0,3.483-2.454,10.893,10.893,0,0,0,2.2-3.9,16.572,16.572,0,0,0,.762-5.224Z" transform="translate(75.4 -7.011)" fill="#3753a0"/></g><path d="M2.2,8.118V12.27A2.22,2.22,0,0,0,2.617,13.7a1.544,1.544,0,0,0,1.278.519A2.3,2.3,0,0,0,5.08,13.9a3.448,3.448,0,0,0,.989-.9V8.118h.618v6.5H6.344q-.181,0-.187-.17L6.1,13.478a3.686,3.686,0,0,1-1.043.9,2.6,2.6,0,0,1-1.317.339,2.441,2.441,0,0,1-.948-.17,1.739,1.739,0,0,1-.673-.49,2.167,2.167,0,0,1-.405-.77,3.49,3.49,0,0,1-.137-1.018V8.118Zm6.764,6.5v-6.5H9.3a.177.177,0,0,1,.2.164l.059.979a3.642,3.642,0,0,1,1.035-.9,2.574,2.574,0,0,1,1.315-.344,2.441,2.441,0,0,1,.944.17,1.733,1.733,0,0,1,.676.49,2.167,2.167,0,0,1,.4.77,3.5,3.5,0,0,1,.137,1.018v4.153h-.618V10.462a2.225,2.225,0,0,0-.418-1.433,1.545,1.545,0,0,0-1.28-.519,2.268,2.268,0,0,0-1.188.33,3.451,3.451,0,0,0-.979.9v4.87Zm8.024-6.5v6.5h-.618v-6.5Zm.275-2.24a.5.5,0,0,1-.049.219.656.656,0,0,1-.127.179A.591.591,0,0,1,16.9,6.4a.562.562,0,0,1-.444,0,.591.591,0,0,1-.183-.124A.6.6,0,0,1,16.15,6.1a.525.525,0,0,1-.046-.219.571.571,0,0,1,.046-.225.581.581,0,0,1,.124-.186.591.591,0,0,1,.183-.124.562.562,0,0,1,.444,0,.591.591,0,0,1,.183.124.627.627,0,0,1,.127.186.538.538,0,0,1,.049.226Zm3.949,8.84a1.385,1.385,0,0,1-1.025-.366,1.539,1.539,0,0,1-.366-1.13V8.783h-.934a.174.174,0,0,1-.118-.039.137.137,0,0,1-.045-.111V8.392l1.11-.078.155-2.324a.18.18,0,0,1,.048-.1.146.146,0,0,1,.113-.046h.291V8.32h2.044v.463H20.439V13.19a1.374,1.374,0,0,0,.069.46.859.859,0,0,0,.189.317.742.742,0,0,0,.284.183,1.031,1.031,0,0,0,.353.058,1.079,1.079,0,0,0,.4-.069,1.678,1.678,0,0,0,.294-.15,1.883,1.883,0,0,0,.2-.151.223.223,0,0,1,.124-.069.142.142,0,0,1,.1.065l.17.275a1.81,1.81,0,0,1-.63.441,1.965,1.965,0,0,1-.793.168Zm5.489-6.7a2.676,2.676,0,0,1,1.015.19,2.282,2.282,0,0,1,.81.55,2.543,2.543,0,0,1,.535.893,3.537,3.537,0,0,1,.192,1.214.325.325,0,0,1-.043.2.162.162,0,0,1-.134.052H24.388v.124a4.406,4.406,0,0,0,.17,1.286,2.635,2.635,0,0,0,.481.93,1.993,1.993,0,0,0,.756.565,2.506,2.506,0,0,0,.992.19,2.97,2.97,0,0,0,.849-.108,3.161,3.161,0,0,0,.6-.241,3.311,3.311,0,0,0,.388-.241.441.441,0,0,1,.206-.108.15.15,0,0,1,.131.065l.17.206a1.772,1.772,0,0,1-.412.366,2.959,2.959,0,0,1-.575.291,4.186,4.186,0,0,1-.679.192,3.736,3.736,0,0,1-.728.069,3.092,3.092,0,0,1-1.214-.232,2.583,2.583,0,0,1-.941-.676,3.093,3.093,0,0,1-.608-1.087,4.648,4.648,0,0,1-.214-1.472,4.015,4.015,0,0,1,.2-1.289,2.955,2.955,0,0,1,.581-1.018,2.618,2.618,0,0,1,.921-.669A3.024,3.024,0,0,1,26.7,8.017Zm.01.464a2.438,2.438,0,0,0-.9.157,1.967,1.967,0,0,0-.687.451,2.3,2.3,0,0,0-.469.705,3.213,3.213,0,0,0-.238.92h4.276a2.855,2.855,0,0,0-.144-.937,2,2,0,0,0-.4-.7,1.75,1.75,0,0,0-.626-.441,2.066,2.066,0,0,0-.808-.157Zm8.978,6.133a.174.174,0,0,1-.187-.17l-.069-1.025a3.444,3.444,0,0,1-1.01.934,2.479,2.479,0,0,1-1.3.344,2.268,2.268,0,0,1-1.866-.829,3.9,3.9,0,0,1-.665-2.483,4.575,4.575,0,0,1,.186-1.328,3.153,3.153,0,0,1,.55-1.071,2.611,2.611,0,0,1,.889-.715,2.694,2.694,0,0,1,1.213-.261,2.5,2.5,0,0,1,1.144.245,2.4,2.4,0,0,1,.837.715V5.12h.618v9.494ZM33.3,14.2a2.134,2.134,0,0,0,1.168-.333,3.314,3.314,0,0,0,.935-.927V9.509a2.286,2.286,0,0,0-.834-.783A2.261,2.261,0,0,0,33.542,8.5a2.286,2.286,0,0,0-1.007.206,1.981,1.981,0,0,0-.722.591,2.661,2.661,0,0,0-.438.914,4.388,4.388,0,0,0-.147,1.172,3.442,3.442,0,0,0,.536,2.13A1.839,1.839,0,0,0,33.3,14.2ZM44.79,9.123a.356.356,0,0,1-.111.121.284.284,0,0,1-.15.036.481.481,0,0,1-.232-.069q-.127-.069-.307-.157A2.974,2.974,0,0,0,43.57,8.9,2.029,2.029,0,0,0,43,8.829a1.71,1.71,0,0,0-.5.069,1.183,1.183,0,0,0-.382.19.845.845,0,0,0-.242.287.772.772,0,0,0-.085.356.592.592,0,0,0,.147.412,1.26,1.26,0,0,0,.386.281,3.754,3.754,0,0,0,.542.212q.3.095.618.2t.618.238a2.262,2.262,0,0,1,.542.333,1.562,1.562,0,0,1,.386.481,1.464,1.464,0,0,1,.147.687,2.188,2.188,0,0,1-.166.858,1.879,1.879,0,0,1-.49.682,2.317,2.317,0,0,1-.8.45,3.358,3.358,0,0,1-1.091.164A3.431,3.431,0,0,1,41.36,14.5a3.173,3.173,0,0,1-.973-.581l.3-.489a.348.348,0,0,1,.339-.189.445.445,0,0,1,.254.091q.131.091.313.2a2.372,2.372,0,0,0,.444.2,2.067,2.067,0,0,0,.653.088,1.778,1.778,0,0,0,.568-.082,1.168,1.168,0,0,0,.4-.222.9.9,0,0,0,.238-.323.968.968,0,0,0,.078-.385.647.647,0,0,0-.147-.434,1.26,1.26,0,0,0-.386-.3,3.092,3.092,0,0,0-.545-.215q-.307-.091-.627-.2a6.42,6.42,0,0,1-.627-.242,2.152,2.152,0,0,1-.545-.344,1.608,1.608,0,0,1-.386-.509,1.649,1.649,0,0,1-.147-.731,1.766,1.766,0,0,1,.16-.738,1.828,1.828,0,0,1,.463-.618,2.284,2.284,0,0,1,.751-.427,3.024,3.024,0,0,1,1.026-.172,3.236,3.236,0,0,1,1.192.206,2.73,2.73,0,0,1,.911.575ZM51.1,10.56a2.177,2.177,0,0,0-.108-.7,1.586,1.586,0,0,0-.317-.555,1.439,1.439,0,0,0-.509-.366,1.721,1.721,0,0,0-.692-.131,1.7,1.7,0,0,0-1.263.464,2.242,2.242,0,0,0-.584,1.286Zm1.051,3.108a2.507,2.507,0,0,1-.542.473,3.144,3.144,0,0,1-.653.323,3.959,3.959,0,0,1-.715.183,4.622,4.622,0,0,1-.728.058,3.413,3.413,0,0,1-1.271-.228,2.822,2.822,0,0,1-1.012-.679,3.1,3.1,0,0,1-.666-1.11,4.493,4.493,0,0,1-.238-1.524,3.773,3.773,0,0,1,.215-1.289,3.1,3.1,0,0,1,.618-1.041,2.844,2.844,0,0,1,.983-.7,3.221,3.221,0,0,1,1.306-.255,3.066,3.066,0,0,1,1.119.2,2.486,2.486,0,0,1,.884.578,2.674,2.674,0,0,1,.584.933,3.528,3.528,0,0,1,.212,1.267.807.807,0,0,1-.065.4.265.265,0,0,1-.242.1H47.6a3.583,3.583,0,0,0,.17,1.035,2.089,2.089,0,0,0,.412.735,1.649,1.649,0,0,0,.63.438,2.215,2.215,0,0,0,.816.144,2.451,2.451,0,0,0,.735-.1,3.561,3.561,0,0,0,.535-.212q.225-.114.379-.212a.522.522,0,0,1,.271-.1.28.28,0,0,1,.241.118Zm5.19-2a9.715,9.715,0,0,0-1.319.121,3.628,3.628,0,0,0-.882.252,1.2,1.2,0,0,0-.49.369.8.8,0,0,0-.15.473,1.027,1.027,0,0,0,.082.427.8.8,0,0,0,.222.293.893.893,0,0,0,.33.166,1.542,1.542,0,0,0,.412.052,2.308,2.308,0,0,0,.539-.059,2.144,2.144,0,0,0,.46-.166,2.315,2.315,0,0,0,.412-.265,3.664,3.664,0,0,0,.386-.359ZM53.61,8.91a3.642,3.642,0,0,1,2.631-1.051,2.549,2.549,0,0,1,1.005.186,2.068,2.068,0,0,1,.738.519,2.208,2.208,0,0,1,.454.8,3.248,3.248,0,0,1,.153,1.025v4.228h-.568a.541.541,0,0,1-.287-.062.427.427,0,0,1-.157-.232l-.137-.581a5.492,5.492,0,0,1-.5.412,3.219,3.219,0,0,1-.519.307,2.651,2.651,0,0,1-.578.192,3.268,3.268,0,0,1-.679.069,2.437,2.437,0,0,1-.735-.106,1.649,1.649,0,0,1-.6-.33,1.559,1.559,0,0,1-.4-.555,1.911,1.911,0,0,1-.147-.777A1.472,1.472,0,0,1,53.5,12.2a1.913,1.913,0,0,1,.692-.649,4.449,4.449,0,0,1,1.253-.47,9.371,9.371,0,0,1,1.9-.206V10.39a1.686,1.686,0,0,0-.32-1.123,1.168,1.168,0,0,0-.94-.372,2.048,2.048,0,0,0-.7.1,2.707,2.707,0,0,0-.49.232q-.206.127-.359.232a.556.556,0,0,1-.317.1.362.362,0,0,1-.225-.069.6.6,0,0,1-.153-.17Zm8.05.344a3.035,3.035,0,0,1,.77-1.025,1.754,1.754,0,0,1,1.492-.323,1.051,1.051,0,0,1,.336.147l-.085.962a.206.206,0,0,1-.215.176,1.566,1.566,0,0,1-.275-.036,2.031,2.031,0,0,0-.392-.036,1.538,1.538,0,0,0-.542.088,1.266,1.266,0,0,0-.421.261,1.779,1.779,0,0,0-.33.425,4.248,4.248,0,0,0-.268.571v4.149H60.459V7.981h.731a.4.4,0,0,1,.284.075.493.493,0,0,1,.108.265ZM69.8,9.222a.706.706,0,0,1-.114.114.259.259,0,0,1-.16.043.38.38,0,0,1-.219-.082,2.878,2.878,0,0,0-.287-.176,2.568,2.568,0,0,0-.418-.177,2.176,2.176,0,0,0-1.433.088,1.6,1.6,0,0,0-.6.481,2.222,2.222,0,0,0-.362.763,3.812,3.812,0,0,0-.124,1.012,3.746,3.746,0,0,0,.131,1.035,2.234,2.234,0,0,0,.372.763,1.574,1.574,0,0,0,.588.47,1.814,1.814,0,0,0,.77.16,1.942,1.942,0,0,0,.679-.1,2.22,2.22,0,0,0,.444-.219,3.036,3.036,0,0,0,.293-.219.368.368,0,0,1,.242-.1.28.28,0,0,1,.242.118l.366.47a2.462,2.462,0,0,1-.513.477,2.919,2.919,0,0,1-.6.32,3.411,3.411,0,0,1-.669.183,4.261,4.261,0,0,1-.709.058,2.936,2.936,0,0,1-1.159-.228,2.626,2.626,0,0,1-.933-.666A3.187,3.187,0,0,1,65,12.735a4.261,4.261,0,0,1-.228-1.443,4.354,4.354,0,0,1,.206-1.365,3.037,3.037,0,0,1,.607-1.08,2.807,2.807,0,0,1,.989-.712,3.317,3.317,0,0,1,1.343-.255,3.2,3.2,0,0,1,1.253.229,3.062,3.062,0,0,1,.966.647Zm3.029-.4a3.626,3.626,0,0,1,.924-.687,2.506,2.506,0,0,1,1.168-.261,2.368,2.368,0,0,1,.962.183,1.912,1.912,0,0,1,.7.513A2.22,2.22,0,0,1,77,9.363a3.452,3.452,0,0,1,.144,1.025v4.226H75.866V10.391a1.69,1.69,0,0,0-.326-1.106,1.221,1.221,0,0,0-1-.4,1.9,1.9,0,0,0-.917.232,3.056,3.056,0,0,0-.793.63v4.863H71.557V4.978h1.273ZM86.866,10.56a2.177,2.177,0,0,0-.108-.7,1.586,1.586,0,0,0-.317-.555,1.439,1.439,0,0,0-.509-.366,1.721,1.721,0,0,0-.692-.131,1.7,1.7,0,0,0-1.263.464,2.242,2.242,0,0,0-.584,1.286Zm1.051,3.108a2.507,2.507,0,0,1-.542.473,3.144,3.144,0,0,1-.653.323,3.959,3.959,0,0,1-.715.183,4.622,4.622,0,0,1-.728.058,3.413,3.413,0,0,1-1.27-.232A2.823,2.823,0,0,1,83,13.794a3.1,3.1,0,0,1-.666-1.11,4.493,4.493,0,0,1-.238-1.524,3.773,3.773,0,0,1,.215-1.289,3.1,3.1,0,0,1,.618-1.041,2.845,2.845,0,0,1,.983-.7,3.221,3.221,0,0,1,1.306-.255,3.066,3.066,0,0,1,1.119.2,2.486,2.486,0,0,1,.884.578,2.674,2.674,0,0,1,.584.933,3.528,3.528,0,0,1,.212,1.267.807.807,0,0,1-.065.4.265.265,0,0,1-.242.1H83.362a3.583,3.583,0,0,0,.17,1.035,2.089,2.089,0,0,0,.412.735,1.649,1.649,0,0,0,.63.438,2.215,2.215,0,0,0,.816.144,2.45,2.45,0,0,0,.735-.1,3.561,3.561,0,0,0,.535-.212q.225-.114.379-.212a.522.522,0,0,1,.271-.1.28.28,0,0,1,.241.118ZM90.735,8.9a4.493,4.493,0,0,1,.451-.418,2.837,2.837,0,0,1,.5-.323A2.658,2.658,0,0,1,92.9,7.877a2.368,2.368,0,0,1,.962.183,1.912,1.912,0,0,1,.7.513,2.22,2.22,0,0,1,.425.793,3.452,3.452,0,0,1,.144,1.025v4.224H93.85V10.391a1.69,1.69,0,0,0-.326-1.106,1.221,1.221,0,0,0-1-.4,1.9,1.9,0,0,0-.917.232,3.056,3.056,0,0,0-.793.63v4.863H89.541V7.981H90.3a.311.311,0,0,1,.333.254Zm8.6,2.405a1.787,1.787,0,0,0,.6-.091,1.179,1.179,0,0,0,.431-.258,1.07,1.07,0,0,0,.261-.4,1.458,1.458,0,0,0,.088-.515,1.227,1.227,0,0,0-.349-.917,1.7,1.7,0,0,0-2.05,0,1.227,1.227,0,0,0-.349.917,1.432,1.432,0,0,0,.088.513,1.076,1.076,0,0,0,.261.4,1.215,1.215,0,0,0,.431.261,1.709,1.709,0,0,0,.593.091Zm2.031,3.656a.529.529,0,0,0-.131-.375.889.889,0,0,0-.356-.222,2.377,2.377,0,0,0-.526-.118q-.3-.036-.63-.056t-.676-.036q-.344-.016-.666-.062a1.87,1.87,0,0,0-.558.412.819.819,0,0,0-.219.568.756.756,0,0,0,.108.392.918.918,0,0,0,.333.317,1.915,1.915,0,0,0,.568.206,3.88,3.88,0,0,0,.819.075,3.767,3.767,0,0,0,.829-.082,2.062,2.062,0,0,0,.6-.229,1.09,1.09,0,0,0,.372-.349.817.817,0,0,0,.128-.447Zm1.293-6.731V8.7q0,.235-.294.293l-.711.1a2.3,2.3,0,0,1,.144.427,2.09,2.09,0,0,1,.052.473,1.983,1.983,0,0,1-.711,1.561,2.341,2.341,0,0,1-.793.431,3.237,3.237,0,0,1-1.009.15,3.464,3.464,0,0,1-.842-.1.981.981,0,0,0-.3.258.474.474,0,0,0-.1.275.366.366,0,0,0,.192.339,1.469,1.469,0,0,0,.5.16,5.82,5.82,0,0,0,.712.062q.4.013.816.043a7.209,7.209,0,0,1,.816.1,2.447,2.447,0,0,1,.711.241,1.374,1.374,0,0,1,.5.457,1.342,1.342,0,0,1,.192.756,1.779,1.779,0,0,1-.212.836,2.2,2.2,0,0,1-.618.718,3.23,3.23,0,0,1-.985.5,4.249,4.249,0,0,1-1.319.189,5.072,5.072,0,0,1-1.283-.144,3.015,3.015,0,0,1-.908-.386,1.657,1.657,0,0,1-.542-.561,1.343,1.343,0,0,1-.179-.666,1.186,1.186,0,0,1,.3-.819,1.98,1.98,0,0,1,.829-.526,1.159,1.159,0,0,1-.457-.356.968.968,0,0,1-.17-.6.919.919,0,0,1,.052-.3,1.221,1.221,0,0,1,.16-.306,1.581,1.581,0,0,1,.267-.291,2.021,2.021,0,0,1,.369-.248,2.084,2.084,0,0,1-.77-.728,2.082,2.082,0,0,1,.434-2.615,2.369,2.369,0,0,1,.8-.431,3.321,3.321,0,0,1,1.022-.15,2.908,2.908,0,0,1,1.482.359Zm2.651-.248v6.631h-1.273V7.981Zm.242-2.05a.812.812,0,0,1-.069.336.934.934,0,0,1-.192.28.877.877,0,0,1-.284.19.868.868,0,0,1-.339.069.825.825,0,0,1-.333-.069.9.9,0,0,1-.275-.19.887.887,0,0,1-.189-.28.845.845,0,0,1-.069-.336.861.861,0,0,1,.069-.344.887.887,0,0,1,.189-.28.9.9,0,0,1,.275-.19.825.825,0,0,1,.333-.069A.868.868,0,0,1,105,5.12a.878.878,0,0,1,.284.19.934.934,0,0,1,.192.28.825.825,0,0,1,.07.342ZM108.5,8.9a4.5,4.5,0,0,1,.451-.418,2.837,2.837,0,0,1,.5-.323,2.658,2.658,0,0,1,1.218-.284,2.368,2.368,0,0,1,.962.183,1.912,1.912,0,0,1,.7.513,2.22,2.22,0,0,1,.425.793,3.452,3.452,0,0,1,.144,1.025v4.222h-1.28V10.391a1.69,1.69,0,0,0-.326-1.106,1.221,1.221,0,0,0-1-.4,1.9,1.9,0,0,0-.917.232,3.056,3.056,0,0,0-.793.63v4.863H107.31V7.981h.763a.311.311,0,0,1,.333.254ZM119.17,10.56a2.176,2.176,0,0,0-.108-.7,1.586,1.586,0,0,0-.317-.555,1.439,1.439,0,0,0-.509-.366,1.722,1.722,0,0,0-.692-.131,1.7,1.7,0,0,0-1.263.464,2.242,2.242,0,0,0-.584,1.286Zm1.051,3.108a2.507,2.507,0,0,1-.542.473,3.145,3.145,0,0,1-.653.323,3.959,3.959,0,0,1-.715.183,4.622,4.622,0,0,1-.728.058,3.413,3.413,0,0,1-1.27-.232,2.822,2.822,0,0,1-1.012-.679,3.1,3.1,0,0,1-.666-1.11,4.493,4.493,0,0,1-.238-1.524,3.772,3.772,0,0,1,.215-1.289,3.1,3.1,0,0,1,.618-1.041,2.845,2.845,0,0,1,.983-.7,3.221,3.221,0,0,1,1.306-.255,3.066,3.066,0,0,1,1.119.2,2.486,2.486,0,0,1,.884.578,2.674,2.674,0,0,1,.584.933,3.529,3.529,0,0,1,.212,1.267.808.808,0,0,1-.069.4.265.265,0,0,1-.242.1h-4.348a3.583,3.583,0,0,0,.17,1.035,2.089,2.089,0,0,0,.412.735,1.649,1.649,0,0,0,.63.438,2.215,2.215,0,0,0,.816.144,2.45,2.45,0,0,0,.735-.1,3.561,3.561,0,0,0,.535-.212q.225-.114.379-.212a.523.523,0,0,1,.271-.1.28.28,0,0,1,.242.118Zm6.941-5.654a3.124,3.124,0,0,1,1.25.238,2.548,2.548,0,0,1,.93.676,2.994,2.994,0,0,1,.578,1.054,4.483,4.483,0,0,1,.2,1.381,4.451,4.451,0,0,1-.2,1.374,3,3,0,0,1-.578,1.051,2.515,2.515,0,0,1-.93.673,3.443,3.443,0,0,1-2.5,0,2.543,2.543,0,0,1-.934-.673,2.969,2.969,0,0,1-.581-1.051,4.451,4.451,0,0,1-.2-1.374,4.483,4.483,0,0,1,.2-1.381,2.966,2.966,0,0,1,.581-1.054,2.578,2.578,0,0,1,.934-.676,3.124,3.124,0,0,1,1.25-.235Zm0,6.2a2.414,2.414,0,0,0,1.015-.2,1.924,1.924,0,0,0,.725-.571,2.519,2.519,0,0,0,.434-.9,4.893,4.893,0,0,0,0-2.354,2.551,2.551,0,0,0-.434-.9,1.939,1.939,0,0,0-.724-.579,2.647,2.647,0,0,0-2.03,0,1.939,1.939,0,0,0-.724.578,2.593,2.593,0,0,0-.438.9,4.782,4.782,0,0,0,0,2.354,2.56,2.56,0,0,0,.438.9,1.924,1.924,0,0,0,.724.571,2.414,2.414,0,0,0,1.014.2Zm4.747,2.7V8.118h.339a.238.238,0,0,1,.137.036.158.158,0,0,1,.058.127l.059,1.005a3.442,3.442,0,0,1,1.009-.933,2.474,2.474,0,0,1,1.3-.344,2.26,2.26,0,0,1,1.867.829,3.917,3.917,0,0,1,.666,2.488,4.579,4.579,0,0,1-.186,1.328,3.189,3.189,0,0,1-.545,1.071,2.574,2.574,0,0,1-.884.715,2.687,2.687,0,0,1-1.211.261,2.543,2.543,0,0,1-1.149-.242,2.337,2.337,0,0,1-.836-.718v3.173Zm2.723-8.4a2.13,2.13,0,0,0-1.172.336,3.233,3.233,0,0,0-.93.937V13.19a2.224,2.224,0,0,0,.825.79,2.49,2.49,0,0,0,2.04.019,1.979,1.979,0,0,0,.722-.591,2.662,2.662,0,0,0,.438-.914,4.4,4.4,0,0,0,.147-1.172,3.462,3.462,0,0,0-.532-2.13,1.833,1.833,0,0,0-1.539-.682Zm6.189,6.209a1.385,1.385,0,0,1-1.025-.366,1.539,1.539,0,0,1-.366-1.13V8.784H138.5a.174.174,0,0,1-.118-.039.137.137,0,0,1-.045-.111V8.392l1.11-.078L139.6,5.99a.18.18,0,0,1,.048-.1.146.146,0,0,1,.113-.046h.291V8.32h2.044v.463H140.05V13.19a1.375,1.375,0,0,0,.069.46.859.859,0,0,0,.189.317.742.742,0,0,0,.284.183,1.031,1.031,0,0,0,.353.058,1.079,1.079,0,0,0,.4-.069,1.677,1.677,0,0,0,.294-.151,1.886,1.886,0,0,0,.2-.151.223.223,0,0,1,.124-.069.142.142,0,0,1,.1.065l.17.275a1.81,1.81,0,0,1-.63.441,1.965,1.965,0,0,1-.792.168Zm3.848-6.6v6.493h-.618v-6.5Zm.275-2.24a.5.5,0,0,1-.049.219.656.656,0,0,1-.127.179.591.591,0,0,1-.183.124.562.562,0,0,1-.444,0,.591.591,0,0,1-.183-.124.6.6,0,0,1-.124-.179.525.525,0,0,1-.045-.219.571.571,0,0,1,.045-.225.58.58,0,0,1,.124-.186.591.591,0,0,1,.183-.124.562.562,0,0,1,.444,0,.591.591,0,0,1,.183.124.627.627,0,0,1,.127.186.538.538,0,0,1,.044.223Zm2.176,8.732v-6.5h.339a.177.177,0,0,1,.2.164l.059.94a4.1,4.1,0,0,1,.4-.489,2.7,2.7,0,0,1,.46-.382A2.131,2.131,0,0,1,149.1,8.1a1.919,1.919,0,0,1,.584-.088,1.556,1.556,0,0,1,1.136.412,2.168,2.168,0,0,1,.575,1.152,2.257,2.257,0,0,1,.329-.7,2.062,2.062,0,0,1,.486-.487,2.015,2.015,0,0,1,.6-.287,2.336,2.336,0,0,1,.66-.089,2.239,2.239,0,0,1,.867.16,1.732,1.732,0,0,1,.655.473,2.146,2.146,0,0,1,.412.77,3.488,3.488,0,0,1,.144,1.045v4.149h-.618V10.462a2.235,2.235,0,0,0-.412-1.453,1.436,1.436,0,0,0-1.175-.5,1.733,1.733,0,0,0-.649.124,1.574,1.574,0,0,0-.55.369,1.773,1.773,0,0,0-.379.61,2.36,2.36,0,0,0-.137.849v4.152H151V10.462a2.376,2.376,0,0,0-.379-1.449,1.3,1.3,0,0,0-1.1-.5,1.668,1.668,0,0,0-.979.317,3,3,0,0,0-.8.878v4.909Zm11.347-6.5v6.5h-.618v-6.5Zm.275-2.24a.5.5,0,0,1-.049.219.656.656,0,0,1-.127.179.591.591,0,0,1-.183.124.562.562,0,0,1-.444,0,.591.591,0,0,1-.183-.124.6.6,0,0,1-.124-.179.525.525,0,0,1-.045-.219.571.571,0,0,1,.045-.225.58.58,0,0,1,.124-.186.591.591,0,0,1,.183-.124.562.562,0,0,1,.444,0,.591.591,0,0,1,.183.124.627.627,0,0,1,.127.186.538.538,0,0,1,.048.226Zm6.516,2.5a.381.381,0,0,1-.091.248l-4.068,5.5h4v.489h-4.747v-.248a.412.412,0,0,1,.1-.241l4.081-5.517h-3.963v-.49h4.694Zm5.868,6.235a.223.223,0,0,1-.242-.183l-.091-.829a6.821,6.821,0,0,1-.532.47,3.19,3.19,0,0,1-.55.353,2.717,2.717,0,0,1-.618.219,3.325,3.325,0,0,1-.731.075,2.155,2.155,0,0,1-.647-.1,1.6,1.6,0,0,1-.555-.3,1.474,1.474,0,0,1-.388-.519,1.8,1.8,0,0,1-.147-.761,1.351,1.351,0,0,1,.235-.764,1.931,1.931,0,0,1,.735-.614,4.846,4.846,0,0,1,1.286-.418,11.185,11.185,0,0,1,1.89-.183v-.679A2.176,2.176,0,0,0,170.38,9a1.386,1.386,0,0,0-1.152-.487,2.175,2.175,0,0,0-.8.131,2.832,2.832,0,0,0-.558.287,3.516,3.516,0,0,0-.372.287.4.4,0,0,1-.242.131.211.211,0,0,1-.2-.118l-.111-.189a3.775,3.775,0,0,1,1.071-.77,2.985,2.985,0,0,1,1.273-.261,2.323,2.323,0,0,1,.914.166,1.689,1.689,0,0,1,.649.476,2.084,2.084,0,0,1,.388.75,3.453,3.453,0,0,1,.131.983v4.231Zm-2.611-.344a2.783,2.783,0,0,0,.7-.082,2.577,2.577,0,0,0,.588-.229,2.869,2.869,0,0,0,.506-.349q.235-.2.463-.438V11.48a11.574,11.574,0,0,0-1.6.137,4.6,4.6,0,0,0-1.1.31,1.618,1.618,0,0,0-.64.467.994.994,0,0,0-.206.618,1.362,1.362,0,0,0,.108.565,1.085,1.085,0,0,0,.7.618,1.666,1.666,0,0,0,.491.074Zm6.744.451a1.385,1.385,0,0,1-1.025-.366,1.539,1.539,0,0,1-.366-1.13V8.787h-.933a.174.174,0,0,1-.118-.039.137.137,0,0,1-.045-.111V8.392l1.11-.078.155-2.324a.18.18,0,0,1,.048-.1.146.146,0,0,1,.113-.046h.291V8.32h2.043v.463h-2.043V13.19a1.374,1.374,0,0,0,.069.46.859.859,0,0,0,.189.317.742.742,0,0,0,.284.183,1.031,1.031,0,0,0,.353.058,1.079,1.079,0,0,0,.4-.069,1.679,1.679,0,0,0,.294-.151,1.883,1.883,0,0,0,.2-.15.223.223,0,0,1,.124-.069.142.142,0,0,1,.1.065l.17.275a1.81,1.81,0,0,1-.63.441,1.964,1.964,0,0,1-.793.168Zm3.848-6.6v6.49h-.623v-6.5Zm.275-2.24a.5.5,0,0,1-.049.219.657.657,0,0,1-.127.179.591.591,0,0,1-.183.124.562.562,0,0,1-.444,0,.591.591,0,0,1-.183-.124.6.6,0,0,1-.124-.179.525.525,0,0,1-.045-.219.571.571,0,0,1,.045-.225.58.58,0,0,1,.124-.186.591.591,0,0,1,.183-.124.562.562,0,0,1,.444,0,.591.591,0,0,1,.183.124.628.628,0,0,1,.127.186.538.538,0,0,1,.044.22Zm4.652,2.132a3.124,3.124,0,0,1,1.25.238,2.548,2.548,0,0,1,.93.676,2.993,2.993,0,0,1,.578,1.054,4.86,4.86,0,0,1,0,2.755,3,3,0,0,1-.578,1.051,2.516,2.516,0,0,1-.931.673,3.443,3.443,0,0,1-2.5,0,2.543,2.543,0,0,1-.933-.674,2.969,2.969,0,0,1-.581-1.051,4.452,4.452,0,0,1-.2-1.374,4.483,4.483,0,0,1,.2-1.381,2.966,2.966,0,0,1,.581-1.054,2.578,2.578,0,0,1,.933-.676A3.124,3.124,0,0,1,184.031,8.017Zm0,6.2a2.414,2.414,0,0,0,1.015-.2,1.924,1.924,0,0,0,.725-.571,2.52,2.52,0,0,0,.434-.9,4.893,4.893,0,0,0,0-2.354,2.552,2.552,0,0,0-.434-.9,1.939,1.939,0,0,0-.725-.578,2.647,2.647,0,0,0-2.03,0,1.939,1.939,0,0,0-.725.578,2.593,2.593,0,0,0-.438.9,4.782,4.782,0,0,0,0,2.354,2.561,2.561,0,0,0,.438.9,1.924,1.924,0,0,0,.725.571,2.414,2.414,0,0,0,1.015.2Zm4.747.4v-6.5h.339a.177.177,0,0,1,.2.164l.059.979a3.642,3.642,0,0,1,1.035-.9,2.574,2.574,0,0,1,1.315-.344,2.441,2.441,0,0,1,.944.17,1.733,1.733,0,0,1,.676.49,2.168,2.168,0,0,1,.4.77,3.494,3.494,0,0,1,.137,1.018v4.153h-.618V10.462a2.225,2.225,0,0,0-.418-1.433,1.545,1.545,0,0,0-1.28-.519,2.268,2.268,0,0,0-1.188.33,3.451,3.451,0,0,0-.979.9v4.87Z" transform="translate(1224.42 475.26)" fill="#3753a0" stroke="#3753a0" stroke-width="0.5"/></g></g></svg>