<?xml version="1.0" encoding="UTF-8"?> <svg xmlns="http://www.w3.org/2000/svg" width="35" height="35" viewBox="0 0 35 35"><path d="M10.866,2a1.342,1.342,0,0,0-.952.394L2.394,9.914a1.345,1.345,0,0,0,0,1.9l7.8,7.8,1.9-1.9L5.25,10.866,10.866,5.25,12.606,6.99,10.866,8.731l1.9,1.9L14.51,8.894l1.462,1.462-2.808,2.808L14.9,14.9l4.711-4.711-1.74-1.741L11.817,2.394A1.342,1.342,0,0,0,10.866,2ZM31.381,3.346a2.691,2.691,0,0,0-1.9.791l-1.9,1.9,5.385,5.385,1.9-1.9a2.689,2.689,0,0,0,0-3.8L33.282,4.135A2.676,2.676,0,0,0,31.381,3.346Zm-6.5,5.385L6.349,27.266l1.709.983.673,2.019,2.019.673.983,1.709L30.269,14.115Zm3.923,10.653L24.1,24.1l1.74,1.74,2.808-2.808,1.462,1.462L28.365,26.23l1.9,1.9,1.741-1.741,1.74,1.741L28.134,33.75,21.288,26.9l-1.9,1.9,7.8,7.8a1.346,1.346,0,0,0,1.9,0l7.519-7.519a1.345,1.345,0,0,0,0-1.9l-6.058-6.058ZM4.548,31.47,3.4,34.723a.676.676,0,0,0,.868.886l3.268-1.154Z" transform="translate(-2 -2)" fill="#132136"></path></svg> 