<?xml version="1.0" encoding="UTF-8"?> <svg xmlns="http://www.w3.org/2000/svg" width="35" height="35" viewBox="0 0 35 35"><path d="M6.889,3A3.888,3.888,0,0,0,3,6.889v7.778H38V6.889A3.888,3.888,0,0,0,34.111,3ZM8.833,6.889A1.944,1.944,0,1,1,6.889,8.833,1.945,1.945,0,0,1,8.833,6.889Zm5.833,0a1.944,1.944,0,1,1-1.944,1.944A1.945,1.945,0,0,1,14.667,6.889Zm7.778,0h9.722a1.944,1.944,0,1,1,0,3.889H22.444a1.944,1.944,0,1,1,0-3.889ZM3,18.556V34.111A3.918,3.918,0,0,0,6.889,38H34.111A3.918,3.918,0,0,0,38,34.111V18.556H34.111V34.111h-17.5V18.556H3Zm19.444,0a1.944,1.944,0,0,0,0,3.889h5.833a1.944,1.944,0,0,0,0-3.889Zm0,7.778a1.944,1.944,0,1,0,0,3.889h5.833a1.944,1.944,0,0,0,0-3.889Z" transform="translate(-3 -3)" fill="#132136"></path></svg> 