<?xml version="1.0" encoding="UTF-8"?> <svg xmlns="http://www.w3.org/2000/svg" width="129.32" height="153.018" viewBox="0 0 129.32 153.018"><g transform="translate(76.43 61.811)"><g transform="translate(-76.43 -61.811)"><g transform="translate(0 0)"><path d="M182.46,198.661h0c-.367-1.1-.735-2.179-1.165-3.237-.107-.272-.217-.54-.327-.808-.411-1-.845-1.977-1.312-2.939-.026-.055-.051-.114-.077-.169-.5-1.01-1.036-1.991-1.595-2.939-.132-.235-.276-.463-.411-.694-.533-.885-1.084-1.756-1.664-2.6l-.136-.209c-.639-.918-1.308-1.8-2-2.671-.143-.18-.294-.367-.441-.536-.658-.8-1.334-1.587-2.035-2.344l-.151-.169c-.772-.827-1.572-1.613-2.4-2.381l-.389-.367c-.79-.735-1.6-1.426-2.432-2.094l-.114-.1c-.9-.735-1.837-1.407-2.77-2.065l-.279-.191q-1.389-.955-2.84-1.815l-.044-.026c-1.018-.6-2.061-1.168-3.119-1.7l-.114-.055a50.975,50.975,0,0,0-17.268-5.056h0L105.948,204,85.307,228.983,55.576,264.989h78.387c1.205,0,2.418-.051,3.634-.136.165,0,.334-.026.5-.04,1.183-.1,2.366-.224,3.549-.408h.04c1.165-.18,2.329-.411,3.494-.68l.761-.18c1.157-.279,2.311-.592,3.465-.955a50.834,50.834,0,0,0,13.726-6.775,49.2,49.2,0,0,0,3.935-3.049c.628-.536,1.238-1.1,1.837-1.657.911-.863,1.775-1.76,2.62-2.682q1.584-1.734,2.991-3.6c.573-.757,1.128-1.532,1.657-2.322.639-.948,1.257-1.914,1.837-2.9q1.223-2.113,2.241-4.339c.338-.735.661-1.492.963-2.249a51.513,51.513,0,0,0,2.105-6.488c.242-.959.467-1.925.658-2.9a49.9,49.9,0,0,0,.856-7.411,50.655,50.655,0,0,0-2.37-17.555Z" transform="translate(-55.554 -111.986)" fill="#1e9c86"></path><path d="M105.732,110.974A50.853,50.853,0,0,1,139.4,102.7a.125.125,0,0,1,.033-.037,31.413,31.413,0,0,0-24.249-51.437v-.037H55.57A82.472,82.472,0,0,1,105.732,110.974Z" transform="translate(-55.57 -51.189)" fill="#1e9c86"></path></g><path d="M139.384,163.5h0L105.95,204,85.309,228.981,55.578,264.987h0v.018H86.837l52.576-101.519Z" transform="translate(-55.549 -111.987)" fill="#30c6ac" opacity="0.18"></path></g></g></svg> 