<?xml version="1.0" encoding="UTF-8"?> <svg xmlns="http://www.w3.org/2000/svg" width="35" height="35" viewBox="0 0 35 35"><path d="M30.841,3H10.159A7.167,7.167,0,0,0,3,10.159V30.841A7.167,7.167,0,0,0,10.159,38H30.841A7.167,7.167,0,0,0,38,30.841V10.159A7.167,7.167,0,0,0,30.841,3ZM20.028,8.7a.938.938,0,0,1,.943,0l9.915,5.256L20.5,19.466l-10.376-5.52ZM9.8,26.556a.916.916,0,0,1-.436-.778V15.342l10.341,5.5V32.122Zm21.4,0L21.3,32.122V20.844l10.341-5.489V25.777A.916.916,0,0,1,31.2,26.556Z" transform="translate(-3 -3)" fill="#132136"></path></svg> 