<?xml version="1.0" encoding="UTF-8"?> <svg xmlns="http://www.w3.org/2000/svg" width="35" height="35" viewBox="0 0 35 35"><path d="M5.751,2A3.77,3.77,0,0,0,2,5.751v22.5A3.77,3.77,0,0,0,5.751,32H7V29.5H5.751a1.233,1.233,0,0,1-1.25-1.25V5.751A1.234,1.234,0,0,1,5.751,4.5h20A1.233,1.233,0,0,1,27,5.751V7h2.5V5.751A3.77,3.77,0,0,0,25.753,2Zm2.5,5A1.25,1.25,0,1,0,9.5,8.251,1.25,1.25,0,0,0,8.251,7Zm5,0a1.25,1.25,0,1,0,1.25,1.25A1.25,1.25,0,0,0,13.252,7Zm5,0a1.25,1.25,0,1,0,1.25,1.25A1.25,1.25,0,0,0,18.252,7Zm5,0a1.25,1.25,0,1,0,1.25,1.25A1.25,1.25,0,0,0,23.253,7Zm4.981,2.5a1.25,1.25,0,0,0-.864.366l-17.5,17.5a1.25,1.25,0,0,0,0,1.768l7.5,7.5a1.25,1.25,0,0,0,1.768,0l17.5-17.5a1.25,1.25,0,0,0,0-1.768l-7.5-7.5A1.25,1.25,0,0,0,28.234,9.5ZM8.251,12a1.25,1.25,0,1,0,1.25,1.25A1.25,1.25,0,0,0,8.251,12Zm5,0a1.25,1.25,0,1,0,1.25,1.25A1.25,1.25,0,0,0,13.252,12Zm5,0a1.25,1.25,0,1,0,1.25,1.25A1.25,1.25,0,0,0,18.252,12Zm10,.518,5.728,5.728L18.247,33.982l-5.728-5.728L14.5,26.271l3.179,3.179,1.768-1.768L16.27,24.5,19.5,21.27l3.179,3.179,1.768-1.768L21.27,19.5,24.5,16.27l2.867,2.867,1.768-1.768L26.271,14.5ZM8.251,17a1.25,1.25,0,1,0,1.25,1.25A1.25,1.25,0,0,0,8.251,17Zm5,0a1.25,1.25,0,1,0,1.25,1.25A1.25,1.25,0,0,0,13.252,17Zm-5,5a1.25,1.25,0,1,0,1.25,1.25A1.25,1.25,0,0,0,8.251,22Z" transform="translate(-2 -2)" fill="#132136"></path></svg> 