<svg xmlns="http://www.w3.org/2000/svg" width="323.64" height="133.183" viewBox="0 0 323.64 133.183"><g transform="translate(-843 -3726)"><g transform="translate(697 110)"><circle cx="31.5" cy="31.5" r="31.5" transform="translate(146 3650)" fill="#15af9e"/><path d="M-15.175-13.329a4,4,0,1,1,7.968,0v2.685c0,5.855-7.968,5.855-7.968,0Zm-2.465,2.685c0,8.937,12.9,8.915,12.9,0v-2.685c0-8.915-12.9-8.937-12.9,0Zm21.594-.528c2.884,0,3.654,1.277,3.654,2.377,0,1.673-1.849,2.509-3.764,2.509C2.413-6.285.08-6.769.08-8.641H-2.408C-2.386-5.185.96-4.062,3.822-4.062c3.192,0,6.361-1.321,6.361-4.755a3.4,3.4,0,0,0-2.752-3.368,3.258,3.258,0,0,0,2.4-3.192c-.022-3.016-2.862-4.534-5.943-4.534-2.774,0-6.031,1.1-6.031,4.4H.3c0-1.717,2.069-2.2,3.566-2.2,2.619,0,3.522,1.277,3.522,2.333C7.366-13.923,5.737-13.2,3.8-13.2H1.51v2.025Z" transform="translate(180.879 3693.25)" fill="#fff"/></g><g transform="translate(847.588 3602.397)"><path d="M474.193,290.139c-.287-.375-.538-.772-.79-1.173-4.847-7.622-26.028-4.009-26.028-4.009-2.4,18.375-6.563,16.209-7.335,15.054s-2.166-12.5-3.088-14.048c-2.664-.234-8.107-.194-8.107-.194-5.253.124-10.193,4.746-15.054,12.275s-13.431,13.894-13.431,13.894,2.545.234,3.471,5.791c.569.176,2.276-.578,3.52-1.187a6.736,6.736,0,0,1,3.577-.657,11.939,11.939,0,0,1,7.185,3,8.587,8.587,0,0,0,.9.732c.291-.163.454-.273.454-.273,4.746-1.967,7.525-8.8,7.525-8.8a7.7,7.7,0,0,1-.662-2.721,14.94,14.94,0,0,1,.04-2.81c.1-.913.172-1.817.2-2.726a14.674,14.674,0,0,0-.119-2.743,7.647,7.647,0,0,1,.635,2.73,15.682,15.682,0,0,1-.057,2.805c-.1.909-.159,1.813-.181,2.726a15.461,15.461,0,0,0,.146,2.739,28.788,28.788,0,0,0,1.716,7.123,19.242,19.242,0,0,0,3.859.851,11.926,11.926,0,0,0,1.945.062,19.726,19.726,0,0,0,1.985-.212,5.723,5.723,0,0,1-1.927.723,7.238,7.238,0,0,1-1.032.123,10.216,10.216,0,0,1-1.041-.04,8.067,8.067,0,0,1-2.011-.485,6.2,6.2,0,0,1-1.778-1.023,13.5,13.5,0,0,0,1.469,2.893,26.071,26.071,0,0,1,9.452,2.369c.754.348,1.447.816,2.144,1.16a11.914,11.914,0,0,0,2.219.843,19.18,19.18,0,0,0,4.728.67c.812.026,1.583-.018,2.422-.044a20.813,20.813,0,0,1,2.466.119c1.623.168,3.242.353,4.847.635.613.106,1.222.221,1.83.34a7,7,0,0,1-.723-1.226,9.209,9.209,0,0,1-.693-2.042,12.507,12.507,0,0,1-.278-2.144,11.682,11.682,0,0,1,.084-2.179l0-.022.009-.031a10.518,10.518,0,0,0,.445-2.408,17.4,17.4,0,0,0,.026-2.492,23.463,23.463,0,0,0-.3-2.479c-.159-.807-.371-1.65-.485-2.5a24.577,24.577,0,0,1-.159-5.121c.044-.851.132-1.7.26-2.541a25.031,25.031,0,0,1,.481-2.5,45.2,45.2,0,0,0-.344,5.055,28.74,28.74,0,0,0,.366,5.011c.057.415.159.82.243,1.226l.273,1.253a19.933,19.933,0,0,1,.322,2.563,13.624,13.624,0,0,1-.587,5.108,13.129,13.129,0,0,0-.168,2.051,12.278,12.278,0,0,0,.163,2.086,10.9,10.9,0,0,0,.529,2.029,7.645,7.645,0,0,0,.64,1.328c.957.194,1.905.415,2.845.675a18.654,18.654,0,0,1,4.517,1.839,20.375,20.375,0,0,0-4.6-1.526q-1.224-.285-2.466-.494a.015.015,0,0,0-.009,0c-.763-.132-1.53-.247-2.3-.348-1.605-.207-3.215-.388-4.825-.516a21.921,21.921,0,0,0-2.4-.093c-.781.026-1.636.084-2.448.057a19.325,19.325,0,0,1-4.887-.732,12.9,12.9,0,0,1-2.311-.926c-.371-.181-.732-.423-1.072-.622s-.679-.423-1.037-.6a22.632,22.632,0,0,0-4.481-1.773,33.191,33.191,0,0,0-4.742-1.05l-3.648.348a1.523,1.523,0,0,1,.243.516c.939,3.039-.415,14.944-.415,14.944,5.209,3.82,34.042,9.726,34.042,9.726,18.587,3.127,18.759-13.378,18.759-13.378C482.486,303.1,475.949,292.414,474.193,290.139ZM450.936,320.33a7.249,7.249,0,0,1-1.032.123,10.234,10.234,0,0,1-1.041-.04,8.076,8.076,0,0,1-2.011-.485,6.2,6.2,0,0,1-1.778-1.023,19.234,19.234,0,0,0,3.859.851,11.912,11.912,0,0,0,1.945.062,19.72,19.72,0,0,0,1.985-.212,5.724,5.724,0,0,1-1.927.723Z" transform="translate(-174.916 -89.706)" fill="#132136"/><path d="M468.169,258.847a4.562,4.562,0,0,0-.423-.543,3.707,3.707,0,0,0-.5-.457,3.02,3.02,0,0,0-.581-.337,2.062,2.062,0,0,0-.624-.169l.069-.013a5.835,5.835,0,0,1-1.393.465,4.17,4.17,0,0,1-1.489.049,2.926,2.926,0,0,1-1.4-.613,5.679,5.679,0,0,1-.972-1.134,20.1,20.1,0,0,1-1.417-2.526c-.414-.869-.786-1.748-1.134-2.65l.356.235a2.445,2.445,0,0,1-1.206-.183,1.273,1.273,0,0,1-.538-.477,1.5,1.5,0,0,1-.208-.658,3.093,3.093,0,0,1,.167-1.175,5.517,5.517,0,0,1,.452-1.036,2.706,2.706,0,0,0,.464-1.74,2.465,2.465,0,0,0-.244-.862l-.24-.45c-.083-.16-.164-.322-.239-.488a5.835,5.835,0,0,1-.371-1.034A9.909,9.909,0,0,1,456.45,242c-.077-.352-.1-.713-.145-1.07-.014-.36-.036-.719-.017-1.079a9.675,9.675,0,0,1,1.036-4.159.259.259,0,0,1,.467.018l0,.01a16.749,16.749,0,0,0,2.046,3.494,13.113,13.113,0,0,0,2.91,2.829,9.413,9.413,0,0,0,3.709,1.579,9.693,9.693,0,0,0,4.023-.108l.009,0a.168.168,0,0,1,.169.06,6.4,6.4,0,0,1,1.088,2.456,12.059,12.059,0,0,1,.3,2.638,17.3,17.3,0,0,1-.188,2.64,10.919,10.919,0,0,0-.174,2.518,5.507,5.507,0,0,0,.645,2.33,3.879,3.879,0,0,0,1.683,1.6,4.579,4.579,0,0,0,2.323.413,7.155,7.155,0,0,0,2.363-.608.446.446,0,0,1,.62.462v.006a66.3,66.3,0,0,1-1.508,8.346,26.733,26.733,0,0,1-1.385,4.055,10.891,10.891,0,0,1-1.073,1.908,5.83,5.83,0,0,1-.745.854,3.2,3.2,0,0,1-.991.661,2.164,2.164,0,0,1-1.255.138,2.212,2.212,0,0,1-1.108-.591,1.662,1.662,0,0,1-.381-.545,4.733,4.733,0,0,1-.181-.544c-.1-.353-.174-.7-.248-1.048-.291-1.389-.491-2.78-.714-4.168l-.653-4.162c-.112-.693-.229-1.384-.365-2.071a9.82,9.82,0,0,0-.545-2.011l0-.006a.044.044,0,0,1,.078-.039,9.074,9.074,0,0,1,.689,2.007c.175.683.331,1.37.483,2.057.306,1.374.563,2.756.84,4.134s.553,2.755.862,4.111c.081.337.163.675.262,1a4.114,4.114,0,0,0,.161.452.927.927,0,0,0,.229.3,1.37,1.37,0,0,0,1.539.255,3.557,3.557,0,0,0,1.353-1.272,11.114,11.114,0,0,0,.951-1.781,25.849,25.849,0,0,0,1.29-3.928,78.745,78.745,0,0,0,1.531-8.226l.619.468a8.022,8.022,0,0,1-2.666.644,5.416,5.416,0,0,1-2.738-.533,4.6,4.6,0,0,1-2-1.963,6.248,6.248,0,0,1-.677-2.663,11.269,11.269,0,0,1,.248-2.661,16.712,16.712,0,0,0,.278-2.542,11.229,11.229,0,0,0-.195-2.536,6.093,6.093,0,0,0-.919-2.307l.178.058a10.683,10.683,0,0,1-4.158.035,9.131,9.131,0,0,1-1.988-.631,10.833,10.833,0,0,1-1.821-1.011,14.538,14.538,0,0,1-3.034-2.834,17.142,17.142,0,0,1-2.25-3.514l.471.028a9.135,9.135,0,0,0-.805,3.91,10.01,10.01,0,0,0,.21,2,9.135,9.135,0,0,0,.246.976,5.863,5.863,0,0,0,.343.924c.069.15.144.3.222.448s.159.282.253.469a3.256,3.256,0,0,1,.325,1.133,3.471,3.471,0,0,1-.591,2.216,3.561,3.561,0,0,0-.531,1.746.593.593,0,0,0,.326.539,1.764,1.764,0,0,0,.835.128h0a.357.357,0,0,1,.352.236c.316.881.672,1.762,1.052,2.622a19.546,19.546,0,0,0,1.279,2.5,5.217,5.217,0,0,0,.838,1.062,2.469,2.469,0,0,0,1.162.555,4.866,4.866,0,0,0,2.683-.334l.018-.007a.1.1,0,0,1,.051-.006,2.271,2.271,0,0,1,.707.232,3.235,3.235,0,0,1,.6.4,3.668,3.668,0,0,1,.492.518,4.686,4.686,0,0,1,.39.59.044.044,0,0,1-.016.06A.046.046,0,0,1,468.169,258.847Z" transform="translate(-206.17 -62.57)" fill="#132136"/><path d="M417.509,240.05c-.09.7-.184,1.4-.257,2.094s-.136,1.393-.157,2.088a11.421,11.421,0,0,0,.086,2.071,3.768,3.768,0,0,0,.271.987,1.949,1.949,0,0,0,.611.822,1.837,1.837,0,0,1-.766-.742,3.9,3.9,0,0,1-.385-1.013,8.188,8.188,0,0,1-.173-2.137,14.42,14.42,0,0,1,.243-2.115,14.14,14.14,0,0,1,.528-2.055ZM417.3,225.2a1.343,1.343,0,0,1-.121-1.055l.073-.263.114-.243c.04-.08.076-.164.119-.243l.15-.221a5.816,5.816,0,0,1,.674-.824c.253-.245.521-.471.785-.706a21.561,21.561,0,0,1,3.557-2.184c.626-.3,1.258-.581,1.89-.863.639-.262,1.283-.516,1.927-.765s1.3-.441,1.955-.658c.33-.1.648-.212,1-.31a10.053,10.053,0,0,1,1.039-.221,10.328,10.328,0,0,1,4.177.17,8.716,8.716,0,0,1,3.667,1.942,11.5,11.5,0,0,1,2.514,3.33,17.907,17.907,0,0,1,1.436,3.929l.006.037a20.433,20.433,0,0,0,1.781,5.382,18.2,18.2,0,0,0,1.437,2.44,15.735,15.735,0,0,0,1.8,2.172l1.049.972a11.165,11.165,0,0,1,1.062,1.063,9.85,9.85,0,0,1,1.65,2.5,8.679,8.679,0,0,1,.615,5.8.044.044,0,0,1-.086-.017v0a8.475,8.475,0,0,0-.113-2.854,8.928,8.928,0,0,0-.969-2.65,11.192,11.192,0,0,0-.755-1.186,10.833,10.833,0,0,0-.92-1.063,10.358,10.358,0,0,0-1.032-.956l-1.121-.97a16.154,16.154,0,0,1-3.446-4.853,21,21,0,0,1-1.056-2.778,17.64,17.64,0,0,1-.646-2.911l.006.036a20.536,20.536,0,0,0-1.175-3.866,10.228,10.228,0,0,0-2.239-3.335,8.079,8.079,0,0,0-1.636-1.182,7.274,7.274,0,0,0-1.9-.69,9.138,9.138,0,0,0-4,.1,9.472,9.472,0,0,0-.959.276c-.3.107-.624.245-.944.367l-1.926.721c-.633.255-1.266.505-1.9.747l-1.875.806a26.453,26.453,0,0,0-3.562,1.938c-.265.2-.54.4-.8.611a6.361,6.361,0,0,0-.7.7l-.161.19c-.047.067-.086.138-.13.207l-.129.211-.089.226a1.27,1.27,0,0,0-.02.942l0,.009a.044.044,0,0,1-.076.042Zm1.091,8.522a8.485,8.485,0,0,1,1.98-1.058,7.482,7.482,0,0,1,1.081-.325,2.825,2.825,0,0,1,1.133-.052,6.817,6.817,0,0,0-1.057.32l-1.03.39C419.805,233.26,419.117,233.527,418.388,233.725Zm1.93,2.465a.536.536,0,1,0-.517-.535A.536.536,0,0,0,420.318,236.19Zm-.864,6.487a6.844,6.844,0,0,0,.8-.022c.261-.024.518-.055.774-.1s.509-.107.765-.176.513-.145.785-.213a2.7,2.7,0,0,1-.687.474,3.229,3.229,0,0,1-.8.267A2.431,2.431,0,0,1,419.454,242.677Zm-1.986,54.336a26.2,26.2,0,0,0-4.078-1.137,12.341,12.341,0,0,0-4.15-.132l-.508.086-.5.135a8.613,8.613,0,0,0-.969.334,11.318,11.318,0,0,0-1.81.983c-.583.382-1.137.82-1.788,1.2a7.733,7.733,0,0,1-2.083.8,8.436,8.436,0,0,1-2.213.223,4.869,4.869,0,0,1-2.24-.543,2.023,2.023,0,0,1-.5-.437c-.128-.157-.207-.272-.319-.4a3.4,3.4,0,0,0-.722-.626,10.2,10.2,0,0,0-1.865-.846,9.292,9.292,0,0,1-2-.907,3.414,3.414,0,0,1-.827-.79c-.113-.145-.214-.284-.322-.412-.053-.067-.109-.124-.166-.188s-.134-.147-.187-.222a18.4,18.4,0,0,1-1.158-1.822c-.355-.619-.707-1.236-1.045-1.863l.1.076-.908-.2a4.868,4.868,0,0,1-.919-.252,3.827,3.827,0,0,1-1.522-1.152,1.955,1.955,0,0,1-.439-.888,1.244,1.244,0,0,1,.274-.979,2.508,2.508,0,0,1,1.72-.878,4.879,4.879,0,0,1,.957.039l.924.067q.925.058,1.851.087c1.234.038,2.469.029,3.7-.048a20.893,20.893,0,0,0,3.617-.507,7.5,7.5,0,0,0,1.658-.607,3.315,3.315,0,0,0,.684-.475,4.334,4.334,0,0,0,.565-.629,1.021,1.021,0,0,0,.25-.566c-.007-.045-.015-.063-.073-.113a1.016,1.016,0,0,0-.281-.125,4.52,4.52,0,0,0-1.673-.023,5.521,5.521,0,0,0-.837.184,1.584,1.584,0,0,0-.321.135l-.1.062c-.042.029-.083.052-.126.076a2.33,2.33,0,0,1-.254.123,4.164,4.164,0,0,1-1.007.262c-.166.024-.331.04-.5.052a2.273,2.273,0,0,1-.571-.021,2.01,2.01,0,0,1-1.06-.536,2.292,2.292,0,0,1-.584-1,2.955,2.955,0,0,1,.273-2.15,2.073,2.073,0,0,1,.812-.877,1.143,1.143,0,0,1,.375-.121.946.946,0,0,1,.231,0,.867.867,0,0,1,.118.022l.05.013h.006a.836.836,0,0,0,.269-.017,8.857,8.857,0,0,0,1.652-.555q.418-.178.834-.372l.414-.2q.223-.107.454-.2a7.086,7.086,0,0,1,1.92-.473,7.864,7.864,0,0,1,1.953.068,14.961,14.961,0,0,1,1.871.379,11.887,11.887,0,0,1,3.488,1.553,10.417,10.417,0,0,1,1.486,1.208A11.69,11.69,0,0,0,410.768,282a12.065,12.065,0,0,0,7.035,1.6h0a.044.044,0,0,1,.009.088,11.747,11.747,0,0,1-7.313-1.248,12.15,12.15,0,0,1-1.558-1.118,10.758,10.758,0,0,0-4.756-2.446,14.183,14.183,0,0,0-1.78-.31,6.98,6.98,0,0,0-1.755-.016,6.3,6.3,0,0,0-1.674.436c-.133.056-.264.116-.394.18l-.423.207q-.425.2-.859.4a8.9,8.9,0,0,1-1.863.635,1.6,1.6,0,0,1-.654,0l-.051-.012h0a.218.218,0,0,0-.064.024,1.21,1.21,0,0,0-.415.484,2.029,2.029,0,0,0-.2,1.451,1.424,1.424,0,0,0,.331.595,1.091,1.091,0,0,0,.571.3,1.319,1.319,0,0,0,.355.016c.145-.008.289-.02.43-.038a3.307,3.307,0,0,0,.792-.189,1.435,1.435,0,0,0,.166-.077.78.78,0,0,0,.074-.043l.1-.063a2.335,2.335,0,0,1,.533-.225,6.332,6.332,0,0,1,.98-.2,5.251,5.251,0,0,1,2.02.076,1.771,1.771,0,0,1,.554.273.98.98,0,0,1,.375.67,1.249,1.249,0,0,1-.128.656,2.349,2.349,0,0,1-.286.469,4.765,4.765,0,0,1-.692.736,4.078,4.078,0,0,1-.853.561,8.214,8.214,0,0,1-1.842.623,19.245,19.245,0,0,1-3.755.4c-1.251.026-2.5-.016-3.74-.1q-.932-.061-1.86-.153l-.927-.1a4.607,4.607,0,0,0-.9-.051,2.208,2.208,0,0,0-1.518.744.953.953,0,0,0-.226.754,1.692,1.692,0,0,0,.371.762,3.416,3.416,0,0,0,1.415,1.061,4.593,4.593,0,0,0,.874.229l.913.178a.149.149,0,0,1,.1.071l0,.005a30.605,30.605,0,0,0,2.3,3.54c.053.068.11.119.164.179s.135.133.2.2c.127.138.241.281.352.412a2.886,2.886,0,0,0,.733.644,8.812,8.812,0,0,0,1.908.762,10.11,10.11,0,0,1,2.039.837,4.152,4.152,0,0,1,.9.743c.125.136.255.309.355.424a1.334,1.334,0,0,0,.3.247,4.159,4.159,0,0,0,1.865.422,8.149,8.149,0,0,0,2.015-.188,6.967,6.967,0,0,0,1.886-.7c.58-.33,1.161-.753,1.772-1.138a11.968,11.968,0,0,1,1.951-1,9.253,9.253,0,0,1,1.057-.317l.537-.122.545-.07a12.336,12.336,0,0,1,4.309.322,22.922,22.922,0,0,1,4.032,1.432.044.044,0,0,1-.031.082Z" transform="translate(-165.949 -51.929)" fill="#132136"/><path d="M374.267,360.728c.859-.074,1.718-.108,2.577-.137s1.718-.037,2.577-.042l1.288.009a4.822,4.822,0,0,1,1.309.181,19.306,19.306,0,0,1,2.381,1.031c-.415-.119-.821-.259-1.232-.388a9.518,9.518,0,0,0-1.215-.376,5.4,5.4,0,0,0-1.244-.109l-1.288.009c-.859,0-1.718-.009-2.577-.042S375.126,360.8,374.267,360.728Zm.437.768c.577.445,1.129.92,1.677,1.4.283.23.535.5.811.694a2.874,2.874,0,0,0,.922.44c.319.1.688.11,1.052.178a10.646,10.646,0,0,1,1.076.235,4.328,4.328,0,0,1,1.957.975,3.467,3.467,0,0,0-.976-.449,8.03,8.03,0,0,0-1.043-.258c-.354-.061-.707-.125-1.065-.168a9.693,9.693,0,0,1-1.1-.168,3.115,3.115,0,0,1-1.025-.512,8.874,8.874,0,0,1-.8-.769C375.684,362.573,375.181,362.049,374.7,361.5Zm-8.117-11.419a8.688,8.688,0,0,0-1.037-1.62l.068.044a3.5,3.5,0,0,1-1.814-.87,1.612,1.612,0,0,1-.46-.992,2.1,2.1,0,0,1,.025-.556,4.874,4.874,0,0,1,.164-.516,2.909,2.909,0,0,1,1.525-1.453,2.666,2.666,0,0,1,1.074-.257,1.921,1.921,0,0,1,1.12.352l-.58.185a2.787,2.787,0,0,1,.361-.674,3.037,3.037,0,0,1,.5-.549,3.18,3.18,0,0,1,1.315-.673,3.926,3.926,0,0,1,1.431-.074l.341.044a2.083,2.083,0,0,1,.39.1,3.309,3.309,0,0,1,.673.318,5.113,5.113,0,0,1,1.846,2.106,10.366,10.366,0,0,1,.865,2.568l-.832.051a4.9,4.9,0,0,1,.5-1.623,3.479,3.479,0,0,1,1.128-1.306,3.13,3.13,0,0,1,1.646-.51,3.008,3.008,0,0,1,.419.012l.208.013a1.026,1.026,0,0,1,.241.039,2.664,2.664,0,0,1,.787.384,5.419,5.419,0,0,1,1.822,2.636,12.83,12.83,0,0,1,.668,3.053,15.507,15.507,0,0,0-.98-2.921,5.306,5.306,0,0,0-1.83-2.277,2.266,2.266,0,0,0-.617-.263.487.487,0,0,0-.142-.013l-.18,0a2.6,2.6,0,0,0-1.616.462,3.4,3.4,0,0,0-1.218,2.385v0a.422.422,0,0,1-.832.048,9.6,9.6,0,0,0-.812-2.338,4.541,4.541,0,0,0-1.527-1.768,2.458,2.458,0,0,0-.5-.242,1.217,1.217,0,0,0-.239-.063l-.3-.042a3.3,3.3,0,0,0-1.152.037,2.362,2.362,0,0,0-.993.467,2.315,2.315,0,0,0-.656.857l-.018.042a.365.365,0,0,1-.479.193.382.382,0,0,1-.084-.05,1.465,1.465,0,0,0-1.488-.094,2.387,2.387,0,0,0-1.285,1.079,1.361,1.361,0,0,0,.078,1.552,3.208,3.208,0,0,0,1.551.924l.015,0a.1.1,0,0,1,.053.04,7.145,7.145,0,0,1,.855,1.75Zm-2.976-.3a2.046,2.046,0,0,0-1.167-1.039,2.165,2.165,0,0,0-1.5.113,1.315,1.315,0,0,0-.9,1,2.31,2.31,0,0,0,.378,1.371,6.766,6.766,0,0,0,.953,1.239c.088.1.182.186.274.277l.3.261c.213.184.42.372.624.562.818.757,1.583,1.552,2.345,2.359a.414.414,0,0,1,.108.219l0,.028a2.982,2.982,0,0,0,.249.74,4.043,4.043,0,0,0,1.008,1.317c.215.195.43.325.718.546a5.347,5.347,0,0,1,1.311,1.5,6.514,6.514,0,0,1,.75,1.828l-.02-.063a2.717,2.717,0,0,0,1.075,1.355,3.518,3.518,0,0,0,1.746.479,7.71,7.71,0,0,0,1.914-.2,12.225,12.225,0,0,0,1.882-.572,9.875,9.875,0,0,1-1.81.83,7.488,7.488,0,0,1-1.983.406,3.959,3.959,0,0,1-2.059-.41,3.251,3.251,0,0,1-.855-.687,3.988,3.988,0,0,1-.585-.918l-.008-.02-.012-.043a6.051,6.051,0,0,0-.716-1.563,4.977,4.977,0,0,0-1.148-1.248c-.2-.155-.517-.35-.763-.569a4.858,4.858,0,0,1-.7-.728,4.457,4.457,0,0,1-.539-.867,3.688,3.688,0,0,1-.317-1.019l.113.247c-.738-.8-1.5-1.6-2.265-2.369-.193-.192-.387-.381-.584-.564l-.312-.293c-.1-.106-.2-.211-.3-.321a7.253,7.253,0,0,1-.976-1.431,2.735,2.735,0,0,1-.334-1.786,1.507,1.507,0,0,1,.181-.459,2.632,2.632,0,0,1,.309-.375l.383-.264.411-.169a2.4,2.4,0,0,1,1.729.05A2.07,2.07,0,0,1,363.61,349.777Z" transform="translate(-152.065 -122.285)" fill="#132136"/><path d="M370.965,358.607a2.627,2.627,0,0,1,.027-1.488,1.727,1.727,0,0,1,.379-.679.937.937,0,0,1,.694-.323,1.4,1.4,0,0,0-.473.493,2.722,2.722,0,0,0-.26.617C371.191,357.664,371.105,358.125,370.965,358.607Zm1.042-7.819c.3-.075.551-.126.814-.178a4.607,4.607,0,0,1,.836-.109,1.256,1.256,0,0,1-.768.459A1.093,1.093,0,0,1,372.008,350.788Zm1.61-3.878a3.963,3.963,0,0,0,.15,1.134,1.977,1.977,0,0,0,.565.961,1.406,1.406,0,0,0,1.066.322,3.609,3.609,0,0,0,.587-.1l.567-.2-.55.257a3.706,3.706,0,0,1-.593.154,1.573,1.573,0,0,1-1.212-.258,2.244,2.244,0,0,1-.743-1.028,4.323,4.323,0,0,1-.278-1.238.221.221,0,0,1,.441-.034c0,.007,0,.013,0,.02Z" transform="translate(-158.432 -124.681)" fill="#132136"/><path d="M381.128,352.856a11.068,11.068,0,0,1,.809,1.462,5.446,5.446,0,0,1,.527,1.625.67.67,0,0,0,.408.469,2.482,2.482,0,0,0,.733.235,2.3,2.3,0,0,0,.789.007,1.051,1.051,0,0,0,.7-.352,1.041,1.041,0,0,1-.658.522,2.468,2.468,0,0,1-.86.1,2.313,2.313,0,0,1-.857-.206.986.986,0,0,1-.611-.747,7.9,7.9,0,0,0-.424-1.545Zm5.385.565a5.894,5.894,0,0,0,.646,1.967,3.267,3.267,0,0,0,.281.418,3.291,3.291,0,0,1,.35.51,2.882,2.882,0,0,1,.241.577c.061.211.089.386.131.561a1.707,1.707,0,0,0,.127.452,1.309,1.309,0,0,0,.321.335,1.2,1.2,0,0,0,.888.244,1.482,1.482,0,0,0,.842-.508,4.153,4.153,0,0,0,.612-.887l-.009.028a11.277,11.277,0,0,0,.219-1.575,5.122,5.122,0,0,0-.105-1.588,5.177,5.177,0,0,1,.221,1.591,11.439,11.439,0,0,1-.107,1.615.081.081,0,0,1-.007.023l0,.005a4.43,4.43,0,0,1-.586.994,1.828,1.828,0,0,1-1,.688,1.631,1.631,0,0,1-1.235-.237,1.8,1.8,0,0,1-.48-.437.921.921,0,0,1-.155-.322l-.083-.275a3.16,3.16,0,0,0-.384-.958,2.624,2.624,0,0,0-.312-.389,3.955,3.955,0,0,1-.38-.484,6.644,6.644,0,0,1-.906-2.206.442.442,0,1,1,.861-.2q0,.016.006.032Zm-.814,7.729c.018,0,.031,0,.048,0l.04.026Z" transform="translate(-164.165 -128.135)" fill="#132136"/><path d="M386.664,363.854A73.312,73.312,0,0,1,370.172,359a2.844,2.844,0,0,0-.97-.234c-1.614-.084-2.17.441-2.32.984a1.257,1.257,0,0,0,.569,1.389l7.882,4.958,0,0a6.869,6.869,0,0,1,1.367-1.253,5.843,5.843,0,0,1-.684,1.1,4.171,4.171,0,0,1,2.241.009c9.126.865,11.419-1.041,11.419-1.041A5.935,5.935,0,0,0,386.664,363.854Zm-6.656-.754,1.853,1.35-4.247-.635-3.824-2.563Zm2.382,2.289c-1.579-.146-3.154-.326-4.728-.5a.294.294,0,0,1-.088-.031c-1.456-.878-2.907-1.764-4.345-2.673l-2.157-1.372c-.706-.472-1.425-.926-2.126-1.412.754.4,1.5.816,2.241,1.222l2.219,1.266c1.464.834,2.911,1.7,4.358,2.567,1.553.19,3.114.384,4.667.6s3.136.45,4.7.723C385.544,365.684,383.965,365.539,382.39,365.389Z" transform="translate(-156.181 -131.435)" fill="#132136"/><path d="M391.58,371.69l-.088-.031c.018,0,.031,0,.048,0Z" transform="translate(-169.958 -138.645)" fill="#132136"/><path d="M236.964,215.933a1.723,1.723,0,0,0-2.19.529s-1.888-2.682-9.891-.359c0,0,1.057,2.021,1.812,2.021s-1.435,3.473-3.473,3.322c0,0-3.473,5.059-.831,9.967,2.6,4.837,4.476,6.374,7.059,3.236a1.96,1.96,0,0,1,.264-.267c.743-.613,4.032-3.16,5.2-1.261a1.852,1.852,0,0,1,.2,1.4c-.532,2.229-3.02,10.437-10.227,7.161,0,0-8.4-3.15-6.418-10.611a9.319,9.319,0,0,1,.914-2.169,5.83,5.83,0,0,0,.432-4.6,4.606,4.606,0,0,0-1.927-2.614,1.924,1.924,0,0,0-3.018.766,4.389,4.389,0,0,0-.575,2.166,2.378,2.378,0,0,0,.7,1.957l-.7,1.359a9.292,9.292,0,0,0-1.448-2.134,6.347,6.347,0,0,1-1.775-3.624,13.328,13.328,0,0,1,2.64-9.192s3.473-6.946,9.967-6.8S235.756,208.081,236.964,215.933Z" transform="translate(-69.074 -46.161)" fill="#132136"/><path d="M245.221,248.434a12.149,12.149,0,0,1,3.442-.284,8.658,8.658,0,0,1,1.723.261,3.484,3.484,0,0,1,1.555.777,5.282,5.282,0,0,0-1.623-.457c-.555-.08-1.115-.138-1.68-.163C247.509,248.5,246.374,248.493,245.221,248.434Zm10.873-.108a3.094,3.094,0,0,0-1.122.618,1.428,1.428,0,0,0-.518,1.044,3.277,3.277,0,0,0,.318,1.185l.494,1.214a7.336,7.336,0,0,1,.631,2.6,1.968,1.968,0,0,1-.128.693,1.376,1.376,0,0,1-.428.569,2.065,2.065,0,0,1-1.3.308,2.156,2.156,0,0,0,1.166-.466,1.371,1.371,0,0,0,.361-1.1,5.025,5.025,0,0,0-.254-1.234c-.127-.409-.279-.814-.44-1.217s-.323-.811-.474-1.227c-.072-.21-.146-.42-.2-.641a1.792,1.792,0,0,1-.07-.709,1.621,1.621,0,0,1,.716-1.18A2.822,2.822,0,0,1,256.094,248.326Z" transform="translate(-88.203 -69.6)" fill="#132136"/><path d="M234.754,228.279q.212,1.269.316,2.553t.146,2.57c.013.859,0,1.72-.067,2.581a7.368,7.368,0,0,1-.579,2.55.117.117,0,0,1-.019.028,10.375,10.375,0,0,0-.745.9,3.656,3.656,0,0,0-.305.5.877.877,0,0,0-.112.559.854.854,0,0,1,.031-.592,3.769,3.769,0,0,1,.253-.547,6.764,6.764,0,0,1,.681-.99l-.019.027a4.961,4.961,0,0,0,.29-1.2c.065-.414.092-.837.123-1.258.05-.846.059-1.7.063-2.548C234.811,231.7,234.774,229.994,234.754,228.279Zm-4.53,14.8a2.968,2.968,0,0,0-.192.511,1.1,1.1,0,0,0-.031.5.841.841,0,0,0,.208.445,2.777,2.777,0,0,0,.393.374,2.553,2.553,0,0,1-.269-.1,1.461,1.461,0,0,1-.241-.166.906.906,0,0,1-.3-.522,1.09,1.09,0,0,1,.087-.59,1.245,1.245,0,0,1,.344-.457Zm-17.441-4.153a4.028,4.028,0,0,1,.618,1.087,2.976,2.976,0,0,1,.171.621,1.7,1.7,0,0,1,.022.337l0,.087.005.047a.164.164,0,0,0,.019.088.607.607,0,0,0,.32.3,2.562,2.562,0,0,0,.527.2,5.047,5.047,0,0,0,1.188.172,2.5,2.5,0,0,1-1.249.149,2.222,2.222,0,0,1-.64-.164.975.975,0,0,1-.541-.519.527.527,0,0,1-.039-.209l0-.106,0-.066a1.868,1.868,0,0,0-.006-.274,4.174,4.174,0,0,0-.09-.575C213,239.718,212.89,239.328,212.783,238.925Zm-.7,1.359a8.333,8.333,0,0,1-.708,1.757,8.7,8.7,0,0,1-1.064,1.583,6.052,6.052,0,0,1-1.447,1.265,3.7,3.7,0,0,1-1.82.554,5.267,5.267,0,0,0,1.638-.825,8.139,8.139,0,0,0,1.311-1.266,14.574,14.574,0,0,0,1.1-1.478C211.433,241.356,211.769,240.832,212.082,240.284Zm5.533,17.668a6.713,6.713,0,0,0,1.344-.787,11.485,11.485,0,0,0,1.172-1c.379-.35.719-.742,1.072-1.125l.514-.594c.167-.2.334-.407.519-.6-.105.245-.227.481-.349.72-.138.227-.274.458-.426.678a8.329,8.329,0,0,1-1.039,1.225,6.592,6.592,0,0,1-1.286.977,3.672,3.672,0,0,1-1.521.513Z" transform="translate(-66.864 -58.506)" fill="#132136"/><path d="M209.646,260.3a6.124,6.124,0,0,0-1.376-1.454.862.862,0,0,0-.83-.176,1.244,1.244,0,0,0-.506.719,5.4,5.4,0,0,0-.222.96c-.022.162-.042.331-.057.487,0,.149.014.323.029.486a11.4,11.4,0,0,0,.369,1.969,14.327,14.327,0,0,0,1.533,3.734,17.109,17.109,0,0,0,2.473,3.214c.476.481.97.944,1.472,1.4.521.43,1.019.892,1.562,1.286.262.211.55.383.824.576.289.166.567.355.868.5a7.994,7.994,0,0,0,1.844.723,5.409,5.409,0,0,0,3.83-.4,7.6,7.6,0,0,0,2.9-2.724.021.021,0,0,1,.028-.009.023.023,0,0,1,.009.028,7.134,7.134,0,0,1-2.778,2.994,5.483,5.483,0,0,1-1.988.667,5.838,5.838,0,0,1-2.1-.133,7.619,7.619,0,0,1-1.947-.757c-.312-.155-.6-.356-.891-.535-.278-.2-.572-.389-.835-.611-.553-.415-1.036-.9-1.548-1.355-.261-.222-.482-.487-.721-.731s-.48-.487-.695-.755a26.214,26.214,0,0,1-2.428-3.295,16.277,16.277,0,0,1-1.743-3.714,9.688,9.688,0,0,1-.4-2.032c-.012-.177-.022-.342-.018-.533.02-.182.045-.351.072-.525a5.709,5.709,0,0,1,.261-1.019,1.432,1.432,0,0,1,.7-.861.85.85,0,0,1,.588-.012,1.606,1.606,0,0,1,.48.263,5.39,5.39,0,0,1,1.284,1.611.021.021,0,0,1-.008.029.022.022,0,0,1-.028-.007Z" transform="translate(-66.449 -75.317)" fill="#132136"/><path d="M163.754,257.47a5.8,5.8,0,0,0-2.21-.8,3.253,3.253,0,0,0-2.244.4,2.734,2.734,0,0,0-.785.84l-.685.984a14.715,14.715,0,0,1-1.518,1.884.131.131,0,0,1-.1.037h-.01c-2.822-.167-5.653-.234-8.477-.215-1.412.012-2.823.068-4.226.179a17.914,17.914,0,0,0-4.106.713l-.024.006-.032.007a7.144,7.144,0,0,0-2.087.908,9.642,9.642,0,0,0-.963.667l-.466.358c-.15.126-.292.263-.438.394a20.033,20.033,0,0,0-3.086,3.574,39.635,39.635,0,0,0-4.32,8.469c-.271.749-.567,1.489-.817,2.246l-.715,2.283c-.242.752-.458,1.548-.74,2.309s-.594,1.512-.9,2.25l-.945,2.218-.492,1.105a12.362,12.362,0,0,1-.56,1.119,1.418,1.418,0,0,1-.141.192c.03,0,.033-.068.034-.04a.427.427,0,0,0,.005.129,1.654,1.654,0,0,0,.16.447,2.965,2.965,0,0,0,.65.834,3.569,3.569,0,0,0,1.939.886l-.284.688a12.639,12.639,0,0,1-1.26-1.128,3.731,3.731,0,0,1-.561-.725,1.317,1.317,0,0,1-.112-.271,1.291,1.291,0,0,1-.029-.189.731.731,0,0,1,.042-.244.58.58,0,0,1,.148-.221,1.094,1.094,0,0,1,.1-.08c.029-.017.058-.03.087-.044a1.028,1.028,0,0,1,.314-.087,3.279,3.279,0,0,1,.926.066c.284.051.556.12.827.192l.808.257.781.313c2.041.921,3.851,2.143,5.735,3.219a54.045,54.045,0,0,0,5.8,2.933,60.854,60.854,0,0,0,6.112,2.225h0a.262.262,0,0,1,.183.272,58,58,0,0,0-.218,6.1,21.224,21.224,0,0,0,.259,3.022,5.536,5.536,0,0,0,.417,1.414,1.422,1.422,0,0,0,.409.52c.045.019.088.04.132.063s.095.013.142.024c.105.013.249.005.372.008l12.27.033c4.09.02,8.18,0,12.27-.007l12.27-.041-.141.063a19.848,19.848,0,0,1,2.732-2.394,14.99,14.99,0,0,1,3.169-1.791,9.215,9.215,0,0,1,3.593-.721,7.438,7.438,0,0,1,1.852.269l1.7.57c.568.184,1.138.364,1.709.53a7.737,7.737,0,0,0,1.693.366,4.776,4.776,0,0,1,1.819.59,2.992,2.992,0,0,1,.788.609,1.384,1.384,0,0,1,.371,1.016,5.648,5.648,0,0,1-.032.948,1.731,1.731,0,0,1-.44.98,1.585,1.585,0,0,1-.99.452,3.585,3.585,0,0,1-.984-.031,6.916,6.916,0,0,1-.917-.209l-.858-.259a6.706,6.706,0,0,0-.835-.182,1.677,1.677,0,0,0-.707.007l.085-.584a7.5,7.5,0,0,0,3.851,1.344,9.491,9.491,0,0,0,2.09-.12c.713-.1,1.42-.217,2.138-.337.362-.057.721-.12,1.119-.146a2.318,2.318,0,0,1,.652.038,1.222,1.222,0,0,1,.666.393,1.845,1.845,0,0,1,.338.6,3.189,3.189,0,0,1,.09,1.84,3,3,0,0,1-1.517,1.9,6.187,6.187,0,0,1-2.23.654l.34-.256a6.371,6.371,0,0,1-.672,1.175,5.713,5.713,0,0,1-.914,1,4.083,4.083,0,0,1-1.214.7,3.612,3.612,0,0,1-1.415.18l.363-.149c-.737.859-1.46,1.7-2.29,2.514-.106.1-.218.2-.343.3a3.817,3.817,0,0,1-.4.268,6.3,6.3,0,0,1-.815.385,9.593,9.593,0,0,1-1.689.484,12.563,12.563,0,0,1-3.463.159c-.288-.02-.573-.067-.86-.1l-.849-.149-.8-.13-.81-.085a39.569,39.569,0,0,0-6.612.213c-2.209.224-4.412.557-6.6.946-1.088.193-2.165.449-3.262.691s-2.189.479-3.289.7c-2.2.439-4.409.84-6.632,1.158a98.406,98.406,0,0,1-13.421,1.061c-.562,0-1.123.023-1.684.01l-1.684-.038c-1.123-.008-2.244-.088-3.365-.154-1.122-.048-2.239-.178-3.357-.287-.561-.062-1.111-.1-1.684-.185a14.586,14.586,0,0,1-1.681-.363,12.666,12.666,0,0,1-5.855-3.475,10.72,10.72,0,0,1-2.884-6.138c-.492-4.466-.689-8.938-.8-13.413s-.11-8.948-.037-13.421a.044.044,0,1,1,.088,0q.028,6.707.309,13.408c.2,4.463.442,8.933,1,13.352a10.107,10.107,0,0,0,2.8,5.758,12.02,12.02,0,0,0,5.571,3.237,13.858,13.858,0,0,0,1.6.331c.533.079,1.1.111,1.651.167,1.109.1,2.215.218,3.329.256,1.112.056,2.222.126,3.336.124l1.669.023c.556.008,1.113-.017,1.669-.024l1.669-.034,1.668-.086c1.112-.044,2.222-.142,3.331-.231,1.111-.072,2.216-.22,3.324-.328,1.1-.138,2.21-.274,3.311-.439,2.2-.32,4.4-.721,6.581-1.161,1.092-.223,2.181-.46,3.271-.7s2.185-.5,3.3-.7c2.21-.4,4.432-.736,6.672-.967a38.312,38.312,0,0,1,6.781-.2l.857.093.858.145.8.144c.269.031.536.077.805.1a11.683,11.683,0,0,0,3.217-.131,8.741,8.741,0,0,0,1.533-.43,5.444,5.444,0,0,0,.7-.327,3.014,3.014,0,0,0,.3-.194c.093-.074.189-.16.286-.251.773-.748,1.515-1.6,2.237-2.434a.433.433,0,0,1,.341-.15h.021a2.764,2.764,0,0,0,1.063-.13,3.245,3.245,0,0,0,.952-.547,4.892,4.892,0,0,0,.777-.848,5.638,5.638,0,0,0,.582-1v0a.43.43,0,0,1,.339-.253,5.4,5.4,0,0,0,1.918-.544,2.182,2.182,0,0,0,1.135-1.382,2.255,2.255,0,0,0,.049-.92,1.727,1.727,0,0,0-.289-.792.415.415,0,0,0-.253-.15,1.6,1.6,0,0,0-.43-.023c-.326.017-.683.073-1.037.126-.712.111-1.436.226-2.16.317a10.256,10.256,0,0,1-2.242.1,8.165,8.165,0,0,1-4.233-1.541l-.007,0a.33.33,0,0,1,.091-.579,2.165,2.165,0,0,1,1.071-.043,7.365,7.365,0,0,1,.918.21l.86.27a6.265,6.265,0,0,0,.832.2,1.677,1.677,0,0,0,1.423-.22,2.085,2.085,0,0,0,.311-1.478,1.285,1.285,0,0,0-.008-.2.35.35,0,0,0-.031-.141.87.87,0,0,0-.175-.287,2.42,2.42,0,0,0-.625-.487,4.245,4.245,0,0,0-1.57-.533,8.242,8.242,0,0,1-1.808-.406c-.578-.175-1.15-.362-1.719-.553l-1.7-.59a7,7,0,0,0-1.692-.258,8.762,8.762,0,0,0-3.41.65,17.24,17.24,0,0,0-5.79,4.013l-.006.006a.19.19,0,0,1-.136.057l-12.269-.041c-4.09,0-8.179-.027-12.269-.007l-12.269.033c-.132,0-.245.008-.394,0a1.587,1.587,0,0,1-.235-.039l-.215-.1a1.758,1.758,0,0,1-.548-.657,5.886,5.886,0,0,1-.472-1.511,21.6,21.6,0,0,1-.308-3.081,58.426,58.426,0,0,1,.135-6.159l.186.272a61.11,61.11,0,0,1-6.2-2.164,54.684,54.684,0,0,1-5.905-2.89c-1.917-1.053-3.742-2.277-5.687-3.141l-.737-.292-.751-.236c-.256-.066-.513-.13-.766-.174a2.672,2.672,0,0,0-.7-.056c-.031.008-.086.015-.078.019h-.005a.04.04,0,0,0,.02-.012c0-.012.029-.03.034-.056.013-.1,0-.007.058.073a3.087,3.087,0,0,0,.444.559,11.929,11.929,0,0,0,1.179,1.046l0,0a.386.386,0,0,1-.287.686,4.348,4.348,0,0,1-2.37-1.075,3.74,3.74,0,0,1-.822-1.052,2.4,2.4,0,0,1-.24-.681,1.1,1.1,0,0,1,.012-.466.75.75,0,0,1,.166-.306c.009-.025,0,0,.031-.054.173-.3.349-.678.515-1.031l.492-1.089.952-2.2c.312-.74.631-1.468.9-2.209s.486-1.493.739-2.266l.734-2.3c.257-.764.561-1.512.839-2.269a40.311,40.311,0,0,1,4.445-8.6,24.02,24.02,0,0,1,1.491-1.926,19.448,19.448,0,0,1,1.728-1.729c.154-.134.3-.274.461-.4l.492-.369a10.194,10.194,0,0,1,1.022-.687,7.527,7.527,0,0,1,2.319-.958l-.056.013a18.343,18.343,0,0,1,4.253-.688c1.422-.093,2.843-.132,4.263-.126,2.84.006,5.673.15,8.5.376l-.109.037a14.635,14.635,0,0,0,1.517-1.807l.7-.965a2.943,2.943,0,0,1,.858-.875,2.619,2.619,0,0,1,1.156-.4,4.415,4.415,0,0,1,1.213.024,5.913,5.913,0,0,1,2.239.867.044.044,0,1,1-.047.075Z" transform="translate(-19.282 -74.265)" fill="#132136"/><path d="M169.818,272.692a3.247,3.247,0,0,1,1.447.865,4.462,4.462,0,0,1,.965,1.412,4.615,4.615,0,0,1,.378,1.662,4.705,4.705,0,0,1-.043.843,4.612,4.612,0,0,1-.219.813c-.1-.273-.142-.536-.214-.794s-.123-.51-.209-.754a11.726,11.726,0,0,0-.5-1.419,10.192,10.192,0,0,0-.693-1.328A12.78,12.78,0,0,0,169.818,272.692Zm1.924,10.571c.17,1.958.253,3.915.305,5.873s.064,3.914.06,5.871c-.02,1.957-.052,3.913-.134,5.87s-.186,3.913-.382,5.868c-.171-1.958-.254-3.915-.306-5.873s-.064-3.914-.059-5.871c.021-1.957.053-3.913.136-5.87S171.547,285.219,171.742,283.263Zm40.38-12.935q2.423,1.516,4.757,3.158,1.168.82,2.317,1.669l1.14.871a4.946,4.946,0,0,1,.563.493l.271.283.228.289a21.488,21.488,0,0,1,1.613,2.4q.731,1.233,1.422,2.482,1.367,2.51,2.815,4.964.724,1.228,1.477,2.44l.75,1.211a6.349,6.349,0,0,0,.788,1.107c.32.313.7.624,1.031,1.014a2.415,2.415,0,0,1,.667,1.507,2.249,2.249,0,0,1-.7,1.522,7.491,7.491,0,0,1-.569.518c-.178.143-.35.293-.519.448-.339.312-.652.639-.969.992s-.658.7-1,1.047a23.1,23.1,0,0,1-2.18,1.919,12.452,12.452,0,0,1-2.534,1.519,5.908,5.908,0,0,1-1.479.409,3.445,3.445,0,0,1-1.592-.138.345.345,0,0,1-.2-.152l0,0c-.331-.548-.694-1.1-1.06-1.631s-.75-1.062-1.151-1.574a17.67,17.67,0,0,0-1.289-1.454,4.412,4.412,0,0,0-1.575-1.089h0a.044.044,0,0,1,.023-.085,4.271,4.271,0,0,1,1.764.937,13.146,13.146,0,0,1,1.453,1.37,27.084,27.084,0,0,1,2.481,3.119l-.2-.156a3.683,3.683,0,0,0,2.47-.359,11.582,11.582,0,0,0,2.312-1.46,25.206,25.206,0,0,0,2.108-1.833c.338-.323.673-.651,1-.99s.681-.7,1.051-1.018c.186-.162.376-.318.573-.468.178-.149.347-.276.5-.427a1.574,1.574,0,0,0,.531-.972,1.719,1.719,0,0,0-.443-1.055c-.27-.348-.611-.663-.943-1.041a3.525,3.525,0,0,1-.245-.31l-.191-.324-.344-.631-.673-1.259q-.666-1.262-1.36-2.506c-.928-1.658-1.906-3.288-2.966-4.865s-2.116-3.169-3.254-4.623l-.215-.269-.224-.229a4.194,4.194,0,0,0-.5-.454l-1.109-.881L216.5,274q-2.244-1.756-4.43-3.6a.044.044,0,0,1,.052-.071Z" transform="translate(-46.059 -82.004)" fill="#132136"/><path d="M264.317,302.63c-.772,2.9-1.5,5.81-2.11,8.731a34.139,34.139,0,0,0-.655,4.39c-.042.71-.046,1.493-.108,2.253a13.077,13.077,0,0,1-.387,2.293,12.231,12.231,0,0,1-2.188,4.076c-.454.605-.935,1.19-1.385,1.778-.216.292-.436.582-.631.894s-.4.618-.585.936a37.134,37.134,0,0,0-1.978,4c-.61,1.365-1.137,2.767-1.651,4.178a36.7,36.7,0,0,1,3.027-8.508,15.282,15.282,0,0,1,1.2-1.961c.445-.615.9-1.2,1.33-1.809a11.613,11.613,0,0,0,2.012-3.817,12.207,12.207,0,0,0,.379-2.133c.07-.735.068-1.453.135-2.239a29.793,29.793,0,0,1,.816-4.478,69.792,69.792,0,0,1,2.779-8.58Zm12.907,10.923c.97.754,1.89,1.557,2.824,2.3.236.182.471.361.7.518l.385.229q.212.134.4.282a9.893,9.893,0,0,1,1.361,1.331,10.871,10.871,0,0,1,1.891,3.243,6.907,6.907,0,0,1,.374,3.685,10.068,10.068,0,0,0-1-3.42,14.35,14.35,0,0,0-1.934-2.941,9.8,9.8,0,0,0-1.216-1.246c-.107-.095-.217-.182-.327-.263l-.382-.265a7.21,7.21,0,0,1-.713-.632,19.947,19.947,0,0,1-2.364-2.826Zm-9.738,6.726a9.613,9.613,0,0,1,1.734,3.933c.031.182.057.365.081.549s.019.389.041.541a3.637,3.637,0,0,0,.221.911,8.986,8.986,0,0,0,.94,1.776,15.573,15.573,0,0,0,1.235,1.644c.216.268.455.517.685.775.249.237.476.5.733.731a10.187,10.187,0,0,0,3.443,2.3,5.941,5.941,0,0,1-2.067-.6,10.826,10.826,0,0,1-1.825-1.174,13.778,13.778,0,0,1-2.942-3.188,9.158,9.158,0,0,1-.99-1.988,4.38,4.38,0,0,1-.2-1.158c-.012-.2-.006-.342-.006-.517l-.025-.505A14.654,14.654,0,0,0,267.485,320.279Zm9.738,11.32a4.467,4.467,0,0,1,.58-1.608,6.826,6.826,0,0,1,1.046-1.37,7.515,7.515,0,0,1,1.356-1.057,7.687,7.687,0,0,1,.755-.4c.264-.109.528-.214.8-.3-.468.325-.929.637-1.367.976a13.408,13.408,0,0,0-1.245,1.084,11.076,11.076,0,0,0-1.069,1.25A8.44,8.44,0,0,0,277.223,331.6Z" transform="translate(-92.349 -100.063)" fill="#132136"/><path d="M311.978,357.409a45.99,45.99,0,0,1,3.215-4.511q.871-1.081,1.81-2.111a25.122,25.122,0,0,1,2.021-1.939,9.668,9.668,0,0,1,2.414-1.553,3.672,3.672,0,0,1,1.5-.287,3.112,3.112,0,0,1,1.5.428,4.678,4.678,0,0,1,1.848,2.294,6.484,6.484,0,0,1,.4,1.4,3.508,3.508,0,0,1-.029,1.5l-.141-.309c.992.506,1.948,1.055,2.9,1.625s1.879,1.163,2.778,1.807a16.063,16.063,0,0,1,2.541,2.148,6.172,6.172,0,0,1,.982,1.384,2.353,2.353,0,0,1,.19,1.752l0-.016a2.493,2.493,0,0,1-.771,1.253,1.8,1.8,0,0,1-1.477.36,3.75,3.75,0,0,1-1.337-.558,8.5,8.5,0,0,1-1.1-.855l.591-.255a4.848,4.848,0,0,1-.382,1.758,4.376,4.376,0,0,1-1.015,1.493,4.746,4.746,0,0,1-1.516.965,6.829,6.829,0,0,0-.694.349,2.674,2.674,0,0,0-.3.2.821.821,0,0,0-.1.09c-.024.02-.017.044,0-.034l-.15-.422a2.885,2.885,0,0,1,.67.85,2.275,2.275,0,0,1,0,2.159,3.186,3.186,0,0,1-.634.845,3.389,3.389,0,0,1-1.874.892,6.709,6.709,0,0,1-.983.046,3.391,3.391,0,0,1-1.041-.165h.312a16.61,16.61,0,0,1-3.152.649,14.986,14.986,0,0,1-3.208-.017,6.077,6.077,0,0,1-1.619-.382,2.152,2.152,0,0,1-1.252-1.286,2.43,2.43,0,0,1,.2-1.739,2.978,2.978,0,0,1,.48-.712,1.3,1.3,0,0,1,.828-.475l-.037,0a3.6,3.6,0,0,1,.465-.039,3.908,3.908,0,0,1,.458.017,2.593,2.593,0,0,1,.9.24l-.227.266a3.54,3.54,0,0,1-.326-.789,2.714,2.714,0,0,1-.1-.843,1.743,1.743,0,0,1,.237-.817,1.846,1.846,0,0,1,.585-.593.044.044,0,0,1,.061.012.046.046,0,0,1-.01.059,1.716,1.716,0,0,0-.489.6,1.586,1.586,0,0,0-.15.74,2.451,2.451,0,0,0,.155.749,3.235,3.235,0,0,0,.346.681.181.181,0,0,1-.213.271l-.014-.005a2.471,2.471,0,0,0-.778-.149,3.509,3.509,0,0,0-.406.009,3.193,3.193,0,0,0-.394.056l-.018,0-.019,0a.932.932,0,0,0-.458.345,2.445,2.445,0,0,0-.355.6,1.828,1.828,0,0,0-.089,1.3,1.481,1.481,0,0,0,.906.834,5.416,5.416,0,0,0,1.422.275,14.17,14.17,0,0,0,3.025-.093,15.835,15.835,0,0,0,2.945-.654.486.486,0,0,1,.3,0l.011,0a4.51,4.51,0,0,0,1.578.064,2.449,2.449,0,0,0,1.356-.637,1.9,1.9,0,0,0,.644-1.254,1.441,1.441,0,0,0-.158-.668,2.075,2.075,0,0,0-.432-.581l-.031-.029a.4.4,0,0,1-.118-.393.81.81,0,0,1,.215-.386,1.677,1.677,0,0,1,.21-.185,3.521,3.521,0,0,1,.4-.255,7.671,7.671,0,0,1,.8-.38,3.915,3.915,0,0,0,1.286-.777,3.809,3.809,0,0,0,.873-1.21,4.179,4.179,0,0,0,.376-1.454l0-.026a.348.348,0,0,1,.589-.229,8.275,8.275,0,0,0,.98.822,3.161,3.161,0,0,0,1.087.531,1.245,1.245,0,0,0,1.052-.191,2,2,0,0,0,.655-.963l0-.016a1.946,1.946,0,0,0-.105-1.454,4.959,4.959,0,0,0-.882-1.325,15.063,15.063,0,0,0-2.46-2.142,33.582,33.582,0,0,0-5.74-3.176.256.256,0,0,1-.146-.291l0-.018a3.041,3.041,0,0,0-.057-1.242,5.849,5.849,0,0,0-.426-1.234,4.2,4.2,0,0,0-1.618-1.889,2.625,2.625,0,0,0-2.322-.09,9.167,9.167,0,0,0-2.23,1.4,24.709,24.709,0,0,0-2.018,1.823c-.651.639-1.28,1.3-1.892,1.985-1.215,1.371-2.4,2.779-3.533,4.229a.044.044,0,0,1-.062.009.045.045,0,0,1-.011-.059Z" transform="translate(-125.512 -124.867)" fill="#132136"/><path d="M328.591,355.355a10.084,10.084,0,0,0,.309,2.421,3.506,3.506,0,0,0,.49,1.048,1.46,1.46,0,0,0,.879.593,2.291,2.291,0,0,0,1.118-.013,3.119,3.119,0,0,0,1.062-.467,6.651,6.651,0,0,0,1.7-1.72,5.018,5.018,0,0,1-1.5,2,2.964,2.964,0,0,1-2.487.627,1.864,1.864,0,0,1-1.11-.777,3.481,3.481,0,0,1-.486-1.21A6.64,6.64,0,0,1,328.591,355.355Zm6.494,7.8a4.755,4.755,0,0,1,2.364.729,5.415,5.415,0,0,1,.989.766,4.834,4.834,0,0,1,.775.971c-.314-.272-.616-.541-.936-.786a9.773,9.773,0,0,0-.99-.682,9.425,9.425,0,0,0-1.063-.561A9.6,9.6,0,0,0,335.085,363.157Zm-9.237,7.916a2.656,2.656,0,0,0,.665.489c.239.139.481.269.726.4.49.252.988.494,1.489.731,1,.484,2.007.947,2.983,1.518a15.217,15.217,0,0,1-3.174-1.121,11.866,11.866,0,0,1-1.473-.834A3.545,3.545,0,0,1,325.848,371.072Zm7.777-6a1.4,1.4,0,0,1,.443.381.736.736,0,0,1,.155.605.987.987,0,0,1-.372.522,2.38,2.38,0,0,1-.525.306,1.987,1.987,0,0,0-.249.127,1.836,1.836,0,0,0-.219.126l-.19.167a1.735,1.735,0,0,0-.158.2,1.883,1.883,0,0,0-.348.954,1.741,1.741,0,0,0,.82,1.744.777.777,0,0,0,.237.108c.083.027.164.064.251.087a3.848,3.848,0,0,0,.541.065,4.53,4.53,0,0,0,.56-.02c.185-.033.374-.06.566-.085-.177.07-.359.137-.543.2a4.675,4.675,0,0,1-.575.121,3.765,3.765,0,0,1-.6,0,2.676,2.676,0,0,1-.3-.069,1.015,1.015,0,0,1-.292-.1,1.832,1.832,0,0,1-.892-.869,2.32,2.32,0,0,1,.242-2.385,2.123,2.123,0,0,1,.212-.237l.252-.2a3.168,3.168,0,0,1,.557-.253,1.339,1.339,0,0,0,.821-.571.567.567,0,0,0-.048-.483A1.739,1.739,0,0,0,333.625,365.07Z" transform="translate(-133.268 -129.532)" fill="#132136"/><path d="M321.363,357.721a4.234,4.234,0,0,0,.212.679,1.17,1.17,0,0,0,.381.529.741.741,0,0,0,.608.115,2.414,2.414,0,0,0,.335-.086c.111-.042.219-.091.336-.13-.092.079-.193.147-.292.223a2.391,2.391,0,0,1-.344.151.87.87,0,0,1-.767-.1,1.216,1.216,0,0,1-.41-.647,1.916,1.916,0,0,1-.06-.732Zm.4-.287a2.585,2.585,0,0,1,.728-.1,2.453,2.453,0,0,1,.738.118,1.254,1.254,0,0,1,.62.449,1.017,1.017,0,0,1,.129.732,1.316,1.316,0,0,0-.258-.635,1.215,1.215,0,0,0-.561-.349A5.111,5.111,0,0,0,321.766,357.434Zm3.372,13.273a1.129,1.129,0,0,1,.386-.443.8.8,0,0,1,.611-.126,1.027,1.027,0,0,1,.5.357c.052.085.107.168.152.254s.073.181.1.274c-.129-.147-.243-.293-.372-.421a1,1,0,0,0-.432-.26.691.691,0,0,0-.484.063A2.2,2.2,0,0,0,325.138,370.708Zm-7.744.977a2.335,2.335,0,0,1,.258-.991.7.7,0,0,1,.422-.364.654.654,0,0,1,.549.146,1.457,1.457,0,0,1,.364.4.773.773,0,0,1,.092.546,1.206,1.206,0,0,1-.686.757,1.371,1.371,0,0,0,.527-.785.687.687,0,0,0-.1-.421,1.281,1.281,0,0,0-.323-.329.462.462,0,0,0-.382-.13.61.61,0,0,0-.33.264,3.508,3.508,0,0,0-.394.905Zm-5.381-2.556a2.335,2.335,0,0,1-.284.984.7.7,0,0,1-.432.352.654.654,0,0,1-.545-.16,1.454,1.454,0,0,1-.353-.41.772.772,0,0,1-.078-.548,1.206,1.206,0,0,1,.706-.739,1.37,1.37,0,0,0-.548.771.687.687,0,0,0,.086.424,1.281,1.281,0,0,0,.314.337.462.462,0,0,0,.379.139.61.61,0,0,0,.337-.255A3.511,3.511,0,0,0,312.014,369.129Zm3.158,5.706a2.452,2.452,0,0,1,.375-.66,1.267,1.267,0,0,1,.288-.273.482.482,0,0,1,.445-.069.606.606,0,0,1,.277.34,1.42,1.42,0,0,1,.089.383,2.3,2.3,0,0,1-.033.758,6.2,6.2,0,0,0-.125-.73,2.378,2.378,0,0,0-.106-.337c-.05-.1-.11-.2-.186-.223-.143-.078-.366.1-.53.259A7.363,7.363,0,0,0,315.172,374.835Z" transform="translate(-124.58 -130.64)" fill="#132136"/><path d="M184.872,232.569l-1.782,1.963s.013,2.51-1.257,2.616c0,0-.644.582-.185.7.41.1,1.888-.265,2.527-.19,0,0,3.03-.6,3.546-.273a1.293,1.293,0,0,1,.56.931l.247-.027,9.558.569,4.146-6.29Zm12.315,4.4-13.413-.225,1.751-2.819h13.44Zm-23.306.178a4.988,4.988,0,0,1,1.722-.806,5.884,5.884,0,0,1,1.932-.167.221.221,0,0,1-.033.441l-.027,0a5.557,5.557,0,0,0-1.828-.054A4.88,4.88,0,0,0,173.88,237.148ZM177.5,241.7c1.241.023,2.482.066,3.723.184.307.027.628.078.925.112a5.122,5.122,0,0,0,.9.018,5.331,5.331,0,0,0,1.729-.415l.014-.006a.221.221,0,0,1,.178.4l-.012.005a5.678,5.678,0,0,1-1.9.343,5.431,5.431,0,0,1-.954-.076c-.317-.056-.606-.12-.915-.166C179.979,241.918,178.741,241.8,177.5,241.7Zm.956,3.423q.631-.227,1.276-.424a10.417,10.417,0,0,1,1.326-.325.221.221,0,1,1,.071.437l-.035,0h0a10.119,10.119,0,0,0-1.311.1C179.342,244.977,178.9,245.047,178.461,245.128Zm1.661-11.145a2.762,2.762,0,0,0,.784.568,4.355,4.355,0,0,0,.928.307,1.468,1.468,0,0,1-.516.027,1.766,1.766,0,0,1-.5-.146,1.662,1.662,0,0,1-.424-.313A1.1,1.1,0,0,1,180.122,233.982Zm6.733,7.8a.441.441,0,0,1,0-.882l5.587-.053a.432.432,0,0,1,.445.437.441.441,0,0,1-.437.445l-5.587.053Zm15.353-.143a.441.441,0,1,1,0-.882l15.4-.02h0a.441.441,0,0,1,0,.882l-15.4.02Zm102.246-.136a.441.441,0,0,1,0-.882l14.156-.017h0a.441.441,0,1,1,0,.882l-14.156.017Zm-80.627-.228h-1.047a.106.106,0,0,1-.107-.1.1.1,0,0,1,.1-.1h1.051a.1.1,0,1,1,0,.209Zm-135.973,1.43a.441.441,0,1,1,0-.882l19.419-.18a.453.453,0,0,1,.445.437.441.441,0,0,1-.437.445l-19.419.18Zm73.24-61.053a.63.63,0,1,0-.608-.629.63.63,0,0,0,.608.629Zm31.807-12.2-5.151.192c-1.69.051-3.361.092-5.023.123s-3.313.049-4.959.031-3.295-.086-4.959-.132l.245-.245c-.026.951-.07,1.9-.082,2.852s-.024,1.9-.03,2.852c0,1.9.039,3.8.092,5.7l-.225-.225,4.111-.114a.316.316,0,0,1,.228.088l.012.012,1.57,1.51h-.54l1.518-1.562a.4.4,0,0,1,.281-.121H180c2.155-.018,4.311-.062,6.466-.058q1.617-.008,3.233.013l3.233.041-.416.416c.03-1.853.083-3.706.16-5.6Zm.062-.062.225,5.628c.077,1.911.13,3.86.16,5.81a.41.41,0,0,1-.4.416h-.013l-3.233.041q-1.617.019-3.233.013c-2.155,0-4.311-.04-6.466-.058l.292-.121-1.562,1.518-.009.009a.374.374,0,0,1-.529-.008h0l-1.51-1.57.24.1-4.111-.114H172.8a.219.219,0,0,1-.213-.225h0c.054-1.9.094-3.8.092-5.7-.006-.951-.007-1.9-.03-2.852s-.056-1.9-.082-2.852a.238.238,0,0,1,.231-.245h.014c1.69-.046,3.4-.12,5.1-.132s3.407.008,5.1.031,3.375.072,5.039.123Zm59.117-21.038-7.581.131-7.517.095-14.93.1-7.428-.026-7.424-.094c-4.954-.076-9.932-.112-14.909-.1l.142-.142.026,5.7.066,5.7-.234-.234c4.386-.06,8.771-.116,13.157-.147l13.157-.073c4.386-.034,8.771.005,13.157,0s8.771.052,13.157.087h.006a.355.355,0,0,1,.25.106l1.526,1.554h-.484l1.557-1.523.006-.006a.308.308,0,0,1,.219-.088l4.111.06-.258.258c.03-1.872.055-3.744.106-5.641Zm.062-.062.121,5.671c.052,1.905.076,3.836.106,5.766a.254.254,0,0,1-.25.258h-.008l-4.111.06.225-.093-1.523,1.557a.339.339,0,0,1-.479.005h0l0,0-1.554-1.526.256.106c-4.386.035-8.771.093-13.157.087s-8.771.038-13.157,0L205.45,160.1c-4.386-.03-8.771-.087-13.157-.147h-.006a.231.231,0,0,1-.228-.234l.066-5.7.026-5.7a.142.142,0,0,1,.142-.142c4.994.013,9.985-.024,15-.1l7.531-.094,7.527-.026,14.98.1,7.438.095Zm-41.6-24.279c-3.234.092-6.414.156-9.575.211s-6.3.1-9.427.119-6.235,0-9.348-.065c-3.115-.053-6.245-.14-9.385-.156l.141-.141c0,.951-.015,1.9,0,2.852l.017,2.852c0,1.9.049,3.8.076,5.7l-.231-.231,4.111-.077a.294.294,0,0,1,.21.082l.008.008,1.564,1.515h-.484l1.52-1.559a.358.358,0,0,1,.253-.108H180l7.644-.066c2.548-.02,5.1-.039,7.644-.035,5.1,0,10.192.072,15.288.14l-.331.331.135-5.622Zm.062-.062.165,5.653.135,5.785a.324.324,0,0,1-.316.331h-.015c-5.1.068-10.192.142-15.288.14-2.548,0-5.1-.015-7.644-.035L180,135.752l.262-.108-1.559,1.52-.007.007a.337.337,0,0,1-.477-.006h0L176.7,135.6l.218.09-4.111-.077H172.8a.227.227,0,0,1-.223-.231c.028-1.9.074-3.8.077-5.7l.017-2.852c.011-.951,0-1.9,0-2.852a.141.141,0,0,1,.141-.141c3.154-.016,6.319-.1,9.5-.156,3.181-.07,6.368-.089,9.535-.065s6.33.054,9.456.119,6.248.119,9.308.211Z" transform="translate(0)" fill="#132136"/></g></g></svg>