<svg xmlns="http://www.w3.org/2000/svg" width="356.847" height="229.795" viewBox="0 0 356.847 229.795"><g transform="translate(-494 -3639.172)"><g transform="translate(356 118)"><circle cx="31.5" cy="31.5" r="31.5" transform="translate(138 3642)" fill="#15af9e"/><path d="M-15.153-13.233a4.057,4.057,0,1,1,8.083,0v2.724c0,5.94-8.083,5.94-8.083,0Zm-2.5,2.724c0,9.066,13.085,9.043,13.085,0v-2.724c0-9.043-13.085-9.066-13.085,0ZM.567-15.242c.045-1.831,2.054-2.479,3.863-2.479,1.9.067,3.595.67,3.595,2.635,0,2.032-2.345,2.479-3.751,2.479C1.236-12.607-2-11.58-2-8.008v3.952H10.481V-6.4H.41V-8.008C.41-10.017,2.755-10.4,4.3-10.4c3.148,0,6.185-.96,6.185-4.734,0-3.595-3.148-4.756-6.051-4.756-2.947,0-6.141,1.049-6.364,4.644Z" transform="translate(173.474 3685.131)" fill="#fff"/></g><g transform="translate(444.811 3612.743)"><path d="M277,411.437c-.63-2.068-1.264-4.131-1.867-6.2s-1.192-4.149-1.76-6.23-1.112-4.176-1.634-6.27l-.25-1a5.442,5.442,0,0,1-.612.5l.21.679c.643,2.063,1.273,4.126,1.871,6.2s1.185,4.15,1.746,6.234c.531,1.934,1.027,3.881,1.527,5.824-2.76-.058-5.52-.147-8.28-.183l-4.363-.072-4.359-.04-8.722-.067-4.359,0-3.783.027c-.281-1.835-.6-3.667-.9-5.511l-1.049-6.132-2.246-12.558,3.93.255,1.929.107,1.974.085q3.939.161,7.887.241c2.63.063,5.261.071,7.891.076l1.443-.013a3.374,3.374,0,0,1,.272-1.206l-1.724.013-7.878.058-7.882.085-1.974.031-2.01.049-3.957.129,1.42,12.375.786,6.333c.272,2.121.531,4.247.835,6.368l.085.581.59,0,4.363.036,4.359,0,8.722-.072,4.359-.04,4.363-.072c2.907-.036,5.815-.134,8.722-.192l.456-.009Z" transform="translate(-45.867 -156.02)" fill="#132136"/><path d="M274.076,407.628c-1.206-.594-2.336.6-3.546-.121a3.217,3.217,0,0,1-1.219-2.081c-.581-2.126.5-3.3-.183-4.033-.652-.688-2.425-.473-3.483.366-1.286,1.018-.911,2.456-2.019,2.934-.536.232-.991.058-2.7-.554-3.921-1.4-4.251-1.46-4.448-1.277-.835.759.384,4.033,2.077,6.091.947,1.152-2.881,2.175-2.813,3.077.076,1,1.938,2.085,3.546,1.831,2.421-.38,3.613-3.68,4.158-3.421.491.228-.942,2.693.121,4.644.723,1.322,2.461,2.179,3.3,1.711.59-.326.648-1.25.737-3.055.116-2.38-.25-3.778.121-3.912.326-.121.674.956,1.71,1.71,1.755,1.277,5.033,1.309,5.868-.246A3.03,3.03,0,0,0,274.076,407.628Zm-9.043,1.219a1.341,1.341,0,0,1,0-2.68A1.341,1.341,0,0,1,265.032,408.847Z" transform="translate(-55.645 -164.212)" fill="#132136"/><path d="M271.219,325.451a9.568,9.568,0,0,1-.7-1.891,8.156,8.156,0,0,1-.273-1.97,5.5,5.5,0,0,1,.351-1.943,4.592,4.592,0,0,1,1.1-1.582,4.46,4.46,0,0,0-.861,1.661,5.124,5.124,0,0,0-.085,1.83,7.525,7.525,0,0,0,.491,1.765,8.757,8.757,0,0,0,.844,1.6ZM318.3,273.7c-6.074,9.2-11.719,19.078-12.755,20.9a36.584,36.584,0,0,1-1.813-7.168l-.1.179a9.264,9.264,0,0,1-.125-1.045c-.049-.527-.067-1.058-.067-1.585a31.234,31.234,0,0,1,.179-3.166,19.911,19.911,0,0,0,.1-3.224,9.732,9.732,0,0,0-.607-3.153,8.934,8.934,0,0,1,.219,1.576,15.67,15.67,0,0,1,.049,1.585q-.027,1.588-.2,3.166a18.98,18.98,0,0,0-.08,3.224,10.927,10.927,0,0,0,.478,2.711,42.692,42.692,0,0,1-5.319,6.819,24.676,24.676,0,0,1-6.083,4.644c-4.019,2.2-11,6.016-12.531,6.855a6.791,6.791,0,0,0,.188-1.634c0-2,1.17-4.385,1.7-6.288v0l2.809.527c1.791.009,3.586.022,5.39-.125-1.679-.661-3.354-1.264-5.024-1.88l-2.961-.554a1.463,1.463,0,0,0-.688-1c-1.384-.853-2.394-.853-3.081.29l-1.09-.21c-.728-3.6-2.264-4.81-3.327-5.207a2.6,2.6,0,0,0-1.125-.188s.013-.009.036-.027c.652-.509,10.6-8.329,16.024-16.729,5.614-8.7,11.317-14.036,17.381-14.175,0,0,6.288-.045,9.365.223C316.125,260.518,317.384,269.834,318.3,273.7Zm1.072,34.713a3.691,3.691,0,0,0,.384.089h-8.141Zm7.262-46.249c.223-1.309.438-2.733.639-4.287,0,0,1.728-.295,4.372-.563A23.115,23.115,0,0,0,326.633,262.162ZM362.646,308.5H321.381c5.792-1.094,12.795-12.987,18.475-24.937a24.576,24.576,0,0,0,.268,2.916c.134.978.38,1.938.563,2.885a28.313,28.313,0,0,1,.353,2.881,19.607,19.607,0,0,1-.031,2.9,12.143,12.143,0,0,1-.545,2.822l0,.013,0,.022a14.093,14.093,0,0,0-.121,2.488,15.176,15.176,0,0,0,.295,2.461,10.9,10.9,0,0,0,.764,2.354,9.5,9.5,0,0,0,1.3,2.09,10.309,10.309,0,0,1-1.17-2.144,11.945,11.945,0,0,1-.652-2.345,14.9,14.9,0,0,1-.036-4.823c0,.009,0,.013-.009.022l.009-.036a12.69,12.69,0,0,0,.59-2.885,20.561,20.561,0,0,0,.058-2.965,23.124,23.124,0,0,0-.375-2.934c-.2-.974-.442-1.911-.585-2.867a31.008,31.008,0,0,1-.344-3.532c5.868-12.46,10.24-24.772,10.24-24.772,3.068.862,5.618,2.273,6.98,4.5a14.882,14.882,0,0,0,.844,1.246C360.261,266.48,366.487,274.282,362.646,308.5Z" transform="translate(-63.673 -84.702)" fill="#132136"/><path d="M357.131,242.832c-.409-1.457-.711-2.938-1.035-4.413l-.9-4.433-.475-2.2c-.161-.731-.327-1.465-.533-2.17-.051-.177-.1-.355-.162-.519a3.014,3.014,0,0,0-.188-.467,3.634,3.634,0,0,0-.585-.823,3.456,3.456,0,0,0-.772-.631,2.8,2.8,0,0,0-.439-.208,1.938,1.938,0,0,0-.419-.107l.224-.044a6.838,6.838,0,0,1-1.693.522,5.282,5.282,0,0,1-1.8.006,3.428,3.428,0,0,1-1.682-.788,6.375,6.375,0,0,1-1.112-1.37,22.288,22.288,0,0,1-1.52-2.989c-.44-1.019-.837-2.048-1.2-3.1l.26.172a2.678,2.678,0,0,1-1.3-.234,1.274,1.274,0,0,1-.524-.489,1.517,1.517,0,0,1-.191-.667,3.328,3.328,0,0,1,.206-1.257,6.15,6.15,0,0,1,.519-1.129,3.419,3.419,0,0,0,.6-2.184,2.993,2.993,0,0,0-.318-1.1c-.183-.338-.392-.7-.559-1.073a7.006,7.006,0,0,1-.428-1.151,11.134,11.134,0,0,1-.294-1.185c-.094-.4-.126-.8-.191-1.208-.03-.407-.072-.814-.065-1.224a11.853,11.853,0,0,1,.232-2.445,9.927,9.927,0,0,1,.772-2.369.314.314,0,0,1,.566,0l.016.033a20.33,20.33,0,0,0,2.507,3.914,15.978,15.978,0,0,0,3.376,3.137,11.118,11.118,0,0,0,2,1.092,9.883,9.883,0,0,0,2.169.653,11.526,11.526,0,0,0,4.51-.108l.029-.006a.506.506,0,0,1,.492.176,4.255,4.255,0,0,1,.479.734,6.513,6.513,0,0,1,.341.737,9.808,9.808,0,0,1,.464,1.522,13.955,13.955,0,0,1,.277,3.108,18.866,18.866,0,0,1-.3,3.065c-.093.518-.151.972-.225,1.454a6.8,6.8,0,0,0-.047.716,4.683,4.683,0,0,0-.005.715,6.2,6.2,0,0,0,.674,2.709,4.616,4.616,0,0,0,1.916,1.946,5.4,5.4,0,0,0,2.751.59,9.709,9.709,0,0,0,2.848-.617l.018-.007a.174.174,0,0,1,.231.195c-.208,1.146-.412,2.292-.633,3.433a.051.051,0,0,1-.06.04.053.053,0,0,1-.041-.057c.116-1.157.248-2.31.377-3.463l.249.188a9.25,9.25,0,0,1-2.959.822,6.006,6.006,0,0,1-3.088-.511,5.13,5.13,0,0,1-2.319-2.172,7.046,7.046,0,0,1-.864-3.046,5.385,5.385,0,0,1-.019-.786,7.693,7.693,0,0,1,.028-.784c.061-.511.118-1.052.188-1.523a20.548,20.548,0,0,0,.234-2.917,12.893,12.893,0,0,0-.293-2.865,9.059,9.059,0,0,0-.41-1.351,5.452,5.452,0,0,0-.288-.627,3.517,3.517,0,0,0-.333-.528l.521.17A12.012,12.012,0,0,1,352,211.4a10.894,10.894,0,0,1-2.365-.756,12.082,12.082,0,0,1-2.147-1.218,15.9,15.9,0,0,1-3.488-3.4,18.99,18.99,0,0,1-2.455-4.179l.581.034a10.478,10.478,0,0,0-1.122,4.5,10.225,10.225,0,0,0,.174,2.357,10.782,10.782,0,0,0,.269,1.156,6.663,6.663,0,0,0,.394,1.111c.16.366.345.7.539,1.071a3.571,3.571,0,0,1,.341,1.207,3.742,3.742,0,0,1-.618,2.385,4.316,4.316,0,0,0-.607,2.18.889.889,0,0,0,.52.777,2.222,2.222,0,0,0,1.059.126.253.253,0,0,1,.254.157l.006.014c.4,1.01.85,2.013,1.327,2.99a21.579,21.579,0,0,0,1.6,2.812,5.658,5.658,0,0,0,.982,1.16,2.726,2.726,0,0,0,1.276.568,5.432,5.432,0,0,0,2.936-.447l.039-.016a.377.377,0,0,1,.185-.028,2.632,2.632,0,0,1,.675.169,3.686,3.686,0,0,1,.579.282,4.331,4.331,0,0,1,.965.805,4.255,4.255,0,0,1,.7,1.025,3.756,3.756,0,0,1,.222.586c.066.191.112.378.161.565.386,1.494.627,2.98.869,4.474l.687,4.475c.209,1.494.436,2.983.689,4.469a.051.051,0,0,1-.041.059A.052.052,0,0,1,357.131,242.832Z" transform="translate(-102.585 -53.75)" fill="#132136"/><path d="M342.777,208.044c-.109.809-.2,1.615-.295,2.419s-.158,1.608-.184,2.411a12.875,12.875,0,0,0,.1,2.391,4.74,4.74,0,0,0,.311,1.14,2.251,2.251,0,0,0,.705.949,2.123,2.123,0,0,1-.885-.857,4.191,4.191,0,0,1-.446-1.17,9.611,9.611,0,0,1-.2-2.468,17.479,17.479,0,0,1,.891-4.815Zm-.245-17.145a1.564,1.564,0,0,1-.142-1.219l.083-.3.13-.282c.045-.094.087-.19.138-.28l.174-.254a6.856,6.856,0,0,1,.781-.949c.292-.283.6-.544.906-.815a24.9,24.9,0,0,1,4.108-2.521c.722-.343,1.453-.671,2.183-1,.738-.3,1.481-.6,2.225-.883s1.5-.509,2.257-.759c.381-.115.749-.245,1.156-.357a11.641,11.641,0,0,1,1.2-.255,11.929,11.929,0,0,1,4.824.2,10.065,10.065,0,0,1,4.234,2.243,13.277,13.277,0,0,1,2.9,3.846,20.635,20.635,0,0,1,1.662,4.536l.007.043a23.379,23.379,0,0,0,2.053,6.216,21.02,21.02,0,0,0,1.659,2.818c.3.456.644.876.98,1.3s.725.808,1.1,1.205l1.211,1.122.635.591c.217.191.393.426.591.636a11.374,11.374,0,0,1,1.905,2.891,10.023,10.023,0,0,1,.71,6.7.051.051,0,0,1-.1-.02v-.006a9.786,9.786,0,0,0-.131-3.3,10.305,10.305,0,0,0-1.119-3.06,6.215,6.215,0,0,0-.417-.7c-.153-.224-.291-.457-.455-.672a12.5,12.5,0,0,0-1.062-1.227c-.193-.19-.363-.4-.575-.573l-.617-.531-1.294-1.12a18.654,18.654,0,0,1-3.98-5.6,24.253,24.253,0,0,1-1.22-3.208,20.946,20.946,0,0,1-.749-3.361l.007.042a23.768,23.768,0,0,0-1.354-4.466,11.809,11.809,0,0,0-2.586-3.852,9.329,9.329,0,0,0-1.889-1.365,8.4,8.4,0,0,0-2.189-.8,10.554,10.554,0,0,0-4.616.11,10.924,10.924,0,0,0-1.107.318c-.349.123-.72.283-1.09.424l-2.225.832c-.73.294-1.462.583-2.2.862l-2.165.931a30.548,30.548,0,0,0-4.113,2.238c-.306.233-.623.459-.921.705a7.183,7.183,0,0,0-.81.813l-.185.219c-.054.077-.1.16-.15.239l-.15.242-.1.26a1.453,1.453,0,0,0-.025,1.088l0,.011a.05.05,0,0,1-.088.048Zm1.26,9.841a9.794,9.794,0,0,1,2.286-1.221,8.645,8.645,0,0,1,1.249-.375,3.221,3.221,0,0,1,1.309-.06,8.139,8.139,0,0,0-1.221.37l-1.19.45C345.428,200.2,344.634,200.511,343.791,200.74Zm2.229,2.847a.619.619,0,1,0-.6-.618A.619.619,0,0,0,346.02,203.587Zm-1,7.491a8.715,8.715,0,0,0,1.823-.146c.294-.057.588-.123.883-.2s.589-.172.907-.246a3.425,3.425,0,0,1-1.715.855,3.473,3.473,0,0,1-.975.035A2.174,2.174,0,0,1,345.023,211.078Z" transform="translate(-103.314 -42.394)" fill="#132136"/><path d="M428.289,348.572v.013c0,.009,0,.013-.009.022Z" transform="translate(-151.132 -135.207)" fill="#132136"/><path d="M375.478,279.986a30.99,30.99,0,0,1,2.042-3.934c.75-1.267,1.567-2.489,2.422-3.684s1.759-2.355,2.727-3.467a26.547,26.547,0,0,1,3.125-3.15c-.718,1.306-1.488,2.551-2.289,3.778s-1.622,2.435-2.476,3.621-1.733,2.355-2.654,3.5S376.517,278.916,375.478,279.986Z" transform="translate(-121.91 -89.372)" fill="#132136"/><path d="M426.5,256.6c-5.98-1.688-13.916-1.291-18.77-.8a4.188,4.188,0,0,1,.929-.424S422.521,252.924,426.5,256.6Z" transform="translate(-139.759 -83.186)" fill="#132136"/><path d="M286.8,255.747a4.907,4.907,0,0,0-.567-.035,6.226,6.226,0,0,1-.688-.063c-.392-.038-.782-.071-1.169-.12-.39-.031-.779-.06-1.165-.1s-.778-.047-1.164-.086l-2.328-.137c-.777-.03-1.553-.077-2.332-.131-1.555-.11-3.126-.3-4.7-.281a28.487,28.487,0,0,0-4.683.474l-1.572.28,1.357-.931a4.557,4.557,0,0,1,.986-.533l.047-.011a35.641,35.641,0,0,1,4.551-.8c.765-.094,1.533-.164,2.3-.223.771-.037,1.545-.079,2.32-.055a22,22,0,0,1,4.643.528,11.246,11.246,0,0,1,2.24.758,7.075,7.075,0,0,1,1.028.6c.164.111.313.247.466.367a1.462,1.462,0,0,1,.244.261C286.694,255.6,286.743,255.685,286.8,255.747Zm-.117-.065a1,1,0,0,0-.265-.115.935.935,0,0,1-.207-.089c-.171-.079-.33-.17-.5-.237a9.725,9.725,0,0,0-1.053-.341,14.364,14.364,0,0,0-2.185-.368A37.608,37.608,0,0,0,278,254.4c-1.5.035-3,.082-4.508.168s-3.017.23-4.52.347l.047-.011a3.7,3.7,0,0,0-.871.316l-.215-.651c1.585-.037,3.16-.092,4.734-.217s3.152-.362,4.743-.4c.4-.006.8-.021,1.193,0s.8.025,1.192.071.793.068,1.189.117.79.109,1.184.175a23.548,23.548,0,0,1,2.338.519c.384.112.764.24,1.142.362a4.977,4.977,0,0,1,.456.23,3.6,3.6,0,0,0,.577.258Zm-44.641,38.285c.778.19,1.518.366,2.258.519s1.476.26,2.212.335c.368.05.736.057,1.106.088.369,0,.742.029,1.114.012.753.006,1.5-.1,2.3-.145a5.948,5.948,0,0,1-2.21.934,7.284,7.284,0,0,1-2.42.124,8.261,8.261,0,0,1-2.339-.591A6.417,6.417,0,0,1,242.041,293.967Zm18.9,1.426c.778.19,1.518.366,2.258.519s1.476.261,2.212.335c.368.05.736.057,1.106.088.369,0,.742.029,1.114.012.753.006,1.5-.1,2.3-.145a5.948,5.948,0,0,1-2.21.934,7.283,7.283,0,0,1-2.42.124,8.26,8.26,0,0,1-2.339-.591,6.417,6.417,0,0,1-2.026-1.276ZM197.9,305.219a6.99,6.99,0,0,1,1.05,1.907h-.219q-10.865-.007-21.727-.21c-7.244-.147-14.487-.326-21.731-.634a.087.087,0,0,1-.085-.094.091.091,0,0,1,.085-.085c7.244-.317,14.483-.5,21.727-.652Q187.451,305.243,197.9,305.219Zm22.941.112a8.853,8.853,0,0,0-.813,1.634q-3.5.04-7,.071a4.483,4.483,0,0,0,2.206-1.751Q218.04,305.306,220.843,305.331Zm108.347.688a.082.082,0,0,1-.085.085c-7.239.322-14.483.514-21.727.625l-5.431.072-2.907.022-2.528.018c-1.809.013-3.622.027-5.43.018s-3.625-.006-5.435-.031c-3.524-.049-7.047-.129-10.571-.21-3.716-.085-7.436-.165-11.156-.214-7.244-.076-14.487-.009-21.731.161q-4.87.127-9.74.214c-.951-.415-2.028-.88-3.1-1.344q6.417.087,12.839.241,10.865.234,21.731.112c7.239-.112,14.483-.357,21.727-.478q2.713-.04,5.43-.045c1.813-.013,3.622,0,5.435,0l5.431.027,5.435.063c7.239.094,14.483.263,21.727.567A.09.09,0,0,1,329.189,306.018Z" transform="translate(0 -82.305)" fill="#132136"/><path d="M355.861,367.915c-2.94.418-5.894.754-8.847,1.057s-5.912.562-8.869.821-5.918.479-8.877.71-5.919.462-8.882.648h0a.442.442,0,0,1-.077,0l-7.959-.935h-.007a.391.391,0,0,1-.113-.031c-3.147-1.421-6.29-2.849-9.449-4.237-.788-.342-1.584-.7-2.371-1.006-.247-.159-.627.105-.95.336a6.065,6.065,0,0,0-.9.865,8.6,8.6,0,0,0-2,4.575.181.181,0,0,1-.027.078c-.367.559-.726,1.122-1.062,1.7a12.132,12.132,0,0,0-.885,1.774,2.266,2.266,0,0,0-.058,1.832,19.1,19.1,0,0,1,.971,1.768.179.179,0,0,1,.006.108v0a4.424,4.424,0,0,0-.124,1.231,2.841,2.841,0,0,0,.285,1.173,1.83,1.83,0,0,0,.823.824,2.5,2.5,0,0,0,.559.22c.2.052.4.07.605.105h-.038a10.963,10.963,0,0,0,1.669-.378,9.42,9.42,0,0,0,1.581-.64,6.167,6.167,0,0,0,.724-.434c.233-.156.432-.352.65-.525a3.661,3.661,0,0,0,.93-1.329.269.269,0,0,1,.506.017l.007.02a5.837,5.837,0,0,0,2.865,3.4,7.312,7.312,0,0,0,4.485.482c1.51-.313,3.084-.782,4.616-1.209,1.527-.447,3.1-.887,4.528-1.447l.01,0a.484.484,0,0,1,.226-.03c5.528.594,11.073,1.092,16.617,1.546,5.542.473,11.092.868,16.643,1.113,2.775.134,5.552.227,8.325.224,1.386,0,2.772-.031,4.152-.106a31.235,31.235,0,0,0,4.094-.452,6.524,6.524,0,0,0,1.875-.613,2.026,2.026,0,0,0,.36-.257l.334-.375a6.208,6.208,0,0,0,.62-.794,12.146,12.146,0,0,0,1.649-3.72,24.991,24.991,0,0,0,.683-8.236.051.051,0,0,1,.045-.056.053.053,0,0,1,.056.044,26.322,26.322,0,0,1,.17,4.184,22.344,22.344,0,0,1-.523,4.173,12.45,12.45,0,0,1-1.608,3.925,6.757,6.757,0,0,1-.639.868l-.35.414a2.611,2.611,0,0,1-.474.366,7.085,7.085,0,0,1-2.054.746,28.7,28.7,0,0,1-4.188.568c-1.4.1-2.8.153-4.194.18-2.795.052-5.586.006-8.374-.08-5.576-.205-11.138-.595-16.693-1.043q-8.33-.719-16.633-1.7l.235-.034c-.79.314-1.556.541-2.334.771s-1.552.44-2.33.648l-2.336.609c-.771.2-1.572.38-2.385.54a7.928,7.928,0,0,1-4.914-.661,6.438,6.438,0,0,1-3.085-3.854l.512.037a4.183,4.183,0,0,1-1.088,1.491c-.241.185-.467.394-.722.557a6.658,6.658,0,0,1-.785.447,9.85,9.85,0,0,1-1.67.633,11.328,11.328,0,0,1-1.747.354h-.012a.088.088,0,0,1-.027,0c-.223-.043-.449-.063-.668-.124a2.871,2.871,0,0,1-.64-.258,2.2,2.2,0,0,1-.967-.986,3.193,3.193,0,0,1-.314-1.325,4.739,4.739,0,0,1,.147-1.337l.006.109a5.925,5.925,0,0,0-.44-.873,9.3,9.3,0,0,1-.51-.888,2.1,2.1,0,0,1-.186-1.057,3.779,3.779,0,0,1,.251-1.016,12.81,12.81,0,0,1,.89-1.831c.334-.587.69-1.158,1.052-1.725l-.027.078a8.98,8.98,0,0,1,2.036-4.8,6.623,6.623,0,0,1,.939-.951,3.189,3.189,0,0,1,.584-.383,1.255,1.255,0,0,1,.378-.12.712.712,0,0,1,.246.008c.063.018.125.037.175.055.829.3,1.62.626,2.425.949,3.2,1.3,6.383,2.647,9.569,3.982l-.12-.032,7.967.861-.081,0,17.765-1.173q4.443-.278,8.882-.591l4.44-.306,4.435-.365a.051.051,0,0,1,.057.045A.053.053,0,0,1,355.861,367.915Z" transform="translate(-76.839 -143.977)" fill="#132136"/><path d="M264.3,355.155a4.036,4.036,0,0,1,.985-.753,1.774,1.774,0,0,1,1.245-.218,1.713,1.713,0,0,1,1,.829c.1.19.192.387.274.586l.191.611a.208.208,0,1,1-.4.124l0-.017,0-.022-.129-.583c-.06-.186-.128-.372-.2-.552a1.459,1.459,0,0,0-.783-.777,1.62,1.62,0,0,0-1.142.112,3.984,3.984,0,0,0-1.03.659Zm-4.754.574a28.839,28.839,0,0,0,1.809-2.566,14.387,14.387,0,0,0,.763-1.374,4.694,4.694,0,0,0,.487-1.489,4.743,4.743,0,0,1-.392,1.53,14.54,14.54,0,0,1-.678,1.436,29.138,29.138,0,0,1-1.657,2.712.208.208,0,0,1-.343-.235l.008-.011Zm-.905-1.6,3.964-6.655-3.6,6.858a.208.208,0,1,1-.368-.193Zm1.941-5.618,2.621-3.627-2.274,3.854a.208.208,0,1,1-.358-.211A.113.113,0,0,1,260.578,348.508Zm-9.506-21.333a1.691,1.691,0,0,0-.794-.147,5.547,5.547,0,0,0-.816.063,3.051,3.051,0,0,0-1.417.684,3.66,3.66,0,0,0-.9,1.276,4.935,4.935,0,0,0-.389,1.525.315.315,0,0,1-.62.048l0-.01a11.671,11.671,0,0,0-1.007-2.716,5.2,5.2,0,0,0-1.828-2.045,2.886,2.886,0,0,0-.591-.277,1.458,1.458,0,0,0-.287-.071l-.353-.045a3.706,3.706,0,0,0-1.341.065,2.694,2.694,0,0,0-1.89,1.557l-.018.041a.439.439,0,0,1-.577.228.46.46,0,0,1-.087-.05,1.4,1.4,0,0,0-.8-.281,2.412,2.412,0,0,0-.928.184,2.666,2.666,0,0,0-1.471,1.263l-.018.035-.033.075-.048.115a2.249,2.249,0,0,0-.072.229,1.591,1.591,0,0,0-.05.457,1.372,1.372,0,0,0,.343.834,3.649,3.649,0,0,0,1.77,1l.018,0a.192.192,0,0,1,.107.076,9.3,9.3,0,0,1,.74,1.335c.108.225.212.448.335.655s.252.439.362.671a2.914,2.914,0,0,1,.263.748.471.471,0,0,1-.6.6,4.769,4.769,0,0,1-1.428-.605c-.439-.253-.859-.522-1.279-.81a7.4,7.4,0,0,1-1.136-1.034c-.172-.184-.339-.392-.495-.541a1.874,1.874,0,0,0-.559-.362,2.283,2.283,0,0,0-1.325-.105,2.367,2.367,0,0,0-1.165.595,1.24,1.24,0,0,0-.331,1.1,3.519,3.519,0,0,0,.494,1.245,7.6,7.6,0,0,0,.845,1.141c.158.178.323.351.492.511l.555.484q.571.506,1.109,1.034c.72.7,1.42,1.418,2.114,2.149a.466.466,0,0,1,.122.244l.006.037a3.461,3.461,0,0,0,.293.855,4.355,4.355,0,0,0,.512.807,4.6,4.6,0,0,0,.674.689c.25.221.5.362.84.615a6.531,6.531,0,0,1,1.549,1.729,7.59,7.59,0,0,1,.917,2.129l-.03-.093a2.992,2.992,0,0,0,1.214,1.467,3.925,3.925,0,0,0,1.931.47,8.3,8.3,0,0,0,2.131-.288,12.254,12.254,0,0,0,2.064-.737l.026-.012.033-.013c.864-.27,1.726-.534,2.6-.775s1.74-.484,2.636-.682a4.241,4.241,0,0,0,2.285-1.114,5.088,5.088,0,0,0,1.355-2.235.051.051,0,0,1,.064-.034.052.052,0,0,1,.035.058,5.054,5.054,0,0,1-1.208,2.452,4.675,4.675,0,0,1-1.088.892,3.9,3.9,0,0,1-.646.305c-.233.076-.47.15-.671.2-.852.243-1.705.536-2.554.828l-2.546.888.058-.025a13.029,13.029,0,0,1-2.2.88,9.24,9.24,0,0,1-2.368.406,4.737,4.737,0,0,1-2.462-.559,3.913,3.913,0,0,1-1.014-.845,4.733,4.733,0,0,1-.675-1.105l-.01-.027-.02-.066a7.021,7.021,0,0,0-.779-1.787,5.579,5.579,0,0,0-1.285-1.451c-.227-.181-.591-.409-.872-.669a5.643,5.643,0,0,1-.8-.856,5.37,5.37,0,0,1-.611-1.01,4.263,4.263,0,0,1-.361-1.176l.128.281c-.666-.731-1.349-1.457-2.042-2.163-.348-.351-.7-.7-1.05-1.041-.179-.175-.349-.317-.555-.521-.188-.19-.36-.385-.526-.586a8.375,8.375,0,0,1-.888-1.3,4.016,4.016,0,0,1-.516-1.552,2.093,2.093,0,0,1,.1-.88,1.83,1.83,0,0,1,.5-.744,2.964,2.964,0,0,1,1.5-.679,2.782,2.782,0,0,1,1.607.21,2.322,2.322,0,0,1,.669.48c.195.208.328.4.489.587a6.166,6.166,0,0,0,1.05,1c.4.284.815.562,1.236.814a4.581,4.581,0,0,0,1.3.589c.462.141.191-.5,0-.9-.106-.218-.231-.43-.356-.642s-.253-.445-.368-.667a8.694,8.694,0,0,0-.756-1.254l.125.081a4.922,4.922,0,0,1-1.1-.363,3.278,3.278,0,0,1-.984-.678,1.953,1.953,0,0,1-.547-1.148,2.192,2.192,0,0,1,.03-.642,2.9,2.9,0,0,1,.076-.3l.05-.144.027-.074.049-.106-.018.035a3.066,3.066,0,0,1,.728-1.035,3.883,3.883,0,0,1,1.039-.688,2.985,2.985,0,0,1,1.257-.3,2.274,2.274,0,0,1,1.308.415l-.681.218a3.05,3.05,0,0,1,.42-.779,3.5,3.5,0,0,1,.581-.629,3.59,3.59,0,0,1,1.521-.756,4.6,4.6,0,0,1,1.642-.062l.391.055a2.33,2.33,0,0,1,.44.113,3.755,3.755,0,0,1,.761.369,5.906,5.906,0,0,1,2.068,2.426,11.375,11.375,0,0,1,.931,2.948l-.622.038a5.475,5.475,0,0,1,.531-1.7,3.755,3.755,0,0,1,1.124-1.376,3.4,3.4,0,0,1,1.642-.628,4.836,4.836,0,0,1,.866.013,1.859,1.859,0,0,1,.827.252.051.051,0,0,1-.044.092Z" transform="translate(-41.211 -121.901)" fill="#132136"/><path d="M259.632,334.572a4.029,4.029,0,0,1,.333,1.453,6.3,6.3,0,0,1,0,.739c-.021.247-.048.494-.091.738l0,.023a.272.272,0,0,1-.032.089,4.022,4.022,0,0,1-.382.564,3.756,3.756,0,0,1-.5.482,3.373,3.373,0,0,1-1.2.677,2.181,2.181,0,0,1-1.411-.12,2.053,2.053,0,0,1-.63-.42,1.877,1.877,0,0,1-.14-.164,1.365,1.365,0,0,1-.123-.234l-.108-.311-.2-.6a2.8,2.8,0,0,0-.226-.469,4.347,4.347,0,0,0-.291-.434c-.045-.054-.125-.165-.19-.264s-.136-.2-.2-.3a4.2,4.2,0,0,1-.485-1.28,4.44,4.44,0,0,1-.092-1.325.054.054,0,0,1,.058-.048.055.055,0,0,1,.041.026,14.87,14.87,0,0,0,1.31,2.063c.065.066.123.137.184.2s.106.13.2.232a2.879,2.879,0,0,1,.417.613,3.2,3.2,0,0,1,.251.7c.03.129.045.234.064.329l.054.3.051.3c.011.034,0,.021.011.052s.023.061.043.1a1.848,1.848,0,0,0,.319.409,1.142,1.142,0,0,0,1.012.332,1.289,1.289,0,0,0,.864-.721,5.259,5.259,0,0,0,.245-.538,4.7,4.7,0,0,1,.222-.548l-.036.111c.053-.452.167-.895.243-1.355.092-.458.184-.912.31-1.4a.054.054,0,0,1,.024-.033.054.054,0,0,1,.041-.006A.056.056,0,0,1,259.632,334.572Zm-16.79,8.526a2.661,2.661,0,0,1-.107-.857,3.169,3.169,0,0,1,.138-.861,1.994,1.994,0,0,1,.437-.784,1.073,1.073,0,0,1,.8-.373,1.648,1.648,0,0,0-.547.569,3.144,3.144,0,0,0-.3.713C243.1,342.009,243,342.542,242.843,343.1Zm1.2-9.03c.35-.086.636-.146.94-.206.151-.028.3-.058.46-.081a2.94,2.94,0,0,1,.506-.044,1.451,1.451,0,0,1-.887.53,1.6,1.6,0,0,1-.527.009A.965.965,0,0,1,244.046,334.069Zm1.86-4.478a4.576,4.576,0,0,0,.173,1.309,2.283,2.283,0,0,0,.653,1.11,1.624,1.624,0,0,0,1.231.372,4.162,4.162,0,0,0,.678-.112l.655-.237-.635.3a4.276,4.276,0,0,1-.685.178,1.816,1.816,0,0,1-1.4-.3,2.592,2.592,0,0,1-.858-1.187,4.99,4.99,0,0,1-.321-1.429.255.255,0,0,1,.509-.039c0,.008,0,.016,0,.023Z" transform="translate(-48.448 -124.552)" fill="#132136"/><path d="M254.432,336.369a12.7,12.7,0,0,1,.936,1.687,6.409,6.409,0,0,1,.607,1.877.774.774,0,0,0,.471.542,2.768,2.768,0,0,0,.847.269,2.893,2.893,0,0,0,.911.01,1.213,1.213,0,0,0,.808-.407,1.2,1.2,0,0,1-.76.6,2.653,2.653,0,0,1-.993.113,2.743,2.743,0,0,1-.99-.24,1.139,1.139,0,0,1-.706-.862,4.217,4.217,0,0,0-.2-.885c-.088-.3-.194-.6-.3-.9Z" transform="translate(-54.922 -128.453)" fill="#132136"/><path d="M242.609,336.7c-.353-.067-.7-.138-1.054-.21L231.2,334.37l-1-.205-4.18-.862c-1.661-.661-3.323-1.317-4.957-2.095,1.813-.054,3.6.013,5.381.08,1.143.254,2.3.491,3.448.728.572.121,1.143.237,1.715.357l10.111,2.068A7.358,7.358,0,0,0,242.609,336.7Z" transform="translate(-36.459 -125.586)" fill="#132136"/><path d="M267.23,208.649a9.189,9.189,0,0,0,1.138,2.259l.389.451a3.837,3.837,0,0,1,.452.551,3.074,3.074,0,0,1,.326.65c.087.245.134.445.2.64s.112.446.162.47a1.408,1.408,0,0,0,.354.326,1.267,1.267,0,0,0,.891.213,1.583,1.583,0,0,0,.841-.534,3.544,3.544,0,0,0,.362-.451l.316-.517-.029.088c.122-.582.248-1.177.313-1.782.038-.3.065-.6.074-.909a5.071,5.071,0,0,0-.033-.922,5.083,5.083,0,0,1,.415,1.843c.018.316.021.633.015.95s-.051.635-.076.954a.166.166,0,0,1-.013.052l-.016.036a4.905,4.905,0,0,1-.708,1.2,2.25,2.25,0,0,1-1.287.846,2,2,0,0,1-1.561-.345,2.243,2.243,0,0,1-.572-.565,1.013,1.013,0,0,1-.122-.221.922.922,0,0,1-.061-.194l-.074-.326c-.052-.22-.092-.443-.139-.608a2.948,2.948,0,0,0-.21-.523,3.106,3.106,0,0,0-.312-.489c-.13-.2-.27-.385-.382-.586A6.058,6.058,0,0,1,267.23,208.649ZM336.4,157.985a1.341,1.341,0,0,0,.626,1.116,3.747,3.747,0,0,0,1.232.5l1.317.307.661.17c.111.03.221.059.331.094l.311.08a4.23,4.23,0,0,0,1.265.166,2.364,2.364,0,0,0,1.223-.38,2.285,2.285,0,0,0,.822-1,2.208,2.208,0,0,0,.158-.626,1.55,1.55,0,0,0-.037-.6.768.768,0,0,0-.3-.376,2.7,2.7,0,0,0-.533-.246c-.4-.142-.849-.265-1.3-.415a8.49,8.49,0,0,1-1.363-.564,5.064,5.064,0,0,1-.648-.407c-.176-.1-.336-.233-.507-.312a1.723,1.723,0,0,0-2.026.191,3.207,3.207,0,0,0-1.226,2.3Zm-.1,0a5.794,5.794,0,0,1,.221-1.406,4.277,4.277,0,0,1,.607-1.358,2.256,2.256,0,0,1,1.34-.95,2.5,2.5,0,0,1,1.682.231,5.623,5.623,0,0,1,.676.419c.17.12.34.239.521.35a9.072,9.072,0,0,0,1.171.588c.416.18.856.336,1.3.576a2.663,2.663,0,0,1,.655.472,1.41,1.41,0,0,1,.393.8,3.61,3.61,0,0,1-4.135,3.4,7.332,7.332,0,0,1-1.405-.31,6.772,6.772,0,0,1-1.322-.583,4.945,4.945,0,0,1-1.156-.911,1.978,1.978,0,0,1-.552-1.313Zm6.626-14.665a2.479,2.479,0,0,0,.285,1.107,2.709,2.709,0,0,0,.751.855,6.663,6.663,0,0,0,2.064.989c.732.239,1.486.417,2.235.621l1.131.293c.19.048.379.094.567.149l.549.125a6.834,6.834,0,0,0,2.229.178,4.419,4.419,0,0,0,2.111-.745,4.235,4.235,0,0,0,1.434-1.739c.067-.178.139-.353.193-.534a4.182,4.182,0,0,0,.11-.553,3.094,3.094,0,0,0-.017-1.077,1.526,1.526,0,0,0-.548-.785,4.3,4.3,0,0,0-.948-.495c-.7-.274-1.453-.495-2.207-.763a15.374,15.374,0,0,1-2.245-.964,8.989,8.989,0,0,1-1.055-.67,6.82,6.82,0,0,0-.916-.574,3.233,3.233,0,0,0-1.948-.408,3.554,3.554,0,0,0-1.837.923,6.031,6.031,0,0,0-1.351,1.825,5.5,5.5,0,0,0-.587,2.242Zm-.1,0a7.974,7.974,0,0,1,.428-2.348,7.117,7.117,0,0,1,1.111-2.181,3.759,3.759,0,0,1,2.159-1.443,4.053,4.053,0,0,1,2.623.4,6.981,6.981,0,0,1,1.084.678c.3.212.6.425.927.615a14.351,14.351,0,0,0,2.053.99c.719.292,1.468.546,2.21.919a4.364,4.364,0,0,1,1.069.72,2.17,2.17,0,0,1,.638,1.207,4.581,4.581,0,0,1-.525,2.425,5.484,5.484,0,0,1-1.554,1.859,6.235,6.235,0,0,1-4.686,1.146l-.612-.1c-.195-.039-.388-.085-.581-.132-.386-.095-.773-.188-1.154-.312a13.2,13.2,0,0,1-2.242-.889,7.866,7.866,0,0,1-1.987-1.4,3.06,3.06,0,0,1-.961-2.159Zm3.3-19.741a4.39,4.39,0,0,0-.312,1.728,3.176,3.176,0,0,0,.551,1.65,7.387,7.387,0,0,0,2.691,2.25,39.258,39.258,0,0,0,6.639,2.595c2.276.717,4.572,1.4,6.837,2.194q1.7.583,3.377,1.267c1.108.438,2.2.887,3.327,1.239a22.749,22.749,0,0,0,6.915,1.294,11.721,11.721,0,0,0,3.468-.465,7.884,7.884,0,0,0,3.038-1.694,8.509,8.509,0,0,0,2.032-2.844,12.726,12.726,0,0,0,.935-3.4,19.451,19.451,0,0,0,.158-3.545c-.031-.592-.066-1.184-.135-1.774a12.4,12.4,0,0,0-.276-1.736,22.091,22.091,0,0,0-2.889-6.407,28,28,0,0,0-4.513-5.4,20.814,20.814,0,0,0-5.811-3.845,17.1,17.1,0,0,0-3.3-1.047,14.052,14.052,0,0,0-3.441-.26,15.506,15.506,0,0,0-6.69,1.607,18.78,18.78,0,0,0-5.487,4.285,32.038,32.038,0,0,0-4.069,5.826,57.87,57.87,0,0,0-3.045,6.483Zm-.1-.039c.884-2.223,1.825-4.426,2.886-6.578a33.643,33.643,0,0,1,3.8-6.134,17.823,17.823,0,0,1,5.551-4.731,16.1,16.1,0,0,1,7.112-1.824,15.638,15.638,0,0,1,7.211,1.423,21.837,21.837,0,0,1,6.042,4.121,27.193,27.193,0,0,1,4.546,5.678,21.723,21.723,0,0,1,2.744,6.72,23.982,23.982,0,0,1,.06,7.23,10.869,10.869,0,0,1-3.1,6.442,8.53,8.53,0,0,1-3.132,1.851,12.218,12.218,0,0,1-3.592.637,22.978,22.978,0,0,1-7.181-1.048c-1.162-.338-2.3-.762-3.416-1.207s-2.218-.853-3.336-1.264c-2.242-.807-4.5-1.59-6.745-2.438-1.122-.424-2.24-.862-3.343-1.341a25.257,25.257,0,0,1-3.22-1.634,13.122,13.122,0,0,1-1.475-1.05,6.032,6.032,0,0,1-1.2-1.358,3.415,3.415,0,0,1-.55-1.719,4.5,4.5,0,0,1,.335-1.772Z" transform="translate(-62.005 0)" fill="#132136"/><path d="M473.234,129.754h.178a8.489,8.489,0,0,0-2.768,6.029,8.333,8.333,0,0,0,.178,1.832.453.453,0,0,0,.538.355,8.349,8.349,0,0,0,6.252-5.448,8.3,8.3,0,0,0,6.564,5.047.54.54,0,0,0,.358-.089.739.739,0,0,0,.178-.312,8.418,8.418,0,0,0-3.081-7.683,8.452,8.452,0,0,0,6.922-4.509.428.428,0,0,0-.18-.581,8.379,8.379,0,0,0-8.262.358,8.429,8.429,0,0,0-2.01-8.039.43.43,0,0,0-.624,0,8.261,8.261,0,0,0-2.19,8.528,8.014,8.014,0,0,0-4.375-1.34,8.116,8.116,0,0,0-4.423,1.162.44.44,0,0,0-.134.624A7.91,7.91,0,0,0,473.234,129.754Zm4.286-4.6a2.82,2.82,0,1,1-2.812,2.814A2.814,2.814,0,0,1,477.52,125.154Zm0,0" transform="translate(-172.161 -6.819)" fill="#132136"/><path d="M489.073,141.521a1.926,1.926,0,1,0-1.919-1.921,1.963,1.963,0,0,0,1.919,1.921Zm0,0,12.153,63a16.555,16.555,0,0,0,2.473,3.134,5.78,5.78,0,0,1-2.773-.6,3.927,3.927,0,0,1-1.52-1.391,4.013,4.013,0,0,1-.584-1.983,5.708,5.708,0,0,1,.652-2.756A16.233,16.233,0,0,0,501.226,204.518Z" transform="translate(-183.714 -18.498)" fill="#132136"/><path d="M515.976,283.256a5.656,5.656,0,0,1-.661,2.756,16.231,16.231,0,0,0-1.751-3.6,16.821,16.821,0,0,0-2.473-3.134,5.663,5.663,0,0,1,2.765.61,4,4,0,0,1,1.528,1.382A3.906,3.906,0,0,1,515.976,283.256Zm-5.426,7.813a16.264,16.264,0,0,0,2.481,3.134,5.757,5.757,0,0,1-2.773-.6,3.958,3.958,0,0,1-1.528-1.391,4.016,4.016,0,0,1-.584-1.983,5.708,5.708,0,0,1,.652-2.756A16.626,16.626,0,0,0,510.55,291.069Z" transform="translate(-195.33 -96.858)" fill="#132136"/><path d="M510.481,301.6a5.729,5.729,0,0,1-.652,2.756,17.05,17.05,0,0,0-1.751-3.6,16.878,16.878,0,0,0-2.481-3.134,5.637,5.637,0,0,1,2.765.61,3.835,3.835,0,0,1,2.121,3.365Zm-5.718,8.637a16.53,16.53,0,0,0,2.481,3.134,5.65,5.65,0,0,1-2.773-.61,3.871,3.871,0,0,1-1.528-1.382,4.014,4.014,0,0,1-.584-1.983,5.687,5.687,0,0,1,.653-2.756A16.618,16.618,0,0,0,504.763,310.233Z" transform="translate(-192.127 -107.008)" fill="#132136"/><path d="M506.333,321.773a5.74,5.74,0,0,1-.653,2.765,16.639,16.639,0,0,0-1.76-3.6,16.825,16.825,0,0,0-2.473-3.134,5.636,5.636,0,0,1,2.764.609,4,4,0,0,1,1.528,1.382A3.9,3.9,0,0,1,506.333,321.773Zm-4.4,9.229a16.65,16.65,0,0,0,2.481,3.142,5.65,5.65,0,0,1-2.773-.61,3.876,3.876,0,0,1-2.112-3.366,5.784,5.784,0,0,1,.652-2.756A16.958,16.958,0,0,0,501.937,331Z" transform="translate(-190.564 -118.179)" fill="#132136"/><path d="M505.88,314.847a5.637,5.637,0,0,1-.653,2.765A18.5,18.5,0,0,0,501,310.88a5.637,5.637,0,0,1,2.764.61,3.872,3.872,0,0,1,1.528,1.382,3.794,3.794,0,0,1,.592,1.975Zm-3.511,5.489a5.716,5.716,0,0,1,2.766.609,3.955,3.955,0,0,1,1.529,1.386,3.892,3.892,0,0,1,.592,1.975,2.026,2.026,0,0,1-3.43,2.155,3.892,3.892,0,0,1-1.523-1.39,3.954,3.954,0,0,1-.586-1.979,5.713,5.713,0,0,1,.651-2.756Zm12.259-30.146a26.043,26.043,0,0,0-3.314,1.872,6.627,6.627,0,0,1,.987-2.558,3.661,3.661,0,0,1,1.382-1.236,3.325,3.325,0,0,1,1.751-.326,10.415,10.415,0,0,1,2.593.6Zm2.919,1.2a3.683,3.683,0,0,1-3.675,1.837,4.928,4.928,0,0,1-2.558-1.168,8.833,8.833,0,0,0,1.906-.386,14,14,0,0,0,1.794-.713,10.715,10.715,0,0,0,1.657-1.013,5.435,5.435,0,0,0,1.357-1.408A3.953,3.953,0,0,1,517.548,291.392Zm-4.258,6.525c-1.417.515-2.859.97-4.31,1.58a7.926,7.926,0,0,1,1.734-2.455,5.387,5.387,0,0,1,1.854-1.142,4.862,4.862,0,0,1,2.043-.275,18.739,18.739,0,0,1,2.833.507,25.174,25.174,0,0,1-4.155,1.786Z" transform="translate(-191.373 -101.645)" fill="#132136"/><path d="M524.369,309.387a4.948,4.948,0,0,1-4.731,1.725,5.327,5.327,0,0,1-2.765-1.451,10.1,10.1,0,0,0,2.335-.18,13.872,13.872,0,0,0,2.258-.592,10.693,10.693,0,0,0,2.129-1,5.716,5.716,0,0,0,1.743-1.588A4.042,4.042,0,0,1,524.369,309.387Zm-4.8,5.374c-1.417.515-2.859.97-4.31,1.58A7.8,7.8,0,0,1,517,313.885a5.279,5.279,0,0,1,1.846-1.142,4.863,4.863,0,0,1,2.043-.275,18.727,18.727,0,0,1,2.833.507,25.148,25.148,0,0,1-4.155,1.786Z" transform="translate(-199.268 -111.811)" fill="#132136"/><path d="M520.914,324.343a4.947,4.947,0,0,1-4.73,1.726,5.327,5.327,0,0,1-2.765-1.451,10.093,10.093,0,0,0,2.335-.18,13.86,13.86,0,0,0,2.258-.592,10.7,10.7,0,0,0,2.129-1,5.715,5.715,0,0,0,1.743-1.588A4.042,4.042,0,0,1,520.914,324.343Zm-4.542,6.877c-1.434.652-2.936,1.185-4.439,1.854a8.446,8.446,0,0,1,1.743-2.541,6.225,6.225,0,0,1,1.829-1.279,5.492,5.492,0,0,1,1.983-.464c.738-.069,1.494.077,2.824-.1a7.167,7.167,0,0,1-1.846,1.477,17.7,17.7,0,0,1-2.1,1.056Z" transform="translate(-197.427 -120.088)" fill="#132136"/><path d="M520.52,299.387a4.626,4.626,0,0,1-.06.91,4.519,4.519,0,0,1-.661,1.554,5.2,5.2,0,0,1-2.249,1.88,5.28,5.28,0,0,1-2.7.421,5.408,5.408,0,0,1-2.953-1.314,10.15,10.15,0,0,0,2.447-.3,12.912,12.912,0,0,0,2.344-.773,8.84,8.84,0,0,0,2.138-1.3,4.211,4.211,0,0,0,1.451-2.018,3.7,3.7,0,0,1,.163.464A4.229,4.229,0,0,1,520.52,299.387Zm-8.663,13.23a8.352,8.352,0,0,1,.612-2.751,4.49,4.49,0,0,1,1.035-1.533,3.408,3.408,0,0,1,1.414-.774,8.6,8.6,0,0,0,2.385-.823,3.7,3.7,0,0,1,.355.3,3.891,3.891,0,0,1,.281.358,3.438,3.438,0,0,1,.338.794,3.634,3.634,0,0,1,.031,1.588,4.238,4.238,0,0,1-1.315,2.346,4.131,4.131,0,0,1-2.215,1.055A4.64,4.64,0,0,1,511.857,312.617Zm8.3-42.026a19.048,19.048,0,0,0-1.013,4.25,5.958,5.958,0,0,1-1.2-2.713,4.728,4.728,0,0,1,.18-2.241,4.57,4.57,0,0,1,1.236-1.88,6.022,6.022,0,0,1,2.618-1.391A19.3,19.3,0,0,0,520.159,270.592Zm2.842.978a4.6,4.6,0,0,1-1.245,1.872,5.951,5.951,0,0,1-2.61,1.4,20.229,20.229,0,0,0,1.82-3.975,19.169,19.169,0,0,0,1.013-4.25,5.988,5.988,0,0,1,1.211,2.713A4.626,4.626,0,0,1,523,271.57Z" transform="translate(-197.384 -89.851)" fill="#132136"/><path d="M495.964,368.428c.138.266.266.541.4.807.146.309.292.61.438.919.257.541.515,1.073.764,1.614.223-.592.455-1.176.678-1.76.137-.335.275-.678.412-1.013.052-.146.112-.283.172-.429C497.87,368.539,496.917,368.5,495.964,368.428Zm3.7,1.434-.223-.541-.232.592c-.335.85-.67,1.7-1.022,2.541.841-.034,1.683-.06,2.524-.069Zm2.722-1.271c-.412,0-.824.009-1.245.017-.361-.008-.721-.008-1.09-.017l.094.241.352.953.764,2.035.824-2.189.386-1.039Zm.73.936-.18-.507-.189.541-.97,2.833c.8.009,1.6.026,2.4.06Zm.249-.953.3.9.9,2.722,1.262-2.928.352-.824c-.936.06-1.88.1-2.816.129Zm3.34.61-.266-.653-.275.7-1.262,3.254c1.082.06,2.172.155,3.263.309Zm-10.74-.756c.137.266.266.541.4.807.146.309.292.61.438.919.257.541.515,1.073.764,1.614.223-.592.455-1.176.678-1.76.137-.335.275-.678.412-1.013.052-.146.112-.283.172-.429C497.87,368.539,496.917,368.5,495.964,368.428Zm3.7,1.434-.223-.541-.232.592c-.335.85-.67,1.7-1.022,2.541.841-.034,1.683-.06,2.524-.069Zm2.722-1.271c-.412,0-.824.009-1.245.017-.361-.008-.721-.008-1.09-.017l.094.241.352.953.764,2.035.824-2.189.386-1.039Zm.73.936-.18-.507-.189.541-.97,2.833c.8.009,1.6.026,2.4.06Zm.249-.953.3.9.9,2.721,1.262-2.928.352-.824c-.936.06-1.88.1-2.816.129Zm3.34.61-.266-.652-.275.7-1.262,3.254c1.082.06,2.172.155,3.263.309Zm-11.2-.378c-.095.18-.2.369-.292.55l.49-.052c-.069-.163-.128-.335-.2-.5Zm.455-.378c.137.266.266.541.4.807.146.309.292.61.438.919.481-.051.961-.1,1.442-.146.137-.335.275-.678.412-1.013.052-.146.112-.283.172-.429-.953-.026-1.906-.069-2.859-.138Zm3.477.893-.232.592.455-.051Zm1.7-.713c-.361-.008-.721-.008-1.09-.017l.094.241c.747-.077,1.494-.163,2.241-.241-.412,0-.824.009-1.245.017Zm-9.8-12.655,1.906,12.225c.721-.094,1.442-.163,2.155-.223a.254.254,0,0,1,.232-.034l.017.017c1.219-.086,2.43-.146,3.64-.172a.5.5,0,0,1,.275,0c.524-.008,1.047-.017,1.571-.017,2.164.009,4.318.06,6.473.266.472.052.953.1,1.425.163l.051-.326,1.846-11.9Zm3.031,11.513a1.289,1.289,0,0,1,0-2.576,1.289,1.289,0,0,1,0,2.576Zm4.636,0a1.289,1.289,0,0,1,0-2.576,1.289,1.289,0,0,1,0,2.576Zm4.481-.154a1.289,1.289,0,0,1,0-2.576,1.289,1.289,0,0,1,0,2.576Zm4.4.154a1.289,1.289,0,0,1,0-2.576,1.289,1.289,0,0,1,0,2.576Zm-1.193,1.717-.266-.653-.275.7-1.262,3.254c1.082.06,2.172.155,3.263.309Zm-3.34-.609.3.9.9,2.722,1.262-2.928.352-.824C505.245,368.5,504.3,368.548,503.364,368.574Zm-.249.953-.18-.507-.189.541-.97,2.833c.8.009,1.6.026,2.4.06Zm-.73-.936c-.412,0-.824.009-1.245.017-.361-.008-.721-.008-1.09-.017l.094.241.352.953.764,2.035.824-2.189.386-1.039Zm-2.722,1.271-.223-.541-.232.592c-.335.85-.67,1.7-1.022,2.541.841-.034,1.683-.06,2.524-.069Zm-3.7-1.434c.138.266.266.541.4.807.146.309.292.61.438.919.257.541.515,1.073.764,1.614.223-.592.455-1.176.678-1.76.137-.335.275-.678.412-1.013.052-.146.112-.283.172-.429-.953-.026-1.906-.069-2.859-.137Zm10.741.756-.266-.653-.275.7-1.262,3.254c1.082.06,2.172.155,3.263.309Zm-3.34-.61.3.9.9,2.722,1.262-2.928.352-.824C505.245,368.5,504.3,368.548,503.364,368.574Zm-.249.953-.18-.507-.189.541-.97,2.833c.8.009,1.6.026,2.4.06Zm-.73-.936c-.412,0-.824.009-1.245.017-.361-.008-.721-.008-1.09-.017l.094.241.352.953.764,2.035.824-2.189.386-1.039Zm-2.722,1.271-.223-.541-.232.592c-.335.85-.67,1.7-1.022,2.541.841-.034,1.683-.06,2.524-.069Zm-3.7-1.434c.138.266.266.541.4.807.146.309.292.61.438.919.257.541.515,1.073.764,1.614.223-.592.455-1.176.678-1.76.137-.335.275-.678.412-1.013.052-.146.112-.283.172-.429-.953-.026-1.906-.069-2.859-.137Zm6.422.163c-.747.077-1.494.163-2.241.241l.352.953,1.588-.154.386-1.039Zm.549.429-.189.541c.12-.009.249-.017.369-.034Zm.429-.446.3.9,2.164-.206.352-.824c-.936.06-1.88.1-2.816.129Zm3.074-.043-.275.7.541-.051Zm.223-.12.275.756,1.313,3.632v.009a.189.189,0,0,1,.069.009l.6-3.838.12-.8c-.8.1-1.588.172-2.378.232Zm1.58,4.413c0,.009,0,.026-.017.026a.041.041,0,0,1-.052-.017,55.2,55.2,0,0,1-7.031.412c-1.108-.009-2.215-.034-3.323-.086a.387.387,0,0,1-.386.043.709.709,0,0,1-.1-.069c-1.116-.068-2.241-.163-3.357-.318l.575,3.692h13.2l.575-3.692A.236.236,0,0,0,508.241,372.823ZM497.3,376.18a1.289,1.289,0,0,1,0-2.576,1.289,1.289,0,0,1,0,2.576Zm4.327,0a1.289,1.289,0,0,1,0-2.576,1.289,1.289,0,0,1,0,2.576Zm4.327-.154a1.289,1.289,0,0,1,0-2.576,1.289,1.289,0,0,1,0,2.576Zm.747-6.843-.266-.653-.275.7-1.262,3.254c1.082.06,2.172.155,3.263.309Zm-3.34-.609.3.9.9,2.722,1.262-2.928.352-.824C505.245,368.5,504.3,368.548,503.364,368.574Zm-.249.953-.18-.507-.189.541-.97,2.833c.8.009,1.6.026,2.4.06Zm-.73-.936c-.412,0-.824.009-1.245.017-.361-.008-.721-.008-1.09-.017l.094.241.352.953.764,2.035.824-2.189.386-1.039Zm-2.722,1.271-.223-.541-.232.592c-.335.85-.67,1.7-1.022,2.541.841-.034,1.683-.06,2.524-.069Zm-3.7-1.434c.138.266.266.541.4.807.146.309.292.61.438.919.257.541.515,1.073.764,1.614.223-.592.455-1.176.678-1.76.137-.335.275-.678.412-1.013.052-.146.112-.283.172-.429-.953-.026-1.906-.069-2.859-.137Zm.112,1.794c-.12-.3-.249-.61-.369-.919-.069-.163-.129-.335-.2-.5-.095.181-.2.369-.292.55-.172.335-.352.67-.532,1q-.4.76-.824,1.52a.032.032,0,0,1-.026.009l.138.927c1.013-.146,2.035-.232,3.048-.3-.309-.764-.627-1.528-.945-2.292Zm.721-.069c.257.541.515,1.073.764,1.614.223-.592.455-1.176.678-1.76-.481.043-.962.095-1.443.146Zm2.867-.292-.455.051c-.335.85-.67,1.7-1.022,2.541.841-.034,1.683-.06,2.524-.069Zm.833-.077.764,2.035.824-2.189-1.588.154Zm2.618-.258c-.12.017-.249.026-.369.034l-.97,2.833c.8.009,1.6.026,2.4.06Zm.55-.051.9,2.721,1.262-2.928-2.164.206Zm3.039-.292-.541.051-1.262,3.254c1.082.06,2.172.155,3.263.309Zm-13.454-1,.215,1.365.137.927.206,1.3c.18-.464.361-.919.541-1.374.129-.335.266-.661.4-.987.137-.343.275-.687.421-1.03-.644-.051-1.279-.12-1.923-.2Z" transform="translate(-186.032 -139.291)" fill="#132136"/><path d="M328.2,324.523a5.387,5.387,0,0,1-1.537-2.388c-.135-.458-.31-.912-.413-1.381l-.291-1.413a33.314,33.314,0,0,1-.216-5.736c.034-1.918.32-3.808.543-5.706.348-1.873.616-3.768,1.07-5.618.427-1.857.853-3.713,1.393-5.538.52-1.831,1.019-3.666,1.659-5.458.619-1.8,1.175-3.615,1.863-5.386s1.358-3.548,2.084-5.3c-1.01,3.665-2.179,7.268-3.163,10.926l-.765,2.733-.7,2.747c-.227.917-.5,1.823-.706,2.745l-.621,2.763c-.472,1.831-.738,3.7-1.117,5.546-.278,1.861-.571,3.724-.722,5.6a33.509,33.509,0,0,0-.083,5.625l.167,1.395c.062.465.194.913.288,1.374A5.755,5.755,0,0,0,328.2,324.523ZM195.867,290.748c-.425,1.2-.908,2.379-1.39,3.556l-1.921,3.237-3.687,6.229h-1.422l.221-.368,3.834-6.483,1.921-3.245C194.223,292.693,195.016,291.7,195.867,290.748Zm-8.976,4.071-.458,4.006-.564,4.946h-1.235l.581-5.085.45-4.006c.335-1.316.662-2.632,1.071-3.932C186.833,292.113,186.866,293.462,186.891,294.819Zm-5.061,8.952h.777l-.433-3.033-.352-2.436-.539-3.826c-.368-1.243-.728-2.493-1.161-3.728-.057,1.071-.074,2.134-.065,3.2v.711l.155,1.055.4,2.763.76,5.3Zm-2.591,0H178l-.768-5.3-.548-3.818c-.008-1.3-.008-2.6.065-3.908.433,1.235.793,2.485,1.161,3.728l.539,3.826.523,3.646Z" transform="translate(-11.896 -97.589)" fill="#132136"/><path d="M178.686,308.167v.719l-.008,3.041v5.019h-1.226v-8.78c.18-1.251.36-2.5.613-3.76.18.908.335,1.815.466,2.714C178.588,307.472,178.637,307.816,178.686,308.167Zm3.777.629-.425,3.736-.5,4.415H180.3l.343-3.033.172-1.521.417-3.736c.319-1.226.638-2.452,1.03-3.662C182.381,306.262,182.422,307.529,182.463,308.8Zm-8.535,13.153v4.414c.213-.025.425-.041.638-.065l1.839-4.128C175.579,322.113,174.754,322.048,173.928,321.95Zm2.706.294-1.97,4.047c1.185-.123,2.379-.2,3.564-.253Zm.262-.041,1.684,3.63,1.341-3.507c-1.005-.016-2.019-.065-3.025-.123Zm3.45.474-1.382,3.335c.875-.033,1.741-.049,2.616-.057Zm1.741-.319c-.425-.008-.858-.016-1.283-.016l1.251,3.082,1.063-3.082c-.343.008-.687.008-1.03.016Zm1.578.777-1.071,2.821c.687.008,1.373.016,2.06.041-.343-.956-.67-1.9-.989-2.861Zm.572-.809c.351.973.687,1.945,1.014,2.918.442-1.005.875-2,1.324-3-.777.041-1.553.066-2.338.082Zm2.8.376c-.409,1.112-.834,2.215-1.259,3.327.94.033,1.88.09,2.812.172-.54-1.161-1.046-2.322-1.553-3.5Zm-13.1-5.755v5a69.832,69.832,0,0,1,8.159-.409c.5,0,1,.008,1.5.016a.4.4,0,0,1,.221,0c1.046.016,2.085.057,3.123.114a.3.3,0,0,1,.082-.016.327.327,0,0,1,.123.025c1.038.065,2.076.147,3.114.27v-5Zm1.9,3.654a1.227,1.227,0,0,1,0-2.452,1.227,1.227,0,0,1,0,2.452Zm4.414,0a1.227,1.227,0,0,1,0-2.452,1.227,1.227,0,0,1,0,2.452Zm4.267-.147a1.227,1.227,0,0,1,0-2.453,1.227,1.227,0,0,1,0,2.453Zm4.194.147a1.227,1.227,0,0,1,0-2.452,1.227,1.227,0,0,1,0,2.452Zm-1.316,1.594c.458,1.332.9,2.665,1.308,4.014.515.049,1.03.09,1.545.155V321.95c-.948.106-1.9.188-2.853.245Zm-10.758.049-1.97,4.047c1.185-.123,2.379-.2,3.564-.253Zm.262-.041,1.684,3.63,1.341-3.507c-1.005-.016-2.019-.065-3.025-.123Zm3.45.474-1.382,3.335c.875-.033,1.741-.049,2.616-.057Zm1.741-.319c-.425-.008-.858-.016-1.283-.016l1.251,3.082,1.063-3.082c-.343.008-.687.008-1.03.016Zm1.578.777-1.071,2.821c.687.008,1.373.016,2.06.041-.343-.956-.67-1.9-.989-2.861Zm.572-.809c.351.973.687,1.945,1.014,2.918.441-1.006.875-2,1.324-3-.777.041-1.553.066-2.338.082Zm2.8.376c-.409,1.112-.834,2.215-1.259,3.327.94.033,1.88.09,2.812.172-.54-1.161-1.046-2.322-1.553-3.5Zm-10.4-.458-1.97,4.047c1.185-.123,2.379-.2,3.564-.253Zm.262-.041,1.684,3.63,1.341-3.507c-1.005-.016-2.019-.065-3.025-.123Zm3.45.474-1.381,3.335c.875-.033,1.741-.049,2.616-.057Zm1.741-.319c-.425-.008-.858-.016-1.283-.016l1.251,3.082,1.063-3.082c-.343.008-.687.008-1.03.016Zm1.578.777-1.071,2.821c.687.008,1.373.016,2.06.041-.343-.956-.67-1.9-.989-2.861Zm.572-.809c.351.973.687,1.946,1.014,2.918.441-1.005.875-2,1.324-3-.777.041-1.553.066-2.338.082Zm2.8.376c-.409,1.112-.834,2.215-1.259,3.327.94.033,1.88.09,2.812.172-.54-1.161-1.046-2.322-1.553-3.5Zm-13.1,8.445v1.014a8.158,8.158,0,0,0,16.317,0v-1.014A81.632,81.632,0,0,1,173.928,331.146Zm11.494-4.439a.394.394,0,0,1-.36.041.508.508,0,0,1-.049-.033c-.973.033-1.954.049-2.927.057a73.615,73.615,0,0,1-8.158-.409v4.782a81.63,81.63,0,0,1,16.317,0v-4.782c-1.61.188-3.213.286-4.823.343Zm-9.221,3.311a1.227,1.227,0,0,1,0-2.452,1.227,1.227,0,0,1,0,2.452Zm3.752-.074a1.227,1.227,0,0,1,0-2.452,1.227,1.227,0,0,1,0,2.452Zm4.12,0a1.227,1.227,0,0,1,0-2.452,1.227,1.227,0,0,1,0,2.452Zm4.12-.147a1.227,1.227,0,0,1,0-2.452,1.227,1.227,0,0,1,0,2.452Zm.392-3.6c-.54-1.161-1.046-2.322-1.553-3.5-.409,1.112-.834,2.215-1.259,3.327.94.033,1.88.09,2.812.172Zm-2.011-3.957c-.777.041-1.553.065-2.338.082.351.973.687,1.946,1.014,2.918.442-1.005.875-2,1.325-3ZM184.653,326c-.343-.956-.67-1.9-.989-2.861l-1.071,2.821c.687.008,1.373.017,2.06.041Zm-1.537-3.654c-.344.008-.687.008-1.03.016-.425-.008-.858-.016-1.283-.016l1.251,3.082Zm-1.537,3.613-1.234-3.278-1.382,3.335c.875-.032,1.741-.049,2.616-.057Zm-1.66-3.63c-1.005-.016-2.019-.065-3.025-.123l1.684,3.63Zm-3.286-.082-1.97,4.047c1.185-.123,2.379-.2,3.564-.254Zm10.4.458c-.409,1.112-.834,2.215-1.259,3.327.94.033,1.88.09,2.812.172-.54-1.161-1.046-2.322-1.553-3.5Zm-2.8-.376c.351.973.687,1.946,1.014,2.918.441-1.005.875-2,1.324-3-.777.041-1.553.066-2.338.082Zm-.572.809-1.071,2.821c.687.008,1.373.016,2.06.041C184.31,325.04,183.983,324.091,183.664,323.135Zm-1.578-.777c-.425-.008-.858-.016-1.283-.016l1.251,3.082,1.063-3.082c-.343.008-.687.008-1.03.016Zm-1.741.319-1.381,3.335c.875-.033,1.741-.049,2.616-.057Zm-3.45-.474,1.684,3.63,1.341-3.507c-1.005-.016-2.019-.065-3.025-.122Zm-.262.041-1.97,4.047c1.185-.123,2.379-.2,3.564-.253Zm10.4.458c-.409,1.112-.834,2.215-1.259,3.327.94.033,1.88.09,2.812.172-.54-1.16-1.046-2.322-1.554-3.5Zm-2.8-.376c.352.973.687,1.946,1.014,2.918.441-1.006.875-2,1.324-3-.777.041-1.554.066-2.338.082Zm-.572.809-1.071,2.821c.687.008,1.373.016,2.06.041C184.31,325.04,183.983,324.091,183.664,323.135Zm-1.578-.777c-.425-.008-.858-.016-1.283-.016l1.251,3.082,1.063-3.082c-.343.008-.687.008-1.03.016Zm-1.741.319-1.381,3.335c.875-.033,1.741-.049,2.616-.057Zm-3.45-.474,1.684,3.63,1.341-3.507c-1.005-.016-2.019-.065-3.025-.122Zm-.262.041-1.97,4.047c1.185-.123,2.379-.2,3.564-.253Zm75.608-1.584c.315,1.178.666,2.326,1.011,3.476s.714,2.29,1.089,3.43c.176.573.365,1.143.556,1.712.17.577.383,1.139.553,1.717.186.573.371,1.147.545,1.727s.359,1.157.5,1.753c-.326-.517-.618-1.051-.909-1.586-.27-.544-.546-1.087-.79-1.644a34.471,34.471,0,0,1-1.307-3.405,30.582,30.582,0,0,1-.913-3.537A16.263,16.263,0,0,1,252.242,320.66Z" transform="translate(-10.37 -110.765)" fill="#132136"/><path d="M296.029,344.567a2.522,2.522,0,0,0-.049-.5h0v0A2.446,2.446,0,0,1,296.029,344.567Z" transform="translate(-77.915 -132.716)" fill="#132136"/><path d="M283.571,341.713c.518.1,1.032.2,1.55.3l2.22.415a7.819,7.819,0,0,1-.214,2.028v0l-2.389-.447c-.616-.116-1.228-.237-1.844-.362-.1-.013-.2-.036-.3-.058-.741-.143-1.487-.286-2.228-.433a10.367,10.367,0,0,0,.045-2.068c.639.13,1.282.255,1.92.38l.156.031" transform="translate(-69.271 -131.067)" fill="#132136"/></g><g transform="matrix(0.998, 0.07, -0.07, 0.998, 556.1, 3639.736)"><path d="M0,127.059S24.732,10.47,138.174.687s156.6,88.221,156.6,88.221" transform="translate(0 0)" fill="none" stroke="#707070" stroke-linecap="round" stroke-width="1" stroke-dasharray="4"/><path d="M0,0,3.88,3.88,7.761,0" transform="matrix(0.875, -0.485, 0.485, 0.875, 290.032, 88.094)" fill="none" stroke="#707070" stroke-linecap="round" stroke-linejoin="round" stroke-width="1"/></g></g></svg>