<svg xmlns="http://www.w3.org/2000/svg" width="347.848" height="230.884" viewBox="0 0 347.848 230.884"><g transform="translate(-146 -3718)"><g transform="matrix(0.998, -0.07, 0.07, 0.998, -257.557, 116.784)"><path d="M17001.27-1178s24.732,116.589,138.174,126.372,156.6-88.221,156.6-88.221" transform="translate(-16813 4905)" fill="none" stroke="#707070" stroke-linecap="round" stroke-width="1" stroke-dasharray="4"/><path d="M5,11.88,8.88,8l3.88,3.88" transform="matrix(0.875, 0.485, -0.485, 0.875, 479.688, 3753.149)" fill="none" stroke="#707070" stroke-linecap="round" stroke-linejoin="round" stroke-width="1"/></g><g transform="translate(8 118)"><circle cx="31.5" cy="31.5" r="31.5" transform="translate(138 3642)" fill="#15af9e"/><path d="M-11.793-13.233a4.057,4.057,0,1,1,8.083,0v2.724c0,5.94-8.083,5.94-8.083,0Zm-2.5,2.724c0,9.066,13.085,9.043,13.085,0v-2.724c0-9.043-13.085-9.066-13.085,0ZM1.2-4.055H9.219V-6.132H6.494V-19.686l-5.158,1.63v2.188l2.679-.759V-6.132H1.2Z" transform="translate(171.996 3685.131)" fill="#fff"/></g><g transform="translate(99.299 3605.708)"><path d="M430.07,357.745c1.377,1.862,2.793,3.689,4.328,5.44h0c-2,.322-6.5.552-6.5.552l-12.5-13.625a21.406,21.406,0,0,0,2.9-5.167c.2-.454.366-.922.534-1.39s.322-.935.477-1.407c.128-.393.238-.79.344-1.187a55.138,55.138,0,0,0,2.749,5.228c.578,1,1.2,1.981,1.8,2.965s1.253,1.946,1.88,2.916C427.379,353.99,428.689,355.891,430.07,357.745Z" transform="translate(-146.58 -123.366)" fill="#132136"/><path d="M357.279,336.714a41.311,41.311,0,0,1-7.523.5c-1.081-2.061-2.263-4.05-3.472-6.014-.6-.993-1.231-1.954-1.844-2.934l-1.893-2.9-1.932-2.868c-.666-.944-1.3-1.906-1.981-2.841-1.16-1.668-2.356-3.3-3.543-4.959.119-.463.251-.927.357-1.394.2-.971.41-1.937.538-2.921.146-.98.256-1.959.322-2.947.1-.984.084-1.977.106-2.961-.018-.988-.066-1.972-.159-2.956-.2.971-.326,1.942-.49,2.908l-.243,1.443c-.079.481-.141.962-.238,1.438s-.181.957-.256,1.439-.185.949-.278,1.425c-.177.953-.393,1.9-.6,2.841s-.428,1.888-.684,2.819c-.225.94-.516,1.862-.777,2.793a58.433,58.433,0,0,1-1.937,5.515c-10.624,19.872-21.125,28.745-21.125,28.745-31.869,20.874-51.124-14.017-51.124-14.017v0a27.769,27.769,0,0,0,10.757-8.1l-2.607-13.978s1.787-.388,4.5-1.213c.181.658.371,1.311.565,1.963.463,1.549.957,3.093,1.509,4.615a75.349,75.349,0,0,0,3.812,8.961,32.3,32.3,0,0,0,5.573,8.088,11.354,11.354,0,0,0,4.218,2.8,6.891,6.891,0,0,0,5.127-.2,11.8,11.8,0,0,0,3.993-3.049,27.644,27.644,0,0,0,2.9-3.966c1.708-2.736,3.446-5.458,5.242-8.141Q309.5,318.622,315.487,311q2.991-3.8,6.133-7.47c2.1-2.44,4.253-4.831,6.561-7.033a23.686,23.686,0,0,1,3.662-2.947,4.178,4.178,0,0,1,1.9-.715c.335-.053.953.538,1.429,1.094a32.888,32.888,0,0,1,2.687,3.883c.834,1.363,1.619,2.766,2.391,4.174,1.562,2.811,3.014,5.683,4.474,8.555s2.878,5.773,4.267,8.688C351.8,325.03,354.539,330.872,357.279,336.714Z" transform="translate(-61.938 -97.398)" fill="#132136"/><path d="M319.655,325.533c.794-.5,1.571-1.024,2.321-1.58,1.363,2.458,3.274,6.217,3.274,7.986a10.535,10.535,0,0,0-1.655.732,10.549,10.549,0,0,0-.477-1.694,16,16,0,0,0-.874-1.963,15.3,15.3,0,0,0-1.129-1.827A9.5,9.5,0,0,0,319.655,325.533Z" transform="translate(-94.926 -114.191)" fill="#132136"/><path d="M356.62,277.391l.066-.031c-2.343-6.023-4.858-11.979-7.479-17.887-2.652-5.895-5.365-11.772-8.44-17.486-.772-1.425-1.575-2.837-2.427-4.231a30.318,30.318,0,0,0-2.85-4.05,8.32,8.32,0,0,0-.953-.931,3.062,3.062,0,0,0-.64-.41,1.833,1.833,0,0,0-.441-.154,2.078,2.078,0,0,0-.428-.04,3.744,3.744,0,0,0-1.43.327,8.326,8.326,0,0,0-1.165.618,25.09,25.09,0,0,0-3.834,3.163,85.6,85.6,0,0,0-6.508,7.258c-2.056,2.506-3.989,5.1-5.9,7.708-3.817,5.224-7.5,10.536-11.167,15.853l-5.506,7.977a27.515,27.515,0,0,1-2.956,3.737,11.192,11.192,0,0,1-3.737,2.665,5.926,5.926,0,0,1-4.324.1,10.665,10.665,0,0,1-3.781-2.524,23.982,23.982,0,0,1-3-3.644,44.653,44.653,0,0,1-2.488-4.086,83.466,83.466,0,0,1-4.068-8.727c-.591-1.5-1.178-3-1.73-4.509-.229-.64-.459-1.284-.675-1.924a65.509,65.509,0,0,0,15.191-6.733,9.572,9.572,0,0,0,.543,2.14,16.365,16.365,0,0,0,2.008,3.79,10.77,10.77,0,0,0,1.134,1.346c-.177.1-.357.2-.534.309a19.894,19.894,0,0,0-2.18,1.553,17.943,17.943,0,0,0-1.941,1.857,10.632,10.632,0,0,0-1.557,2.233,23.024,23.024,0,0,0,2.255-1.46c.719-.516,1.412-1.05,2.087-1.61s1.337-1.138,1.972-1.752a17.467,17.467,0,0,0,1.809-2l3.874-3.252S319.1,226.7,324.879,224.454a58.3,58.3,0,0,1,20.653.631c7.262,12.954,13.779,22.806,15.248,30.62,1.624,8.626,7.373,17.375,7.373,17.375A27.048,27.048,0,0,1,356.62,277.391Zm-89.766-94.507c.777.833,1.451,1.666,2.135,2.539a17.116,17.116,0,0,1,1.818,2.767c.061.127.122.254.182.366a1.712,1.712,0,0,0,.2.334,2.021,2.021,0,0,0,.551.531,3.421,3.421,0,0,0,1.508.419,2.576,2.576,0,0,1,.431.076.716.716,0,0,1,.24.113.728.728,0,0,1,.112.122,1.06,1.06,0,0,1,.053.162,1.362,1.362,0,0,1-.345.866,7.148,7.148,0,0,1-1.211,1.178l0-.288a3.067,3.067,0,0,1,.861,1.523,6.686,6.686,0,0,1,.228,1.679,11.937,11.937,0,0,1-.088,1.673c-.061.547-.115,1.094-.186,1.646a3.643,3.643,0,0,1-.493,1.657,1.929,1.929,0,0,1-.715.549c-.259.129-.521.22-.779.321a4.02,4.02,0,0,0-1.284.907,10.583,10.583,0,0,0-1.052,1.24,12.951,12.951,0,0,0-.881,1.378c-.133.238-.257.481-.367.728a2.72,2.72,0,0,0-.243.748c0,1.092.038,2.2.057,3.3.038,2.2.109,4.4.171,6.6v.029l-.017.022a9.394,9.394,0,0,1-1.118,1.212,6.45,6.45,0,0,1-1.343.966,3.952,3.952,0,0,1-1.6.484,3.214,3.214,0,0,1-1.637-.4l-.079-.042.013-.1c.2-1.509.324-3.037.4-4.56s.1-3.052.031-4.575a32.783,32.783,0,0,0-.463-4.536,18.768,18.768,0,0,0-1.289-4.331l.2.131a3.7,3.7,0,0,1-2.417-1.177,4.762,4.762,0,0,1-1.138-2.405l-.092-.656c-.017-.22-.025-.44-.035-.66s.02-.447.033-.67a2.934,2.934,0,0,1,.173-.675l.067-.167.106-.156a.969.969,0,0,1,.268-.276,1.151,1.151,0,0,1,.352-.17,1.407,1.407,0,0,1,.375-.034,2.617,2.617,0,0,1,1.293.478l-.163-.023a6.275,6.275,0,0,0,1.418-.811,10.606,10.606,0,0,0,1.258-1.091,13.953,13.953,0,0,0,2.015-2.671,21.251,21.251,0,0,0,1.459-3.033c.2-.527.372-1.062.558-1.6Zm.011.043-.382,1.633c-.167.539-.326,1.084-.505,1.621a18.919,18.919,0,0,1-1.4,3.1,14.236,14.236,0,0,1-2,2.76,10.96,10.96,0,0,1-1.277,1.149,6.535,6.535,0,0,1-1.5.889l-.077.031-.086-.054a2.266,2.266,0,0,0-1.094-.388.759.759,0,0,0-.775.568,2.543,2.543,0,0,0-.134.569c-.007.2-.024.407-.018.614l.039.623.089.616a4.319,4.319,0,0,0,1.032,2.179,3.268,3.268,0,0,0,2.1,1.025l.148.011.056.12a17.968,17.968,0,0,1,1.32,4.451,33.194,33.194,0,0,1,.432,4.6,45.624,45.624,0,0,1-.09,4.609c-.1,1.533-.25,3.06-.483,4.582l-.066-.14a2.952,2.952,0,0,0,1.486.393,3.733,3.733,0,0,0,1.509-.429,6.252,6.252,0,0,0,1.319-.912,8.5,8.5,0,0,0,1.112-1.168l-.016.05c-.049-2.2-.09-4.405-.163-6.608l-.1-3.308a2.833,2.833,0,0,1,.241-.824c.108-.258.229-.509.358-.755a13.178,13.178,0,0,1,.865-1.425,10.885,10.885,0,0,1,1.055-1.3,4.323,4.323,0,0,1,1.379-1.012,3.156,3.156,0,0,0,1.324-.768,3.37,3.37,0,0,0,.41-1.483c.066-.541.117-1.09.174-1.639a13.426,13.426,0,0,0,.094-1.624,6.315,6.315,0,0,0-.2-1.588,4,4,0,0,0-.276-.737,2.01,2.01,0,0,0-.434-.595l-.177-.152.173-.136a6.825,6.825,0,0,0,1.155-1.1,1.115,1.115,0,0,0,.284-.618c.028-.088-.291-.161-.546-.191a3.706,3.706,0,0,1-1.623-.5,2.3,2.3,0,0,1-.615-.617,1.95,1.95,0,0,1-.215-.374c-.066-.131-.121-.253-.176-.375a19.034,19.034,0,0,0-1.72-2.777c-.629-.887-1.335-1.764-1.992-2.594Z" transform="translate(-61.217 -38.084)" fill="#132136"/><path d="M269.793,207.066a7.693,7.693,0,0,0,2.254.9c.391.094.789.159,1.194.215.2.031.407.044.613.073s.414.034.626.071a4.585,4.585,0,0,1-1.257.2,5.19,5.19,0,0,1-1.278-.13,4.56,4.56,0,0,1-1.2-.477A2.825,2.825,0,0,1,269.793,207.066Zm10.112-5.308a1.785,1.785,0,0,1-.351,1.1,1.3,1.3,0,0,1-1.1.495,1.606,1.606,0,0,1-1.056-.537,1.784,1.784,0,0,1-.481-1.056,1.468,1.468,0,0,1,.4-1.141,1.55,1.55,0,0,1,1.141-.5,1.4,1.4,0,0,1,1.1.537A1.784,1.784,0,0,1,279.905,201.757Zm-.039,0a1.159,1.159,0,0,0-.49-.919,1.546,1.546,0,0,0-.919-.3,1.328,1.328,0,0,0-.88.34,1.413,1.413,0,0,0-.442.88,1.159,1.159,0,0,0,.356.966,1.257,1.257,0,0,0,.966.3,1.8,1.8,0,0,0,.924-.343A1.161,1.161,0,0,0,279.866,201.757Zm-6.511-5.991a1.8,1.8,0,0,1,.522-.812,2.755,2.755,0,0,1,.825-.529,3.09,3.09,0,0,1,.95-.207,2.7,2.7,0,0,1,.952.111c-.312.09-.609.149-.9.229a7.761,7.761,0,0,0-.838.276A5.2,5.2,0,0,0,273.355,195.766Zm2.75,1.271a.521.521,0,1,0-.5-.521A.521.521,0,0,0,276.1,197.037Z" transform="translate(-68.026 -44.196)" fill="#132136"/><path d="M251.422,218.119c-2.562,9.374-5.937,2.75-5.937,2.75-3.125-14.373-8.124-14.248-8.124-14.248a32.368,32.368,0,0,0,2.125-11.069c0-1.6.036-2.829.089-3.765a6.26,6.26,0,0,1,2.542-4.689c7.389-5.433,14.054-4.286,14.054-4.286-2.125,9.311-7.124,11-7.124,11s-2.687-1.875-2.312,2.125S250.172,200,250.172,200C253.234,206.433,251.422,218.119,251.422,218.119Zm9.667-17.452s.147,12.578,2.145,14.328c0,0-.5,8-6.251.937,0,0-.25-9.061-.25-9.874s2.062-4.5,3.874-5.2" transform="translate(-50.529 -37.991)" fill="#132136"/><path d="M214.777,234.579a11.468,11.468,0,0,0-5.169.888,11.162,11.162,0,0,0-4.161,3.154,14.774,14.774,0,0,0-2.463,4.624,21.986,21.986,0,0,0-.665,2.554c-.164.868-.367,1.726-.48,2.607-1.068,7.008-1.7,14.088-2.341,21.157s-1.2,14.151-1.718,21.234-1.025,14.167-1.495,21.252l-.344-.4a57.306,57.306,0,0,0,6.588.1,29.134,29.134,0,0,0,3.265-.3,11.085,11.085,0,0,0,3.093-.846l.068-.033h.076a36.495,36.495,0,0,0,3.939-.315q1.968-.252,3.908-.682c1.293-.282,2.574-.619,3.833-1.026,1.266-.387,2.5-.878,3.716-1.388l-.142.218v-.161l.141-.062a30.975,30.975,0,0,0,5.857-3.334,24.619,24.619,0,0,0,4.862-4.654l-.033.136-3.087-16.751-.023-.123.122-.031c1.908-.479,3.805-1.013,5.688-1.586s3.753-1.192,5.6-1.873a54.487,54.487,0,0,0,5.422-2.308,22.623,22.623,0,0,0,2.538-1.471,8.583,8.583,0,0,0,2.129-1.934l.168-.231.141.241,1.438,2.466c.463.831.913,1.669,1.339,2.521s.83,1.717,1.187,2.606c.175.446.344.9.477,1.363a5.594,5.594,0,0,1,.262,1.46l-.389-.181,3.86-3.269-.017.381,0,0-.035-.035-.021-.049q-2.822-6.658-5.6-13.345-1.386-3.343-2.738-6.7-.676-1.679-1.331-3.369l-.638-1.7-.3-.862c-.1-.285-.182-.608-.272-.911l-.136-.456h.513c5.081-.014,10.165-.051,15.247-.142s10.162-.226,15.234-.472q3.8-.173,7.589-.508l1.884-.2,1.891-.232c.637-.075,1.273-.16,1.913-.2s1.277-.113,1.918-.134a60.5,60.5,0,0,1,7.681.1,53.064,53.064,0,0,1,7.618,1.106l-.562.433c.021-.982.074-1.946.151-2.917s.181-1.938.324-2.9a22.827,22.827,0,0,1,.6-2.888,9.989,9.989,0,0,1,.524-1.421,3.946,3.946,0,0,1,.941-1.327l.239.782c-12.544-1.261-25.11-2.389-37.691-3.26-6.29-.444-12.586-.807-18.886-1.056s-12.607-.461-18.908-.194l0-.088c6.3-.371,12.62-.278,18.927-.12,6.308.192,12.611.5,18.909.887s12.592.821,18.883,1.316,12.578,1.013,18.86,1.632l1.022.1-.783.682a3.134,3.134,0,0,0-.7,1.025,9.134,9.134,0,0,0-.472,1.29,21.952,21.952,0,0,0-.572,2.771,47.843,47.843,0,0,0-.456,5.7l-.013.557-.549-.124a52.324,52.324,0,0,0-7.468-1.07,59.578,59.578,0,0,0-7.562-.085c-.63.021-1.258.084-1.886.134s-1.254.127-1.879.2l-1.894.235-1.91.194q-3.817.32-7.633.481c-5.088.227-10.176.343-15.263.413s-10.174.1-15.263.067l.377-.458c.083.275.142.54.241.824l.289.847.619,1.692q.639,1.688,1.3,3.371,1.321,3.365,2.678,6.718,2.708,6.708,5.482,13.391l-.056-.084,0,0,.2.2-.216.18-3.888,3.235-.389.324v-.5a5.183,5.183,0,0,0-.232-1.334c-.123-.447-.284-.888-.451-1.326-.342-.875-.734-1.734-1.148-2.583s-.855-1.686-1.308-2.517l-1.407-2.464.309.01a8.908,8.908,0,0,1-2.239,2.006,24.754,24.754,0,0,1-2.584,1.477,54.788,54.788,0,0,1-5.462,2.3c-1.855.677-3.732,1.291-5.622,1.859s-3.793,1.092-5.709,1.571l.1-.153,3.161,16.737.014.075-.048.061a25.9,25.9,0,0,1-4.893,4.765,31.4,31.4,0,0,1-5.9,3.448l.142-.218v.161l-.143.062c-1.23.532-2.471,1.043-3.748,1.449-1.27.427-2.564.782-3.87,1.082s-2.622.551-3.951.735a37.114,37.114,0,0,1-4.017.364l.144-.035a11.685,11.685,0,0,1-3.277.943,29.566,29.566,0,0,1-3.339.343q-1.672.081-3.342.056c-1.114-.017-2.222-.056-3.341-.135l-.367-.026.023-.371q.662-10.638,1.488-21.262c.553-7.083,1.142-14.164,1.81-21.238q.506-5.306,1.118-10.6c.212-1.764.406-3.531.657-5.291l.361-2.642.425-2.635a33.069,33.069,0,0,1,1.235-5.209,15.1,15.1,0,0,1,2.6-4.68,11.4,11.4,0,0,1,4.3-3.145,11.594,11.594,0,0,1,5.251-.806Z" transform="translate(-27.953 -65.907)" fill="#132136"/><path d="M226.338,238.34a8.792,8.792,0,0,1,2.216,1.057,9.98,9.98,0,0,1,1.9,1.586,10.589,10.589,0,0,1,2.4,4.334,9.05,9.05,0,0,1,.27,1.221c.033.206.088.41.1.617l.048.622a19.591,19.591,0,0,1,.006,2.476c-.025.822-.116,1.627-.176,2.441s-.158,1.62-.251,2.427c-.377,3.23-.89,6.438-1.312,9.657s-.779,6.445-1.122,9.674-.7,6.456-1.112,9.676-.812,6.441-1.272,9.655c-.94,6.424-1.955,12.837-3.167,19.22l-.087-.013c.658-6.463,1.47-12.9,2.322-19.337.436-3.215.914-6.425,1.382-9.636s.954-6.42,1.455-9.627c.241-1.605.5-3.207.706-4.817.221-1.608.437-3.216.612-4.829l.255-2.42.213-2.425.211-2.424.186-2.425c.145-1.614.262-3.229.377-4.834a15.469,15.469,0,0,0-.308-4.724,10.285,10.285,0,0,0-5.881-7.067Zm16.625,13.824c.376,1.326.659,2.667.923,4.011s.495,2.693.653,4.053.229,2.734.407,4.091.44,2.7.726,4.042.571,2.681.8,4.03.486,2.694.683,4.048c.382,2.71.692,5.432.835,8.179l-.087.014c-.694-2.662-1.223-5.35-1.678-8.048-.221-1.35-.394-2.708-.574-4.065s-.332-2.718-.457-4.083-.289-2.725-.531-4.072-.578-2.68-.85-4.022-.442-2.7-.6-4.061-.291-2.724-.334-4.1Zm12.152-3.651c.747,1.041,1.411,2.127,2.059,3.222s1.265,2.205,1.818,3.35,1.028,2.332,1.6,3.468,1.216,2.231,1.883,3.316,1.333,2.169,1.949,3.281,1.257,2.21,1.845,3.336c1.164,2.259,2.264,4.553,3.216,6.925l-.078.042c-1.443-2.11-2.738-4.3-3.968-6.523-.609-1.115-1.175-2.253-1.747-3.388s-1.12-2.283-1.643-3.444-1.081-2.3-1.709-3.408-1.339-2.166-1.994-3.257-1.218-2.23-1.774-3.374-1.083-2.3-1.533-3.5Z" transform="translate(-43.742 -68.003)" fill="#132136"/><path d="M246.563,284.726c.939-.1,1.851-.214,2.747-.367a14.355,14.355,0,0,0,2.593-.671,6.546,6.546,0,0,0,1.182-.55,5.48,5.48,0,0,0,1.038-.761,5.176,5.176,0,0,0,.815-1.018,7.278,7.278,0,0,0,.573-1.249,4.17,4.17,0,0,1-.178,1.425,4.309,4.309,0,0,1-.7,1.3,5.565,5.565,0,0,1-2.421,1.675,9.042,9.042,0,0,1-2.832.527,9.171,9.171,0,0,1-2.816-.315Zm11.573-6.116c.945-.207,1.774-.356,2.589-.6a12.056,12.056,0,0,0,1.208-.408c.413-.143.8-.344,1.268-.514a3.5,3.5,0,0,1-2.231,1.769,4.159,4.159,0,0,1-1.446.156,3.139,3.139,0,0,1-1.387-.4Zm-31.61,44.245a17.662,17.662,0,0,0,3.406-.276,30.8,30.8,0,0,0,3.32-.739,40.569,40.569,0,0,0,6.338-2.436l1.532-.741,1.491-.824.751-.4.727-.445c.483-.3.971-.593,1.461-.885s.947-.633,1.428-.939l1.432-.943c.928-.666,1.853-1.341,2.809-1.985-.829.794-1.686,1.562-2.547,2.329-.907.707-1.8,1.441-2.739,2.11-.476.326-.953.651-1.436.969l-.722.479-.748.439-1.506.862-1.555.775a31.445,31.445,0,0,1-6.549,2.3c-.572.1-1.135.242-1.711.317s-1.148.16-1.728.185a13.448,13.448,0,0,1-3.454-.152Zm33.36-55.472a.521.521,0,1,0-.5-.521A.521.521,0,0,0,259.886,267.383Zm3.125,7a.521.521,0,1,0-.5-.521A.521.521,0,0,0,263.011,274.382Zm2.874,6.249a.521.521,0,1,0-.5-.521A.521.521,0,0,0,265.885,280.631Zm2.75,5a.521.521,0,1,0-.5-.521A.521.521,0,0,0,268.635,285.63Zm2.75,4.874a.521.521,0,1,0-.5-.521A.521.521,0,0,0,271.385,290.5Zm2.75,5.374a.521.521,0,1,0-.5-.521A.521.521,0,0,0,274.134,295.878Z" transform="translate(-44.683 -83.109)" fill="#132136"/><path d="M290.211,241.223s8.718,12.283,10,15.962M286.3,287.634c-.11.035-.212.066-.318.1" transform="translate(-76.758 -69.558)" fill="none"/><path d="M473.045,388.11l-.044.022s0-.009-.009-.013A.225.225,0,0,0,473.045,388.11Z" transform="translate(-177.651 -148.803)" fill="#132136"/><path d="M457.607,399.84q.177.073.354.135-.448.031-.9.073a20.137,20.137,0,0,0-3.187.517,4.89,4.89,0,0,1-1.764.069,8.5,8.5,0,0,1-1.191-.281c-.156-.049-.309-.108-.462-.17a7.463,7.463,0,0,1-2.805-1.9,5.471,5.471,0,0,1-1.413-3.066l-.049-.424.017-.427c.01-.285.024-.562.042-.826l.028-.4c.007-.132-.007-.267-.01-.4l-.014-.4c-.01-.132-.035-.267-.052-.4a8.056,8.056,0,0,0-.472-1.84,8.8,8.8,0,0,0-.566-1.219,10.075,10.075,0,0,0-2.017-2.565,9.472,9.472,0,0,1,3.34,5.579c.021.139.052.274.066.413l.035.42c.007.139.028.278.024.417l-.01.42c-.01.285-.014.556-.014.819l0,.4.062.389a5.174,5.174,0,0,0,1.389,2.767,6.958,6.958,0,0,0,2.635,1.7c.111.045.226.083.34.118a8.144,8.144,0,0,0,1.18.26,4.227,4.227,0,0,0,1.5-.087,19.735,19.735,0,0,1,2.937-.566c.188.111.378.212.569.306h0C457.34,399.725,457.472,399.785,457.607,399.84Zm26.423,1.247a2.626,2.626,0,0,1-.364.142,3.927,3.927,0,0,1-.844.174l-.031.031a1.451,1.451,0,0,1-.219.16,2.489,2.489,0,0,1-.427.184,3.548,3.548,0,0,1-.8.142,6.285,6.285,0,0,1-.767.007c-.253-.01-.472-.042-.708-.062l-2.8-.278-5.6-.559-9.613-.993c.01,0,.021,0,.031-.007l.33-.062c.014,0,.024,0,.035-.007.111-.021.226-.042.337-.059.25-.042.5-.08.757-.115h.007l.222-.031a3.88,3.88,0,0,1,.028-.4l2.163.2h0l5.787.528,3.749.358,1.844.177,2.8.264c.229.021.476.052.691.062a5.531,5.531,0,0,0,.635-.01,3.978,3.978,0,0,0,.434-.059l.146-.042a1.135,1.135,0,0,0,.222-.09c.028-.017.052-.035.066-.045s.01-.01.01-.014,0,0,0,.007l-.007.01a.144.144,0,0,0-.021.042l.375-.267.028-.021.021-.014c.045,0,.09-.007.135-.014a.506.506,0,0,1,.042.146.408.408,0,0,1-.142.361l-.01.021c.177.017.347.031.517.049.212.021.417.038.618.059Zm-1.2-2.111c-.035.09-.063.181-.09.267-.035-.01-.069-.021-.1-.028-.139-.038-.278-.073-.417-.108-.281-.069-.566-.135-.847-.226a4.71,4.71,0,0,1,.885,0,4.1,4.1,0,0,1,.573.09Z" transform="translate(-161.552 -147.83)" fill="#132136"/><path d="M526.136,416.611a.387.387,0,0,0-.059-.43.208.208,0,0,0-.024-.028.456.456,0,0,0-.122-.094,2.542,2.542,0,0,0-.635-.26c-.222-.069-.458-.125-.694-.184s-.472-.122-.708-.208a3.579,3.579,0,0,1,.746-.014,3.244,3.244,0,0,1,.743.132,1.744,1.744,0,0,1,.691.361.148.148,0,0,1,.024.024,1.757,1.757,0,0,0-.017.222l.021-.014c.045,0,.09-.007.135-.014a.507.507,0,0,1,.042.146.408.408,0,0,1-.142.361Z" transform="translate(-205.112 -163.514)" fill="#132136"/><path d="M487.4,402.025v0l-.2,2.569a4.144,4.144,0,0,1-2.507,3.5,25.16,25.16,0,0,1-5.1,1.573,14.4,14.4,0,0,1-5.326-2.375s-6.187-2.763-7.891-.274c-2.145-.819-8.655-2.882-7.523,2.847.052.25.115.514.194.8l-14.654-1.573a3.572,3.572,0,0,0,.566-3.527,8.629,8.629,0,0,1-.535-5.447c.139-.639.319-1.358.559-2.163a15.333,15.333,0,0,0,.639-3.795c.038-1.132-.059-2.281-.552-2.663l1.236-.719.1-.059a6.334,6.334,0,0,1,.576,3.9c-.319,3.236,2.18,5.36,4.555,6.121a5.084,5.084,0,0,0,2.812.191,20.752,20.752,0,0,1,3.423-.583h0c.135.066.267.125.4.181q.177.073.354.135h.007c.087.031.177.063.264.09a5.8,5.8,0,0,0,2.083.288,3.162,3.162,0,0,0,.684-.111c.132-.038.271-.073.413-.108.1-.028.2-.052.312-.073l.122-.028h0c.01,0,.021,0,.031-.007l.33-.063c.014,0,.024,0,.035-.007.111-.021.226-.042.337-.059.25-.042.5-.08.757-.115h.007c.069.01.146.017.219.024a.313.313,0,0,1,0-.056,3.915,3.915,0,0,1,.028-.4l2.163.2h0c.2-.014.385-.024.555-.035l.194-.01c.253-.014.469-.024.635-.028.07,0,.132-.007.184-.007.128-.007.2-.007.2-.007.26.031.552.063.872.1l.184.021.823.087c.122.014.246.024.375.038a.392.392,0,0,0,.066.007c.076.007.153.017.229.024s.153.017.233.024l.194.021c.094.007.188.017.281.028.062-2.715,2.92-4.24,4.7-5.712,0,0,.212-1.662,1.687-1.086,1.08.417.962.146,1.607.549v0h0a10.885,10.885,0,0,1,1.08.757c-.17.108-.337.212-.5.323-3.3,2.211-3.954,4.506-4.058,5.617a1.653,1.653,0,0,0-.014.174,2.443,2.443,0,0,0,.01.51c2.993.281,5.19.483,5.19.483,1.614.094,2-.371,2.066-.479.177.017.347.031.517.049.212.021.417.038.618.059l.33.031h0l.326.031c.108.007.212.017.312.028l.351.031.448.042c.146.014.285.028.416.038s.25.024.365.035c.174.014.333.031.479.045C487.333,402.022,487.364,402.025,487.4,402.025Zm-37.152-13.189a1.606,1.606,0,0,1-1.331-.061,1.078,1.078,0,0,1-.475-.529,1.133,1.133,0,0,1-.057-.675,2.286,2.286,0,0,0,.257.569,1.171,1.171,0,0,0,.416.382,2.2,2.2,0,0,0,.558.2C449.813,388.77,450.023,388.81,450.243,388.836Z" transform="translate(-162.119 -148.512)" fill="#132136"/><path d="M169.364,402.594a17.844,17.844,0,0,1,.24,2.69,6.575,6.575,0,0,1-.415,2.728,1.815,1.815,0,0,1-.465.618,1.267,1.267,0,0,1-.777.283c-.407.025-.861.1-1.3.169l-2.636.466-10.539,2.016c-1.758.328-3.515.67-5.261,1.051-.873.189-1.744.393-2.6.638a10.745,10.745,0,0,0-1.256.42,2.177,2.177,0,0,0-.28.141.469.469,0,0,0-.1.074s-.009.017,0-.016-.006,0,0,.012l.009.043c.047.233.079.441.137.648a1.966,1.966,0,0,0,.71,1.012,3.953,3.953,0,0,0,1.166.547,10.047,10.047,0,0,0,2.61.387,36.375,36.375,0,0,0,5.325-.294l.32.265a1.029,1.029,0,0,0,.079.137.919.919,0,0,0,.157.171,1.957,1.957,0,0,0,.431.284,4.574,4.574,0,0,0,1.063.347,12.222,12.222,0,0,0,2.328.214c1.6.01,3.205,0,4.808-.056s3.2-.137,4.8-.26,3.186-.284,4.761-.508c.786-.119,1.567-.26,2.332-.442a11.728,11.728,0,0,0,2.2-.719,3.124,3.124,0,0,0,.885-.586,1.7,1.7,0,0,0,.359-.9,15.866,15.866,0,0,0,.214-2.344c.058-1.593.032-3.2-.027-4.806s-.135-3.213-.228-4.82l.088-.01a76.281,76.281,0,0,1,.841,9.646,16.48,16.48,0,0,1-.15,2.466,4.819,4.819,0,0,1-.148.642,3.017,3.017,0,0,1-.135.339,1.453,1.453,0,0,1-.241.325,3.879,3.879,0,0,1-1.087.783,17.179,17.179,0,0,1-4.759,1.339,68.207,68.207,0,0,1-9.683.713c-1.616.02-3.229.025-4.848-.044a12.927,12.927,0,0,1-2.463-.305,4.82,4.82,0,0,1-1.209-.448,2.569,2.569,0,0,1-.554-.407,1.5,1.5,0,0,1-.234-.286.979.979,0,0,1-.16-.412l.32.264a39.181,39.181,0,0,1-5.4.065,11.437,11.437,0,0,1-2.68-.455,4.223,4.223,0,0,1-1.243-.61,2.352,2.352,0,0,1-.8-1.156c-.066-.223-.1-.458-.149-.663l-.008-.039a.252.252,0,0,1-.007-.071.246.246,0,0,1,.063-.165.684.684,0,0,1,.163-.135,2.423,2.423,0,0,1,.317-.164c.424-.181.85-.323,1.28-.461.86-.268,1.724-.51,2.589-.749,1.732-.472,3.474-.9,5.22-1.314,3.492-.824,7.021-1.466,10.564-2.031.886-.14,1.774-.271,2.67-.373.453-.048.886-.1,1.375-.112a.908.908,0,0,0,.821-.576,4.332,4.332,0,0,0,.375-1.211,10.534,10.534,0,0,0,.155-1.311,22.733,22.733,0,0,0-.018-2.672Z" transform="translate(0 -156.401)" fill="#132136"/><path d="M178.422,349c-2.253.544-4.492,1.147-6.7,1.832-1.1.346-2.193.713-3.252,1.134-.527.213-1.047.438-1.532.693a5.531,5.531,0,0,0-.676.406,2.283,2.283,0,0,0-.263.215c-.029.034-.059.067-.09.1a.123.123,0,0,1-.03.057l-1.168-.623c.069-.1.144-.2.221-.3l.224-.2a3.561,3.561,0,0,1,.438-.3,6.729,6.729,0,0,1,.855-.411,17.877,17.877,0,0,1,1.7-.581c1.133-.329,2.269-.593,3.408-.836C173.838,349.718,176.126,349.332,178.422,349ZM308.874,284.7c.844,1.747,1.644,3.516,2.378,5.322.364.905.712,1.818,1.012,2.761a15.009,15.009,0,0,1,.39,1.459,5.667,5.667,0,0,1,.114.8,3.04,3.04,0,0,1,0,.457l-.039.263a3.126,3.126,0,0,1-.113.315l-1.163-.632c0-.01.006-.017.018-.024a.9.9,0,0,1,.026-.094,1.724,1.724,0,0,0,.032-.267,4.476,4.476,0,0,0-.019-.647,13.9,13.9,0,0,0-.206-1.382c-.184-.932-.421-1.866-.677-2.8C310.107,288.374,309.514,286.527,308.874,284.7Z" transform="translate(-11.337 -93.012)" fill="#132136"/><path d="M451.021,251.617a33.172,33.172,0,0,1,6,.781,12.72,12.72,0,0,1,5.616,2.462,6.261,6.261,0,0,1,1,1.254c.246.452.5.9.724,1.361l.619,1.393q.283.7.553,1.412c.7,1.9,1.284,3.822,1.853,5.751l1.651,5.8c.568,1.927,1.1,3.863,1.64,5.8.065.243.134.484.193.731s.129.475.174.764a7.425,7.425,0,0,1,0,1.555,4.52,4.52,0,0,1-.384,1.559,1.528,1.528,0,0,1-.632.695,1.23,1.23,0,0,1-1,.016,3.78,3.78,0,0,1-1.315-1,11.382,11.382,0,0,1-.963-1.22,27.3,27.3,0,0,1-1.577-2.616l.573.175a.839.839,0,0,1-.223.075,1.256,1.256,0,0,1-.169.019,1.626,1.626,0,0,1-.307-.019,2.089,2.089,0,0,1-.517-.167,3.58,3.58,0,0,1-.818-.536,8.5,8.5,0,0,1-1.238-1.34,22.727,22.727,0,0,1-1.838-3.01c-.554-1.022-1.065-2.06-1.564-3.1s-.987-2.092-1.454-3.15-.926-2.118-1.369-3.187-.879-2.138-1.258-3.241a3.642,3.642,0,0,0-.307-.739,1.6,1.6,0,0,0-.531-.523,2.949,2.949,0,0,0-1.549-.345,9.755,9.755,0,0,0-3.306.772l-.039-.079a9.389,9.389,0,0,1,3.326-1.059,3.229,3.229,0,0,1,1.8.3,2.094,2.094,0,0,1,.726.642,4.125,4.125,0,0,1,.407.831c.893,2.106,1.857,4.2,2.856,6.274s2.013,4.14,3.089,6.161a26.258,26.258,0,0,0,1.735,2.907,7.636,7.636,0,0,0,1.079,1.218,2.748,2.748,0,0,0,.613.425,1.281,1.281,0,0,0,.3.108.843.843,0,0,0,.124.011c.019,0,.031,0,.046,0s.037-.014-.016.012l.573.175a28.507,28.507,0,0,0,1.478,2.571,10.664,10.664,0,0,0,.862,1.171,3.182,3.182,0,0,0,1.018.857.57.57,0,0,0,.461.029.909.909,0,0,0,.372-.393,3.987,3.987,0,0,0,.391-1.334,6.763,6.763,0,0,0,.07-1.447c-.068-.445-.185-.963-.292-1.442a103.629,103.629,0,0,0-3.346-11.552c-.66-1.893-1.379-3.764-2.113-5.62q-.292-.689-.569-1.382l-.609-1.356c-.21-.445-.445-.874-.672-1.306a5.52,5.52,0,0,0-.854-1.105,8.637,8.637,0,0,0-2.429-1.515,24.33,24.33,0,0,0-2.8-.981,48.191,48.191,0,0,0-5.872-1.2Z" transform="translate(-164.846 -75.165)" fill="#132136"/><path d="M212.307,115.069v-1.715a.44.44,0,1,0-.88,0v1.715a.416.416,0,0,0,.44.44.44.44,0,0,0,.44-.44Zm-5.059,1.672a.487.487,0,0,0,.177-.615l-.837-1.5a.526.526,0,0,0-.615-.13.483.483,0,0,0-.175.615l.835,1.495a.49.49,0,0,0,.615.132Zm-3.914,3.564a.453.453,0,1,0,.44-.792l-1.495-.835a.452.452,0,1,0-.44.79Zm-3.212,4.442a.416.416,0,0,0,.44.44h1.717a.44.44,0,0,0,0-.88h-1.717a.442.442,0,0,0-.44.44Zm20.984-.088a.416.416,0,0,0,.44.44h1.717a.44.44,0,0,0,0-.88h-1.717A.442.442,0,0,0,221.106,124.659Zm.4-6.071-1.5.837a.453.453,0,0,0,.44.792l1.5-.837a.453.453,0,1,0-.44-.792Zm-4.444-2.022.837-1.5a.453.453,0,1,0-.792-.44l-.837,1.5a.446.446,0,0,0,.177.615A.524.524,0,0,0,217.059,116.566Zm-10.778,11.173a9.345,9.345,0,0,1,2.112,5.676,1.467,1.467,0,0,0-1.187,1.45,1.6,1.6,0,0,0,.4,1.012,1.4,1.4,0,0,0-.4,1.012,1.465,1.465,0,0,0,1.452,1.452h.263a2.954,2.954,0,0,0,5.9,0h.263a1.465,1.465,0,0,0,1.452-1.452,1.606,1.606,0,0,0-.4-1.012,1.4,1.4,0,0,0,.4-1.012,1.5,1.5,0,0,0-1.187-1.45,9.726,9.726,0,0,1,2.112-5.676,7.128,7.128,0,1,0-11.175,0Zm5.587,12.45a2.06,2.06,0,0,1-2.067-1.847h4.179A2.171,2.171,0,0,1,211.867,140.189Zm3.212-2.772h-6.421a.571.571,0,1,1,0-1.142h6.422a.571.571,0,1,1,0,1.142Zm.572-2.595a.584.584,0,0,1-.572.572h-6.421a.572.572,0,0,1,0-1.145h6.422a.584.584,0,0,1,.572.572Zm-5.147-8.491a2.425,2.425,0,0,0,1.452-.835,2.629,2.629,0,0,0,1.362.835,21.091,21.091,0,0,0-.615,7.039h-1.452a16.57,16.57,0,0,0-.747-7.039Zm1.362-9.283a6.273,6.273,0,0,1,6.249,6.249,6.43,6.43,0,0,1-1.32,3.87,10.7,10.7,0,0,0-2.332,6.159h-.925a19.94,19.94,0,0,1,.66-7.039.665.665,0,0,0-.088-.57.636.636,0,0,0-.485-.31,1.777,1.777,0,0,1-1.187-.747.712.712,0,0,0-.572-.263.667.667,0,0,0-.527.308,1.624,1.624,0,0,1-1.275.7.541.541,0,0,0-.485.31.605.605,0,0,0-.043.615,14.453,14.453,0,0,1,.7,6.994h-1.012a10.026,10.026,0,0,0-2.33-6.159,6.153,6.153,0,0,1-1.32-3.87,6.338,6.338,0,0,1,6.289-6.249Zm0,0-29.422,50.1c-2.732-.014-5.464.128-8.2.233-1.366.057-2.732.1-4.1.111l-1.024.008c-.353-.007-.654.011-1.065-.021a3.09,3.09,0,0,1-2.752-3.182l.063-2.049c.046-1.366.088-2.732.1-4.1l.007-4.111A3,3,0,0,1,168.4,151.3c2.732-.085,5.464-.148,8.2-.173l4.1-.045,1.024-.009c.355,0,.648-.015,1.073.017a3.221,3.221,0,0,1,2.888,3.259l-.027,2.049c-.02,1.366-.074,2.732-.134,4.1s-.1,2.721-.182,4.109a2.949,2.949,0,0,1-.976,1.826A2.865,2.865,0,0,1,182.445,167.153Zm0-.088a2.712,2.712,0,0,0,1.822-.729,2.622,2.622,0,0,0,.82-1.752c-.028-1.342-.1-2.725-.155-4.086s-.114-2.732-.134-4.1l-.027-2.049a2.352,2.352,0,0,0-2.082-2.323c-.256-.023-.647-.011-.975-.014L180.689,152l-4.1-.045c-2.732-.026-5.464-.089-8.2-.173a2.572,2.572,0,0,0-2.615,2.286c-.044,1.337-.026,2.724-.019,4.083s.057,2.732.1,4.1l.063,2.049a2.483,2.483,0,0,0,2.217,2.4c.27.022.653.008.983.01l1.024.008c1.366.007,2.732.054,4.1.111,2.732.1,5.464.247,8.2.233Z" transform="translate(-11.657 -0.336)" fill="#132136"/><path d="M311.455,156.262c-3.918.025-7.836.024-11.753.071l-11.754.162c-3.918.069-7.836.078-11.753.105-1.959.02-3.918.011-5.877,0l-2.938-.01c-.491,0-.967.01-1.508-.036a5.557,5.557,0,0,1-1.521-.408,5.177,5.177,0,0,1-2.329-2.05,5.254,5.254,0,0,1-.756-2.979l.063-5.877.064-5.877.029-5.877c.029-3.918.012-7.836,0-11.753l-.009-2.938c0-.494-.023-.969,0-1.479a4.76,4.76,0,0,1,.3-1.487,5.083,5.083,0,0,1,1.835-2.39,5.476,5.476,0,0,1,1.369-.685,5.681,5.681,0,0,1,1.516-.243q11.753-.127,23.507-.174l11.753-.045,5.877,0,2.938,0c.492,0,.964-.012,1.517.034a5.643,5.643,0,0,1,1.548.412,5.34,5.34,0,0,1,2.388,2.073,5,5,0,0,1,.627,1.47,5.922,5.922,0,0,1,.146.788c.013.264.032.544.026.779,0,1.959,0,3.918-.026,5.877-.037,3.918-.06,7.836-.13,11.753l-.168,11.753-.03,2.939c-.009.492.009.975-.023,1.474a4.658,4.658,0,0,1-.316,1.453,4.947,4.947,0,0,1-1.818,2.3,5.31,5.31,0,0,1-1.333.644A5.5,5.5,0,0,1,311.455,156.262Zm0-.088a5.415,5.415,0,0,0,1.432-.225,5.207,5.207,0,0,0,1.3-.644,4.811,4.811,0,0,0,1.743-2.258,7.4,7.4,0,0,0,.3-2.872l-.03-2.939-.168-11.753c-.07-3.918-.092-7.836-.13-11.753-.023-1.959-.024-3.918-.026-5.877.005-.255-.015-.463-.024-.689a5.041,5.041,0,0,0-.124-.654,4.106,4.106,0,0,0-.524-1.218,4.435,4.435,0,0,0-1.986-1.715,4.74,4.74,0,0,0-1.282-.337c-.423-.035-.932-.023-1.42-.024l-2.938,0-5.877,0-11.753-.045q-11.754-.038-23.507-.173a5.228,5.228,0,0,0-1.38.2,5.033,5.033,0,0,0-1.26.6,4.675,4.675,0,0,0-1.726,2.17,7.276,7.276,0,0,0-.331,2.832l-.009,2.938c-.015,3.918-.031,7.836,0,11.753l.029,5.877.064,5.877.063,5.877c0,.252.02.471.031.7a5.155,5.155,0,0,0,.134.672,4.219,4.219,0,0,0,.55,1.246,4.6,4.6,0,0,0,2.045,1.738,4.826,4.826,0,0,0,1.308.342c.436.035.941.022,1.429.022l2.938-.01c1.959-.008,3.918-.017,5.877,0,3.918.028,7.836.037,11.753.105l11.753.162c3.918.048,7.836.046,11.754.071Z" transform="translate(-26.993)" fill="#132136"/><path d="M370.658,144.107c-2.732-.014-5.464.128-8.2.233-1.366.057-2.732.1-4.1.111l-1.024.008c-.353-.007-.654.011-1.065-.021a3.09,3.09,0,0,1-2.752-3.182l.063-2.049c.046-1.366.088-2.732.1-4.1L353.7,131a3,3,0,0,1,2.913-2.741c2.732-.085,5.464-.148,8.2-.173l4.1-.045,1.024-.009c.355.005.648-.015,1.073.017a3.221,3.221,0,0,1,2.888,3.259l-.027,2.049c-.02,1.366-.074,2.732-.134,4.1s-.1,2.721-.182,4.109a2.948,2.948,0,0,1-.976,1.826A2.865,2.865,0,0,1,370.658,144.107Zm0-.088a2.712,2.712,0,0,0,1.822-.729,2.622,2.622,0,0,0,.82-1.752c-.028-1.342-.1-2.725-.155-4.086s-.114-2.732-.135-4.1l-.027-2.049a2.352,2.352,0,0,0-2.082-2.323c-.256-.022-.647-.011-.975-.014l-1.024-.009-4.1-.045c-2.732-.026-5.464-.089-8.2-.173a2.572,2.572,0,0,0-2.615,2.286c-.044,1.337-.026,2.724-.019,4.083s.057,2.732.1,4.1l.063,2.049a2.483,2.483,0,0,0,2.217,2.4c.27.022.653.008.983.01l1.024.008c1.366.007,2.732.054,4.1.111,2.732.105,5.464.246,8.2.233ZM394.4,158.8c-2.732-.014-5.464.128-8.2.233-1.366.057-2.732.1-4.1.111l-1.024.008c-.353-.006-.654.011-1.065-.021a3.09,3.09,0,0,1-2.752-3.182l.063-2.049c.046-1.366.088-2.732.1-4.1l.007-4.111a3,3,0,0,1,2.913-2.741c2.732-.085,5.464-.148,8.2-.173l4.1-.045,1.024-.009c.355.005.648-.015,1.073.017a3.221,3.221,0,0,1,2.888,3.259l-.027,2.049c-.02,1.366-.074,2.732-.134,4.1s-.1,2.721-.182,4.109a2.949,2.949,0,0,1-.976,1.826A2.867,2.867,0,0,1,394.4,158.8Zm0-.088a2.711,2.711,0,0,0,1.822-.729,2.623,2.623,0,0,0,.82-1.752c-.028-1.342-.1-2.725-.155-4.086s-.114-2.732-.134-4.1l-.027-2.049a2.352,2.352,0,0,0-2.082-2.323c-.256-.023-.647-.011-.975-.014l-1.024-.009-4.1-.045c-2.732-.026-5.464-.089-8.2-.173a2.572,2.572,0,0,0-2.615,2.286c-.044,1.337-.026,2.724-.019,4.083s.057,2.732.1,4.1l.063,2.049a2.483,2.483,0,0,0,2.217,2.4c.27.022.653.008.983.01l1.024.008c1.366.007,2.732.054,4.1.111,2.732.1,5.464.246,8.2.233Z" transform="translate(-113.197 -8.49)" fill="#132136"/><path d="M369.295,146.92l-2,.105-.1.005,0-.111c-.032-1.03-.068-2.061-.087-3.092s-.023-2.061-.028-3.091v-.222h.221l2,.011h.212l0,.209c-.01,1.056-.04,2.11-.08,3.145S369.34,145.936,369.295,146.92Zm0,0c-.046-1.077-.1-2.123-.129-3.145s-.07-2.033-.08-3.038l.21.21-2,.011.22-.22c0,1.03-.008,2.061-.028,3.091s-.055,2.061-.087,3.092l-.105-.105Z" transform="translate(-120.508 -15.227)" fill="#132136"/><path d="M373.637,150.1c-.619.044-1.3.111-2,.141l-.134.006-.007-.147c-.056-1.157-.075-2.314-.079-3.472V146.4l.221,0c.667,0,1.333.007,2,.026l.2.006,0,.189C373.807,147.83,373.716,149.02,373.637,150.1Zm0,0c-.078-1.238-.17-2.363-.194-3.472l.194.194c-.667.019-1.333.021-2,.026l.22-.22c0,1.157-.023,2.314-.079,3.472l-.141-.141C372.269,149.985,372.923,150.052,373.637,150.1Z" transform="translate(-122.851 -18.402)" fill="#132136"/><path d="M377.979,148.412l-.975.061c-.334.019-.677.048-1.025.057l-.114,0,0-.121c-.025-.818-.066-1.636-.077-2.454s-.02-1.636-.025-2.454v-.222l.222,0c.667.006,1.333,0,2,.016l.206,0,0,.2c-.009.843-.045,1.683-.08,2.506S378.021,147.637,377.979,148.412Zm0,0c-.042-.862-.1-1.7-.124-2.506s-.071-1.61-.08-2.4l.2.2c-.667.013-1.333.011-2,.016l.22-.22c-.005.818-.006,1.636-.025,2.454s-.052,1.636-.077,2.454l-.118-.118c.319.009.642.038.975.057Z" transform="translate(-125.193 -16.718)" fill="#132136"/><path d="M373.517,144.491c-1.688.1-3.377.139-5.065.18s-3.377.044-5.065.037h-.218v-.216c.006-1.413.015-2.826.058-4.239s.077-2.826.159-4.239c.082,1.413.127,2.826.159,4.239s.052,2.826.058,4.239l-.217-.217q2.533-.011,5.065.037C370.141,144.352,371.829,144.392,373.517,144.491Zm16.959,6.808a43.049,43.049,0,0,1,4.624-.22,42.486,42.486,0,0,1,4.624.22,42.487,42.487,0,0,1-4.624.22,43.032,43.032,0,0,1-4.624-.22Zm-3.749,2a43.031,43.031,0,0,1,4.624-.22,42.483,42.483,0,0,1,4.624.22,42.483,42.483,0,0,1-4.624.22A43.043,43.043,0,0,1,386.727,153.3Zm0,2.085a43.039,43.039,0,0,1,4.624-.22,42.537,42.537,0,0,1,4.624.22,42.541,42.541,0,0,1-4.624.221A42.973,42.973,0,0,1,386.727,155.384Zm0,2.086a42.98,42.98,0,0,1,4.624-.221,42.491,42.491,0,0,1,4.624.221,42.537,42.537,0,0,1-4.624.22A43.027,43.027,0,0,1,386.727,157.47Zm3.749,1.729a42.973,42.973,0,0,1,4.624-.221,42.487,42.487,0,0,1,4.624.221,42.537,42.537,0,0,1-4.624.22,43.028,43.028,0,0,1-4.624-.22Z" transform="translate(-118.402 -12.798)" fill="#132136"/><path d="M458.839,378.084a10.012,10.012,0,0,1,2.779,3.685.092.092,0,0,1,.008.035v.009l-.031-.075.007.014.023.035a8.348,8.348,0,0,1,.657,3.917l0,.027a.05.05,0,0,0,0-.023h0v.02l-.014.471a3.763,3.763,0,0,0,.022.468v0c.017.144.034.288.062.433s.065.279.1.41l.009.038a.024.024,0,0,1,0,.018l.01.031a4.608,4.608,0,0,0,.206.537l.112.266.14.252.319.484a5.371,5.371,0,0,0,.359.448l.039.057a.157.157,0,0,0-.066-.078l.051.045a4.79,4.79,0,0,0,.479.462c.175.139.334.3.52.422s.379.244.567.366.4.209.6.315l-.127-.03h0a.271.271,0,0,1,.114.023l.013.006c.239.107.481.208.729.294l-.1-.017h.007a.269.269,0,0,1,.093.015l.015,0a5.986,5.986,0,0,0,1.835.343,3.512,3.512,0,0,0,.9-.091c.285-.08.655-.179.955-.248h0a.415.415,0,0,1,.081-.01h0l-.109.018.031-.007.044-.011.177-.036.089-.018c.03-.006.067-.015.054-.009l.046-.012c.374-.074.74-.127,1.109-.189l.035,0h.021l-.051,0c.4-.062.819-.109,1.22-.153l.613-.061.634-.053H474.2l.892-.062.906-.046h.025l.024,0,2.27.228.039,0,12.683,1.175-.043,0,.035,0,.047,0,1.465.136-.047,0h0l.046,0,2.749.249.081.007.062.007-.038-.005.407.036.2.018a1.48,1.48,0,0,1,.155.016l0,.095a.082.082,0,1,0,.093-.085c-.089-.012-.032,0-.014,0l.068,0,.136,0c.093.005.173,0,.26,0a4.293,4.293,0,0,0,.495-.039,2.2,2.2,0,0,0,.428-.109.787.787,0,0,0,.152-.077.274.274,0,0,0,.041-.032l.006-.005c-.006.012,0-.016-.031.06l.427-.305a3.383,3.383,0,0,0,.819-.143,1.654,1.654,0,0,0,.342-.146.979.979,0,0,0,.132-.09.626.626,0,0,0,.049-.044c.005,0,.036-.046.005,0l.3-.227a2.012,2.012,0,0,0,.561-.223.65.65,0,0,0,.168-.139.26.26,0,0,0,.036-.054c0-.007,0-.011.006-.013s0-.025,0,.054l.344-.491a1.9,1.9,0,0,0,.639-.337,1.507,1.507,0,0,0,.237-.25,1.188,1.188,0,0,0,.146-.251.556.556,0,0,1,.26-.3,1.391,1.391,0,0,0,.425-.295c.066-.1.064-.072.031-.18a1.233,1.233,0,0,0-.345-.382,3.355,3.355,0,0,0-.535-.344l.08.031-7.831-2.24c-2.612-.743-5.217-1.509-7.822-2.273l.025.006-.721-.175.086.011h-.026a.266.266,0,0,1-.07-.01,25.942,25.942,0,0,1-5.068-1.99,29.811,29.811,0,0,1-4.556-2.934,40.416,40.416,0,0,1-4.025-3.6,35.541,35.541,0,0,1-3.479-4.112A40.656,40.656,0,0,0,472.09,375a40.1,40.1,0,0,0,4.12,3.419,32.41,32.41,0,0,0,4.557,2.764,25.309,25.309,0,0,0,4.973,1.825l-.086-.01h.01a.319.319,0,0,1,.069.007l.017,0,.7.152.025.006c2.623.7,5.246,1.4,7.863,2.129l7.854,2.162h.006a.414.414,0,0,1,.075.029,4.247,4.247,0,0,1,.714.453,2.12,2.12,0,0,1,.621.727,1.091,1.091,0,0,1,.1.626c-.008.057-.018.115-.03.17l-.064.148-.073.144c-.028.039-.058.073-.088.109a2.278,2.278,0,0,1-.767.568l.259-.3a1.952,1.952,0,0,1-.295.553,2.465,2.465,0,0,1-.393.418,2.875,2.875,0,0,1-.976.524l.344-.491a.824.824,0,0,1-.029.242,1.1,1.1,0,0,1-.059.166,1.225,1.225,0,0,1-.166.267,1.618,1.618,0,0,1-.406.354,2.96,2.96,0,0,1-.842.347l.3-.227a1.058,1.058,0,0,1-.147.185,1.613,1.613,0,0,1-.128.117,1.989,1.989,0,0,1-.262.182,2.637,2.637,0,0,1-.534.235,4.348,4.348,0,0,1-1.061.192l.426-.305a.762.762,0,0,1-.107.177,1.009,1.009,0,0,1-.088.1,1.267,1.267,0,0,1-.175.143,1.75,1.75,0,0,1-.343.18,3.005,3.005,0,0,1-.652.17,5.277,5.277,0,0,1-.619.047c-.1,0-.206,0-.3,0l-.143-.005-.072,0a.839.839,0,0,1-.154-.015l.1.01-.852-.076-.038,0-.062-.007.081.007-.131-.008-.091-.009-.172-.017-.348-.034-.7-.067-1.4-.131.045,0h0l-.047,0-1.465-.142.047,0-.035,0-.044,0-6.342-.621-6.332-.669.039,0-1.206-.13-1.162-.142.049,0-.865.025-.878.041h-.027l-.577.037-.6.046c-.4.035-.8.07-1.192.122h-.009l-.043,0H471.8l.049,0c-.36.052-.727.1-1.078.158l.046-.012c-.074.019-.1.021-.128.027l-.094.017-.187.033.043-.011-.031.007-.062.013a.222.222,0,0,1-.047,0h0l.083-.01c-.345.073-.614.138-.967.228a4.154,4.154,0,0,1-1.069.086,6.588,6.588,0,0,1-2.032-.428l.107.02h-.015a.28.28,0,0,1-.091-.017c-.266-.1-.527-.214-.784-.337l.127.029h-.021a.233.233,0,0,1-.11-.029c-.211-.118-.425-.229-.631-.353s-.4-.259-.6-.4-.369-.314-.554-.47a5.318,5.318,0,0,1-.513-.519l.051.045a.385.385,0,0,1-.108-.12l.039.057a5.876,5.876,0,0,1-.386-.5l-.329-.538-.144-.282-.113-.3a4.981,4.981,0,0,1-.2-.6l.011.031a1.163,1.163,0,0,1-.031-.128l.009.038a4.994,4.994,0,0,1-.146-.949v0a4.12,4.12,0,0,1-.005-.507l.034-.5v.019a.4.4,0,0,1,.009-.064l0,.027a8.06,8.06,0,0,0-.5-3.8l.023.035-.007-.014-.027-.057a.041.041,0,0,1,0-.018v0l.008.04a10.189,10.189,0,0,0-1.075-2.023,9.641,9.641,0,0,0-1.507-1.743Z" transform="translate(-170.015 -139.607)" fill="#132136"/><path d="M546.035,410.807a1.336,1.336,0,0,0-.394-.448,2.262,2.262,0,0,0-.508-.282c-.36-.162-.756-.249-1.164-.394a2.26,2.26,0,0,1,.644-.032,2.164,2.164,0,0,1,.634.16,1.5,1.5,0,0,1,.548.384A.862.862,0,0,1,546.035,410.807Zm-1.345,1.169c.02-.221-.182-.329-.333-.437a4.529,4.529,0,0,0-.534-.275,11.123,11.123,0,0,1-1.126-.555,3.189,3.189,0,0,1,1.248.293,2.038,2.038,0,0,1,.552.362.929.929,0,0,1,.207.276.327.327,0,0,1-.015.336Zm-1.136.875a.578.578,0,0,0-.173-.37,1.292,1.292,0,0,0-.319-.247,3.7,3.7,0,0,0-.773-.312c-.269-.086-.547-.155-.827-.223s-.563-.135-.847-.225a4.672,4.672,0,0,1,1.761.172,2.509,2.509,0,0,1,.815.4.79.79,0,0,1,.365.8Zm-1.739.665a.418.418,0,0,0-.2-.553,2.438,2.438,0,0,0-.633-.259c-.225-.07-.459-.126-.694-.186s-.473-.12-.711-.207a3.745,3.745,0,0,1,1.49.116,1.744,1.744,0,0,1,.691.361.6.6,0,0,1,.207.364A.414.414,0,0,1,541.816,413.516Z" transform="translate(-213.571 -160.419)" fill="#132136"/><path d="M503.336,398.71l0,.031-.455,5.857a4.144,4.144,0,0,1-2.507,3.5c-2.718,1.159-7.468,2.638-12.321,1.573a14.4,14.4,0,0,1-5.326-2.375s-6.187-2.763-7.891-.274c-.489.715-.608,1.864-.1,3.642l-7.419-.8-7.239-.778a3.57,3.57,0,0,0,.569-3.527,8.392,8.392,0,0,1-.687-4.524,2.979,2.979,0,0,1,.042-.3,2.915,2.915,0,0,1,.049-.306c.017-.108.038-.212.059-.316.139-.639.319-1.357.559-2.163a15.018,15.018,0,0,0,.639-3.795c.038-1.132-.059-2.281-.549-2.663l1.333-.778v0s0,.01.007.014a6.285,6.285,0,0,1,.576,3.861.1.1,0,0,0,0,.021,5.229,5.229,0,0,0-.028.566c0,.1,0,.191.007.285q.005.063.01.125v0c.007.09.014.18.028.271s.024.181.042.271c.007.042.017.087.028.128a1.631,1.631,0,0,0,.056.226.27.27,0,0,0,.017.073q.031.12.073.24a4.628,4.628,0,0,0,.243.608c.045.094.094.184.146.274a5.085,5.085,0,0,0,.351.552c.052.073.111.149.167.219s.115.142.177.212a.057.057,0,0,0,.021.021c.066.076.135.153.212.226q.068.073.146.146a7.143,7.143,0,0,0,.552.476c.08.059.156.118.236.17.167.122.34.229.514.333s.378.212.569.305h0c.135.066.267.125.4.181q.177.073.354.135H467c.087.031.177.063.264.09a5.8,5.8,0,0,0,2.083.288,3.167,3.167,0,0,0,.684-.111c.132-.038.271-.073.413-.108.1-.028.2-.052.312-.073l.122-.028h0c.01,0,.021,0,.031-.007l.33-.062c.014,0,.024,0,.035-.007.111-.021.226-.042.337-.059.25-.042.5-.08.757-.115h.007l.222-.031c.194-.024.385-.045.576-.066l.528-.052c.222-.021.437-.038.642-.055.066,0,.132-.01.194-.014.087-.007.17-.014.25-.017h0c.2-.014.386-.024.556-.035l.194-.01c.253-.014.469-.024.635-.028.07,0,.132-.007.184-.007.128-.007.2-.007.2-.007.26.031.552.063.871.1l.184.021.823.087c.122.014.246.024.375.038a.387.387,0,0,0,.066.007c.076.007.153.017.229.024s.153.017.233.024l.194.021c.094.007.188.017.281.028.062-2.715,2.17-5.03,3.951-6.5.278-.233.549-.444.8-.628.219-.167.427-.312.615-.441.618-.427,1.034-.656,1.034-.656h.01c5.281-1.076,9.887,2.739,9.887,2.739a14.432,14.432,0,0,0-1.548,1.1,9.886,9.886,0,0,0-.83.746,7.707,7.707,0,0,0-1.878,2.809c-.035.09-.062.18-.09.267a5.144,5.144,0,0,0-.2.982,1.758,1.758,0,0,0-.017.222.24.24,0,0,0,0,.049,2.711,2.711,0,0,0,.014.448c.01,0,.024,0,.035,0,.177.017.347.031.517.049.212.021.417.042.618.059l.33.031h0l.326.031c.108.007.212.017.312.028l.351.031.448.042c.146.014.285.028.417.038s.25.024.365.035c.174.014.333.031.479.045l.1.01c.021,0,.042,0,.063,0l.739.066c.031,0,.052.007.07.007l.024,0c1.823.1,2.073-.5,2.073-.5,1.4-.09,1.739-.667,1.739-.667,1.163-.3,1.135-.875,1.135-.875a1.961,1.961,0,0,0,1.344-1.167Zm-37.408-9.873a1.607,1.607,0,0,1-1.331-.061,1.079,1.079,0,0,1-.475-.529,1.132,1.132,0,0,1-.057-.675,2.287,2.287,0,0,0,.256.569,1.171,1.171,0,0,0,.416.382A3.51,3.51,0,0,0,465.928,388.836Z" transform="translate(-170.581 -148.512)" fill="#132136"/><path d="M-7.1-3.508V-.272h2.339V-.933H-6.376V-3.508ZM-1.065-1.89a1.615,1.615,0,0,0-1.747-1.7A1.615,1.615,0,0,0-4.56-1.89a1.615,1.615,0,0,0,1.747,1.7A1.615,1.615,0,0,0-1.065-1.89Zm-.707,0A1,1,0,0,1-2.813-.845,1,1,0,0,1-3.853-1.89a1.015,1.015,0,0,1,1.04-1.049A1,1,0,0,1-1.773-1.89ZM2.217-3.106a1.576,1.576,0,0,0-1.206-.5A1.607,1.607,0,0,0-.714-1.885,1.594,1.594,0,0,0,1.006-.18a1.5,1.5,0,0,0,1.317-.6v-1.41H.927v.6H1.7v.518a1.04,1.04,0,0,1-.689.226A.969.969,0,0,1-.007-1.885.944.944,0,0,1,1.01-2.944a1.14,1.14,0,0,1,.758.287ZM6.21-1.89a1.615,1.615,0,0,0-1.747-1.7,1.615,1.615,0,0,0-1.747,1.7,1.615,1.615,0,0,0,1.747,1.7A1.615,1.615,0,0,0,6.21-1.89Zm-.707,0A1,1,0,0,1,4.463-.845,1,1,0,0,1,3.423-1.89a1.015,1.015,0,0,1,1.04-1.049A1,1,0,0,1,5.5-1.89Z" transform="translate(164.52 161.144)" fill="#132136"/></g></g></svg>