<?xml version="1.0" encoding="UTF-8"?> <!-- Generator: Adobe Illustrator 25.0.0, SVG Export Plug-In . SVG Version: 6.00 Build 0) --> <svg xmlns="http://www.w3.org/2000/svg" xmlns:xlink="http://www.w3.org/1999/xlink" version="1.1" id="Layer_1" x="0px" y="0px" viewBox="0 0 196 70.84" style="enable-background:new 0 0 196 70.84;" xml:space="preserve"> <style type="text/css"> .st0{fill:#9B9A9B;} .st1{fill:url(#SVGID_1_);} .st2{fill:url(#SVGID_2_);} .st3{fill:#AA1A17;} .st4{fill:#EB5D55;} .st5{fill:url(#SVGID_3_);} .st6{fill:url(#SVGID_4_);} .st7{fill:url(#SVGID_5_);} .st8{fill:url(#SVGID_6_);} .st9{fill:url(#SVGID_7_);} .st10{opacity:0.59;} .st11{fill:url(#SVGID_8_);} .st12{fill:#9D9D9C;} .st13{fill:url(#SVGID_9_);} .st14{opacity:0.52;fill:url(#SVGID_10_);} .st15{fill:url(#SVGID_11_);} .st16{fill:url(#SVGID_12_);} .st17{fill:url(#SVGID_13_);} .st18{fill:url(#SVGID_14_);} .st19{fill:url(#SVGID_15_);} .st20{fill:url(#SVGID_16_);} </style> <g> <g> <g> <g> <path class="st0" d="M81.88,61.52h-0.96v-7.47h0.96V61.52z"></path> <path class="st0" d="M84.98,56.24h1.68v0.73h-1.68v3.1c0,0.26,0.05,0.44,0.16,0.54c0.11,0.11,0.29,0.16,0.56,0.16h0.8l0.11,0.7 c-0.33,0.09-0.72,0.14-1.19,0.14c-0.45,0-0.79-0.12-1.01-0.37c-0.23-0.25-0.34-0.6-0.34-1.06v-3.21H83.1V56.3l0.96-0.04v-1.57 h0.92V56.24z"></path> <path class="st0" d="M87.97,53.68h0.28c0.12,0,0.21,0.03,0.26,0.07c0.05,0.05,0.07,0.14,0.07,0.26v0.65 c0,0.53-0.12,1.05-0.37,1.55l-0.44-0.11c0.07-0.4,0.11-0.8,0.11-1.22c-0.16,0-0.25-0.1-0.25-0.29v-0.59 C87.63,53.79,87.74,53.68,87.97,53.68z"></path> <path class="st0" d="M91.87,56.12c0.85,0.01,1.59,0.07,2.22,0.16l-0.07,0.67c-1.1-0.04-1.77-0.05-2.01-0.05 c-0.53-0.01-0.88,0.03-1.05,0.1c-0.17,0.07-0.25,0.26-0.25,0.58c0,0.25,0.05,0.42,0.17,0.51c0.11,0.09,0.31,0.17,0.6,0.25 l1.54,0.34c0.43,0.09,0.74,0.25,0.93,0.47c0.2,0.22,0.29,0.55,0.29,0.98c0,0.62-0.17,1.03-0.51,1.22 c-0.34,0.2-0.92,0.29-1.75,0.29c-0.74,0-1.43-0.05-2.07-0.15l0.06-0.67c0.46,0.03,1.07,0.04,1.83,0.04 c0.61-0.01,1.02-0.06,1.23-0.14s0.32-0.29,0.32-0.59c0-0.24-0.06-0.41-0.19-0.5s-0.35-0.17-0.65-0.24l-1.52-0.34 c-0.43-0.1-0.73-0.26-0.91-0.49c-0.18-0.22-0.27-0.55-0.27-0.99c0-0.59,0.15-0.98,0.46-1.18C90.58,56.19,91.11,56.1,91.87,56.12 z"></path> <path class="st0" d="M100.53,56.12c0.61,0,1.07,0.13,1.36,0.38c0.29,0.25,0.44,0.69,0.44,1.31v3.72h-0.73l-0.11-0.86 c-0.26,0.26-0.57,0.48-0.96,0.67c-0.38,0.19-0.79,0.29-1.22,0.29c-0.48,0-0.86-0.13-1.15-0.38c-0.29-0.26-0.43-0.62-0.43-1.09 v-0.58c0-0.41,0.13-0.73,0.38-0.96c0.26-0.22,0.62-0.34,1.08-0.34h2.2V57.8c0-0.33-0.08-0.57-0.23-0.7 c-0.15-0.14-0.44-0.2-0.85-0.2c-0.52,0-1.27,0.05-2.26,0.14l-0.09-0.68C98.95,56.19,99.8,56.12,100.53,56.12z M101.4,58.97 h-2.04c-0.46,0-0.68,0.24-0.68,0.73v0.34c0,0.28,0.06,0.48,0.19,0.6c0.13,0.12,0.34,0.19,0.63,0.19c0.28,0,0.6-0.07,0.95-0.2 c0.35-0.14,0.67-0.33,0.95-0.59V58.97z"></path> <path class="st0" d="M114.21,56.24l-1.54,5.02c-0.06,0.17-0.18,0.26-0.36,0.26h-0.83c-0.19,0-0.3-0.1-0.35-0.29l-0.86-3.59 c0-0.01-0.06-0.29-0.18-0.84h-0.13l-0.18,0.84l-0.85,3.59c-0.05,0.19-0.17,0.29-0.37,0.29h-0.82c-0.18,0-0.3-0.09-0.35-0.26 l-1.55-5.02h0.96l1.09,3.89c0.06,0.21,0.12,0.47,0.17,0.79h0.15l1.07-4.39c0.05-0.19,0.17-0.29,0.35-0.29h0.83 c0.18,0,0.29,0.1,0.34,0.3l0.86,3.59c0.07,0.25,0.14,0.51,0.19,0.79h0.14c0.01-0.06,0.04-0.18,0.08-0.36 c0.04-0.19,0.07-0.33,0.1-0.43l1.1-3.89H114.21z"></path> <path class="st0" d="M117.82,56.12c0.61,0,1.07,0.13,1.36,0.38c0.3,0.25,0.44,0.69,0.44,1.31v3.72h-0.73l-0.11-0.86 c-0.26,0.26-0.57,0.48-0.96,0.67c-0.38,0.19-0.79,0.29-1.22,0.29c-0.48,0-0.86-0.13-1.15-0.38c-0.29-0.26-0.43-0.62-0.43-1.09 v-0.58c0-0.41,0.13-0.73,0.38-0.96c0.26-0.22,0.62-0.34,1.08-0.34h2.2V57.8c0-0.33-0.08-0.57-0.23-0.7s-0.44-0.2-0.85-0.2 c-0.52,0-1.27,0.05-2.26,0.14l-0.09-0.68C116.23,56.19,117.08,56.12,117.82,56.12z M118.69,58.97h-2.04 c-0.46,0-0.68,0.24-0.68,0.73v0.34c0,0.28,0.06,0.48,0.19,0.6c0.13,0.12,0.34,0.19,0.63,0.19c0.28,0,0.6-0.07,0.95-0.2 c0.35-0.14,0.67-0.33,0.95-0.59V58.97z"></path> <path class="st0" d="M125.95,56.24l-2.11,5.56c-0.48,1.25-1.25,1.89-2.31,1.94l-0.1-0.61c0.77-0.23,1.28-0.7,1.55-1.4l0.09-0.22 h-0.21c-0.16,0-0.26-0.08-0.32-0.23l-1.92-5.04h0.99l1.4,3.93c0.1,0.28,0.16,0.5,0.19,0.64h0.15c0.04-0.11,0.12-0.32,0.22-0.64 l1.38-3.93H125.95z"></path> <path class="st0" d="M131.64,56.12c0.91,0,1.55,0.21,1.93,0.63s0.56,1.13,0.56,2.14c0,1.02-0.19,1.74-0.56,2.15 c-0.37,0.42-1.02,0.62-1.93,0.62c-0.9,0-1.54-0.21-1.92-0.63c-0.37-0.42-0.56-1.14-0.56-2.15c0-1,0.19-1.72,0.56-2.14 C130.1,56.33,130.74,56.12,131.64,56.12z M131.64,56.9c-0.58,0-0.97,0.14-1.19,0.42c-0.22,0.28-0.33,0.8-0.33,1.56 c0,0.76,0.11,1.29,0.33,1.57c0.22,0.28,0.61,0.43,1.19,0.43c0.58,0,0.98-0.14,1.2-0.43c0.22-0.28,0.33-0.81,0.33-1.57 c0-0.76-0.11-1.28-0.33-1.56C132.63,57.04,132.23,56.9,131.64,56.9z"></path> <path class="st0" d="M137.53,53.75c0.6,0,1.09,0.03,1.48,0.07l-0.07,0.68h-1.09c-0.34,0-0.58,0.07-0.73,0.21 c-0.14,0.14-0.21,0.37-0.21,0.69v0.84h1.69v0.73h-1.69v4.55h-0.92v-4.55h-0.96V56.3l0.96-0.04v-0.96c0-0.51,0.12-0.9,0.36-1.16 S136.98,53.75,137.53,53.75z"></path> <path class="st0" d="M143.04,53.94v6.13c0,0.47,0.24,0.7,0.72,0.7h0.51l0.11,0.7c-0.19,0.09-0.51,0.14-0.96,0.14 c-0.4,0-0.71-0.12-0.95-0.35c-0.23-0.23-0.35-0.57-0.35-0.99v-6.33H143.04z"></path> <path class="st0" d="M145.61,54h0.43c0.19,0,0.29,0.09,0.29,0.28v0.62c0,0.19-0.1,0.28-0.29,0.28h-0.43 c-0.19,0-0.29-0.09-0.29-0.28v-0.62C145.32,54.09,145.42,54,145.61,54z M146.27,61.52h-0.91v-5.28h0.91V61.52z"></path> <path class="st0" d="M149.97,53.75c0.6,0,1.09,0.03,1.48,0.07l-0.07,0.68h-1.09c-0.34,0-0.58,0.07-0.73,0.21 c-0.14,0.14-0.21,0.37-0.21,0.69v0.84h1.69v0.73h-1.69v4.55h-0.92v-4.55h-0.96V56.3l0.96-0.04v-0.96c0-0.51,0.12-0.9,0.36-1.16 S149.42,53.75,149.97,53.75z"></path> <path class="st0" d="M154.3,56.12c0.78,0,1.35,0.14,1.71,0.42c0.36,0.28,0.54,0.71,0.55,1.3c0,1-0.42,1.49-1.25,1.49h-2.47 c0.04,0.61,0.19,1.01,0.44,1.22c0.25,0.21,0.66,0.32,1.23,0.32c0.61,0,1.22-0.04,1.84-0.13l0.1,0.62 c-0.48,0.19-1.16,0.29-2.05,0.29c-0.91,0-1.56-0.21-1.94-0.64c-0.38-0.42-0.58-1.14-0.58-2.15c0-1.02,0.19-1.73,0.56-2.14 C152.81,56.32,153.43,56.12,154.3,56.12z M154.35,56.9c-0.56,0-0.94,0.12-1.16,0.36c-0.22,0.24-0.33,0.69-0.35,1.36h2.23 c0.38,0,0.58-0.26,0.58-0.78c-0.01-0.34-0.11-0.58-0.3-0.73C155.15,56.97,154.82,56.9,154.35,56.9z"></path> <path class="st0" d="M158.19,60.24h0.31c0.13,0,0.22,0.02,0.27,0.07c0.05,0.05,0.07,0.14,0.07,0.28v0.59 c0,0.13-0.03,0.22-0.07,0.27c-0.05,0.05-0.14,0.07-0.27,0.07h-0.31c-0.12,0-0.21-0.03-0.26-0.07c-0.05-0.05-0.08-0.14-0.08-0.27 v-0.59c0-0.13,0.03-0.23,0.08-0.28C157.98,60.26,158.07,60.24,158.19,60.24z"></path> <path class="st0" d="M160.67,60.24h0.31c0.13,0,0.22,0.02,0.27,0.07c0.05,0.05,0.07,0.14,0.07,0.28v0.59 c0,0.13-0.02,0.22-0.07,0.27c-0.05,0.05-0.14,0.07-0.27,0.07h-0.31c-0.12,0-0.21-0.03-0.26-0.07c-0.05-0.05-0.08-0.14-0.08-0.27 v-0.59c0-0.13,0.03-0.23,0.08-0.28C160.46,60.26,160.55,60.24,160.67,60.24z"></path> <path class="st0" d="M163.14,60.24h0.31c0.13,0,0.22,0.02,0.27,0.07c0.05,0.05,0.07,0.14,0.07,0.28v0.59 c0,0.13-0.02,0.22-0.07,0.27c-0.05,0.05-0.14,0.07-0.27,0.07h-0.31c-0.12,0-0.21-0.03-0.26-0.07c-0.05-0.05-0.08-0.14-0.08-0.27 v-0.59c0-0.13,0.03-0.23,0.08-0.28C162.94,60.26,163.02,60.24,163.14,60.24z"></path> </g> </g> </g> <g> <linearGradient id="SVGID_1_" gradientUnits="userSpaceOnUse" x1="39.8992" y1="11.5744" x2="69.7094" y2="11.5744"> <stop offset="0.1092" style="stop-color:#E86229"></stop> <stop offset="1" style="stop-color:#CF1417"></stop> </linearGradient> <path class="st1" d="M65.22,7.09H44.39c-2.47,0-4.49,2.02-4.49,4.49s2.02,4.49,4.49,4.49h20.84c2.47,0,4.49-2.02,4.49-4.49 S67.69,7.09,65.22,7.09z"></path> <linearGradient id="SVGID_2_" gradientUnits="userSpaceOnUse" x1="38.84" y1="34.1011" x2="38.2555" y2="9.8447"> <stop offset="0" style="stop-color:#FFFFFF"></stop> <stop offset="1" style="stop-color:#000000;stop-opacity:0"></stop> </linearGradient> <path class="st2" d="M47.81,18.48H29.33c-2.47,0-4.49,2.02-4.49,4.49v0c0,2.47,2.02,4.49,4.49,4.49h18.48 c2.47,0,4.49-2.02,4.49-4.49v0C52.3,20.5,50.28,18.48,47.81,18.48z"></path> <path class="st3" d="M36.13,30.63c-0.71-0.47-1.56-0.75-2.48-0.75H17.29c-2.47,0-4.49,2.02-4.49,4.49s2.02,4.49,4.49,4.49h13.82 h2.54c2.47,0,4.49-2.02,4.49-4.49C38.14,32.81,37.34,31.44,36.13,30.63z"></path> <path class="st4" d="M51.09,41.25h0.73H11.57c-2.47,0-4.49,2.02-4.49,4.49v0c0,2.47,2.02,4.49,4.49,4.49h13.43h26.09 c2.47,0,4.49-2.02,4.49-4.49v0C55.58,43.27,53.56,41.25,51.09,41.25z"></path> <linearGradient id="SVGID_3_" gradientUnits="userSpaceOnUse" x1="68.0225" y1="-16.4736" x2="63.3538" y2="69.4299"> <stop offset="0.1092" style="stop-color:#E6332A"></stop> <stop offset="1" style="stop-color:#BE1622"></stop> </linearGradient> <polygon class="st5" points="54.43,18.91 54.43,25.11 62.24,25.11 62.24,29.89 62.24,50.24 69.67,50.24 69.67,29.11 69.67,25.11 77.43,25.11 77.43,18.91 "></polygon> <linearGradient id="SVGID_4_" gradientUnits="userSpaceOnUse" x1="96.0526" y1="-14.9502" x2="91.384" y2="70.9533"> <stop offset="0.1092" style="stop-color:#E6332A"></stop> <stop offset="1" style="stop-color:#BE1622"></stop> </linearGradient> <path class="st6" d="M100.36,36.39c3.63-1.64,5.44-4.34,5.44-8.1c0-0.29-0.02-0.57-0.04-0.85c-0.13-1.59-0.62-3.06-1.48-4.4 c-1.01-1.58-2.28-2.66-3.82-3.25c-1.54-0.59-3.58-0.88-6.12-0.88H80.58v9.32v22.02h7.39V37.83h5.26l4.81,12.42h8.11L100.36,36.39z M97.45,30.79c-0.52,0.71-1.11,1.17-1.78,1.38c-0.67,0.21-1.73,0.31-3.2,0.31h-4.5v-4.67v-3.32h4.34c1.68,0,2.83,0.08,3.44,0.24 c0.61,0.16,1.18,0.59,1.7,1.27c0.34,0.45,0.56,0.95,0.68,1.49c0.06,0.28,0.1,0.56,0.1,0.85C98.23,29.26,97.97,30.08,97.45,30.79z"></path> <linearGradient id="SVGID_5_" gradientUnits="userSpaceOnUse" x1="125.5115" y1="-13.3492" x2="120.8428" y2="72.5543"> <stop offset="0.1092" style="stop-color:#E6332A"></stop> <stop offset="1" style="stop-color:#BE1622"></stop> </linearGradient> <path class="st7" d="M129.42,18.91v9.54v9.97c0,1.78-0.14,3.04-0.42,3.8c-0.28,0.76-0.86,1.37-1.72,1.83 c-0.86,0.46-1.99,0.69-3.36,0.69c-1.24,0-2.28-0.23-3.13-0.7c-0.85-0.47-1.42-1.1-1.7-1.89c-0.28-0.8-0.42-2.03-0.42-3.72V27.76 v-8.85h-7.96v8.59v10.92c0,3.15,0.44,5.55,1.33,7.18c0.89,1.64,2.22,2.9,4.01,3.79c1.78,0.89,4.18,1.33,7.2,1.33 c3.01,0,5.49-0.49,7.43-1.48c1.94-0.99,3.26-2.25,3.98-3.79c0.72-1.54,1.08-3.88,1.08-7.04v-9.38V18.91H129.42z"></path> <linearGradient id="SVGID_6_" gradientUnits="userSpaceOnUse" x1="154.1129" y1="-11.7948" x2="149.4442" y2="74.1087"> <stop offset="0.1092" style="stop-color:#E6332A"></stop> <stop offset="1" style="stop-color:#BE1622"></stop> </linearGradient> <path class="st8" d="M162.51,35.38c-0.74-1.06-1.6-1.9-2.59-2.54c-0.37-0.24-0.76-0.46-1.16-0.64c-1.48-0.66-3.82-1.31-7.01-1.95 c-1.91-0.38-3.14-0.84-3.68-1.36c-0.54-0.52-0.81-1.16-0.81-1.91c0-1.88,1.45-2.82,4.35-2.82c2.72,0,4.5,1.24,5.34,3.72l6.24-2.09 c-1.76-4.91-5.71-7.37-11.86-7.37c-3.47,0-6.22,0.96-8.24,2.87c-2.03,1.91-3.04,4.26-3.04,7.05c0,0.42,0.03,0.81,0.07,1.2 c0.22,2.17,1.04,3.86,2.48,5.08c1.7,1.43,4.54,2.56,8.53,3.39c2.14,0.44,3.58,0.92,4.33,1.42c0.75,0.5,1.12,1.22,1.12,2.13 c0,0.9-0.41,1.68-1.24,2.33s-2.08,0.98-3.76,0.98c-3.48,0-5.6-1.46-6.37-4.38l-6.79,1.54c0.72,2.88,2.21,5.05,4.46,6.51 c2.25,1.46,4.99,2.19,8.2,2.19c4.28,0,7.51-1.03,9.69-3.1c2.18-2.07,3.27-4.51,3.27-7.34C164.04,38.48,163.53,36.85,162.51,35.38z "></path> <linearGradient id="SVGID_7_" gradientUnits="userSpaceOnUse" x1="179.1808" y1="-10.4324" x2="174.5121" y2="75.4711"> <stop offset="0.1092" style="stop-color:#E6332A"></stop> <stop offset="1" style="stop-color:#BE1622"></stop> </linearGradient> <polygon class="st9" points="165.92,18.91 165.92,25.11 173.72,25.11 173.72,36.31 173.72,50.24 181.16,50.24 181.16,38.67 181.16,25.11 188.92,25.11 188.92,18.91 "></polygon> </g> <g class="st10"> <linearGradient id="SVGID_8_" gradientUnits="userSpaceOnUse" x1="54.8043" y1="29.4604" x2="54.8043" y2="17.3219"> <stop offset="0" style="stop-color:#FFFFFF"></stop> <stop offset="1" style="stop-color:#000000;stop-opacity:0"></stop> </linearGradient> <path class="st11" d="M65.22,7.09H44.39c-2.47,0-4.49,2.02-4.49,4.49s2.02,4.49,4.49,4.49h20.84c2.47,0,4.49-2.02,4.49-4.49 S67.69,7.09,65.22,7.09z"></path> <path class="st12" d="M47.81,18.48H29.33c-2.47,0-4.49,2.02-4.49,4.49v0c0,2.47,2.02,4.49,4.49,4.49h18.48 c2.47,0,4.49-2.02,4.49-4.49v0C52.3,20.5,50.28,18.48,47.81,18.48z"></path> <linearGradient id="SVGID_9_" gradientUnits="userSpaceOnUse" x1="25.4748" y1="29.4604" x2="25.4748" y2="17.3219"> <stop offset="0.1092" style="stop-color:#E6332A"></stop> <stop offset="1" style="stop-color:#BE1622"></stop> </linearGradient> <path class="st13" d="M17.29,38.85h10.56c3.13-0.7,6.26-1.3,9.4-1.82c0.56-0.75,0.89-1.67,0.89-2.67c0-1.55-0.8-2.93-2.01-3.73 c-0.71-0.47-1.56-0.75-2.48-0.75H17.29c-2.47,0-4.49,2.02-4.49,4.49C12.81,36.83,14.83,38.85,17.29,38.85z"></path> <linearGradient id="SVGID_10_" gradientUnits="userSpaceOnUse" x1="12.6186" y1="29.4604" x2="12.6186" y2="17.3219"> <stop offset="0" style="stop-color:#FFFFFF"></stop> <stop offset="1" style="stop-color:#000000;stop-opacity:0"></stop> </linearGradient> <path class="st14" d="M17.38,41.25h-5.81c-1.54,0-2.91,0.79-3.72,1.98C11.05,42.64,14.22,41.96,17.38,41.25z"></path> <linearGradient id="SVGID_11_" gradientUnits="userSpaceOnUse" x1="65.931" y1="29.4604" x2="65.931" y2="17.3219"> <stop offset="0" style="stop-color:#FFFFFF"></stop> <stop offset="1" style="stop-color:#000000;stop-opacity:0"></stop> </linearGradient> <path class="st15" d="M62.24,34.35c2.48-0.16,4.95-0.29,7.44-0.41v-8.82h7.76v-6.2h-23v6.2h7.8V34.35z"></path> <linearGradient id="SVGID_12_" gradientUnits="userSpaceOnUse" x1="93.1889" y1="29.4604" x2="93.1889" y2="17.3219"> <stop offset="0" style="stop-color:#FFFFFF"></stop> <stop offset="1" style="stop-color:#000000;stop-opacity:0"></stop> </linearGradient> <path class="st16" d="M81.09,33.45c8.02-0.3,16.01-0.89,24-1.51c0.47-1.08,0.71-2.29,0.71-3.64c0-0.29-0.02-0.57-0.04-0.85 c-0.13-1.59-0.62-3.06-1.48-4.4c-1.01-1.58-2.28-2.66-3.82-3.25c-1.54-0.59-3.58-0.88-6.12-0.88H80.58v14.56 C80.75,33.47,80.92,33.46,81.09,33.45z M87.97,24.49h4.34c1.68,0,2.83,0.08,3.44,0.24c0.61,0.16,1.18,0.59,1.7,1.27 c0.34,0.45,0.56,0.95,0.68,1.49c0.06,0.28,0.1,0.56,0.1,0.85c0,0.92-0.26,1.73-0.78,2.45c-0.52,0.71-1.11,1.17-1.78,1.38 c-0.67,0.21-1.73,0.31-3.2,0.31h-4.5V24.49z"></path> <linearGradient id="SVGID_13_" gradientUnits="userSpaceOnUse" x1="132.5658" y1="29.4604" x2="132.5658" y2="17.3219"> <stop offset="0" style="stop-color:#FFFFFF"></stop> <stop offset="1" style="stop-color:#000000;stop-opacity:0"></stop> </linearGradient> <path class="st17" d="M129.52,30.21c2.07-0.11,4.13-0.2,6.19-0.28V18.91h-6.29v11.3C129.45,30.21,129.49,30.21,129.52,30.21z"></path> <linearGradient id="SVGID_14_" gradientUnits="userSpaceOnUse" x1="114.6734" y1="29.4604" x2="114.6734" y2="17.3219"> <stop offset="0" style="stop-color:#FFFFFF"></stop> <stop offset="1" style="stop-color:#000000;stop-opacity:0"></stop> </linearGradient> <path class="st18" d="M118.66,30.9V18.91h-7.97V31.5C113.35,31.29,116,31.09,118.66,30.9z"></path> <linearGradient id="SVGID_15_" gradientUnits="userSpaceOnUse" x1="151.6176" y1="29.4604" x2="151.6176" y2="17.3219"> <stop offset="0" style="stop-color:#FFFFFF"></stop> <stop offset="1" style="stop-color:#000000;stop-opacity:0"></stop> </linearGradient> <path class="st19" d="M140.15,29.79c3.07-0.09,6.14-0.14,9.21-0.18c-0.59-0.22-1.02-0.46-1.29-0.71 c-0.54-0.52-0.81-1.16-0.81-1.91c0-1.88,1.45-2.82,4.35-2.82c2.72,0,4.5,1.24,5.34,3.72l6.24-2.09 c-1.76-4.91-5.71-7.37-11.86-7.37c-3.47,0-6.22,0.96-8.24,2.87c-2.03,1.91-3.04,4.26-3.04,7.05c0,0.42,0.03,0.81,0.07,1.2 C140.12,29.63,140.14,29.71,140.15,29.79z"></path> <linearGradient id="SVGID_16_" gradientUnits="userSpaceOnUse" x1="177.4176" y1="29.4604" x2="177.4176" y2="17.3219"> <stop offset="0" style="stop-color:#FFFFFF"></stop> <stop offset="1" style="stop-color:#000000;stop-opacity:0"></stop> </linearGradient> <path class="st20" d="M173.72,29.74c1.21,0.02,2.42,0.04,3.63,0.06c1.27,0.02,2.54,0.03,3.8,0.04v-4.73h7.76v-6.2h-23v6.2h7.8 V29.74z"></path> </g> </g> </svg> 