<?xml version="1.0" encoding="UTF-8"?> <!-- Generator: Adobe Illustrator 25.0.0, SVG Export Plug-In . SVG Version: 6.00 Build 0) --> <svg xmlns="http://www.w3.org/2000/svg" xmlns:xlink="http://www.w3.org/1999/xlink" version="1.1" id="Layer_1" x="0px" y="0px" viewBox="0 0 355.95 279.96" style="enable-background:new 0 0 355.95 279.96;" xml:space="preserve"> <style type="text/css"> .st0{fill:url(#SVGID_1_);} .st1{fill:url(#SVGID_2_);} .st2{fill:url(#SVGID_3_);} .st3{fill:url(#SVGID_4_);} .st4{fill:url(#SVGID_5_);} .st5{fill:url(#SVGID_6_);} .st6{fill:url(#SVGID_7_);} .st7{fill:url(#SVGID_8_);} .st8{fill:url(#SVGID_9_);} .st9{fill:url(#SVGID_10_);} .st10{fill:#020203;} .st11{fill:url(#SVGID_11_);} .st12{fill:url(#SVGID_12_);} .st13{fill:url(#SVGID_13_);} .st14{fill:url(#SVGID_14_);} .st15{fill:url(#SVGID_15_);} .st16{fill:url(#SVGID_16_);} .st17{fill:url(#SVGID_17_);} .st18{fill:url(#SVGID_18_);} .st19{fill:url(#SVGID_19_);} .st20{fill:url(#SVGID_20_);} .st21{fill:url(#SVGID_21_);} .st22{fill:url(#SVGID_22_);} .st23{fill:url(#SVGID_23_);} .st24{fill:url(#SVGID_24_);} .st25{fill:url(#SVGID_25_);} .st26{fill:url(#SVGID_26_);} .st27{fill:url(#SVGID_27_);} .st28{fill:url(#SVGID_28_);} .st29{fill:url(#SVGID_29_);} .st30{fill:url(#SVGID_30_);} .st31{fill:none;} .st32{fill:url(#SVGID_31_);} .st33{fill:url(#SVGID_32_);} .st34{fill:url(#SVGID_33_);} .st35{fill:url(#SVGID_34_);} .st36{fill:url(#SVGID_35_);} .st37{fill:url(#SVGID_36_);} .st38{fill:url(#SVGID_37_);} .st39{fill:url(#SVGID_38_);} .st40{fill:url(#SVGID_39_);} .st41{fill:url(#SVGID_40_);} .st42{fill:url(#SVGID_41_);} .st43{fill:url(#SVGID_42_);} .st44{fill:url(#SVGID_43_);} .st45{fill:url(#SVGID_44_);} .st46{fill:url(#SVGID_45_);} .st47{fill:url(#SVGID_46_);} </style> <g> <g> <g> <path d="M57.74,182.2c11.42,1.24,18.86,5.68,18.86,14.81c0,6.27-3.52,11.29-9.14,14.23c-4.9,2.68-12.27,4.11-20.43,4.11H22.1 v-3.39c7.5-0.72,8.48-1.24,8.48-9.46v-36.42c0-8.16-0.98-8.75-7.83-9.4v-3.4h28.52c7.44,0,12.27,0.91,15.99,3.33 c3.59,2.28,5.81,6.2,5.81,10.9c0,9.27-8.29,12.86-15.34,14.16V182.2z M45.47,180.64c9.4,0,13.71-3.59,13.71-11.36 c0-8.68-5.22-11.94-10.57-11.94c-2.15,0-3.85,0.72-4.44,1.24c-0.65,0.72-0.85,2.09-0.85,4.05v18.01H45.47z M43.31,202.24 c0,7.11,1.96,9.14,7.31,9.01c5.42-0.07,11.62-3.98,11.62-13.18c0-8.94-5.74-13.51-17.03-13.51h-1.89V202.24z"></path> <path d="M133.08,198.91c-0.78,4.18-2.87,13.77-3.59,16.45H81.65v-3.39c8.68-0.72,9.72-1.24,9.72-9.53v-36.35 c0-8.16-1.04-8.75-8.62-9.4v-3.4h29.96v3.4c-7.5,0.65-8.42,1.24-8.42,9.4v37.26c0,4.5,0.33,6.13,2.35,6.98 c1.83,0.65,4.37,0.72,7.44,0.72c4.18,0,7.77-0.65,10.05-3.2c1.83-2.02,3.59-5.03,5.55-9.99L133.08,198.91z"></path> <path d="M173.9,215.36v-3.39c5.81-0.98,6.2-2.09,4.76-6.13c-0.98-2.81-2.48-6.92-4.11-11.03h-18.93 c-1.11,3.13-2.48,6.66-3.59,10.51c-1.44,4.37-1.24,5.74,5.87,6.66v3.39h-21.86l0.13-3.39c6.66-0.78,7.7-1.96,11.03-10.18 l20.04-48.69l5.03-1.24c6.26,16.64,12.33,33.28,18.73,49.6c3.26,8.42,4.57,9.72,10.83,10.51v3.39H173.9z M165.42,169.15h-0.26 c-2.74,6.85-5.35,13.77-7.83,20.56h15.4L165.42,169.15z"></path> <path d="M265.3,198.71c-1.37,4.76-3.98,12.27-5.61,15.53c-2.55,0.52-12.01,2.61-18.67,2.61c-26.3,0-37.59-16.64-37.59-31.85 c0-19.64,15.73-33.15,39.42-33.15c8.29,0,15.79,2.09,18.34,2.68c0.85,5.22,1.7,9.59,2.28,15.92l-3.59,0.59 c-3.07-11.55-11.16-14.88-18.93-14.88c-14.81,0-22.71,12.99-22.71,26.95c0,17.62,9.98,29.11,23.82,29.11 c8.42,0,14.68-5.03,19.77-15.01L265.3,198.71z"></path> <path d="M314.6,215.36c-4.57-6.2-12.73-16.84-19.64-26.5c-2.22-3.13-3.46-3.66-4.89-3.46v17.03c0,8.29,0.85,8.81,8.48,9.53v3.39 h-29.17v-3.39c7.11-0.72,8.09-1.24,8.09-9.53v-36.22c0-8.29-0.98-8.88-8.42-9.53v-3.4h28.85v3.4c-7.05,0.65-7.83,1.24-7.83,9.53 v16.19c2.09-0.59,4.57-2.22,7.83-5.35c6.98-7.11,10.64-11.29,13.57-15.14c2.35-2.94,2.15-4.37-2.48-4.89l-1.89-0.33v-3.4h25.78 v3.4c-6,0.59-10.31,1.89-15.6,6.59c-5.81,5.22-9.99,9.66-14.55,14.23c6.4,9.4,13.77,18.86,20.75,27.21 c4.05,4.96,6.92,6.66,10.7,7.24v3.39H314.6z"></path> </g> <g> <path d="M57.74,182.2c11.42,1.24,18.86,5.68,18.86,14.81c0,6.27-3.52,11.29-9.14,14.23c-4.9,2.68-12.27,4.11-20.43,4.11H22.1 v-3.39c7.5-0.72,8.48-1.24,8.48-9.46v-36.42c0-8.16-0.98-8.75-7.83-9.4v-3.4h28.52c7.44,0,12.27,0.91,15.99,3.33 c3.59,2.28,5.81,6.2,5.81,10.9c0,9.27-8.29,12.86-15.34,14.16V182.2z M45.47,180.64c9.4,0,13.71-3.59,13.71-11.36 c0-8.68-5.22-11.94-10.57-11.94c-2.15,0-3.85,0.72-4.44,1.24c-0.65,0.72-0.85,2.09-0.85,4.05v18.01H45.47z M43.31,202.24 c0,7.11,1.96,9.14,7.31,9.01c5.42-0.07,11.62-3.98,11.62-13.18c0-8.94-5.74-13.51-17.03-13.51h-1.89V202.24z"></path> <path d="M133.08,198.91c-0.78,4.18-2.87,13.77-3.59,16.45H81.65v-3.39c8.68-0.72,9.72-1.24,9.72-9.53v-36.35 c0-8.16-1.04-8.75-8.62-9.4v-3.4h29.96v3.4c-7.5,0.65-8.42,1.24-8.42,9.4v37.26c0,4.5,0.33,6.13,2.35,6.98 c1.83,0.65,4.37,0.72,7.44,0.72c4.18,0,7.77-0.65,10.05-3.2c1.83-2.02,3.59-5.03,5.55-9.99L133.08,198.91z"></path> <path d="M173.9,215.36v-3.39c5.81-0.98,6.2-2.09,4.76-6.13c-0.98-2.81-2.48-6.92-4.11-11.03h-18.93 c-1.11,3.13-2.48,6.66-3.59,10.51c-1.44,4.37-1.24,5.74,5.87,6.66v3.39h-21.86l0.13-3.39c6.66-0.78,7.7-1.96,11.03-10.18 l20.04-48.69l5.03-1.24c6.26,16.64,12.33,33.28,18.73,49.6c3.26,8.42,4.57,9.72,10.83,10.51v3.39H173.9z M165.42,169.15h-0.26 c-2.74,6.85-5.35,13.77-7.83,20.56h15.4L165.42,169.15z"></path> <path d="M265.3,198.71c-1.37,4.76-3.98,12.27-5.61,15.53c-2.55,0.52-12.01,2.61-18.67,2.61c-26.3,0-37.59-16.64-37.59-31.85 c0-19.64,15.73-33.15,39.42-33.15c8.29,0,15.79,2.09,18.34,2.68c0.85,5.22,1.7,9.59,2.28,15.92l-3.59,0.59 c-3.07-11.55-11.16-14.88-18.93-14.88c-14.81,0-22.71,12.99-22.71,26.95c0,17.62,9.98,29.11,23.82,29.11 c8.42,0,14.68-5.03,19.77-15.01L265.3,198.71z"></path> <path d="M314.6,215.36c-4.57-6.2-12.73-16.84-19.64-26.5c-2.22-3.13-3.46-3.66-4.89-3.46v17.03c0,8.29,0.85,8.81,8.48,9.53v3.39 h-29.17v-3.39c7.11-0.72,8.09-1.24,8.09-9.53v-36.22c0-8.29-0.98-8.88-8.42-9.53v-3.4h28.85v3.4c-7.05,0.65-7.83,1.24-7.83,9.53 v16.19c2.09-0.59,4.57-2.22,7.83-5.35c6.98-7.11,10.64-11.29,13.57-15.14c2.35-2.94,2.15-4.37-2.48-4.89l-1.89-0.33v-3.4h25.78 v3.4c-6,0.59-10.31,1.89-15.6,6.59c-5.81,5.22-9.99,9.66-14.55,14.23c6.4,9.4,13.77,18.86,20.75,27.21 c4.05,4.96,6.92,6.66,10.7,7.24v3.39H314.6z"></path> </g> <g> <linearGradient id="SVGID_1_" gradientUnits="userSpaceOnUse" x1="178.1419" y1="155.9005" x2="178.1419" y2="201.743"> <stop offset="0" style="stop-color:#723E1D"></stop> <stop offset="0.2958" style="stop-color:#FFE37B"></stop> <stop offset="0.5757" style="stop-color:#FFE37B"></stop> <stop offset="0.8631" style="stop-color:#7A4721"></stop> <stop offset="1" style="stop-color:#FFEDAC"></stop> </linearGradient> <path class="st0" d="M57.74,182.2c11.42,1.24,18.86,5.68,18.86,14.81c0,6.27-3.52,11.29-9.14,14.23 c-4.9,2.68-12.27,4.11-20.43,4.11H22.1v-3.39c7.5-0.72,8.48-1.24,8.48-9.46v-36.42c0-8.16-0.98-8.75-7.83-9.4v-3.4h28.52 c7.44,0,12.27,0.91,15.99,3.33c3.59,2.28,5.81,6.2,5.81,10.9c0,9.27-8.29,12.86-15.34,14.16V182.2z M45.47,180.64 c9.4,0,13.71-3.59,13.71-11.36c0-8.68-5.22-11.94-10.57-11.94c-2.15,0-3.85,0.72-4.44,1.24c-0.65,0.72-0.85,2.09-0.85,4.05v18.01 H45.47z M43.31,202.24c0,7.11,1.96,9.14,7.31,9.01c5.42-0.07,11.62-3.98,11.62-13.18c0-8.94-5.74-13.51-17.03-13.51h-1.89V202.24 z"></path> <linearGradient id="SVGID_2_" gradientUnits="userSpaceOnUse" x1="178.1419" y1="155.9005" x2="178.1419" y2="201.743"> <stop offset="0" style="stop-color:#723E1D"></stop> <stop offset="0.2958" style="stop-color:#FFE37B"></stop> <stop offset="0.5757" style="stop-color:#FFE37B"></stop> <stop offset="0.8631" style="stop-color:#7A4721"></stop> <stop offset="1" style="stop-color:#FFEDAC"></stop> </linearGradient> <path class="st1" d="M133.08,198.91c-0.78,4.18-2.87,13.77-3.59,16.45H81.65v-3.39c8.68-0.72,9.72-1.24,9.72-9.53v-36.35 c0-8.16-1.04-8.75-8.62-9.4v-3.4h29.96v3.4c-7.5,0.65-8.42,1.24-8.42,9.4v37.26c0,4.5,0.33,6.13,2.35,6.98 c1.83,0.65,4.37,0.72,7.44,0.72c4.18,0,7.77-0.65,10.05-3.2c1.83-2.02,3.59-5.03,5.55-9.99L133.08,198.91z"></path> <linearGradient id="SVGID_3_" gradientUnits="userSpaceOnUse" x1="178.1419" y1="155.9005" x2="178.1419" y2="201.743"> <stop offset="0" style="stop-color:#723E1D"></stop> <stop offset="0.2958" style="stop-color:#FFE37B"></stop> <stop offset="0.5757" style="stop-color:#FFE37B"></stop> <stop offset="0.8631" style="stop-color:#7A4721"></stop> <stop offset="1" style="stop-color:#FFEDAC"></stop> </linearGradient> <path class="st2" d="M173.9,215.36v-3.39c5.81-0.98,6.2-2.09,4.76-6.13c-0.98-2.81-2.48-6.92-4.11-11.03h-18.93 c-1.11,3.13-2.48,6.66-3.59,10.51c-1.44,4.37-1.24,5.74,5.87,6.66v3.39h-21.86l0.13-3.39c6.66-0.78,7.7-1.96,11.03-10.18 l20.04-48.69l5.03-1.24c6.26,16.64,12.33,33.28,18.73,49.6c3.26,8.42,4.57,9.72,10.83,10.51v3.39H173.9z M165.42,169.15h-0.26 c-2.74,6.85-5.35,13.77-7.83,20.56h15.4L165.42,169.15z"></path> <linearGradient id="SVGID_4_" gradientUnits="userSpaceOnUse" x1="178.1419" y1="155.9005" x2="178.1419" y2="201.743"> <stop offset="0" style="stop-color:#723E1D"></stop> <stop offset="0.2958" style="stop-color:#FFE37B"></stop> <stop offset="0.5757" style="stop-color:#FFE37B"></stop> <stop offset="0.8631" style="stop-color:#7A4721"></stop> <stop offset="1" style="stop-color:#FFEDAC"></stop> </linearGradient> <path class="st3" d="M265.3,198.71c-1.37,4.76-3.98,12.27-5.61,15.53c-2.55,0.52-12.01,2.61-18.67,2.61 c-26.3,0-37.59-16.64-37.59-31.85c0-19.64,15.73-33.15,39.42-33.15c8.29,0,15.79,2.09,18.34,2.68c0.85,5.22,1.7,9.59,2.28,15.92 l-3.59,0.59c-3.07-11.55-11.16-14.88-18.93-14.88c-14.81,0-22.71,12.99-22.71,26.95c0,17.62,9.98,29.11,23.82,29.11 c8.42,0,14.68-5.03,19.77-15.01L265.3,198.71z"></path> <linearGradient id="SVGID_5_" gradientUnits="userSpaceOnUse" x1="178.1419" y1="155.9005" x2="178.1419" y2="201.743"> <stop offset="0" style="stop-color:#723E1D"></stop> <stop offset="0.2958" style="stop-color:#FFE37B"></stop> <stop offset="0.5757" style="stop-color:#FFE37B"></stop> <stop offset="0.8631" style="stop-color:#7A4721"></stop> <stop offset="1" style="stop-color:#FFEDAC"></stop> </linearGradient> <path class="st4" d="M314.6,215.36c-4.57-6.2-12.73-16.84-19.64-26.5c-2.22-3.13-3.46-3.66-4.89-3.46v17.03 c0,8.29,0.85,8.81,8.48,9.53v3.39h-29.17v-3.39c7.11-0.72,8.09-1.24,8.09-9.53v-36.22c0-8.29-0.98-8.88-8.42-9.53v-3.4h28.85v3.4 c-7.05,0.65-7.83,1.24-7.83,9.53v16.19c2.09-0.59,4.57-2.22,7.83-5.35c6.98-7.11,10.64-11.29,13.57-15.14 c2.35-2.94,2.15-4.37-2.48-4.89l-1.89-0.33v-3.4h25.78v3.4c-6,0.59-10.31,1.89-15.6,6.59c-5.81,5.22-9.99,9.66-14.55,14.23 c6.4,9.4,13.77,18.86,20.75,27.21c4.05,4.96,6.92,6.66,10.7,7.24v3.39H314.6z"></path> </g> <g> <linearGradient id="SVGID_6_" gradientUnits="userSpaceOnUse" x1="178.9956" y1="157.6512" x2="178.9956" y2="200.6729"> <stop offset="0" style="stop-color:#FFEDAC"></stop> <stop offset="0.516" style="stop-color:#C8A54E"></stop> <stop offset="0.749" style="stop-color:#FFE37B"></stop> <stop offset="1" style="stop-color:#C8A54E"></stop> </linearGradient> <path class="st5" d="M26.63,213.36c4.72-1.01,5.96-3.28,5.96-10.86v-36.42c0-7.2-0.94-9.69-5.63-10.79h24.32 c7.2,0,11.65,0.9,14.9,3.01c3.12,1.98,4.9,5.34,4.9,9.22c0,7.98-7.45,11.04-13.7,12.2l-0.93,0.17c3.14-2.21,4.73-5.75,4.73-10.61 c0-6.43-3.29-13.94-12.57-13.94c-2.63,0-4.79,0.88-5.77,1.75l-0.08,0.07l-0.07,0.08c-1.2,1.32-1.37,3.37-1.37,5.39v39.61 c0,5.72,1.07,11.01,8.84,11.01c0.17,0,0.68-0.01,0.76-0.01c-1.27,0.08-2.57,0.12-3.89,0.12H26.63z M52.01,213.16 c6.11-0.67,12.23-5.48,12.23-15.1c0-6.78-3.03-14.8-17.11-15.47c3.53-0.18,6.41-0.93,8.61-2.25V184l1.78,0.19 c4.22,0.46,17.08,1.85,17.08,12.83c0,5.31-2.86,9.74-8.06,12.46C62.98,211.41,57.85,212.7,52.01,213.16z"></path> <linearGradient id="SVGID_7_" gradientUnits="userSpaceOnUse" x1="178.9956" y1="157.6512" x2="178.9956" y2="200.6729"> <stop offset="0" style="stop-color:#FFEDAC"></stop> <stop offset="0.516" style="stop-color:#C8A54E"></stop> <stop offset="0.749" style="stop-color:#FFE37B"></stop> <stop offset="1" style="stop-color:#C8A54E"></stop> </linearGradient> <path class="st6" d="M86.52,213.36c6.13-1.2,6.85-3.86,6.85-10.92v-36.35c0-7.45-1.31-9.79-5.94-10.79h20.79 c-4.93,1.1-5.93,3.6-5.93,10.79v37.26c0,4.43,0.25,7.43,3.57,8.83l0.1,0.04c2.16,0.77,4.95,0.83,8.11,0.83 c3.76,0,8.47-0.44,11.54-3.86c1.8-1.99,3.43-4.74,5.08-8.54c-0.79,3.93-2.04,9.63-2.77,12.71H86.52z"></path> <linearGradient id="SVGID_8_" gradientUnits="userSpaceOnUse" x1="178.9956" y1="157.6512" x2="178.9956" y2="200.6729"> <stop offset="0" style="stop-color:#FFEDAC"></stop> <stop offset="0.516" style="stop-color:#C8A54E"></stop> <stop offset="0.749" style="stop-color:#FFE37B"></stop> <stop offset="1" style="stop-color:#C8A54E"></stop> </linearGradient> <path class="st7" d="M176.99,213.36c1.84-0.5,3.1-1.21,3.82-2.44c1.02-1.74,0.43-3.8-0.26-5.76c-0.58-1.66-2.15-6.09-4.14-11.1 l-0.5-1.26h-21.7l-0.47,1.33c-0.26,0.75-0.54,1.51-0.83,2.3c-0.91,2.5-1.94,5.33-2.8,8.32c-0.74,2.24-1.27,4.3-0.14,6.1 c0.81,1.28,2.25,2.01,4.28,2.5H139.9c4.79-1.18,6.29-3.73,9.16-10.82l19.65-47.74l2.31-0.57c1.69,4.49,3.36,8.98,5.03,13.46 c4.24,11.37,8.62,23.12,13.08,34.5c2.77,7.15,4.38,9.91,9.2,11.17H176.99z M163.3,168.41c-2.5,6.24-5.06,12.98-7.85,20.61 l-0.98,2.69h21.1l-8.73-24.56h-3.03L163.3,168.41z"></path> <linearGradient id="SVGID_9_" gradientUnits="userSpaceOnUse" x1="178.9956" y1="157.6512" x2="178.9956" y2="200.6729"> <stop offset="0" style="stop-color:#FFEDAC"></stop> <stop offset="0.516" style="stop-color:#C8A54E"></stop> <stop offset="0.749" style="stop-color:#FFE37B"></stop> <stop offset="1" style="stop-color:#C8A54E"></stop> </linearGradient> <path class="st8" d="M241.02,214.86c-24.59,0-35.59-14.99-35.59-29.85c0-18.63,15.04-31.15,37.42-31.15 c6.94,0,13.35,1.52,16.58,2.31c0.09,0.57,0.19,1.13,0.28,1.68c0.59,3.49,1.14,6.81,1.58,10.93 c-3.13-9.45-10.29-14.62-20.34-14.62c-11.9,0-24.71,9.06-24.71,28.95c0,18.32,10.62,31.11,25.82,31.11 c8.51,0,15.29-4.73,20.67-14.44l0.14,0.06c-1.29,4.2-3.21,9.63-4.57,12.65C254.93,213.2,246.8,214.86,241.02,214.86z"></path> <linearGradient id="SVGID_10_" gradientUnits="userSpaceOnUse" x1="178.9956" y1="157.6512" x2="178.9956" y2="200.6729"> <stop offset="0" style="stop-color:#FFEDAC"></stop> <stop offset="0.516" style="stop-color:#C8A54E"></stop> <stop offset="0.749" style="stop-color:#FFE37B"></stop> <stop offset="1" style="stop-color:#C8A54E"></stop> </linearGradient> <path class="st9" d="M315.61,213.36c-1.44-1.95-3.18-4.26-5.09-6.8c-4.18-5.56-9.37-12.48-13.94-18.86 c-1.37-1.94-2.68-3.39-4.28-4.01c2.05-0.96,4.32-2.64,6.97-5.2c0.34-0.35,0.67-0.69,1-1.02l0.79,1.16 c5.75,8.45,12.97,17.92,20.87,27.37c3.34,4.09,6.09,6.29,9.42,7.36H315.61z M273.65,213.36c4.54-1.03,5.82-3.34,5.82-10.92 v-36.22c0-7.29-1-9.82-5.95-10.92h20.09c-4.66,1.09-5.54,3.57-5.54,10.92v36.22c0,7.36,0.95,9.82,6.05,10.92H273.65z M307.09,170.25c2.37-2.63,4.27-4.91,5.97-7.13c1.24-1.55,2.43-3.42,1.64-5.32c-0.61-1.49-2.11-2.16-3.77-2.51h17.55 c-4.33,0.86-8.13,2.58-12.54,6.49C312.58,164.81,309.74,167.59,307.09,170.25z"></path> </g> </g> <g> <g> <path d="M39.16,259.27v-1.17c2.62-0.36,2.99-0.73,2.43-2.38c-0.59-1.62-1.35-3.66-2.26-6.01h-9.06 c-0.71,1.87-1.27,3.47-1.81,5.09c-0.9,2.49-0.56,2.96,2.62,3.3v1.17h-9.32v-1.17c2.74-0.42,3.33-0.7,4.83-4.33l8.86-21.34 l1.47-0.36c2.71,7.24,5.42,14.52,8.21,21.7c1.36,3.61,1.95,4.06,4.69,4.33v1.17H39.16z M35.01,237.68h-0.08 c-1.35,3.38-2.68,6.88-3.95,10.18h7.74L35.01,237.68z"></path> <path d="M94.9,252.25c-0.56,1.96-1.72,5.17-2.46,6.49c-1.24,0.28-4.97,1.17-8.1,1.17c-10.9,0-15.75-7.13-15.75-13.59 c0-8.61,7.03-14.26,16.82-14.26c3.61,0,6.66,0.98,7.85,1.17c0.34,2.32,0.65,4.08,0.9,6.4l-1.27,0.28 c-1.16-4.53-3.98-6.32-8.58-6.32c-7.2,0-11.04,5.76-11.04,11.86c0,7.72,4.77,12.87,11.4,12.87c4.38,0,6.78-2.32,9-6.54 L94.9,252.25z"></path> <path d="M131.39,259.27v-1.17c2.62-0.36,2.99-0.73,2.43-2.38c-0.59-1.62-1.36-3.66-2.26-6.01h-9.06 c-0.71,1.87-1.27,3.47-1.81,5.09c-0.9,2.49-0.56,2.96,2.62,3.3v1.17H114v-1.17c2.74-0.42,3.33-0.7,4.83-4.33l8.86-21.34 l1.47-0.36c2.71,7.24,5.42,14.52,8.21,21.7c1.35,3.61,1.95,4.06,4.69,4.33v1.17H131.39z M127.24,237.68h-0.08 c-1.36,3.38-2.68,6.88-3.95,10.18h7.73L127.24,237.68z"></path> <path d="M174.45,232.67c5.39,0,9.51,1.09,12.14,3.5c2.09,1.99,3.61,4.98,3.61,8.81c0,4.84-2,8.5-5.31,10.91 c-3.25,2.32-7.57,3.38-12.79,3.38h-10.5v-1.17c3.61-0.25,3.98-0.5,3.98-4v-16.22c0-3.52-0.37-3.69-3.61-3.94v-1.26H174.45z M169.54,253.73c0,3.24,1.44,4,4.54,4c7.88,0,11.66-5.68,11.66-12.11c0-4.22-1.67-7.69-4.77-9.62c-1.95-1.29-4.49-1.9-7.51-1.9 c-1.89,0-2.94,0.28-3.39,0.56c-0.39,0.28-0.54,0.78-0.54,2.38V253.73z"></path> <path d="M232.51,252.64c-0.28,1.54-1.1,5.31-1.47,6.63h-20.72v-1.17c3.81-0.28,4.18-0.67,4.18-4.03v-16.03 c0-3.75-0.37-3.86-3.64-4.14v-1.23h19.14c0.06,1.06,0.23,3.78,0.39,6.07l-1.3,0.17c-0.4-1.71-0.85-2.66-1.38-3.55 c-0.62-0.89-1.78-1.17-4.69-1.17h-3.13c-1.38,0-1.47,0.11-1.47,1.34v9.17h3.87c3.78,0,4.07-0.33,4.6-3.1h1.27v8.03h-1.27 c-0.59-2.99-0.9-3.22-4.6-3.22h-3.87v7.52c0,1.93,0.23,2.85,1.02,3.36c0.82,0.47,2.4,0.47,4.32,0.47c3.08,0,4.35-0.28,5.31-1.34 c0.73-0.87,1.52-2.29,2.15-3.94L232.51,252.64z"></path> <path d="M276.08,259.27v-1.17c3.42-0.34,3.58-0.62,3.53-4.92l-0.14-16.42h-0.17l-10.33,22.26h-0.85l-9.51-21.7h-0.11l-0.62,11.5 c-0.17,3.38-0.17,5.12-0.08,6.74c0.08,1.93,1.07,2.21,3.87,2.49v1.23h-9.91v-1.23c2.43-0.22,3.25-0.81,3.59-2.43 c0.23-1.43,0.48-3.19,0.82-7.58l0.62-8.22c0.37-5.31,0.11-5.54-3.67-5.9v-1.23h7.2l9.57,20.11l9.71-20.11h7.4v1.23 c-3.7,0.31-3.95,0.45-3.81,4.5l0.4,14.77c0.14,4.31,0.25,4.59,3.92,4.92v1.17H276.08z"></path> <path d="M332.78,233.9c-2.94,0.31-3.5,0.84-5.14,3.33c-1.89,2.8-3.25,5.01-5.31,8.73c-0.62,1.09-0.73,1.57-0.73,2.69v5.37 c0,3.5,0.31,3.83,4.26,4.08v1.17h-12.28v-1.17c3.73-0.25,4.09-0.53,4.09-4.08v-5.2c0-0.87-0.2-1.23-0.9-2.49 c-1.35-2.32-2.91-5.01-5.31-8.92c-1.67-2.77-2.2-3.27-4.71-3.5v-1.23h10.47v1.23c-3.05,0.39-2.88,0.92-2.15,2.27 c1.75,3.13,3.84,6.49,5.65,9.57c1.52-2.63,3.87-6.74,5.03-9.2c0.9-1.9,0.76-2.32-2.51-2.63v-1.23h9.54V233.9z"></path> </g> <g> <path class="st10" d="M39.16,259.27v-1.17c2.62-0.36,2.99-0.73,2.43-2.38c-0.59-1.62-1.35-3.66-2.26-6.01h-9.06 c-0.71,1.87-1.27,3.47-1.81,5.09c-0.9,2.49-0.56,2.96,2.62,3.3v1.17h-9.32v-1.17c2.74-0.42,3.33-0.7,4.83-4.33l8.86-21.34 l1.47-0.36c2.71,7.24,5.42,14.52,8.21,21.7c1.36,3.61,1.95,4.06,4.69,4.33v1.17H39.16z M35.01,237.68h-0.08 c-1.35,3.38-2.68,6.88-3.95,10.18h7.74L35.01,237.68z"></path> <path class="st10" d="M94.9,252.25c-0.56,1.96-1.72,5.17-2.46,6.49c-1.24,0.28-4.97,1.17-8.1,1.17 c-10.9,0-15.75-7.13-15.75-13.59c0-8.61,7.03-14.26,16.82-14.26c3.61,0,6.66,0.98,7.85,1.17c0.34,2.32,0.65,4.08,0.9,6.4 l-1.27,0.28c-1.16-4.53-3.98-6.32-8.58-6.32c-7.2,0-11.04,5.76-11.04,11.86c0,7.72,4.77,12.87,11.4,12.87 c4.38,0,6.78-2.32,9-6.54L94.9,252.25z"></path> <path class="st10" d="M131.39,259.27v-1.17c2.62-0.36,2.99-0.73,2.43-2.38c-0.59-1.62-1.36-3.66-2.26-6.01h-9.06 c-0.71,1.87-1.27,3.47-1.81,5.09c-0.9,2.49-0.56,2.96,2.62,3.3v1.17H114v-1.17c2.74-0.42,3.33-0.7,4.83-4.33l8.86-21.34 l1.47-0.36c2.71,7.24,5.42,14.52,8.21,21.7c1.35,3.61,1.95,4.06,4.69,4.33v1.17H131.39z M127.24,237.68h-0.08 c-1.36,3.38-2.68,6.88-3.95,10.18h7.73L127.24,237.68z"></path> <path class="st10" d="M174.45,232.67c5.39,0,9.51,1.09,12.14,3.5c2.09,1.99,3.61,4.98,3.61,8.81c0,4.84-2,8.5-5.31,10.91 c-3.25,2.32-7.57,3.38-12.79,3.38h-10.5v-1.17c3.61-0.25,3.98-0.5,3.98-4v-16.22c0-3.52-0.37-3.69-3.61-3.94v-1.26H174.45z M169.54,253.73c0,3.24,1.44,4,4.54,4c7.88,0,11.66-5.68,11.66-12.11c0-4.22-1.67-7.69-4.77-9.62c-1.95-1.29-4.49-1.9-7.51-1.9 c-1.89,0-2.94,0.28-3.39,0.56c-0.39,0.28-0.54,0.78-0.54,2.38V253.73z"></path> <path class="st10" d="M232.51,252.64c-0.28,1.54-1.1,5.31-1.47,6.63h-20.72v-1.17c3.81-0.28,4.18-0.67,4.18-4.03v-16.03 c0-3.75-0.37-3.86-3.64-4.14v-1.23h19.14c0.06,1.06,0.23,3.78,0.39,6.07l-1.3,0.17c-0.4-1.71-0.85-2.66-1.38-3.55 c-0.62-0.89-1.78-1.17-4.69-1.17h-3.13c-1.38,0-1.47,0.11-1.47,1.34v9.17h3.87c3.78,0,4.07-0.33,4.6-3.1h1.27v8.03h-1.27 c-0.59-2.99-0.9-3.22-4.6-3.22h-3.87v7.52c0,1.93,0.23,2.85,1.02,3.36c0.82,0.47,2.4,0.47,4.32,0.47c3.08,0,4.35-0.28,5.31-1.34 c0.73-0.87,1.52-2.29,2.15-3.94L232.51,252.64z"></path> <path class="st10" d="M276.08,259.27v-1.17c3.42-0.34,3.58-0.62,3.53-4.92l-0.14-16.42h-0.17l-10.33,22.26h-0.85l-9.51-21.7 h-0.11l-0.62,11.5c-0.17,3.38-0.17,5.12-0.08,6.74c0.08,1.93,1.07,2.21,3.87,2.49v1.23h-9.91v-1.23 c2.43-0.22,3.25-0.81,3.59-2.43c0.23-1.43,0.48-3.19,0.82-7.58l0.62-8.22c0.37-5.31,0.11-5.54-3.67-5.9v-1.23h7.2l9.57,20.11 l9.71-20.11h7.4v1.23c-3.7,0.31-3.95,0.45-3.81,4.5l0.4,14.77c0.14,4.31,0.25,4.59,3.92,4.92v1.17H276.08z"></path> <path class="st10" d="M332.78,233.9c-2.94,0.31-3.5,0.84-5.14,3.33c-1.89,2.8-3.25,5.01-5.31,8.73 c-0.62,1.09-0.73,1.57-0.73,2.69v5.37c0,3.5,0.31,3.83,4.26,4.08v1.17h-12.28v-1.17c3.73-0.25,4.09-0.53,4.09-4.08v-5.2 c0-0.87-0.2-1.23-0.9-2.49c-1.35-2.32-2.91-5.01-5.31-8.92c-1.67-2.77-2.2-3.27-4.71-3.5v-1.23h10.47v1.23 c-3.05,0.39-2.88,0.92-2.15,2.27c1.75,3.13,3.84,6.49,5.65,9.57c1.52-2.63,3.87-6.74,5.03-9.2c0.9-1.9,0.76-2.32-2.51-2.63v-1.23 h9.54V233.9z"></path> </g> <g> <linearGradient id="SVGID_11_" gradientUnits="userSpaceOnUse" x1="177.2747" y1="259.9139" x2="177.2747" y2="232.0564"> <stop offset="0" style="stop-color:#723E1D"></stop> <stop offset="0.0252" style="stop-color:#885528"></stop> <stop offset="0.062" style="stop-color:#A3753A"></stop> <stop offset="0.1027" style="stop-color:#BD944C"></stop> <stop offset="0.1474" style="stop-color:#D4AF5C"></stop> <stop offset="0.1977" style="stop-color:#E7C669"></stop> <stop offset="0.2569" style="stop-color:#F5D773"></stop> <stop offset="0.3334" style="stop-color:#FDE079"></stop> <stop offset="0.4896" style="stop-color:#FFE37B"></stop> <stop offset="0.7019" style="stop-color:#FDE179"></stop> <stop offset="0.7783" style="stop-color:#F6D874"></stop> <stop offset="0.8328" style="stop-color:#E9C96B"></stop> <stop offset="0.8769" style="stop-color:#D8B45F"></stop> <stop offset="0.9147" style="stop-color:#C39B50"></stop> <stop offset="0.9481" style="stop-color:#AA7E3F"></stop> <stop offset="0.9776" style="stop-color:#91602E"></stop> <stop offset="1" style="stop-color:#7A4721"></stop> </linearGradient> <path class="st11" d="M39.16,259.27v-1.17c2.62-0.36,2.99-0.73,2.43-2.38c-0.59-1.62-1.35-3.66-2.26-6.01h-9.06 c-0.71,1.87-1.27,3.47-1.81,5.09c-0.9,2.49-0.56,2.96,2.62,3.3v1.17h-9.32v-1.17c2.74-0.42,3.33-0.7,4.83-4.33l8.86-21.34 l1.47-0.36c2.71,7.24,5.42,14.52,8.21,21.7c1.36,3.61,1.95,4.06,4.69,4.33v1.17H39.16z M35.01,237.68h-0.08 c-1.35,3.38-2.68,6.88-3.95,10.18h7.74L35.01,237.68z"></path> <linearGradient id="SVGID_12_" gradientUnits="userSpaceOnUse" x1="177.2747" y1="259.9139" x2="177.2747" y2="232.0564"> <stop offset="0" style="stop-color:#723E1D"></stop> <stop offset="0.0252" style="stop-color:#885528"></stop> <stop offset="0.062" style="stop-color:#A3753A"></stop> <stop offset="0.1027" style="stop-color:#BD944C"></stop> <stop offset="0.1474" style="stop-color:#D4AF5C"></stop> <stop offset="0.1977" style="stop-color:#E7C669"></stop> <stop offset="0.2569" style="stop-color:#F5D773"></stop> <stop offset="0.3334" style="stop-color:#FDE079"></stop> <stop offset="0.4896" style="stop-color:#FFE37B"></stop> <stop offset="0.7019" style="stop-color:#FDE179"></stop> <stop offset="0.7783" style="stop-color:#F6D874"></stop> <stop offset="0.8328" style="stop-color:#E9C96B"></stop> <stop offset="0.8769" style="stop-color:#D8B45F"></stop> <stop offset="0.9147" style="stop-color:#C39B50"></stop> <stop offset="0.9481" style="stop-color:#AA7E3F"></stop> <stop offset="0.9776" style="stop-color:#91602E"></stop> <stop offset="1" style="stop-color:#7A4721"></stop> </linearGradient> <path class="st12" d="M94.9,252.25c-0.56,1.96-1.72,5.17-2.46,6.49c-1.24,0.28-4.97,1.17-8.1,1.17 c-10.9,0-15.75-7.13-15.75-13.59c0-8.61,7.03-14.26,16.82-14.26c3.61,0,6.66,0.98,7.85,1.17c0.34,2.32,0.65,4.08,0.9,6.4 l-1.27,0.28c-1.16-4.53-3.98-6.32-8.58-6.32c-7.2,0-11.04,5.76-11.04,11.86c0,7.72,4.77,12.87,11.4,12.87 c4.38,0,6.78-2.32,9-6.54L94.9,252.25z"></path> <linearGradient id="SVGID_13_" gradientUnits="userSpaceOnUse" x1="177.2747" y1="259.9139" x2="177.2747" y2="232.0564"> <stop offset="0" style="stop-color:#723E1D"></stop> <stop offset="0.0252" style="stop-color:#885528"></stop> <stop offset="0.062" style="stop-color:#A3753A"></stop> <stop offset="0.1027" style="stop-color:#BD944C"></stop> <stop offset="0.1474" style="stop-color:#D4AF5C"></stop> <stop offset="0.1977" style="stop-color:#E7C669"></stop> <stop offset="0.2569" style="stop-color:#F5D773"></stop> <stop offset="0.3334" style="stop-color:#FDE079"></stop> <stop offset="0.4896" style="stop-color:#FFE37B"></stop> <stop offset="0.7019" style="stop-color:#FDE179"></stop> <stop offset="0.7783" style="stop-color:#F6D874"></stop> <stop offset="0.8328" style="stop-color:#E9C96B"></stop> <stop offset="0.8769" style="stop-color:#D8B45F"></stop> <stop offset="0.9147" style="stop-color:#C39B50"></stop> <stop offset="0.9481" style="stop-color:#AA7E3F"></stop> <stop offset="0.9776" style="stop-color:#91602E"></stop> <stop offset="1" style="stop-color:#7A4721"></stop> </linearGradient> <path class="st13" d="M131.39,259.27v-1.17c2.62-0.36,2.99-0.73,2.43-2.38c-0.59-1.62-1.36-3.66-2.26-6.01h-9.06 c-0.71,1.87-1.27,3.47-1.81,5.09c-0.9,2.49-0.56,2.96,2.62,3.3v1.17H114v-1.17c2.74-0.42,3.33-0.7,4.83-4.33l8.86-21.34 l1.47-0.36c2.71,7.24,5.42,14.52,8.21,21.7c1.35,3.61,1.95,4.06,4.69,4.33v1.17H131.39z M127.24,237.68h-0.08 c-1.36,3.38-2.68,6.88-3.95,10.18h7.73L127.24,237.68z"></path> <linearGradient id="SVGID_14_" gradientUnits="userSpaceOnUse" x1="177.2747" y1="259.9139" x2="177.2747" y2="232.0564"> <stop offset="0" style="stop-color:#723E1D"></stop> <stop offset="0.0252" style="stop-color:#885528"></stop> <stop offset="0.062" style="stop-color:#A3753A"></stop> <stop offset="0.1027" style="stop-color:#BD944C"></stop> <stop offset="0.1474" style="stop-color:#D4AF5C"></stop> <stop offset="0.1977" style="stop-color:#E7C669"></stop> <stop offset="0.2569" style="stop-color:#F5D773"></stop> <stop offset="0.3334" style="stop-color:#FDE079"></stop> <stop offset="0.4896" style="stop-color:#FFE37B"></stop> <stop offset="0.7019" style="stop-color:#FDE179"></stop> <stop offset="0.7783" style="stop-color:#F6D874"></stop> <stop offset="0.8328" style="stop-color:#E9C96B"></stop> <stop offset="0.8769" style="stop-color:#D8B45F"></stop> <stop offset="0.9147" style="stop-color:#C39B50"></stop> <stop offset="0.9481" style="stop-color:#AA7E3F"></stop> <stop offset="0.9776" style="stop-color:#91602E"></stop> <stop offset="1" style="stop-color:#7A4721"></stop> </linearGradient> <path class="st14" d="M174.45,232.67c5.39,0,9.51,1.09,12.14,3.5c2.09,1.99,3.61,4.98,3.61,8.81c0,4.84-2,8.5-5.31,10.91 c-3.25,2.32-7.57,3.38-12.79,3.38h-10.5v-1.17c3.61-0.25,3.98-0.5,3.98-4v-16.22c0-3.52-0.37-3.69-3.61-3.94v-1.26H174.45z M169.54,253.73c0,3.24,1.44,4,4.54,4c7.88,0,11.66-5.68,11.66-12.11c0-4.22-1.67-7.69-4.77-9.62c-1.95-1.29-4.49-1.9-7.51-1.9 c-1.89,0-2.94,0.28-3.39,0.56c-0.39,0.28-0.54,0.78-0.54,2.38V253.73z"></path> <linearGradient id="SVGID_15_" gradientUnits="userSpaceOnUse" x1="177.2747" y1="259.9139" x2="177.2747" y2="232.0564"> <stop offset="0" style="stop-color:#723E1D"></stop> <stop offset="0.0252" style="stop-color:#885528"></stop> <stop offset="0.062" style="stop-color:#A3753A"></stop> <stop offset="0.1027" style="stop-color:#BD944C"></stop> <stop offset="0.1474" style="stop-color:#D4AF5C"></stop> <stop offset="0.1977" style="stop-color:#E7C669"></stop> <stop offset="0.2569" style="stop-color:#F5D773"></stop> <stop offset="0.3334" style="stop-color:#FDE079"></stop> <stop offset="0.4896" style="stop-color:#FFE37B"></stop> <stop offset="0.7019" style="stop-color:#FDE179"></stop> <stop offset="0.7783" style="stop-color:#F6D874"></stop> <stop offset="0.8328" style="stop-color:#E9C96B"></stop> <stop offset="0.8769" style="stop-color:#D8B45F"></stop> <stop offset="0.9147" style="stop-color:#C39B50"></stop> <stop offset="0.9481" style="stop-color:#AA7E3F"></stop> <stop offset="0.9776" style="stop-color:#91602E"></stop> <stop offset="1" style="stop-color:#7A4721"></stop> </linearGradient> <path class="st15" d="M232.51,252.64c-0.28,1.54-1.1,5.31-1.47,6.63h-20.72v-1.17c3.81-0.28,4.18-0.67,4.18-4.03v-16.03 c0-3.75-0.37-3.86-3.64-4.14v-1.23h19.14c0.06,1.06,0.23,3.78,0.39,6.07l-1.3,0.17c-0.4-1.71-0.85-2.66-1.38-3.55 c-0.62-0.89-1.78-1.17-4.69-1.17h-3.13c-1.38,0-1.47,0.11-1.47,1.34v9.17h3.87c3.78,0,4.07-0.33,4.6-3.1h1.27v8.03h-1.27 c-0.59-2.99-0.9-3.22-4.6-3.22h-3.87v7.52c0,1.93,0.23,2.85,1.02,3.36c0.82,0.47,2.4,0.47,4.32,0.47c3.08,0,4.35-0.28,5.31-1.34 c0.73-0.87,1.52-2.29,2.15-3.94L232.51,252.64z"></path> <linearGradient id="SVGID_16_" gradientUnits="userSpaceOnUse" x1="177.2747" y1="259.9139" x2="177.2747" y2="232.0564"> <stop offset="0" style="stop-color:#723E1D"></stop> <stop offset="0.0252" style="stop-color:#885528"></stop> <stop offset="0.062" style="stop-color:#A3753A"></stop> <stop offset="0.1027" style="stop-color:#BD944C"></stop> <stop offset="0.1474" style="stop-color:#D4AF5C"></stop> <stop offset="0.1977" style="stop-color:#E7C669"></stop> <stop offset="0.2569" style="stop-color:#F5D773"></stop> <stop offset="0.3334" style="stop-color:#FDE079"></stop> <stop offset="0.4896" style="stop-color:#FFE37B"></stop> <stop offset="0.7019" style="stop-color:#FDE179"></stop> <stop offset="0.7783" style="stop-color:#F6D874"></stop> <stop offset="0.8328" style="stop-color:#E9C96B"></stop> <stop offset="0.8769" style="stop-color:#D8B45F"></stop> <stop offset="0.9147" style="stop-color:#C39B50"></stop> <stop offset="0.9481" style="stop-color:#AA7E3F"></stop> <stop offset="0.9776" style="stop-color:#91602E"></stop> <stop offset="1" style="stop-color:#7A4721"></stop> </linearGradient> <path class="st16" d="M276.08,259.27v-1.17c3.42-0.34,3.58-0.62,3.53-4.92l-0.14-16.42h-0.17l-10.33,22.26h-0.85l-9.51-21.7 h-0.11l-0.62,11.5c-0.17,3.38-0.17,5.12-0.08,6.74c0.08,1.93,1.07,2.21,3.87,2.49v1.23h-9.91v-1.23 c2.43-0.22,3.25-0.81,3.59-2.43c0.23-1.43,0.48-3.19,0.82-7.58l0.62-8.22c0.37-5.31,0.11-5.54-3.67-5.9v-1.23h7.2l9.57,20.11 l9.71-20.11h7.4v1.23c-3.7,0.31-3.95,0.45-3.81,4.5l0.4,14.77c0.14,4.31,0.25,4.59,3.92,4.92v1.17H276.08z"></path> <linearGradient id="SVGID_17_" gradientUnits="userSpaceOnUse" x1="177.2747" y1="259.9139" x2="177.2747" y2="232.0564"> <stop offset="0" style="stop-color:#723E1D"></stop> <stop offset="0.0252" style="stop-color:#885528"></stop> <stop offset="0.062" style="stop-color:#A3753A"></stop> <stop offset="0.1027" style="stop-color:#BD944C"></stop> <stop offset="0.1474" style="stop-color:#D4AF5C"></stop> <stop offset="0.1977" style="stop-color:#E7C669"></stop> <stop offset="0.2569" style="stop-color:#F5D773"></stop> <stop offset="0.3334" style="stop-color:#FDE079"></stop> <stop offset="0.4896" style="stop-color:#FFE37B"></stop> <stop offset="0.7019" style="stop-color:#FDE179"></stop> <stop offset="0.7783" style="stop-color:#F6D874"></stop> <stop offset="0.8328" style="stop-color:#E9C96B"></stop> <stop offset="0.8769" style="stop-color:#D8B45F"></stop> <stop offset="0.9147" style="stop-color:#C39B50"></stop> <stop offset="0.9481" style="stop-color:#AA7E3F"></stop> <stop offset="0.9776" style="stop-color:#91602E"></stop> <stop offset="1" style="stop-color:#7A4721"></stop> </linearGradient> <path class="st17" d="M332.78,233.9c-2.94,0.31-3.5,0.84-5.14,3.33c-1.89,2.8-3.25,5.01-5.31,8.73 c-0.62,1.09-0.73,1.57-0.73,2.69v5.37c0,3.5,0.31,3.83,4.26,4.08v1.17h-12.28v-1.17c3.73-0.25,4.09-0.53,4.09-4.08v-5.2 c0-0.87-0.2-1.23-0.9-2.49c-1.35-2.32-2.91-5.01-5.31-8.92c-1.67-2.77-2.2-3.27-4.71-3.5v-1.23h10.47v1.23 c-3.05,0.39-2.88,0.92-2.15,2.27c1.75,3.13,3.84,6.49,5.65,9.57c1.52-2.63,3.87-6.74,5.03-9.2c0.9-1.9,0.76-2.32-2.51-2.63v-1.23 h9.54V233.9z"></path> </g> <g> <linearGradient id="SVGID_18_" gradientUnits="userSpaceOnUse" x1="181.4854" y1="236.0779" x2="181.4854" y2="252.0156"> <stop offset="0" style="stop-color:#FFEDAC"></stop> <stop offset="0.516" style="stop-color:#C8A54E"></stop> <stop offset="0.749" style="stop-color:#FFE37B"></stop> <stop offset="1" style="stop-color:#C8A54E"></stop> </linearGradient> <path class="st18" d="M43.78,257.27c0.15-0.9-0.14-1.73-0.3-2.2c-0.15-0.42-0.32-0.87-0.49-1.34c0.1,0.25,0.2,0.5,0.29,0.76 c0.43,1.13,0.82,2.05,1.25,2.79H43.78z"></path> <linearGradient id="SVGID_19_" gradientUnits="userSpaceOnUse" x1="181.4854" y1="236.0779" x2="181.4854" y2="252.0156"> <stop offset="0" style="stop-color:#FFEDAC"></stop> <stop offset="0.516" style="stop-color:#C8A54E"></stop> <stop offset="0.749" style="stop-color:#FFE37B"></stop> <stop offset="1" style="stop-color:#C8A54E"></stop> </linearGradient> <path class="st19" d="M73.12,253.44c-1.72-2.05-2.53-4.59-2.53-7.12c0-2.16,0.51-4.1,1.47-5.78c-0.52,1.58-0.78,3.25-0.78,4.91 C71.28,248.48,71.93,251.19,73.12,253.44z"></path> <linearGradient id="SVGID_20_" gradientUnits="userSpaceOnUse" x1="181.4854" y1="236.0779" x2="181.4854" y2="252.0156"> <stop offset="0" style="stop-color:#FFEDAC"></stop> <stop offset="0.516" style="stop-color:#C8A54E"></stop> <stop offset="0.749" style="stop-color:#FFE37B"></stop> <stop offset="1" style="stop-color:#C8A54E"></stop> </linearGradient> <path class="st20" d="M136,257.27c0.15-0.9-0.14-1.73-0.3-2.2c-0.15-0.42-0.32-0.87-0.49-1.35c0.1,0.25,0.2,0.51,0.29,0.76 c0.43,1.13,0.82,2.05,1.25,2.79H136z"></path> <linearGradient id="SVGID_21_" gradientUnits="userSpaceOnUse" x1="181.4854" y1="236.0779" x2="181.4854" y2="252.0156"> <stop offset="0" style="stop-color:#FFEDAC"></stop> <stop offset="0.516" style="stop-color:#C8A54E"></stop> <stop offset="0.749" style="stop-color:#FFE37B"></stop> <stop offset="1" style="stop-color:#C8A54E"></stop> </linearGradient> <path class="st21" d="M167.24,257.27c0.22-0.7,0.32-1.55,0.34-2.59c0.1,1.07,0.37,1.92,0.76,2.59H167.24z M187.1,250.27 c0.44-1.5,0.65-3.08,0.65-4.65c0-2.71-0.63-5.17-1.79-7.22c1.45,1.75,2.25,4.05,2.25,6.58 C188.2,246.96,187.83,248.73,187.1,250.27z M167.54,236.55c-0.05-0.74-0.16-1.36-0.33-1.88h0.56 C167.61,235.24,167.56,235.87,167.54,236.55z"></path> <linearGradient id="SVGID_22_" gradientUnits="userSpaceOnUse" x1="181.4854" y1="236.0779" x2="181.4854" y2="252.0156"> <stop offset="0" style="stop-color:#FFEDAC"></stop> <stop offset="0.516" style="stop-color:#C8A54E"></stop> <stop offset="0.749" style="stop-color:#FFE37B"></stop> <stop offset="1" style="stop-color:#C8A54E"></stop> </linearGradient> <path class="st22" d="M216.11,257.27c0.2-0.57,0.31-1.24,0.35-2.02c0.06,0.7,0.18,1.39,0.46,2.02H216.11z M216.42,236.26 c-0.06-0.61-0.16-1.14-0.3-1.59h0.36c-0.04,0.26-0.05,0.54-0.05,0.85V236.26z"></path> <linearGradient id="SVGID_23_" gradientUnits="userSpaceOnUse" x1="181.4854" y1="236.0779" x2="181.4854" y2="252.0156"> <stop offset="0" style="stop-color:#FFEDAC"></stop> <stop offset="0.516" style="stop-color:#C8A54E"></stop> <stop offset="0.749" style="stop-color:#FFE37B"></stop> <stop offset="1" style="stop-color:#C8A54E"></stop> </linearGradient> <path class="st23" d="M281.27,257.27c0.25-0.79,0.33-1.78,0.34-3c0.08,1.27,0.24,2.25,0.5,3H281.27z M266.57,250.51l2.09,4.4 l-0.08,0.18L266.57,250.51z M258.72,235.31c-0.05-0.23-0.1-0.44-0.17-0.64h0.49l0.31,0.64H258.72z M280.79,234.75l0.04-0.08h0.62 c-0.01,0.03-0.02,0.05-0.02,0.08H280.79z"></path> <linearGradient id="SVGID_24_" gradientUnits="userSpaceOnUse" x1="181.4854" y1="236.0779" x2="181.4854" y2="252.0156"> <stop offset="0" style="stop-color:#FFEDAC"></stop> <stop offset="0.516" style="stop-color:#C8A54E"></stop> <stop offset="0.749" style="stop-color:#FFE37B"></stop> <stop offset="1" style="stop-color:#C8A54E"></stop> </linearGradient> <path class="st24" d="M319.31,257.27c0.18-0.55,0.28-1.2,0.33-1.96c0.05,0.77,0.17,1.42,0.34,1.96H319.31z M319.57,247.72 l0.06,0.1c0,0.05-0.01,0.1-0.01,0.16C319.6,247.89,319.59,247.8,319.57,247.72z M312.69,235.56c-0.2-0.32-0.4-0.62-0.59-0.89 h0.56C312.61,234.98,312.63,235.28,312.69,235.56z"></path> </g> </g> <g> <g> <path d="M67.69,84.64c-2.22-7.06-6.83-15.49-16.03-15.49c-6.75,0-11.35,4.76-11.35,11.12c0,6.14,4.14,9.66,14.42,14.57 c12.12,5.68,20.25,11.96,20.25,23.09c0,12.89-11.2,23.01-27.84,23.01c-4.14,0-8.21-0.61-11.58-1.69c-3.22-1-5.52-1.84-6.9-2.53 c-1.07-2.68-2.61-12.5-3.37-19.33l3.99-1.23c2.15,7.13,9.2,20.1,20.1,20.1c7.06,0,11.51-4.68,11.51-11.96 c0-6.6-5.14-10.74-13.73-15.03c-11.97-5.83-19.87-11.89-19.87-22.63c0-12.5,10.2-22.09,26.16-22.09c7.59,0,14.27,2.38,16.11,2.99 c0.38,4.07,1.23,9.05,2.07,16.26L67.69,84.64z"></path> <path d="M154,84.65c-1.3-5.83-11.37-9.31-13.37-11.46c-2.15-1.99-6.95-1.5-14.31-1.5h-5.06v52.85c0,9.66,1.23,10.28,11.43,11.12 v3.99H95.03v-3.99c9.74-0.84,10.97-1.46,10.97-11.12V71.7h-3.68c-10.43,0-12.27,1.38-13.88,3.15c-1.99,1.92-3.45,5.83-4.91,11.51 h-4.22c0.46-8.36,1.07-16.72,1.3-22.47h2.84c1.76,2.61,3.3,1.69,6.6,1.69h47.09c3.14,0,9.23,1.43,9.23,1.43 c2.86,3.82,6.68,7.16,13.84,13.84L154,84.65z"></path> </g> <g> <path class="st10" d="M67.69,84.64c-2.22-7.06-6.83-15.49-16.03-15.49c-6.75,0-11.35,4.76-11.35,11.12 c0,6.14,4.14,9.66,14.42,14.57c12.12,5.68,20.25,11.96,20.25,23.09c0,12.89-11.2,23.01-27.84,23.01c-4.14,0-8.21-0.61-11.58-1.69 c-3.22-1-5.52-1.84-6.9-2.53c-1.07-2.68-2.61-12.5-3.37-19.33l3.99-1.23c2.15,7.13,9.2,20.1,20.1,20.1 c7.06,0,11.51-4.68,11.51-11.96c0-6.6-5.14-10.74-13.73-15.03c-11.97-5.83-19.87-11.89-19.87-22.63 c0-12.5,10.2-22.09,26.16-22.09c7.59,0,14.27,2.38,16.11,2.99c0.38,4.07,1.23,9.05,2.07,16.26L67.69,84.64z"></path> <path class="st10" d="M154,84.65c-1.3-5.83-11.37-9.31-13.37-11.46c-2.15-1.99-6.95-1.5-14.31-1.5h-5.06v52.85 c0,9.66,1.23,10.28,11.43,11.12v3.99H95.03v-3.99c9.74-0.84,10.97-1.46,10.97-11.12V71.7h-3.68c-10.43,0-12.27,1.38-13.88,3.15 c-1.99,1.92-3.45,5.83-4.91,11.51h-4.22c0.46-8.36,1.07-16.72,1.3-22.47h2.84c1.76,2.61,3.3,1.69,6.6,1.69h47.09 c3.14,0,9.23,1.43,9.23,1.43c2.86,3.82,6.68,7.16,13.84,13.84L154,84.65z"></path> </g> <g> <linearGradient id="SVGID_25_" gradientUnits="userSpaceOnUse" x1="92.7403" y1="68.667" x2="92.7403" y2="123.019"> <stop offset="0" style="stop-color:#723E1D"></stop> <stop offset="0.2958" style="stop-color:#FFE37B"></stop> <stop offset="0.5757" style="stop-color:#FFE37B"></stop> <stop offset="0.8631" style="stop-color:#7A4721"></stop> <stop offset="1" style="stop-color:#FFEDAC"></stop> </linearGradient> <path class="st25" d="M67.69,84.64c-2.22-7.06-6.83-15.49-16.03-15.49c-6.75,0-11.35,4.76-11.35,11.12 c0,6.14,4.14,9.66,14.42,14.57c12.12,5.68,20.25,11.96,20.25,23.09c0,12.89-11.2,23.01-27.84,23.01c-4.14,0-8.21-0.61-11.58-1.69 c-3.22-1-5.52-1.84-6.9-2.53c-1.07-2.68-2.61-12.5-3.37-19.33l3.99-1.23c2.15,7.13,9.2,20.1,20.1,20.1 c7.06,0,11.51-4.68,11.51-11.96c0-6.6-5.14-10.74-13.73-15.03c-11.97-5.83-19.87-11.89-19.87-22.63 c0-12.5,10.2-22.09,26.16-22.09c7.59,0,14.27,2.38,16.11,2.99c0.38,4.07,1.23,9.05,2.07,16.26L67.69,84.64z"></path> <linearGradient id="SVGID_26_" gradientUnits="userSpaceOnUse" x1="92.7403" y1="68.667" x2="92.7403" y2="123.019"> <stop offset="0" style="stop-color:#723E1D"></stop> <stop offset="0.2958" style="stop-color:#FFE37B"></stop> <stop offset="0.5757" style="stop-color:#FFE37B"></stop> <stop offset="0.8631" style="stop-color:#7A4721"></stop> <stop offset="1" style="stop-color:#FFEDAC"></stop> </linearGradient> <path class="st26" d="M154,84.65c-1.3-5.83-11.37-9.31-13.37-11.46c-2.15-1.99-6.95-1.5-14.31-1.5h-5.06v52.85 c0,9.66,1.23,10.28,11.43,11.12v3.99H95.03v-3.99c9.74-0.84,10.97-1.46,10.97-11.12V71.7h-3.68c-10.43,0-12.27,1.38-13.88,3.15 c-1.99,1.92-3.45,5.83-4.91,11.51h-4.22c0.46-8.36,1.07-16.72,1.3-22.47h2.84c1.76,2.61,3.3,1.69,6.6,1.69h47.09 c3.14,0,9.23,1.43,9.23,1.43c2.86,3.82,6.68,7.16,13.84,13.84L154,84.65z"></path> </g> <g> <linearGradient id="SVGID_27_" gradientUnits="userSpaceOnUse" x1="92.1878" y1="70.4735" x2="92.1878" y2="121.9627"> <stop offset="0" style="stop-color:#FFEDAC"></stop> <stop offset="0.516" style="stop-color:#C8A54E"></stop> <stop offset="0.749" style="stop-color:#FFE37B"></stop> <stop offset="1" style="stop-color:#C8A54E"></stop> </linearGradient> <path class="st27" d="M47.13,138.94c-3.85,0-7.75-0.57-10.98-1.59c-2.59-0.8-4.57-1.5-5.89-2.08 c-0.86-2.88-2.06-10.27-2.81-16.45l0.53-0.16c2.83,7.7,10.07,19.61,21.37,19.61c8.08,0,13.51-5.61,13.51-13.96 c0-8.27-7.13-12.97-14.83-16.82c-11.59-5.65-18.76-11.1-18.76-20.84c0-11.83,9.93-20.09,24.16-20.09 c6.06,0,11.61,1.62,14.25,2.48c0.2,1.83,0.48,3.84,0.79,6.1c0.29,2.11,0.61,4.44,0.94,7.1l-0.38,0.08 c-3.57-9.93-9.55-15.16-17.35-15.16c-7.74,0-13.35,5.52-13.35,13.12c0,7.52,5.47,11.56,15.56,16.38 c11.48,5.37,19.11,11.05,19.11,21.28C72.97,130.1,62.1,138.94,47.13,138.94z"></path> <linearGradient id="SVGID_28_" gradientUnits="userSpaceOnUse" x1="92.1878" y1="70.4735" x2="92.1878" y2="121.9627"> <stop offset="0" style="stop-color:#FFEDAC"></stop> <stop offset="0.516" style="stop-color:#C8A54E"></stop> <stop offset="0.749" style="stop-color:#FFE37B"></stop> <stop offset="1" style="stop-color:#C8A54E"></stop> </linearGradient> <path class="st28" d="M97.03,137.65v-0.17c8.97-0.93,10.97-2.64,10.97-12.94V69.7h-5.68c-10.05,0-12.98,1.21-15.32,3.75 c-1.95,1.9-3.44,5.12-5.01,10.9h-0.56c0.16-2.72,0.33-5.41,0.49-7.99c0.24-3.77,0.46-7.38,0.61-10.43 c1.12,1.24,2.43,1.79,4.2,1.79c0.45,0,0.93-0.03,1.47-0.07c0.58-0.04,1.18-0.08,1.86-0.08h47.09c2.11,0,6.06,0.78,8.08,1.22 c2.48,3.16,5.62,6.08,10.64,10.74c0.34,0.32,0.7,0.65,1.06,0.98l-1.97,1.21c-2.06-3.51-6.36-5.97-9.67-7.86 c-1.3-0.74-2.77-1.58-3.18-2.02l-0.1-0.1c-2.08-1.93-5.41-2.09-9.23-2.09c-0.88,0-1.82,0.01-2.83,0.02 c-1.13,0.01-2.33,0.03-3.62,0.03h-7.06v54.85c0,10.34,2.08,12.03,11.43,12.95v0.16H97.03z"></path> </g> </g> <g> <g> <path d="M332.59,138.74c-0.54,0-1.76-0.08-3.07-0.08c-14.57-0.69-19.02-3.91-23.62-10.97c-2.99-4.6-5.98-10.58-9.36-16.57 c-1.92-3.3-4.07-4.68-7.75-4.68h-2.22v16.18c0,9.2,1.15,10.2,9.82,11.12v3.99h-34.59v-3.99c8.51-0.92,9.97-1.92,9.97-11.12V79.76 c0-8.97-1.15-10.28-9.51-10.97V64.8h31.83c10.35,0,16.18,1.07,20.86,4.22c4.45,3.07,7.59,8.05,7.59,14.96 c0,9.97-6.67,15.34-14.27,18.25c1.69,3.3,5.91,10.74,9.36,15.88c4.07,6.21,6.6,9.89,8.82,12.27c2.38,2.53,4.14,3.68,6.83,4.6 L332.59,138.74z M289.4,102c4.99,0,9.05-0.77,11.58-2.99c3.91-3.37,5.52-7.75,5.52-13.42c0-11.97-7.06-16.34-13.58-16.34 c-2.99,0-4.53,0.54-5.37,1.23c-0.77,0.69-1,1.92-1,4.14V102H289.4z"></path> </g> <g> <path class="st10" d="M332.59,138.74c-0.54,0-1.76-0.08-3.07-0.08c-14.57-0.69-19.02-3.91-23.62-10.97 c-2.99-4.6-5.98-10.58-9.36-16.57c-1.92-3.3-4.07-4.68-7.75-4.68h-2.22v16.18c0,9.2,1.15,10.2,9.82,11.12v3.99h-34.59v-3.99 c8.51-0.92,9.97-1.92,9.97-11.12V79.76c0-8.97-1.15-10.28-9.51-10.97V64.8h31.83c10.35,0,16.18,1.07,20.86,4.22 c4.45,3.07,7.59,8.05,7.59,14.96c0,9.97-6.67,15.34-14.27,18.25c1.69,3.3,5.91,10.74,9.36,15.88c4.07,6.21,6.6,9.89,8.82,12.27 c2.38,2.53,4.14,3.68,6.83,4.6L332.59,138.74z M289.4,102c4.99,0,9.05-0.77,11.58-2.99c3.91-3.37,5.52-7.75,5.52-13.42 c0-11.97-7.06-16.34-13.58-16.34c-2.99,0-4.53,0.54-5.37,1.23c-0.77,0.69-1,1.92-1,4.14V102H289.4z"></path> </g> <g> <linearGradient id="SVGID_29_" gradientUnits="userSpaceOnUse" x1="297.5332" y1="69.4014" x2="297.5332" y2="121.5471"> <stop offset="0" style="stop-color:#723E1D"></stop> <stop offset="0.2958" style="stop-color:#FFE37B"></stop> <stop offset="0.5757" style="stop-color:#FFE37B"></stop> <stop offset="0.8631" style="stop-color:#7A4721"></stop> <stop offset="1" style="stop-color:#FFEDAC"></stop> </linearGradient> <path class="st29" d="M332.59,138.74c-0.54,0-1.76-0.08-3.07-0.08c-14.57-0.69-19.02-3.91-23.62-10.97 c-2.99-4.6-5.98-10.58-9.36-16.57c-1.92-3.3-4.07-4.68-7.75-4.68h-2.22v16.18c0,9.2,1.15,10.2,9.82,11.12v3.99h-34.59v-3.99 c8.51-0.92,9.97-1.92,9.97-11.12V79.76c0-8.97-1.15-10.28-9.51-10.97V64.8h31.83c10.35,0,16.18,1.07,20.86,4.22 c4.45,3.07,7.59,8.05,7.59,14.96c0,9.97-6.67,15.34-14.27,18.25c1.69,3.3,5.91,10.74,9.36,15.88c4.07,6.21,6.6,9.89,8.82,12.27 c2.38,2.53,4.14,3.68,6.83,4.6L332.59,138.74z M289.4,102c4.99,0,9.05-0.77,11.58-2.99c3.91-3.37,5.52-7.75,5.52-13.42 c0-11.97-7.06-16.34-13.58-16.34c-2.99,0-4.53,0.54-5.37,1.23c-0.77,0.69-1,1.92-1,4.14V102H289.4z"></path> </g> <g> <linearGradient id="SVGID_30_" gradientUnits="userSpaceOnUse" x1="297.4002" y1="71.1493" x2="297.4002" y2="120.4367"> <stop offset="0" style="stop-color:#FFEDAC"></stop> <stop offset="0.516" style="stop-color:#C8A54E"></stop> <stop offset="0.749" style="stop-color:#FFE37B"></stop> <stop offset="1" style="stop-color:#C8A54E"></stop> </linearGradient> <path class="st30" d="M330.93,136.69c-0.44-0.01-0.92-0.02-1.41-0.02c-13.66-0.65-17.67-3.5-21.95-10.06 c-1.93-2.97-3.89-6.58-5.96-10.4c-1.08-1.98-2.18-4.02-3.33-6.05c-2.32-4-5.16-5.7-9.49-5.7h-4.22v18.18 c0,9.46,1.52,11.78,9.82,12.9v0.21h-30.59v-0.21c7.91-1.06,9.97-3.15,9.97-12.9V79.76c0-9.32-1.66-11.85-9.51-12.78V66.8h29.83 c10.19,0,15.54,1.05,19.75,3.88c3.05,2.1,6.71,6.13,6.71,13.3c0,7.57-4.37,13.08-12.98,16.39l-2.08,0.8l1.01,1.98 c1.77,3.46,6.05,10.98,9.48,16.08c4.15,6.35,6.7,10.04,9.02,12.52c2.09,2.22,3.8,3.52,6.02,4.5L330.93,136.69z M292.93,67.25 c-3.13,0-5.23,0.53-6.63,1.68c-1.45,1.31-1.73,3.14-1.73,5.69V104h4.84c6.09,0,10.19-1.11,12.9-3.49 c4.23-3.65,6.2-8.39,6.2-14.93C308.51,72.05,300.12,67.25,292.93,67.25z"></path> </g> </g> <g> <g> <g> <path class="st31" d="M212.47,41.51l-0.29-6.38l-3.76,6.14c0.35-0.02,0.7-0.04,1.05-0.04 C210.49,41.24,211.49,41.34,212.47,41.51z"></path> <g> <g> <linearGradient id="SVGID_31_" gradientUnits="userSpaceOnUse" x1="230.1028" y1="146.8526" x2="230.1028" y2="63.9651"> <stop offset="0.2099" style="stop-color:#FFEDAC"></stop> <stop offset="0.516" style="stop-color:#C8A54E"></stop> <stop offset="0.749" style="stop-color:#FFE37B"></stop> <stop offset="1" style="stop-color:#C8A54E"></stop> </linearGradient> <path class="st32" d="M272.97,64.61l-44.32-0.64c0.33,0.48,0.79,1.11,1.22,1.54c1.06,1.06-0.43,5.19-0.54,5.48l21.13,0.31 l-20.31,12.13c0.26,1.82,0.31,4.99-1.95,6.87c-2.12,1.76-9.91,4.96-9.91,4.96l-4.41,9.36l-1.5,2.43l0.34,22.2l-17.31-16.5 c-0.84,1.39-2.1,2.89-3.91,3.66c-1.43,0.61-2.26-4.52-2.26-3.96c0,0.36-1.17,2.36-2,3.74l32.16,30.67l-0.75-49.8L272.97,64.61 z"></path> <linearGradient id="SVGID_32_" gradientUnits="userSpaceOnUse" x1="230.1028" y1="146.8526" x2="230.1028" y2="63.9651"> <stop offset="0" style="stop-color:#723E1D"></stop> <stop offset="0.398" style="stop-color:#CAA559"></stop> <stop offset="0.5053" style="stop-color:#C39C54"></stop> <stop offset="0.6619" style="stop-color:#B18646"></stop> <stop offset="0.8478" style="stop-color:#946431"></stop> <stop offset="1" style="stop-color:#7A4721"></stop> </linearGradient> <path class="st33" d="M230.75,65l38.68,0.56l-38.87,23.21c0.74-1.65,0.78-3.47,0.66-4.82l19.76-11.8l3.03-1.81l-3.52-0.05 L230.71,70C231.22,68.27,231.59,66.12,230.75,65 M217.67,98.91l0.69,45.58l-29.86-28.47c0.19-0.32,0.36-0.61,0.51-0.88 c0.49,1.3,1.16,2.31,2.24,2.31c0.21,0,0.43-0.04,0.63-0.13c1.4-0.6,2.64-1.62,3.69-3.04l16.45,15.68l1.73,1.65l-0.04-2.38 l-0.33-21.91l1.35-2.18l0.03-0.05l0.02-0.05L217.67,98.91 M228.65,63.97c0.33,0.48,0.79,1.11,1.22,1.54 c1.06,1.06-0.43,5.19-0.54,5.48l21.13,0.31l-20.31,12.13c0.26,1.82,0.31,4.99-1.95,6.87c-2.12,1.76-9.91,4.96-9.91,4.96 l-4.41,9.36l-1.5,2.43l0.34,22.2l-17.31-16.5c-0.84,1.39-2.1,2.89-3.91,3.66c-0.08,0.03-0.16,0.05-0.24,0.05 c-1.21,0-1.94-4.05-2.02-4.05c0,0-0.01,0.01-0.01,0.04c0,0.36-1.17,2.36-2,3.74l32.16,30.67l-0.75-49.8l54.33-32.45 L228.65,63.97L228.65,63.97z"></path> </g> <g> <linearGradient id="SVGID_33_" gradientUnits="userSpaceOnUse" x1="149.5602" y1="148.3617" x2="149.5602" y2="115.3048"> <stop offset="0" style="stop-color:#FFEDAC"></stop> <stop offset="0.4774" style="stop-color:#FFE37B"></stop> <stop offset="1" style="stop-color:#C8A54E"></stop> </linearGradient> <polygon class="st34" points="151.04,130.31 157.58,119.99 152.82,115.3 131.87,148.36 167.25,127.52 161.74,124.01 "></polygon> <linearGradient id="SVGID_34_" gradientUnits="userSpaceOnUse" x1="149.5602" y1="148.3617" x2="149.5602" y2="115.3048"> <stop offset="0" style="stop-color:#723E1D"></stop> <stop offset="0.398" style="stop-color:#CAA559"></stop> <stop offset="0.5053" style="stop-color:#C39C54"></stop> <stop offset="0.6619" style="stop-color:#B18646"></stop> <stop offset="0.8478" style="stop-color:#946431"></stop> <stop offset="1" style="stop-color:#7A4721"></stop> </linearGradient> <path class="st35" d="M153,116.89l3.3,3.25l-6.11,9.64l-2.22,3.5l3.57-2.1l10.17-5.99l3.62,2.31l-30.4,17.91L153,116.89 M152.82,115.3l-20.95,33.06l35.38-20.84l-5.51-3.52l-10.69,6.3l6.54-10.32L152.82,115.3L152.82,115.3z"></path> </g> <g> <linearGradient id="SVGID_35_" gradientUnits="userSpaceOnUse" x1="210.0643" y1="44.2713" x2="210.0643" y2="13.2985"> <stop offset="0.0597" style="stop-color:#C8A54E"></stop> <stop offset="0.5709" style="stop-color:#FFE37B"></stop> </linearGradient> <path class="st36" d="M212.18,35.14l0.29,6.38c2.79,0.5,5.41,1.6,7.56,2.76l-1.39-30.97L200.1,43.6 c2.36-1.09,5.37-2.12,8.33-2.33L212.18,35.14z"></path> <linearGradient id="SVGID_36_" gradientUnits="userSpaceOnUse" x1="210.0643" y1="44.2713" x2="210.0643" y2="13.2985"> <stop offset="0" style="stop-color:#723E1D"></stop> <stop offset="0.398" style="stop-color:#CAA559"></stop> <stop offset="0.5053" style="stop-color:#C39C54"></stop> <stop offset="0.6619" style="stop-color:#B18646"></stop> <stop offset="0.8478" style="stop-color:#946431"></stop> <stop offset="1" style="stop-color:#7A4721"></stop> </linearGradient> <path class="st37" d="M217.79,16.61l1.16,26c-1.88-0.89-3.73-1.53-5.52-1.92l-0.25-5.6l-0.15-3.26l-1.71,2.79l-3.49,5.71 c-1.89,0.19-3.71,0.67-5.3,1.22L217.79,16.61 M218.64,13.3L200.1,43.6c2.36-1.09,5.37-2.12,8.33-2.33l3.76-6.14l0.29,6.38 c2.79,0.5,5.41,1.6,7.56,2.76L218.64,13.3L218.64,13.3z"></path> </g> <g> <linearGradient id="SVGID_37_" gradientUnits="userSpaceOnUse" x1="156.2983" y1="84.3204" x2="156.2983" y2="64.0648"> <stop offset="0.2958" style="stop-color:#FFE37B"></stop> <stop offset="1" style="stop-color:#C8A54E"></stop> </linearGradient> <path class="st38" d="M154.01,84.32c2.19-1.21,4.73-2.71,6.87-4.24l-9.31-8.26l16.14-0.44c1.92-2.48,4-4.81,11.35-6.97 c0.32-0.09,0.62-0.21,0.91-0.34l-47.35,1.3L154.01,84.32z"></path> <linearGradient id="SVGID_38_" gradientUnits="userSpaceOnUse" x1="156.2983" y1="84.3204" x2="156.2983" y2="64.0648"> <stop offset="0" style="stop-color:#723E1D"></stop> <stop offset="0.398" style="stop-color:#CAA559"></stop> <stop offset="0.5053" style="stop-color:#C39C54"></stop> <stop offset="0.6619" style="stop-color:#B18646"></stop> <stop offset="0.8478" style="stop-color:#946431"></stop> <stop offset="1" style="stop-color:#7A4721"></stop> </linearGradient> <path class="st39" d="M173.87,65.23c-3.49,1.59-5.18,3.31-6.66,5.16l-15.67,0.43l-2.53,0.07l1.89,1.68l8.36,7.41 c-1.46,0.98-3.17,2.03-5.12,3.12l-18.96-16.81L173.87,65.23 M179.97,64.06l-47.35,1.3l21.39,18.96 c2.19-1.21,4.73-2.71,6.87-4.24l-9.31-8.26l16.14-0.44c1.92-2.48,4-4.81,11.35-6.97C179.39,64.31,179.69,64.2,179.97,64.06 L179.97,64.06z"></path> </g> </g> </g> <g> <g> <linearGradient id="SVGID_39_" gradientUnits="userSpaceOnUse" x1="143.9595" y1="85.0387" x2="225.9694" y2="85.0387"> <stop offset="0.0597" style="stop-color:#C8A54E"></stop> <stop offset="0.5709" style="stop-color:#FFE37B"></stop> </linearGradient> <path class="st40" d="M190.27,89.79c0,0-2.24-2.87-1.92-7.99c0,0,8.62,2.87,5.75-3.51c0,0-1.28,2.24-2.87,1.6 c-1.6-0.64-1.92-1.28-3.19-1.92c-1.28-0.64-3.19-1.92-0.64-3.19c2.56-1.28,7.99-5.75,11.82-18.21c0,0,2.35-4.56,6.05-7.23 c2.91-1.31,13.09-5,14.91,6.63c0,0,3.01,6.02,5.79,7.87c0,0-2.05-3.67-1.74-4.2c1.18-2.01-1.48-2.52-1.09-3.71 s0.91-1.41,0.17-2.69c-0.73-1.26-4.53-7.34-6.34-8.19c-1.83-1.19-5.02-2.14-10.41-0.94c-10.46,2.33-15.97,7.99-23,19.8 c0,0,0.32,1.6-9.26,4.79c0,0-3.83,1.28-7.99,8.62c-4.15,7.35-12.46,8.94-16.29,11.5c-3.83,2.56-6.07,5.11-6.07,5.11l2.24,5.43 c0,0,6.07-7.03,10.22-8.62c4.15-1.6,10.22-4.79,13.1-10.22c2.87-5.43,4.47-8.3,8.3-9.58c3.83-1.28,11.82-1.92,14.37-6.39 c0,0-0.32,4.47-5.11,6.71c-4.79,2.24-8.62,0.64-12.78,8.94c-4.15,8.3-6.71,10.86-14.69,14.37 c-7.99,3.51-10.22,10.86-10.22,10.86l2.87,4.47c0,0,2.56-7.67,9.9-11.82c7.35-4.15,13.73-7.35,14.69-13.42 c0,0,0.32,9.58-12.46,16.93c0,0-7.67,3.83-8.94,12.14l5.11,5.11c0,0,1.6-12.14,9.58-17.25c0,0-6.71,9.26-4.47,21.72l5.75,3.19 c0,0-1.28-21.72,5.75-30.98c0,0,2.4,9.9,1.76,15.97c-0.64,6.07-4.79,13.73-7.35,14.37c0,0,7.35-0.32,14.05-11.82 c0,0,1.28-1.6,2.08-8.3c0,0,4.47,0.64,4.15,7.67c0,0,1.92-0.96,1.92-5.43c0-4.47-8.3-12.14-9.9-16.29 c-1.6-4.15-0.64-11.5-0.64-11.5s1.6,9.26,6.39,12.46c4.79,3.19,6.07,4.15,6.71,5.75C196.34,98.41,195.7,93.94,190.27,89.79z"></path> <linearGradient id="SVGID_40_" gradientUnits="userSpaceOnUse" x1="143.9595" y1="85.0387" x2="225.9694" y2="85.0387"> <stop offset="0" style="stop-color:#723E1D"></stop> <stop offset="0.398" style="stop-color:#CAA559"></stop> <stop offset="0.5053" style="stop-color:#C39C54"></stop> <stop offset="0.6619" style="stop-color:#B18646"></stop> <stop offset="0.8478" style="stop-color:#946431"></stop> <stop offset="1" style="stop-color:#7A4721"></stop> </linearGradient> <path class="st41" d="M211.16,44.31c2.18,0,4,0.46,5.4,1.37l0.04,0.03l0.05,0.02c1.41,0.66,4.83,5.84,6.01,7.89 c0.37,0.63,0.33,0.72,0.08,1.28c-0.09,0.21-0.21,0.47-0.31,0.79c-0.3,0.92,0.31,1.56,0.75,2.03c0.6,0.63,0.78,0.88,0.4,1.54 c-0.08,0.13-0.18,0.31-0.11,0.76c-1.3-1.86-2.33-3.83-2.57-4.29c-1.17-7.23-5.5-8.75-8.93-8.75c-2.87,0-5.62,1.05-7,1.67 l-0.07,0.03l-0.06,0.04c-3.8,2.75-6.18,7.3-6.28,7.49l-0.03,0.06l-0.02,0.06c-4.06,13.2-9.78,16.93-11.44,17.76 c-1.11,0.56-1.67,1.23-1.67,2.02c0,0.92,0.76,1.74,2.31,2.52c0.49,0.24,0.83,0.49,1.18,0.75c0.5,0.37,1.07,0.79,2.07,1.19 c0.28,0.11,0.57,0.17,0.86,0.17c0.84,0,1.53-0.45,2.04-0.94c0.14,0.58,0.12,1.04-0.06,1.32c-0.3,0.47-1.13,0.57-1.77,0.57 c-1.58,0-3.41-0.6-3.43-0.61l-0.92-0.31l-0.06,0.97c-0.33,5.33,1.97,8.37,2.07,8.49l0.06,0.08l0.08,0.06 c1.92,1.47,3.21,2.98,4.08,4.29c-0.97-0.71-2.22-1.55-3.84-2.64c-4.46-2.98-6.05-11.87-6.07-11.96l-0.84-4.87l-0.64,4.9 c-0.04,0.31-0.96,7.58,0.68,11.86c0.69,1.79,2.47,4.1,4.37,6.54c2.57,3.32,5.49,7.08,5.49,9.48c0,1.46-0.22,2.49-0.48,3.22 c-0.63-5.54-4.68-6.19-4.73-6.2l-0.76-0.11l-0.09,0.76c-0.75,6.26-1.92,7.92-1.92,7.92l-0.03,0.04l-0.03,0.05 c-3.69,6.33-7.59,9.17-10.23,10.43c2.3-3.02,4.46-8.2,4.91-12.53c0.64-6.13-1.67-15.82-1.77-16.23l-0.37-1.54l-0.95,1.26 c-3,3.96-4.91,10.47-5.66,19.35c-0.39,4.64-0.35,8.75-0.29,10.78l-4.27-2.37c-1.97-11.81,4.34-20.71,4.4-20.8l2.3-3.19 l-3.32,2.12c-3.4,2.18-6.2,5.95-8.08,10.91c-0.84,2.2-1.32,4.17-1.58,5.43l-3.82-3.82c1.37-7.55,8.4-11.17,8.51-11.23 c13.02-7.49,12.85-17.19,12.83-17.6l-1.49-0.09c-0.84,5.31-6.15,8.29-12.87,12.06l-1.45,0.81c-5.68,3.21-8.57,8.38-9.68,10.85 l-1.89-2.95c0.53-1.41,3.04-7.15,9.69-10.08c8.12-3.57,10.79-6.19,15.06-14.72c2.89-5.78,5.56-6.5,8.64-7.32 c1.2-0.32,2.44-0.65,3.78-1.28c5.13-2.39,5.53-7.13,5.54-7.33l0.23-3.28l-1.63,2.86c-1.78,3.12-6.65,4.25-10.55,5.16 c-1.26,0.29-2.45,0.57-3.4,0.89c-4.21,1.4-5.91,4.62-8.73,9.94c-2.88,5.45-9.2,8.52-12.7,9.87c-3.41,1.31-7.9,5.95-9.71,7.93 l-1.6-3.88c0.73-0.76,2.7-2.71,5.61-4.64c1.02-0.68,2.39-1.3,3.98-2.01c4.2-1.89,9.44-4.24,12.55-9.74 c3.92-6.94,7.54-8.27,7.57-8.28c6.11-2.04,9.46-3.85,9.76-5.26c6.52-10.95,11.81-16.94,22.43-19.31 C208.32,44.49,209.82,44.31,211.16,44.31 M211.16,43.56c-1.32,0-2.84,0.16-4.6,0.55c-10.46,2.33-15.97,7.99-23,19.8 c0,0,0.32,1.6-9.26,4.79c0,0-3.83,1.28-7.99,8.62c-4.15,7.35-12.46,8.94-16.29,11.5c-3.83,2.56-6.07,5.11-6.07,5.11l2.24,5.43 c0,0,6.07-7.03,10.22-8.62s10.22-4.79,13.1-10.22c2.87-5.43,4.47-8.3,8.3-9.58c3.83-1.28,11.82-1.92,14.37-6.39 c0,0-0.32,4.47-5.11,6.71c-4.79,2.24-8.62,0.64-12.78,8.94c-4.15,8.3-6.71,10.86-14.69,14.37 c-7.99,3.51-10.22,10.86-10.22,10.86l2.87,4.47c0,0,2.56-7.67,9.9-11.82c7.35-4.15,13.73-7.35,14.69-13.42 c0,0,0.32,9.58-12.46,16.93c0,0-7.67,3.83-8.94,12.14l5.11,5.11c0,0,1.6-12.14,9.58-17.25c0,0-6.71,9.26-4.47,21.72l5.75,3.19 c0,0-1.28-21.72,5.75-30.98c0,0,2.4,9.9,1.76,15.97c-0.64,6.07-4.79,13.73-7.35,14.37c0,0,7.35-0.32,14.05-11.82 c0,0,1.28-1.6,2.08-8.3c0,0,4.47,0.64,4.15,7.67c0,0,1.92-0.96,1.92-5.43s-8.3-12.14-9.9-16.29c-1.6-4.15-0.64-11.5-0.64-11.5 s1.6,9.26,6.39,12.46c4.79,3.19,6.07,4.15,6.71,5.75c0,0-0.64-4.47-6.07-8.62c0,0-2.24-2.87-1.92-7.99c0,0,1.94,0.65,3.67,0.65 c1.92,0,3.6-0.8,2.08-4.16c0,0-0.98,1.71-2.29,1.71c-0.19,0-0.38-0.03-0.58-0.11c-1.6-0.64-1.92-1.28-3.19-1.92 c-1.28-0.64-3.19-1.92-0.64-3.19c2.56-1.28,7.99-5.75,11.82-18.21c0,0,2.35-4.56,6.05-7.23c1.27-0.57,3.94-1.61,6.69-1.61 c3.53,0,7.19,1.7,8.21,8.24c0,0,3.01,6.02,5.79,7.87c0,0-2.05-3.67-1.74-4.2c1.17-2.01-1.48-2.52-1.09-3.71 c0.39-1.18,0.91-1.41,0.17-2.69c-0.73-1.26-4.53-7.34-6.34-8.19C215.74,44.25,213.89,43.56,211.16,43.56L211.16,43.56z"></path> </g> <g> <linearGradient id="SVGID_41_" gradientUnits="userSpaceOnUse" x1="198.063" y1="93.1039" x2="228.5052" y2="93.1039"> <stop offset="0.0597" style="stop-color:#C8A54E"></stop> <stop offset="0.5709" style="stop-color:#FFE37B"></stop> </linearGradient> <path class="st42" d="M228.24,82.71c-0.31-1.24-0.67-2.92-0.36-6.63c0.31-3.71-0.78-6.02-0.78-6.02 c1.51-2.31,1.13-3.39,1.13-3.39c0,0.93-7.57,3.5-7.57,3.5c-0.31,0.93,4.02,0.93,4.02,0.93c0.16,0.66,1.11,1.33,0.62,1.86 c-0.46,0.49-0.46-0.07-1.24,0c-0.78,0.07-0.86,0.19-1.48,0.49c-0.31,0.16-1.49,1.45-2.83,2.26c-1.33,0.81-3.39,1.13-3.39,1.13 c1.7,0,2.72,0.2,3.96,0c2.06-0.33,3.78-1.41,4.68-1.22c0.4,0.09,0.97,0.65,0.97,1.22c0,1.13-1.91,1.69-1.91,2.3 c0,0.62,1.24,2.79,1.55,3.71c0.31,0.93-2.17,4.64-12.07,4.64c-9.9,0-15.48-4.64-15.48-4.64s0.62,4.64,3.71,8.05 c3.1,3.4,8.05,2.48,8.05,4.95c0,2.48-5.11,9.75-6.96,15.32c-1.86,5.57,0.31,8.36,0.31,8.36c0.93-7.74,4.02-9.6,6.19-12.69 c2.17-3.1,5.57-9.9,6.5-12.69c0.93-2.79,3.1-2.48,8.36-4.33C229.48,87.97,228.55,83.94,228.24,82.71z"></path> <linearGradient id="SVGID_42_" gradientUnits="userSpaceOnUse" x1="198.063" y1="93.1039" x2="228.5052" y2="93.1039"> <stop offset="0" style="stop-color:#723E1D"></stop> <stop offset="0.398" style="stop-color:#CAA559"></stop> <stop offset="0.5053" style="stop-color:#C39C54"></stop> <stop offset="0.6619" style="stop-color:#B18646"></stop> <stop offset="0.8478" style="stop-color:#946431"></stop> <stop offset="1" style="stop-color:#7A4721"></stop> </linearGradient> <path class="st43" d="M227.17,68.39c-0.16,0.35-0.38,0.77-0.69,1.26L226.24,70l0.18,0.38c0.01,0.02,1,2.19,0.71,5.63 c-0.31,3.71,0.03,5.49,0.38,6.87c0.28,1.13,1.14,4.57-3.55,6.23c-1.4,0.49-2.56,0.83-3.58,1.12c-2.77,0.79-4.44,1.27-5.24,3.68 c-0.89,2.67-4.28,9.47-6.4,12.5c-0.45,0.64-0.95,1.24-1.47,1.86c-1.6,1.91-3.37,4.02-4.36,8.29c-0.16-1.24-0.08-2.96,0.65-5.15 c0.87-2.61,2.5-5.66,3.94-8.35c1.71-3.2,3.06-5.73,3.06-7.21c0-1.79-1.65-2.31-3.41-2.85c-1.61-0.5-3.43-1.06-4.84-2.61 c-1.74-1.91-2.66-4.26-3.11-5.85c2.37,1.43,7.26,3.7,14.32,3.7c8.86,0,11.66-2.93,12.31-3.83c0.47-0.65,0.64-1.29,0.47-1.8 c-0.14-0.42-0.42-1.01-0.72-1.63c-0.25-0.53-0.65-1.37-0.76-1.73c0.1-0.09,0.28-0.22,0.41-0.31c0.62-0.45,1.47-1.08,1.47-2.11 c0-0.92-0.82-1.79-1.56-1.95c-0.12-0.03-0.26-0.04-0.39-0.04c-0.6,0-1.28,0.25-2.08,0.53c-0.62,0.22-1.3,0.47-2.03,0.63 c0.71-0.5,1.34-1.07,1.78-1.47c0.19-0.17,0.42-0.38,0.47-0.42c0.11-0.05,0.2-0.1,0.29-0.15c0.36-0.19,0.43-0.23,0.93-0.27 c0.02,0,0.04,0,0.06,0c0.09,0,0.13,0.02,0.22,0.06c0.12,0.06,0.31,0.15,0.55,0.15c0.42,0,0.7-0.25,0.88-0.44 c0.72-0.77,0.12-1.65-0.16-2.07c-0.11-0.16-0.25-0.37-0.28-0.48l-0.14-0.57l-0.59,0c-0.68,0-1.38-0.04-1.97-0.1 C224.83,69.48,226.24,68.88,227.17,68.39 M228.23,66.67c0,0.93-7.57,3.5-7.57,3.5c-0.31,0.93,4.02,0.93,4.02,0.93 c0.16,0.66,1.11,1.33,0.62,1.86c-0.14,0.15-0.24,0.21-0.33,0.21c-0.19,0-0.34-0.21-0.77-0.21c-0.04,0-0.09,0-0.13,0.01 c-0.78,0.07-0.86,0.19-1.48,0.49c-0.31,0.16-1.49,1.45-2.83,2.26c-1.33,0.81-3.39,1.13-3.39,1.13c1.13,0,1.96,0.09,2.76,0.09 c0.4,0,0.79-0.02,1.2-0.09c1.89-0.31,3.5-1.24,4.45-1.24c0.08,0,0.16,0.01,0.24,0.02c0.4,0.09,0.97,0.65,0.97,1.22 c0,1.13-1.91,1.69-1.91,2.3c0,0.62,1.24,2.79,1.55,3.71c0.31,0.93-2.17,4.64-12.07,4.64s-15.48-4.64-15.48-4.64 s0.62,4.64,3.71,8.05s8.05,2.48,8.05,4.95s-5.11,9.75-6.96,15.32c-1.86,5.57,0.31,8.36,0.31,8.36 c0.93-7.74,4.02-9.6,6.19-12.69c2.17-3.1,5.57-9.9,6.5-12.69c0.93-2.79,3.1-2.48,8.36-4.33c5.26-1.86,4.33-5.88,4.02-7.12 c-0.31-1.24-0.67-2.92-0.36-6.63c0.31-3.71-0.78-6.02-0.78-6.02C228.61,67.75,228.23,66.67,228.23,66.67L228.23,66.67z"></path> </g> <g> <linearGradient id="SVGID_43_" gradientUnits="userSpaceOnUse" x1="207.6581" y1="58.8863" x2="217.5627" y2="58.8863"> <stop offset="0.0597" style="stop-color:#C8A54E"></stop> <stop offset="0.5709" style="stop-color:#FFE37B"></stop> </linearGradient> <path class="st44" d="M215.71,60.88c0,0,0.62-0.31,0.93-0.93l0.93,0.31c0,0-1.24-3.4-3.71-3.4c-2.48,0-5.26,2.79-6.19,3.1 c0,0,0.93,0.93,2.79,0.62c0,0,2.48-2.17,3.4-1.86C213.85,58.72,213.23,61.19,215.71,60.88z"></path> <linearGradient id="SVGID_44_" gradientUnits="userSpaceOnUse" x1="207.6581" y1="58.8863" x2="217.5627" y2="58.8863"> <stop offset="0" style="stop-color:#723E1D"></stop> <stop offset="0.398" style="stop-color:#CAA559"></stop> <stop offset="0.5053" style="stop-color:#C39C54"></stop> <stop offset="0.6619" style="stop-color:#B18646"></stop> <stop offset="0.8478" style="stop-color:#946431"></stop> <stop offset="1" style="stop-color:#7A4721"></stop> </linearGradient> <path class="st45" d="M213.85,57.61c1.02,0,1.81,0.82,2.32,1.6l-0.21,0.41c-0.13,0.26-0.37,0.45-0.5,0.53 c-0.06,0-0.11,0.01-0.17,0.01c-0.3,0-0.51-0.07-0.62-0.2c-0.21-0.26-0.16-0.83-0.11-1.06l0.17-0.67l-0.66-0.22 c-0.14-0.05-0.29-0.07-0.44-0.07c-1.12,0-2.82,1.33-3.52,1.93c-0.14,0.02-0.28,0.02-0.42,0.02c-0.17,0-0.32-0.01-0.46-0.03 c0.06-0.04,0.12-0.09,0.18-0.13C210.6,58.88,212.38,57.61,213.85,57.61 M213.85,56.86c-2.48,0-5.26,2.79-6.19,3.1 c0,0,0.68,0.68,2.05,0.68c0.23,0,0.47-0.02,0.74-0.06c0,0,2.16-1.89,3.2-1.89c0.07,0,0.14,0.01,0.21,0.03 c0,0-0.55,2.19,1.45,2.19c0.12,0,0.26-0.01,0.41-0.03c0,0,0.62-0.31,0.93-0.93l0.93,0.31 C217.56,60.27,216.32,56.86,213.85,56.86L213.85,56.86z"></path> </g> <g> <linearGradient id="SVGID_45_" gradientUnits="userSpaceOnUse" x1="205.801" y1="54.8253" x2="216.6517" y2="54.8253"> <stop offset="0.0597" style="stop-color:#C8A54E"></stop> <stop offset="0.5709" style="stop-color:#FFE37B"></stop> </linearGradient> <path class="st46" d="M211.99,53.15c-4.33,0.31-6.19,3.4-6.19,3.4s3.4-2.17,5.26-2.17s5.26,1.24,5.26,1.24 C217.25,54.08,216.32,52.84,211.99,53.15z"></path> <linearGradient id="SVGID_46_" gradientUnits="userSpaceOnUse" x1="205.801" y1="54.8253" x2="216.6517" y2="54.8253"> <stop offset="0" style="stop-color:#723E1D"></stop> <stop offset="0.398" style="stop-color:#CAA559"></stop> <stop offset="0.5053" style="stop-color:#C39C54"></stop> <stop offset="0.6619" style="stop-color:#B18646"></stop> <stop offset="0.8478" style="stop-color:#946431"></stop> <stop offset="1" style="stop-color:#7A4721"></stop> </linearGradient> <path class="st47" d="M213.24,53.85c2.16,0,2.57,0.52,2.63,0.62c0.03,0.06,0.04,0.14,0.03,0.21c-0.72-0.24-1.9-0.6-3.03-0.83 C212.99,53.85,213.12,53.85,213.24,53.85 M213.24,53.1c-0.38,0-0.79,0.02-1.25,0.05c-4.33,0.31-6.19,3.4-6.19,3.4 s3.4-2.17,5.26-2.17c1.86,0,5.26,1.24,5.26,1.24C217.16,54.24,216.5,53.1,213.24,53.1L213.24,53.1z"></path> </g> </g> </g> </g> </g> </svg> 