<?xml version="1.0" encoding="UTF-8"?> <!-- Generator: Adobe Illustrator 25.0.0, SVG Export Plug-In . SVG Version: 6.00 Build 0) --> <svg xmlns="http://www.w3.org/2000/svg" xmlns:xlink="http://www.w3.org/1999/xlink" version="1.1" id="Layer_1" x="0px" y="0px" viewBox="0 0 166.54 52.49" style="enable-background:new 0 0 166.54 52.49;" xml:space="preserve"> <style type="text/css"> .st0{fill:url(#SVGID_1_);} .st1{fill:url(#SVGID_2_);} .st2{fill:url(#SVGID_3_);} .st3{fill:url(#SVGID_4_);} .st4{fill:url(#SVGID_5_);} .st5{fill:url(#SVGID_6_);} .st6{fill:url(#SVGID_7_);} .st7{fill:url(#SVGID_8_);} .st8{fill:url(#SVGID_9_);} .st9{fill:url(#SVGID_10_);} .st10{fill:url(#SVGID_11_);} .st11{fill:url(#SVGID_12_);} .st12{fill:url(#SVGID_13_);} .st13{fill:url(#SVGID_14_);} .st14{fill:url(#SVGID_15_);} .st15{fill:url(#SVGID_16_);} .st16{fill:url(#SVGID_17_);} .st17{fill:url(#SVGID_18_);} .st18{fill:url(#SVGID_19_);} .st19{fill:url(#SVGID_20_);} .st20{fill:url(#SVGID_21_);} .st21{fill:url(#SVGID_22_);} .st22{fill:url(#SVGID_23_);} .st23{fill:url(#SVGID_24_);} .st24{fill:url(#SVGID_25_);} .st25{fill:url(#SVGID_26_);} .st26{fill:url(#SVGID_27_);} .st27{fill:url(#SVGID_28_);} .st28{fill:url(#SVGID_29_);} .st29{fill:url(#SVGID_30_);} .st30{fill:url(#SVGID_31_);} .st31{fill:url(#SVGID_32_);} .st32{fill:url(#SVGID_33_);} .st33{fill:url(#SVGID_34_);} .st34{fill:url(#SVGID_35_);} .st35{fill:url(#SVGID_36_);} .st36{fill:url(#SVGID_37_);} .st37{fill:url(#SVGID_38_);} .st38{fill:url(#SVGID_39_);} .st39{fill:url(#SVGID_40_);} .st40{fill:url(#SVGID_41_);} .st41{fill:url(#SVGID_42_);} .st42{fill:url(#SVGID_43_);} .st43{fill:url(#SVGID_44_);} .st44{fill:url(#SVGID_45_);} .st45{fill:url(#SVGID_46_);} .st46{fill:url(#SVGID_47_);} .st47{fill:url(#SVGID_48_);} .st48{fill:url(#SVGID_49_);} </style> <g> <g> <linearGradient id="SVGID_1_" gradientUnits="userSpaceOnUse" x1="9.7407" y1="23.2933" x2="17.647" y2="-1.5039"> <stop offset="0.0491" style="stop-color:#996627"></stop> <stop offset="0.85" style="stop-color:#A87536"></stop> </linearGradient> <path class="st0" d="M6.6,24.76c-0.16-0.11-0.36-0.29-0.57-0.48C5.65,23.95,5.11,23.35,5,23.29c0.27,0.08,1.18,0.4,1.49,0.4 c1.2,0,1.57-1.16,1.96-2.42c0.47-1.57,1.02-3.28,3.46-3.3c1.97,0,3,1.97,3,3.47c0,1.57-1.11,3.3-3.41,3.3 c-1.47,0-2.13-0.74-2.63-1.36c-0.39,0.57-1.07,1.39-2.15,1.39L6.6,24.76z M11.63,18.5c-1.03,0-1.34,1.16-1.68,2.41 c-0.16,0.58-0.31,1.21-0.63,1.83c0.03,0.05,0.1,0.13,0.15,0.16c0.44,0.52,1.1,1.29,2.1,1.29c1.02,0,1.89-1.2,1.89-2.68 c0-1.52-0.58-2.97-1.78-3.01H11.63z"></path> <linearGradient id="SVGID_2_" gradientUnits="userSpaceOnUse" x1="16.7471" y1="25.5272" x2="24.6534" y2="0.73"> <stop offset="0.0491" style="stop-color:#996627"></stop> <stop offset="0.85" style="stop-color:#A87536"></stop> </linearGradient> <path class="st1" d="M17.54,15.66c0-0.39-0.24-0.53-1.16-0.53v-0.53l2.58-0.11v8.34c0,0.86,0.39,1.31,1.07,1.36h0.81v0.6h-0.91 c-1.37,0-2.39-0.48-2.39-2.02V15.66z"></path> <linearGradient id="SVGID_3_" gradientUnits="userSpaceOnUse" x1="22.3272" y1="27.3064" x2="30.2336" y2="2.5092"> <stop offset="0.0491" style="stop-color:#996627"></stop> <stop offset="0.85" style="stop-color:#A87536"></stop> </linearGradient> <path class="st2" d="M21.78,27.07c0,0.45-0.36,0.82-0.82,0.82c-0.5,0-0.82-0.37-0.82-0.82c0-0.45,0.32-0.81,0.82-0.81 C21.42,26.26,21.78,26.61,21.78,27.07z M26,24.77c-0.82,0-1.52-0.5-2.02-1.26c-0.39,0.97-1.39,1.26-2.39,1.26h-1.03v-0.6h0.74 c0.86,0,1.21-0.57,1.21-1.5v-4.06c0-0.36-0.06-0.42-0.71-0.65l2.13-0.4v4.12c0,1.02,0.68,2.49,1.81,2.49h0.9v0.6H26z M24.11,27.07 c0,0.45-0.34,0.82-0.82,0.82c-0.49,0-0.82-0.37-0.82-0.82c0-0.45,0.34-0.81,0.82-0.81C23.77,26.26,24.11,26.61,24.11,27.07z"></path> <linearGradient id="SVGID_4_" gradientUnits="userSpaceOnUse" x1="26.3153" y1="28.5779" x2="34.2216" y2="3.7807"> <stop offset="0.0491" style="stop-color:#996627"></stop> <stop offset="0.85" style="stop-color:#A87536"></stop> </linearGradient> <path class="st3" d="M26.36,24.17h2.54v0.6h-2.54V24.17z"></path> <linearGradient id="SVGID_5_" gradientUnits="userSpaceOnUse" x1="28.355" y1="29.2283" x2="36.2614" y2="4.4311"> <stop offset="0.0491" style="stop-color:#996627"></stop> <stop offset="0.85" style="stop-color:#A87536"></stop> </linearGradient> <path class="st4" d="M28.6,24.17h2.54v0.6H28.6V24.17z"></path> <linearGradient id="SVGID_6_" gradientUnits="userSpaceOnUse" x1="30.3938" y1="29.8783" x2="38.3002" y2="5.0811"> <stop offset="0.0491" style="stop-color:#996627"></stop> <stop offset="0.85" style="stop-color:#A87536"></stop> </linearGradient> <path class="st5" d="M30.85,24.17h2.54v0.6h-2.54V24.17z"></path> <linearGradient id="SVGID_7_" gradientUnits="userSpaceOnUse" x1="32.4336" y1="30.5287" x2="40.3399" y2="5.7315"> <stop offset="0.0491" style="stop-color:#996627"></stop> <stop offset="0.85" style="stop-color:#A87536"></stop> </linearGradient> <path class="st6" d="M33.1,24.17h2.54v0.6H33.1V24.17z"></path> <linearGradient id="SVGID_8_" gradientUnits="userSpaceOnUse" x1="34.4733" y1="31.179" x2="42.3796" y2="6.3818"> <stop offset="0.0491" style="stop-color:#996627"></stop> <stop offset="0.85" style="stop-color:#A87536"></stop> </linearGradient> <path class="st7" d="M35.34,24.17h2.54v0.6h-2.54V24.17z"></path> <linearGradient id="SVGID_9_" gradientUnits="userSpaceOnUse" x1="40.4661" y1="33.0898" x2="48.3724" y2="8.2926"> <stop offset="0.0491" style="stop-color:#996627"></stop> <stop offset="0.85" style="stop-color:#A87536"></stop> </linearGradient> <path class="st8" d="M37.59,24.17h1.31c0.02-0.11,0.13-0.58,0.19-0.91c0.31-1.37,1.23-2.65,2.86-2.65c1.42,0,2.23,0.94,2.23,1.91 c0,0.63-0.55,1.26-1.29,1.65h2.49c-0.05-3.65-1.6-5.59-2.92-5.59c-1.42,0-2,0.86-2.31,1.96h-0.69c0.32-1.75,1.6-2.42,2.99-2.42 c2.5,0,4.35,3.09,4.38,6.06h2.02v0.6H37.59V24.17z M39.53,24.17h0.81c1.07-0.02,2.47-0.49,2.47-1.91c0-0.71-0.53-1.13-1.07-1.13 c-0.81,0-1.75,0.87-2.12,2.55L39.53,24.17z"></path> <linearGradient id="SVGID_10_" gradientUnits="userSpaceOnUse" x1="45.5173" y1="34.7003" x2="53.4236" y2="9.9031"> <stop offset="0.0491" style="stop-color:#996627"></stop> <stop offset="0.85" style="stop-color:#A87536"></stop> </linearGradient> <path class="st9" d="M48.55,24.17h0.36c0.91,0,1.28-0.6,1.28-1.55v-7.06c0-0.37,0-0.48-0.71-0.71l2.13-0.4v8.22 c0,1.36-0.99,2.1-2.36,2.1h-0.7V24.17z"></path> <linearGradient id="SVGID_11_" gradientUnits="userSpaceOnUse" x1="49.0153" y1="35.8156" x2="56.9217" y2="11.0184"> <stop offset="0.0491" style="stop-color:#996627"></stop> <stop offset="0.85" style="stop-color:#A87536"></stop> </linearGradient> <path class="st10" d="M53.75,15.56c0-0.37-0.02-0.48-0.7-0.71l2.12-0.4v10.33h-1.42V15.56z"></path> <linearGradient id="SVGID_12_" gradientUnits="userSpaceOnUse" x1="57.9331" y1="38.6589" x2="65.8394" y2="13.8618"> <stop offset="0.0491" style="stop-color:#996627"></stop> <stop offset="0.85" style="stop-color:#A87536"></stop> </linearGradient> <path class="st11" d="M62.1,24.77c-1.36,0-2.41-0.48-2.41-2.02v-2.97c0-0.39-0.23-0.52-1.15-0.52v-0.55l2.57-0.11v4.22 c0,0.86,0.4,1.31,1.08,1.36h3.83c0.84,0,1.2-0.61,1.2-1.55V18.7c0-0.39-0.02-0.5-0.73-0.73l2.15-0.4v5.11 c0,1.36-0.81,2.1-2.21,2.1H62.1z M62.81,15.14c-0.5,0-0.82,0.37-0.82,0.82s0.32,0.82,0.82,0.82c0.47,0,0.81-0.37,0.81-0.82 S63.28,15.14,62.81,15.14z M65.13,15.14c-0.48,0-0.82,0.37-0.82,0.82s0.34,0.82,0.82,0.82c0.49,0,0.82-0.37,0.82-0.82 S65.62,15.14,65.13,15.14z"></path> <linearGradient id="SVGID_13_" gradientUnits="userSpaceOnUse" x1="64.482" y1="40.747" x2="72.3884" y2="15.9498"> <stop offset="0.0491" style="stop-color:#996627"></stop> <stop offset="0.85" style="stop-color:#A87536"></stop> </linearGradient> <path class="st12" d="M70.79,15.56c0-0.37-0.02-0.48-0.7-0.71l2.12-0.4v10.33h-1.42V15.56z"></path> <linearGradient id="SVGID_14_" gradientUnits="userSpaceOnUse" x1="70.5016" y1="42.6663" x2="78.408" y2="17.8691"> <stop offset="0.0491" style="stop-color:#996627"></stop> <stop offset="0.85" style="stop-color:#A87536"></stop> </linearGradient> <path class="st13" d="M75.85,18.7c0-0.39-0.02-0.5-0.73-0.73l2.15-0.4v4.02c0,0.87-0.03,1.76-0.18,2.59h2.36v0.6h-2.47 c-0.39,1.65-1.34,2.91-3.6,2.91c-0.21,0-0.57-0.02-1.16-0.06c2.34-0.63,3.51-1.78,3.64-4.82V18.7z"></path> <linearGradient id="SVGID_15_" gradientUnits="userSpaceOnUse" x1="74.2402" y1="43.8583" x2="82.1465" y2="19.0611"> <stop offset="0.0491" style="stop-color:#996627"></stop> <stop offset="0.85" style="stop-color:#A87536"></stop> </linearGradient> <path class="st14" d="M79.15,24.17h2.54v0.6h-2.54V24.17z"></path> <linearGradient id="SVGID_16_" gradientUnits="userSpaceOnUse" x1="76.2799" y1="44.5087" x2="84.1862" y2="19.7115"> <stop offset="0.0491" style="stop-color:#996627"></stop> <stop offset="0.85" style="stop-color:#A87536"></stop> </linearGradient> <path class="st15" d="M81.4,24.17h2.54v0.6H81.4V24.17z"></path> <linearGradient id="SVGID_17_" gradientUnits="userSpaceOnUse" x1="78.3196" y1="45.159" x2="86.2259" y2="20.3618"> <stop offset="0.0491" style="stop-color:#996627"></stop> <stop offset="0.85" style="stop-color:#A87536"></stop> </linearGradient> <path class="st16" d="M83.65,24.17h2.54v0.6h-2.54V24.17z"></path> <linearGradient id="SVGID_18_" gradientUnits="userSpaceOnUse" x1="80.3593" y1="45.8093" x2="88.2657" y2="21.0122"> <stop offset="0.0491" style="stop-color:#996627"></stop> <stop offset="0.85" style="stop-color:#A87536"></stop> </linearGradient> <path class="st17" d="M85.89,24.17h2.54v0.6h-2.54V24.17z"></path> <linearGradient id="SVGID_19_" gradientUnits="userSpaceOnUse" x1="82.399" y1="46.4597" x2="90.3054" y2="21.6625"> <stop offset="0.0491" style="stop-color:#996627"></stop> <stop offset="0.85" style="stop-color:#A87536"></stop> </linearGradient> <path class="st18" d="M88.14,24.17h2.54v0.6h-2.54V24.17z"></path> <linearGradient id="SVGID_20_" gradientUnits="userSpaceOnUse" x1="87.4748" y1="48.0781" x2="95.3812" y2="23.2809"> <stop offset="0.0491" style="stop-color:#996627"></stop> <stop offset="0.85" style="stop-color:#A87536"></stop> </linearGradient> <path class="st19" d="M99.61,24.77h-9.23v-0.6h1.31c0.02-0.11,0.13-0.58,0.19-0.91c0.31-1.37,1.23-2.65,2.86-2.65 c1.42,0,2.23,0.94,2.23,1.91c0,0.63-0.55,1.26-1.29,1.65h2.49c-0.05-3.65-1.6-5.59-2.92-5.59c-1.42,0-2,0.86-2.31,1.96h-0.69 c0.32-1.75,1.6-2.42,2.99-2.42c2.52,0,4.36,3.13,4.38,6.12V24.77z M92.33,24.17h0.81c1.07-0.02,2.47-0.49,2.47-1.91 c0-0.71-0.53-1.13-1.07-1.13c-0.81,0-1.75,0.87-2.12,2.55L92.33,24.17z"></path> <linearGradient id="SVGID_21_" gradientUnits="userSpaceOnUse" x1="96.4719" y1="50.9467" x2="104.3782" y2="26.1495"> <stop offset="0.0491" style="stop-color:#996627"></stop> <stop offset="0.85" style="stop-color:#A87536"></stop> </linearGradient> <path class="st20" d="M102.48,27.6c1.16-0.26,2.65-0.78,3.25-2.83h-1.86c-1.08,0-2.47-0.97-2.47-2.52c0-2.81,1.97-4.62,4.72-4.62 h1.23v3.96c0,1.03-0.03,1.89-0.11,2.59h2.08v0.6h-2.23c-0.68,2.59-2.36,2.97-3.67,2.97c-0.23,0-0.74-0.03-1.33-0.08L102.48,27.6z M105.92,18.13h-0.18c-1.42,0-2.94,1.62-2.94,4.02c0,0.95,0.5,2.02,1.42,2.02h1.66c0.02-0.16,0.03-0.29,0.03-0.5V18.13z"></path> <linearGradient id="SVGID_22_" gradientUnits="userSpaceOnUse" x1="109.0568" y1="54.9593" x2="116.9631" y2="30.1621"> <stop offset="0.0491" style="stop-color:#996627"></stop> <stop offset="0.85" style="stop-color:#A87536"></stop> </linearGradient> <path class="st21" d="M120.4,24.17c1.86,0,2.23-1.29,2.6-2.62c0.36-1.36,0.87-2.84,3.18-2.86c1.97,0,3.01,1.97,3.01,3.46 c0,1.57-1.12,3.31-3.41,3.31c-1.49,0-2.17-0.78-2.67-1.37c-0.39,0.4-0.97,0.68-1.81,0.68h-12.28v-0.6h7.42 c-0.05-3.65-1.33-5.58-2.63-5.58c-1.44,0-2.38,1.42-2.88,3.09l-0.66-1.21c0.24-0.13,0.4-0.26,0.65-0.63 c0.57-0.92,1.33-1.81,2.94-1.81c2.57,0,4.14,3.15,4.18,6.14H120.4z M114.75,27.07c0,0.48-0.39,0.84-0.84,0.84 c-0.45,0-0.84-0.36-0.84-0.84c0-0.47,0.39-0.82,0.84-0.82C114.36,26.24,114.75,26.6,114.75,27.07z M125.91,19.21 c-1.03,0-1.36,1.16-1.7,2.42c-0.16,0.58-0.29,1.21-0.61,1.83l0.15,0.19c0.42,0.49,1.08,1.24,2.08,1.24c1.02,0,1.89-1.2,1.89-2.67 c0-1.54-0.58-2.97-1.75-3.02H125.91z"></path> </g> <g> <linearGradient id="SVGID_23_" gradientUnits="userSpaceOnUse" x1="14.8758" y1="24.9305" x2="22.7822" y2="0.1334"> <stop offset="0.0491" style="stop-color:#996627"></stop> <stop offset="0.85" style="stop-color:#A87536"></stop> </linearGradient> <path class="st22" d="M13.18,38.86c-0.48-0.27-0.87-0.8-1.16-1.59l-0.39-1H7.33l-1.23,2.93H5.4l4.31-10.17h0.46l3.39,8.24 c0.26,0.6,0.5,1,0.72,1.22c0.23,0.22,0.55,0.35,0.97,0.39v0.31c-0.18,0.05-0.39,0.08-0.62,0.08 C14.15,39.26,13.66,39.13,13.18,38.86z M7.56,35.64h3.77l-1.85-4.47L7.56,35.64z"></path> <linearGradient id="SVGID_24_" gradientUnits="userSpaceOnUse" x1="18.4245" y1="26.062" x2="26.3309" y2="1.2648"> <stop offset="0.0491" style="stop-color:#996627"></stop> <stop offset="0.85" style="stop-color:#A87536"></stop> </linearGradient> <path class="st23" d="M15.86,30.87c0-0.52-0.07-0.91-0.22-1.16c-0.14-0.25-0.43-0.38-0.86-0.38h-0.31v-0.31h1.39 c0.38,0,0.67,0.05,0.85,0.15c0.19,0.1,0.33,0.28,0.41,0.53c0.08,0.26,0.12,0.65,0.12,1.17v8.32h-1.39V30.87z"></path> <linearGradient id="SVGID_25_" gradientUnits="userSpaceOnUse" x1="28.7995" y1="29.37" x2="36.7059" y2="4.5728"> <stop offset="0.0491" style="stop-color:#996627"></stop> <stop offset="0.85" style="stop-color:#A87536"></stop> </linearGradient> <path class="st24" d="M23.59,30.87c0-0.52-0.07-0.91-0.22-1.16c-0.14-0.25-0.43-0.38-0.86-0.38h-0.31v-0.31h1.39 c0.38,0,0.67,0.05,0.85,0.15c0.19,0.1,0.33,0.28,0.41,0.53c0.08,0.26,0.12,0.65,0.12,1.17v2.77h4.62v-4.62h1.39v8.32 c0,0.52,0.07,0.91,0.22,1.16c0.14,0.25,0.43,0.38,0.86,0.38h0.31v0.31h-1.39c-0.38,0-0.67-0.05-0.85-0.15 c-0.19-0.1-0.33-0.27-0.41-0.53s-0.12-0.65-0.12-1.17v-3.08h-4.62v4.93h-1.39V30.87z"></path> <linearGradient id="SVGID_26_" gradientUnits="userSpaceOnUse" x1="37.1231" y1="32.0239" x2="45.0294" y2="7.2267"> <stop offset="0.0491" style="stop-color:#996627"></stop> <stop offset="0.85" style="stop-color:#A87536"></stop> </linearGradient> <path class="st25" d="M34.34,38.72c-0.49-0.41-0.73-1.13-0.73-2.16v-2.77c0-0.52-0.07-0.91-0.21-1.16 c-0.14-0.25-0.43-0.38-0.86-0.38h-0.15v-0.31h1.23c0.38,0,0.67,0.05,0.86,0.15c0.19,0.1,0.33,0.28,0.41,0.53 c0.08,0.26,0.12,0.65,0.12,1.17v2.77c0,0.72,0.16,1.25,0.49,1.58c0.32,0.33,0.73,0.5,1.21,0.5c0.54,0,1.06-0.27,1.54-0.82v-5.88 h1.39v7.24h-0.77l-0.54-0.62h-0.08c-0.22,0.22-0.5,0.4-0.84,0.55c-0.34,0.15-0.73,0.22-1.16,0.22 C35.45,39.34,34.83,39.14,34.34,38.72z"></path> <linearGradient id="SVGID_27_" gradientUnits="userSpaceOnUse" x1="43.5263" y1="34.0655" x2="51.4327" y2="9.2683"> <stop offset="0.0491" style="stop-color:#996627"></stop> <stop offset="0.85" style="stop-color:#A87536"></stop> </linearGradient> <path class="st26" d="M42.19,41.81c0.5,0,0.92-0.12,1.24-0.35c0.32-0.23,0.6-0.66,0.84-1.27l0.31-0.85l-2.46-6.01 c-0.29-0.74-0.85-1.15-1.69-1.23v-0.31h1.31c0.89,0,1.51,0.41,1.85,1.23l1.76,4.27l1.94-5.35h0.77l-3,8.24 c-0.3,0.81-0.63,1.36-0.99,1.65s-0.83,0.43-1.4,0.43h-0.46V41.81z"></path> <linearGradient id="SVGID_28_" gradientUnits="userSpaceOnUse" x1="51.7439" y1="36.6856" x2="59.6503" y2="11.8884"> <stop offset="0.0491" style="stop-color:#996627"></stop> <stop offset="0.85" style="stop-color:#A87536"></stop> </linearGradient> <path class="st27" d="M50.07,39.13c-0.34-0.14-0.63-0.37-0.87-0.69s-0.36-0.74-0.36-1.26c0-0.78,0.36-1.33,1.09-1.66 c0.72-0.33,1.67-0.49,2.84-0.49h0.46c0-1.01-0.14-1.69-0.42-2.06c-0.28-0.37-0.68-0.55-1.2-0.55c-0.46,0-0.83,0.1-1.11,0.29 c-0.28,0.2-0.47,0.53-0.59,1.02h-0.69c0-0.35,0.02-0.62,0.06-0.82c0.04-0.2,0.15-0.39,0.32-0.56c0.18-0.19,0.49-0.32,0.92-0.41 c0.43-0.09,0.89-0.13,1.39-0.13c0.83,0,1.49,0.22,1.97,0.67c0.48,0.45,0.72,1.3,0.72,2.56v4.16h-0.77l-0.54-0.69h-0.08 c-0.19,0.24-0.46,0.44-0.82,0.6c-0.36,0.16-0.81,0.25-1.34,0.25C50.75,39.34,50.41,39.27,50.07,39.13z M52.62,38.4 c0.23-0.17,0.43-0.39,0.62-0.68v-2.08h-0.46c-0.76,0-1.36,0.14-1.8,0.42s-0.66,0.65-0.66,1.12c0,0.47,0.14,0.83,0.42,1.09 c0.28,0.25,0.63,0.38,1.04,0.38C52.11,38.65,52.39,38.57,52.62,38.4z"></path> <linearGradient id="SVGID_29_" gradientUnits="userSpaceOnUse" x1="59.817" y1="39.2596" x2="67.7233" y2="14.4624"> <stop offset="0.0491" style="stop-color:#996627"></stop> <stop offset="0.85" style="stop-color:#A87536"></stop> </linearGradient> <path class="st28" d="M56.83,33.79c0-0.52-0.07-0.91-0.22-1.16c-0.14-0.25-0.43-0.38-0.86-0.38h-0.31v-0.31h1.39 c0.38,0,0.67,0.05,0.87,0.15c0.2,0.1,0.35,0.26,0.44,0.46h0.08c0.22-0.22,0.5-0.4,0.84-0.55c0.34-0.15,0.73-0.22,1.16-0.22 c0.43,0,0.8,0.08,1.11,0.24c0.31,0.16,0.55,0.44,0.74,0.84c0.27-0.34,0.61-0.6,1.02-0.79c0.42-0.19,0.84-0.28,1.29-0.28 c0.66,0,1.18,0.21,1.57,0.62c0.39,0.41,0.59,1.13,0.59,2.16v4.62h-1.39v-4.62c0-0.74-0.1-1.27-0.31-1.59 c-0.21-0.32-0.51-0.49-0.92-0.49c-0.29,0-0.59,0.11-0.91,0.32c-0.32,0.21-0.55,0.44-0.71,0.69c0.05,0.15,0.08,0.51,0.08,1.08v4.62 h-1.39v-4.62c0-0.74-0.1-1.27-0.31-1.59c-0.21-0.32-0.51-0.49-0.92-0.49c-0.54,0-1.06,0.27-1.54,0.82v5.88h-1.39V33.79z"></path> <linearGradient id="SVGID_30_" gradientUnits="userSpaceOnUse" x1="70.4143" y1="42.6385" x2="78.3207" y2="17.8413"> <stop offset="0.0491" style="stop-color:#996627"></stop> <stop offset="0.85" style="stop-color:#A87536"></stop> </linearGradient> <path class="st29" d="M70.99,40.99c0.49,0,0.86-0.26,1.1-0.79s0.36-1.26,0.36-2.22v-8.97h1.39v8.97c0,0.8-0.08,1.44-0.25,1.92 c-0.17,0.48-0.46,0.83-0.87,1.06c-0.41,0.23-0.99,0.34-1.73,0.34V40.99z"></path> <linearGradient id="SVGID_31_" gradientUnits="userSpaceOnUse" x1="75.9788" y1="44.4126" x2="83.8851" y2="19.6155"> <stop offset="0.0491" style="stop-color:#996627"></stop> <stop offset="0.85" style="stop-color:#A87536"></stop> </linearGradient> <path class="st30" d="M77.04,38.84c-0.48-0.33-0.85-0.79-1.09-1.36c-0.25-0.57-0.37-1.21-0.37-1.92c0-0.7,0.12-1.33,0.37-1.91 c0.25-0.58,0.6-1.03,1.07-1.36c0.47-0.33,1.01-0.5,1.64-0.5c1.04,0,1.81,0.29,2.32,0.87c0.51,0.58,0.76,1.42,0.76,2.52l-0.03,0.62 h-4.67c0,0.86,0.19,1.57,0.55,2.11c0.37,0.54,0.88,0.82,1.53,0.82c0.48,0,0.89-0.1,1.22-0.31c0.33-0.21,0.64-0.51,0.93-0.92 l0.31,0.23c-0.34,0.57-0.73,0.98-1.19,1.23c-0.45,0.26-0.98,0.39-1.59,0.39C78.12,39.34,77.53,39.17,77.04,38.84z M80.28,35.18 c0-0.9-0.13-1.59-0.4-2.06c-0.27-0.47-0.67-0.71-1.22-0.71c-0.31,0-0.59,0.12-0.83,0.36c-0.25,0.24-0.44,0.57-0.58,0.99 s-0.21,0.89-0.21,1.42H80.28z"></path> <linearGradient id="SVGID_32_" gradientUnits="userSpaceOnUse" x1="83.0459" y1="46.6659" x2="90.9522" y2="21.8687"> <stop offset="0.0491" style="stop-color:#996627"></stop> <stop offset="0.85" style="stop-color:#A87536"></stop> </linearGradient> <path class="st31" d="M83.71,33.72c-0.24-0.57-0.47-0.98-0.7-1.21c-0.23-0.23-0.54-0.36-0.92-0.38v-0.31c0.05,0,0.13,0,0.23-0.02 c0.1-0.01,0.21-0.01,0.31-0.01c0.55,0,1.04,0.14,1.47,0.42c0.43,0.28,0.78,0.78,1.07,1.5l1.31,3.24l1.31-3.31 c-0.25-0.54-0.48-0.93-0.7-1.15c-0.22-0.22-0.5-0.34-0.84-0.36v-0.31c0.05,0,0.13,0,0.23-0.02c0.1-0.01,0.21-0.01,0.31-0.01 c0.55,0,1.04,0.14,1.47,0.42c0.43,0.28,0.78,0.78,1.07,1.5l1.31,3.24l2-5.01h0.77l-3,7.39h-0.31l-1.92-4.78l-1.93,4.78h-0.31 L83.71,33.72z"></path> <linearGradient id="SVGID_33_" gradientUnits="userSpaceOnUse" x1="92.8275" y1="49.7847" x2="100.7338" y2="24.9875"> <stop offset="0.0491" style="stop-color:#996627"></stop> <stop offset="0.85" style="stop-color:#A87536"></stop> </linearGradient> <path class="st32" d="M95.61,38.84c-0.48-0.33-0.85-0.79-1.09-1.36c-0.25-0.57-0.37-1.21-0.37-1.92c0-0.7,0.12-1.33,0.37-1.91 c0.25-0.58,0.6-1.03,1.07-1.36c0.47-0.33,1.01-0.5,1.64-0.5c1.04,0,1.81,0.29,2.32,0.87c0.51,0.58,0.76,1.42,0.76,2.52l-0.03,0.62 h-4.67c0,0.86,0.19,1.57,0.55,2.11c0.37,0.54,0.88,0.82,1.53,0.82c0.48,0,0.89-0.1,1.22-0.31c0.33-0.21,0.64-0.51,0.93-0.92 l0.31,0.23c-0.34,0.57-0.73,0.98-1.19,1.23c-0.45,0.26-0.98,0.39-1.59,0.39C96.68,39.34,96.09,39.17,95.61,38.84z M98.84,35.18 c0-0.9-0.13-1.59-0.4-2.06c-0.27-0.47-0.67-0.71-1.22-0.71c-0.31,0-0.59,0.12-0.83,0.36c-0.25,0.24-0.44,0.57-0.58,0.99 s-0.21,0.89-0.21,1.42H98.84z"></path> <linearGradient id="SVGID_34_" gradientUnits="userSpaceOnUse" x1="96.6003" y1="50.9876" x2="104.5066" y2="26.1904"> <stop offset="0.0491" style="stop-color:#996627"></stop> <stop offset="0.85" style="stop-color:#A87536"></stop> </linearGradient> <path class="st33" d="M101.98,30.87c0-0.52-0.07-0.91-0.22-1.16c-0.14-0.25-0.43-0.38-0.86-0.38h-0.31v-0.31h1.39 c0.38,0,0.67,0.05,0.85,0.15c0.19,0.1,0.33,0.28,0.41,0.53c0.08,0.26,0.12,0.65,0.12,1.17v8.32h-1.39V30.87z"></path> <linearGradient id="SVGID_35_" gradientUnits="userSpaceOnUse" x1="99.8438" y1="52.0218" x2="107.7501" y2="27.2246"> <stop offset="0.0491" style="stop-color:#996627"></stop> <stop offset="0.85" style="stop-color:#A87536"></stop> </linearGradient> <path class="st34" d="M105.56,30.87c0-0.52-0.07-0.91-0.22-1.16c-0.14-0.25-0.43-0.38-0.86-0.38h-0.31v-0.31h1.39 c0.38,0,0.67,0.05,0.85,0.15c0.19,0.1,0.33,0.28,0.41,0.53c0.08,0.26,0.12,0.65,0.12,1.17v8.32h-1.39V30.87z"></path> <linearGradient id="SVGID_36_" gradientUnits="userSpaceOnUse" x1="105.9992" y1="53.9844" x2="113.9055" y2="29.1872"> <stop offset="0.0491" style="stop-color:#996627"></stop> <stop offset="0.85" style="stop-color:#A87536"></stop> </linearGradient> <path class="st35" d="M110.12,38.84c-0.48-0.33-0.85-0.79-1.09-1.36c-0.25-0.57-0.37-1.21-0.37-1.92c0-0.7,0.12-1.33,0.37-1.91 c0.25-0.58,0.6-1.03,1.07-1.36c0.47-0.33,1.01-0.5,1.64-0.5c1.04,0,1.81,0.29,2.32,0.87c0.51,0.58,0.76,1.42,0.76,2.52l-0.03,0.62 h-4.67c0,0.86,0.19,1.57,0.55,2.11c0.37,0.54,0.88,0.82,1.53,0.82c0.48,0,0.89-0.1,1.22-0.31c0.33-0.21,0.64-0.51,0.93-0.92 l0.31,0.23c-0.34,0.57-0.73,0.98-1.19,1.23c-0.45,0.26-0.98,0.39-1.59,0.39C111.19,39.34,110.6,39.17,110.12,38.84z M113.35,35.18 c0-0.9-0.13-1.59-0.4-2.06c-0.27-0.47-0.67-0.71-1.22-0.71c-0.31,0-0.59,0.12-0.83,0.36c-0.25,0.24-0.44,0.57-0.58,0.99 s-0.21,0.89-0.21,1.42H113.35z"></path> <linearGradient id="SVGID_37_" gradientUnits="userSpaceOnUse" x1="110.8877" y1="55.543" x2="118.794" y2="30.7458"> <stop offset="0.0491" style="stop-color:#996627"></stop> <stop offset="0.85" style="stop-color:#A87536"></stop> </linearGradient> <path class="st36" d="M116.56,33.79c0-0.52-0.07-0.91-0.22-1.16c-0.14-0.25-0.43-0.38-0.86-0.38h-0.15v-0.31h1.23 c0.39,0,0.69,0.05,0.89,0.16s0.34,0.29,0.42,0.53h0.08c0.18-0.24,0.43-0.44,0.75-0.6c0.31-0.16,0.68-0.25,1.1-0.25 c0.41,0,0.72,0.08,0.92,0.23c0.17,0.13,0.35,0.37,0.54,0.69l-0.62,0.46c-0.11-0.15-0.28-0.27-0.49-0.35s-0.46-0.12-0.74-0.12 c-0.31,0-0.59,0.07-0.85,0.21c-0.26,0.14-0.46,0.33-0.62,0.56v5.7h-1.39V33.79z"></path> <linearGradient id="SVGID_38_" gradientUnits="userSpaceOnUse" x1="116.7947" y1="57.4264" x2="124.701" y2="32.6292"> <stop offset="0.0491" style="stop-color:#996627"></stop> <stop offset="0.85" style="stop-color:#A87536"></stop> </linearGradient> <path class="st37" d="M122.9,41.81c0.5,0,0.92-0.12,1.24-0.35c0.32-0.23,0.6-0.66,0.84-1.27l0.31-0.85l-2.46-6.01 c-0.29-0.74-0.85-1.15-1.69-1.23v-0.31h1.31c0.89,0,1.51,0.41,1.85,1.23l1.76,4.27l1.94-5.35h0.77l-3,8.24 c-0.3,0.81-0.63,1.36-0.99,1.65s-0.83,0.43-1.4,0.43h-0.46V41.81z"></path> </g> </g> <g> <linearGradient id="SVGID_39_" gradientUnits="userSpaceOnUse" x1="137.794" y1="64.1218" x2="145.7003" y2="39.3247"> <stop offset="0.0491" style="stop-color:#996627"></stop> <stop offset="0.85" style="stop-color:#A87536"></stop> </linearGradient> <path class="st38" d="M146.28,11.55c0,0-0.96,2.85,1.3,5.02c2.26,2.18,6.28,5.07,7.37,5.95s3.94,3.43,1.93,8.04 c0,0,0.21-1.84-0.25-3.01c-0.46-1.17-1.21-2.64-3.6-4.31c-2.39-1.67-5.61-4.4-6.07-4.81S144.06,15.66,146.28,11.55z"></path> <linearGradient id="SVGID_40_" gradientUnits="userSpaceOnUse" x1="147.9157" y1="67.3491" x2="155.822" y2="42.5519"> <stop offset="0.0491" style="stop-color:#996627"></stop> <stop offset="0.85" style="stop-color:#A87536"></stop> </linearGradient> <path class="st39" d="M156.14,32.67c0,0-0.51,0.76,0.01,2.16c0.52,1.39,3.42,1.99,3.76,2.46c0.34,0.47,0.31,1.39,0.31,1.39 s0.87-2.16,0.45-4.53c-0.31-1.77-2.6-2.78-4.24-3.41L156.14,32.67z M156.78,32.76c0,0,3.08,1.35,3.17,2.62 C159.94,35.37,156.03,33.81,156.78,32.76z"></path> <linearGradient id="SVGID_41_" gradientUnits="userSpaceOnUse" x1="142.4822" y1="65.6166" x2="150.3886" y2="40.8195"> <stop offset="0.0491" style="stop-color:#996627"></stop> <stop offset="0.85" style="stop-color:#A87536"></stop> </linearGradient> <path class="st40" d="M156.41,30.83c0,0,0.51-0.76-0.01-2.16c-0.52-1.39-3.42-1.99-3.76-2.46c-0.34-0.47-0.31-1.39-0.31-1.39 s-0.87,2.16-0.45,4.53c0.31,1.77,2.6,2.78,4.24,3.41L156.41,30.83z M155.77,30.75c0,0-3.08-1.35-3.17-2.62 C152.6,28.13,156.52,29.69,155.77,30.75z"></path> <linearGradient id="SVGID_42_" gradientUnits="userSpaceOnUse" x1="135.8369" y1="63.4978" x2="143.7432" y2="38.7007"> <stop offset="0.0491" style="stop-color:#996627"></stop> <stop offset="0.85" style="stop-color:#A87536"></stop> </linearGradient> <path class="st41" d="M155.66,32.91c0,0-1.07,3.4-2.77,3.5c-1.7,0.1-1.47-1.89-1.53-2.44c-0.07-0.55-0.32-0.82-0.78-0.02 s-3.88,6.94-8.65,6.99c-4.77,0.05-6.38-3.4-6.52-7.73c0,0,1.21,6,6.45,5.61c5.25-0.39,7.88-5.13,8.34-5.92s0.59-1.31,0.89-1.32 c0.29-0.01,0.44,0.12,0.46,0.63c0.02,0.51,0.07,2.26,1.48,2.12S155.66,32.91,155.66,32.91z"></path> <linearGradient id="SVGID_43_" gradientUnits="userSpaceOnUse" x1="130.4864" y1="61.7919" x2="138.3928" y2="36.9947"> <stop offset="0.0491" style="stop-color:#996627"></stop> <stop offset="0.85" style="stop-color:#A87536"></stop> </linearGradient> <path class="st42" d="M142.86,17.54c0.04-0.14,0.21-0.18,0.31-0.08c0.37,0.36,1.11,1.1,1.41,1.51c0.71,0.97,0.8,2.52-0.13,3.89 c0,0,0.44-1.86-0.71-3.14l-0.98-1.09c-0.1-0.12-0.14-0.28-0.1-0.43L142.86,17.54z"></path> <g> <linearGradient id="SVGID_44_" gradientUnits="userSpaceOnUse" x1="134.8207" y1="63.1738" x2="142.7271" y2="38.3767"> <stop offset="0.0491" style="stop-color:#996627"></stop> <stop offset="0.85" style="stop-color:#A87536"></stop> </linearGradient> <path class="st43" d="M142.01,25.9c0,0-1.95,2.28-0.67,5.15s3.94,7.04,4.63,8.26c0.68,1.22,2.38,4.65-1.2,8.18 c0,0,0.88-1.63,0.89-2.89c0.01-1.26-0.15-2.9-1.74-5.34c-1.59-2.44-3.57-6.17-3.84-6.73C139.8,31.96,138.42,28.88,142.01,25.9z"></path> <linearGradient id="SVGID_45_" gradientUnits="userSpaceOnUse" x1="133.7917" y1="62.8458" x2="141.6981" y2="38.0486"> <stop offset="0.0491" style="stop-color:#996627"></stop> <stop offset="0.85" style="stop-color:#A87536"></stop> </linearGradient> <path class="st44" d="M147.08,31.88c0.78-2.34-2.31-5.21-3.11-6.29c-0.8-1.09-0.13-2.5-0.13-2.5c-1.37,1.15-1.62,2.34-1.49,2.91 c0.13,0.57,1.37,2.32,1.37,2.32s-0.84,0.44-1.05,1.95c-0.21,1.51,2.11,3.48,2.18,4.07c0.08,0.59-0.4,1.41-0.4,1.41 S146.3,34.22,147.08,31.88z M144.26,28.71c0,0,2.12,2.73,1.57,3.92C145.83,32.63,143.07,29.29,144.26,28.71z"></path> </g> <g> <linearGradient id="SVGID_46_" gradientUnits="userSpaceOnUse" x1="137.3014" y1="63.9648" x2="145.2077" y2="39.1676"> <stop offset="0.0491" style="stop-color:#996627"></stop> <stop offset="0.85" style="stop-color:#A87536"></stop> </linearGradient> <path class="st45" d="M149.03,39.67c-7.65-0.13-11.17-6.38-11.36-11.18c-0.18-4.57,1.69-7.38,2.63-8.49 c-4.38,4.79-4.97,10.49-2.63,15.09c2.3,4.53,7.23,6.34,11.54,6.41c3.64,0.05,6.85-1.56,9.22-4.33l-0.74-0.27 C156.14,38.21,153.4,39.74,149.03,39.67z"></path> <linearGradient id="SVGID_47_" gradientUnits="userSpaceOnUse" x1="139.1961" y1="64.5689" x2="147.1024" y2="39.7717"> <stop offset="0.0491" style="stop-color:#996627"></stop> <stop offset="0.85" style="stop-color:#A87536"></stop> </linearGradient> <path class="st46" d="M160.27,22.71c-1.63-3.45-6.72-7.08-10.61-10.55C145.63,8.58,146.58,5,146.58,5 c-1.76,4.33,0.59,7.25,1.57,8.16c0.88,0.82,4.96,4.27,8.23,7.16c3.27,2.89,4.4,6.53,4.4,8.86c0,1.16-0.17,2.31-0.35,3.17 l0.46,0.71C162.03,29.59,161.57,25.47,160.27,22.71z"></path> </g> <linearGradient id="SVGID_48_" gradientUnits="userSpaceOnUse" x1="136.1838" y1="63.6085" x2="144.0901" y2="38.8113"> <stop offset="0.0491" style="stop-color:#996627"></stop> <stop offset="0.85" style="stop-color:#A87536"></stop> </linearGradient> <path class="st47" d="M147.43,27.36c0,0,0.47-2.27,1.7-2.87c0,0,0.65,0.32-0.67,3.9c0,0,0.06,0.32,0.49-0.31s1.19-1.57,1.03-2.5 c-0.16-0.93-0.81-2.87-0.81-2.87s-0.25-0.75-0.96-0.07c-0.71,0.68-1.75,2.1-1.62,2.8C146.73,26.12,147.24,27.96,147.43,27.36z"></path> <linearGradient id="SVGID_49_" gradientUnits="userSpaceOnUse" x1="142.5058" y1="65.6241" x2="150.4121" y2="40.827"> <stop offset="0.0491" style="stop-color:#996627"></stop> <stop offset="0.85" style="stop-color:#A87536"></stop> </linearGradient> <path class="st48" d="M153.53,37.74c-0.01-0.22-0.76-0.9-0.98-0.9c-0.26,0-0.72,0.92-0.9,0.92c-0.31,0.01-0.65-1.3-1.05-1.34 c-0.39-0.04-1.36,1.16-1.36,1.45s0.82,1.27,1.09,1.27c0.35,0,1.11-0.91,1.29-0.91c0.18,0,0.84,0.58,1.02,0.58 C152.8,38.8,153.54,37.99,153.53,37.74z"></path> </g> </svg> 